M48
; DRILL file {KiCad (6.0.4)} date Sat Oct  8 16:20:34 2022
; FORMAT={-:-/ absolute / metric / decimal}
; #@! TF.CreationDate,2022-10-08T16:20:34+02:00
; #@! TF.GenerationSoftware,Kicad,Pcbnew,(6.0.4)
; #@! TF.FileFunction,MixedPlating,1,2
FMAT,2
METRIC
; #@! TA.AperFunction,Plated,PTH,ViaDrill
T1C0.400
; #@! TA.AperFunction,Plated,PTH,ComponentDrill
T2C0.500
; #@! TA.AperFunction,Plated,PTH,ComponentDrill
T3C0.650
; #@! TA.AperFunction,Plated,PTH,ComponentDrill
T4C0.800
; #@! TA.AperFunction,Plated,PTH,ComponentDrill
T5C0.900
; #@! TA.AperFunction,Plated,PTH,ComponentDrill
T6C1.000
; #@! TA.AperFunction,Plated,PTH,ComponentDrill
T7C1.100
; #@! TA.AperFunction,Plated,PTH,ComponentDrill
T8C1.500
; #@! TA.AperFunction,Plated,PTH,ComponentDrill
T9C2.400
; #@! TA.AperFunction,Plated,PTH,ComponentDrill
T10C3.200
; #@! TA.AperFunction,NonPlated,NPTH,ComponentDrill
T11C1.100
; #@! TA.AperFunction,NonPlated,NPTH,ComponentDrill
T12C2.600
%
G90
G05
T1
X1.975Y98.625
X2.1Y47.725
X3.025Y2.3
X12.625Y74.5
X16.625Y16.775
X23.65Y46.9
X23.683Y27.931
X26.225Y16.075
X33.475Y32.5
X37.025Y47.05
X40.925Y31.5
X41.125Y10.6
X45.65Y2.15
X45.8Y98.25
X48.55Y17.7
X49.375Y74.625
X50.85Y26.2
X51.325Y10.6
X53.95Y59.45
X57.75Y31.175
X60.275Y10.0
X61.65Y35.0
X63.975Y15.825
X64.85Y67.925
X68.288Y28.384
X73.75Y15.6
X80.425Y16.725
X81.66Y44.786
X82.195Y56.335
X86.2Y93.7
X91.095Y73.687
X92.75Y43.05
X97.775Y2.625
X98.75Y47.75
X98.8Y97.575
T2
X44.4Y41.9
X45.103Y43.597
X45.103Y40.203
X46.8Y44.3
X46.8Y39.5
X48.497Y43.597
X48.497Y40.203
X49.2Y41.9
T3
X76.1Y34.67
X76.1Y33.4
T4
X15.92Y33.275
X26.08Y33.275
X27.675Y49.825
X27.675Y47.285
X27.675Y44.745
X35.48Y28.775
X35.48Y21.155
X38.02Y28.775
X38.02Y21.155
X40.56Y28.775
X40.56Y21.155
X43.1Y28.775
X43.1Y21.155
X45.64Y28.775
X45.64Y21.155
X48.18Y28.775
X48.18Y21.155
X50.72Y28.775
X50.72Y21.155
X51.072Y96.075
X53.26Y28.775
X53.26Y21.155
X55.8Y28.775
X55.8Y21.155
X58.692Y96.075
X73.025Y46.13
X73.025Y43.59
X73.025Y41.05
X73.15Y60.06
X73.15Y52.44
X86.925Y52.2
X86.925Y49.66
X86.925Y47.12
X94.545Y52.2
X94.545Y49.66
X94.545Y47.12
T5
X6.775Y11.875
X9.315Y11.875
X17.075Y11.875
X19.615Y11.875
X25.875Y11.675
X28.415Y11.675
X35.275Y11.275
X37.815Y11.275
X45.075Y11.575
X47.615Y11.575
X54.25Y11.575
X56.79Y11.575
X63.175Y11.675
X65.715Y11.675
X73.575Y11.575
X76.115Y11.575
X81.575Y11.875
X84.115Y11.875
X89.35Y11.875
X91.89Y11.875
T7
X75.575Y91.815
T8
X70.55Y96.84
X70.55Y86.79
X80.6Y96.84
X80.6Y86.79
T9
X54.0Y81.05
X54.0Y68.35
T10
X46.8Y41.9
T11
X90.025Y89.725
X95.025Y89.725
T12
X15.1Y85.8
X29.85Y63.6
X43.1Y85.8
T4
G00X90.225Y85.975
M15
G01X90.225Y85.475
M16
G05
G00X94.825Y85.975
M15
G01X94.825Y85.475
M16
G05
T6
G00X89.775Y93.375
M15
G01X89.775Y93.075
M16
G05
G00X95.275Y93.375
M15
G01X95.275Y93.075
M16
G05
T0
M30
