  0
SECTION
  2
HEADER
  9
$ANGBASE
  50
0.0
  9
$ANGDIR
  70
1
  9
$MEASUREMENT
  70
1
  0
ENDSEC
  0
SECTION
  2
TABLES
  0
TABLE
  2
LTYPE
  70
4
  0
LTYPE
  5
40F
  2
CONTINUOUS
  70
0
  3
Solid line
  72
65
  73
0
  40
0.0
  0
LTYPE
  5
410
  2
DASHDOT
 70
0
  3
Dash Dot ____ _ ____ _
 72
65
 73
4
 40
2.0
 49
1.25
 49
-0.25
 49
0.25
 49
-0.25
  0
LTYPE
  5
411
  2
DASHED
 70
0
  3
Dashed __ __ __ __ __
 72
65
 73
2
 40
0.75
 49
0.5
 49
-0.25
  0
LTYPE
  5
43B
  2
DOTTED
 70
0
  3
Dotted .  .  .  .
 72
65
 73
2
 40
0.2
 49
0.0
 49
-0.2
  0
ENDTAB
  0
TABLE
  2
STYLE
  70
4
  0
STYLE
  2
KICAD
  70
0
  40
0
  41
1
  42
1
  50
0
  71
0
  3
isocp.shx
  0
STYLE
  2
KICADB
  70
0
  40
0
  41
1
  42
1
  50
0
  71
0
  3
isocp.shx
  0
STYLE
  2
KICADI
  70
0
  40
0
  41
1
  42
1
  50
15
  71
0
  3
isocp.shx
  0
STYLE
  2
KICADBI
  70
0
  40
0
  41
1
  42
1
  50
15
  71
0
  3
isocp.shx
  0
ENDTAB
  0
TABLE
  2
LAYER
  70
1
  0
LAYER
  2
BLACK
  70
0
  62
7
  6
CONTINUOUS
  0
ENDTAB
  0
ENDSEC
  0
SECTION
  2
ENTITIES
0
LINE
8
BLACK
6
CONTINUOUS
10
177.002
20
-166.007
11
177.002
21
-198.007
0
LINE
8
BLACK
6
CONTINUOUS
10
177.002
20
-198.007
11
285.002
21
-198.007
0
LINE
8
BLACK
6
CONTINUOUS
10
285.002
20
-198.007
11
285.002
21
-166.007
0
LINE
8
BLACK
6
CONTINUOUS
10
285.002
20
-166.007
11
177.002
21
-166.007
0
LINE
8
BLACK
6
CONTINUOUS
10
10
20
-10
11
10
21
-200.007
0
LINE
8
BLACK
6
CONTINUOUS
10
10
20
-200.007
11
287.002
21
-200.007
0
LINE
8
BLACK
6
CONTINUOUS
10
287.002
20
-200.007
11
287.002
21
-10
0
LINE
8
BLACK
6
CONTINUOUS
10
287.002
20
-10
11
10
21
-10
0
LINE
8
BLACK
6
CONTINUOUS
10
12
20
-12
11
12
21
-198.007
0
LINE
8
BLACK
6
CONTINUOUS
10
12
20
-198.007
11
285.002
21
-198.007
0
LINE
8
BLACK
6
CONTINUOUS
10
285.002
20
-198.007
11
285.002
21
-12
0
LINE
8
BLACK
6
CONTINUOUS
10
285.002
20
-12
11
12
21
-12
0
LINE
8
BLACK
6
CONTINUOUS
10
60
20
-12
11
60
21
-10
0
LINE
8
BLACK
6
CONTINUOUS
10
110
20
-12
11
110
21
-10
0
LINE
8
BLACK
6
CONTINUOUS
10
160
20
-12
11
160
21
-10
0
LINE
8
BLACK
6
CONTINUOUS
10
210
20
-12
11
210
21
-10
0
LINE
8
BLACK
6
CONTINUOUS
10
260
20
-12
11
260
21
-10
0
LINE
8
BLACK
6
CONTINUOUS
10
36.0655
20
-11.5881
11
35.3226
21
-11.5881
0
LINE
8
BLACK
6
CONTINUOUS
10
35.694
20
-11.5881
11
35.694
21
-10.2881
0
LINE
8
BLACK
6
CONTINUOUS
10
35.694
20
-10.2881
11
35.5702
21
-10.4738
0
LINE
8
BLACK
6
CONTINUOUS
10
35.5702
20
-10.4738
11
35.4464
21
-10.5976
0
LINE
8
BLACK
6
CONTINUOUS
10
35.4464
20
-10.5976
11
35.3226
21
-10.6595
0
LINE
8
BLACK
6
CONTINUOUS
10
85.3226
20
-10.4119
11
85.3845
21
-10.35
0
LINE
8
BLACK
6
CONTINUOUS
10
85.3845
20
-10.35
11
85.5083
21
-10.2881
0
LINE
8
BLACK
6
CONTINUOUS
10
85.5083
20
-10.2881
11
85.8179
21
-10.2881
0
LINE
8
BLACK
6
CONTINUOUS
10
85.8179
20
-10.2881
11
85.9417
21
-10.35
0
LINE
8
BLACK
6
CONTINUOUS
10
85.9417
20
-10.35
11
86.0036
21
-10.4119
0
LINE
8
BLACK
6
CONTINUOUS
10
86.0036
20
-10.4119
11
86.0655
21
-10.5357
0
LINE
8
BLACK
6
CONTINUOUS
10
86.0655
20
-10.5357
11
86.0655
21
-10.6595
0
LINE
8
BLACK
6
CONTINUOUS
10
86.0655
20
-10.6595
11
86.0036
21
-10.8452
0
LINE
8
BLACK
6
CONTINUOUS
10
86.0036
20
-10.8452
11
85.2607
21
-11.5881
0
LINE
8
BLACK
6
CONTINUOUS
10
85.2607
20
-11.5881
11
86.0655
21
-11.5881
0
LINE
8
BLACK
6
CONTINUOUS
10
135.261
20
-10.2881
11
136.065
21
-10.2881
0
LINE
8
BLACK
6
CONTINUOUS
10
136.065
20
-10.2881
11
135.632
21
-10.7833
0
LINE
8
BLACK
6
CONTINUOUS
10
135.632
20
-10.7833
11
135.818
21
-10.7833
0
LINE
8
BLACK
6
CONTINUOUS
10
135.818
20
-10.7833
11
135.942
21
-10.8452
0
LINE
8
BLACK
6
CONTINUOUS
10
135.942
20
-10.8452
11
136.004
21
-10.9071
0
LINE
8
BLACK
6
CONTINUOUS
10
136.004
20
-10.9071
11
136.065
21
-11.031
0
LINE
8
BLACK
6
CONTINUOUS
10
136.065
20
-11.031
11
136.065
21
-11.3405
0
LINE
8
BLACK
6
CONTINUOUS
10
136.065
20
-11.3405
11
136.004
21
-11.4643
0
LINE
8
BLACK
6
CONTINUOUS
10
136.004
20
-11.4643
11
135.942
21
-11.5262
0
LINE
8
BLACK
6
CONTINUOUS
10
135.942
20
-11.5262
11
135.818
21
-11.5881
0
LINE
8
BLACK
6
CONTINUOUS
10
135.818
20
-11.5881
11
135.446
21
-11.5881
0
LINE
8
BLACK
6
CONTINUOUS
10
135.446
20
-11.5881
11
135.323
21
-11.5262
0
LINE
8
BLACK
6
CONTINUOUS
10
135.323
20
-11.5262
11
135.261
21
-11.4643
0
LINE
8
BLACK
6
CONTINUOUS
10
185.942
20
-10.7214
11
185.942
21
-11.5881
0
LINE
8
BLACK
6
CONTINUOUS
10
185.632
20
-10.2262
11
185.323
21
-11.1548
0
LINE
8
BLACK
6
CONTINUOUS
10
185.323
20
-11.1548
11
186.127
21
-11.1548
0
LINE
8
BLACK
6
CONTINUOUS
10
236.004
20
-10.2881
11
235.385
21
-10.2881
0
LINE
8
BLACK
6
CONTINUOUS
10
235.385
20
-10.2881
11
235.323
21
-10.9071
0
LINE
8
BLACK
6
CONTINUOUS
10
235.323
20
-10.9071
11
235.385
21
-10.8452
0
LINE
8
BLACK
6
CONTINUOUS
10
235.385
20
-10.8452
11
235.508
21
-10.7833
0
LINE
8
BLACK
6
CONTINUOUS
10
235.508
20
-10.7833
11
235.818
21
-10.7833
0
LINE
8
BLACK
6
CONTINUOUS
10
235.818
20
-10.7833
11
235.942
21
-10.8452
0
LINE
8
BLACK
6
CONTINUOUS
10
235.942
20
-10.8452
11
236.004
21
-10.9071
0
LINE
8
BLACK
6
CONTINUOUS
10
236.004
20
-10.9071
11
236.065
21
-11.031
0
LINE
8
BLACK
6
CONTINUOUS
10
236.065
20
-11.031
11
236.065
21
-11.3405
0
LINE
8
BLACK
6
CONTINUOUS
10
236.065
20
-11.3405
11
236.004
21
-11.4643
0
LINE
8
BLACK
6
CONTINUOUS
10
236.004
20
-11.4643
11
235.942
21
-11.5262
0
LINE
8
BLACK
6
CONTINUOUS
10
235.942
20
-11.5262
11
235.818
21
-11.5881
0
LINE
8
BLACK
6
CONTINUOUS
10
235.818
20
-11.5881
11
235.508
21
-11.5881
0
LINE
8
BLACK
6
CONTINUOUS
10
235.508
20
-11.5881
11
235.385
21
-11.5262
0
LINE
8
BLACK
6
CONTINUOUS
10
235.385
20
-11.5262
11
235.323
21
-11.4643
0
LINE
8
BLACK
6
CONTINUOUS
10
285.942
20
-10.2881
11
285.694
21
-10.2881
0
LINE
8
BLACK
6
CONTINUOUS
10
285.694
20
-10.2881
11
285.57
21
-10.35
0
LINE
8
BLACK
6
CONTINUOUS
10
285.57
20
-10.35
11
285.508
21
-10.4119
0
LINE
8
BLACK
6
CONTINUOUS
10
285.508
20
-10.4119
11
285.385
21
-10.5976
0
LINE
8
BLACK
6
CONTINUOUS
10
285.385
20
-10.5976
11
285.323
21
-10.8452
0
LINE
8
BLACK
6
CONTINUOUS
10
285.323
20
-10.8452
11
285.323
21
-11.3405
0
LINE
8
BLACK
6
CONTINUOUS
10
285.323
20
-11.3405
11
285.385
21
-11.4643
0
LINE
8
BLACK
6
CONTINUOUS
10
285.385
20
-11.4643
11
285.446
21
-11.5262
0
LINE
8
BLACK
6
CONTINUOUS
10
285.446
20
-11.5262
11
285.57
21
-11.5881
0
LINE
8
BLACK
6
CONTINUOUS
10
285.57
20
-11.5881
11
285.818
21
-11.5881
0
LINE
8
BLACK
6
CONTINUOUS
10
285.818
20
-11.5881
11
285.942
21
-11.5262
0
LINE
8
BLACK
6
CONTINUOUS
10
285.942
20
-11.5262
11
286.004
21
-11.4643
0
LINE
8
BLACK
6
CONTINUOUS
10
286.004
20
-11.4643
11
286.065
21
-11.3405
0
LINE
8
BLACK
6
CONTINUOUS
10
286.065
20
-11.3405
11
286.065
21
-11.031
0
LINE
8
BLACK
6
CONTINUOUS
10
286.065
20
-11.031
11
286.004
21
-10.9071
0
LINE
8
BLACK
6
CONTINUOUS
10
286.004
20
-10.9071
11
285.942
21
-10.8452
0
LINE
8
BLACK
6
CONTINUOUS
10
285.942
20
-10.8452
11
285.818
21
-10.7833
0
LINE
8
BLACK
6
CONTINUOUS
10
285.818
20
-10.7833
11
285.57
21
-10.7833
0
LINE
8
BLACK
6
CONTINUOUS
10
285.57
20
-10.7833
11
285.446
21
-10.8452
0
LINE
8
BLACK
6
CONTINUOUS
10
285.446
20
-10.8452
11
285.385
21
-10.9071
0
LINE
8
BLACK
6
CONTINUOUS
10
285.385
20
-10.9071
11
285.323
21
-11.031
0
LINE
8
BLACK
6
CONTINUOUS
10
60
20
-198.007
11
60
21
-200.007
0
LINE
8
BLACK
6
CONTINUOUS
10
110
20
-198.007
11
110
21
-200.007
0
LINE
8
BLACK
6
CONTINUOUS
10
160
20
-198.007
11
160
21
-200.007
0
LINE
8
BLACK
6
CONTINUOUS
10
210
20
-198.007
11
210
21
-200.007
0
LINE
8
BLACK
6
CONTINUOUS
10
260
20
-198.007
11
260
21
-200.007
0
LINE
8
BLACK
6
CONTINUOUS
10
36.0655
20
-199.595
11
35.3226
21
-199.595
0
LINE
8
BLACK
6
CONTINUOUS
10
35.694
20
-199.595
11
35.694
21
-198.295
0
LINE
8
BLACK
6
CONTINUOUS
10
35.694
20
-198.295
11
35.5702
21
-198.481
0
LINE
8
BLACK
6
CONTINUOUS
10
35.5702
20
-198.481
11
35.4464
21
-198.605
0
LINE
8
BLACK
6
CONTINUOUS
10
35.4464
20
-198.605
11
35.3226
21
-198.667
0
LINE
8
BLACK
6
CONTINUOUS
10
85.3226
20
-198.419
11
85.3845
21
-198.357
0
LINE
8
BLACK
6
CONTINUOUS
10
85.3845
20
-198.357
11
85.5083
21
-198.295
0
LINE
8
BLACK
6
CONTINUOUS
10
85.5083
20
-198.295
11
85.8179
21
-198.295
0
LINE
8
BLACK
6
CONTINUOUS
10
85.8179
20
-198.295
11
85.9417
21
-198.357
0
LINE
8
BLACK
6
CONTINUOUS
10
85.9417
20
-198.357
11
86.0036
21
-198.419
0
LINE
8
BLACK
6
CONTINUOUS
10
86.0036
20
-198.419
11
86.0655
21
-198.543
0
LINE
8
BLACK
6
CONTINUOUS
10
86.0655
20
-198.543
11
86.0655
21
-198.667
0
LINE
8
BLACK
6
CONTINUOUS
10
86.0655
20
-198.667
11
86.0036
21
-198.852
0
LINE
8
BLACK
6
CONTINUOUS
10
86.0036
20
-198.852
11
85.2607
21
-199.595
0
LINE
8
BLACK
6
CONTINUOUS
10
85.2607
20
-199.595
11
86.0655
21
-199.595
0
LINE
8
BLACK
6
CONTINUOUS
10
135.261
20
-198.295
11
136.065
21
-198.295
0
LINE
8
BLACK
6
CONTINUOUS
10
136.065
20
-198.295
11
135.632
21
-198.791
0
LINE
8
BLACK
6
CONTINUOUS
10
135.632
20
-198.791
11
135.818
21
-198.791
0
LINE
8
BLACK
6
CONTINUOUS
10
135.818
20
-198.791
11
135.942
21
-198.852
0
LINE
8
BLACK
6
CONTINUOUS
10
135.942
20
-198.852
11
136.004
21
-198.914
0
LINE
8
BLACK
6
CONTINUOUS
10
136.004
20
-198.914
11
136.065
21
-199.038
0
LINE
8
BLACK
6
CONTINUOUS
10
136.065
20
-199.038
11
136.065
21
-199.348
0
LINE
8
BLACK
6
CONTINUOUS
10
136.065
20
-199.348
11
136.004
21
-199.471
0
LINE
8
BLACK
6
CONTINUOUS
10
136.004
20
-199.471
11
135.942
21
-199.533
0
LINE
8
BLACK
6
CONTINUOUS
10
135.942
20
-199.533
11
135.818
21
-199.595
0
LINE
8
BLACK
6
CONTINUOUS
10
135.818
20
-199.595
11
135.446
21
-199.595
0
LINE
8
BLACK
6
CONTINUOUS
10
135.446
20
-199.595
11
135.323
21
-199.533
0
LINE
8
BLACK
6
CONTINUOUS
10
135.323
20
-199.533
11
135.261
21
-199.471
0
LINE
8
BLACK
6
CONTINUOUS
10
185.942
20
-198.729
11
185.942
21
-199.595
0
LINE
8
BLACK
6
CONTINUOUS
10
185.632
20
-198.233
11
185.323
21
-199.162
0
LINE
8
BLACK
6
CONTINUOUS
10
185.323
20
-199.162
11
186.127
21
-199.162
0
LINE
8
BLACK
6
CONTINUOUS
10
236.004
20
-198.295
11
235.385
21
-198.295
0
LINE
8
BLACK
6
CONTINUOUS
10
235.385
20
-198.295
11
235.323
21
-198.914
0
LINE
8
BLACK
6
CONTINUOUS
10
235.323
20
-198.914
11
235.385
21
-198.852
0
LINE
8
BLACK
6
CONTINUOUS
10
235.385
20
-198.852
11
235.508
21
-198.791
0
LINE
8
BLACK
6
CONTINUOUS
10
235.508
20
-198.791
11
235.818
21
-198.791
0
LINE
8
BLACK
6
CONTINUOUS
10
235.818
20
-198.791
11
235.942
21
-198.852
0
LINE
8
BLACK
6
CONTINUOUS
10
235.942
20
-198.852
11
236.004
21
-198.914
0
LINE
8
BLACK
6
CONTINUOUS
10
236.004
20
-198.914
11
236.065
21
-199.038
0
LINE
8
BLACK
6
CONTINUOUS
10
236.065
20
-199.038
11
236.065
21
-199.348
0
LINE
8
BLACK
6
CONTINUOUS
10
236.065
20
-199.348
11
236.004
21
-199.471
0
LINE
8
BLACK
6
CONTINUOUS
10
236.004
20
-199.471
11
235.942
21
-199.533
0
LINE
8
BLACK
6
CONTINUOUS
10
235.942
20
-199.533
11
235.818
21
-199.595
0
LINE
8
BLACK
6
CONTINUOUS
10
235.818
20
-199.595
11
235.508
21
-199.595
0
LINE
8
BLACK
6
CONTINUOUS
10
235.508
20
-199.595
11
235.385
21
-199.533
0
LINE
8
BLACK
6
CONTINUOUS
10
235.385
20
-199.533
11
235.323
21
-199.471
0
LINE
8
BLACK
6
CONTINUOUS
10
285.942
20
-198.295
11
285.694
21
-198.295
0
LINE
8
BLACK
6
CONTINUOUS
10
285.694
20
-198.295
11
285.57
21
-198.357
0
LINE
8
BLACK
6
CONTINUOUS
10
285.57
20
-198.357
11
285.508
21
-198.419
0
LINE
8
BLACK
6
CONTINUOUS
10
285.508
20
-198.419
11
285.385
21
-198.605
0
LINE
8
BLACK
6
CONTINUOUS
10
285.385
20
-198.605
11
285.323
21
-198.852
0
LINE
8
BLACK
6
CONTINUOUS
10
285.323
20
-198.852
11
285.323
21
-199.348
0
LINE
8
BLACK
6
CONTINUOUS
10
285.323
20
-199.348
11
285.385
21
-199.471
0
LINE
8
BLACK
6
CONTINUOUS
10
285.385
20
-199.471
11
285.446
21
-199.533
0
LINE
8
BLACK
6
CONTINUOUS
10
285.446
20
-199.533
11
285.57
21
-199.595
0
LINE
8
BLACK
6
CONTINUOUS
10
285.57
20
-199.595
11
285.818
21
-199.595
0
LINE
8
BLACK
6
CONTINUOUS
10
285.818
20
-199.595
11
285.942
21
-199.533
0
LINE
8
BLACK
6
CONTINUOUS
10
285.942
20
-199.533
11
286.004
21
-199.471
0
LINE
8
BLACK
6
CONTINUOUS
10
286.004
20
-199.471
11
286.065
21
-199.348
0
LINE
8
BLACK
6
CONTINUOUS
10
286.065
20
-199.348
11
286.065
21
-199.038
0
LINE
8
BLACK
6
CONTINUOUS
10
286.065
20
-199.038
11
286.004
21
-198.914
0
LINE
8
BLACK
6
CONTINUOUS
10
286.004
20
-198.914
11
285.942
21
-198.852
0
LINE
8
BLACK
6
CONTINUOUS
10
285.942
20
-198.852
11
285.818
21
-198.791
0
LINE
8
BLACK
6
CONTINUOUS
10
285.818
20
-198.791
11
285.57
21
-198.791
0
LINE
8
BLACK
6
CONTINUOUS
10
285.57
20
-198.791
11
285.446
21
-198.852
0
LINE
8
BLACK
6
CONTINUOUS
10
285.446
20
-198.852
11
285.385
21
-198.914
0
LINE
8
BLACK
6
CONTINUOUS
10
285.385
20
-198.914
11
285.323
21
-199.038
0
LINE
8
BLACK
6
CONTINUOUS
10
10
20
-60
11
12
21
-60
0
LINE
8
BLACK
6
CONTINUOUS
10
10
20
-110
11
12
21
-110
0
LINE
8
BLACK
6
CONTINUOUS
10
10
20
-160
11
12
21
-160
0
LINE
8
BLACK
6
CONTINUOUS
10
10.6905
20
-35.2167
11
11.3095
21
-35.2167
0
LINE
8
BLACK
6
CONTINUOUS
10
10.5667
20
-35.5881
11
11
21
-34.2881
0
LINE
8
BLACK
6
CONTINUOUS
10
11
20
-34.2881
11
11.4333
21
-35.5881
0
LINE
8
BLACK
6
CONTINUOUS
10
11.0929
20
-84.9071
11
11.2786
21
-84.969
0
LINE
8
BLACK
6
CONTINUOUS
10
11.2786
20
-84.969
11
11.3405
21
-85.031
0
LINE
8
BLACK
6
CONTINUOUS
10
11.3405
20
-85.031
11
11.4024
21
-85.1548
0
LINE
8
BLACK
6
CONTINUOUS
10
11.4024
20
-85.1548
11
11.4024
21
-85.3405
0
LINE
8
BLACK
6
CONTINUOUS
10
11.4024
20
-85.3405
11
11.3405
21
-85.4643
0
LINE
8
BLACK
6
CONTINUOUS
10
11.3405
20
-85.4643
11
11.2786
21
-85.5262
0
LINE
8
BLACK
6
CONTINUOUS
10
11.2786
20
-85.5262
11
11.1548
21
-85.5881
0
LINE
8
BLACK
6
CONTINUOUS
10
11.1548
20
-85.5881
11
10.6595
21
-85.5881
0
LINE
8
BLACK
6
CONTINUOUS
10
10.6595
20
-85.5881
11
10.6595
21
-84.2881
0
LINE
8
BLACK
6
CONTINUOUS
10
10.6595
20
-84.2881
11
11.0929
21
-84.2881
0
LINE
8
BLACK
6
CONTINUOUS
10
11.0929
20
-84.2881
11
11.2167
21
-84.35
0
LINE
8
BLACK
6
CONTINUOUS
10
11.2167
20
-84.35
11
11.2786
21
-84.4119
0
LINE
8
BLACK
6
CONTINUOUS
10
11.2786
20
-84.4119
11
11.3405
21
-84.5357
0
LINE
8
BLACK
6
CONTINUOUS
10
11.3405
20
-84.5357
11
11.3405
21
-84.6595
0
LINE
8
BLACK
6
CONTINUOUS
10
11.3405
20
-84.6595
11
11.2786
21
-84.7833
0
LINE
8
BLACK
6
CONTINUOUS
10
11.2786
20
-84.7833
11
11.2167
21
-84.8452
0
LINE
8
BLACK
6
CONTINUOUS
10
11.2167
20
-84.8452
11
11.0929
21
-84.9071
0
LINE
8
BLACK
6
CONTINUOUS
10
11.0929
20
-84.9071
11
10.6595
21
-84.9071
0
LINE
8
BLACK
6
CONTINUOUS
10
11.4024
20
-135.464
11
11.3405
21
-135.526
0
LINE
8
BLACK
6
CONTINUOUS
10
11.3405
20
-135.526
11
11.1548
21
-135.588
0
LINE
8
BLACK
6
CONTINUOUS
10
11.1548
20
-135.588
11
11.031
21
-135.588
0
LINE
8
BLACK
6
CONTINUOUS
10
11.031
20
-135.588
11
10.8452
21
-135.526
0
LINE
8
BLACK
6
CONTINUOUS
10
10.8452
20
-135.526
11
10.7214
21
-135.402
0
LINE
8
BLACK
6
CONTINUOUS
10
10.7214
20
-135.402
11
10.6595
21
-135.279
0
LINE
8
BLACK
6
CONTINUOUS
10
10.6595
20
-135.279
11
10.5976
21
-135.031
0
LINE
8
BLACK
6
CONTINUOUS
10
10.5976
20
-135.031
11
10.5976
21
-134.845
0
LINE
8
BLACK
6
CONTINUOUS
10
10.5976
20
-134.845
11
10.6595
21
-134.598
0
LINE
8
BLACK
6
CONTINUOUS
10
10.6595
20
-134.598
11
10.7214
21
-134.474
0
LINE
8
BLACK
6
CONTINUOUS
10
10.7214
20
-134.474
11
10.8452
21
-134.35
0
LINE
8
BLACK
6
CONTINUOUS
10
10.8452
20
-134.35
11
11.031
21
-134.288
0
LINE
8
BLACK
6
CONTINUOUS
10
11.031
20
-134.288
11
11.1548
21
-134.288
0
LINE
8
BLACK
6
CONTINUOUS
10
11.1548
20
-134.288
11
11.3405
21
-134.35
0
LINE
8
BLACK
6
CONTINUOUS
10
11.3405
20
-134.35
11
11.4024
21
-134.412
0
LINE
8
BLACK
6
CONTINUOUS
10
10.6595
20
-185.588
11
10.6595
21
-184.288
0
LINE
8
BLACK
6
CONTINUOUS
10
10.6595
20
-184.288
11
10.969
21
-184.288
0
LINE
8
BLACK
6
CONTINUOUS
10
10.969
20
-184.288
11
11.1548
21
-184.35
0
LINE
8
BLACK
6
CONTINUOUS
10
11.1548
20
-184.35
11
11.2786
21
-184.474
0
LINE
8
BLACK
6
CONTINUOUS
10
11.2786
20
-184.474
11
11.3405
21
-184.598
0
LINE
8
BLACK
6
CONTINUOUS
10
11.3405
20
-184.598
11
11.4024
21
-184.845
0
LINE
8
BLACK
6
CONTINUOUS
10
11.4024
20
-184.845
11
11.4024
21
-185.031
0
LINE
8
BLACK
6
CONTINUOUS
10
11.4024
20
-185.031
11
11.3405
21
-185.279
0
LINE
8
BLACK
6
CONTINUOUS
10
11.3405
20
-185.279
11
11.2786
21
-185.402
0
LINE
8
BLACK
6
CONTINUOUS
10
11.2786
20
-185.402
11
11.1548
21
-185.526
0
LINE
8
BLACK
6
CONTINUOUS
10
11.1548
20
-185.526
11
10.969
21
-185.588
0
LINE
8
BLACK
6
CONTINUOUS
10
10.969
20
-185.588
11
10.6595
21
-185.588
0
LINE
8
BLACK
6
CONTINUOUS
10
287.002
20
-60
11
285.002
21
-60
0
LINE
8
BLACK
6
CONTINUOUS
10
287.002
20
-110
11
285.002
21
-110
0
LINE
8
BLACK
6
CONTINUOUS
10
287.002
20
-160
11
285.002
21
-160
0
LINE
8
BLACK
6
CONTINUOUS
10
285.693
20
-35.2167
11
286.312
21
-35.2167
0
LINE
8
BLACK
6
CONTINUOUS
10
285.569
20
-35.5881
11
286.002
21
-34.2881
0
LINE
8
BLACK
6
CONTINUOUS
10
286.002
20
-34.2881
11
286.436
21
-35.5881
0
LINE
8
BLACK
6
CONTINUOUS
10
286.095
20
-84.9071
11
286.281
21
-84.969
0
LINE
8
BLACK
6
CONTINUOUS
10
286.281
20
-84.969
11
286.343
21
-85.031
0
LINE
8
BLACK
6
CONTINUOUS
10
286.343
20
-85.031
11
286.405
21
-85.1548
0
LINE
8
BLACK
6
CONTINUOUS
10
286.405
20
-85.1548
11
286.405
21
-85.3405
0
LINE
8
BLACK
6
CONTINUOUS
10
286.405
20
-85.3405
11
286.343
21
-85.4643
0
LINE
8
BLACK
6
CONTINUOUS
10
286.343
20
-85.4643
11
286.281
21
-85.5262
0
LINE
8
BLACK
6
CONTINUOUS
10
286.281
20
-85.5262
11
286.157
21
-85.5881
0
LINE
8
BLACK
6
CONTINUOUS
10
286.157
20
-85.5881
11
285.662
21
-85.5881
0
LINE
8
BLACK
6
CONTINUOUS
10
285.662
20
-85.5881
11
285.662
21
-84.2881
0
LINE
8
BLACK
6
CONTINUOUS
10
285.662
20
-84.2881
11
286.095
21
-84.2881
0
LINE
8
BLACK
6
CONTINUOUS
10
286.095
20
-84.2881
11
286.219
21
-84.35
0
LINE
8
BLACK
6
CONTINUOUS
10
286.219
20
-84.35
11
286.281
21
-84.4119
0
LINE
8
BLACK
6
CONTINUOUS
10
286.281
20
-84.4119
11
286.343
21
-84.5357
0
LINE
8
BLACK
6
CONTINUOUS
10
286.343
20
-84.5357
11
286.343
21
-84.6595
0
LINE
8
BLACK
6
CONTINUOUS
10
286.343
20
-84.6595
11
286.281
21
-84.7833
0
LINE
8
BLACK
6
CONTINUOUS
10
286.281
20
-84.7833
11
286.219
21
-84.8452
0
LINE
8
BLACK
6
CONTINUOUS
10
286.219
20
-84.8452
11
286.095
21
-84.9071
0
LINE
8
BLACK
6
CONTINUOUS
10
286.095
20
-84.9071
11
285.662
21
-84.9071
0
LINE
8
BLACK
6
CONTINUOUS
10
286.405
20
-135.464
11
286.343
21
-135.526
0
LINE
8
BLACK
6
CONTINUOUS
10
286.343
20
-135.526
11
286.157
21
-135.588
0
LINE
8
BLACK
6
CONTINUOUS
10
286.157
20
-135.588
11
286.033
21
-135.588
0
LINE
8
BLACK
6
CONTINUOUS
10
286.033
20
-135.588
11
285.847
21
-135.526
0
LINE
8
BLACK
6
CONTINUOUS
10
285.847
20
-135.526
11
285.724
21
-135.402
0
LINE
8
BLACK
6
CONTINUOUS
10
285.724
20
-135.402
11
285.662
21
-135.279
0
LINE
8
BLACK
6
CONTINUOUS
10
285.662
20
-135.279
11
285.6
21
-135.031
0
LINE
8
BLACK
6
CONTINUOUS
10
285.6
20
-135.031
11
285.6
21
-134.845
0
LINE
8
BLACK
6
CONTINUOUS
10
285.6
20
-134.845
11
285.662
21
-134.598
0
LINE
8
BLACK
6
CONTINUOUS
10
285.662
20
-134.598
11
285.724
21
-134.474
0
LINE
8
BLACK
6
CONTINUOUS
10
285.724
20
-134.474
11
285.847
21
-134.35
0
LINE
8
BLACK
6
CONTINUOUS
10
285.847
20
-134.35
11
286.033
21
-134.288
0
LINE
8
BLACK
6
CONTINUOUS
10
286.033
20
-134.288
11
286.157
21
-134.288
0
LINE
8
BLACK
6
CONTINUOUS
10
286.157
20
-134.288
11
286.343
21
-134.35
0
LINE
8
BLACK
6
CONTINUOUS
10
286.343
20
-134.35
11
286.405
21
-134.412
0
LINE
8
BLACK
6
CONTINUOUS
10
285.662
20
-185.588
11
285.662
21
-184.288
0
LINE
8
BLACK
6
CONTINUOUS
10
285.662
20
-184.288
11
285.971
21
-184.288
0
LINE
8
BLACK
6
CONTINUOUS
10
285.971
20
-184.288
11
286.157
21
-184.35
0
LINE
8
BLACK
6
CONTINUOUS
10
286.157
20
-184.35
11
286.281
21
-184.474
0
LINE
8
BLACK
6
CONTINUOUS
10
286.281
20
-184.474
11
286.343
21
-184.598
0
LINE
8
BLACK
6
CONTINUOUS
10
286.343
20
-184.598
11
286.405
21
-184.845
0
LINE
8
BLACK
6
CONTINUOUS
10
286.405
20
-184.845
11
286.405
21
-185.031
0
LINE
8
BLACK
6
CONTINUOUS
10
286.405
20
-185.031
11
286.343
21
-185.279
0
LINE
8
BLACK
6
CONTINUOUS
10
286.343
20
-185.279
11
286.281
21
-185.402
0
LINE
8
BLACK
6
CONTINUOUS
10
286.281
20
-185.402
11
286.157
21
-185.526
0
LINE
8
BLACK
6
CONTINUOUS
10
286.157
20
-185.526
11
285.971
21
-185.588
0
LINE
8
BLACK
6
CONTINUOUS
10
285.971
20
-185.588
11
285.662
21
-185.588
0
LINE
8
BLACK
6
CONTINUOUS
10
200.434
20
-193.786
11
200.434
21
-192.286
0
LINE
8
BLACK
6
CONTINUOUS
10
200.434
20
-192.286
11
200.791
21
-192.286
0
LINE
8
BLACK
6
CONTINUOUS
10
200.791
20
-192.286
11
201.006
21
-192.357
0
LINE
8
BLACK
6
CONTINUOUS
10
201.006
20
-192.357
11
201.149
21
-192.5
0
LINE
8
BLACK
6
CONTINUOUS
10
201.149
20
-192.5
11
201.22
21
-192.643
0
LINE
8
BLACK
6
CONTINUOUS
10
201.22
20
-192.643
11
201.291
21
-192.929
0
LINE
8
BLACK
6
CONTINUOUS
10
201.291
20
-192.929
11
201.291
21
-193.143
0
LINE
8
BLACK
6
CONTINUOUS
10
201.291
20
-193.143
11
201.22
21
-193.429
0
LINE
8
BLACK
6
CONTINUOUS
10
201.22
20
-193.429
11
201.149
21
-193.571
0
LINE
8
BLACK
6
CONTINUOUS
10
201.149
20
-193.571
11
201.006
21
-193.714
0
LINE
8
BLACK
6
CONTINUOUS
10
201.006
20
-193.714
11
200.791
21
-193.786
0
LINE
8
BLACK
6
CONTINUOUS
10
200.791
20
-193.786
11
200.434
21
-193.786
0
LINE
8
BLACK
6
CONTINUOUS
10
202.577
20
-193.786
11
202.577
21
-193
0
LINE
8
BLACK
6
CONTINUOUS
10
202.577
20
-193
11
202.506
21
-192.857
0
LINE
8
BLACK
6
CONTINUOUS
10
202.506
20
-192.857
11
202.363
21
-192.786
0
LINE
8
BLACK
6
CONTINUOUS
10
202.363
20
-192.786
11
202.077
21
-192.786
0
LINE
8
BLACK
6
CONTINUOUS
10
202.077
20
-192.786
11
201.934
21
-192.857
0
LINE
8
BLACK
6
CONTINUOUS
10
202.577
20
-193.714
11
202.434
21
-193.786
0
LINE
8
BLACK
6
CONTINUOUS
10
202.434
20
-193.786
11
202.077
21
-193.786
0
LINE
8
BLACK
6
CONTINUOUS
10
202.077
20
-193.786
11
201.934
21
-193.714
0
LINE
8
BLACK
6
CONTINUOUS
10
201.934
20
-193.714
11
201.863
21
-193.571
0
LINE
8
BLACK
6
CONTINUOUS
10
201.863
20
-193.571
11
201.863
21
-193.429
0
LINE
8
BLACK
6
CONTINUOUS
10
201.863
20
-193.429
11
201.934
21
-193.286
0
LINE
8
BLACK
6
CONTINUOUS
10
201.934
20
-193.286
11
202.077
21
-193.214
0
LINE
8
BLACK
6
CONTINUOUS
10
202.077
20
-193.214
11
202.434
21
-193.214
0
LINE
8
BLACK
6
CONTINUOUS
10
202.434
20
-193.214
11
202.577
21
-193.143
0
LINE
8
BLACK
6
CONTINUOUS
10
203.077
20
-192.786
11
203.649
21
-192.786
0
LINE
8
BLACK
6
CONTINUOUS
10
203.291
20
-192.286
11
203.291
21
-193.571
0
LINE
8
BLACK
6
CONTINUOUS
10
203.291
20
-193.571
11
203.363
21
-193.714
0
LINE
8
BLACK
6
CONTINUOUS
10
203.363
20
-193.714
11
203.506
21
-193.786
0
LINE
8
BLACK
6
CONTINUOUS
10
203.506
20
-193.786
11
203.649
21
-193.786
0
LINE
8
BLACK
6
CONTINUOUS
10
204.72
20
-193.714
11
204.577
21
-193.786
0
LINE
8
BLACK
6
CONTINUOUS
10
204.577
20
-193.786
11
204.291
21
-193.786
0
LINE
8
BLACK
6
CONTINUOUS
10
204.291
20
-193.786
11
204.149
21
-193.714
0
LINE
8
BLACK
6
CONTINUOUS
10
204.149
20
-193.714
11
204.077
21
-193.571
0
LINE
8
BLACK
6
CONTINUOUS
10
204.077
20
-193.571
11
204.077
21
-193
0
LINE
8
BLACK
6
CONTINUOUS
10
204.077
20
-193
11
204.149
21
-192.857
0
LINE
8
BLACK
6
CONTINUOUS
10
204.149
20
-192.857
11
204.291
21
-192.786
0
LINE
8
BLACK
6
CONTINUOUS
10
204.291
20
-192.786
11
204.577
21
-192.786
0
LINE
8
BLACK
6
CONTINUOUS
10
204.577
20
-192.786
11
204.72
21
-192.857
0
LINE
8
BLACK
6
CONTINUOUS
10
204.72
20
-192.857
11
204.791
21
-193
0
LINE
8
BLACK
6
CONTINUOUS
10
204.791
20
-193
11
204.791
21
-193.143
0
LINE
8
BLACK
6
CONTINUOUS
10
204.791
20
-193.143
11
204.077
21
-193.286
0
LINE
8
BLACK
6
CONTINUOUS
10
205.434
20
-193.643
11
205.506
21
-193.714
0
LINE
8
BLACK
6
CONTINUOUS
10
205.506
20
-193.714
11
205.434
21
-193.786
0
LINE
8
BLACK
6
CONTINUOUS
10
205.434
20
-193.786
11
205.363
21
-193.714
0
LINE
8
BLACK
6
CONTINUOUS
10
205.363
20
-193.714
11
205.434
21
-193.643
0
LINE
8
BLACK
6
CONTINUOUS
10
205.434
20
-193.643
11
205.434
21
-193.786
0
LINE
8
BLACK
6
CONTINUOUS
10
205.434
20
-192.857
11
205.506
21
-192.929
0
LINE
8
BLACK
6
CONTINUOUS
10
205.506
20
-192.929
11
205.434
21
-193
0
LINE
8
BLACK
6
CONTINUOUS
10
205.434
20
-193
11
205.363
21
-192.929
0
LINE
8
BLACK
6
CONTINUOUS
10
205.363
20
-192.929
11
205.434
21
-192.857
0
LINE
8
BLACK
6
CONTINUOUS
10
205.434
20
-192.857
11
205.434
21
-193
0
LINE
8
BLACK
6
CONTINUOUS
10
207.22
20
-192.429
11
207.291
21
-192.357
0
LINE
8
BLACK
6
CONTINUOUS
10
207.291
20
-192.357
11
207.434
21
-192.286
0
LINE
8
BLACK
6
CONTINUOUS
10
207.434
20
-192.286
11
207.791
21
-192.286
0
LINE
8
BLACK
6
CONTINUOUS
10
207.791
20
-192.286
11
207.934
21
-192.357
0
LINE
8
BLACK
6
CONTINUOUS
10
207.934
20
-192.357
11
208.006
21
-192.429
0
LINE
8
BLACK
6
CONTINUOUS
10
208.006
20
-192.429
11
208.077
21
-192.571
0
LINE
8
BLACK
6
CONTINUOUS
10
208.077
20
-192.571
11
208.077
21
-192.714
0
LINE
8
BLACK
6
CONTINUOUS
10
208.077
20
-192.714
11
208.006
21
-192.929
0
LINE
8
BLACK
6
CONTINUOUS
10
208.006
20
-192.929
11
207.149
21
-193.786
0
LINE
8
BLACK
6
CONTINUOUS
10
207.149
20
-193.786
11
208.077
21
-193.786
0
LINE
8
BLACK
6
CONTINUOUS
10
209.006
20
-192.286
11
209.149
21
-192.286
0
LINE
8
BLACK
6
CONTINUOUS
10
209.149
20
-192.286
11
209.291
21
-192.357
0
LINE
8
BLACK
6
CONTINUOUS
10
209.291
20
-192.357
11
209.363
21
-192.429
0
LINE
8
BLACK
6
CONTINUOUS
10
209.363
20
-192.429
11
209.434
21
-192.571
0
LINE
8
BLACK
6
CONTINUOUS
10
209.434
20
-192.571
11
209.506
21
-192.857
0
LINE
8
BLACK
6
CONTINUOUS
10
209.506
20
-192.857
11
209.506
21
-193.214
0
LINE
8
BLACK
6
CONTINUOUS
10
209.506
20
-193.214
11
209.434
21
-193.5
0
LINE
8
BLACK
6
CONTINUOUS
10
209.434
20
-193.5
11
209.363
21
-193.643
0
LINE
8
BLACK
6
CONTINUOUS
10
209.363
20
-193.643
11
209.291
21
-193.714
0
LINE
8
BLACK
6
CONTINUOUS
10
209.291
20
-193.714
11
209.149
21
-193.786
0
LINE
8
BLACK
6
CONTINUOUS
10
209.149
20
-193.786
11
209.006
21
-193.786
0
LINE
8
BLACK
6
CONTINUOUS
10
209.006
20
-193.786
11
208.863
21
-193.714
0
LINE
8
BLACK
6
CONTINUOUS
10
208.863
20
-193.714
11
208.791
21
-193.643
0
LINE
8
BLACK
6
CONTINUOUS
10
208.791
20
-193.643
11
208.72
21
-193.5
0
LINE
8
BLACK
6
CONTINUOUS
10
208.72
20
-193.5
11
208.649
21
-193.214
0
LINE
8
BLACK
6
CONTINUOUS
10
208.649
20
-193.214
11
208.649
21
-192.857
0
LINE
8
BLACK
6
CONTINUOUS
10
208.649
20
-192.857
11
208.72
21
-192.571
0
LINE
8
BLACK
6
CONTINUOUS
10
208.72
20
-192.571
11
208.791
21
-192.429
0
LINE
8
BLACK
6
CONTINUOUS
10
208.791
20
-192.429
11
208.863
21
-192.357
0
LINE
8
BLACK
6
CONTINUOUS
10
208.863
20
-192.357
11
209.006
21
-192.286
0
LINE
8
BLACK
6
CONTINUOUS
10
210.077
20
-192.429
11
210.149
21
-192.357
0
LINE
8
BLACK
6
CONTINUOUS
10
210.149
20
-192.357
11
210.291
21
-192.286
0
LINE
8
BLACK
6
CONTINUOUS
10
210.291
20
-192.286
11
210.649
21
-192.286
0
LINE
8
BLACK
6
CONTINUOUS
10
210.649
20
-192.286
11
210.791
21
-192.357
0
LINE
8
BLACK
6
CONTINUOUS
10
210.791
20
-192.357
11
210.863
21
-192.429
0
LINE
8
BLACK
6
CONTINUOUS
10
210.863
20
-192.429
11
210.934
21
-192.571
0
LINE
8
BLACK
6
CONTINUOUS
10
210.934
20
-192.571
11
210.934
21
-192.714
0
LINE
8
BLACK
6
CONTINUOUS
10
210.934
20
-192.714
11
210.863
21
-192.929
0
LINE
8
BLACK
6
CONTINUOUS
10
210.863
20
-192.929
11
210.006
21
-193.786
0
LINE
8
BLACK
6
CONTINUOUS
10
210.006
20
-193.786
11
210.934
21
-193.786
0
LINE
8
BLACK
6
CONTINUOUS
10
211.506
20
-192.429
11
211.577
21
-192.357
0
LINE
8
BLACK
6
CONTINUOUS
10
211.577
20
-192.357
11
211.72
21
-192.286
0
LINE
8
BLACK
6
CONTINUOUS
10
211.72
20
-192.286
11
212.077
21
-192.286
0
LINE
8
BLACK
6
CONTINUOUS
10
212.077
20
-192.286
11
212.22
21
-192.357
0
LINE
8
BLACK
6
CONTINUOUS
10
212.22
20
-192.357
11
212.291
21
-192.429
0
LINE
8
BLACK
6
CONTINUOUS
10
212.291
20
-192.429
11
212.363
21
-192.571
0
LINE
8
BLACK
6
CONTINUOUS
10
212.363
20
-192.571
11
212.363
21
-192.714
0
LINE
8
BLACK
6
CONTINUOUS
10
212.363
20
-192.714
11
212.291
21
-192.929
0
LINE
8
BLACK
6
CONTINUOUS
10
212.291
20
-192.929
11
211.434
21
-193.786
0
LINE
8
BLACK
6
CONTINUOUS
10
211.434
20
-193.786
11
212.363
21
-193.786
0
LINE
8
BLACK
6
CONTINUOUS
10
213.006
20
-193.214
11
214.149
21
-193.214
0
LINE
8
BLACK
6
CONTINUOUS
10
215.649
20
-193.786
11
214.791
21
-193.786
0
LINE
8
BLACK
6
CONTINUOUS
10
215.22
20
-193.786
11
215.22
21
-192.286
0
LINE
8
BLACK
6
CONTINUOUS
10
215.22
20
-192.286
11
215.077
21
-192.5
0
LINE
8
BLACK
6
CONTINUOUS
10
215.077
20
-192.5
11
214.934
21
-192.643
0
LINE
8
BLACK
6
CONTINUOUS
10
214.934
20
-192.643
11
214.791
21
-192.714
0
LINE
8
BLACK
6
CONTINUOUS
10
216.577
20
-192.286
11
216.72
21
-192.286
0
LINE
8
BLACK
6
CONTINUOUS
10
216.72
20
-192.286
11
216.863
21
-192.357
0
LINE
8
BLACK
6
CONTINUOUS
10
216.863
20
-192.357
11
216.934
21
-192.429
0
LINE
8
BLACK
6
CONTINUOUS
10
216.934
20
-192.429
11
217.006
21
-192.571
0
LINE
8
BLACK
6
CONTINUOUS
10
217.006
20
-192.571
11
217.077
21
-192.857
0
LINE
8
BLACK
6
CONTINUOUS
10
217.077
20
-192.857
11
217.077
21
-193.214
0
LINE
8
BLACK
6
CONTINUOUS
10
217.077
20
-193.214
11
217.006
21
-193.5
0
LINE
8
BLACK
6
CONTINUOUS
10
217.006
20
-193.5
11
216.934
21
-193.643
0
LINE
8
BLACK
6
CONTINUOUS
10
216.934
20
-193.643
11
216.863
21
-193.714
0
LINE
8
BLACK
6
CONTINUOUS
10
216.863
20
-193.714
11
216.72
21
-193.786
0
LINE
8
BLACK
6
CONTINUOUS
10
216.72
20
-193.786
11
216.577
21
-193.786
0
LINE
8
BLACK
6
CONTINUOUS
10
216.577
20
-193.786
11
216.434
21
-193.714
0
LINE
8
BLACK
6
CONTINUOUS
10
216.434
20
-193.714
11
216.363
21
-193.643
0
LINE
8
BLACK
6
CONTINUOUS
10
216.363
20
-193.643
11
216.291
21
-193.5
0
LINE
8
BLACK
6
CONTINUOUS
10
216.291
20
-193.5
11
216.22
21
-193.214
0
LINE
8
BLACK
6
CONTINUOUS
10
216.22
20
-193.214
11
216.22
21
-192.857
0
LINE
8
BLACK
6
CONTINUOUS
10
216.22
20
-192.857
11
216.291
21
-192.571
0
LINE
8
BLACK
6
CONTINUOUS
10
216.291
20
-192.571
11
216.363
21
-192.429
0
LINE
8
BLACK
6
CONTINUOUS
10
216.363
20
-192.429
11
216.434
21
-192.357
0
LINE
8
BLACK
6
CONTINUOUS
10
216.434
20
-192.357
11
216.577
21
-192.286
0
LINE
8
BLACK
6
CONTINUOUS
10
217.72
20
-193.214
11
218.863
21
-193.214
0
LINE
8
BLACK
6
CONTINUOUS
10
219.506
20
-192.429
11
219.577
21
-192.357
0
LINE
8
BLACK
6
CONTINUOUS
10
219.577
20
-192.357
11
219.72
21
-192.286
0
LINE
8
BLACK
6
CONTINUOUS
10
219.72
20
-192.286
11
220.077
21
-192.286
0
LINE
8
BLACK
6
CONTINUOUS
10
220.077
20
-192.286
11
220.22
21
-192.357
0
LINE
8
BLACK
6
CONTINUOUS
10
220.22
20
-192.357
11
220.291
21
-192.429
0
LINE
8
BLACK
6
CONTINUOUS
10
220.291
20
-192.429
11
220.363
21
-192.571
0
LINE
8
BLACK
6
CONTINUOUS
10
220.363
20
-192.571
11
220.363
21
-192.714
0
LINE
8
BLACK
6
CONTINUOUS
10
220.363
20
-192.714
11
220.291
21
-192.929
0
LINE
8
BLACK
6
CONTINUOUS
10
220.291
20
-192.929
11
219.434
21
-193.786
0
LINE
8
BLACK
6
CONTINUOUS
10
219.434
20
-193.786
11
220.363
21
-193.786
0
LINE
8
BLACK
6
CONTINUOUS
10
221.791
20
-193.786
11
220.934
21
-193.786
0
LINE
8
BLACK
6
CONTINUOUS
10
221.363
20
-193.786
11
221.363
21
-192.286
0
LINE
8
BLACK
6
CONTINUOUS
10
221.363
20
-192.286
11
221.22
21
-192.5
0
LINE
8
BLACK
6
CONTINUOUS
10
221.22
20
-192.5
11
221.077
21
-192.643
0
LINE
8
BLACK
6
CONTINUOUS
10
221.077
20
-192.643
11
220.934
21
-192.714
0
LINE
8
BLACK
6
CONTINUOUS
10
177.002
20
-194.507
11
285.002
21
-194.507
0
LINE
8
BLACK
6
CONTINUOUS
10
178.434
20
-196.586
11
178.434
21
-195.086
0
LINE
8
BLACK
6
CONTINUOUS
10
179.291
20
-196.586
11
178.649
21
-195.729
0
LINE
8
BLACK
6
CONTINUOUS
10
179.291
20
-195.086
11
178.434
21
-195.943
0
LINE
8
BLACK
6
CONTINUOUS
10
179.934
20
-196.586
11
179.934
21
-195.586
0
LINE
8
BLACK
6
CONTINUOUS
10
179.934
20
-195.086
11
179.863
21
-195.157
0
LINE
8
BLACK
6
CONTINUOUS
10
179.863
20
-195.157
11
179.934
21
-195.229
0
LINE
8
BLACK
6
CONTINUOUS
10
179.934
20
-195.229
11
180.006
21
-195.157
0
LINE
8
BLACK
6
CONTINUOUS
10
180.006
20
-195.157
11
179.934
21
-195.086
0
LINE
8
BLACK
6
CONTINUOUS
10
179.934
20
-195.086
11
179.934
21
-195.229
0
LINE
8
BLACK
6
CONTINUOUS
10
181.506
20
-196.443
11
181.434
21
-196.514
0
LINE
8
BLACK
6
CONTINUOUS
10
181.434
20
-196.514
11
181.22
21
-196.586
0
LINE
8
BLACK
6
CONTINUOUS
10
181.22
20
-196.586
11
181.077
21
-196.586
0
LINE
8
BLACK
6
CONTINUOUS
10
181.077
20
-196.586
11
180.863
21
-196.514
0
LINE
8
BLACK
6
CONTINUOUS
10
180.863
20
-196.514
11
180.72
21
-196.371
0
LINE
8
BLACK
6
CONTINUOUS
10
180.72
20
-196.371
11
180.649
21
-196.229
0
LINE
8
BLACK
6
CONTINUOUS
10
180.649
20
-196.229
11
180.577
21
-195.943
0
LINE
8
BLACK
6
CONTINUOUS
10
180.577
20
-195.943
11
180.577
21
-195.729
0
LINE
8
BLACK
6
CONTINUOUS
10
180.577
20
-195.729
11
180.649
21
-195.443
0
LINE
8
BLACK
6
CONTINUOUS
10
180.649
20
-195.443
11
180.72
21
-195.3
0
LINE
8
BLACK
6
CONTINUOUS
10
180.72
20
-195.3
11
180.863
21
-195.157
0
LINE
8
BLACK
6
CONTINUOUS
10
180.863
20
-195.157
11
181.077
21
-195.086
0
LINE
8
BLACK
6
CONTINUOUS
10
181.077
20
-195.086
11
181.22
21
-195.086
0
LINE
8
BLACK
6
CONTINUOUS
10
181.22
20
-195.086
11
181.434
21
-195.157
0
LINE
8
BLACK
6
CONTINUOUS
10
181.434
20
-195.157
11
181.506
21
-195.229
0
LINE
8
BLACK
6
CONTINUOUS
10
182.791
20
-196.586
11
182.791
21
-195.8
0
LINE
8
BLACK
6
CONTINUOUS
10
182.791
20
-195.8
11
182.72
21
-195.657
0
LINE
8
BLACK
6
CONTINUOUS
10
182.72
20
-195.657
11
182.577
21
-195.586
0
LINE
8
BLACK
6
CONTINUOUS
10
182.577
20
-195.586
11
182.291
21
-195.586
0
LINE
8
BLACK
6
CONTINUOUS
10
182.291
20
-195.586
11
182.149
21
-195.657
0
LINE
8
BLACK
6
CONTINUOUS
10
182.791
20
-196.514
11
182.649
21
-196.586
0
LINE
8
BLACK
6
CONTINUOUS
10
182.649
20
-196.586
11
182.291
21
-196.586
0
LINE
8
BLACK
6
CONTINUOUS
10
182.291
20
-196.586
11
182.149
21
-196.514
0
LINE
8
BLACK
6
CONTINUOUS
10
182.149
20
-196.514
11
182.077
21
-196.371
0
LINE
8
BLACK
6
CONTINUOUS
10
182.077
20
-196.371
11
182.077
21
-196.229
0
LINE
8
BLACK
6
CONTINUOUS
10
182.077
20
-196.229
11
182.149
21
-196.086
0
LINE
8
BLACK
6
CONTINUOUS
10
182.149
20
-196.086
11
182.291
21
-196.014
0
LINE
8
BLACK
6
CONTINUOUS
10
182.291
20
-196.014
11
182.649
21
-196.014
0
LINE
8
BLACK
6
CONTINUOUS
10
182.649
20
-196.014
11
182.791
21
-195.943
0
LINE
8
BLACK
6
CONTINUOUS
10
184.149
20
-196.586
11
184.149
21
-195.086
0
LINE
8
BLACK
6
CONTINUOUS
10
184.149
20
-196.514
11
184.006
21
-196.586
0
LINE
8
BLACK
6
CONTINUOUS
10
184.006
20
-196.586
11
183.72
21
-196.586
0
LINE
8
BLACK
6
CONTINUOUS
10
183.72
20
-196.586
11
183.577
21
-196.514
0
LINE
8
BLACK
6
CONTINUOUS
10
183.577
20
-196.514
11
183.506
21
-196.443
0
LINE
8
BLACK
6
CONTINUOUS
10
183.506
20
-196.443
11
183.434
21
-196.3
0
LINE
8
BLACK
6
CONTINUOUS
10
183.434
20
-196.3
11
183.434
21
-195.871
0
LINE
8
BLACK
6
CONTINUOUS
10
183.434
20
-195.871
11
183.506
21
-195.729
0
LINE
8
BLACK
6
CONTINUOUS
10
183.506
20
-195.729
11
183.577
21
-195.657
0
LINE
8
BLACK
6
CONTINUOUS
10
183.577
20
-195.657
11
183.72
21
-195.586
0
LINE
8
BLACK
6
CONTINUOUS
10
183.72
20
-195.586
11
184.006
21
-195.586
0
LINE
8
BLACK
6
CONTINUOUS
10
184.006
20
-195.586
11
184.149
21
-195.657
0
LINE
8
BLACK
6
CONTINUOUS
10
186.006
20
-195.8
11
186.506
21
-195.8
0
LINE
8
BLACK
6
CONTINUOUS
10
186.72
20
-196.586
11
186.006
21
-196.586
0
LINE
8
BLACK
6
CONTINUOUS
10
186.006
20
-196.586
11
186.006
21
-195.086
0
LINE
8
BLACK
6
CONTINUOUS
10
186.006
20
-195.086
11
186.72
21
-195.086
0
LINE
8
BLACK
6
CONTINUOUS
10
187.363
20
-196.443
11
187.434
21
-196.514
0
LINE
8
BLACK
6
CONTINUOUS
10
187.434
20
-196.514
11
187.363
21
-196.586
0
LINE
8
BLACK
6
CONTINUOUS
10
187.363
20
-196.586
11
187.291
21
-196.514
0
LINE
8
BLACK
6
CONTINUOUS
10
187.291
20
-196.514
11
187.363
21
-196.443
0
LINE
8
BLACK
6
CONTINUOUS
10
187.363
20
-196.443
11
187.363
21
-196.586
0
LINE
8
BLACK
6
CONTINUOUS
10
188.077
20
-196.586
11
188.077
21
-195.086
0
LINE
8
BLACK
6
CONTINUOUS
10
188.077
20
-195.086
11
188.434
21
-195.086
0
LINE
8
BLACK
6
CONTINUOUS
10
188.434
20
-195.086
11
188.649
21
-195.157
0
LINE
8
BLACK
6
CONTINUOUS
10
188.649
20
-195.157
11
188.791
21
-195.3
0
LINE
8
BLACK
6
CONTINUOUS
10
188.791
20
-195.3
11
188.863
21
-195.443
0
LINE
8
BLACK
6
CONTINUOUS
10
188.863
20
-195.443
11
188.934
21
-195.729
0
LINE
8
BLACK
6
CONTINUOUS
10
188.934
20
-195.729
11
188.934
21
-195.943
0
LINE
8
BLACK
6
CONTINUOUS
10
188.934
20
-195.943
11
188.863
21
-196.229
0
LINE
8
BLACK
6
CONTINUOUS
10
188.863
20
-196.229
11
188.791
21
-196.371
0
LINE
8
BLACK
6
CONTINUOUS
10
188.791
20
-196.371
11
188.649
21
-196.514
0
LINE
8
BLACK
6
CONTINUOUS
10
188.649
20
-196.514
11
188.434
21
-196.586
0
LINE
8
BLACK
6
CONTINUOUS
10
188.434
20
-196.586
11
188.077
21
-196.586
0
LINE
8
BLACK
6
CONTINUOUS
10
189.577
20
-196.443
11
189.649
21
-196.514
0
LINE
8
BLACK
6
CONTINUOUS
10
189.649
20
-196.514
11
189.577
21
-196.586
0
LINE
8
BLACK
6
CONTINUOUS
10
189.577
20
-196.586
11
189.506
21
-196.514
0
LINE
8
BLACK
6
CONTINUOUS
10
189.506
20
-196.514
11
189.577
21
-196.443
0
LINE
8
BLACK
6
CONTINUOUS
10
189.577
20
-196.443
11
189.577
21
-196.586
0
LINE
8
BLACK
6
CONTINUOUS
10
190.22
20
-196.157
11
190.934
21
-196.157
0
LINE
8
BLACK
6
CONTINUOUS
10
190.077
20
-196.586
11
190.577
21
-195.086
0
LINE
8
BLACK
6
CONTINUOUS
10
190.577
20
-195.086
11
191.077
21
-196.586
0
LINE
8
BLACK
6
CONTINUOUS
10
191.577
20
-196.443
11
191.649
21
-196.514
0
LINE
8
BLACK
6
CONTINUOUS
10
191.649
20
-196.514
11
191.577
21
-196.586
0
LINE
8
BLACK
6
CONTINUOUS
10
191.577
20
-196.586
11
191.506
21
-196.514
0
LINE
8
BLACK
6
CONTINUOUS
10
191.506
20
-196.514
11
191.577
21
-196.443
0
LINE
8
BLACK
6
CONTINUOUS
10
191.577
20
-196.443
11
191.577
21
-196.586
0
LINE
8
BLACK
6
CONTINUOUS
10
194.577
20
-196.586
11
194.577
21
-195.086
0
LINE
8
BLACK
6
CONTINUOUS
10
194.72
20
-196.014
11
195.149
21
-196.586
0
LINE
8
BLACK
6
CONTINUOUS
10
195.149
20
-195.586
11
194.577
21
-196.157
0
LINE
8
BLACK
6
CONTINUOUS
10
195.791
20
-196.586
11
195.791
21
-195.586
0
LINE
8
BLACK
6
CONTINUOUS
10
195.791
20
-195.086
11
195.72
21
-195.157
0
LINE
8
BLACK
6
CONTINUOUS
10
195.72
20
-195.157
11
195.791
21
-195.229
0
LINE
8
BLACK
6
CONTINUOUS
10
195.791
20
-195.229
11
195.863
21
-195.157
0
LINE
8
BLACK
6
CONTINUOUS
10
195.863
20
-195.157
11
195.791
21
-195.086
0
LINE
8
BLACK
6
CONTINUOUS
10
195.791
20
-195.086
11
195.791
21
-195.229
0
LINE
8
BLACK
6
CONTINUOUS
10
197.149
20
-196.514
11
197.006
21
-196.586
0
LINE
8
BLACK
6
CONTINUOUS
10
197.006
20
-196.586
11
196.72
21
-196.586
0
LINE
8
BLACK
6
CONTINUOUS
10
196.72
20
-196.586
11
196.577
21
-196.514
0
LINE
8
BLACK
6
CONTINUOUS
10
196.577
20
-196.514
11
196.506
21
-196.443
0
LINE
8
BLACK
6
CONTINUOUS
10
196.506
20
-196.443
11
196.434
21
-196.3
0
LINE
8
BLACK
6
CONTINUOUS
10
196.434
20
-196.3
11
196.434
21
-195.871
0
LINE
8
BLACK
6
CONTINUOUS
10
196.434
20
-195.871
11
196.506
21
-195.729
0
LINE
8
BLACK
6
CONTINUOUS
10
196.506
20
-195.729
11
196.577
21
-195.657
0
LINE
8
BLACK
6
CONTINUOUS
10
196.577
20
-195.657
11
196.72
21
-195.586
0
LINE
8
BLACK
6
CONTINUOUS
10
196.72
20
-195.586
11
197.006
21
-195.586
0
LINE
8
BLACK
6
CONTINUOUS
10
197.006
20
-195.586
11
197.149
21
-195.657
0
LINE
8
BLACK
6
CONTINUOUS
10
198.434
20
-196.586
11
198.434
21
-195.8
0
LINE
8
BLACK
6
CONTINUOUS
10
198.434
20
-195.8
11
198.363
21
-195.657
0
LINE
8
BLACK
6
CONTINUOUS
10
198.363
20
-195.657
11
198.22
21
-195.586
0
LINE
8
BLACK
6
CONTINUOUS
10
198.22
20
-195.586
11
197.934
21
-195.586
0
LINE
8
BLACK
6
CONTINUOUS
10
197.934
20
-195.586
11
197.791
21
-195.657
0
LINE
8
BLACK
6
CONTINUOUS
10
198.434
20
-196.514
11
198.291
21
-196.586
0
LINE
8
BLACK
6
CONTINUOUS
10
198.291
20
-196.586
11
197.934
21
-196.586
0
LINE
8
BLACK
6
CONTINUOUS
10
197.934
20
-196.586
11
197.791
21
-196.514
0
LINE
8
BLACK
6
CONTINUOUS
10
197.791
20
-196.514
11
197.72
21
-196.371
0
LINE
8
BLACK
6
CONTINUOUS
10
197.72
20
-196.371
11
197.72
21
-196.229
0
LINE
8
BLACK
6
CONTINUOUS
10
197.72
20
-196.229
11
197.791
21
-196.086
0
LINE
8
BLACK
6
CONTINUOUS
10
197.791
20
-196.086
11
197.934
21
-196.014
0
LINE
8
BLACK
6
CONTINUOUS
10
197.934
20
-196.014
11
198.291
21
-196.014
0
LINE
8
BLACK
6
CONTINUOUS
10
198.291
20
-196.014
11
198.434
21
-195.943
0
LINE
8
BLACK
6
CONTINUOUS
10
199.791
20
-196.586
11
199.791
21
-195.086
0
LINE
8
BLACK
6
CONTINUOUS
10
199.791
20
-196.514
11
199.649
21
-196.586
0
LINE
8
BLACK
6
CONTINUOUS
10
199.649
20
-196.586
11
199.363
21
-196.586
0
LINE
8
BLACK
6
CONTINUOUS
10
199.363
20
-196.586
11
199.22
21
-196.514
0
LINE
8
BLACK
6
CONTINUOUS
10
199.22
20
-196.514
11
199.149
21
-196.443
0
LINE
8
BLACK
6
CONTINUOUS
10
199.149
20
-196.443
11
199.077
21
-196.3
0
LINE
8
BLACK
6
CONTINUOUS
10
199.077
20
-196.3
11
199.077
21
-195.871
0
LINE
8
BLACK
6
CONTINUOUS
10
199.077
20
-195.871
11
199.149
21
-195.729
0
LINE
8
BLACK
6
CONTINUOUS
10
199.149
20
-195.729
11
199.22
21
-195.657
0
LINE
8
BLACK
6
CONTINUOUS
10
199.22
20
-195.657
11
199.363
21
-195.586
0
LINE
8
BLACK
6
CONTINUOUS
10
199.363
20
-195.586
11
199.649
21
-195.586
0
LINE
8
BLACK
6
CONTINUOUS
10
199.649
20
-195.586
11
199.791
21
-195.657
0
LINE
8
BLACK
6
CONTINUOUS
10
202.077
20
-197.157
11
202.006
21
-197.086
0
LINE
8
BLACK
6
CONTINUOUS
10
202.006
20
-197.086
11
201.863
21
-196.871
0
LINE
8
BLACK
6
CONTINUOUS
10
201.863
20
-196.871
11
201.791
21
-196.729
0
LINE
8
BLACK
6
CONTINUOUS
10
201.791
20
-196.729
11
201.72
21
-196.514
0
LINE
8
BLACK
6
CONTINUOUS
10
201.72
20
-196.514
11
201.649
21
-196.157
0
LINE
8
BLACK
6
CONTINUOUS
10
201.649
20
-196.157
11
201.649
21
-195.871
0
LINE
8
BLACK
6
CONTINUOUS
10
201.649
20
-195.871
11
201.72
21
-195.514
0
LINE
8
BLACK
6
CONTINUOUS
10
201.72
20
-195.514
11
201.791
21
-195.3
0
LINE
8
BLACK
6
CONTINUOUS
10
201.791
20
-195.3
11
201.863
21
-195.157
0
LINE
8
BLACK
6
CONTINUOUS
10
201.863
20
-195.157
11
202.006
21
-194.943
0
LINE
8
BLACK
6
CONTINUOUS
10
202.006
20
-194.943
11
202.077
21
-194.871
0
LINE
8
BLACK
6
CONTINUOUS
10
203.291
20
-195.086
11
203.006
21
-195.086
0
LINE
8
BLACK
6
CONTINUOUS
10
203.006
20
-195.086
11
202.863
21
-195.157
0
LINE
8
BLACK
6
CONTINUOUS
10
202.863
20
-195.157
11
202.791
21
-195.229
0
LINE
8
BLACK
6
CONTINUOUS
10
202.791
20
-195.229
11
202.649
21
-195.443
0
LINE
8
BLACK
6
CONTINUOUS
10
202.649
20
-195.443
11
202.577
21
-195.729
0
LINE
8
BLACK
6
CONTINUOUS
10
202.577
20
-195.729
11
202.577
21
-196.3
0
LINE
8
BLACK
6
CONTINUOUS
10
202.577
20
-196.3
11
202.649
21
-196.443
0
LINE
8
BLACK
6
CONTINUOUS
10
202.649
20
-196.443
11
202.72
21
-196.514
0
LINE
8
BLACK
6
CONTINUOUS
10
202.72
20
-196.514
11
202.863
21
-196.586
0
LINE
8
BLACK
6
CONTINUOUS
10
202.863
20
-196.586
11
203.149
21
-196.586
0
LINE
8
BLACK
6
CONTINUOUS
10
203.149
20
-196.586
11
203.291
21
-196.514
0
LINE
8
BLACK
6
CONTINUOUS
10
203.291
20
-196.514
11
203.363
21
-196.443
0
LINE
8
BLACK
6
CONTINUOUS
10
203.363
20
-196.443
11
203.434
21
-196.3
0
LINE
8
BLACK
6
CONTINUOUS
10
203.434
20
-196.3
11
203.434
21
-195.943
0
LINE
8
BLACK
6
CONTINUOUS
10
203.434
20
-195.943
11
203.363
21
-195.8
0
LINE
8
BLACK
6
CONTINUOUS
10
203.363
20
-195.8
11
203.291
21
-195.729
0
LINE
8
BLACK
6
CONTINUOUS
10
203.291
20
-195.729
11
203.149
21
-195.657
0
LINE
8
BLACK
6
CONTINUOUS
10
203.149
20
-195.657
11
202.863
21
-195.657
0
LINE
8
BLACK
6
CONTINUOUS
10
202.863
20
-195.657
11
202.72
21
-195.729
0
LINE
8
BLACK
6
CONTINUOUS
10
202.72
20
-195.729
11
202.649
21
-195.8
0
LINE
8
BLACK
6
CONTINUOUS
10
202.649
20
-195.8
11
202.577
21
-195.943
0
LINE
8
BLACK
6
CONTINUOUS
10
204.077
20
-196.443
11
204.149
21
-196.514
0
LINE
8
BLACK
6
CONTINUOUS
10
204.149
20
-196.514
11
204.077
21
-196.586
0
LINE
8
BLACK
6
CONTINUOUS
10
204.077
20
-196.586
11
204.006
21
-196.514
0
LINE
8
BLACK
6
CONTINUOUS
10
204.006
20
-196.514
11
204.077
21
-196.443
0
LINE
8
BLACK
6
CONTINUOUS
10
204.077
20
-196.443
11
204.077
21
-196.586
0
LINE
8
BLACK
6
CONTINUOUS
10
205.077
20
-195.086
11
205.22
21
-195.086
0
LINE
8
BLACK
6
CONTINUOUS
10
205.22
20
-195.086
11
205.363
21
-195.157
0
LINE
8
BLACK
6
CONTINUOUS
10
205.363
20
-195.157
11
205.434
21
-195.229
0
LINE
8
BLACK
6
CONTINUOUS
10
205.434
20
-195.229
11
205.506
21
-195.371
0
LINE
8
BLACK
6
CONTINUOUS
10
205.506
20
-195.371
11
205.577
21
-195.657
0
LINE
8
BLACK
6
CONTINUOUS
10
205.577
20
-195.657
11
205.577
21
-196.014
0
LINE
8
BLACK
6
CONTINUOUS
10
205.577
20
-196.014
11
205.506
21
-196.3
0
LINE
8
BLACK
6
CONTINUOUS
10
205.506
20
-196.3
11
205.434
21
-196.443
0
LINE
8
BLACK
6
CONTINUOUS
10
205.434
20
-196.443
11
205.363
21
-196.514
0
LINE
8
BLACK
6
CONTINUOUS
10
205.363
20
-196.514
11
205.22
21
-196.586
0
LINE
8
BLACK
6
CONTINUOUS
10
205.22
20
-196.586
11
205.077
21
-196.586
0
LINE
8
BLACK
6
CONTINUOUS
10
205.077
20
-196.586
11
204.934
21
-196.514
0
LINE
8
BLACK
6
CONTINUOUS
10
204.934
20
-196.514
11
204.863
21
-196.443
0
LINE
8
BLACK
6
CONTINUOUS
10
204.863
20
-196.443
11
204.791
21
-196.3
0
LINE
8
BLACK
6
CONTINUOUS
10
204.791
20
-196.3
11
204.72
21
-196.014
0
LINE
8
BLACK
6
CONTINUOUS
10
204.72
20
-196.014
11
204.72
21
-195.657
0
LINE
8
BLACK
6
CONTINUOUS
10
204.72
20
-195.657
11
204.791
21
-195.371
0
LINE
8
BLACK
6
CONTINUOUS
10
204.791
20
-195.371
11
204.863
21
-195.229
0
LINE
8
BLACK
6
CONTINUOUS
10
204.863
20
-195.229
11
204.934
21
-195.157
0
LINE
8
BLACK
6
CONTINUOUS
10
204.934
20
-195.157
11
205.077
21
-195.086
0
LINE
8
BLACK
6
CONTINUOUS
10
206.22
20
-196.443
11
206.291
21
-196.514
0
LINE
8
BLACK
6
CONTINUOUS
10
206.291
20
-196.514
11
206.22
21
-196.586
0
LINE
8
BLACK
6
CONTINUOUS
10
206.22
20
-196.586
11
206.149
21
-196.514
0
LINE
8
BLACK
6
CONTINUOUS
10
206.149
20
-196.514
11
206.22
21
-196.443
0
LINE
8
BLACK
6
CONTINUOUS
10
206.22
20
-196.443
11
206.22
21
-196.586
0
LINE
8
BLACK
6
CONTINUOUS
10
207.577
20
-195.586
11
207.577
21
-196.586
0
LINE
8
BLACK
6
CONTINUOUS
10
207.22
20
-195.014
11
206.863
21
-196.086
0
LINE
8
BLACK
6
CONTINUOUS
10
206.863
20
-196.086
11
207.791
21
-196.086
0
LINE
8
BLACK
6
CONTINUOUS
10
208.22
20
-197.157
11
208.291
21
-197.086
0
LINE
8
BLACK
6
CONTINUOUS
10
208.291
20
-197.086
11
208.434
21
-196.871
0
LINE
8
BLACK
6
CONTINUOUS
10
208.434
20
-196.871
11
208.506
21
-196.729
0
LINE
8
BLACK
6
CONTINUOUS
10
208.506
20
-196.729
11
208.577
21
-196.514
0
LINE
8
BLACK
6
CONTINUOUS
10
208.577
20
-196.514
11
208.649
21
-196.157
0
LINE
8
BLACK
6
CONTINUOUS
10
208.649
20
-196.157
11
208.649
21
-195.871
0
LINE
8
BLACK
6
CONTINUOUS
10
208.649
20
-195.871
11
208.577
21
-195.514
0
LINE
8
BLACK
6
CONTINUOUS
10
208.577
20
-195.514
11
208.506
21
-195.3
0
LINE
8
BLACK
6
CONTINUOUS
10
208.506
20
-195.3
11
208.434
21
-195.157
0
LINE
8
BLACK
6
CONTINUOUS
10
208.434
20
-195.157
11
208.291
21
-194.943
0
LINE
8
BLACK
6
CONTINUOUS
10
208.291
20
-194.943
11
208.22
21
-194.871
0
LINE
8
BLACK
6
CONTINUOUS
10
177.002
20
-191.507
11
285.002
21
-191.507
0
LINE
8
BLACK
6
CONTINUOUS
10
264.411
20
-193.786
11
263.911
21
-193.071
0
LINE
8
BLACK
6
CONTINUOUS
10
263.554
20
-193.786
11
263.554
21
-192.286
0
LINE
8
BLACK
6
CONTINUOUS
10
263.554
20
-192.286
11
264.126
21
-192.286
0
LINE
8
BLACK
6
CONTINUOUS
10
264.126
20
-192.286
11
264.269
21
-192.357
0
LINE
8
BLACK
6
CONTINUOUS
10
264.269
20
-192.357
11
264.34
21
-192.429
0
LINE
8
BLACK
6
CONTINUOUS
10
264.34
20
-192.429
11
264.411
21
-192.571
0
LINE
8
BLACK
6
CONTINUOUS
10
264.411
20
-192.571
11
264.411
21
-192.786
0
LINE
8
BLACK
6
CONTINUOUS
10
264.411
20
-192.786
11
264.34
21
-192.929
0
LINE
8
BLACK
6
CONTINUOUS
10
264.34
20
-192.929
11
264.269
21
-193
0
LINE
8
BLACK
6
CONTINUOUS
10
264.269
20
-193
11
264.126
21
-193.071
0
LINE
8
BLACK
6
CONTINUOUS
10
264.126
20
-193.071
11
263.554
21
-193.071
0
LINE
8
BLACK
6
CONTINUOUS
10
265.626
20
-193.714
11
265.483
21
-193.786
0
LINE
8
BLACK
6
CONTINUOUS
10
265.483
20
-193.786
11
265.197
21
-193.786
0
LINE
8
BLACK
6
CONTINUOUS
10
265.197
20
-193.786
11
265.054
21
-193.714
0
LINE
8
BLACK
6
CONTINUOUS
10
265.054
20
-193.714
11
264.983
21
-193.571
0
LINE
8
BLACK
6
CONTINUOUS
10
264.983
20
-193.571
11
264.983
21
-193
0
LINE
8
BLACK
6
CONTINUOUS
10
264.983
20
-193
11
265.054
21
-192.857
0
LINE
8
BLACK
6
CONTINUOUS
10
265.054
20
-192.857
11
265.197
21
-192.786
0
LINE
8
BLACK
6
CONTINUOUS
10
265.197
20
-192.786
11
265.483
21
-192.786
0
LINE
8
BLACK
6
CONTINUOUS
10
265.483
20
-192.786
11
265.626
21
-192.857
0
LINE
8
BLACK
6
CONTINUOUS
10
265.626
20
-192.857
11
265.697
21
-193
0
LINE
8
BLACK
6
CONTINUOUS
10
265.697
20
-193
11
265.697
21
-193.143
0
LINE
8
BLACK
6
CONTINUOUS
10
265.697
20
-193.143
11
264.983
21
-193.286
0
LINE
8
BLACK
6
CONTINUOUS
10
266.197
20
-192.786
11
266.554
21
-193.786
0
LINE
8
BLACK
6
CONTINUOUS
10
266.554
20
-193.786
11
266.911
21
-192.786
0
LINE
8
BLACK
6
CONTINUOUS
10
267.483
20
-193.643
11
267.554
21
-193.714
0
LINE
8
BLACK
6
CONTINUOUS
10
267.554
20
-193.714
11
267.483
21
-193.786
0
LINE
8
BLACK
6
CONTINUOUS
10
267.483
20
-193.786
11
267.411
21
-193.714
0
LINE
8
BLACK
6
CONTINUOUS
10
267.411
20
-193.714
11
267.483
21
-193.643
0
LINE
8
BLACK
6
CONTINUOUS
10
267.483
20
-193.643
11
267.483
21
-193.786
0
LINE
8
BLACK
6
CONTINUOUS
10
267.483
20
-192.857
11
267.554
21
-192.929
0
LINE
8
BLACK
6
CONTINUOUS
10
267.554
20
-192.929
11
267.483
21
-193
0
LINE
8
BLACK
6
CONTINUOUS
10
267.483
20
-193
11
267.411
21
-192.929
0
LINE
8
BLACK
6
CONTINUOUS
10
267.411
20
-192.929
11
267.483
21
-192.857
0
LINE
8
BLACK
6
CONTINUOUS
10
267.483
20
-192.857
11
267.483
21
-193
0
LINE
8
BLACK
6
CONTINUOUS
10
269.626
20
-192.286
11
269.769
21
-192.286
0
LINE
8
BLACK
6
CONTINUOUS
10
269.769
20
-192.286
11
269.911
21
-192.357
0
LINE
8
BLACK
6
CONTINUOUS
10
269.911
20
-192.357
11
269.983
21
-192.429
0
LINE
8
BLACK
6
CONTINUOUS
10
269.983
20
-192.429
11
270.054
21
-192.571
0
LINE
8
BLACK
6
CONTINUOUS
10
270.054
20
-192.571
11
270.126
21
-192.857
0
LINE
8
BLACK
6
CONTINUOUS
10
270.126
20
-192.857
11
270.126
21
-193.214
0
LINE
8
BLACK
6
CONTINUOUS
10
270.126
20
-193.214
11
270.054
21
-193.5
0
LINE
8
BLACK
6
CONTINUOUS
10
270.054
20
-193.5
11
269.983
21
-193.643
0
LINE
8
BLACK
6
CONTINUOUS
10
269.983
20
-193.643
11
269.911
21
-193.714
0
LINE
8
BLACK
6
CONTINUOUS
10
269.911
20
-193.714
11
269.769
21
-193.786
0
LINE
8
BLACK
6
CONTINUOUS
10
269.769
20
-193.786
11
269.626
21
-193.786
0
LINE
8
BLACK
6
CONTINUOUS
10
269.626
20
-193.786
11
269.483
21
-193.714
0
LINE
8
BLACK
6
CONTINUOUS
10
269.483
20
-193.714
11
269.411
21
-193.643
0
LINE
8
BLACK
6
CONTINUOUS
10
269.411
20
-193.643
11
269.34
21
-193.5
0
LINE
8
BLACK
6
CONTINUOUS
10
269.34
20
-193.5
11
269.269
21
-193.214
0
LINE
8
BLACK
6
CONTINUOUS
10
269.269
20
-193.214
11
269.269
21
-192.857
0
LINE
8
BLACK
6
CONTINUOUS
10
269.269
20
-192.857
11
269.34
21
-192.571
0
LINE
8
BLACK
6
CONTINUOUS
10
269.34
20
-192.571
11
269.411
21
-192.429
0
LINE
8
BLACK
6
CONTINUOUS
10
269.411
20
-192.429
11
269.483
21
-192.357
0
LINE
8
BLACK
6
CONTINUOUS
10
269.483
20
-192.357
11
269.626
21
-192.286
0
LINE
8
BLACK
6
CONTINUOUS
10
270.769
20
-193.643
11
270.84
21
-193.714
0
LINE
8
BLACK
6
CONTINUOUS
10
270.84
20
-193.714
11
270.769
21
-193.786
0
LINE
8
BLACK
6
CONTINUOUS
10
270.769
20
-193.786
11
270.697
21
-193.714
0
LINE
8
BLACK
6
CONTINUOUS
10
270.697
20
-193.714
11
270.769
21
-193.643
0
LINE
8
BLACK
6
CONTINUOUS
10
270.769
20
-193.643
11
270.769
21
-193.786
0
LINE
8
BLACK
6
CONTINUOUS
10
271.411
20
-192.429
11
271.483
21
-192.357
0
LINE
8
BLACK
6
CONTINUOUS
10
271.483
20
-192.357
11
271.626
21
-192.286
0
LINE
8
BLACK
6
CONTINUOUS
10
271.626
20
-192.286
11
271.983
21
-192.286
0
LINE
8
BLACK
6
CONTINUOUS
10
271.983
20
-192.286
11
272.126
21
-192.357
0
LINE
8
BLACK
6
CONTINUOUS
10
272.126
20
-192.357
11
272.197
21
-192.429
0
LINE
8
BLACK
6
CONTINUOUS
10
272.197
20
-192.429
11
272.269
21
-192.571
0
LINE
8
BLACK
6
CONTINUOUS
10
272.269
20
-192.571
11
272.269
21
-192.714
0
LINE
8
BLACK
6
CONTINUOUS
10
272.269
20
-192.714
11
272.197
21
-192.929
0
LINE
8
BLACK
6
CONTINUOUS
10
272.197
20
-192.929
11
271.34
21
-193.786
0
LINE
8
BLACK
6
CONTINUOUS
10
271.34
20
-193.786
11
272.269
21
-193.786
0
LINE
8
BLACK
6
CONTINUOUS
10
178.363
20
-193.714
11
178.577
21
-193.786
0
LINE
8
BLACK
6
CONTINUOUS
10
178.577
20
-193.786
11
178.934
21
-193.786
0
LINE
8
BLACK
6
CONTINUOUS
10
178.934
20
-193.786
11
179.077
21
-193.714
0
LINE
8
BLACK
6
CONTINUOUS
10
179.077
20
-193.714
11
179.149
21
-193.643
0
LINE
8
BLACK
6
CONTINUOUS
10
179.149
20
-193.643
11
179.22
21
-193.5
0
LINE
8
BLACK
6
CONTINUOUS
10
179.22
20
-193.5
11
179.22
21
-193.357
0
LINE
8
BLACK
6
CONTINUOUS
10
179.22
20
-193.357
11
179.149
21
-193.214
0
LINE
8
BLACK
6
CONTINUOUS
10
179.149
20
-193.214
11
179.077
21
-193.143
0
LINE
8
BLACK
6
CONTINUOUS
10
179.077
20
-193.143
11
178.934
21
-193.071
0
LINE
8
BLACK
6
CONTINUOUS
10
178.934
20
-193.071
11
178.649
21
-193
0
LINE
8
BLACK
6
CONTINUOUS
10
178.649
20
-193
11
178.506
21
-192.929
0
LINE
8
BLACK
6
CONTINUOUS
10
178.506
20
-192.929
11
178.434
21
-192.857
0
LINE
8
BLACK
6
CONTINUOUS
10
178.434
20
-192.857
11
178.363
21
-192.714
0
LINE
8
BLACK
6
CONTINUOUS
10
178.363
20
-192.714
11
178.363
21
-192.571
0
LINE
8
BLACK
6
CONTINUOUS
10
178.363
20
-192.571
11
178.434
21
-192.429
0
LINE
8
BLACK
6
CONTINUOUS
10
178.434
20
-192.429
11
178.506
21
-192.357
0
LINE
8
BLACK
6
CONTINUOUS
10
178.506
20
-192.357
11
178.649
21
-192.286
0
LINE
8
BLACK
6
CONTINUOUS
10
178.649
20
-192.286
11
179.006
21
-192.286
0
LINE
8
BLACK
6
CONTINUOUS
10
179.006
20
-192.286
11
179.22
21
-192.357
0
LINE
8
BLACK
6
CONTINUOUS
10
179.863
20
-193.786
11
179.863
21
-192.786
0
LINE
8
BLACK
6
CONTINUOUS
10
179.863
20
-192.286
11
179.791
21
-192.357
0
LINE
8
BLACK
6
CONTINUOUS
10
179.791
20
-192.357
11
179.863
21
-192.429
0
LINE
8
BLACK
6
CONTINUOUS
10
179.863
20
-192.429
11
179.934
21
-192.357
0
LINE
8
BLACK
6
CONTINUOUS
10
179.934
20
-192.357
11
179.863
21
-192.286
0
LINE
8
BLACK
6
CONTINUOUS
10
179.863
20
-192.286
11
179.863
21
-192.429
0
LINE
8
BLACK
6
CONTINUOUS
10
180.434
20
-192.786
11
181.22
21
-192.786
0
LINE
8
BLACK
6
CONTINUOUS
10
181.22
20
-192.786
11
180.434
21
-193.786
0
LINE
8
BLACK
6
CONTINUOUS
10
180.434
20
-193.786
11
181.22
21
-193.786
0
LINE
8
BLACK
6
CONTINUOUS
10
182.363
20
-193.714
11
182.22
21
-193.786
0
LINE
8
BLACK
6
CONTINUOUS
10
182.22
20
-193.786
11
181.934
21
-193.786
0
LINE
8
BLACK
6
CONTINUOUS
10
181.934
20
-193.786
11
181.791
21
-193.714
0
LINE
8
BLACK
6
CONTINUOUS
10
181.791
20
-193.714
11
181.72
21
-193.571
0
LINE
8
BLACK
6
CONTINUOUS
10
181.72
20
-193.571
11
181.72
21
-193
0
LINE
8
BLACK
6
CONTINUOUS
10
181.72
20
-193
11
181.791
21
-192.857
0
LINE
8
BLACK
6
CONTINUOUS
10
181.791
20
-192.857
11
181.934
21
-192.786
0
LINE
8
BLACK
6
CONTINUOUS
10
181.934
20
-192.786
11
182.22
21
-192.786
0
LINE
8
BLACK
6
CONTINUOUS
10
182.22
20
-192.786
11
182.363
21
-192.857
0
LINE
8
BLACK
6
CONTINUOUS
10
182.363
20
-192.857
11
182.434
21
-193
0
LINE
8
BLACK
6
CONTINUOUS
10
182.434
20
-193
11
182.434
21
-193.143
0
LINE
8
BLACK
6
CONTINUOUS
10
182.434
20
-193.143
11
181.72
21
-193.286
0
LINE
8
BLACK
6
CONTINUOUS
10
183.077
20
-193.643
11
183.149
21
-193.714
0
LINE
8
BLACK
6
CONTINUOUS
10
183.149
20
-193.714
11
183.077
21
-193.786
0
LINE
8
BLACK
6
CONTINUOUS
10
183.077
20
-193.786
11
183.006
21
-193.714
0
LINE
8
BLACK
6
CONTINUOUS
10
183.006
20
-193.714
11
183.077
21
-193.643
0
LINE
8
BLACK
6
CONTINUOUS
10
183.077
20
-193.643
11
183.077
21
-193.786
0
LINE
8
BLACK
6
CONTINUOUS
10
183.077
20
-192.857
11
183.149
21
-192.929
0
LINE
8
BLACK
6
CONTINUOUS
10
183.149
20
-192.929
11
183.077
21
-193
0
LINE
8
BLACK
6
CONTINUOUS
10
183.077
20
-193
11
183.006
21
-192.929
0
LINE
8
BLACK
6
CONTINUOUS
10
183.006
20
-192.929
11
183.077
21
-192.857
0
LINE
8
BLACK
6
CONTINUOUS
10
183.077
20
-192.857
11
183.077
21
-193
0
LINE
8
BLACK
6
CONTINUOUS
10
184.863
20
-193.357
11
185.577
21
-193.357
0
LINE
8
BLACK
6
CONTINUOUS
10
184.72
20
-193.786
11
185.22
21
-192.286
0
LINE
8
BLACK
6
CONTINUOUS
10
185.22
20
-192.286
11
185.72
21
-193.786
0
LINE
8
BLACK
6
CONTINUOUS
10
186.863
20
-192.786
11
186.863
21
-193.786
0
LINE
8
BLACK
6
CONTINUOUS
10
186.506
20
-192.214
11
186.149
21
-193.286
0
LINE
8
BLACK
6
CONTINUOUS
10
186.149
20
-193.286
11
187.077
21
-193.286
0
LINE
8
BLACK
6
CONTINUOUS
10
263.434
20
-196.586
11
263.434
21
-195.086
0
LINE
8
BLACK
6
CONTINUOUS
10
264.791
20
-196.586
11
264.791
21
-195.086
0
LINE
8
BLACK
6
CONTINUOUS
10
264.791
20
-196.514
11
264.649
21
-196.586
0
LINE
8
BLACK
6
CONTINUOUS
10
264.649
20
-196.586
11
264.363
21
-196.586
0
LINE
8
BLACK
6
CONTINUOUS
10
264.363
20
-196.586
11
264.22
21
-196.514
0
LINE
8
BLACK
6
CONTINUOUS
10
264.22
20
-196.514
11
264.149
21
-196.443
0
LINE
8
BLACK
6
CONTINUOUS
10
264.149
20
-196.443
11
264.077
21
-196.3
0
LINE
8
BLACK
6
CONTINUOUS
10
264.077
20
-196.3
11
264.077
21
-195.871
0
LINE
8
BLACK
6
CONTINUOUS
10
264.077
20
-195.871
11
264.149
21
-195.729
0
LINE
8
BLACK
6
CONTINUOUS
10
264.149
20
-195.729
11
264.22
21
-195.657
0
LINE
8
BLACK
6
CONTINUOUS
10
264.22
20
-195.657
11
264.363
21
-195.586
0
LINE
8
BLACK
6
CONTINUOUS
10
264.363
20
-195.586
11
264.649
21
-195.586
0
LINE
8
BLACK
6
CONTINUOUS
10
264.649
20
-195.586
11
264.791
21
-195.657
0
LINE
8
BLACK
6
CONTINUOUS
10
265.506
20
-196.443
11
265.577
21
-196.514
0
LINE
8
BLACK
6
CONTINUOUS
10
265.577
20
-196.514
11
265.506
21
-196.586
0
LINE
8
BLACK
6
CONTINUOUS
10
265.506
20
-196.586
11
265.434
21
-196.514
0
LINE
8
BLACK
6
CONTINUOUS
10
265.434
20
-196.514
11
265.506
21
-196.443
0
LINE
8
BLACK
6
CONTINUOUS
10
265.506
20
-196.443
11
265.506
21
-196.586
0
LINE
8
BLACK
6
CONTINUOUS
10
265.506
20
-195.657
11
265.577
21
-195.729
0
LINE
8
BLACK
6
CONTINUOUS
10
265.577
20
-195.729
11
265.506
21
-195.8
0
LINE
8
BLACK
6
CONTINUOUS
10
265.506
20
-195.8
11
265.434
21
-195.729
0
LINE
8
BLACK
6
CONTINUOUS
10
265.434
20
-195.729
11
265.506
21
-195.657
0
LINE
8
BLACK
6
CONTINUOUS
10
265.506
20
-195.657
11
265.506
21
-195.8
0
LINE
8
BLACK
6
CONTINUOUS
10
268.149
20
-196.586
11
267.291
21
-196.586
0
LINE
8
BLACK
6
CONTINUOUS
10
267.72
20
-196.586
11
267.72
21
-195.086
0
LINE
8
BLACK
6
CONTINUOUS
10
267.72
20
-195.086
11
267.577
21
-195.3
0
LINE
8
BLACK
6
CONTINUOUS
10
267.577
20
-195.3
11
267.434
21
-195.443
0
LINE
8
BLACK
6
CONTINUOUS
10
267.434
20
-195.443
11
267.291
21
-195.514
0
LINE
8
BLACK
6
CONTINUOUS
10
269.863
20
-195.014
11
268.577
21
-196.943
0
LINE
8
BLACK
6
CONTINUOUS
10
271.149
20
-196.586
11
270.291
21
-196.586
0
LINE
8
BLACK
6
CONTINUOUS
10
270.72
20
-196.586
11
270.72
21
-195.086
0
LINE
8
BLACK
6
CONTINUOUS
10
270.72
20
-195.086
11
270.577
21
-195.3
0
LINE
8
BLACK
6
CONTINUOUS
10
270.577
20
-195.3
11
270.434
21
-195.443
0
LINE
8
BLACK
6
CONTINUOUS
10
270.434
20
-195.443
11
270.291
21
-195.514
0
LINE
8
BLACK
6
CONTINUOUS
10
177.002
20
-187.507
11
285.002
21
-187.507
0
LINE
8
BLACK
6
CONTINUOUS
10
178.715
20
-188.212
11
179.857
21
-188.212
0
LINE
8
BLACK
6
CONTINUOUS
10
179.036
20
-190.212
11
179.286
21
-188.212
0
LINE
8
BLACK
6
CONTINUOUS
10
180.274
20
-190.212
11
180.441
21
-188.879
0
LINE
8
BLACK
6
CONTINUOUS
10
180.524
20
-188.212
11
180.417
21
-188.307
0
LINE
8
BLACK
6
CONTINUOUS
10
180.417
20
-188.307
11
180.5
21
-188.402
0
LINE
8
BLACK
6
CONTINUOUS
10
180.5
20
-188.402
11
180.607
21
-188.307
0
LINE
8
BLACK
6
CONTINUOUS
10
180.607
20
-188.307
11
180.524
21
-188.212
0
LINE
8
BLACK
6
CONTINUOUS
10
180.524
20
-188.212
11
180.5
21
-188.402
0
LINE
8
BLACK
6
CONTINUOUS
10
181.107
20
-188.879
11
181.869
21
-188.879
0
LINE
8
BLACK
6
CONTINUOUS
10
181.476
20
-188.212
11
181.262
21
-189.926
0
LINE
8
BLACK
6
CONTINUOUS
10
181.262
20
-189.926
11
181.334
21
-190.117
0
LINE
8
BLACK
6
CONTINUOUS
10
181.334
20
-190.117
11
181.512
21
-190.212
0
LINE
8
BLACK
6
CONTINUOUS
10
181.512
20
-190.212
11
181.703
21
-190.212
0
LINE
8
BLACK
6
CONTINUOUS
10
182.655
20
-190.212
11
182.476
21
-190.117
0
LINE
8
BLACK
6
CONTINUOUS
10
182.476
20
-190.117
11
182.405
21
-189.926
0
LINE
8
BLACK
6
CONTINUOUS
10
182.405
20
-189.926
11
182.619
21
-188.212
0
LINE
8
BLACK
6
CONTINUOUS
10
184.191
20
-190.117
11
183.988
21
-190.212
0
LINE
8
BLACK
6
CONTINUOUS
10
183.988
20
-190.212
11
183.607
21
-190.212
0
LINE
8
BLACK
6
CONTINUOUS
10
183.607
20
-190.212
11
183.429
21
-190.117
0
LINE
8
BLACK
6
CONTINUOUS
10
183.429
20
-190.117
11
183.357
21
-189.926
0
LINE
8
BLACK
6
CONTINUOUS
10
183.357
20
-189.926
11
183.453
21
-189.164
0
LINE
8
BLACK
6
CONTINUOUS
10
183.453
20
-189.164
11
183.572
21
-188.974
0
LINE
8
BLACK
6
CONTINUOUS
10
183.572
20
-188.974
11
183.774
21
-188.879
0
LINE
8
BLACK
6
CONTINUOUS
10
183.774
20
-188.879
11
184.155
21
-188.879
0
LINE
8
BLACK
6
CONTINUOUS
10
184.155
20
-188.879
11
184.334
21
-188.974
0
LINE
8
BLACK
6
CONTINUOUS
10
184.334
20
-188.974
11
184.405
21
-189.164
0
LINE
8
BLACK
6
CONTINUOUS
10
184.405
20
-189.164
11
184.381
21
-189.355
0
LINE
8
BLACK
6
CONTINUOUS
10
184.381
20
-189.355
11
183.405
21
-189.545
0
LINE
8
BLACK
6
CONTINUOUS
10
185.155
20
-190.021
11
185.238
21
-190.117
0
LINE
8
BLACK
6
CONTINUOUS
10
185.238
20
-190.117
11
185.131
21
-190.212
0
LINE
8
BLACK
6
CONTINUOUS
10
185.131
20
-190.212
11
185.048
21
-190.117
0
LINE
8
BLACK
6
CONTINUOUS
10
185.048
20
-190.117
11
185.155
21
-190.021
0
LINE
8
BLACK
6
CONTINUOUS
10
185.155
20
-190.021
11
185.131
21
-190.212
0
LINE
8
BLACK
6
CONTINUOUS
10
185.286
20
-188.974
11
185.369
21
-189.069
0
LINE
8
BLACK
6
CONTINUOUS
10
185.369
20
-189.069
11
185.262
21
-189.164
0
LINE
8
BLACK
6
CONTINUOUS
10
185.262
20
-189.164
11
185.179
21
-189.069
0
LINE
8
BLACK
6
CONTINUOUS
10
185.179
20
-189.069
11
185.286
21
-188.974
0
LINE
8
BLACK
6
CONTINUOUS
10
185.286
20
-188.974
11
185.262
21
-189.164
0
LINE
8
BLACK
6
CONTINUOUS
10
187.524
20
-190.117
11
187.798
21
-190.212
0
LINE
8
BLACK
6
CONTINUOUS
10
187.798
20
-190.212
11
188.274
21
-190.212
0
LINE
8
BLACK
6
CONTINUOUS
10
188.274
20
-190.212
11
188.476
21
-190.117
0
LINE
8
BLACK
6
CONTINUOUS
10
188.476
20
-190.117
11
188.584
21
-190.021
0
LINE
8
BLACK
6
CONTINUOUS
10
188.584
20
-190.021
11
188.703
21
-189.831
0
LINE
8
BLACK
6
CONTINUOUS
10
188.703
20
-189.831
11
188.726
21
-189.641
0
LINE
8
BLACK
6
CONTINUOUS
10
188.726
20
-189.641
11
188.655
21
-189.45
0
LINE
8
BLACK
6
CONTINUOUS
10
188.655
20
-189.45
11
188.572
21
-189.355
0
LINE
8
BLACK
6
CONTINUOUS
10
188.572
20
-189.355
11
188.393
21
-189.26
0
LINE
8
BLACK
6
CONTINUOUS
10
188.393
20
-189.26
11
188.024
21
-189.164
0
LINE
8
BLACK
6
CONTINUOUS
10
188.024
20
-189.164
11
187.846
21
-189.069
0
LINE
8
BLACK
6
CONTINUOUS
10
187.846
20
-189.069
11
187.762
21
-188.974
0
LINE
8
BLACK
6
CONTINUOUS
10
187.762
20
-188.974
11
187.691
21
-188.783
0
LINE
8
BLACK
6
CONTINUOUS
10
187.691
20
-188.783
11
187.715
21
-188.593
0
LINE
8
BLACK
6
CONTINUOUS
10
187.715
20
-188.593
11
187.834
21
-188.402
0
LINE
8
BLACK
6
CONTINUOUS
10
187.834
20
-188.402
11
187.941
21
-188.307
0
LINE
8
BLACK
6
CONTINUOUS
10
187.941
20
-188.307
11
188.143
21
-188.212
0
LINE
8
BLACK
6
CONTINUOUS
10
188.143
20
-188.212
11
188.619
21
-188.212
0
LINE
8
BLACK
6
CONTINUOUS
10
188.619
20
-188.212
11
188.893
21
-188.307
0
LINE
8
BLACK
6
CONTINUOUS
10
189.572
20
-188.212
11
189.798
21
-190.212
0
LINE
8
BLACK
6
CONTINUOUS
10
189.798
20
-190.212
11
190.357
21
-188.783
0
LINE
8
BLACK
6
CONTINUOUS
10
190.357
20
-188.783
11
190.56
21
-190.212
0
LINE
8
BLACK
6
CONTINUOUS
10
190.56
20
-190.212
11
191.286
21
-188.212
0
LINE
8
BLACK
6
CONTINUOUS
10
191.893
20
-189.45
11
193.417
21
-189.45
0
LINE
8
BLACK
6
CONTINUOUS
10
194.274
20
-190.212
11
194.524
21
-188.212
0
LINE
8
BLACK
6
CONTINUOUS
10
194.524
20
-188.212
11
195.012
21
-189.641
0
LINE
8
BLACK
6
CONTINUOUS
10
195.012
20
-189.641
11
195.857
21
-188.212
0
LINE
8
BLACK
6
CONTINUOUS
10
195.857
20
-188.212
11
195.607
21
-190.212
0
LINE
8
BLACK
6
CONTINUOUS
10
197.334
20
-190.117
11
197.131
21
-190.212
0
LINE
8
BLACK
6
CONTINUOUS
10
197.131
20
-190.212
11
196.75
21
-190.212
0
LINE
8
BLACK
6
CONTINUOUS
10
196.75
20
-190.212
11
196.572
21
-190.117
0
LINE
8
BLACK
6
CONTINUOUS
10
196.572
20
-190.117
11
196.5
21
-189.926
0
LINE
8
BLACK
6
CONTINUOUS
10
196.5
20
-189.926
11
196.596
21
-189.164
0
LINE
8
BLACK
6
CONTINUOUS
10
196.596
20
-189.164
11
196.715
21
-188.974
0
LINE
8
BLACK
6
CONTINUOUS
10
196.715
20
-188.974
11
196.917
21
-188.879
0
LINE
8
BLACK
6
CONTINUOUS
10
196.917
20
-188.879
11
197.298
21
-188.879
0
LINE
8
BLACK
6
CONTINUOUS
10
197.298
20
-188.879
11
197.476
21
-188.974
0
LINE
8
BLACK
6
CONTINUOUS
10
197.476
20
-188.974
11
197.548
21
-189.164
0
LINE
8
BLACK
6
CONTINUOUS
10
197.548
20
-189.164
11
197.524
21
-189.355
0
LINE
8
BLACK
6
CONTINUOUS
10
197.524
20
-189.355
11
196.548
21
-189.545
0
LINE
8
BLACK
6
CONTINUOUS
10
198.155
20
-188.879
11
198.917
21
-188.879
0
LINE
8
BLACK
6
CONTINUOUS
10
198.524
20
-188.212
11
198.31
21
-189.926
0
LINE
8
BLACK
6
CONTINUOUS
10
198.31
20
-189.926
11
198.381
21
-190.117
0
LINE
8
BLACK
6
CONTINUOUS
10
198.381
20
-190.117
11
198.56
21
-190.212
0
LINE
8
BLACK
6
CONTINUOUS
10
198.56
20
-190.212
11
198.75
21
-190.212
0
LINE
8
BLACK
6
CONTINUOUS
10
200.191
20
-190.117
11
199.988
21
-190.212
0
LINE
8
BLACK
6
CONTINUOUS
10
199.988
20
-190.212
11
199.607
21
-190.212
0
LINE
8
BLACK
6
CONTINUOUS
10
199.607
20
-190.212
11
199.429
21
-190.117
0
LINE
8
BLACK
6
CONTINUOUS
10
199.429
20
-190.117
11
199.357
21
-189.926
0
LINE
8
BLACK
6
CONTINUOUS
10
199.357
20
-189.926
11
199.453
21
-189.164
0
LINE
8
BLACK
6
CONTINUOUS
10
199.453
20
-189.164
11
199.572
21
-188.974
0
LINE
8
BLACK
6
CONTINUOUS
10
199.572
20
-188.974
11
199.774
21
-188.879
0
LINE
8
BLACK
6
CONTINUOUS
10
199.774
20
-188.879
11
200.155
21
-188.879
0
LINE
8
BLACK
6
CONTINUOUS
10
200.155
20
-188.879
11
200.334
21
-188.974
0
LINE
8
BLACK
6
CONTINUOUS
10
200.334
20
-188.974
11
200.405
21
-189.164
0
LINE
8
BLACK
6
CONTINUOUS
10
200.405
20
-189.164
11
200.381
21
-189.355
0
LINE
8
BLACK
6
CONTINUOUS
10
200.381
20
-189.355
11
199.405
21
-189.545
0
LINE
8
BLACK
6
CONTINUOUS
10
201.131
20
-190.212
11
201.298
21
-188.879
0
LINE
8
BLACK
6
CONTINUOUS
10
201.25
20
-189.26
11
201.369
21
-189.069
0
LINE
8
BLACK
6
CONTINUOUS
10
201.369
20
-189.069
11
201.476
21
-188.974
0
LINE
8
BLACK
6
CONTINUOUS
10
201.476
20
-188.974
11
201.679
21
-188.879
0
LINE
8
BLACK
6
CONTINUOUS
10
201.679
20
-188.879
11
201.869
21
-188.879
0
LINE
8
BLACK
6
CONTINUOUS
10
178.934
20
-185.6
11
178.434
21
-185.6
0
LINE
8
BLACK
6
CONTINUOUS
10
178.434
20
-186.386
11
178.434
21
-184.886
0
LINE
8
BLACK
6
CONTINUOUS
10
178.434
20
-184.886
11
179.149
21
-184.886
0
LINE
8
BLACK
6
CONTINUOUS
10
179.72
20
-186.386
11
179.72
21
-185.386
0
LINE
8
BLACK
6
CONTINUOUS
10
179.72
20
-184.886
11
179.649
21
-184.957
0
LINE
8
BLACK
6
CONTINUOUS
10
179.649
20
-184.957
11
179.72
21
-185.029
0
LINE
8
BLACK
6
CONTINUOUS
10
179.72
20
-185.029
11
179.791
21
-184.957
0
LINE
8
BLACK
6
CONTINUOUS
10
179.791
20
-184.957
11
179.72
21
-184.886
0
LINE
8
BLACK
6
CONTINUOUS
10
179.72
20
-184.886
11
179.72
21
-185.029
0
LINE
8
BLACK
6
CONTINUOUS
10
180.649
20
-186.386
11
180.506
21
-186.314
0
LINE
8
BLACK
6
CONTINUOUS
10
180.506
20
-186.314
11
180.434
21
-186.171
0
LINE
8
BLACK
6
CONTINUOUS
10
180.434
20
-186.171
11
180.434
21
-184.886
0
LINE
8
BLACK
6
CONTINUOUS
10
181.791
20
-186.314
11
181.649
21
-186.386
0
LINE
8
BLACK
6
CONTINUOUS
10
181.649
20
-186.386
11
181.363
21
-186.386
0
LINE
8
BLACK
6
CONTINUOUS
10
181.363
20
-186.386
11
181.22
21
-186.314
0
LINE
8
BLACK
6
CONTINUOUS
10
181.22
20
-186.314
11
181.149
21
-186.171
0
LINE
8
BLACK
6
CONTINUOUS
10
181.149
20
-186.171
11
181.149
21
-185.6
0
LINE
8
BLACK
6
CONTINUOUS
10
181.149
20
-185.6
11
181.22
21
-185.457
0
LINE
8
BLACK
6
CONTINUOUS
10
181.22
20
-185.457
11
181.363
21
-185.386
0
LINE
8
BLACK
6
CONTINUOUS
10
181.363
20
-185.386
11
181.649
21
-185.386
0
LINE
8
BLACK
6
CONTINUOUS
10
181.649
20
-185.386
11
181.791
21
-185.457
0
LINE
8
BLACK
6
CONTINUOUS
10
181.791
20
-185.457
11
181.863
21
-185.6
0
LINE
8
BLACK
6
CONTINUOUS
10
181.863
20
-185.6
11
181.863
21
-185.743
0
LINE
8
BLACK
6
CONTINUOUS
10
181.863
20
-185.743
11
181.149
21
-185.886
0
LINE
8
BLACK
6
CONTINUOUS
10
182.506
20
-186.243
11
182.577
21
-186.314
0
LINE
8
BLACK
6
CONTINUOUS
10
182.577
20
-186.314
11
182.506
21
-186.386
0
LINE
8
BLACK
6
CONTINUOUS
10
182.506
20
-186.386
11
182.434
21
-186.314
0
LINE
8
BLACK
6
CONTINUOUS
10
182.434
20
-186.314
11
182.506
21
-186.243
0
LINE
8
BLACK
6
CONTINUOUS
10
182.506
20
-186.243
11
182.506
21
-186.386
0
LINE
8
BLACK
6
CONTINUOUS
10
182.506
20
-185.457
11
182.577
21
-185.529
0
LINE
8
BLACK
6
CONTINUOUS
10
182.577
20
-185.529
11
182.506
21
-185.6
0
LINE
8
BLACK
6
CONTINUOUS
10
182.506
20
-185.6
11
182.434
21
-185.529
0
LINE
8
BLACK
6
CONTINUOUS
10
182.434
20
-185.529
11
182.506
21
-185.457
0
LINE
8
BLACK
6
CONTINUOUS
10
182.506
20
-185.457
11
182.506
21
-185.6
0
LINE
8
BLACK
6
CONTINUOUS
10
184.291
20
-186.314
11
184.434
21
-186.386
0
LINE
8
BLACK
6
CONTINUOUS
10
184.434
20
-186.386
11
184.72
21
-186.386
0
LINE
8
BLACK
6
CONTINUOUS
10
184.72
20
-186.386
11
184.863
21
-186.314
0
LINE
8
BLACK
6
CONTINUOUS
10
184.863
20
-186.314
11
184.934
21
-186.171
0
LINE
8
BLACK
6
CONTINUOUS
10
184.934
20
-186.171
11
184.934
21
-186.1
0
LINE
8
BLACK
6
CONTINUOUS
10
184.934
20
-186.1
11
184.863
21
-185.957
0
LINE
8
BLACK
6
CONTINUOUS
10
184.863
20
-185.957
11
184.72
21
-185.886
0
LINE
8
BLACK
6
CONTINUOUS
10
184.72
20
-185.886
11
184.506
21
-185.886
0
LINE
8
BLACK
6
CONTINUOUS
10
184.506
20
-185.886
11
184.363
21
-185.814
0
LINE
8
BLACK
6
CONTINUOUS
10
184.363
20
-185.814
11
184.291
21
-185.671
0
LINE
8
BLACK
6
CONTINUOUS
10
184.291
20
-185.671
11
184.291
21
-185.6
0
LINE
8
BLACK
6
CONTINUOUS
10
184.291
20
-185.6
11
184.363
21
-185.457
0
LINE
8
BLACK
6
CONTINUOUS
10
184.363
20
-185.457
11
184.506
21
-185.386
0
LINE
8
BLACK
6
CONTINUOUS
10
184.506
20
-185.386
11
184.72
21
-185.386
0
LINE
8
BLACK
6
CONTINUOUS
10
184.72
20
-185.386
11
184.863
21
-185.457
0
LINE
8
BLACK
6
CONTINUOUS
10
185.434
20
-185.386
11
185.72
21
-186.386
0
LINE
8
BLACK
6
CONTINUOUS
10
185.72
20
-186.386
11
186.006
21
-185.671
0
LINE
8
BLACK
6
CONTINUOUS
10
186.006
20
-185.671
11
186.291
21
-186.386
0
LINE
8
BLACK
6
CONTINUOUS
10
186.291
20
-186.386
11
186.577
21
-185.386
0
LINE
8
BLACK
6
CONTINUOUS
10
187.149
20
-186.386
11
187.149
21
-185.386
0
LINE
8
BLACK
6
CONTINUOUS
10
187.149
20
-185.529
11
187.22
21
-185.457
0
LINE
8
BLACK
6
CONTINUOUS
10
187.22
20
-185.457
11
187.363
21
-185.386
0
LINE
8
BLACK
6
CONTINUOUS
10
187.363
20
-185.386
11
187.577
21
-185.386
0
LINE
8
BLACK
6
CONTINUOUS
10
187.577
20
-185.386
11
187.72
21
-185.457
0
LINE
8
BLACK
6
CONTINUOUS
10
187.72
20
-185.457
11
187.791
21
-185.6
0
LINE
8
BLACK
6
CONTINUOUS
10
187.791
20
-185.6
11
187.791
21
-186.386
0
LINE
8
BLACK
6
CONTINUOUS
10
187.791
20
-185.6
11
187.863
21
-185.457
0
LINE
8
BLACK
6
CONTINUOUS
10
187.863
20
-185.457
11
188.006
21
-185.386
0
LINE
8
BLACK
6
CONTINUOUS
10
188.006
20
-185.386
11
188.22
21
-185.386
0
LINE
8
BLACK
6
CONTINUOUS
10
188.22
20
-185.386
11
188.363
21
-185.457
0
LINE
8
BLACK
6
CONTINUOUS
10
188.363
20
-185.457
11
188.434
21
-185.6
0
LINE
8
BLACK
6
CONTINUOUS
10
188.434
20
-185.6
11
188.434
21
-186.386
0
LINE
8
BLACK
6
CONTINUOUS
10
189.72
20
-186.314
11
189.577
21
-186.386
0
LINE
8
BLACK
6
CONTINUOUS
10
189.577
20
-186.386
11
189.291
21
-186.386
0
LINE
8
BLACK
6
CONTINUOUS
10
189.291
20
-186.386
11
189.149
21
-186.314
0
LINE
8
BLACK
6
CONTINUOUS
10
189.149
20
-186.314
11
189.077
21
-186.171
0
LINE
8
BLACK
6
CONTINUOUS
10
189.077
20
-186.171
11
189.077
21
-185.6
0
LINE
8
BLACK
6
CONTINUOUS
10
189.077
20
-185.6
11
189.149
21
-185.457
0
LINE
8
BLACK
6
CONTINUOUS
10
189.149
20
-185.457
11
189.291
21
-185.386
0
LINE
8
BLACK
6
CONTINUOUS
10
189.291
20
-185.386
11
189.577
21
-185.386
0
LINE
8
BLACK
6
CONTINUOUS
10
189.577
20
-185.386
11
189.72
21
-185.457
0
LINE
8
BLACK
6
CONTINUOUS
10
189.72
20
-185.457
11
189.791
21
-185.6
0
LINE
8
BLACK
6
CONTINUOUS
10
189.791
20
-185.6
11
189.791
21
-185.743
0
LINE
8
BLACK
6
CONTINUOUS
10
189.791
20
-185.743
11
189.077
21
-185.886
0
LINE
8
BLACK
6
CONTINUOUS
10
190.22
20
-185.386
11
190.791
21
-185.386
0
LINE
8
BLACK
6
CONTINUOUS
10
190.434
20
-184.886
11
190.434
21
-186.171
0
LINE
8
BLACK
6
CONTINUOUS
10
190.434
20
-186.171
11
190.506
21
-186.314
0
LINE
8
BLACK
6
CONTINUOUS
10
190.506
20
-186.314
11
190.649
21
-186.386
0
LINE
8
BLACK
6
CONTINUOUS
10
190.649
20
-186.386
11
190.791
21
-186.386
0
LINE
8
BLACK
6
CONTINUOUS
10
191.863
20
-186.314
11
191.72
21
-186.386
0
LINE
8
BLACK
6
CONTINUOUS
10
191.72
20
-186.386
11
191.434
21
-186.386
0
LINE
8
BLACK
6
CONTINUOUS
10
191.434
20
-186.386
11
191.291
21
-186.314
0
LINE
8
BLACK
6
CONTINUOUS
10
191.291
20
-186.314
11
191.22
21
-186.171
0
LINE
8
BLACK
6
CONTINUOUS
10
191.22
20
-186.171
11
191.22
21
-185.6
0
LINE
8
BLACK
6
CONTINUOUS
10
191.22
20
-185.6
11
191.291
21
-185.457
0
LINE
8
BLACK
6
CONTINUOUS
10
191.291
20
-185.457
11
191.434
21
-185.386
0
LINE
8
BLACK
6
CONTINUOUS
10
191.434
20
-185.386
11
191.72
21
-185.386
0
LINE
8
BLACK
6
CONTINUOUS
10
191.72
20
-185.386
11
191.863
21
-185.457
0
LINE
8
BLACK
6
CONTINUOUS
10
191.863
20
-185.457
11
191.934
21
-185.6
0
LINE
8
BLACK
6
CONTINUOUS
10
191.934
20
-185.6
11
191.934
21
-185.743
0
LINE
8
BLACK
6
CONTINUOUS
10
191.934
20
-185.743
11
191.22
21
-185.886
0
LINE
8
BLACK
6
CONTINUOUS
10
192.577
20
-186.386
11
192.577
21
-185.386
0
LINE
8
BLACK
6
CONTINUOUS
10
192.577
20
-185.671
11
192.649
21
-185.529
0
LINE
8
BLACK
6
CONTINUOUS
10
192.649
20
-185.529
11
192.72
21
-185.457
0
LINE
8
BLACK
6
CONTINUOUS
10
192.72
20
-185.457
11
192.863
21
-185.386
0
LINE
8
BLACK
6
CONTINUOUS
10
192.863
20
-185.386
11
193.006
21
-185.386
0
LINE
8
BLACK
6
CONTINUOUS
10
193.506
20
-186.243
11
193.577
21
-186.314
0
LINE
8
BLACK
6
CONTINUOUS
10
193.577
20
-186.314
11
193.506
21
-186.386
0
LINE
8
BLACK
6
CONTINUOUS
10
193.506
20
-186.386
11
193.434
21
-186.314
0
LINE
8
BLACK
6
CONTINUOUS
10
193.434
20
-186.314
11
193.506
21
-186.243
0
LINE
8
BLACK
6
CONTINUOUS
10
193.506
20
-186.243
11
193.506
21
-186.386
0
LINE
8
BLACK
6
CONTINUOUS
10
194.22
20
-186.386
11
194.22
21
-184.886
0
LINE
8
BLACK
6
CONTINUOUS
10
194.363
20
-185.814
11
194.791
21
-186.386
0
LINE
8
BLACK
6
CONTINUOUS
10
194.791
20
-185.386
11
194.22
21
-185.957
0
LINE
8
BLACK
6
CONTINUOUS
10
195.434
20
-186.386
11
195.434
21
-185.386
0
LINE
8
BLACK
6
CONTINUOUS
10
195.434
20
-184.886
11
195.363
21
-184.957
0
LINE
8
BLACK
6
CONTINUOUS
10
195.363
20
-184.957
11
195.434
21
-185.029
0
LINE
8
BLACK
6
CONTINUOUS
10
195.434
20
-185.029
11
195.506
21
-184.957
0
LINE
8
BLACK
6
CONTINUOUS
10
195.506
20
-184.957
11
195.434
21
-184.886
0
LINE
8
BLACK
6
CONTINUOUS
10
195.434
20
-184.886
11
195.434
21
-185.029
0
LINE
8
BLACK
6
CONTINUOUS
10
196.791
20
-186.314
11
196.649
21
-186.386
0
LINE
8
BLACK
6
CONTINUOUS
10
196.649
20
-186.386
11
196.363
21
-186.386
0
LINE
8
BLACK
6
CONTINUOUS
10
196.363
20
-186.386
11
196.22
21
-186.314
0
LINE
8
BLACK
6
CONTINUOUS
10
196.22
20
-186.314
11
196.149
21
-186.243
0
LINE
8
BLACK
6
CONTINUOUS
10
196.149
20
-186.243
11
196.077
21
-186.1
0
LINE
8
BLACK
6
CONTINUOUS
10
196.077
20
-186.1
11
196.077
21
-185.671
0
LINE
8
BLACK
6
CONTINUOUS
10
196.077
20
-185.671
11
196.149
21
-185.529
0
LINE
8
BLACK
6
CONTINUOUS
10
196.149
20
-185.529
11
196.22
21
-185.457
0
LINE
8
BLACK
6
CONTINUOUS
10
196.22
20
-185.457
11
196.363
21
-185.386
0
LINE
8
BLACK
6
CONTINUOUS
10
196.363
20
-185.386
11
196.649
21
-185.386
0
LINE
8
BLACK
6
CONTINUOUS
10
196.649
20
-185.386
11
196.791
21
-185.457
0
LINE
8
BLACK
6
CONTINUOUS
10
198.077
20
-186.386
11
198.077
21
-185.6
0
LINE
8
BLACK
6
CONTINUOUS
10
198.077
20
-185.6
11
198.006
21
-185.457
0
LINE
8
BLACK
6
CONTINUOUS
10
198.006
20
-185.457
11
197.863
21
-185.386
0
LINE
8
BLACK
6
CONTINUOUS
10
197.863
20
-185.386
11
197.577
21
-185.386
0
LINE
8
BLACK
6
CONTINUOUS
10
197.577
20
-185.386
11
197.434
21
-185.457
0
LINE
8
BLACK
6
CONTINUOUS
10
198.077
20
-186.314
11
197.934
21
-186.386
0
LINE
8
BLACK
6
CONTINUOUS
10
197.934
20
-186.386
11
197.577
21
-186.386
0
LINE
8
BLACK
6
CONTINUOUS
10
197.577
20
-186.386
11
197.434
21
-186.314
0
LINE
8
BLACK
6
CONTINUOUS
10
197.434
20
-186.314
11
197.363
21
-186.171
0
LINE
8
BLACK
6
CONTINUOUS
10
197.363
20
-186.171
11
197.363
21
-186.029
0
LINE
8
BLACK
6
CONTINUOUS
10
197.363
20
-186.029
11
197.434
21
-185.886
0
LINE
8
BLACK
6
CONTINUOUS
10
197.434
20
-185.886
11
197.577
21
-185.814
0
LINE
8
BLACK
6
CONTINUOUS
10
197.577
20
-185.814
11
197.934
21
-185.814
0
LINE
8
BLACK
6
CONTINUOUS
10
197.934
20
-185.814
11
198.077
21
-185.743
0
LINE
8
BLACK
6
CONTINUOUS
10
199.434
20
-186.386
11
199.434
21
-184.886
0
LINE
8
BLACK
6
CONTINUOUS
10
199.434
20
-186.314
11
199.291
21
-186.386
0
LINE
8
BLACK
6
CONTINUOUS
10
199.291
20
-186.386
11
199.006
21
-186.386
0
LINE
8
BLACK
6
CONTINUOUS
10
199.006
20
-186.386
11
198.863
21
-186.314
0
LINE
8
BLACK
6
CONTINUOUS
10
198.863
20
-186.314
11
198.791
21
-186.243
0
LINE
8
BLACK
6
CONTINUOUS
10
198.791
20
-186.243
11
198.72
21
-186.1
0
LINE
8
BLACK
6
CONTINUOUS
10
198.72
20
-186.1
11
198.72
21
-185.671
0
LINE
8
BLACK
6
CONTINUOUS
10
198.72
20
-185.671
11
198.791
21
-185.529
0
LINE
8
BLACK
6
CONTINUOUS
10
198.791
20
-185.529
11
198.863
21
-185.457
0
LINE
8
BLACK
6
CONTINUOUS
10
198.863
20
-185.457
11
199.006
21
-185.386
0
LINE
8
BLACK
6
CONTINUOUS
10
199.006
20
-185.386
11
199.291
21
-185.386
0
LINE
8
BLACK
6
CONTINUOUS
10
199.291
20
-185.386
11
199.434
21
-185.457
0
LINE
8
BLACK
6
CONTINUOUS
10
199.791
20
-186.529
11
200.934
21
-186.529
0
LINE
8
BLACK
6
CONTINUOUS
10
201.291
20
-185.386
11
201.291
21
-186.886
0
LINE
8
BLACK
6
CONTINUOUS
10
201.291
20
-185.457
11
201.434
21
-185.386
0
LINE
8
BLACK
6
CONTINUOUS
10
201.434
20
-185.386
11
201.72
21
-185.386
0
LINE
8
BLACK
6
CONTINUOUS
10
201.72
20
-185.386
11
201.863
21
-185.457
0
LINE
8
BLACK
6
CONTINUOUS
10
201.863
20
-185.457
11
201.934
21
-185.529
0
LINE
8
BLACK
6
CONTINUOUS
10
201.934
20
-185.529
11
202.006
21
-185.671
0
LINE
8
BLACK
6
CONTINUOUS
10
202.006
20
-185.671
11
202.006
21
-186.1
0
LINE
8
BLACK
6
CONTINUOUS
10
202.006
20
-186.1
11
201.934
21
-186.243
0
LINE
8
BLACK
6
CONTINUOUS
10
201.934
20
-186.243
11
201.863
21
-186.314
0
LINE
8
BLACK
6
CONTINUOUS
10
201.863
20
-186.314
11
201.72
21
-186.386
0
LINE
8
BLACK
6
CONTINUOUS
10
201.72
20
-186.386
11
201.434
21
-186.386
0
LINE
8
BLACK
6
CONTINUOUS
10
201.434
20
-186.386
11
201.291
21
-186.314
0
LINE
8
BLACK
6
CONTINUOUS
10
203.291
20
-186.314
11
203.149
21
-186.386
0
LINE
8
BLACK
6
CONTINUOUS
10
203.149
20
-186.386
11
202.863
21
-186.386
0
LINE
8
BLACK
6
CONTINUOUS
10
202.863
20
-186.386
11
202.72
21
-186.314
0
LINE
8
BLACK
6
CONTINUOUS
10
202.72
20
-186.314
11
202.649
21
-186.243
0
LINE
8
BLACK
6
CONTINUOUS
10
202.649
20
-186.243
11
202.577
21
-186.1
0
LINE
8
BLACK
6
CONTINUOUS
10
202.577
20
-186.1
11
202.577
21
-185.671
0
LINE
8
BLACK
6
CONTINUOUS
10
202.577
20
-185.671
11
202.649
21
-185.529
0
LINE
8
BLACK
6
CONTINUOUS
10
202.649
20
-185.529
11
202.72
21
-185.457
0
LINE
8
BLACK
6
CONTINUOUS
10
202.72
20
-185.457
11
202.863
21
-185.386
0
LINE
8
BLACK
6
CONTINUOUS
10
202.863
20
-185.386
11
203.149
21
-185.386
0
LINE
8
BLACK
6
CONTINUOUS
10
203.149
20
-185.386
11
203.291
21
-185.457
0
LINE
8
BLACK
6
CONTINUOUS
10
203.934
20
-186.386
11
203.934
21
-184.886
0
LINE
8
BLACK
6
CONTINUOUS
10
203.934
20
-185.457
11
204.077
21
-185.386
0
LINE
8
BLACK
6
CONTINUOUS
10
204.077
20
-185.386
11
204.363
21
-185.386
0
LINE
8
BLACK
6
CONTINUOUS
10
204.363
20
-185.386
11
204.506
21
-185.457
0
LINE
8
BLACK
6
CONTINUOUS
10
204.506
20
-185.457
11
204.577
21
-185.529
0
LINE
8
BLACK
6
CONTINUOUS
10
204.577
20
-185.529
11
204.649
21
-185.671
0
LINE
8
BLACK
6
CONTINUOUS
10
204.649
20
-185.671
11
204.649
21
-186.1
0
LINE
8
BLACK
6
CONTINUOUS
10
204.649
20
-186.1
11
204.577
21
-186.243
0
LINE
8
BLACK
6
CONTINUOUS
10
204.577
20
-186.243
11
204.506
21
-186.314
0
LINE
8
BLACK
6
CONTINUOUS
10
204.506
20
-186.314
11
204.363
21
-186.386
0
LINE
8
BLACK
6
CONTINUOUS
10
204.363
20
-186.386
11
204.077
21
-186.386
0
LINE
8
BLACK
6
CONTINUOUS
10
204.077
20
-186.386
11
203.934
21
-186.314
0
LINE
8
BLACK
6
CONTINUOUS
10
177.002
20
-181.507
11
285.002
21
-181.507
0
LINE
8
BLACK
6
CONTINUOUS
10
178.363
20
-183.614
11
178.577
21
-183.686
0
LINE
8
BLACK
6
CONTINUOUS
10
178.577
20
-183.686
11
178.934
21
-183.686
0
LINE
8
BLACK
6
CONTINUOUS
10
178.934
20
-183.686
11
179.077
21
-183.614
0
LINE
8
BLACK
6
CONTINUOUS
10
179.077
20
-183.614
11
179.149
21
-183.543
0
LINE
8
BLACK
6
CONTINUOUS
10
179.149
20
-183.543
11
179.22
21
-183.4
0
LINE
8
BLACK
6
CONTINUOUS
10
179.22
20
-183.4
11
179.22
21
-183.257
0
LINE
8
BLACK
6
CONTINUOUS
10
179.22
20
-183.257
11
179.149
21
-183.114
0
LINE
8
BLACK
6
CONTINUOUS
10
179.149
20
-183.114
11
179.077
21
-183.043
0
LINE
8
BLACK
6
CONTINUOUS
10
179.077
20
-183.043
11
178.934
21
-182.971
0
LINE
8
BLACK
6
CONTINUOUS
10
178.934
20
-182.971
11
178.649
21
-182.9
0
LINE
8
BLACK
6
CONTINUOUS
10
178.649
20
-182.9
11
178.506
21
-182.829
0
LINE
8
BLACK
6
CONTINUOUS
10
178.506
20
-182.829
11
178.434
21
-182.757
0
LINE
8
BLACK
6
CONTINUOUS
10
178.434
20
-182.757
11
178.363
21
-182.614
0
LINE
8
BLACK
6
CONTINUOUS
10
178.363
20
-182.614
11
178.363
21
-182.471
0
LINE
8
BLACK
6
CONTINUOUS
10
178.363
20
-182.471
11
178.434
21
-182.329
0
LINE
8
BLACK
6
CONTINUOUS
10
178.434
20
-182.329
11
178.506
21
-182.257
0
LINE
8
BLACK
6
CONTINUOUS
10
178.506
20
-182.257
11
178.649
21
-182.186
0
LINE
8
BLACK
6
CONTINUOUS
10
178.649
20
-182.186
11
179.006
21
-182.186
0
LINE
8
BLACK
6
CONTINUOUS
10
179.006
20
-182.186
11
179.22
21
-182.257
0
LINE
8
BLACK
6
CONTINUOUS
10
179.863
20
-183.686
11
179.863
21
-182.186
0
LINE
8
BLACK
6
CONTINUOUS
10
180.506
20
-183.686
11
180.506
21
-182.9
0
LINE
8
BLACK
6
CONTINUOUS
10
180.506
20
-182.9
11
180.434
21
-182.757
0
LINE
8
BLACK
6
CONTINUOUS
10
180.434
20
-182.757
11
180.291
21
-182.686
0
LINE
8
BLACK
6
CONTINUOUS
10
180.291
20
-182.686
11
180.077
21
-182.686
0
LINE
8
BLACK
6
CONTINUOUS
10
180.077
20
-182.686
11
179.934
21
-182.757
0
LINE
8
BLACK
6
CONTINUOUS
10
179.934
20
-182.757
11
179.863
21
-182.829
0
LINE
8
BLACK
6
CONTINUOUS
10
181.791
20
-183.614
11
181.649
21
-183.686
0
LINE
8
BLACK
6
CONTINUOUS
10
181.649
20
-183.686
11
181.363
21
-183.686
0
LINE
8
BLACK
6
CONTINUOUS
10
181.363
20
-183.686
11
181.22
21
-183.614
0
LINE
8
BLACK
6
CONTINUOUS
10
181.22
20
-183.614
11
181.149
21
-183.471
0
LINE
8
BLACK
6
CONTINUOUS
10
181.149
20
-183.471
11
181.149
21
-182.9
0
LINE
8
BLACK
6
CONTINUOUS
10
181.149
20
-182.9
11
181.22
21
-182.757
0
LINE
8
BLACK
6
CONTINUOUS
10
181.22
20
-182.757
11
181.363
21
-182.686
0
LINE
8
BLACK
6
CONTINUOUS
10
181.363
20
-182.686
11
181.649
21
-182.686
0
LINE
8
BLACK
6
CONTINUOUS
10
181.649
20
-182.686
11
181.791
21
-182.757
0
LINE
8
BLACK
6
CONTINUOUS
10
181.791
20
-182.757
11
181.863
21
-182.9
0
LINE
8
BLACK
6
CONTINUOUS
10
181.863
20
-182.9
11
181.863
21
-183.043
0
LINE
8
BLACK
6
CONTINUOUS
10
181.863
20
-183.043
11
181.149
21
-183.186
0
LINE
8
BLACK
6
CONTINUOUS
10
183.077
20
-183.614
11
182.934
21
-183.686
0
LINE
8
BLACK
6
CONTINUOUS
10
182.934
20
-183.686
11
182.649
21
-183.686
0
LINE
8
BLACK
6
CONTINUOUS
10
182.649
20
-183.686
11
182.506
21
-183.614
0
LINE
8
BLACK
6
CONTINUOUS
10
182.506
20
-183.614
11
182.434
21
-183.471
0
LINE
8
BLACK
6
CONTINUOUS
10
182.434
20
-183.471
11
182.434
21
-182.9
0
LINE
8
BLACK
6
CONTINUOUS
10
182.434
20
-182.9
11
182.506
21
-182.757
0
LINE
8
BLACK
6
CONTINUOUS
10
182.506
20
-182.757
11
182.649
21
-182.686
0
LINE
8
BLACK
6
CONTINUOUS
10
182.649
20
-182.686
11
182.934
21
-182.686
0
LINE
8
BLACK
6
CONTINUOUS
10
182.934
20
-182.686
11
183.077
21
-182.757
0
LINE
8
BLACK
6
CONTINUOUS
10
183.077
20
-182.757
11
183.149
21
-182.9
0
LINE
8
BLACK
6
CONTINUOUS
10
183.149
20
-182.9
11
183.149
21
-183.043
0
LINE
8
BLACK
6
CONTINUOUS
10
183.149
20
-183.043
11
182.434
21
-183.186
0
LINE
8
BLACK
6
CONTINUOUS
10
183.577
20
-182.686
11
184.149
21
-182.686
0
LINE
8
BLACK
6
CONTINUOUS
10
183.791
20
-182.186
11
183.791
21
-183.471
0
LINE
8
BLACK
6
CONTINUOUS
10
183.791
20
-183.471
11
183.863
21
-183.614
0
LINE
8
BLACK
6
CONTINUOUS
10
183.863
20
-183.614
11
184.006
21
-183.686
0
LINE
8
BLACK
6
CONTINUOUS
10
184.006
20
-183.686
11
184.149
21
-183.686
0
LINE
8
BLACK
6
CONTINUOUS
10
184.649
20
-183.543
11
184.72
21
-183.614
0
LINE
8
BLACK
6
CONTINUOUS
10
184.72
20
-183.614
11
184.649
21
-183.686
0
LINE
8
BLACK
6
CONTINUOUS
10
184.649
20
-183.686
11
184.577
21
-183.614
0
LINE
8
BLACK
6
CONTINUOUS
10
184.577
20
-183.614
11
184.649
21
-183.543
0
LINE
8
BLACK
6
CONTINUOUS
10
184.649
20
-183.543
11
184.649
21
-183.686
0
LINE
8
BLACK
6
CONTINUOUS
10
184.649
20
-182.757
11
184.72
21
-182.829
0
LINE
8
BLACK
6
CONTINUOUS
10
184.72
20
-182.829
11
184.649
21
-182.9
0
LINE
8
BLACK
6
CONTINUOUS
10
184.649
20
-182.9
11
184.577
21
-182.829
0
LINE
8
BLACK
6
CONTINUOUS
10
184.577
20
-182.829
11
184.649
21
-182.757
0
LINE
8
BLACK
6
CONTINUOUS
10
184.649
20
-182.757
11
184.649
21
-182.9
0
LINE
8
BLACK
6
CONTINUOUS
10
179.769
20
-179.543
11
179.626
21
-179.471
0
LINE
8
BLACK
6
CONTINUOUS
10
179.626
20
-179.471
11
179.34
21
-179.471
0
LINE
8
BLACK
6
CONTINUOUS
10
179.34
20
-179.471
11
179.197
21
-179.543
0
LINE
8
BLACK
6
CONTINUOUS
10
179.197
20
-179.543
11
179.054
21
-179.686
0
LINE
8
BLACK
6
CONTINUOUS
10
179.054
20
-179.686
11
178.983
21
-179.829
0
LINE
8
BLACK
6
CONTINUOUS
10
178.983
20
-179.829
11
178.983
21
-180.114
0
LINE
8
BLACK
6
CONTINUOUS
10
178.983
20
-180.114
11
179.054
21
-180.257
0
LINE
8
BLACK
6
CONTINUOUS
10
179.054
20
-180.257
11
179.197
21
-180.4
0
LINE
8
BLACK
6
CONTINUOUS
10
179.197
20
-180.4
11
179.34
21
-180.471
0
LINE
8
BLACK
6
CONTINUOUS
10
179.34
20
-180.471
11
179.626
21
-180.471
0
LINE
8
BLACK
6
CONTINUOUS
10
179.626
20
-180.471
11
179.769
21
-180.4
0
LINE
8
BLACK
6
CONTINUOUS
10
179.483
20
-178.971
11
179.126
21
-179.043
0
LINE
8
BLACK
6
CONTINUOUS
10
179.126
20
-179.043
11
178.769
21
-179.257
0
LINE
8
BLACK
6
CONTINUOUS
10
178.769
20
-179.257
11
178.554
21
-179.614
0
LINE
8
BLACK
6
CONTINUOUS
10
178.554
20
-179.614
11
178.483
21
-179.971
0
LINE
8
BLACK
6
CONTINUOUS
10
178.483
20
-179.971
11
178.554
21
-180.329
0
LINE
8
BLACK
6
CONTINUOUS
10
178.554
20
-180.329
11
178.769
21
-180.686
0
LINE
8
BLACK
6
CONTINUOUS
10
178.769
20
-180.686
11
179.126
21
-180.9
0
LINE
8
BLACK
6
CONTINUOUS
10
179.126
20
-180.9
11
179.483
21
-180.971
0
LINE
8
BLACK
6
CONTINUOUS
10
179.483
20
-180.971
11
179.84
21
-180.9
0
LINE
8
BLACK
6
CONTINUOUS
10
179.84
20
-180.9
11
180.197
21
-180.686
0
LINE
8
BLACK
6
CONTINUOUS
10
180.197
20
-180.686
11
180.411
21
-180.329
0
LINE
8
BLACK
6
CONTINUOUS
10
180.411
20
-180.329
11
180.483
21
-179.971
0
LINE
8
BLACK
6
CONTINUOUS
10
180.483
20
-179.971
11
180.411
21
-179.614
0
LINE
8
BLACK
6
CONTINUOUS
10
180.411
20
-179.614
11
180.197
21
-179.257
0
LINE
8
BLACK
6
CONTINUOUS
10
180.197
20
-179.257
11
179.84
21
-179.043
0
LINE
8
BLACK
6
CONTINUOUS
10
179.84
20
-179.043
11
179.483
21
-178.971
0
LINE
8
BLACK
6
CONTINUOUS
10
182.126
20
-179.186
11
182.483
21
-180.686
0
LINE
8
BLACK
6
CONTINUOUS
10
182.483
20
-180.686
11
182.769
21
-179.614
0
LINE
8
BLACK
6
CONTINUOUS
10
182.769
20
-179.614
11
183.054
21
-180.686
0
LINE
8
BLACK
6
CONTINUOUS
10
183.054
20
-180.686
11
183.411
21
-179.186
0
LINE
8
BLACK
6
CONTINUOUS
10
184.197
20
-180.686
11
184.054
21
-180.614
0
LINE
8
BLACK
6
CONTINUOUS
10
184.054
20
-180.614
11
183.983
21
-180.543
0
LINE
8
BLACK
6
CONTINUOUS
10
183.983
20
-180.543
11
183.911
21
-180.4
0
LINE
8
BLACK
6
CONTINUOUS
10
183.911
20
-180.4
11
183.911
21
-179.971
0
LINE
8
BLACK
6
CONTINUOUS
10
183.911
20
-179.971
11
183.983
21
-179.829
0
LINE
8
BLACK
6
CONTINUOUS
10
183.983
20
-179.829
11
184.054
21
-179.757
0
LINE
8
BLACK
6
CONTINUOUS
10
184.054
20
-179.757
11
184.197
21
-179.686
0
LINE
8
BLACK
6
CONTINUOUS
10
184.197
20
-179.686
11
184.411
21
-179.686
0
LINE
8
BLACK
6
CONTINUOUS
10
184.411
20
-179.686
11
184.554
21
-179.757
0
LINE
8
BLACK
6
CONTINUOUS
10
184.554
20
-179.757
11
184.626
21
-179.829
0
LINE
8
BLACK
6
CONTINUOUS
10
184.626
20
-179.829
11
184.697
21
-179.971
0
LINE
8
BLACK
6
CONTINUOUS
10
184.697
20
-179.971
11
184.697
21
-180.4
0
LINE
8
BLACK
6
CONTINUOUS
10
184.697
20
-180.4
11
184.626
21
-180.543
0
LINE
8
BLACK
6
CONTINUOUS
10
184.626
20
-180.543
11
184.554
21
-180.614
0
LINE
8
BLACK
6
CONTINUOUS
10
184.554
20
-180.614
11
184.411
21
-180.686
0
LINE
8
BLACK
6
CONTINUOUS
10
184.411
20
-180.686
11
184.197
21
-180.686
0
LINE
8
BLACK
6
CONTINUOUS
10
185.983
20
-180.686
11
185.983
21
-179.186
0
LINE
8
BLACK
6
CONTINUOUS
10
185.983
20
-180.614
11
185.84
21
-180.686
0
LINE
8
BLACK
6
CONTINUOUS
10
185.84
20
-180.686
11
185.554
21
-180.686
0
LINE
8
BLACK
6
CONTINUOUS
10
185.554
20
-180.686
11
185.411
21
-180.614
0
LINE
8
BLACK
6
CONTINUOUS
10
185.411
20
-180.614
11
185.34
21
-180.543
0
LINE
8
BLACK
6
CONTINUOUS
10
185.34
20
-180.543
11
185.269
21
-180.4
0
LINE
8
BLACK
6
CONTINUOUS
10
185.269
20
-180.4
11
185.269
21
-179.971
0
LINE
8
BLACK
6
CONTINUOUS
10
185.269
20
-179.971
11
185.34
21
-179.829
0
LINE
8
BLACK
6
CONTINUOUS
10
185.34
20
-179.829
11
185.411
21
-179.757
0
LINE
8
BLACK
6
CONTINUOUS
10
185.411
20
-179.757
11
185.554
21
-179.686
0
LINE
8
BLACK
6
CONTINUOUS
10
185.554
20
-179.686
11
185.84
21
-179.686
0
LINE
8
BLACK
6
CONTINUOUS
10
185.84
20
-179.686
11
185.983
21
-179.757
0
LINE
8
BLACK
6
CONTINUOUS
10
186.911
20
-180.686
11
186.769
21
-180.614
0
LINE
8
BLACK
6
CONTINUOUS
10
186.769
20
-180.614
11
186.697
21
-180.543
0
LINE
8
BLACK
6
CONTINUOUS
10
186.697
20
-180.543
11
186.626
21
-180.4
0
LINE
8
BLACK
6
CONTINUOUS
10
186.626
20
-180.4
11
186.626
21
-179.971
0
LINE
8
BLACK
6
CONTINUOUS
10
186.626
20
-179.971
11
186.697
21
-179.829
0
LINE
8
BLACK
6
CONTINUOUS
10
186.697
20
-179.829
11
186.769
21
-179.757
0
LINE
8
BLACK
6
CONTINUOUS
10
186.769
20
-179.757
11
186.911
21
-179.686
0
LINE
8
BLACK
6
CONTINUOUS
10
186.911
20
-179.686
11
187.126
21
-179.686
0
LINE
8
BLACK
6
CONTINUOUS
10
187.126
20
-179.686
11
187.269
21
-179.757
0
LINE
8
BLACK
6
CONTINUOUS
10
187.269
20
-179.757
11
187.34
21
-179.829
0
LINE
8
BLACK
6
CONTINUOUS
10
187.34
20
-179.829
11
187.411
21
-179.971
0
LINE
8
BLACK
6
CONTINUOUS
10
187.411
20
-179.971
11
187.411
21
-180.4
0
LINE
8
BLACK
6
CONTINUOUS
10
187.411
20
-180.4
11
187.34
21
-180.543
0
LINE
8
BLACK
6
CONTINUOUS
10
187.34
20
-180.543
11
187.269
21
-180.614
0
LINE
8
BLACK
6
CONTINUOUS
10
187.269
20
-180.614
11
187.126
21
-180.686
0
LINE
8
BLACK
6
CONTINUOUS
10
187.126
20
-180.686
11
186.911
21
-180.686
0
LINE
8
BLACK
6
CONTINUOUS
10
187.911
20
-179.186
11
188.269
21
-180.686
0
LINE
8
BLACK
6
CONTINUOUS
10
188.269
20
-180.686
11
188.554
21
-179.614
0
LINE
8
BLACK
6
CONTINUOUS
10
188.554
20
-179.614
11
188.84
21
-180.686
0
LINE
8
BLACK
6
CONTINUOUS
10
188.84
20
-180.686
11
189.197
21
-179.186
0
LINE
8
BLACK
6
CONTINUOUS
10
189.769
20
-180.686
11
189.769
21
-179.686
0
LINE
8
BLACK
6
CONTINUOUS
10
189.769
20
-179.186
11
189.697
21
-179.257
0
LINE
8
BLACK
6
CONTINUOUS
10
189.697
20
-179.257
11
189.769
21
-179.329
0
LINE
8
BLACK
6
CONTINUOUS
10
189.769
20
-179.329
11
189.84
21
-179.257
0
LINE
8
BLACK
6
CONTINUOUS
10
189.84
20
-179.257
11
189.769
21
-179.186
0
LINE
8
BLACK
6
CONTINUOUS
10
189.769
20
-179.186
11
189.769
21
-179.329
0
LINE
8
BLACK
6
CONTINUOUS
10
191.054
20
-180.614
11
190.911
21
-180.686
0
LINE
8
BLACK
6
CONTINUOUS
10
190.911
20
-180.686
11
190.626
21
-180.686
0
LINE
8
BLACK
6
CONTINUOUS
10
190.626
20
-180.686
11
190.483
21
-180.614
0
LINE
8
BLACK
6
CONTINUOUS
10
190.483
20
-180.614
11
190.411
21
-180.471
0
LINE
8
BLACK
6
CONTINUOUS
10
190.411
20
-180.471
11
190.411
21
-179.9
0
LINE
8
BLACK
6
CONTINUOUS
10
190.411
20
-179.9
11
190.483
21
-179.757
0
LINE
8
BLACK
6
CONTINUOUS
10
190.483
20
-179.757
11
190.626
21
-179.686
0
LINE
8
BLACK
6
CONTINUOUS
10
190.626
20
-179.686
11
190.911
21
-179.686
0
LINE
8
BLACK
6
CONTINUOUS
10
190.911
20
-179.686
11
191.054
21
-179.757
0
LINE
8
BLACK
6
CONTINUOUS
10
191.054
20
-179.757
11
191.126
21
-179.9
0
LINE
8
BLACK
6
CONTINUOUS
10
191.126
20
-179.9
11
191.126
21
-180.043
0
LINE
8
BLACK
6
CONTINUOUS
10
191.126
20
-180.043
11
190.411
21
-180.186
0
LINE
8
BLACK
6
CONTINUOUS
10
191.697
20
-180.614
11
191.84
21
-180.686
0
LINE
8
BLACK
6
CONTINUOUS
10
191.84
20
-180.686
11
192.126
21
-180.686
0
LINE
8
BLACK
6
CONTINUOUS
10
192.126
20
-180.686
11
192.269
21
-180.614
0
LINE
8
BLACK
6
CONTINUOUS
10
192.269
20
-180.614
11
192.34
21
-180.471
0
LINE
8
BLACK
6
CONTINUOUS
10
192.34
20
-180.471
11
192.34
21
-180.4
0
LINE
8
BLACK
6
CONTINUOUS
10
192.34
20
-180.4
11
192.269
21
-180.257
0
LINE
8
BLACK
6
CONTINUOUS
10
192.269
20
-180.257
11
192.126
21
-180.186
0
LINE
8
BLACK
6
CONTINUOUS
10
192.126
20
-180.186
11
191.911
21
-180.186
0
LINE
8
BLACK
6
CONTINUOUS
10
191.911
20
-180.186
11
191.769
21
-180.114
0
LINE
8
BLACK
6
CONTINUOUS
10
191.769
20
-180.114
11
191.697
21
-179.971
0
LINE
8
BLACK
6
CONTINUOUS
10
191.697
20
-179.971
11
191.697
21
-179.9
0
LINE
8
BLACK
6
CONTINUOUS
10
191.697
20
-179.9
11
191.769
21
-179.757
0
LINE
8
BLACK
6
CONTINUOUS
10
191.769
20
-179.757
11
191.911
21
-179.686
0
LINE
8
BLACK
6
CONTINUOUS
10
191.911
20
-179.686
11
192.126
21
-179.686
0
LINE
8
BLACK
6
CONTINUOUS
10
192.126
20
-179.686
11
192.269
21
-179.757
0
LINE
8
BLACK
6
CONTINUOUS
10
193.554
20
-180.614
11
193.411
21
-180.686
0
LINE
8
BLACK
6
CONTINUOUS
10
193.411
20
-180.686
11
193.126
21
-180.686
0
LINE
8
BLACK
6
CONTINUOUS
10
193.126
20
-180.686
11
192.983
21
-180.614
0
LINE
8
BLACK
6
CONTINUOUS
10
192.983
20
-180.614
11
192.911
21
-180.471
0
LINE
8
BLACK
6
CONTINUOUS
10
192.911
20
-180.471
11
192.911
21
-179.9
0
LINE
8
BLACK
6
CONTINUOUS
10
192.911
20
-179.9
11
192.983
21
-179.757
0
LINE
8
BLACK
6
CONTINUOUS
10
192.983
20
-179.757
11
193.126
21
-179.686
0
LINE
8
BLACK
6
CONTINUOUS
10
193.126
20
-179.686
11
193.411
21
-179.686
0
LINE
8
BLACK
6
CONTINUOUS
10
193.411
20
-179.686
11
193.554
21
-179.757
0
LINE
8
BLACK
6
CONTINUOUS
10
193.554
20
-179.757
11
193.626
21
-179.9
0
LINE
8
BLACK
6
CONTINUOUS
10
193.626
20
-179.9
11
193.626
21
-180.043
0
LINE
8
BLACK
6
CONTINUOUS
10
193.626
20
-180.043
11
192.911
21
-180.186
0
LINE
8
BLACK
6
CONTINUOUS
10
194.483
20
-180.686
11
194.34
21
-180.614
0
LINE
8
BLACK
6
CONTINUOUS
10
194.34
20
-180.614
11
194.269
21
-180.471
0
LINE
8
BLACK
6
CONTINUOUS
10
194.269
20
-180.471
11
194.269
21
-179.186
0
LINE
8
BLACK
6
CONTINUOUS
10
178.363
20
-177.614
11
178.577
21
-177.686
0
LINE
8
BLACK
6
CONTINUOUS
10
178.577
20
-177.686
11
178.934
21
-177.686
0
LINE
8
BLACK
6
CONTINUOUS
10
178.934
20
-177.686
11
179.077
21
-177.614
0
LINE
8
BLACK
6
CONTINUOUS
10
179.077
20
-177.614
11
179.149
21
-177.543
0
LINE
8
BLACK
6
CONTINUOUS
10
179.149
20
-177.543
11
179.22
21
-177.4
0
LINE
8
BLACK
6
CONTINUOUS
10
179.22
20
-177.4
11
179.22
21
-177.257
0
LINE
8
BLACK
6
CONTINUOUS
10
179.22
20
-177.257
11
179.149
21
-177.114
0
LINE
8
BLACK
6
CONTINUOUS
10
179.149
20
-177.114
11
179.077
21
-177.043
0
LINE
8
BLACK
6
CONTINUOUS
10
179.077
20
-177.043
11
178.934
21
-176.971
0
LINE
8
BLACK
6
CONTINUOUS
10
178.934
20
-176.971
11
178.649
21
-176.9
0
LINE
8
BLACK
6
CONTINUOUS
10
178.649
20
-176.9
11
178.506
21
-176.829
0
LINE
8
BLACK
6
CONTINUOUS
10
178.506
20
-176.829
11
178.434
21
-176.757
0
LINE
8
BLACK
6
CONTINUOUS
10
178.434
20
-176.757
11
178.363
21
-176.614
0
LINE
8
BLACK
6
CONTINUOUS
10
178.363
20
-176.614
11
178.363
21
-176.471
0
LINE
8
BLACK
6
CONTINUOUS
10
178.363
20
-176.471
11
178.434
21
-176.329
0
LINE
8
BLACK
6
CONTINUOUS
10
178.434
20
-176.329
11
178.506
21
-176.257
0
LINE
8
BLACK
6
CONTINUOUS
10
178.506
20
-176.257
11
178.649
21
-176.186
0
LINE
8
BLACK
6
CONTINUOUS
10
178.649
20
-176.186
11
179.006
21
-176.186
0
LINE
8
BLACK
6
CONTINUOUS
10
179.006
20
-176.186
11
179.22
21
-176.257
0
LINE
8
BLACK
6
CONTINUOUS
10
179.72
20
-176.186
11
180.077
21
-177.686
0
LINE
8
BLACK
6
CONTINUOUS
10
180.077
20
-177.686
11
180.363
21
-176.614
0
LINE
8
BLACK
6
CONTINUOUS
10
180.363
20
-176.614
11
180.649
21
-177.686
0
LINE
8
BLACK
6
CONTINUOUS
10
180.649
20
-177.686
11
181.006
21
-176.186
0
LINE
8
BLACK
6
CONTINUOUS
10
181.577
20
-177.114
11
182.72
21
-177.114
0
LINE
8
BLACK
6
CONTINUOUS
10
183.434
20
-177.686
11
183.434
21
-176.186
0
LINE
8
BLACK
6
CONTINUOUS
10
183.434
20
-176.186
11
183.934
21
-177.257
0
LINE
8
BLACK
6
CONTINUOUS
10
183.934
20
-177.257
11
184.434
21
-176.186
0
LINE
8
BLACK
6
CONTINUOUS
10
184.434
20
-176.186
11
184.434
21
-177.686
0
LINE
8
BLACK
6
CONTINUOUS
10
185.72
20
-177.614
11
185.577
21
-177.686
0
LINE
8
BLACK
6
CONTINUOUS
10
185.577
20
-177.686
11
185.291
21
-177.686
0
LINE
8
BLACK
6
CONTINUOUS
10
185.291
20
-177.686
11
185.149
21
-177.614
0
LINE
8
BLACK
6
CONTINUOUS
10
185.149
20
-177.614
11
185.077
21
-177.471
0
LINE
8
BLACK
6
CONTINUOUS
10
185.077
20
-177.471
11
185.077
21
-176.9
0
LINE
8
BLACK
6
CONTINUOUS
10
185.077
20
-176.9
11
185.149
21
-176.757
0
LINE
8
BLACK
6
CONTINUOUS
10
185.149
20
-176.757
11
185.291
21
-176.686
0
LINE
8
BLACK
6
CONTINUOUS
10
185.291
20
-176.686
11
185.577
21
-176.686
0
LINE
8
BLACK
6
CONTINUOUS
10
185.577
20
-176.686
11
185.72
21
-176.757
0
LINE
8
BLACK
6
CONTINUOUS
10
185.72
20
-176.757
11
185.791
21
-176.9
0
LINE
8
BLACK
6
CONTINUOUS
10
185.791
20
-176.9
11
185.791
21
-177.043
0
LINE
8
BLACK
6
CONTINUOUS
10
185.791
20
-177.043
11
185.077
21
-177.186
0
LINE
8
BLACK
6
CONTINUOUS
10
186.22
20
-176.686
11
186.791
21
-176.686
0
LINE
8
BLACK
6
CONTINUOUS
10
186.434
20
-176.186
11
186.434
21
-177.471
0
LINE
8
BLACK
6
CONTINUOUS
10
186.434
20
-177.471
11
186.506
21
-177.614
0
LINE
8
BLACK
6
CONTINUOUS
10
186.506
20
-177.614
11
186.649
21
-177.686
0
LINE
8
BLACK
6
CONTINUOUS
10
186.649
20
-177.686
11
186.791
21
-177.686
0
LINE
8
BLACK
6
CONTINUOUS
10
187.863
20
-177.614
11
187.72
21
-177.686
0
LINE
8
BLACK
6
CONTINUOUS
10
187.72
20
-177.686
11
187.434
21
-177.686
0
LINE
8
BLACK
6
CONTINUOUS
10
187.434
20
-177.686
11
187.291
21
-177.614
0
LINE
8
BLACK
6
CONTINUOUS
10
187.291
20
-177.614
11
187.22
21
-177.471
0
LINE
8
BLACK
6
CONTINUOUS
10
187.22
20
-177.471
11
187.22
21
-176.9
0
LINE
8
BLACK
6
CONTINUOUS
10
187.22
20
-176.9
11
187.291
21
-176.757
0
LINE
8
BLACK
6
CONTINUOUS
10
187.291
20
-176.757
11
187.434
21
-176.686
0
LINE
8
BLACK
6
CONTINUOUS
10
187.434
20
-176.686
11
187.72
21
-176.686
0
LINE
8
BLACK
6
CONTINUOUS
10
187.72
20
-176.686
11
187.863
21
-176.757
0
LINE
8
BLACK
6
CONTINUOUS
10
187.863
20
-176.757
11
187.934
21
-176.9
0
LINE
8
BLACK
6
CONTINUOUS
10
187.934
20
-176.9
11
187.934
21
-177.043
0
LINE
8
BLACK
6
CONTINUOUS
10
187.934
20
-177.043
11
187.22
21
-177.186
0
LINE
8
BLACK
6
CONTINUOUS
10
188.577
20
-177.686
11
188.577
21
-176.686
0
LINE
8
BLACK
6
CONTINUOUS
10
188.577
20
-176.971
11
188.649
21
-176.829
0
LINE
8
BLACK
6
CONTINUOUS
10
188.649
20
-176.829
11
188.72
21
-176.757
0
LINE
8
BLACK
6
CONTINUOUS
10
188.72
20
-176.757
11
188.863
21
-176.686
0
LINE
8
BLACK
6
CONTINUOUS
10
188.863
20
-176.686
11
189.006
21
-176.686
0
LINE
8
BLACK
6
CONTINUOUS
10
197.002
20
-191.507
11
197.002
21
-194.507
0
LINE
8
BLACK
6
CONTINUOUS
10
261.002
20
-191.507
11
261.002
21
-198.007
0
LINE
8
BLACK
6
CONTINUOUS
10
133.664
20
-102.466
11
133.76
21
-102.125
0
LINE
8
BLACK
6
CONTINUOUS
10
133.76
20
-102.125
11
133.892
21
-101.796
0
LINE
8
BLACK
6
CONTINUOUS
10
133.892
20
-101.796
11
134.059
21
-101.483
0
LINE
8
BLACK
6
CONTINUOUS
10
134.059
20
-101.483
11
134.258
21
-101.191
0
LINE
8
BLACK
6
CONTINUOUS
10
134.258
20
-101.191
11
134.488
21
-100.921
0
LINE
8
BLACK
6
CONTINUOUS
10
134.488
20
-100.921
11
134.746
21
-100.679
0
LINE
8
BLACK
6
CONTINUOUS
10
134.746
20
-100.679
11
135.029
21
-100.465
0
LINE
8
BLACK
6
CONTINUOUS
10
135.029
20
-100.465
11
135.333
21
-100.283
0
LINE
8
BLACK
6
CONTINUOUS
10
135.333
20
-100.283
11
135.654
21
-100.135
0
LINE
8
BLACK
6
CONTINUOUS
10
135.654
20
-100.135
11
135.99
21
-100.023
0
LINE
8
BLACK
6
CONTINUOUS
10
135.99
20
-100.023
11
136.336
21
-99.9471
0
LINE
8
BLACK
6
CONTINUOUS
10
136.336
20
-99.9471
11
136.689
21
-99.9095
0
LINE
8
BLACK
6
CONTINUOUS
10
136.689
20
-99.9095
11
137.043
21
-99.9101
0
LINE
8
BLACK
6
CONTINUOUS
10
137.043
20
-99.9101
11
137.395
21
-99.949
0
LINE
8
BLACK
6
CONTINUOUS
10
137.395
20
-99.949
11
137.741
21
-100.026
0
LINE
8
BLACK
6
CONTINUOUS
10
137.741
20
-100.026
11
138.076
21
-100.139
0
LINE
8
BLACK
6
CONTINUOUS
10
138.076
20
-100.139
11
138.398
21
-100.288
0
LINE
8
BLACK
6
CONTINUOUS
10
138.398
20
-100.288
11
138.701
21
-100.471
0
LINE
8
BLACK
6
CONTINUOUS
10
138.701
20
-100.471
11
138.983
21
-100.686
0
LINE
8
BLACK
6
CONTINUOUS
10
138.983
20
-100.686
11
139.24
21
-100.93
0
LINE
8
BLACK
6
CONTINUOUS
10
139.24
20
-100.93
11
139.469
21
-101.2
0
LINE
8
BLACK
6
CONTINUOUS
10
139.469
20
-101.2
11
139.667
21
-101.493
0
LINE
8
BLACK
6
CONTINUOUS
10
139.667
20
-101.493
11
139.833
21
-101.806
0
LINE
8
BLACK
6
CONTINUOUS
10
139.833
20
-101.806
11
139.964
21
-102.135
0
LINE
8
BLACK
6
CONTINUOUS
10
139.964
20
-102.135
11
140.059
21
-102.477
0
LINE
8
BLACK
6
CONTINUOUS
10
140.059
20
-102.477
11
140.116
21
-102.826
0
LINE
8
BLACK
6
CONTINUOUS
10
140.116
20
-102.826
11
140.135
21
-103.18
0
LINE
8
BLACK
6
CONTINUOUS
10
140.135
20
-103.18
11
140.135
21
-103.203
0
LINE
8
BLACK
6
CONTINUOUS
10
140.135
20
-103.203
11
140.113
21
-103.556
0
LINE
8
BLACK
6
CONTINUOUS
10
140.113
20
-103.556
11
140.054
21
-103.906
0
LINE
8
BLACK
6
CONTINUOUS
10
140.054
20
-103.906
11
139.957
21
-104.246
0
LINE
8
BLACK
6
CONTINUOUS
10
139.957
20
-104.246
11
139.823
21
-104.574
0
LINE
8
BLACK
6
CONTINUOUS
10
139.823
20
-104.574
11
139.655
21
-104.886
0
LINE
8
BLACK
6
CONTINUOUS
10
139.655
20
-104.886
11
139.455
21
-105.178
0
LINE
8
BLACK
6
CONTINUOUS
10
139.455
20
-105.178
11
139.224
21
-105.447
0
LINE
8
BLACK
6
CONTINUOUS
10
139.224
20
-105.447
11
138.965
21
-105.689
0
LINE
8
BLACK
6
CONTINUOUS
10
138.965
20
-105.689
11
138.682
21
-105.901
0
LINE
8
BLACK
6
CONTINUOUS
10
138.682
20
-105.901
11
138.377
21
-106.082
0
LINE
8
BLACK
6
CONTINUOUS
10
138.377
20
-106.082
11
138.055
21
-106.229
0
LINE
8
BLACK
6
CONTINUOUS
10
138.055
20
-106.229
11
137.719
21
-106.34
0
LINE
8
BLACK
6
CONTINUOUS
10
137.719
20
-106.34
11
137.372
21
-106.415
0
LINE
8
BLACK
6
CONTINUOUS
10
137.372
20
-106.415
11
137.02
21
-106.451
0
LINE
8
BLACK
6
CONTINUOUS
10
137.02
20
-106.451
11
136.666
21
-106.449
0
LINE
8
BLACK
6
CONTINUOUS
10
136.666
20
-106.449
11
136.314
21
-106.409
0
LINE
8
BLACK
6
CONTINUOUS
10
136.314
20
-106.409
11
135.968
21
-106.331
0
LINE
8
BLACK
6
CONTINUOUS
10
135.968
20
-106.331
11
135.633
21
-106.217
0
LINE
8
BLACK
6
CONTINUOUS
10
135.633
20
-106.217
11
135.312
21
-106.066
0
LINE
8
BLACK
6
CONTINUOUS
10
135.312
20
-106.066
11
135.01
21
-105.882
0
LINE
8
BLACK
6
CONTINUOUS
10
135.01
20
-105.882
11
134.729
21
-105.667
0
LINE
8
BLACK
6
CONTINUOUS
10
134.729
20
-105.667
11
134.473
21
-105.422
0
LINE
8
BLACK
6
CONTINUOUS
10
134.473
20
-105.422
11
134.244
21
-105.151
0
LINE
8
BLACK
6
CONTINUOUS
10
134.244
20
-105.151
11
134.047
21
-104.857
0
LINE
8
BLACK
6
CONTINUOUS
10
134.047
20
-104.857
11
133.882
21
-104.543
0
LINE
8
BLACK
6
CONTINUOUS
10
133.882
20
-104.543
11
133.752
21
-104.214
0
LINE
8
BLACK
6
CONTINUOUS
10
133.752
20
-104.214
11
133.659
21
-103.872
0
LINE
8
BLACK
6
CONTINUOUS
10
133.659
20
-103.872
11
133.603
21
-103.522
0
LINE
8
BLACK
6
CONTINUOUS
10
133.603
20
-103.522
11
133.585
21
-103.169
0
LINE
8
BLACK
6
CONTINUOUS
10
133.585
20
-103.169
11
133.587
21
-103.136
0
LINE
8
BLACK
6
CONTINUOUS
10
133.587
20
-103.136
11
133.605
21
-102.815
0
LINE
8
BLACK
6
CONTINUOUS
10
133.605
20
-102.815
11
133.664
21
-102.466
0
LINE
8
BLACK
6
CONTINUOUS
10
133.798
20
-103.831
11
133.89
21
-104.168
0
LINE
8
BLACK
6
CONTINUOUS
10
133.89
20
-104.168
11
134.019
21
-104.493
0
LINE
8
BLACK
6
CONTINUOUS
10
134.019
20
-104.493
11
134.183
21
-104.801
0
LINE
8
BLACK
6
CONTINUOUS
10
134.183
20
-104.801
11
134.38
21
-105.09
0
LINE
8
BLACK
6
CONTINUOUS
10
134.38
20
-105.09
11
134.609
21
-105.354
0
LINE
8
BLACK
6
CONTINUOUS
10
134.609
20
-105.354
11
134.865
21
-105.592
0
LINE
8
BLACK
6
CONTINUOUS
10
134.865
20
-105.592
11
135.146
21
-105.799
0
LINE
8
BLACK
6
CONTINUOUS
10
135.146
20
-105.799
11
135.449
21
-105.974
0
LINE
8
BLACK
6
CONTINUOUS
10
135.449
20
-105.974
11
135.769
21
-106.114
0
LINE
8
BLACK
6
CONTINUOUS
10
135.769
20
-106.114
11
136.103
21
-106.217
0
LINE
8
BLACK
6
CONTINUOUS
10
136.103
20
-106.217
11
136.446
21
-106.282
0
LINE
8
BLACK
6
CONTINUOUS
10
136.446
20
-106.282
11
136.794
21
-106.309
0
LINE
8
BLACK
6
CONTINUOUS
10
136.794
20
-106.309
11
137.144
21
-106.297
0
LINE
8
BLACK
6
CONTINUOUS
10
137.144
20
-106.297
11
137.489
21
-106.246
0
LINE
8
BLACK
6
CONTINUOUS
10
137.489
20
-106.246
11
137.827
21
-106.157
0
LINE
8
BLACK
6
CONTINUOUS
10
137.827
20
-106.157
11
138.153
21
-106.03
0
LINE
8
BLACK
6
CONTINUOUS
10
138.153
20
-106.03
11
138.463
21
-105.868
0
LINE
8
BLACK
6
CONTINUOUS
10
138.463
20
-105.868
11
138.752
21
-105.673
0
LINE
8
BLACK
6
CONTINUOUS
10
138.752
20
-105.673
11
139.018
21
-105.447
0
LINE
8
BLACK
6
CONTINUOUS
10
139.018
20
-105.447
11
139.258
21
-105.192
0
LINE
8
BLACK
6
CONTINUOUS
10
139.258
20
-105.192
11
139.467
21
-104.912
0
LINE
8
BLACK
6
CONTINUOUS
10
139.467
20
-104.912
11
139.644
21
-104.611
0
LINE
8
BLACK
6
CONTINUOUS
10
139.644
20
-104.611
11
139.786
21
-104.291
0
LINE
8
BLACK
6
CONTINUOUS
10
139.786
20
-104.291
11
139.892
21
-103.958
0
LINE
8
BLACK
6
CONTINUOUS
10
139.892
20
-103.958
11
139.959
21
-103.616
0
LINE
8
BLACK
6
CONTINUOUS
10
139.959
20
-103.616
11
139.989
21
-103.267
0
LINE
8
BLACK
6
CONTINUOUS
10
139.989
20
-103.267
11
139.99
21
-103.18
0
LINE
8
BLACK
6
CONTINUOUS
10
139.99
20
-103.18
11
139.97
21
-102.831
0
LINE
8
BLACK
6
CONTINUOUS
10
139.97
20
-102.831
11
139.912
21
-102.487
0
LINE
8
BLACK
6
CONTINUOUS
10
139.912
20
-102.487
11
139.816
21
-102.151
0
LINE
8
BLACK
6
CONTINUOUS
10
139.816
20
-102.151
11
139.683
21
-101.828
0
LINE
8
BLACK
6
CONTINUOUS
10
139.683
20
-101.828
11
139.514
21
-101.521
0
LINE
8
BLACK
6
CONTINUOUS
10
139.514
20
-101.521
11
139.313
21
-101.236
0
LINE
8
BLACK
6
CONTINUOUS
10
139.313
20
-101.236
11
139.081
21
-100.975
0
LINE
8
BLACK
6
CONTINUOUS
10
139.081
20
-100.975
11
138.821
21
-100.741
0
LINE
8
BLACK
6
CONTINUOUS
10
138.821
20
-100.741
11
138.537
21
-100.537
0
LINE
8
BLACK
6
CONTINUOUS
10
138.537
20
-100.537
11
138.232
21
-100.367
0
LINE
8
BLACK
6
CONTINUOUS
10
138.232
20
-100.367
11
137.91
21
-100.231
0
LINE
8
BLACK
6
CONTINUOUS
10
137.91
20
-100.231
11
137.575
21
-100.133
0
LINE
8
BLACK
6
CONTINUOUS
10
137.575
20
-100.133
11
137.231
21
-100.072
0
LINE
8
BLACK
6
CONTINUOUS
10
137.231
20
-100.072
11
136.882
21
-100.05
0
LINE
8
BLACK
6
CONTINUOUS
10
136.882
20
-100.05
11
136.533
21
-100.067
0
LINE
8
BLACK
6
CONTINUOUS
10
136.533
20
-100.067
11
136.188
21
-100.123
0
LINE
8
BLACK
6
CONTINUOUS
10
136.188
20
-100.123
11
135.851
21
-100.217
0
LINE
8
BLACK
6
CONTINUOUS
10
135.851
20
-100.217
11
135.527
21
-100.348
0
LINE
8
BLACK
6
CONTINUOUS
10
135.527
20
-100.348
11
135.22
21
-100.514
0
LINE
8
BLACK
6
CONTINUOUS
10
135.22
20
-100.514
11
134.933
21
-100.714
0
LINE
8
BLACK
6
CONTINUOUS
10
134.933
20
-100.714
11
134.67
21
-100.944
0
LINE
8
BLACK
6
CONTINUOUS
10
134.67
20
-100.944
11
134.434
21
-101.202
0
LINE
8
BLACK
6
CONTINUOUS
10
134.434
20
-101.202
11
134.229
21
-101.484
0
LINE
8
BLACK
6
CONTINUOUS
10
134.229
20
-101.484
11
134.056
21
-101.788
0
LINE
8
BLACK
6
CONTINUOUS
10
134.056
20
-101.788
11
133.919
21
-102.11
0
LINE
8
BLACK
6
CONTINUOUS
10
133.919
20
-102.11
11
133.818
21
-102.444
0
LINE
8
BLACK
6
CONTINUOUS
10
133.818
20
-102.444
11
133.755
21
-102.788
0
LINE
8
BLACK
6
CONTINUOUS
10
133.755
20
-102.788
11
133.73
21
-103.136
0
LINE
8
BLACK
6
CONTINUOUS
10
133.73
20
-103.136
11
133.745
21
-103.485
0
LINE
8
BLACK
6
CONTINUOUS
10
133.745
20
-103.485
11
133.798
21
-103.831
0
LINE
8
BLACK
6
CONTINUOUS
10
98.1196
20
-125.22
11
98.105
21
-125.185
0
LINE
8
BLACK
6
CONTINUOUS
10
98.105
20
-125.185
11
98.105
21
-55.235
0
LINE
8
BLACK
6
CONTINUOUS
10
98.105
20
-55.235
11
98.1196
21
-55.1996
0
LINE
8
BLACK
6
CONTINUOUS
10
98.1196
20
-55.1996
11
98.155
21
-55.185
0
LINE
8
BLACK
6
CONTINUOUS
10
98.155
20
-55.185
11
177.79
21
-55.185
0
LINE
8
BLACK
6
CONTINUOUS
10
177.79
20
-55.185
11
177.825
21
-55.1996
0
LINE
8
BLACK
6
CONTINUOUS
10
177.825
20
-55.1996
11
177.84
21
-55.235
0
LINE
8
BLACK
6
CONTINUOUS
10
177.84
20
-55.235
11
177.84
21
-125.185
0
LINE
8
BLACK
6
CONTINUOUS
10
177.84
20
-125.185
11
177.825
21
-125.22
0
LINE
8
BLACK
6
CONTINUOUS
10
177.825
20
-125.22
11
177.79
21
-125.235
0
LINE
8
BLACK
6
CONTINUOUS
10
177.79
20
-125.235
11
98.155
21
-125.235
0
LINE
8
BLACK
6
CONTINUOUS
10
98.155
20
-125.235
11
98.1196
21
-125.22
0
LINE
8
BLACK
6
CONTINUOUS
10
98.205
20
-55.285
11
98.205
21
-125.135
0
LINE
8
BLACK
6
CONTINUOUS
10
98.205
20
-125.135
11
177.74
21
-125.135
0
LINE
8
BLACK
6
CONTINUOUS
10
177.74
20
-125.135
11
177.74
21
-55.285
0
LINE
8
BLACK
6
CONTINUOUS
10
177.74
20
-55.285
11
98.205
21
-55.285
  0
ENDSEC
  0
EOF
