  0
SECTION
  2
HEADER
  9
$ANGBASE
  50
0.0
  9
$ANGDIR
  70
1
  9
$MEASUREMENT
  70
1
  0
ENDSEC
  0
SECTION
  2
TABLES
  0
TABLE
  2
LTYPE
  70
4
  0
LTYPE
  5
40F
  2
CONTINUOUS
  70
0
  3
Solid line
  72
65
  73
0
  40
0.0
  0
LTYPE
  5
410
  2
DASHDOT
 70
0
  3
Dash Dot ____ _ ____ _
 72
65
 73
4
 40
2.0
 49
1.25
 49
-0.25
 49
0.25
 49
-0.25
  0
LTYPE
  5
411
  2
DASHED
 70
0
  3
Dashed __ __ __ __ __
 72
65
 73
2
 40
0.75
 49
0.5
 49
-0.25
  0
LTYPE
  5
43B
  2
DOTTED
 70
0
  3
Dotted .  .  .  .
 72
65
 73
2
 40
0.2
 49
0.0
 49
-0.2
  0
ENDTAB
  0
TABLE
  2
STYLE
  70
4
  0
STYLE
  2
KICAD
  70
0
  40
0
  41
1
  42
1
  50
0
  71
0
  3
isocp.shx
  0
STYLE
  2
KICADB
  70
0
  40
0
  41
1
  42
1
  50
0
  71
0
  3
isocp.shx
  0
STYLE
  2
KICADI
  70
0
  40
0
  41
1
  42
1
  50
15
  71
0
  3
isocp.shx
  0
STYLE
  2
KICADBI
  70
0
  40
0
  41
1
  42
1
  50
15
  71
0
  3
isocp.shx
  0
ENDTAB
  0
TABLE
  2
LAYER
  70
1
  0
LAYER
  2
BLACK
  70
0
  62
7
  6
CONTINUOUS
  0
ENDTAB
  0
ENDSEC
  0
SECTION
  2
ENTITIES
0
LINE
8
BLACK
6
CONTINUOUS
10
79.62
20
69.915
11
-0.015
21
69.915
0
LINE
8
BLACK
6
CONTINUOUS
10
-0.015
20
69.915
11
-0.015
21
-0.035
0
LINE
8
BLACK
6
CONTINUOUS
10
-0.015
20
-0.035
11
79.62
21
-0.035
0
LINE
8
BLACK
6
CONTINUOUS
10
79.62
20
-0.035
11
79.62
21
69.915
0
LINE
8
BLACK
6
CONTINUOUS
10
70.705
20
60.3
11
71.805
21
59.2
0
LINE
8
BLACK
6
CONTINUOUS
10
71.805
20
60.3
11
70.705
21
59.2
0
LINE
8
BLACK
6
CONTINUOUS
10
75.705
20
60.3
11
76.805
21
59.2
0
LINE
8
BLACK
6
CONTINUOUS
10
76.805
20
60.3
11
75.705
21
59.2
0
CIRCLE
8
BLACK
10
7.63
20
44.95
40
1.3
0
CIRCLE
8
BLACK
10
7.63
20
16.95
40
1.3
0
CIRCLE
8
BLACK
10
29.83
20
31.7
40
1.3
0
LINE
8
BLACK
6
CONTINUOUS
10
2.51119
20
-3.18976
11
2.51119
21
-1.18976
0
LINE
8
BLACK
6
CONTINUOUS
10
2.51119
20
-1.18976
11
2.98738
21
-1.18976
0
LINE
8
BLACK
6
CONTINUOUS
10
2.98738
20
-1.18976
11
3.27309
21
-1.285
0
LINE
8
BLACK
6
CONTINUOUS
10
3.27309
20
-1.285
11
3.46357
21
-1.47548
0
LINE
8
BLACK
6
CONTINUOUS
10
3.46357
20
-1.47548
11
3.55881
21
-1.66595
0
LINE
8
BLACK
6
CONTINUOUS
10
3.55881
20
-1.66595
11
3.65405
21
-2.0469
0
LINE
8
BLACK
6
CONTINUOUS
10
3.65405
20
-2.0469
11
3.65405
21
-2.33262
0
LINE
8
BLACK
6
CONTINUOUS
10
3.65405
20
-2.33262
11
3.55881
21
-2.71357
0
LINE
8
BLACK
6
CONTINUOUS
10
3.55881
20
-2.71357
11
3.46357
21
-2.90405
0
LINE
8
BLACK
6
CONTINUOUS
10
3.46357
20
-2.90405
11
3.27309
21
-3.09452
0
LINE
8
BLACK
6
CONTINUOUS
10
3.27309
20
-3.09452
11
2.98738
21
-3.18976
0
LINE
8
BLACK
6
CONTINUOUS
10
2.98738
20
-3.18976
11
2.51119
21
-3.18976
0
LINE
8
BLACK
6
CONTINUOUS
10
4.51119
20
-3.18976
11
4.51119
21
-1.85643
0
LINE
8
BLACK
6
CONTINUOUS
10
4.51119
20
-2.23738
11
4.60643
21
-2.0469
0
LINE
8
BLACK
6
CONTINUOUS
10
4.60643
20
-2.0469
11
4.70167
21
-1.95167
0
LINE
8
BLACK
6
CONTINUOUS
10
4.70167
20
-1.95167
11
4.89214
21
-1.85643
0
LINE
8
BLACK
6
CONTINUOUS
10
4.89214
20
-1.85643
11
5.08262
21
-1.85643
0
LINE
8
BLACK
6
CONTINUOUS
10
5.74928
20
-3.18976
11
5.74928
21
-1.85643
0
LINE
8
BLACK
6
CONTINUOUS
10
5.74928
20
-1.18976
11
5.65405
21
-1.285
0
LINE
8
BLACK
6
CONTINUOUS
10
5.65405
20
-1.285
11
5.74928
21
-1.38024
0
LINE
8
BLACK
6
CONTINUOUS
10
5.74928
20
-1.38024
11
5.84452
21
-1.285
0
LINE
8
BLACK
6
CONTINUOUS
10
5.84452
20
-1.285
11
5.74928
21
-1.18976
0
LINE
8
BLACK
6
CONTINUOUS
10
5.74928
20
-1.18976
11
5.74928
21
-1.38024
0
LINE
8
BLACK
6
CONTINUOUS
10
6.98738
20
-3.18976
11
6.7969
21
-3.09452
0
LINE
8
BLACK
6
CONTINUOUS
10
6.7969
20
-3.09452
11
6.70167
21
-2.90405
0
LINE
8
BLACK
6
CONTINUOUS
10
6.70167
20
-2.90405
11
6.70167
21
-1.18976
0
LINE
8
BLACK
6
CONTINUOUS
10
8.035
20
-3.18976
11
7.84452
21
-3.09452
0
LINE
8
BLACK
6
CONTINUOUS
10
7.84452
20
-3.09452
11
7.74928
21
-2.90405
0
LINE
8
BLACK
6
CONTINUOUS
10
7.74928
20
-2.90405
11
7.74928
21
-1.18976
0
LINE
8
BLACK
6
CONTINUOUS
10
10.3207
20
-3.18976
11
10.3207
21
-1.18976
0
LINE
8
BLACK
6
CONTINUOUS
10
10.3207
20
-1.18976
11
10.9874
21
-2.61833
0
LINE
8
BLACK
6
CONTINUOUS
10
10.9874
20
-2.61833
11
11.654
21
-1.18976
0
LINE
8
BLACK
6
CONTINUOUS
10
11.654
20
-1.18976
11
11.654
21
-3.18976
0
LINE
8
BLACK
6
CONTINUOUS
10
13.4636
20
-3.18976
11
13.4636
21
-2.14214
0
LINE
8
BLACK
6
CONTINUOUS
10
13.4636
20
-2.14214
11
13.3683
21
-1.95167
0
LINE
8
BLACK
6
CONTINUOUS
10
13.3683
20
-1.95167
11
13.1779
21
-1.85643
0
LINE
8
BLACK
6
CONTINUOUS
10
13.1779
20
-1.85643
11
12.7969
21
-1.85643
0
LINE
8
BLACK
6
CONTINUOUS
10
12.7969
20
-1.85643
11
12.6064
21
-1.95167
0
LINE
8
BLACK
6
CONTINUOUS
10
13.4636
20
-3.09452
11
13.2731
21
-3.18976
0
LINE
8
BLACK
6
CONTINUOUS
10
13.2731
20
-3.18976
11
12.7969
21
-3.18976
0
LINE
8
BLACK
6
CONTINUOUS
10
12.7969
20
-3.18976
11
12.6064
21
-3.09452
0
LINE
8
BLACK
6
CONTINUOUS
10
12.6064
20
-3.09452
11
12.5112
21
-2.90405
0
LINE
8
BLACK
6
CONTINUOUS
10
12.5112
20
-2.90405
11
12.5112
21
-2.71357
0
LINE
8
BLACK
6
CONTINUOUS
10
12.5112
20
-2.71357
11
12.6064
21
-2.5231
0
LINE
8
BLACK
6
CONTINUOUS
10
12.6064
20
-2.5231
11
12.7969
21
-2.42786
0
LINE
8
BLACK
6
CONTINUOUS
10
12.7969
20
-2.42786
11
13.2731
21
-2.42786
0
LINE
8
BLACK
6
CONTINUOUS
10
13.2731
20
-2.42786
11
13.4636
21
-2.33262
0
LINE
8
BLACK
6
CONTINUOUS
10
14.416
20
-1.85643
11
14.416
21
-3.85643
0
LINE
8
BLACK
6
CONTINUOUS
10
14.416
20
-1.95167
11
14.6064
21
-1.85643
0
LINE
8
BLACK
6
CONTINUOUS
10
14.6064
20
-1.85643
11
14.9874
21
-1.85643
0
LINE
8
BLACK
6
CONTINUOUS
10
14.9874
20
-1.85643
11
15.1779
21
-1.95167
0
LINE
8
BLACK
6
CONTINUOUS
10
15.1779
20
-1.95167
11
15.2731
21
-2.0469
0
LINE
8
BLACK
6
CONTINUOUS
10
15.2731
20
-2.0469
11
15.3683
21
-2.23738
0
LINE
8
BLACK
6
CONTINUOUS
10
15.3683
20
-2.23738
11
15.3683
21
-2.80881
0
LINE
8
BLACK
6
CONTINUOUS
10
15.3683
20
-2.80881
11
15.2731
21
-2.99928
0
LINE
8
BLACK
6
CONTINUOUS
10
15.2731
20
-2.99928
11
15.1779
21
-3.09452
0
LINE
8
BLACK
6
CONTINUOUS
10
15.1779
20
-3.09452
11
14.9874
21
-3.18976
0
LINE
8
BLACK
6
CONTINUOUS
10
14.9874
20
-3.18976
11
14.6064
21
-3.18976
0
LINE
8
BLACK
6
CONTINUOUS
10
14.6064
20
-3.18976
11
14.416
21
-3.09452
0
LINE
8
BLACK
6
CONTINUOUS
10
16.2255
20
-2.99928
11
16.3207
21
-3.09452
0
LINE
8
BLACK
6
CONTINUOUS
10
16.3207
20
-3.09452
11
16.2255
21
-3.18976
0
LINE
8
BLACK
6
CONTINUOUS
10
16.2255
20
-3.18976
11
16.1302
21
-3.09452
0
LINE
8
BLACK
6
CONTINUOUS
10
16.1302
20
-3.09452
11
16.2255
21
-2.99928
0
LINE
8
BLACK
6
CONTINUOUS
10
16.2255
20
-2.99928
11
16.2255
21
-3.18976
0
LINE
8
BLACK
6
CONTINUOUS
10
16.2255
20
-1.95167
11
16.3207
21
-2.0469
0
LINE
8
BLACK
6
CONTINUOUS
10
16.3207
20
-2.0469
11
16.2255
21
-2.14214
0
LINE
8
BLACK
6
CONTINUOUS
10
16.2255
20
-2.14214
11
16.1302
21
-2.0469
0
LINE
8
BLACK
6
CONTINUOUS
10
16.1302
20
-2.0469
11
16.2255
21
-1.95167
0
LINE
8
BLACK
6
CONTINUOUS
10
16.2255
20
-1.95167
11
16.2255
21
-2.14214
0
LINE
8
BLACK
6
CONTINUOUS
10
-1.165
20
-5.935
11
-0.065
21
-7.035
0
LINE
8
BLACK
6
CONTINUOUS
10
-0.065
20
-5.935
11
-1.165
21
-7.035
0
LINE
8
BLACK
6
CONTINUOUS
10
3.55881
20
-7.38976
11
2.41595
21
-7.38976
0
LINE
8
BLACK
6
CONTINUOUS
10
2.98738
20
-7.38976
11
2.98738
21
-5.38976
0
LINE
8
BLACK
6
CONTINUOUS
10
2.98738
20
-5.38976
11
2.7969
21
-5.67548
0
LINE
8
BLACK
6
CONTINUOUS
10
2.7969
20
-5.67548
11
2.60643
21
-5.86595
0
LINE
8
BLACK
6
CONTINUOUS
10
2.60643
20
-5.86595
11
2.41595
21
-5.96119
0
LINE
8
BLACK
6
CONTINUOUS
10
4.41595
20
-7.19928
11
4.51119
21
-7.29452
0
LINE
8
BLACK
6
CONTINUOUS
10
4.51119
20
-7.29452
11
4.41595
21
-7.38976
0
LINE
8
BLACK
6
CONTINUOUS
10
4.41595
20
-7.38976
11
4.32071
21
-7.29452
0
LINE
8
BLACK
6
CONTINUOUS
10
4.32071
20
-7.29452
11
4.41595
21
-7.19928
0
LINE
8
BLACK
6
CONTINUOUS
10
4.41595
20
-7.19928
11
4.41595
21
-7.38976
0
LINE
8
BLACK
6
CONTINUOUS
10
6.41595
20
-7.38976
11
5.27309
21
-7.38976
0
LINE
8
BLACK
6
CONTINUOUS
10
5.84452
20
-7.38976
11
5.84452
21
-5.38976
0
LINE
8
BLACK
6
CONTINUOUS
10
5.84452
20
-5.38976
11
5.65405
21
-5.67548
0
LINE
8
BLACK
6
CONTINUOUS
10
5.65405
20
-5.67548
11
5.46357
21
-5.86595
0
LINE
8
BLACK
6
CONTINUOUS
10
5.46357
20
-5.86595
11
5.27309
21
-5.96119
0
LINE
8
BLACK
6
CONTINUOUS
10
7.65405
20
-5.38976
11
7.84452
21
-5.38976
0
LINE
8
BLACK
6
CONTINUOUS
10
7.84452
20
-5.38976
11
8.035
21
-5.485
0
LINE
8
BLACK
6
CONTINUOUS
10
8.035
20
-5.485
11
8.13024
21
-5.58024
0
LINE
8
BLACK
6
CONTINUOUS
10
8.13024
20
-5.58024
11
8.22548
21
-5.77071
0
LINE
8
BLACK
6
CONTINUOUS
10
8.22548
20
-5.77071
11
8.32071
21
-6.15167
0
LINE
8
BLACK
6
CONTINUOUS
10
8.32071
20
-6.15167
11
8.32071
21
-6.62786
0
LINE
8
BLACK
6
CONTINUOUS
10
8.32071
20
-6.62786
11
8.22548
21
-7.00881
0
LINE
8
BLACK
6
CONTINUOUS
10
8.22548
20
-7.00881
11
8.13024
21
-7.19928
0
LINE
8
BLACK
6
CONTINUOUS
10
8.13024
20
-7.19928
11
8.035
21
-7.29452
0
LINE
8
BLACK
6
CONTINUOUS
10
8.035
20
-7.29452
11
7.84452
21
-7.38976
0
LINE
8
BLACK
6
CONTINUOUS
10
7.84452
20
-7.38976
11
7.65405
21
-7.38976
0
LINE
8
BLACK
6
CONTINUOUS
10
7.65405
20
-7.38976
11
7.46357
21
-7.29452
0
LINE
8
BLACK
6
CONTINUOUS
10
7.46357
20
-7.29452
11
7.36833
21
-7.19928
0
LINE
8
BLACK
6
CONTINUOUS
10
7.36833
20
-7.19928
11
7.27309
21
-7.00881
0
LINE
8
BLACK
6
CONTINUOUS
10
7.27309
20
-7.00881
11
7.17786
21
-6.62786
0
LINE
8
BLACK
6
CONTINUOUS
10
7.17786
20
-6.62786
11
7.17786
21
-6.15167
0
LINE
8
BLACK
6
CONTINUOUS
10
7.17786
20
-6.15167
11
7.27309
21
-5.77071
0
LINE
8
BLACK
6
CONTINUOUS
10
7.27309
20
-5.77071
11
7.36833
21
-5.58024
0
LINE
8
BLACK
6
CONTINUOUS
10
7.36833
20
-5.58024
11
7.46357
21
-5.485
0
LINE
8
BLACK
6
CONTINUOUS
10
7.46357
20
-5.485
11
7.65405
21
-5.38976
0
LINE
8
BLACK
6
CONTINUOUS
10
9.55881
20
-5.38976
11
9.74929
21
-5.38976
0
LINE
8
BLACK
6
CONTINUOUS
10
9.74929
20
-5.38976
11
9.93976
21
-5.485
0
LINE
8
BLACK
6
CONTINUOUS
10
9.93976
20
-5.485
11
10.035
21
-5.58024
0
LINE
8
BLACK
6
CONTINUOUS
10
10.035
20
-5.58024
11
10.1302
21
-5.77071
0
LINE
8
BLACK
6
CONTINUOUS
10
10.1302
20
-5.77071
11
10.2255
21
-6.15167
0
LINE
8
BLACK
6
CONTINUOUS
10
10.2255
20
-6.15167
11
10.2255
21
-6.62786
0
LINE
8
BLACK
6
CONTINUOUS
10
10.2255
20
-6.62786
11
10.1302
21
-7.00881
0
LINE
8
BLACK
6
CONTINUOUS
10
10.1302
20
-7.00881
11
10.035
21
-7.19928
0
LINE
8
BLACK
6
CONTINUOUS
10
10.035
20
-7.19928
11
9.93976
21
-7.29452
0
LINE
8
BLACK
6
CONTINUOUS
10
9.93976
20
-7.29452
11
9.74929
21
-7.38976
0
LINE
8
BLACK
6
CONTINUOUS
10
9.74929
20
-7.38976
11
9.55881
21
-7.38976
0
LINE
8
BLACK
6
CONTINUOUS
10
9.55881
20
-7.38976
11
9.36833
21
-7.29452
0
LINE
8
BLACK
6
CONTINUOUS
10
9.36833
20
-7.29452
11
9.27309
21
-7.19928
0
LINE
8
BLACK
6
CONTINUOUS
10
9.27309
20
-7.19928
11
9.17786
21
-7.00881
0
LINE
8
BLACK
6
CONTINUOUS
10
9.17786
20
-7.00881
11
9.08262
21
-6.62786
0
LINE
8
BLACK
6
CONTINUOUS
10
9.08262
20
-6.62786
11
9.08262
21
-6.15167
0
LINE
8
BLACK
6
CONTINUOUS
10
9.08262
20
-6.15167
11
9.17786
21
-5.77071
0
LINE
8
BLACK
6
CONTINUOUS
10
9.17786
20
-5.77071
11
9.27309
21
-5.58024
0
LINE
8
BLACK
6
CONTINUOUS
10
9.27309
20
-5.58024
11
9.36833
21
-5.485
0
LINE
8
BLACK
6
CONTINUOUS
10
9.36833
20
-5.485
11
9.55881
21
-5.38976
0
LINE
8
BLACK
6
CONTINUOUS
10
11.0826
20
-7.38976
11
11.0826
21
-6.05643
0
LINE
8
BLACK
6
CONTINUOUS
10
11.0826
20
-6.2469
11
11.1779
21
-6.15167
0
LINE
8
BLACK
6
CONTINUOUS
10
11.1779
20
-6.15167
11
11.3683
21
-6.05643
0
LINE
8
BLACK
6
CONTINUOUS
10
11.3683
20
-6.05643
11
11.654
21
-6.05643
0
LINE
8
BLACK
6
CONTINUOUS
10
11.654
20
-6.05643
11
11.8445
21
-6.15167
0
LINE
8
BLACK
6
CONTINUOUS
10
11.8445
20
-6.15167
11
11.9398
21
-6.34214
0
LINE
8
BLACK
6
CONTINUOUS
10
11.9398
20
-6.34214
11
11.9398
21
-7.38976
0
LINE
8
BLACK
6
CONTINUOUS
10
11.9398
20
-6.34214
11
12.035
21
-6.15167
0
LINE
8
BLACK
6
CONTINUOUS
10
12.035
20
-6.15167
11
12.2255
21
-6.05643
0
LINE
8
BLACK
6
CONTINUOUS
10
12.2255
20
-6.05643
11
12.5112
21
-6.05643
0
LINE
8
BLACK
6
CONTINUOUS
10
12.5112
20
-6.05643
11
12.7017
21
-6.15167
0
LINE
8
BLACK
6
CONTINUOUS
10
12.7017
20
-6.15167
11
12.7969
21
-6.34214
0
LINE
8
BLACK
6
CONTINUOUS
10
12.7969
20
-6.34214
11
12.7969
21
-7.38976
0
LINE
8
BLACK
6
CONTINUOUS
10
13.7493
20
-7.38976
11
13.7493
21
-6.05643
0
LINE
8
BLACK
6
CONTINUOUS
10
13.7493
20
-6.2469
11
13.8445
21
-6.15167
0
LINE
8
BLACK
6
CONTINUOUS
10
13.8445
20
-6.15167
11
14.035
21
-6.05643
0
LINE
8
BLACK
6
CONTINUOUS
10
14.035
20
-6.05643
11
14.3207
21
-6.05643
0
LINE
8
BLACK
6
CONTINUOUS
10
14.3207
20
-6.05643
11
14.5112
21
-6.15167
0
LINE
8
BLACK
6
CONTINUOUS
10
14.5112
20
-6.15167
11
14.6064
21
-6.34214
0
LINE
8
BLACK
6
CONTINUOUS
10
14.6064
20
-6.34214
11
14.6064
21
-7.38976
0
LINE
8
BLACK
6
CONTINUOUS
10
14.6064
20
-6.34214
11
14.7017
21
-6.15167
0
LINE
8
BLACK
6
CONTINUOUS
10
14.7017
20
-6.15167
11
14.8921
21
-6.05643
0
LINE
8
BLACK
6
CONTINUOUS
10
14.8921
20
-6.05643
11
15.1779
21
-6.05643
0
LINE
8
BLACK
6
CONTINUOUS
10
15.1779
20
-6.05643
11
15.3683
21
-6.15167
0
LINE
8
BLACK
6
CONTINUOUS
10
15.3683
20
-6.15167
11
15.4636
21
-6.34214
0
LINE
8
BLACK
6
CONTINUOUS
10
15.4636
20
-6.34214
11
15.4636
21
-7.38976
0
LINE
8
BLACK
6
CONTINUOUS
10
19.3683
20
-5.29452
11
17.654
21
-7.86595
0
LINE
8
BLACK
6
CONTINUOUS
10
21.9398
20
-5.38976
11
22.1302
21
-5.38976
0
LINE
8
BLACK
6
CONTINUOUS
10
22.1302
20
-5.38976
11
22.3207
21
-5.485
0
LINE
8
BLACK
6
CONTINUOUS
10
22.3207
20
-5.485
11
22.416
21
-5.58024
0
LINE
8
BLACK
6
CONTINUOUS
10
22.416
20
-5.58024
11
22.5112
21
-5.77071
0
LINE
8
BLACK
6
CONTINUOUS
10
22.5112
20
-5.77071
11
22.6064
21
-6.15167
0
LINE
8
BLACK
6
CONTINUOUS
10
22.6064
20
-6.15167
11
22.6064
21
-6.62786
0
LINE
8
BLACK
6
CONTINUOUS
10
22.6064
20
-6.62786
11
22.5112
21
-7.00881
0
LINE
8
BLACK
6
CONTINUOUS
10
22.5112
20
-7.00881
11
22.416
21
-7.19928
0
LINE
8
BLACK
6
CONTINUOUS
10
22.416
20
-7.19928
11
22.3207
21
-7.29452
0
LINE
8
BLACK
6
CONTINUOUS
10
22.3207
20
-7.29452
11
22.1302
21
-7.38976
0
LINE
8
BLACK
6
CONTINUOUS
10
22.1302
20
-7.38976
11
21.9398
21
-7.38976
0
LINE
8
BLACK
6
CONTINUOUS
10
21.9398
20
-7.38976
11
21.7493
21
-7.29452
0
LINE
8
BLACK
6
CONTINUOUS
10
21.7493
20
-7.29452
11
21.654
21
-7.19928
0
LINE
8
BLACK
6
CONTINUOUS
10
21.654
20
-7.19928
11
21.5588
21
-7.00881
0
LINE
8
BLACK
6
CONTINUOUS
10
21.5588
20
-7.00881
11
21.4636
21
-6.62786
0
LINE
8
BLACK
6
CONTINUOUS
10
21.4636
20
-6.62786
11
21.4636
21
-6.15167
0
LINE
8
BLACK
6
CONTINUOUS
10
21.4636
20
-6.15167
11
21.5588
21
-5.77071
0
LINE
8
BLACK
6
CONTINUOUS
10
21.5588
20
-5.77071
11
21.654
21
-5.58024
0
LINE
8
BLACK
6
CONTINUOUS
10
21.654
20
-5.58024
11
21.7493
21
-5.485
0
LINE
8
BLACK
6
CONTINUOUS
10
21.7493
20
-5.485
11
21.9398
21
-5.38976
0
LINE
8
BLACK
6
CONTINUOUS
10
23.4636
20
-7.19928
11
23.5588
21
-7.29452
0
LINE
8
BLACK
6
CONTINUOUS
10
23.5588
20
-7.29452
11
23.4636
21
-7.38976
0
LINE
8
BLACK
6
CONTINUOUS
10
23.4636
20
-7.38976
11
23.3683
21
-7.29452
0
LINE
8
BLACK
6
CONTINUOUS
10
23.3683
20
-7.29452
11
23.4636
21
-7.19928
0
LINE
8
BLACK
6
CONTINUOUS
10
23.4636
20
-7.19928
11
23.4636
21
-7.38976
0
LINE
8
BLACK
6
CONTINUOUS
10
24.7969
20
-5.38976
11
24.9874
21
-5.38976
0
LINE
8
BLACK
6
CONTINUOUS
10
24.9874
20
-5.38976
11
25.1779
21
-5.485
0
LINE
8
BLACK
6
CONTINUOUS
10
25.1779
20
-5.485
11
25.2731
21
-5.58024
0
LINE
8
BLACK
6
CONTINUOUS
10
25.2731
20
-5.58024
11
25.3683
21
-5.77071
0
LINE
8
BLACK
6
CONTINUOUS
10
25.3683
20
-5.77071
11
25.4636
21
-6.15167
0
LINE
8
BLACK
6
CONTINUOUS
10
25.4636
20
-6.15167
11
25.4636
21
-6.62786
0
LINE
8
BLACK
6
CONTINUOUS
10
25.4636
20
-6.62786
11
25.3683
21
-7.00881
0
LINE
8
BLACK
6
CONTINUOUS
10
25.3683
20
-7.00881
11
25.2731
21
-7.19928
0
LINE
8
BLACK
6
CONTINUOUS
10
25.2731
20
-7.19928
11
25.1779
21
-7.29452
0
LINE
8
BLACK
6
CONTINUOUS
10
25.1779
20
-7.29452
11
24.9874
21
-7.38976
0
LINE
8
BLACK
6
CONTINUOUS
10
24.9874
20
-7.38976
11
24.7969
21
-7.38976
0
LINE
8
BLACK
6
CONTINUOUS
10
24.7969
20
-7.38976
11
24.6064
21
-7.29452
0
LINE
8
BLACK
6
CONTINUOUS
10
24.6064
20
-7.29452
11
24.5112
21
-7.19928
0
LINE
8
BLACK
6
CONTINUOUS
10
24.5112
20
-7.19928
11
24.416
21
-7.00881
0
LINE
8
BLACK
6
CONTINUOUS
10
24.416
20
-7.00881
11
24.3207
21
-6.62786
0
LINE
8
BLACK
6
CONTINUOUS
10
24.3207
20
-6.62786
11
24.3207
21
-6.15167
0
LINE
8
BLACK
6
CONTINUOUS
10
24.3207
20
-6.15167
11
24.416
21
-5.77071
0
LINE
8
BLACK
6
CONTINUOUS
10
24.416
20
-5.77071
11
24.5112
21
-5.58024
0
LINE
8
BLACK
6
CONTINUOUS
10
24.5112
20
-5.58024
11
24.6064
21
-5.485
0
LINE
8
BLACK
6
CONTINUOUS
10
24.6064
20
-5.485
11
24.7969
21
-5.38976
0
LINE
8
BLACK
6
CONTINUOUS
10
27.1779
20
-6.05643
11
27.1779
21
-7.38976
0
LINE
8
BLACK
6
CONTINUOUS
10
26.7017
20
-5.29452
11
26.2255
21
-6.72309
0
LINE
8
BLACK
6
CONTINUOUS
10
26.2255
20
-6.72309
11
27.4636
21
-6.72309
0
LINE
8
BLACK
6
CONTINUOUS
10
28.035
20
-5.38976
11
29.2731
21
-5.38976
0
LINE
8
BLACK
6
CONTINUOUS
10
29.2731
20
-5.38976
11
28.6064
21
-6.15167
0
LINE
8
BLACK
6
CONTINUOUS
10
28.6064
20
-6.15167
11
28.8921
21
-6.15167
0
LINE
8
BLACK
6
CONTINUOUS
10
28.8921
20
-6.15167
11
29.0826
21
-6.2469
0
LINE
8
BLACK
6
CONTINUOUS
10
29.0826
20
-6.2469
11
29.1779
21
-6.34214
0
LINE
8
BLACK
6
CONTINUOUS
10
29.1779
20
-6.34214
11
29.2731
21
-6.53262
0
LINE
8
BLACK
6
CONTINUOUS
10
29.2731
20
-6.53262
11
29.2731
21
-7.00881
0
LINE
8
BLACK
6
CONTINUOUS
10
29.2731
20
-7.00881
11
29.1779
21
-7.19928
0
LINE
8
BLACK
6
CONTINUOUS
10
29.1779
20
-7.19928
11
29.0826
21
-7.29452
0
LINE
8
BLACK
6
CONTINUOUS
10
29.0826
20
-7.29452
11
28.8921
21
-7.38976
0
LINE
8
BLACK
6
CONTINUOUS
10
28.8921
20
-7.38976
11
28.3207
21
-7.38976
0
LINE
8
BLACK
6
CONTINUOUS
10
28.3207
20
-7.38976
11
28.1302
21
-7.29452
0
LINE
8
BLACK
6
CONTINUOUS
10
28.1302
20
-7.29452
11
28.035
21
-7.19928
0
LINE
8
BLACK
6
CONTINUOUS
10
29.9398
20
-5.38976
11
31.1779
21
-5.38976
0
LINE
8
BLACK
6
CONTINUOUS
10
31.1779
20
-5.38976
11
30.5112
21
-6.15167
0
LINE
8
BLACK
6
CONTINUOUS
10
30.5112
20
-6.15167
11
30.7969
21
-6.15167
0
LINE
8
BLACK
6
CONTINUOUS
10
30.7969
20
-6.15167
11
30.9874
21
-6.2469
0
LINE
8
BLACK
6
CONTINUOUS
10
30.9874
20
-6.2469
11
31.0826
21
-6.34214
0
LINE
8
BLACK
6
CONTINUOUS
10
31.0826
20
-6.34214
11
31.1779
21
-6.53262
0
LINE
8
BLACK
6
CONTINUOUS
10
31.1779
20
-6.53262
11
31.1779
21
-7.00881
0
LINE
8
BLACK
6
CONTINUOUS
10
31.1779
20
-7.00881
11
31.0826
21
-7.19928
0
LINE
8
BLACK
6
CONTINUOUS
10
31.0826
20
-7.19928
11
30.9874
21
-7.29452
0
LINE
8
BLACK
6
CONTINUOUS
10
30.9874
20
-7.29452
11
30.7969
21
-7.38976
0
LINE
8
BLACK
6
CONTINUOUS
10
30.7969
20
-7.38976
11
30.2255
21
-7.38976
0
LINE
8
BLACK
6
CONTINUOUS
10
30.2255
20
-7.38976
11
30.035
21
-7.29452
0
LINE
8
BLACK
6
CONTINUOUS
10
30.035
20
-7.29452
11
29.9398
21
-7.19928
0
LINE
8
BLACK
6
CONTINUOUS
10
31.9398
20
-5.38976
11
31.9398
21
-5.77071
0
LINE
8
BLACK
6
CONTINUOUS
10
32.7017
20
-5.38976
11
32.7017
21
-5.77071
0
LINE
8
BLACK
6
CONTINUOUS
10
35.654
20
-8.15167
11
35.5588
21
-8.05643
0
LINE
8
BLACK
6
CONTINUOUS
10
35.5588
20
-8.05643
11
35.3683
21
-7.77071
0
LINE
8
BLACK
6
CONTINUOUS
10
35.3683
20
-7.77071
11
35.2731
21
-7.58024
0
LINE
8
BLACK
6
CONTINUOUS
10
35.2731
20
-7.58024
11
35.1779
21
-7.29452
0
LINE
8
BLACK
6
CONTINUOUS
10
35.1779
20
-7.29452
11
35.0826
21
-6.81833
0
LINE
8
BLACK
6
CONTINUOUS
10
35.0826
20
-6.81833
11
35.0826
21
-6.43738
0
LINE
8
BLACK
6
CONTINUOUS
10
35.0826
20
-6.43738
11
35.1779
21
-5.96119
0
LINE
8
BLACK
6
CONTINUOUS
10
35.1779
20
-5.96119
11
35.2731
21
-5.67548
0
LINE
8
BLACK
6
CONTINUOUS
10
35.2731
20
-5.67548
11
35.3683
21
-5.485
0
LINE
8
BLACK
6
CONTINUOUS
10
35.3683
20
-5.485
11
35.5588
21
-5.19928
0
LINE
8
BLACK
6
CONTINUOUS
10
35.5588
20
-5.19928
11
35.654
21
-5.10405
0
LINE
8
BLACK
6
CONTINUOUS
10
36.3207
20
-5.58024
11
36.416
21
-5.485
0
LINE
8
BLACK
6
CONTINUOUS
10
36.416
20
-5.485
11
36.6064
21
-5.38976
0
LINE
8
BLACK
6
CONTINUOUS
10
36.6064
20
-5.38976
11
37.0826
21
-5.38976
0
LINE
8
BLACK
6
CONTINUOUS
10
37.0826
20
-5.38976
11
37.2731
21
-5.485
0
LINE
8
BLACK
6
CONTINUOUS
10
37.2731
20
-5.485
11
37.3683
21
-5.58024
0
LINE
8
BLACK
6
CONTINUOUS
10
37.3683
20
-5.58024
11
37.4636
21
-5.77071
0
LINE
8
BLACK
6
CONTINUOUS
10
37.4636
20
-5.77071
11
37.4636
21
-5.96119
0
LINE
8
BLACK
6
CONTINUOUS
10
37.4636
20
-5.96119
11
37.3683
21
-6.2469
0
LINE
8
BLACK
6
CONTINUOUS
10
37.3683
20
-6.2469
11
36.2255
21
-7.38976
0
LINE
8
BLACK
6
CONTINUOUS
10
36.2255
20
-7.38976
11
37.4636
21
-7.38976
0
LINE
8
BLACK
6
CONTINUOUS
10
39.8445
20
-7.38976
11
39.8445
21
-5.38976
0
LINE
8
BLACK
6
CONTINUOUS
10
40.7017
20
-7.38976
11
40.7017
21
-6.34214
0
LINE
8
BLACK
6
CONTINUOUS
10
40.7017
20
-6.34214
11
40.6064
21
-6.15167
0
LINE
8
BLACK
6
CONTINUOUS
10
40.6064
20
-6.15167
11
40.416
21
-6.05643
0
LINE
8
BLACK
6
CONTINUOUS
10
40.416
20
-6.05643
11
40.1302
21
-6.05643
0
LINE
8
BLACK
6
CONTINUOUS
10
40.1302
20
-6.05643
11
39.9398
21
-6.15167
0
LINE
8
BLACK
6
CONTINUOUS
10
39.9398
20
-6.15167
11
39.8445
21
-6.2469
0
LINE
8
BLACK
6
CONTINUOUS
10
41.9398
20
-7.38976
11
41.7493
21
-7.29452
0
LINE
8
BLACK
6
CONTINUOUS
10
41.7493
20
-7.29452
11
41.654
21
-7.19928
0
LINE
8
BLACK
6
CONTINUOUS
10
41.654
20
-7.19928
11
41.5588
21
-7.00881
0
LINE
8
BLACK
6
CONTINUOUS
10
41.5588
20
-7.00881
11
41.5588
21
-6.43738
0
LINE
8
BLACK
6
CONTINUOUS
10
41.5588
20
-6.43738
11
41.654
21
-6.2469
0
LINE
8
BLACK
6
CONTINUOUS
10
41.654
20
-6.2469
11
41.7493
21
-6.15167
0
LINE
8
BLACK
6
CONTINUOUS
10
41.7493
20
-6.15167
11
41.9398
21
-6.05643
0
LINE
8
BLACK
6
CONTINUOUS
10
41.9398
20
-6.05643
11
42.2255
21
-6.05643
0
LINE
8
BLACK
6
CONTINUOUS
10
42.2255
20
-6.05643
11
42.416
21
-6.15167
0
LINE
8
BLACK
6
CONTINUOUS
10
42.416
20
-6.15167
11
42.5112
21
-6.2469
0
LINE
8
BLACK
6
CONTINUOUS
10
42.5112
20
-6.2469
11
42.6064
21
-6.43738
0
LINE
8
BLACK
6
CONTINUOUS
10
42.6064
20
-6.43738
11
42.6064
21
-7.00881
0
LINE
8
BLACK
6
CONTINUOUS
10
42.6064
20
-7.00881
11
42.5112
21
-7.19928
0
LINE
8
BLACK
6
CONTINUOUS
10
42.5112
20
-7.19928
11
42.416
21
-7.29452
0
LINE
8
BLACK
6
CONTINUOUS
10
42.416
20
-7.29452
11
42.2255
21
-7.38976
0
LINE
8
BLACK
6
CONTINUOUS
10
42.2255
20
-7.38976
11
41.9398
21
-7.38976
0
LINE
8
BLACK
6
CONTINUOUS
10
43.7493
20
-7.38976
11
43.5588
21
-7.29452
0
LINE
8
BLACK
6
CONTINUOUS
10
43.5588
20
-7.29452
11
43.4636
21
-7.10405
0
LINE
8
BLACK
6
CONTINUOUS
10
43.4636
20
-7.10405
11
43.4636
21
-5.38976
0
LINE
8
BLACK
6
CONTINUOUS
10
45.2731
20
-7.29452
11
45.0826
21
-7.38976
0
LINE
8
BLACK
6
CONTINUOUS
10
45.0826
20
-7.38976
11
44.7017
21
-7.38976
0
LINE
8
BLACK
6
CONTINUOUS
10
44.7017
20
-7.38976
11
44.5112
21
-7.29452
0
LINE
8
BLACK
6
CONTINUOUS
10
44.5112
20
-7.29452
11
44.416
21
-7.10405
0
LINE
8
BLACK
6
CONTINUOUS
10
44.416
20
-7.10405
11
44.416
21
-6.34214
0
LINE
8
BLACK
6
CONTINUOUS
10
44.416
20
-6.34214
11
44.5112
21
-6.15167
0
LINE
8
BLACK
6
CONTINUOUS
10
44.5112
20
-6.15167
11
44.7017
21
-6.05643
0
LINE
8
BLACK
6
CONTINUOUS
10
44.7017
20
-6.05643
11
45.0826
21
-6.05643
0
LINE
8
BLACK
6
CONTINUOUS
10
45.0826
20
-6.05643
11
45.2731
21
-6.15167
0
LINE
8
BLACK
6
CONTINUOUS
10
45.2731
20
-6.15167
11
45.3683
21
-6.34214
0
LINE
8
BLACK
6
CONTINUOUS
10
45.3683
20
-6.34214
11
45.3683
21
-6.53262
0
LINE
8
BLACK
6
CONTINUOUS
10
45.3683
20
-6.53262
11
44.416
21
-6.72309
0
LINE
8
BLACK
6
CONTINUOUS
10
46.1302
20
-7.29452
11
46.3207
21
-7.38976
0
LINE
8
BLACK
6
CONTINUOUS
10
46.3207
20
-7.38976
11
46.7017
21
-7.38976
0
LINE
8
BLACK
6
CONTINUOUS
10
46.7017
20
-7.38976
11
46.8921
21
-7.29452
0
LINE
8
BLACK
6
CONTINUOUS
10
46.8921
20
-7.29452
11
46.9874
21
-7.10405
0
LINE
8
BLACK
6
CONTINUOUS
10
46.9874
20
-7.10405
11
46.9874
21
-7.00881
0
LINE
8
BLACK
6
CONTINUOUS
10
46.9874
20
-7.00881
11
46.8921
21
-6.81833
0
LINE
8
BLACK
6
CONTINUOUS
10
46.8921
20
-6.81833
11
46.7017
21
-6.72309
0
LINE
8
BLACK
6
CONTINUOUS
10
46.7017
20
-6.72309
11
46.416
21
-6.72309
0
LINE
8
BLACK
6
CONTINUOUS
10
46.416
20
-6.72309
11
46.2255
21
-6.62786
0
LINE
8
BLACK
6
CONTINUOUS
10
46.2255
20
-6.62786
11
46.1302
21
-6.43738
0
LINE
8
BLACK
6
CONTINUOUS
10
46.1302
20
-6.43738
11
46.1302
21
-6.34214
0
LINE
8
BLACK
6
CONTINUOUS
10
46.1302
20
-6.34214
11
46.2255
21
-6.15167
0
LINE
8
BLACK
6
CONTINUOUS
10
46.2255
20
-6.15167
11
46.416
21
-6.05643
0
LINE
8
BLACK
6
CONTINUOUS
10
46.416
20
-6.05643
11
46.7017
21
-6.05643
0
LINE
8
BLACK
6
CONTINUOUS
10
46.7017
20
-6.05643
11
46.8921
21
-6.15167
0
LINE
8
BLACK
6
CONTINUOUS
10
47.654
20
-8.15167
11
47.7493
21
-8.05643
0
LINE
8
BLACK
6
CONTINUOUS
10
47.7493
20
-8.05643
11
47.9398
21
-7.77071
0
LINE
8
BLACK
6
CONTINUOUS
10
47.9398
20
-7.77071
11
48.035
21
-7.58024
0
LINE
8
BLACK
6
CONTINUOUS
10
48.035
20
-7.58024
11
48.1302
21
-7.29452
0
LINE
8
BLACK
6
CONTINUOUS
10
48.1302
20
-7.29452
11
48.2255
21
-6.81833
0
LINE
8
BLACK
6
CONTINUOUS
10
48.2255
20
-6.81833
11
48.2255
21
-6.43738
0
LINE
8
BLACK
6
CONTINUOUS
10
48.2255
20
-6.43738
11
48.1302
21
-5.96119
0
LINE
8
BLACK
6
CONTINUOUS
10
48.1302
20
-5.96119
11
48.035
21
-5.67548
0
LINE
8
BLACK
6
CONTINUOUS
10
48.035
20
-5.67548
11
47.9398
21
-5.485
0
LINE
8
BLACK
6
CONTINUOUS
10
47.9398
20
-5.485
11
47.7493
21
-5.19928
0
LINE
8
BLACK
6
CONTINUOUS
10
47.7493
20
-5.19928
11
47.654
21
-5.10405
0
LINE
8
BLACK
6
CONTINUOUS
10
51.2731
20
-8.15167
11
51.1779
21
-8.05643
0
LINE
8
BLACK
6
CONTINUOUS
10
51.1779
20
-8.05643
11
50.9874
21
-7.77071
0
LINE
8
BLACK
6
CONTINUOUS
10
50.9874
20
-7.77071
11
50.8921
21
-7.58024
0
LINE
8
BLACK
6
CONTINUOUS
10
50.8921
20
-7.58024
11
50.7969
21
-7.29452
0
LINE
8
BLACK
6
CONTINUOUS
10
50.7969
20
-7.29452
11
50.7017
21
-6.81833
0
LINE
8
BLACK
6
CONTINUOUS
10
50.7017
20
-6.81833
11
50.7017
21
-6.43738
0
LINE
8
BLACK
6
CONTINUOUS
10
50.7017
20
-6.43738
11
50.7969
21
-5.96119
0
LINE
8
BLACK
6
CONTINUOUS
10
50.7969
20
-5.96119
11
50.8921
21
-5.67548
0
LINE
8
BLACK
6
CONTINUOUS
10
50.8921
20
-5.67548
11
50.9874
21
-5.485
0
LINE
8
BLACK
6
CONTINUOUS
10
50.9874
20
-5.485
11
51.1779
21
-5.19928
0
LINE
8
BLACK
6
CONTINUOUS
10
51.1779
20
-5.19928
11
51.2731
21
-5.10405
0
LINE
8
BLACK
6
CONTINUOUS
10
52.035
20
-6.05643
11
52.035
21
-7.38976
0
LINE
8
BLACK
6
CONTINUOUS
10
52.035
20
-6.2469
11
52.1302
21
-6.15167
0
LINE
8
BLACK
6
CONTINUOUS
10
52.1302
20
-6.15167
11
52.3207
21
-6.05643
0
LINE
8
BLACK
6
CONTINUOUS
10
52.3207
20
-6.05643
11
52.6064
21
-6.05643
0
LINE
8
BLACK
6
CONTINUOUS
10
52.6064
20
-6.05643
11
52.7969
21
-6.15167
0
LINE
8
BLACK
6
CONTINUOUS
10
52.7969
20
-6.15167
11
52.8921
21
-6.34214
0
LINE
8
BLACK
6
CONTINUOUS
10
52.8921
20
-6.34214
11
52.8921
21
-7.38976
0
LINE
8
BLACK
6
CONTINUOUS
10
54.1302
20
-7.38976
11
53.9398
21
-7.29452
0
LINE
8
BLACK
6
CONTINUOUS
10
53.9398
20
-7.29452
11
53.8445
21
-7.19928
0
LINE
8
BLACK
6
CONTINUOUS
10
53.8445
20
-7.19928
11
53.7493
21
-7.00881
0
LINE
8
BLACK
6
CONTINUOUS
10
53.7493
20
-7.00881
11
53.7493
21
-6.43738
0
LINE
8
BLACK
6
CONTINUOUS
10
53.7493
20
-6.43738
11
53.8445
21
-6.2469
0
LINE
8
BLACK
6
CONTINUOUS
10
53.8445
20
-6.2469
11
53.9398
21
-6.15167
0
LINE
8
BLACK
6
CONTINUOUS
10
53.9398
20
-6.15167
11
54.1302
21
-6.05643
0
LINE
8
BLACK
6
CONTINUOUS
10
54.1302
20
-6.05643
11
54.416
21
-6.05643
0
LINE
8
BLACK
6
CONTINUOUS
10
54.416
20
-6.05643
11
54.6064
21
-6.15167
0
LINE
8
BLACK
6
CONTINUOUS
10
54.6064
20
-6.15167
11
54.7017
21
-6.2469
0
LINE
8
BLACK
6
CONTINUOUS
10
54.7017
20
-6.2469
11
54.7969
21
-6.43738
0
LINE
8
BLACK
6
CONTINUOUS
10
54.7969
20
-6.43738
11
54.7969
21
-7.00881
0
LINE
8
BLACK
6
CONTINUOUS
10
54.7969
20
-7.00881
11
54.7017
21
-7.19928
0
LINE
8
BLACK
6
CONTINUOUS
10
54.7017
20
-7.19928
11
54.6064
21
-7.29452
0
LINE
8
BLACK
6
CONTINUOUS
10
54.6064
20
-7.29452
11
54.416
21
-7.38976
0
LINE
8
BLACK
6
CONTINUOUS
10
54.416
20
-7.38976
11
54.1302
21
-7.38976
0
LINE
8
BLACK
6
CONTINUOUS
10
55.3683
20
-6.05643
11
56.1302
21
-6.05643
0
LINE
8
BLACK
6
CONTINUOUS
10
55.654
20
-5.38976
11
55.654
21
-7.10405
0
LINE
8
BLACK
6
CONTINUOUS
10
55.654
20
-7.10405
11
55.7493
21
-7.29452
0
LINE
8
BLACK
6
CONTINUOUS
10
55.7493
20
-7.29452
11
55.9398
21
-7.38976
0
LINE
8
BLACK
6
CONTINUOUS
10
55.9398
20
-7.38976
11
56.1302
21
-7.38976
0
LINE
8
BLACK
6
CONTINUOUS
10
58.3207
20
-6.05643
11
58.3207
21
-8.05643
0
LINE
8
BLACK
6
CONTINUOUS
10
58.3207
20
-6.15167
11
58.5112
21
-6.05643
0
LINE
8
BLACK
6
CONTINUOUS
10
58.5112
20
-6.05643
11
58.8921
21
-6.05643
0
LINE
8
BLACK
6
CONTINUOUS
10
58.8921
20
-6.05643
11
59.0826
21
-6.15167
0
LINE
8
BLACK
6
CONTINUOUS
10
59.0826
20
-6.15167
11
59.1779
21
-6.2469
0
LINE
8
BLACK
6
CONTINUOUS
10
59.1779
20
-6.2469
11
59.2731
21
-6.43738
0
LINE
8
BLACK
6
CONTINUOUS
10
59.2731
20
-6.43738
11
59.2731
21
-7.00881
0
LINE
8
BLACK
6
CONTINUOUS
10
59.2731
20
-7.00881
11
59.1779
21
-7.19928
0
LINE
8
BLACK
6
CONTINUOUS
10
59.1779
20
-7.19928
11
59.0826
21
-7.29452
0
LINE
8
BLACK
6
CONTINUOUS
10
59.0826
20
-7.29452
11
58.8921
21
-7.38976
0
LINE
8
BLACK
6
CONTINUOUS
10
58.8921
20
-7.38976
11
58.5112
21
-7.38976
0
LINE
8
BLACK
6
CONTINUOUS
10
58.5112
20
-7.38976
11
58.3207
21
-7.29452
0
LINE
8
BLACK
6
CONTINUOUS
10
60.416
20
-7.38976
11
60.2255
21
-7.29452
0
LINE
8
BLACK
6
CONTINUOUS
10
60.2255
20
-7.29452
11
60.1302
21
-7.10405
0
LINE
8
BLACK
6
CONTINUOUS
10
60.1302
20
-7.10405
11
60.1302
21
-5.38976
0
LINE
8
BLACK
6
CONTINUOUS
10
62.035
20
-7.38976
11
62.035
21
-6.34214
0
LINE
8
BLACK
6
CONTINUOUS
10
62.035
20
-6.34214
11
61.9398
21
-6.15167
0
LINE
8
BLACK
6
CONTINUOUS
10
61.9398
20
-6.15167
11
61.7493
21
-6.05643
0
LINE
8
BLACK
6
CONTINUOUS
10
61.7493
20
-6.05643
11
61.3683
21
-6.05643
0
LINE
8
BLACK
6
CONTINUOUS
10
61.3683
20
-6.05643
11
61.1779
21
-6.15167
0
LINE
8
BLACK
6
CONTINUOUS
10
62.035
20
-7.29452
11
61.8445
21
-7.38976
0
LINE
8
BLACK
6
CONTINUOUS
10
61.8445
20
-7.38976
11
61.3683
21
-7.38976
0
LINE
8
BLACK
6
CONTINUOUS
10
61.3683
20
-7.38976
11
61.1779
21
-7.29452
0
LINE
8
BLACK
6
CONTINUOUS
10
61.1779
20
-7.29452
11
61.0826
21
-7.10405
0
LINE
8
BLACK
6
CONTINUOUS
10
61.0826
20
-7.10405
11
61.0826
21
-6.91357
0
LINE
8
BLACK
6
CONTINUOUS
10
61.0826
20
-6.91357
11
61.1779
21
-6.72309
0
LINE
8
BLACK
6
CONTINUOUS
10
61.1779
20
-6.72309
11
61.3683
21
-6.62786
0
LINE
8
BLACK
6
CONTINUOUS
10
61.3683
20
-6.62786
11
61.8445
21
-6.62786
0
LINE
8
BLACK
6
CONTINUOUS
10
61.8445
20
-6.62786
11
62.035
21
-6.53262
0
LINE
8
BLACK
6
CONTINUOUS
10
62.7017
20
-6.05643
11
63.4636
21
-6.05643
0
LINE
8
BLACK
6
CONTINUOUS
10
62.9874
20
-5.38976
11
62.9874
21
-7.10405
0
LINE
8
BLACK
6
CONTINUOUS
10
62.9874
20
-7.10405
11
63.0826
21
-7.29452
0
LINE
8
BLACK
6
CONTINUOUS
10
63.0826
20
-7.29452
11
63.2731
21
-7.38976
0
LINE
8
BLACK
6
CONTINUOUS
10
63.2731
20
-7.38976
11
63.4636
21
-7.38976
0
LINE
8
BLACK
6
CONTINUOUS
10
64.8921
20
-7.29452
11
64.7017
21
-7.38976
0
LINE
8
BLACK
6
CONTINUOUS
10
64.7017
20
-7.38976
11
64.3207
21
-7.38976
0
LINE
8
BLACK
6
CONTINUOUS
10
64.3207
20
-7.38976
11
64.1302
21
-7.29452
0
LINE
8
BLACK
6
CONTINUOUS
10
64.1302
20
-7.29452
11
64.035
21
-7.10405
0
LINE
8
BLACK
6
CONTINUOUS
10
64.035
20
-7.10405
11
64.035
21
-6.34214
0
LINE
8
BLACK
6
CONTINUOUS
10
64.035
20
-6.34214
11
64.1302
21
-6.15167
0
LINE
8
BLACK
6
CONTINUOUS
10
64.1302
20
-6.15167
11
64.3207
21
-6.05643
0
LINE
8
BLACK
6
CONTINUOUS
10
64.3207
20
-6.05643
11
64.7017
21
-6.05643
0
LINE
8
BLACK
6
CONTINUOUS
10
64.7017
20
-6.05643
11
64.8921
21
-6.15167
0
LINE
8
BLACK
6
CONTINUOUS
10
64.8921
20
-6.15167
11
64.9874
21
-6.34214
0
LINE
8
BLACK
6
CONTINUOUS
10
64.9874
20
-6.34214
11
64.9874
21
-6.53262
0
LINE
8
BLACK
6
CONTINUOUS
10
64.9874
20
-6.53262
11
64.035
21
-6.72309
0
LINE
8
BLACK
6
CONTINUOUS
10
66.7017
20
-7.38976
11
66.7017
21
-5.38976
0
LINE
8
BLACK
6
CONTINUOUS
10
66.7017
20
-7.29452
11
66.5112
21
-7.38976
0
LINE
8
BLACK
6
CONTINUOUS
10
66.5112
20
-7.38976
11
66.1302
21
-7.38976
0
LINE
8
BLACK
6
CONTINUOUS
10
66.1302
20
-7.38976
11
65.9398
21
-7.29452
0
LINE
8
BLACK
6
CONTINUOUS
10
65.9398
20
-7.29452
11
65.8445
21
-7.19928
0
LINE
8
BLACK
6
CONTINUOUS
10
65.8445
20
-7.19928
11
65.7493
21
-7.00881
0
LINE
8
BLACK
6
CONTINUOUS
10
65.7493
20
-7.00881
11
65.7493
21
-6.43738
0
LINE
8
BLACK
6
CONTINUOUS
10
65.7493
20
-6.43738
11
65.8445
21
-6.2469
0
LINE
8
BLACK
6
CONTINUOUS
10
65.8445
20
-6.2469
11
65.9398
21
-6.15167
0
LINE
8
BLACK
6
CONTINUOUS
10
65.9398
20
-6.15167
11
66.1302
21
-6.05643
0
LINE
8
BLACK
6
CONTINUOUS
10
66.1302
20
-6.05643
11
66.5112
21
-6.05643
0
LINE
8
BLACK
6
CONTINUOUS
10
66.5112
20
-6.05643
11
66.7017
21
-6.15167
0
LINE
8
BLACK
6
CONTINUOUS
10
67.4636
20
-8.15167
11
67.5588
21
-8.05643
0
LINE
8
BLACK
6
CONTINUOUS
10
67.5588
20
-8.05643
11
67.7493
21
-7.77071
0
LINE
8
BLACK
6
CONTINUOUS
10
67.7493
20
-7.77071
11
67.8445
21
-7.58024
0
LINE
8
BLACK
6
CONTINUOUS
10
67.8445
20
-7.58024
11
67.9398
21
-7.29452
0
LINE
8
BLACK
6
CONTINUOUS
10
67.9398
20
-7.29452
11
68.035
21
-6.81833
0
LINE
8
BLACK
6
CONTINUOUS
10
68.035
20
-6.81833
11
68.035
21
-6.43738
0
LINE
8
BLACK
6
CONTINUOUS
10
68.035
20
-6.43738
11
67.9398
21
-5.96119
0
LINE
8
BLACK
6
CONTINUOUS
10
67.9398
20
-5.96119
11
67.8445
21
-5.67548
0
LINE
8
BLACK
6
CONTINUOUS
10
67.8445
20
-5.67548
11
67.7493
21
-5.485
0
LINE
8
BLACK
6
CONTINUOUS
10
67.7493
20
-5.485
11
67.5588
21
-5.19928
0
LINE
8
BLACK
6
CONTINUOUS
10
67.5588
20
-5.19928
11
67.4636
21
-5.10405
0
CIRCLE
8
BLACK
10
-1.065
20
-9.125
40
1
0
LINE
8
BLACK
6
CONTINUOUS
10
2.41595
20
-8.22024
11
2.51119
21
-8.125
0
LINE
8
BLACK
6
CONTINUOUS
10
2.51119
20
-8.125
11
2.70167
21
-8.02976
0
LINE
8
BLACK
6
CONTINUOUS
10
2.70167
20
-8.02976
11
3.17786
21
-8.02976
0
LINE
8
BLACK
6
CONTINUOUS
10
3.17786
20
-8.02976
11
3.36833
21
-8.125
0
LINE
8
BLACK
6
CONTINUOUS
10
3.36833
20
-8.125
11
3.46357
21
-8.22024
0
LINE
8
BLACK
6
CONTINUOUS
10
3.46357
20
-8.22024
11
3.55881
21
-8.41071
0
LINE
8
BLACK
6
CONTINUOUS
10
3.55881
20
-8.41071
11
3.55881
21
-8.60119
0
LINE
8
BLACK
6
CONTINUOUS
10
3.55881
20
-8.60119
11
3.46357
21
-8.8869
0
LINE
8
BLACK
6
CONTINUOUS
10
3.46357
20
-8.8869
11
2.32071
21
-10.0298
0
LINE
8
BLACK
6
CONTINUOUS
10
2.32071
20
-10.0298
11
3.55881
21
-10.0298
0
LINE
8
BLACK
6
CONTINUOUS
10
4.41595
20
-9.83929
11
4.51119
21
-9.93452
0
LINE
8
BLACK
6
CONTINUOUS
10
4.51119
20
-9.93452
11
4.41595
21
-10.0298
0
LINE
8
BLACK
6
CONTINUOUS
10
4.41595
20
-10.0298
11
4.32071
21
-9.93452
0
LINE
8
BLACK
6
CONTINUOUS
10
4.32071
20
-9.93452
11
4.41595
21
-9.83929
0
LINE
8
BLACK
6
CONTINUOUS
10
4.41595
20
-9.83929
11
4.41595
21
-10.0298
0
LINE
8
BLACK
6
CONTINUOUS
10
6.22548
20
-8.02976
11
5.84452
21
-8.02976
0
LINE
8
BLACK
6
CONTINUOUS
10
5.84452
20
-8.02976
11
5.65405
21
-8.125
0
LINE
8
BLACK
6
CONTINUOUS
10
5.65405
20
-8.125
11
5.55881
21
-8.22024
0
LINE
8
BLACK
6
CONTINUOUS
10
5.55881
20
-8.22024
11
5.36833
21
-8.50595
0
LINE
8
BLACK
6
CONTINUOUS
10
5.36833
20
-8.50595
11
5.27309
21
-8.8869
0
LINE
8
BLACK
6
CONTINUOUS
10
5.27309
20
-8.8869
11
5.27309
21
-9.64881
0
LINE
8
BLACK
6
CONTINUOUS
10
5.27309
20
-9.64881
11
5.36833
21
-9.83929
0
LINE
8
BLACK
6
CONTINUOUS
10
5.36833
20
-9.83929
11
5.46357
21
-9.93452
0
LINE
8
BLACK
6
CONTINUOUS
10
5.46357
20
-9.93452
11
5.65405
21
-10.0298
0
LINE
8
BLACK
6
CONTINUOUS
10
5.65405
20
-10.0298
11
6.035
21
-10.0298
0
LINE
8
BLACK
6
CONTINUOUS
10
6.035
20
-10.0298
11
6.22548
21
-9.93452
0
LINE
8
BLACK
6
CONTINUOUS
10
6.22548
20
-9.93452
11
6.32071
21
-9.83929
0
LINE
8
BLACK
6
CONTINUOUS
10
6.32071
20
-9.83929
11
6.41595
21
-9.64881
0
LINE
8
BLACK
6
CONTINUOUS
10
6.41595
20
-9.64881
11
6.41595
21
-9.17262
0
LINE
8
BLACK
6
CONTINUOUS
10
6.41595
20
-9.17262
11
6.32071
21
-8.98214
0
LINE
8
BLACK
6
CONTINUOUS
10
6.32071
20
-8.98214
11
6.22548
21
-8.8869
0
LINE
8
BLACK
6
CONTINUOUS
10
6.22548
20
-8.8869
11
6.035
21
-8.79167
0
LINE
8
BLACK
6
CONTINUOUS
10
6.035
20
-8.79167
11
5.65405
21
-8.79167
0
LINE
8
BLACK
6
CONTINUOUS
10
5.65405
20
-8.79167
11
5.46357
21
-8.8869
0
LINE
8
BLACK
6
CONTINUOUS
10
5.46357
20
-8.8869
11
5.36833
21
-8.98214
0
LINE
8
BLACK
6
CONTINUOUS
10
5.36833
20
-8.98214
11
5.27309
21
-9.17262
0
LINE
8
BLACK
6
CONTINUOUS
10
7.65405
20
-8.02976
11
7.84452
21
-8.02976
0
LINE
8
BLACK
6
CONTINUOUS
10
7.84452
20
-8.02976
11
8.035
21
-8.125
0
LINE
8
BLACK
6
CONTINUOUS
10
8.035
20
-8.125
11
8.13024
21
-8.22024
0
LINE
8
BLACK
6
CONTINUOUS
10
8.13024
20
-8.22024
11
8.22548
21
-8.41071
0
LINE
8
BLACK
6
CONTINUOUS
10
8.22548
20
-8.41071
11
8.32071
21
-8.79167
0
LINE
8
BLACK
6
CONTINUOUS
10
8.32071
20
-8.79167
11
8.32071
21
-9.26786
0
LINE
8
BLACK
6
CONTINUOUS
10
8.32071
20
-9.26786
11
8.22548
21
-9.64881
0
LINE
8
BLACK
6
CONTINUOUS
10
8.22548
20
-9.64881
11
8.13024
21
-9.83929
0
LINE
8
BLACK
6
CONTINUOUS
10
8.13024
20
-9.83929
11
8.035
21
-9.93452
0
LINE
8
BLACK
6
CONTINUOUS
10
8.035
20
-9.93452
11
7.84452
21
-10.0298
0
LINE
8
BLACK
6
CONTINUOUS
10
7.84452
20
-10.0298
11
7.65405
21
-10.0298
0
LINE
8
BLACK
6
CONTINUOUS
10
7.65405
20
-10.0298
11
7.46357
21
-9.93452
0
LINE
8
BLACK
6
CONTINUOUS
10
7.46357
20
-9.93452
11
7.36833
21
-9.83929
0
LINE
8
BLACK
6
CONTINUOUS
10
7.36833
20
-9.83929
11
7.27309
21
-9.64881
0
LINE
8
BLACK
6
CONTINUOUS
10
7.27309
20
-9.64881
11
7.17786
21
-9.26786
0
LINE
8
BLACK
6
CONTINUOUS
10
7.17786
20
-9.26786
11
7.17786
21
-8.79167
0
LINE
8
BLACK
6
CONTINUOUS
10
7.17786
20
-8.79167
11
7.27309
21
-8.41071
0
LINE
8
BLACK
6
CONTINUOUS
10
7.27309
20
-8.41071
11
7.36833
21
-8.22024
0
LINE
8
BLACK
6
CONTINUOUS
10
7.36833
20
-8.22024
11
7.46357
21
-8.125
0
LINE
8
BLACK
6
CONTINUOUS
10
7.46357
20
-8.125
11
7.65405
21
-8.02976
0
LINE
8
BLACK
6
CONTINUOUS
10
9.55881
20
-8.02976
11
9.74929
21
-8.02976
0
LINE
8
BLACK
6
CONTINUOUS
10
9.74929
20
-8.02976
11
9.93976
21
-8.125
0
LINE
8
BLACK
6
CONTINUOUS
10
9.93976
20
-8.125
11
10.035
21
-8.22024
0
LINE
8
BLACK
6
CONTINUOUS
10
10.035
20
-8.22024
11
10.1302
21
-8.41071
0
LINE
8
BLACK
6
CONTINUOUS
10
10.1302
20
-8.41071
11
10.2255
21
-8.79167
0
LINE
8
BLACK
6
CONTINUOUS
10
10.2255
20
-8.79167
11
10.2255
21
-9.26786
0
LINE
8
BLACK
6
CONTINUOUS
10
10.2255
20
-9.26786
11
10.1302
21
-9.64881
0
LINE
8
BLACK
6
CONTINUOUS
10
10.1302
20
-9.64881
11
10.035
21
-9.83929
0
LINE
8
BLACK
6
CONTINUOUS
10
10.035
20
-9.83929
11
9.93976
21
-9.93452
0
LINE
8
BLACK
6
CONTINUOUS
10
9.93976
20
-9.93452
11
9.74929
21
-10.0298
0
LINE
8
BLACK
6
CONTINUOUS
10
9.74929
20
-10.0298
11
9.55881
21
-10.0298
0
LINE
8
BLACK
6
CONTINUOUS
10
9.55881
20
-10.0298
11
9.36833
21
-9.93452
0
LINE
8
BLACK
6
CONTINUOUS
10
9.36833
20
-9.93452
11
9.27309
21
-9.83929
0
LINE
8
BLACK
6
CONTINUOUS
10
9.27309
20
-9.83929
11
9.17786
21
-9.64881
0
LINE
8
BLACK
6
CONTINUOUS
10
9.17786
20
-9.64881
11
9.08262
21
-9.26786
0
LINE
8
BLACK
6
CONTINUOUS
10
9.08262
20
-9.26786
11
9.08262
21
-8.79167
0
LINE
8
BLACK
6
CONTINUOUS
10
9.08262
20
-8.79167
11
9.17786
21
-8.41071
0
LINE
8
BLACK
6
CONTINUOUS
10
9.17786
20
-8.41071
11
9.27309
21
-8.22024
0
LINE
8
BLACK
6
CONTINUOUS
10
9.27309
20
-8.22024
11
9.36833
21
-8.125
0
LINE
8
BLACK
6
CONTINUOUS
10
9.36833
20
-8.125
11
9.55881
21
-8.02976
0
LINE
8
BLACK
6
CONTINUOUS
10
11.0826
20
-10.0298
11
11.0826
21
-8.69643
0
LINE
8
BLACK
6
CONTINUOUS
10
11.0826
20
-8.8869
11
11.1779
21
-8.79167
0
LINE
8
BLACK
6
CONTINUOUS
10
11.1779
20
-8.79167
11
11.3683
21
-8.69643
0
LINE
8
BLACK
6
CONTINUOUS
10
11.3683
20
-8.69643
11
11.654
21
-8.69643
0
LINE
8
BLACK
6
CONTINUOUS
10
11.654
20
-8.69643
11
11.8445
21
-8.79167
0
LINE
8
BLACK
6
CONTINUOUS
10
11.8445
20
-8.79167
11
11.9398
21
-8.98214
0
LINE
8
BLACK
6
CONTINUOUS
10
11.9398
20
-8.98214
11
11.9398
21
-10.0298
0
LINE
8
BLACK
6
CONTINUOUS
10
11.9398
20
-8.98214
11
12.035
21
-8.79167
0
LINE
8
BLACK
6
CONTINUOUS
10
12.035
20
-8.79167
11
12.2255
21
-8.69643
0
LINE
8
BLACK
6
CONTINUOUS
10
12.2255
20
-8.69643
11
12.5112
21
-8.69643
0
LINE
8
BLACK
6
CONTINUOUS
10
12.5112
20
-8.69643
11
12.7017
21
-8.79167
0
LINE
8
BLACK
6
CONTINUOUS
10
12.7017
20
-8.79167
11
12.7969
21
-8.98214
0
LINE
8
BLACK
6
CONTINUOUS
10
12.7969
20
-8.98214
11
12.7969
21
-10.0298
0
LINE
8
BLACK
6
CONTINUOUS
10
13.7493
20
-10.0298
11
13.7493
21
-8.69643
0
LINE
8
BLACK
6
CONTINUOUS
10
13.7493
20
-8.8869
11
13.8445
21
-8.79167
0
LINE
8
BLACK
6
CONTINUOUS
10
13.8445
20
-8.79167
11
14.035
21
-8.69643
0
LINE
8
BLACK
6
CONTINUOUS
10
14.035
20
-8.69643
11
14.3207
21
-8.69643
0
LINE
8
BLACK
6
CONTINUOUS
10
14.3207
20
-8.69643
11
14.5112
21
-8.79167
0
LINE
8
BLACK
6
CONTINUOUS
10
14.5112
20
-8.79167
11
14.6064
21
-8.98214
0
LINE
8
BLACK
6
CONTINUOUS
10
14.6064
20
-8.98214
11
14.6064
21
-10.0298
0
LINE
8
BLACK
6
CONTINUOUS
10
14.6064
20
-8.98214
11
14.7017
21
-8.79167
0
LINE
8
BLACK
6
CONTINUOUS
10
14.7017
20
-8.79167
11
14.8921
21
-8.69643
0
LINE
8
BLACK
6
CONTINUOUS
10
14.8921
20
-8.69643
11
15.1779
21
-8.69643
0
LINE
8
BLACK
6
CONTINUOUS
10
15.1779
20
-8.69643
11
15.3683
21
-8.79167
0
LINE
8
BLACK
6
CONTINUOUS
10
15.3683
20
-8.79167
11
15.4636
21
-8.98214
0
LINE
8
BLACK
6
CONTINUOUS
10
15.4636
20
-8.98214
11
15.4636
21
-10.0298
0
LINE
8
BLACK
6
CONTINUOUS
10
19.3683
20
-7.93452
11
17.654
21
-10.506
0
LINE
8
BLACK
6
CONTINUOUS
10
21.9398
20
-8.02976
11
22.1302
21
-8.02976
0
LINE
8
BLACK
6
CONTINUOUS
10
22.1302
20
-8.02976
11
22.3207
21
-8.125
0
LINE
8
BLACK
6
CONTINUOUS
10
22.3207
20
-8.125
11
22.416
21
-8.22024
0
LINE
8
BLACK
6
CONTINUOUS
10
22.416
20
-8.22024
11
22.5112
21
-8.41071
0
LINE
8
BLACK
6
CONTINUOUS
10
22.5112
20
-8.41071
11
22.6064
21
-8.79167
0
LINE
8
BLACK
6
CONTINUOUS
10
22.6064
20
-8.79167
11
22.6064
21
-9.26786
0
LINE
8
BLACK
6
CONTINUOUS
10
22.6064
20
-9.26786
11
22.5112
21
-9.64881
0
LINE
8
BLACK
6
CONTINUOUS
10
22.5112
20
-9.64881
11
22.416
21
-9.83929
0
LINE
8
BLACK
6
CONTINUOUS
10
22.416
20
-9.83929
11
22.3207
21
-9.93452
0
LINE
8
BLACK
6
CONTINUOUS
10
22.3207
20
-9.93452
11
22.1302
21
-10.0298
0
LINE
8
BLACK
6
CONTINUOUS
10
22.1302
20
-10.0298
11
21.9398
21
-10.0298
0
LINE
8
BLACK
6
CONTINUOUS
10
21.9398
20
-10.0298
11
21.7493
21
-9.93452
0
LINE
8
BLACK
6
CONTINUOUS
10
21.7493
20
-9.93452
11
21.654
21
-9.83929
0
LINE
8
BLACK
6
CONTINUOUS
10
21.654
20
-9.83929
11
21.5588
21
-9.64881
0
LINE
8
BLACK
6
CONTINUOUS
10
21.5588
20
-9.64881
11
21.4636
21
-9.26786
0
LINE
8
BLACK
6
CONTINUOUS
10
21.4636
20
-9.26786
11
21.4636
21
-8.79167
0
LINE
8
BLACK
6
CONTINUOUS
10
21.4636
20
-8.79167
11
21.5588
21
-8.41071
0
LINE
8
BLACK
6
CONTINUOUS
10
21.5588
20
-8.41071
11
21.654
21
-8.22024
0
LINE
8
BLACK
6
CONTINUOUS
10
21.654
20
-8.22024
11
21.7493
21
-8.125
0
LINE
8
BLACK
6
CONTINUOUS
10
21.7493
20
-8.125
11
21.9398
21
-8.02976
0
LINE
8
BLACK
6
CONTINUOUS
10
23.4636
20
-9.83929
11
23.5588
21
-9.93452
0
LINE
8
BLACK
6
CONTINUOUS
10
23.5588
20
-9.93452
11
23.4636
21
-10.0298
0
LINE
8
BLACK
6
CONTINUOUS
10
23.4636
20
-10.0298
11
23.3683
21
-9.93452
0
LINE
8
BLACK
6
CONTINUOUS
10
23.3683
20
-9.93452
11
23.4636
21
-9.83929
0
LINE
8
BLACK
6
CONTINUOUS
10
23.4636
20
-9.83929
11
23.4636
21
-10.0298
0
LINE
8
BLACK
6
CONTINUOUS
10
25.4636
20
-10.0298
11
24.3207
21
-10.0298
0
LINE
8
BLACK
6
CONTINUOUS
10
24.8921
20
-10.0298
11
24.8921
21
-8.02976
0
LINE
8
BLACK
6
CONTINUOUS
10
24.8921
20
-8.02976
11
24.7017
21
-8.31548
0
LINE
8
BLACK
6
CONTINUOUS
10
24.7017
20
-8.31548
11
24.5112
21
-8.50595
0
LINE
8
BLACK
6
CONTINUOUS
10
24.5112
20
-8.50595
11
24.3207
21
-8.60119
0
LINE
8
BLACK
6
CONTINUOUS
10
26.7017
20
-8.02976
11
26.8921
21
-8.02976
0
LINE
8
BLACK
6
CONTINUOUS
10
26.8921
20
-8.02976
11
27.0826
21
-8.125
0
LINE
8
BLACK
6
CONTINUOUS
10
27.0826
20
-8.125
11
27.1779
21
-8.22024
0
LINE
8
BLACK
6
CONTINUOUS
10
27.1779
20
-8.22024
11
27.2731
21
-8.41071
0
LINE
8
BLACK
6
CONTINUOUS
10
27.2731
20
-8.41071
11
27.3683
21
-8.79167
0
LINE
8
BLACK
6
CONTINUOUS
10
27.3683
20
-8.79167
11
27.3683
21
-9.26786
0
LINE
8
BLACK
6
CONTINUOUS
10
27.3683
20
-9.26786
11
27.2731
21
-9.64881
0
LINE
8
BLACK
6
CONTINUOUS
10
27.2731
20
-9.64881
11
27.1779
21
-9.83929
0
LINE
8
BLACK
6
CONTINUOUS
10
27.1779
20
-9.83929
11
27.0826
21
-9.93452
0
LINE
8
BLACK
6
CONTINUOUS
10
27.0826
20
-9.93452
11
26.8921
21
-10.0298
0
LINE
8
BLACK
6
CONTINUOUS
10
26.8921
20
-10.0298
11
26.7017
21
-10.0298
0
LINE
8
BLACK
6
CONTINUOUS
10
26.7017
20
-10.0298
11
26.5112
21
-9.93452
0
LINE
8
BLACK
6
CONTINUOUS
10
26.5112
20
-9.93452
11
26.416
21
-9.83929
0
LINE
8
BLACK
6
CONTINUOUS
10
26.416
20
-9.83929
11
26.3207
21
-9.64881
0
LINE
8
BLACK
6
CONTINUOUS
10
26.3207
20
-9.64881
11
26.2255
21
-9.26786
0
LINE
8
BLACK
6
CONTINUOUS
10
26.2255
20
-9.26786
11
26.2255
21
-8.79167
0
LINE
8
BLACK
6
CONTINUOUS
10
26.2255
20
-8.79167
11
26.3207
21
-8.41071
0
LINE
8
BLACK
6
CONTINUOUS
10
26.3207
20
-8.41071
11
26.416
21
-8.22024
0
LINE
8
BLACK
6
CONTINUOUS
10
26.416
20
-8.22024
11
26.5112
21
-8.125
0
LINE
8
BLACK
6
CONTINUOUS
10
26.5112
20
-8.125
11
26.7017
21
-8.02976
0
LINE
8
BLACK
6
CONTINUOUS
10
28.1302
20
-8.22024
11
28.2255
21
-8.125
0
LINE
8
BLACK
6
CONTINUOUS
10
28.2255
20
-8.125
11
28.416
21
-8.02976
0
LINE
8
BLACK
6
CONTINUOUS
10
28.416
20
-8.02976
11
28.8921
21
-8.02976
0
LINE
8
BLACK
6
CONTINUOUS
10
28.8921
20
-8.02976
11
29.0826
21
-8.125
0
LINE
8
BLACK
6
CONTINUOUS
10
29.0826
20
-8.125
11
29.1779
21
-8.22024
0
LINE
8
BLACK
6
CONTINUOUS
10
29.1779
20
-8.22024
11
29.2731
21
-8.41071
0
LINE
8
BLACK
6
CONTINUOUS
10
29.2731
20
-8.41071
11
29.2731
21
-8.60119
0
LINE
8
BLACK
6
CONTINUOUS
10
29.2731
20
-8.60119
11
29.1779
21
-8.8869
0
LINE
8
BLACK
6
CONTINUOUS
10
29.1779
20
-8.8869
11
28.035
21
-10.0298
0
LINE
8
BLACK
6
CONTINUOUS
10
28.035
20
-10.0298
11
29.2731
21
-10.0298
0
LINE
8
BLACK
6
CONTINUOUS
10
30.9874
20
-8.69643
11
30.9874
21
-10.0298
0
LINE
8
BLACK
6
CONTINUOUS
10
30.5112
20
-7.93452
11
30.035
21
-9.36309
0
LINE
8
BLACK
6
CONTINUOUS
10
30.035
20
-9.36309
11
31.2731
21
-9.36309
0
LINE
8
BLACK
6
CONTINUOUS
10
31.9398
20
-8.02976
11
31.9398
21
-8.41071
0
LINE
8
BLACK
6
CONTINUOUS
10
32.7017
20
-8.02976
11
32.7017
21
-8.41071
0
LINE
8
BLACK
6
CONTINUOUS
10
35.654
20
-10.7917
11
35.5588
21
-10.6964
0
LINE
8
BLACK
6
CONTINUOUS
10
35.5588
20
-10.6964
11
35.3683
21
-10.4107
0
LINE
8
BLACK
6
CONTINUOUS
10
35.3683
20
-10.4107
11
35.2731
21
-10.2202
0
LINE
8
BLACK
6
CONTINUOUS
10
35.2731
20
-10.2202
11
35.1779
21
-9.93452
0
LINE
8
BLACK
6
CONTINUOUS
10
35.1779
20
-9.93452
11
35.0826
21
-9.45833
0
LINE
8
BLACK
6
CONTINUOUS
10
35.0826
20
-9.45833
11
35.0826
21
-9.07738
0
LINE
8
BLACK
6
CONTINUOUS
10
35.0826
20
-9.07738
11
35.1779
21
-8.60119
0
LINE
8
BLACK
6
CONTINUOUS
10
35.1779
20
-8.60119
11
35.2731
21
-8.31548
0
LINE
8
BLACK
6
CONTINUOUS
10
35.2731
20
-8.31548
11
35.3683
21
-8.125
0
LINE
8
BLACK
6
CONTINUOUS
10
35.3683
20
-8.125
11
35.5588
21
-7.83928
0
LINE
8
BLACK
6
CONTINUOUS
10
35.5588
20
-7.83928
11
35.654
21
-7.74405
0
LINE
8
BLACK
6
CONTINUOUS
10
36.2255
20
-8.02976
11
37.4636
21
-8.02976
0
LINE
8
BLACK
6
CONTINUOUS
10
37.4636
20
-8.02976
11
36.7969
21
-8.79167
0
LINE
8
BLACK
6
CONTINUOUS
10
36.7969
20
-8.79167
11
37.0826
21
-8.79167
0
LINE
8
BLACK
6
CONTINUOUS
10
37.0826
20
-8.79167
11
37.2731
21
-8.8869
0
LINE
8
BLACK
6
CONTINUOUS
10
37.2731
20
-8.8869
11
37.3683
21
-8.98214
0
LINE
8
BLACK
6
CONTINUOUS
10
37.3683
20
-8.98214
11
37.4636
21
-9.17262
0
LINE
8
BLACK
6
CONTINUOUS
10
37.4636
20
-9.17262
11
37.4636
21
-9.64881
0
LINE
8
BLACK
6
CONTINUOUS
10
37.4636
20
-9.64881
11
37.3683
21
-9.83929
0
LINE
8
BLACK
6
CONTINUOUS
10
37.3683
20
-9.83929
11
37.2731
21
-9.93452
0
LINE
8
BLACK
6
CONTINUOUS
10
37.2731
20
-9.93452
11
37.0826
21
-10.0298
0
LINE
8
BLACK
6
CONTINUOUS
10
37.0826
20
-10.0298
11
36.5112
21
-10.0298
0
LINE
8
BLACK
6
CONTINUOUS
10
36.5112
20
-10.0298
11
36.3207
21
-9.93452
0
LINE
8
BLACK
6
CONTINUOUS
10
36.3207
20
-9.93452
11
36.2255
21
-9.83929
0
LINE
8
BLACK
6
CONTINUOUS
10
39.8445
20
-10.0298
11
39.8445
21
-8.02976
0
LINE
8
BLACK
6
CONTINUOUS
10
40.7017
20
-10.0298
11
40.7017
21
-8.98214
0
LINE
8
BLACK
6
CONTINUOUS
10
40.7017
20
-8.98214
11
40.6064
21
-8.79167
0
LINE
8
BLACK
6
CONTINUOUS
10
40.6064
20
-8.79167
11
40.416
21
-8.69643
0
LINE
8
BLACK
6
CONTINUOUS
10
40.416
20
-8.69643
11
40.1302
21
-8.69643
0
LINE
8
BLACK
6
CONTINUOUS
10
40.1302
20
-8.69643
11
39.9398
21
-8.79167
0
LINE
8
BLACK
6
CONTINUOUS
10
39.9398
20
-8.79167
11
39.8445
21
-8.8869
0
LINE
8
BLACK
6
CONTINUOUS
10
41.9398
20
-10.0298
11
41.7493
21
-9.93452
0
LINE
8
BLACK
6
CONTINUOUS
10
41.7493
20
-9.93452
11
41.654
21
-9.83929
0
LINE
8
BLACK
6
CONTINUOUS
10
41.654
20
-9.83929
11
41.5588
21
-9.64881
0
LINE
8
BLACK
6
CONTINUOUS
10
41.5588
20
-9.64881
11
41.5588
21
-9.07738
0
LINE
8
BLACK
6
CONTINUOUS
10
41.5588
20
-9.07738
11
41.654
21
-8.8869
0
LINE
8
BLACK
6
CONTINUOUS
10
41.654
20
-8.8869
11
41.7493
21
-8.79167
0
LINE
8
BLACK
6
CONTINUOUS
10
41.7493
20
-8.79167
11
41.9398
21
-8.69643
0
LINE
8
BLACK
6
CONTINUOUS
10
41.9398
20
-8.69643
11
42.2255
21
-8.69643
0
LINE
8
BLACK
6
CONTINUOUS
10
42.2255
20
-8.69643
11
42.416
21
-8.79167
0
LINE
8
BLACK
6
CONTINUOUS
10
42.416
20
-8.79167
11
42.5112
21
-8.8869
0
LINE
8
BLACK
6
CONTINUOUS
10
42.5112
20
-8.8869
11
42.6064
21
-9.07738
0
LINE
8
BLACK
6
CONTINUOUS
10
42.6064
20
-9.07738
11
42.6064
21
-9.64881
0
LINE
8
BLACK
6
CONTINUOUS
10
42.6064
20
-9.64881
11
42.5112
21
-9.83929
0
LINE
8
BLACK
6
CONTINUOUS
10
42.5112
20
-9.83929
11
42.416
21
-9.93452
0
LINE
8
BLACK
6
CONTINUOUS
10
42.416
20
-9.93452
11
42.2255
21
-10.0298
0
LINE
8
BLACK
6
CONTINUOUS
10
42.2255
20
-10.0298
11
41.9398
21
-10.0298
0
LINE
8
BLACK
6
CONTINUOUS
10
43.7493
20
-10.0298
11
43.5588
21
-9.93452
0
LINE
8
BLACK
6
CONTINUOUS
10
43.5588
20
-9.93452
11
43.4636
21
-9.74405
0
LINE
8
BLACK
6
CONTINUOUS
10
43.4636
20
-9.74405
11
43.4636
21
-8.02976
0
LINE
8
BLACK
6
CONTINUOUS
10
45.2731
20
-9.93452
11
45.0826
21
-10.0298
0
LINE
8
BLACK
6
CONTINUOUS
10
45.0826
20
-10.0298
11
44.7017
21
-10.0298
0
LINE
8
BLACK
6
CONTINUOUS
10
44.7017
20
-10.0298
11
44.5112
21
-9.93452
0
LINE
8
BLACK
6
CONTINUOUS
10
44.5112
20
-9.93452
11
44.416
21
-9.74405
0
LINE
8
BLACK
6
CONTINUOUS
10
44.416
20
-9.74405
11
44.416
21
-8.98214
0
LINE
8
BLACK
6
CONTINUOUS
10
44.416
20
-8.98214
11
44.5112
21
-8.79167
0
LINE
8
BLACK
6
CONTINUOUS
10
44.5112
20
-8.79167
11
44.7017
21
-8.69643
0
LINE
8
BLACK
6
CONTINUOUS
10
44.7017
20
-8.69643
11
45.0826
21
-8.69643
0
LINE
8
BLACK
6
CONTINUOUS
10
45.0826
20
-8.69643
11
45.2731
21
-8.79167
0
LINE
8
BLACK
6
CONTINUOUS
10
45.2731
20
-8.79167
11
45.3683
21
-8.98214
0
LINE
8
BLACK
6
CONTINUOUS
10
45.3683
20
-8.98214
11
45.3683
21
-9.17262
0
LINE
8
BLACK
6
CONTINUOUS
10
45.3683
20
-9.17262
11
44.416
21
-9.36309
0
LINE
8
BLACK
6
CONTINUOUS
10
46.1302
20
-9.93452
11
46.3207
21
-10.0298
0
LINE
8
BLACK
6
CONTINUOUS
10
46.3207
20
-10.0298
11
46.7017
21
-10.0298
0
LINE
8
BLACK
6
CONTINUOUS
10
46.7017
20
-10.0298
11
46.8921
21
-9.93452
0
LINE
8
BLACK
6
CONTINUOUS
10
46.8921
20
-9.93452
11
46.9874
21
-9.74405
0
LINE
8
BLACK
6
CONTINUOUS
10
46.9874
20
-9.74405
11
46.9874
21
-9.64881
0
LINE
8
BLACK
6
CONTINUOUS
10
46.9874
20
-9.64881
11
46.8921
21
-9.45833
0
LINE
8
BLACK
6
CONTINUOUS
10
46.8921
20
-9.45833
11
46.7017
21
-9.36309
0
LINE
8
BLACK
6
CONTINUOUS
10
46.7017
20
-9.36309
11
46.416
21
-9.36309
0
LINE
8
BLACK
6
CONTINUOUS
10
46.416
20
-9.36309
11
46.2255
21
-9.26786
0
LINE
8
BLACK
6
CONTINUOUS
10
46.2255
20
-9.26786
11
46.1302
21
-9.07738
0
LINE
8
BLACK
6
CONTINUOUS
10
46.1302
20
-9.07738
11
46.1302
21
-8.98214
0
LINE
8
BLACK
6
CONTINUOUS
10
46.1302
20
-8.98214
11
46.2255
21
-8.79167
0
LINE
8
BLACK
6
CONTINUOUS
10
46.2255
20
-8.79167
11
46.416
21
-8.69643
0
LINE
8
BLACK
6
CONTINUOUS
10
46.416
20
-8.69643
11
46.7017
21
-8.69643
0
LINE
8
BLACK
6
CONTINUOUS
10
46.7017
20
-8.69643
11
46.8921
21
-8.79167
0
LINE
8
BLACK
6
CONTINUOUS
10
47.654
20
-10.7917
11
47.7493
21
-10.6964
0
LINE
8
BLACK
6
CONTINUOUS
10
47.7493
20
-10.6964
11
47.9398
21
-10.4107
0
LINE
8
BLACK
6
CONTINUOUS
10
47.9398
20
-10.4107
11
48.035
21
-10.2202
0
LINE
8
BLACK
6
CONTINUOUS
10
48.035
20
-10.2202
11
48.1302
21
-9.93452
0
LINE
8
BLACK
6
CONTINUOUS
10
48.1302
20
-9.93452
11
48.2255
21
-9.45833
0
LINE
8
BLACK
6
CONTINUOUS
10
48.2255
20
-9.45833
11
48.2255
21
-9.07738
0
LINE
8
BLACK
6
CONTINUOUS
10
48.2255
20
-9.07738
11
48.1302
21
-8.60119
0
LINE
8
BLACK
6
CONTINUOUS
10
48.1302
20
-8.60119
11
48.035
21
-8.31548
0
LINE
8
BLACK
6
CONTINUOUS
10
48.035
20
-8.31548
11
47.9398
21
-8.125
0
LINE
8
BLACK
6
CONTINUOUS
10
47.9398
20
-8.125
11
47.7493
21
-7.83928
0
LINE
8
BLACK
6
CONTINUOUS
10
47.7493
20
-7.83928
11
47.654
21
-7.74405
0
LINE
8
BLACK
6
CONTINUOUS
10
51.2731
20
-10.7917
11
51.1779
21
-10.6964
0
LINE
8
BLACK
6
CONTINUOUS
10
51.1779
20
-10.6964
11
50.9874
21
-10.4107
0
LINE
8
BLACK
6
CONTINUOUS
10
50.9874
20
-10.4107
11
50.8921
21
-10.2202
0
LINE
8
BLACK
6
CONTINUOUS
10
50.8921
20
-10.2202
11
50.7969
21
-9.93452
0
LINE
8
BLACK
6
CONTINUOUS
10
50.7969
20
-9.93452
11
50.7017
21
-9.45833
0
LINE
8
BLACK
6
CONTINUOUS
10
50.7017
20
-9.45833
11
50.7017
21
-9.07738
0
LINE
8
BLACK
6
CONTINUOUS
10
50.7017
20
-9.07738
11
50.7969
21
-8.60119
0
LINE
8
BLACK
6
CONTINUOUS
10
50.7969
20
-8.60119
11
50.8921
21
-8.31548
0
LINE
8
BLACK
6
CONTINUOUS
10
50.8921
20
-8.31548
11
50.9874
21
-8.125
0
LINE
8
BLACK
6
CONTINUOUS
10
50.9874
20
-8.125
11
51.1779
21
-7.83928
0
LINE
8
BLACK
6
CONTINUOUS
10
51.1779
20
-7.83928
11
51.2731
21
-7.74405
0
LINE
8
BLACK
6
CONTINUOUS
10
52.035
20
-8.69643
11
52.035
21
-10.0298
0
LINE
8
BLACK
6
CONTINUOUS
10
52.035
20
-8.8869
11
52.1302
21
-8.79167
0
LINE
8
BLACK
6
CONTINUOUS
10
52.1302
20
-8.79167
11
52.3207
21
-8.69643
0
LINE
8
BLACK
6
CONTINUOUS
10
52.3207
20
-8.69643
11
52.6064
21
-8.69643
0
LINE
8
BLACK
6
CONTINUOUS
10
52.6064
20
-8.69643
11
52.7969
21
-8.79167
0
LINE
8
BLACK
6
CONTINUOUS
10
52.7969
20
-8.79167
11
52.8921
21
-8.98214
0
LINE
8
BLACK
6
CONTINUOUS
10
52.8921
20
-8.98214
11
52.8921
21
-10.0298
0
LINE
8
BLACK
6
CONTINUOUS
10
54.1302
20
-10.0298
11
53.9398
21
-9.93452
0
LINE
8
BLACK
6
CONTINUOUS
10
53.9398
20
-9.93452
11
53.8445
21
-9.83929
0
LINE
8
BLACK
6
CONTINUOUS
10
53.8445
20
-9.83929
11
53.7493
21
-9.64881
0
LINE
8
BLACK
6
CONTINUOUS
10
53.7493
20
-9.64881
11
53.7493
21
-9.07738
0
LINE
8
BLACK
6
CONTINUOUS
10
53.7493
20
-9.07738
11
53.8445
21
-8.8869
0
LINE
8
BLACK
6
CONTINUOUS
10
53.8445
20
-8.8869
11
53.9398
21
-8.79167
0
LINE
8
BLACK
6
CONTINUOUS
10
53.9398
20
-8.79167
11
54.1302
21
-8.69643
0
LINE
8
BLACK
6
CONTINUOUS
10
54.1302
20
-8.69643
11
54.416
21
-8.69643
0
LINE
8
BLACK
6
CONTINUOUS
10
54.416
20
-8.69643
11
54.6064
21
-8.79167
0
LINE
8
BLACK
6
CONTINUOUS
10
54.6064
20
-8.79167
11
54.7017
21
-8.8869
0
LINE
8
BLACK
6
CONTINUOUS
10
54.7017
20
-8.8869
11
54.7969
21
-9.07738
0
LINE
8
BLACK
6
CONTINUOUS
10
54.7969
20
-9.07738
11
54.7969
21
-9.64881
0
LINE
8
BLACK
6
CONTINUOUS
10
54.7969
20
-9.64881
11
54.7017
21
-9.83929
0
LINE
8
BLACK
6
CONTINUOUS
10
54.7017
20
-9.83929
11
54.6064
21
-9.93452
0
LINE
8
BLACK
6
CONTINUOUS
10
54.6064
20
-9.93452
11
54.416
21
-10.0298
0
LINE
8
BLACK
6
CONTINUOUS
10
54.416
20
-10.0298
11
54.1302
21
-10.0298
0
LINE
8
BLACK
6
CONTINUOUS
10
55.3683
20
-8.69643
11
56.1302
21
-8.69643
0
LINE
8
BLACK
6
CONTINUOUS
10
55.654
20
-8.02976
11
55.654
21
-9.74405
0
LINE
8
BLACK
6
CONTINUOUS
10
55.654
20
-9.74405
11
55.7493
21
-9.93452
0
LINE
8
BLACK
6
CONTINUOUS
10
55.7493
20
-9.93452
11
55.9398
21
-10.0298
0
LINE
8
BLACK
6
CONTINUOUS
10
55.9398
20
-10.0298
11
56.1302
21
-10.0298
0
LINE
8
BLACK
6
CONTINUOUS
10
58.3207
20
-8.69643
11
58.3207
21
-10.6964
0
LINE
8
BLACK
6
CONTINUOUS
10
58.3207
20
-8.79167
11
58.5112
21
-8.69643
0
LINE
8
BLACK
6
CONTINUOUS
10
58.5112
20
-8.69643
11
58.8921
21
-8.69643
0
LINE
8
BLACK
6
CONTINUOUS
10
58.8921
20
-8.69643
11
59.0826
21
-8.79167
0
LINE
8
BLACK
6
CONTINUOUS
10
59.0826
20
-8.79167
11
59.1779
21
-8.8869
0
LINE
8
BLACK
6
CONTINUOUS
10
59.1779
20
-8.8869
11
59.2731
21
-9.07738
0
LINE
8
BLACK
6
CONTINUOUS
10
59.2731
20
-9.07738
11
59.2731
21
-9.64881
0
LINE
8
BLACK
6
CONTINUOUS
10
59.2731
20
-9.64881
11
59.1779
21
-9.83929
0
LINE
8
BLACK
6
CONTINUOUS
10
59.1779
20
-9.83929
11
59.0826
21
-9.93452
0
LINE
8
BLACK
6
CONTINUOUS
10
59.0826
20
-9.93452
11
58.8921
21
-10.0298
0
LINE
8
BLACK
6
CONTINUOUS
10
58.8921
20
-10.0298
11
58.5112
21
-10.0298
0
LINE
8
BLACK
6
CONTINUOUS
10
58.5112
20
-10.0298
11
58.3207
21
-9.93452
0
LINE
8
BLACK
6
CONTINUOUS
10
60.416
20
-10.0298
11
60.2255
21
-9.93452
0
LINE
8
BLACK
6
CONTINUOUS
10
60.2255
20
-9.93452
11
60.1302
21
-9.74405
0
LINE
8
BLACK
6
CONTINUOUS
10
60.1302
20
-9.74405
11
60.1302
21
-8.02976
0
LINE
8
BLACK
6
CONTINUOUS
10
62.035
20
-10.0298
11
62.035
21
-8.98214
0
LINE
8
BLACK
6
CONTINUOUS
10
62.035
20
-8.98214
11
61.9398
21
-8.79167
0
LINE
8
BLACK
6
CONTINUOUS
10
61.9398
20
-8.79167
11
61.7493
21
-8.69643
0
LINE
8
BLACK
6
CONTINUOUS
10
61.7493
20
-8.69643
11
61.3683
21
-8.69643
0
LINE
8
BLACK
6
CONTINUOUS
10
61.3683
20
-8.69643
11
61.1779
21
-8.79167
0
LINE
8
BLACK
6
CONTINUOUS
10
62.035
20
-9.93452
11
61.8445
21
-10.0298
0
LINE
8
BLACK
6
CONTINUOUS
10
61.8445
20
-10.0298
11
61.3683
21
-10.0298
0
LINE
8
BLACK
6
CONTINUOUS
10
61.3683
20
-10.0298
11
61.1779
21
-9.93452
0
LINE
8
BLACK
6
CONTINUOUS
10
61.1779
20
-9.93452
11
61.0826
21
-9.74405
0
LINE
8
BLACK
6
CONTINUOUS
10
61.0826
20
-9.74405
11
61.0826
21
-9.55357
0
LINE
8
BLACK
6
CONTINUOUS
10
61.0826
20
-9.55357
11
61.1779
21
-9.36309
0
LINE
8
BLACK
6
CONTINUOUS
10
61.1779
20
-9.36309
11
61.3683
21
-9.26786
0
LINE
8
BLACK
6
CONTINUOUS
10
61.3683
20
-9.26786
11
61.8445
21
-9.26786
0
LINE
8
BLACK
6
CONTINUOUS
10
61.8445
20
-9.26786
11
62.035
21
-9.17262
0
LINE
8
BLACK
6
CONTINUOUS
10
62.7017
20
-8.69643
11
63.4636
21
-8.69643
0
LINE
8
BLACK
6
CONTINUOUS
10
62.9874
20
-8.02976
11
62.9874
21
-9.74405
0
LINE
8
BLACK
6
CONTINUOUS
10
62.9874
20
-9.74405
11
63.0826
21
-9.93452
0
LINE
8
BLACK
6
CONTINUOUS
10
63.0826
20
-9.93452
11
63.2731
21
-10.0298
0
LINE
8
BLACK
6
CONTINUOUS
10
63.2731
20
-10.0298
11
63.4636
21
-10.0298
0
LINE
8
BLACK
6
CONTINUOUS
10
64.8921
20
-9.93452
11
64.7017
21
-10.0298
0
LINE
8
BLACK
6
CONTINUOUS
10
64.7017
20
-10.0298
11
64.3207
21
-10.0298
0
LINE
8
BLACK
6
CONTINUOUS
10
64.3207
20
-10.0298
11
64.1302
21
-9.93452
0
LINE
8
BLACK
6
CONTINUOUS
10
64.1302
20
-9.93452
11
64.035
21
-9.74405
0
LINE
8
BLACK
6
CONTINUOUS
10
64.035
20
-9.74405
11
64.035
21
-8.98214
0
LINE
8
BLACK
6
CONTINUOUS
10
64.035
20
-8.98214
11
64.1302
21
-8.79167
0
LINE
8
BLACK
6
CONTINUOUS
10
64.1302
20
-8.79167
11
64.3207
21
-8.69643
0
LINE
8
BLACK
6
CONTINUOUS
10
64.3207
20
-8.69643
11
64.7017
21
-8.69643
0
LINE
8
BLACK
6
CONTINUOUS
10
64.7017
20
-8.69643
11
64.8921
21
-8.79167
0
LINE
8
BLACK
6
CONTINUOUS
10
64.8921
20
-8.79167
11
64.9874
21
-8.98214
0
LINE
8
BLACK
6
CONTINUOUS
10
64.9874
20
-8.98214
11
64.9874
21
-9.17262
0
LINE
8
BLACK
6
CONTINUOUS
10
64.9874
20
-9.17262
11
64.035
21
-9.36309
0
LINE
8
BLACK
6
CONTINUOUS
10
66.7017
20
-10.0298
11
66.7017
21
-8.02976
0
LINE
8
BLACK
6
CONTINUOUS
10
66.7017
20
-9.93452
11
66.5112
21
-10.0298
0
LINE
8
BLACK
6
CONTINUOUS
10
66.5112
20
-10.0298
11
66.1302
21
-10.0298
0
LINE
8
BLACK
6
CONTINUOUS
10
66.1302
20
-10.0298
11
65.9398
21
-9.93452
0
LINE
8
BLACK
6
CONTINUOUS
10
65.9398
20
-9.93452
11
65.8445
21
-9.83929
0
LINE
8
BLACK
6
CONTINUOUS
10
65.8445
20
-9.83929
11
65.7493
21
-9.64881
0
LINE
8
BLACK
6
CONTINUOUS
10
65.7493
20
-9.64881
11
65.7493
21
-9.07738
0
LINE
8
BLACK
6
CONTINUOUS
10
65.7493
20
-9.07738
11
65.8445
21
-8.8869
0
LINE
8
BLACK
6
CONTINUOUS
10
65.8445
20
-8.8869
11
65.9398
21
-8.79167
0
LINE
8
BLACK
6
CONTINUOUS
10
65.9398
20
-8.79167
11
66.1302
21
-8.69643
0
LINE
8
BLACK
6
CONTINUOUS
10
66.1302
20
-8.69643
11
66.5112
21
-8.69643
0
LINE
8
BLACK
6
CONTINUOUS
10
66.5112
20
-8.69643
11
66.7017
21
-8.79167
0
LINE
8
BLACK
6
CONTINUOUS
10
67.4636
20
-10.7917
11
67.5588
21
-10.6964
0
LINE
8
BLACK
6
CONTINUOUS
10
67.5588
20
-10.6964
11
67.7493
21
-10.4107
0
LINE
8
BLACK
6
CONTINUOUS
10
67.7493
20
-10.4107
11
67.8445
21
-10.2202
0
LINE
8
BLACK
6
CONTINUOUS
10
67.8445
20
-10.2202
11
67.9398
21
-9.93452
0
LINE
8
BLACK
6
CONTINUOUS
10
67.9398
20
-9.93452
11
68.035
21
-9.45833
0
LINE
8
BLACK
6
CONTINUOUS
10
68.035
20
-9.45833
11
68.035
21
-9.07738
0
LINE
8
BLACK
6
CONTINUOUS
10
68.035
20
-9.07738
11
67.9398
21
-8.60119
0
LINE
8
BLACK
6
CONTINUOUS
10
67.9398
20
-8.60119
11
67.8445
21
-8.31548
0
LINE
8
BLACK
6
CONTINUOUS
10
67.8445
20
-8.31548
11
67.7493
21
-8.125
0
LINE
8
BLACK
6
CONTINUOUS
10
67.7493
20
-8.125
11
67.5588
21
-7.83928
0
LINE
8
BLACK
6
CONTINUOUS
10
67.5588
20
-7.83928
11
67.4636
21
-7.74405
  0
ENDSEC
  0
EOF
