%FSLAX45Y45*%
G04 Gerber Fmt 4.5, Leading zero omitted, Abs format (unit mm)*
G04 Created by KiCad (PCBNEW (6.0.4)) date 2022-10-21 18:19:15*
%MOMM*%
%LPD*%
G01*
G04 APERTURE LIST*
%TA.AperFunction,Profile*%
%ADD10C,0.100000*%
%TD*%
%ADD11C,0.200000*%
%ADD12C,0.040000*%
%ADD13C,0.050000*%
%ADD14C,0.065000*%
%ADD15C,0.080000*%
%ADD16C,0.090000*%
%ADD17C,0.100000*%
%ADD18C,0.110000*%
%ADD19C,0.120000*%
%ADD20C,0.150000*%
%ADD21C,0.240000*%
%ADD22C,0.320000*%
G04 APERTURE END LIST*
D10*
X7962000Y6991500D02*
X-1500Y6991500D01*
X-1500Y6991500D02*
X-1500Y-3500D01*
X-1500Y-3500D02*
X7962000Y-3500D01*
X7962000Y-3500D02*
X7962000Y6991500D01*
D11*
D12*
X122000Y397000D02*
X162000Y357000D01*
X162000Y397000D02*
X122000Y357000D01*
X133000Y3461000D02*
X173000Y3421000D01*
X173000Y3461000D02*
X133000Y3421000D01*
X155000Y6880000D02*
X195000Y6840000D01*
X195000Y6880000D02*
X155000Y6840000D01*
X2069000Y3497000D02*
X2109000Y3457000D01*
X2109000Y3497000D02*
X2069000Y3457000D01*
X3625500Y5857500D02*
X3665500Y5817500D01*
X3665500Y5857500D02*
X3625500Y5817500D01*
X3934000Y2980000D02*
X3974000Y2940000D01*
X3974000Y2980000D02*
X3934000Y2940000D01*
X3957000Y3820000D02*
X3997000Y3780000D01*
X3997000Y3820000D02*
X3957000Y3780000D01*
X4051000Y5683000D02*
X4091000Y5643000D01*
X4091000Y5683000D02*
X4051000Y5643000D01*
X4309000Y3642000D02*
X4349000Y3602000D01*
X4349000Y3642000D02*
X4309000Y3602000D01*
X4341000Y3092000D02*
X4381000Y3052000D01*
X4381000Y3092000D02*
X4341000Y3052000D01*
X4371000Y6883000D02*
X4411000Y6843000D01*
X4411000Y6883000D02*
X4371000Y6843000D01*
X4490000Y136000D02*
X4530000Y96000D01*
X4530000Y136000D02*
X4490000Y96000D01*
X4511000Y1362000D02*
X4551000Y1322000D01*
X4551000Y1362000D02*
X4511000Y1322000D01*
X4550000Y4557000D02*
X4590000Y4517000D01*
X4590000Y4557000D02*
X4550000Y4517000D01*
X4588000Y5627000D02*
X4628000Y5587000D01*
X4628000Y5627000D02*
X4588000Y5587000D01*
X4978000Y4541000D02*
X5018000Y4501000D01*
X5018000Y4541000D02*
X4978000Y4501000D01*
X5049000Y5335000D02*
X5089000Y5295000D01*
X5089000Y5335000D02*
X5049000Y5295000D01*
X5270000Y2368000D02*
X5310000Y2328000D01*
X5310000Y2368000D02*
X5270000Y2328000D01*
X5690000Y4573000D02*
X5730000Y4533000D01*
X5730000Y4573000D02*
X5690000Y4533000D01*
X5721000Y2271000D02*
X5761000Y2231000D01*
X5761000Y2271000D02*
X5721000Y2231000D01*
X5791000Y3476000D02*
X5831000Y3436000D01*
X5831000Y3476000D02*
X5791000Y3436000D01*
X6194000Y2839000D02*
X6234000Y2799000D01*
X6234000Y2839000D02*
X6194000Y2799000D01*
X6527000Y2841000D02*
X6567000Y2801000D01*
X6567000Y2841000D02*
X6527000Y2801000D01*
X6923000Y5347500D02*
X6963000Y5307500D01*
X6963000Y5347500D02*
X6923000Y5307500D01*
X7186000Y4873000D02*
X7226000Y4833000D01*
X7226000Y4873000D02*
X7186000Y4833000D01*
X7803000Y3502500D02*
X7843000Y3462500D01*
X7843000Y3502500D02*
X7803000Y3462500D01*
X7808000Y6875000D02*
X7848000Y6835000D01*
X7848000Y6875000D02*
X7808000Y6835000D01*
X7815000Y149000D02*
X7855000Y109000D01*
X7855000Y149000D02*
X7815000Y109000D01*
D13*
X3654000Y2197000D02*
G75*
G03*
X3654000Y2197000I-25000J0D01*
G01*
X3724294Y2366706D02*
G75*
G03*
X3724294Y2366706I-25000J0D01*
G01*
X3724294Y2027294D02*
G75*
G03*
X3724294Y2027294I-25000J0D01*
G01*
X3894000Y2437000D02*
G75*
G03*
X3894000Y2437000I-25000J0D01*
G01*
X3894000Y1957000D02*
G75*
G03*
X3894000Y1957000I-25000J0D01*
G01*
X4063706Y2366706D02*
G75*
G03*
X4063706Y2366706I-25000J0D01*
G01*
X4063706Y2027294D02*
G75*
G03*
X4063706Y2027294I-25000J0D01*
G01*
X4134000Y2197000D02*
G75*
G03*
X4134000Y2197000I-25000J0D01*
G01*
D14*
X5880000Y4927500D02*
X5880000Y4862500D01*
X5847500Y4895000D02*
X5912500Y4895000D01*
X6007000Y4927500D02*
X6007000Y4862500D01*
X5974500Y4895000D02*
X6039500Y4895000D01*
X6134000Y4927500D02*
X6134000Y4862500D01*
X6101500Y4895000D02*
X6166500Y4895000D01*
D15*
X2919534Y6494215D02*
X2919534Y6550784D01*
X2862965Y6550784D01*
X2862965Y6494215D01*
X2919534Y6494215D01*
X3681534Y6494215D02*
X3681534Y6550784D01*
X3624965Y6550784D01*
X3624965Y6494215D01*
X3681534Y6494215D01*
X3698784Y5229216D02*
X3698784Y5285785D01*
X3642215Y5285785D01*
X3642215Y5229216D01*
X3698784Y5229216D01*
X3698784Y4975216D02*
X3698784Y5031785D01*
X3642215Y5031785D01*
X3642215Y4975216D01*
X3698784Y4975216D01*
X4460785Y5229216D02*
X4460785Y5285785D01*
X4404216Y5285785D01*
X4404216Y5229216D01*
X4460785Y5229216D01*
X4460785Y4975216D02*
X4460785Y5031785D01*
X4404216Y5031785D01*
X4404216Y4975216D01*
X4460785Y4975216D01*
X4476285Y2043715D02*
X4476285Y2100285D01*
X4419716Y2100285D01*
X4419716Y2043715D01*
X4476285Y2043715D01*
X4580285Y4026715D02*
X4580285Y4083284D01*
X4523716Y4083284D01*
X4523716Y4026715D01*
X4580285Y4026715D01*
X4711785Y2725216D02*
X4711785Y2781785D01*
X4655216Y2781785D01*
X4655216Y2725216D01*
X4711785Y2725216D01*
X4714785Y3434215D02*
X4714785Y3490784D01*
X4658216Y3490784D01*
X4658216Y3434215D01*
X4714785Y3434215D01*
X4965785Y2725216D02*
X4965785Y2781785D01*
X4909216Y2781785D01*
X4909216Y2725216D01*
X4965785Y2725216D01*
X4968785Y3434215D02*
X4968785Y3490784D01*
X4912216Y3490784D01*
X4912216Y3434215D01*
X4968785Y3434215D01*
X5219785Y2725216D02*
X5219785Y2781785D01*
X5163216Y2781785D01*
X5163216Y2725216D01*
X5219785Y2725216D01*
X5222785Y3434215D02*
X5222785Y3490784D01*
X5166216Y3490784D01*
X5166216Y3434215D01*
X5222785Y3434215D01*
X5342285Y4026715D02*
X5342285Y4083284D01*
X5285716Y4083284D01*
X5285716Y4026715D01*
X5342285Y4026715D01*
X5492285Y2043715D02*
X5492285Y2100285D01*
X5435716Y2100285D01*
X5435716Y2043715D01*
X5492285Y2043715D01*
X6042284Y4174715D02*
X6042284Y4231285D01*
X5985715Y4231285D01*
X5985715Y4174715D01*
X6042284Y4174715D01*
X6042284Y3920715D02*
X6042284Y3977284D01*
X5985715Y3977284D01*
X5985715Y3920715D01*
X6042284Y3920715D01*
X6042284Y3666715D02*
X6042284Y3723284D01*
X5985715Y3723284D01*
X5985715Y3666715D01*
X6042284Y3666715D01*
X6042284Y3412715D02*
X6042284Y3469284D01*
X5985715Y3469284D01*
X5985715Y3412715D01*
X6042284Y3412715D01*
X6042284Y3158715D02*
X6042284Y3215284D01*
X5985715Y3215284D01*
X5985715Y3158715D01*
X6042284Y3158715D01*
X6042284Y2904715D02*
X6042284Y2961284D01*
X5985715Y2961284D01*
X5985715Y2904715D01*
X6042284Y2904715D01*
X6042284Y2650716D02*
X6042284Y2707285D01*
X5985715Y2707285D01*
X5985715Y2650716D01*
X6042284Y2650716D01*
X6042284Y2396716D02*
X6042284Y2453285D01*
X5985715Y2453285D01*
X5985715Y2396716D01*
X6042284Y2396716D01*
X6042284Y2142716D02*
X6042284Y2199285D01*
X5985715Y2199285D01*
X5985715Y2142716D01*
X6042284Y2142716D01*
X6804284Y4174715D02*
X6804284Y4231285D01*
X6747715Y4231285D01*
X6747715Y4174715D01*
X6804284Y4174715D01*
X6804284Y3920715D02*
X6804284Y3977284D01*
X6747715Y3977284D01*
X6747715Y3920715D01*
X6804284Y3920715D01*
X6804284Y3666715D02*
X6804284Y3723284D01*
X6747715Y3723284D01*
X6747715Y3666715D01*
X6804284Y3666715D01*
X6804284Y3412715D02*
X6804284Y3469284D01*
X6747715Y3469284D01*
X6747715Y3412715D01*
X6804284Y3412715D01*
X6804284Y3158715D02*
X6804284Y3215284D01*
X6747715Y3215284D01*
X6747715Y3158715D01*
X6804284Y3158715D01*
X6804284Y2904715D02*
X6804284Y2961284D01*
X6747715Y2961284D01*
X6747715Y2904715D01*
X6804284Y2904715D01*
X6804284Y2650716D02*
X6804284Y2707285D01*
X6747715Y2707285D01*
X6747715Y2650716D01*
X6804284Y2650716D01*
X6804284Y2396716D02*
X6804284Y2453285D01*
X6747715Y2453285D01*
X6747715Y2396716D01*
X6804284Y2396716D01*
X6804284Y2142716D02*
X6804284Y2199285D01*
X6747715Y2199285D01*
X6747715Y2142716D01*
X6804284Y2142716D01*
X7173784Y5546716D02*
X7173784Y5603284D01*
X7117215Y5603284D01*
X7117215Y5546716D01*
X7173784Y5546716D01*
D11*
X7115500Y5600000D02*
X7115500Y5550000D01*
X7175500Y5600000D02*
X7175500Y5550000D01*
X7115500Y5550000D02*
G75*
G03*
X7175500Y5550000I30000J0D01*
G01*
X7175500Y5600000D02*
G75*
G03*
X7115500Y5600000I-30000J0D01*
G01*
D15*
X7633784Y5546716D02*
X7633784Y5603284D01*
X7577215Y5603284D01*
X7577215Y5546716D01*
X7633784Y5546716D01*
D11*
X7575500Y5600000D02*
X7575500Y5550000D01*
X7635500Y5600000D02*
X7635500Y5550000D01*
X7575500Y5550000D02*
G75*
G03*
X7635500Y5550000I30000J0D01*
G01*
X7635500Y5600000D02*
G75*
G03*
X7575500Y5600000I-30000J0D01*
G01*
D16*
X4218000Y6287500D02*
X4263000Y6332500D01*
X4218000Y6377500D01*
X4173000Y6332500D01*
X4218000Y6287500D01*
X4618000Y6287500D02*
X4663000Y6332500D01*
X4618000Y6377500D01*
X4573000Y6332500D01*
X4618000Y6287500D01*
X5018000Y6287500D02*
X5063000Y6332500D01*
X5018000Y6377500D01*
X4973000Y6332500D01*
X5018000Y6287500D01*
X7356000Y3464500D02*
X7401000Y3509500D01*
X7356000Y3554500D01*
X7311000Y3509500D01*
X7356000Y3464500D01*
X7356000Y3007000D02*
X7401000Y3052000D01*
X7356000Y3097000D01*
X7311000Y3052000D01*
X7356000Y3007000D01*
X7356000Y2552000D02*
X7401000Y2597000D01*
X7356000Y2642000D01*
X7311000Y2597000D01*
X7356000Y2552000D01*
X7358500Y4377000D02*
X7403500Y4422000D01*
X7358500Y4467000D01*
X7313500Y4422000D01*
X7358500Y4377000D01*
X7358500Y2097000D02*
X7403500Y2142000D01*
X7358500Y2187000D01*
X7313500Y2142000D01*
X7358500Y2097000D01*
X7361000Y3919500D02*
X7406000Y3964500D01*
X7361000Y4009500D01*
X7316000Y3964500D01*
X7361000Y3919500D01*
X7361000Y1637000D02*
X7406000Y1682000D01*
X7361000Y1727000D01*
X7316000Y1682000D01*
X7361000Y1637000D01*
X7363500Y1177000D02*
X7408500Y1222000D01*
X7363500Y1267000D01*
X7318500Y1222000D01*
X7363500Y1177000D01*
X7366000Y717000D02*
X7411000Y762000D01*
X7366000Y807000D01*
X7321000Y762000D01*
X7366000Y717000D01*
X7371000Y252000D02*
X7416000Y297000D01*
X7371000Y342000D01*
X7326000Y297000D01*
X7371000Y252000D01*
X7610000Y3464500D02*
X7655000Y3509500D01*
X7610000Y3554500D01*
X7565000Y3509500D01*
X7610000Y3464500D01*
X7610000Y3007000D02*
X7655000Y3052000D01*
X7610000Y3097000D01*
X7565000Y3052000D01*
X7610000Y3007000D01*
X7610000Y2552000D02*
X7655000Y2597000D01*
X7610000Y2642000D01*
X7565000Y2597000D01*
X7610000Y2552000D01*
X7612500Y4377000D02*
X7657500Y4422000D01*
X7612500Y4467000D01*
X7567500Y4422000D01*
X7612500Y4377000D01*
X7612500Y2097000D02*
X7657500Y2142000D01*
X7612500Y2187000D01*
X7567500Y2142000D01*
X7612500Y2097000D01*
X7615000Y3919500D02*
X7660000Y3964500D01*
X7615000Y4009500D01*
X7570000Y3964500D01*
X7615000Y3919500D01*
X7615000Y1637000D02*
X7660000Y1682000D01*
X7615000Y1727000D01*
X7570000Y1682000D01*
X7615000Y1637000D01*
X7617500Y1177000D02*
X7662500Y1222000D01*
X7617500Y1267000D01*
X7572500Y1222000D01*
X7617500Y1177000D01*
X7620000Y717000D02*
X7665000Y762000D01*
X7620000Y807000D01*
X7575000Y762000D01*
X7620000Y717000D01*
X7625000Y252000D02*
X7670000Y297000D01*
X7625000Y342000D01*
X7580000Y297000D01*
X7625000Y252000D01*
D17*
X7050500Y6375000D02*
X7150500Y6275000D01*
X7150500Y6375000D02*
X7050500Y6275000D01*
X7150500Y6325000D02*
G75*
G03*
X7150500Y6325000I-50000J0D01*
G01*
D11*
X7060500Y6340000D02*
X7060500Y6310000D01*
X7140500Y6340000D02*
X7140500Y6310000D01*
X7060500Y6310000D02*
G75*
G03*
X7140500Y6310000I40000J0D01*
G01*
X7140500Y6340000D02*
G75*
G03*
X7060500Y6340000I-40000J0D01*
G01*
D17*
X7600500Y6375000D02*
X7700500Y6275000D01*
X7700500Y6375000D02*
X7600500Y6275000D01*
X7700500Y6325000D02*
G75*
G03*
X7700500Y6325000I-50000J0D01*
G01*
D11*
X7610500Y6340000D02*
X7610500Y6310000D01*
X7690500Y6340000D02*
X7690500Y6310000D01*
X7610500Y6310000D02*
G75*
G03*
X7690500Y6310000I40000J0D01*
G01*
X7690500Y6340000D02*
G75*
G03*
X7610500Y6340000I-40000J0D01*
G01*
D18*
X6108000Y6210000D02*
X6218000Y6100000D01*
X6218000Y6210000D02*
X6108000Y6100000D01*
X6163000Y6210000D02*
X6163000Y6100000D01*
X6108000Y6155000D02*
X6218000Y6155000D01*
D19*
X3958000Y6817500D02*
X4078000Y6697500D01*
X4078000Y6817500D02*
X3958000Y6697500D01*
X4060427Y6715073D02*
X4060427Y6799927D01*
X3975573Y6799927D01*
X3975573Y6715073D01*
X4060427Y6715073D01*
X3958000Y6217500D02*
X4078000Y6097500D01*
X4078000Y6217500D02*
X3958000Y6097500D01*
X4060427Y6115073D02*
X4060427Y6199927D01*
X3975573Y6199927D01*
X3975573Y6115073D01*
X4060427Y6115073D01*
X5158000Y6817500D02*
X5278000Y6697500D01*
X5278000Y6817500D02*
X5158000Y6697500D01*
X5260427Y6715073D02*
X5260427Y6799927D01*
X5175573Y6799927D01*
X5175573Y6715073D01*
X5260427Y6715073D01*
X5158000Y6217500D02*
X5278000Y6097500D01*
X5278000Y6217500D02*
X5158000Y6097500D01*
X5260427Y6115073D02*
X5260427Y6199927D01*
X5175573Y6199927D01*
X5175573Y6115073D01*
X5260427Y6115073D01*
D20*
X5585500Y6732500D02*
X5735500Y6582500D01*
X5735500Y6732500D02*
X5585500Y6582500D01*
X5660500Y6582500D02*
X5735500Y6657500D01*
X5660500Y6732500D01*
X5585500Y6657500D01*
X5660500Y6582500D01*
X5585500Y5727500D02*
X5735500Y5577500D01*
X5735500Y5727500D02*
X5585500Y5577500D01*
X5660500Y5577500D02*
X5735500Y5652500D01*
X5660500Y5727500D01*
X5585500Y5652500D01*
X5660500Y5577500D01*
X6590500Y6732500D02*
X6740500Y6582500D01*
X6740500Y6732500D02*
X6590500Y6582500D01*
X6665500Y6582500D02*
X6740500Y6657500D01*
X6665500Y6732500D01*
X6590500Y6657500D01*
X6665500Y6582500D01*
X6590500Y5727500D02*
X6740500Y5577500D01*
X6740500Y5727500D02*
X6590500Y5577500D01*
X6665500Y5577500D02*
X6740500Y5652500D01*
X6665500Y5727500D01*
X6590500Y5652500D01*
X6665500Y5577500D01*
D21*
X1238000Y5705000D02*
X1238000Y5465000D01*
X1118000Y5585000D02*
X1358000Y5585000D01*
X1358000Y5585000D02*
G75*
G03*
X1358000Y5585000I-120000J0D01*
G01*
X2508000Y5705000D02*
X2508000Y5465000D01*
X2388000Y5585000D02*
X2628000Y5585000D01*
X2628000Y5585000D02*
G75*
G03*
X2628000Y5585000I-120000J0D01*
G01*
D22*
X3982138Y2083862D02*
X3982138Y2310138D01*
X3755862Y2310138D01*
X3755862Y2083862D01*
X3982138Y2083862D01*
X4029000Y2197000D02*
G75*
G03*
X4029000Y2197000I-160000J0D01*
G01*
D11*
X251119Y-318976D02*
X251119Y-118976D01*
X298738Y-118976D01*
X327310Y-128500D01*
X346357Y-147548D01*
X355881Y-166595D01*
X365405Y-204690D01*
X365405Y-233262D01*
X355881Y-271357D01*
X346357Y-290405D01*
X327310Y-309452D01*
X298738Y-318976D01*
X251119Y-318976D01*
X451119Y-318976D02*
X451119Y-185643D01*
X451119Y-223738D02*
X460643Y-204690D01*
X470167Y-195167D01*
X489214Y-185643D01*
X508262Y-185643D01*
X574929Y-318976D02*
X574929Y-185643D01*
X574929Y-118976D02*
X565405Y-128500D01*
X574929Y-138024D01*
X584452Y-128500D01*
X574929Y-118976D01*
X574929Y-138024D01*
X698738Y-318976D02*
X679690Y-309452D01*
X670167Y-290405D01*
X670167Y-118976D01*
X803500Y-318976D02*
X784452Y-309452D01*
X774928Y-290405D01*
X774928Y-118976D01*
X1032071Y-318976D02*
X1032071Y-118976D01*
X1098738Y-261833D01*
X1165405Y-118976D01*
X1165405Y-318976D01*
X1346357Y-318976D02*
X1346357Y-214214D01*
X1336833Y-195167D01*
X1317786Y-185643D01*
X1279690Y-185643D01*
X1260643Y-195167D01*
X1346357Y-309452D02*
X1327310Y-318976D01*
X1279690Y-318976D01*
X1260643Y-309452D01*
X1251119Y-290405D01*
X1251119Y-271357D01*
X1260643Y-252309D01*
X1279690Y-242786D01*
X1327310Y-242786D01*
X1346357Y-233262D01*
X1441595Y-185643D02*
X1441595Y-385643D01*
X1441595Y-195167D02*
X1460643Y-185643D01*
X1498738Y-185643D01*
X1517786Y-195167D01*
X1527309Y-204690D01*
X1536833Y-223738D01*
X1536833Y-280881D01*
X1527309Y-299929D01*
X1517786Y-309452D01*
X1498738Y-318976D01*
X1460643Y-318976D01*
X1441595Y-309452D01*
X1622548Y-299929D02*
X1632071Y-309452D01*
X1622548Y-318976D01*
X1613024Y-309452D01*
X1622548Y-299929D01*
X1622548Y-318976D01*
X1622548Y-195167D02*
X1632071Y-204690D01*
X1622548Y-214214D01*
X1613024Y-204690D01*
X1622548Y-195167D01*
X1622548Y-214214D01*
D12*
X-46500Y-628500D02*
X-6500Y-668500D01*
X-6500Y-628500D02*
X-46500Y-668500D01*
D11*
X289214Y-538976D02*
X308262Y-538976D01*
X327310Y-548500D01*
X336833Y-558024D01*
X346357Y-577071D01*
X355881Y-615167D01*
X355881Y-662786D01*
X346357Y-700881D01*
X336833Y-719928D01*
X327310Y-729452D01*
X308262Y-738976D01*
X289214Y-738976D01*
X270167Y-729452D01*
X260643Y-719928D01*
X251119Y-700881D01*
X241595Y-662786D01*
X241595Y-615167D01*
X251119Y-577071D01*
X260643Y-558024D01*
X270167Y-548500D01*
X289214Y-538976D01*
X441595Y-719928D02*
X451119Y-729452D01*
X441595Y-738976D01*
X432071Y-729452D01*
X441595Y-719928D01*
X441595Y-738976D01*
X622548Y-605643D02*
X622548Y-738976D01*
X574929Y-529452D02*
X527310Y-672310D01*
X651119Y-672310D01*
X765405Y-538976D02*
X784452Y-538976D01*
X803500Y-548500D01*
X813024Y-558024D01*
X822548Y-577071D01*
X832071Y-615167D01*
X832071Y-662786D01*
X822548Y-700881D01*
X813024Y-719928D01*
X803500Y-729452D01*
X784452Y-738976D01*
X765405Y-738976D01*
X746357Y-729452D01*
X736833Y-719928D01*
X727309Y-700881D01*
X717786Y-662786D01*
X717786Y-615167D01*
X727309Y-577071D01*
X736833Y-558024D01*
X746357Y-548500D01*
X765405Y-538976D01*
X955881Y-538976D02*
X974928Y-538976D01*
X993976Y-548500D01*
X1003500Y-558024D01*
X1013024Y-577071D01*
X1022548Y-615167D01*
X1022548Y-662786D01*
X1013024Y-700881D01*
X1003500Y-719928D01*
X993976Y-729452D01*
X974928Y-738976D01*
X955881Y-738976D01*
X936833Y-729452D01*
X927309Y-719928D01*
X917786Y-700881D01*
X908262Y-662786D01*
X908262Y-615167D01*
X917786Y-577071D01*
X927309Y-558024D01*
X936833Y-548500D01*
X955881Y-538976D01*
X1108262Y-738976D02*
X1108262Y-605643D01*
X1108262Y-624690D02*
X1117786Y-615167D01*
X1136833Y-605643D01*
X1165405Y-605643D01*
X1184452Y-615167D01*
X1193976Y-634214D01*
X1193976Y-738976D01*
X1193976Y-634214D02*
X1203500Y-615167D01*
X1222548Y-605643D01*
X1251119Y-605643D01*
X1270167Y-615167D01*
X1279690Y-634214D01*
X1279690Y-738976D01*
X1374929Y-738976D02*
X1374929Y-605643D01*
X1374929Y-624690D02*
X1384452Y-615167D01*
X1403500Y-605643D01*
X1432071Y-605643D01*
X1451119Y-615167D01*
X1460643Y-634214D01*
X1460643Y-738976D01*
X1460643Y-634214D02*
X1470167Y-615167D01*
X1489214Y-605643D01*
X1517786Y-605643D01*
X1536833Y-615167D01*
X1546357Y-634214D01*
X1546357Y-738976D01*
X1936833Y-529452D02*
X1765405Y-786595D01*
X2193976Y-538976D02*
X2213024Y-538976D01*
X2232071Y-548500D01*
X2241595Y-558024D01*
X2251119Y-577071D01*
X2260643Y-615167D01*
X2260643Y-662786D01*
X2251119Y-700881D01*
X2241595Y-719928D01*
X2232071Y-729452D01*
X2213024Y-738976D01*
X2193976Y-738976D01*
X2174929Y-729452D01*
X2165405Y-719928D01*
X2155881Y-700881D01*
X2146357Y-662786D01*
X2146357Y-615167D01*
X2155881Y-577071D01*
X2165405Y-558024D01*
X2174929Y-548500D01*
X2193976Y-538976D01*
X2346357Y-719928D02*
X2355881Y-729452D01*
X2346357Y-738976D01*
X2336833Y-729452D01*
X2346357Y-719928D01*
X2346357Y-738976D01*
X2479690Y-538976D02*
X2498738Y-538976D01*
X2517786Y-548500D01*
X2527310Y-558024D01*
X2536833Y-577071D01*
X2546357Y-615167D01*
X2546357Y-662786D01*
X2536833Y-700881D01*
X2527310Y-719928D01*
X2517786Y-729452D01*
X2498738Y-738976D01*
X2479690Y-738976D01*
X2460643Y-729452D01*
X2451119Y-719928D01*
X2441595Y-700881D01*
X2432071Y-662786D01*
X2432071Y-615167D01*
X2441595Y-577071D01*
X2451119Y-558024D01*
X2460643Y-548500D01*
X2479690Y-538976D01*
X2736833Y-738976D02*
X2622548Y-738976D01*
X2679690Y-738976D02*
X2679690Y-538976D01*
X2660643Y-567548D01*
X2641595Y-586595D01*
X2622548Y-596119D01*
X2917786Y-538976D02*
X2822548Y-538976D01*
X2813024Y-634214D01*
X2822548Y-624690D01*
X2841595Y-615167D01*
X2889214Y-615167D01*
X2908262Y-624690D01*
X2917786Y-634214D01*
X2927309Y-653262D01*
X2927309Y-700881D01*
X2917786Y-719928D01*
X2908262Y-729452D01*
X2889214Y-738976D01*
X2841595Y-738976D01*
X2822548Y-729452D01*
X2813024Y-719928D01*
X2993976Y-538976D02*
X3127309Y-538976D01*
X3041595Y-738976D01*
X3193976Y-538976D02*
X3193976Y-577071D01*
X3270167Y-538976D02*
X3270167Y-577071D01*
X3565405Y-815167D02*
X3555881Y-805643D01*
X3536833Y-777071D01*
X3527309Y-758024D01*
X3517786Y-729452D01*
X3508262Y-681833D01*
X3508262Y-643738D01*
X3517786Y-596119D01*
X3527309Y-567548D01*
X3536833Y-548500D01*
X3555881Y-519928D01*
X3565405Y-510405D01*
X3632071Y-558024D02*
X3641595Y-548500D01*
X3660643Y-538976D01*
X3708262Y-538976D01*
X3727309Y-548500D01*
X3736833Y-558024D01*
X3746357Y-577071D01*
X3746357Y-596119D01*
X3736833Y-624690D01*
X3622548Y-738976D01*
X3746357Y-738976D01*
X3860643Y-624690D02*
X3841595Y-615167D01*
X3832071Y-605643D01*
X3822548Y-586595D01*
X3822548Y-577071D01*
X3832071Y-558024D01*
X3841595Y-548500D01*
X3860643Y-538976D01*
X3898738Y-538976D01*
X3917786Y-548500D01*
X3927309Y-558024D01*
X3936833Y-577071D01*
X3936833Y-586595D01*
X3927309Y-605643D01*
X3917786Y-615167D01*
X3898738Y-624690D01*
X3860643Y-624690D01*
X3841595Y-634214D01*
X3832071Y-643738D01*
X3822548Y-662786D01*
X3822548Y-700881D01*
X3832071Y-719928D01*
X3841595Y-729452D01*
X3860643Y-738976D01*
X3898738Y-738976D01*
X3917786Y-729452D01*
X3927309Y-719928D01*
X3936833Y-700881D01*
X3936833Y-662786D01*
X3927309Y-643738D01*
X3917786Y-634214D01*
X3898738Y-624690D01*
X4174928Y-738976D02*
X4174928Y-538976D01*
X4260643Y-738976D02*
X4260643Y-634214D01*
X4251119Y-615167D01*
X4232071Y-605643D01*
X4203500Y-605643D01*
X4184452Y-615167D01*
X4174928Y-624690D01*
X4384452Y-738976D02*
X4365405Y-729452D01*
X4355881Y-719928D01*
X4346357Y-700881D01*
X4346357Y-643738D01*
X4355881Y-624690D01*
X4365405Y-615167D01*
X4384452Y-605643D01*
X4413024Y-605643D01*
X4432071Y-615167D01*
X4441595Y-624690D01*
X4451119Y-643738D01*
X4451119Y-700881D01*
X4441595Y-719928D01*
X4432071Y-729452D01*
X4413024Y-738976D01*
X4384452Y-738976D01*
X4565405Y-738976D02*
X4546357Y-729452D01*
X4536833Y-710405D01*
X4536833Y-538976D01*
X4717786Y-729452D02*
X4698738Y-738976D01*
X4660643Y-738976D01*
X4641595Y-729452D01*
X4632071Y-710405D01*
X4632071Y-634214D01*
X4641595Y-615167D01*
X4660643Y-605643D01*
X4698738Y-605643D01*
X4717786Y-615167D01*
X4727310Y-634214D01*
X4727310Y-653262D01*
X4632071Y-672310D01*
X4803500Y-729452D02*
X4822548Y-738976D01*
X4860643Y-738976D01*
X4879690Y-729452D01*
X4889214Y-710405D01*
X4889214Y-700881D01*
X4879690Y-681833D01*
X4860643Y-672310D01*
X4832071Y-672310D01*
X4813024Y-662786D01*
X4803500Y-643738D01*
X4803500Y-634214D01*
X4813024Y-615167D01*
X4832071Y-605643D01*
X4860643Y-605643D01*
X4879690Y-615167D01*
X4955881Y-815167D02*
X4965405Y-805643D01*
X4984452Y-777071D01*
X4993976Y-758024D01*
X5003500Y-729452D01*
X5013024Y-681833D01*
X5013024Y-643738D01*
X5003500Y-596119D01*
X4993976Y-567548D01*
X4984452Y-548500D01*
X4965405Y-519928D01*
X4955881Y-510405D01*
D13*
X-6500Y-912500D02*
G75*
G03*
X-6500Y-912500I-25000J0D01*
G01*
D11*
X289214Y-802976D02*
X308262Y-802976D01*
X327310Y-812500D01*
X336833Y-822024D01*
X346357Y-841071D01*
X355881Y-879167D01*
X355881Y-926786D01*
X346357Y-964881D01*
X336833Y-983928D01*
X327310Y-993452D01*
X308262Y-1002976D01*
X289214Y-1002976D01*
X270167Y-993452D01*
X260643Y-983928D01*
X251119Y-964881D01*
X241595Y-926786D01*
X241595Y-879167D01*
X251119Y-841071D01*
X260643Y-822024D01*
X270167Y-812500D01*
X289214Y-802976D01*
X441595Y-983928D02*
X451119Y-993452D01*
X441595Y-1002976D01*
X432071Y-993452D01*
X441595Y-983928D01*
X441595Y-1002976D01*
X632071Y-802976D02*
X536833Y-802976D01*
X527310Y-898214D01*
X536833Y-888690D01*
X555881Y-879167D01*
X603500Y-879167D01*
X622548Y-888690D01*
X632071Y-898214D01*
X641595Y-917262D01*
X641595Y-964881D01*
X632071Y-983928D01*
X622548Y-993452D01*
X603500Y-1002976D01*
X555881Y-1002976D01*
X536833Y-993452D01*
X527310Y-983928D01*
X765405Y-802976D02*
X784452Y-802976D01*
X803500Y-812500D01*
X813024Y-822024D01*
X822548Y-841071D01*
X832071Y-879167D01*
X832071Y-926786D01*
X822548Y-964881D01*
X813024Y-983928D01*
X803500Y-993452D01*
X784452Y-1002976D01*
X765405Y-1002976D01*
X746357Y-993452D01*
X736833Y-983928D01*
X727309Y-964881D01*
X717786Y-926786D01*
X717786Y-879167D01*
X727309Y-841071D01*
X736833Y-822024D01*
X746357Y-812500D01*
X765405Y-802976D01*
X955881Y-802976D02*
X974928Y-802976D01*
X993976Y-812500D01*
X1003500Y-822024D01*
X1013024Y-841071D01*
X1022548Y-879167D01*
X1022548Y-926786D01*
X1013024Y-964881D01*
X1003500Y-983928D01*
X993976Y-993452D01*
X974928Y-1002976D01*
X955881Y-1002976D01*
X936833Y-993452D01*
X927309Y-983928D01*
X917786Y-964881D01*
X908262Y-926786D01*
X908262Y-879167D01*
X917786Y-841071D01*
X927309Y-822024D01*
X936833Y-812500D01*
X955881Y-802976D01*
X1108262Y-1002976D02*
X1108262Y-869643D01*
X1108262Y-888690D02*
X1117786Y-879167D01*
X1136833Y-869643D01*
X1165405Y-869643D01*
X1184452Y-879167D01*
X1193976Y-898214D01*
X1193976Y-1002976D01*
X1193976Y-898214D02*
X1203500Y-879167D01*
X1222548Y-869643D01*
X1251119Y-869643D01*
X1270167Y-879167D01*
X1279690Y-898214D01*
X1279690Y-1002976D01*
X1374929Y-1002976D02*
X1374929Y-869643D01*
X1374929Y-888690D02*
X1384452Y-879167D01*
X1403500Y-869643D01*
X1432071Y-869643D01*
X1451119Y-879167D01*
X1460643Y-898214D01*
X1460643Y-1002976D01*
X1460643Y-898214D02*
X1470167Y-879167D01*
X1489214Y-869643D01*
X1517786Y-869643D01*
X1536833Y-879167D01*
X1546357Y-898214D01*
X1546357Y-1002976D01*
X1936833Y-793452D02*
X1765405Y-1050595D01*
X2193976Y-802976D02*
X2213024Y-802976D01*
X2232071Y-812500D01*
X2241595Y-822024D01*
X2251119Y-841071D01*
X2260643Y-879167D01*
X2260643Y-926786D01*
X2251119Y-964881D01*
X2241595Y-983928D01*
X2232071Y-993452D01*
X2213024Y-1002976D01*
X2193976Y-1002976D01*
X2174929Y-993452D01*
X2165405Y-983928D01*
X2155881Y-964881D01*
X2146357Y-926786D01*
X2146357Y-879167D01*
X2155881Y-841071D01*
X2165405Y-822024D01*
X2174929Y-812500D01*
X2193976Y-802976D01*
X2346357Y-983928D02*
X2355881Y-993452D01*
X2346357Y-1002976D01*
X2336833Y-993452D01*
X2346357Y-983928D01*
X2346357Y-1002976D01*
X2479690Y-802976D02*
X2498738Y-802976D01*
X2517786Y-812500D01*
X2527310Y-822024D01*
X2536833Y-841071D01*
X2546357Y-879167D01*
X2546357Y-926786D01*
X2536833Y-964881D01*
X2527310Y-983928D01*
X2517786Y-993452D01*
X2498738Y-1002976D01*
X2479690Y-1002976D01*
X2460643Y-993452D01*
X2451119Y-983928D01*
X2441595Y-964881D01*
X2432071Y-926786D01*
X2432071Y-879167D01*
X2441595Y-841071D01*
X2451119Y-822024D01*
X2460643Y-812500D01*
X2479690Y-802976D01*
X2736833Y-1002976D02*
X2622548Y-1002976D01*
X2679690Y-1002976D02*
X2679690Y-802976D01*
X2660643Y-831548D01*
X2641595Y-850595D01*
X2622548Y-860119D01*
X2832071Y-1002976D02*
X2870167Y-1002976D01*
X2889214Y-993452D01*
X2898738Y-983928D01*
X2917786Y-955357D01*
X2927309Y-917262D01*
X2927309Y-841071D01*
X2917786Y-822024D01*
X2908262Y-812500D01*
X2889214Y-802976D01*
X2851119Y-802976D01*
X2832071Y-812500D01*
X2822548Y-822024D01*
X2813024Y-841071D01*
X2813024Y-888690D01*
X2822548Y-907738D01*
X2832071Y-917262D01*
X2851119Y-926786D01*
X2889214Y-926786D01*
X2908262Y-917262D01*
X2917786Y-907738D01*
X2927309Y-888690D01*
X2993976Y-802976D02*
X3127309Y-802976D01*
X3041595Y-1002976D01*
X3193976Y-802976D02*
X3193976Y-841071D01*
X3270167Y-802976D02*
X3270167Y-841071D01*
X3565405Y-1079167D02*
X3555881Y-1069643D01*
X3536833Y-1041071D01*
X3527309Y-1022024D01*
X3517786Y-993452D01*
X3508262Y-945833D01*
X3508262Y-907738D01*
X3517786Y-860119D01*
X3527309Y-831548D01*
X3536833Y-812500D01*
X3555881Y-783928D01*
X3565405Y-774405D01*
X3670167Y-888690D02*
X3651119Y-879167D01*
X3641595Y-869643D01*
X3632071Y-850595D01*
X3632071Y-841071D01*
X3641595Y-822024D01*
X3651119Y-812500D01*
X3670167Y-802976D01*
X3708262Y-802976D01*
X3727309Y-812500D01*
X3736833Y-822024D01*
X3746357Y-841071D01*
X3746357Y-850595D01*
X3736833Y-869643D01*
X3727309Y-879167D01*
X3708262Y-888690D01*
X3670167Y-888690D01*
X3651119Y-898214D01*
X3641595Y-907738D01*
X3632071Y-926786D01*
X3632071Y-964881D01*
X3641595Y-983928D01*
X3651119Y-993452D01*
X3670167Y-1002976D01*
X3708262Y-1002976D01*
X3727309Y-993452D01*
X3736833Y-983928D01*
X3746357Y-964881D01*
X3746357Y-926786D01*
X3736833Y-907738D01*
X3727309Y-898214D01*
X3708262Y-888690D01*
X3984452Y-1002976D02*
X3984452Y-802976D01*
X4070167Y-1002976D02*
X4070167Y-898214D01*
X4060643Y-879167D01*
X4041595Y-869643D01*
X4013024Y-869643D01*
X3993976Y-879167D01*
X3984452Y-888690D01*
X4193976Y-1002976D02*
X4174928Y-993452D01*
X4165405Y-983928D01*
X4155881Y-964881D01*
X4155881Y-907738D01*
X4165405Y-888690D01*
X4174928Y-879167D01*
X4193976Y-869643D01*
X4222548Y-869643D01*
X4241595Y-879167D01*
X4251119Y-888690D01*
X4260643Y-907738D01*
X4260643Y-964881D01*
X4251119Y-983928D01*
X4241595Y-993452D01*
X4222548Y-1002976D01*
X4193976Y-1002976D01*
X4374929Y-1002976D02*
X4355881Y-993452D01*
X4346357Y-974405D01*
X4346357Y-802976D01*
X4527310Y-993452D02*
X4508262Y-1002976D01*
X4470167Y-1002976D01*
X4451119Y-993452D01*
X4441595Y-974405D01*
X4441595Y-898214D01*
X4451119Y-879167D01*
X4470167Y-869643D01*
X4508262Y-869643D01*
X4527310Y-879167D01*
X4536833Y-898214D01*
X4536833Y-917262D01*
X4441595Y-936309D01*
X4613024Y-993452D02*
X4632071Y-1002976D01*
X4670167Y-1002976D01*
X4689214Y-993452D01*
X4698738Y-974405D01*
X4698738Y-964881D01*
X4689214Y-945833D01*
X4670167Y-936309D01*
X4641595Y-936309D01*
X4622548Y-926786D01*
X4613024Y-907738D01*
X4613024Y-898214D01*
X4622548Y-879167D01*
X4641595Y-869643D01*
X4670167Y-869643D01*
X4689214Y-879167D01*
X4765405Y-1079167D02*
X4774929Y-1069643D01*
X4793976Y-1041071D01*
X4803500Y-1022024D01*
X4813024Y-993452D01*
X4822548Y-945833D01*
X4822548Y-907738D01*
X4813024Y-860119D01*
X4803500Y-831548D01*
X4793976Y-812500D01*
X4774929Y-783928D01*
X4765405Y-774405D01*
D14*
X-39000Y-1144000D02*
X-39000Y-1209000D01*
X-71500Y-1176500D02*
X-6500Y-1176500D01*
D11*
X289214Y-1066976D02*
X308262Y-1066976D01*
X327310Y-1076500D01*
X336833Y-1086024D01*
X346357Y-1105071D01*
X355881Y-1143167D01*
X355881Y-1190786D01*
X346357Y-1228881D01*
X336833Y-1247929D01*
X327310Y-1257452D01*
X308262Y-1266976D01*
X289214Y-1266976D01*
X270167Y-1257452D01*
X260643Y-1247929D01*
X251119Y-1228881D01*
X241595Y-1190786D01*
X241595Y-1143167D01*
X251119Y-1105071D01*
X260643Y-1086024D01*
X270167Y-1076500D01*
X289214Y-1066976D01*
X441595Y-1247929D02*
X451119Y-1257452D01*
X441595Y-1266976D01*
X432071Y-1257452D01*
X441595Y-1247929D01*
X441595Y-1266976D01*
X622548Y-1066976D02*
X584452Y-1066976D01*
X565405Y-1076500D01*
X555881Y-1086024D01*
X536833Y-1114595D01*
X527310Y-1152690D01*
X527310Y-1228881D01*
X536833Y-1247929D01*
X546357Y-1257452D01*
X565405Y-1266976D01*
X603500Y-1266976D01*
X622548Y-1257452D01*
X632071Y-1247929D01*
X641595Y-1228881D01*
X641595Y-1181262D01*
X632071Y-1162214D01*
X622548Y-1152690D01*
X603500Y-1143167D01*
X565405Y-1143167D01*
X546357Y-1152690D01*
X536833Y-1162214D01*
X527310Y-1181262D01*
X822548Y-1066976D02*
X727309Y-1066976D01*
X717786Y-1162214D01*
X727309Y-1152690D01*
X746357Y-1143167D01*
X793976Y-1143167D01*
X813024Y-1152690D01*
X822548Y-1162214D01*
X832071Y-1181262D01*
X832071Y-1228881D01*
X822548Y-1247929D01*
X813024Y-1257452D01*
X793976Y-1266976D01*
X746357Y-1266976D01*
X727309Y-1257452D01*
X717786Y-1247929D01*
X955881Y-1066976D02*
X974928Y-1066976D01*
X993976Y-1076500D01*
X1003500Y-1086024D01*
X1013024Y-1105071D01*
X1022548Y-1143167D01*
X1022548Y-1190786D01*
X1013024Y-1228881D01*
X1003500Y-1247929D01*
X993976Y-1257452D01*
X974928Y-1266976D01*
X955881Y-1266976D01*
X936833Y-1257452D01*
X927309Y-1247929D01*
X917786Y-1228881D01*
X908262Y-1190786D01*
X908262Y-1143167D01*
X917786Y-1105071D01*
X927309Y-1086024D01*
X936833Y-1076500D01*
X955881Y-1066976D01*
X1108262Y-1266976D02*
X1108262Y-1133643D01*
X1108262Y-1152690D02*
X1117786Y-1143167D01*
X1136833Y-1133643D01*
X1165405Y-1133643D01*
X1184452Y-1143167D01*
X1193976Y-1162214D01*
X1193976Y-1266976D01*
X1193976Y-1162214D02*
X1203500Y-1143167D01*
X1222548Y-1133643D01*
X1251119Y-1133643D01*
X1270167Y-1143167D01*
X1279690Y-1162214D01*
X1279690Y-1266976D01*
X1374929Y-1266976D02*
X1374929Y-1133643D01*
X1374929Y-1152690D02*
X1384452Y-1143167D01*
X1403500Y-1133643D01*
X1432071Y-1133643D01*
X1451119Y-1143167D01*
X1460643Y-1162214D01*
X1460643Y-1266976D01*
X1460643Y-1162214D02*
X1470167Y-1143167D01*
X1489214Y-1133643D01*
X1517786Y-1133643D01*
X1536833Y-1143167D01*
X1546357Y-1162214D01*
X1546357Y-1266976D01*
X1936833Y-1057452D02*
X1765405Y-1314595D01*
X2193976Y-1066976D02*
X2213024Y-1066976D01*
X2232071Y-1076500D01*
X2241595Y-1086024D01*
X2251119Y-1105071D01*
X2260643Y-1143167D01*
X2260643Y-1190786D01*
X2251119Y-1228881D01*
X2241595Y-1247929D01*
X2232071Y-1257452D01*
X2213024Y-1266976D01*
X2193976Y-1266976D01*
X2174929Y-1257452D01*
X2165405Y-1247929D01*
X2155881Y-1228881D01*
X2146357Y-1190786D01*
X2146357Y-1143167D01*
X2155881Y-1105071D01*
X2165405Y-1086024D01*
X2174929Y-1076500D01*
X2193976Y-1066976D01*
X2346357Y-1247929D02*
X2355881Y-1257452D01*
X2346357Y-1266976D01*
X2336833Y-1257452D01*
X2346357Y-1247929D01*
X2346357Y-1266976D01*
X2479690Y-1066976D02*
X2498738Y-1066976D01*
X2517786Y-1076500D01*
X2527310Y-1086024D01*
X2536833Y-1105071D01*
X2546357Y-1143167D01*
X2546357Y-1190786D01*
X2536833Y-1228881D01*
X2527310Y-1247929D01*
X2517786Y-1257452D01*
X2498738Y-1266976D01*
X2479690Y-1266976D01*
X2460643Y-1257452D01*
X2451119Y-1247929D01*
X2441595Y-1228881D01*
X2432071Y-1190786D01*
X2432071Y-1143167D01*
X2441595Y-1105071D01*
X2451119Y-1086024D01*
X2460643Y-1076500D01*
X2479690Y-1066976D01*
X2622548Y-1086024D02*
X2632071Y-1076500D01*
X2651119Y-1066976D01*
X2698738Y-1066976D01*
X2717786Y-1076500D01*
X2727310Y-1086024D01*
X2736833Y-1105071D01*
X2736833Y-1124119D01*
X2727310Y-1152690D01*
X2613024Y-1266976D01*
X2736833Y-1266976D01*
X2917786Y-1066976D02*
X2822548Y-1066976D01*
X2813024Y-1162214D01*
X2822548Y-1152690D01*
X2841595Y-1143167D01*
X2889214Y-1143167D01*
X2908262Y-1152690D01*
X2917786Y-1162214D01*
X2927309Y-1181262D01*
X2927309Y-1228881D01*
X2917786Y-1247929D01*
X2908262Y-1257452D01*
X2889214Y-1266976D01*
X2841595Y-1266976D01*
X2822548Y-1257452D01*
X2813024Y-1247929D01*
X3098738Y-1066976D02*
X3060643Y-1066976D01*
X3041595Y-1076500D01*
X3032071Y-1086024D01*
X3013024Y-1114595D01*
X3003500Y-1152690D01*
X3003500Y-1228881D01*
X3013024Y-1247929D01*
X3022548Y-1257452D01*
X3041595Y-1266976D01*
X3079690Y-1266976D01*
X3098738Y-1257452D01*
X3108262Y-1247929D01*
X3117786Y-1228881D01*
X3117786Y-1181262D01*
X3108262Y-1162214D01*
X3098738Y-1152690D01*
X3079690Y-1143167D01*
X3041595Y-1143167D01*
X3022548Y-1152690D01*
X3013024Y-1162214D01*
X3003500Y-1181262D01*
X3193976Y-1066976D02*
X3193976Y-1105071D01*
X3270167Y-1066976D02*
X3270167Y-1105071D01*
X3565405Y-1343167D02*
X3555881Y-1333643D01*
X3536833Y-1305071D01*
X3527309Y-1286024D01*
X3517786Y-1257452D01*
X3508262Y-1209833D01*
X3508262Y-1171738D01*
X3517786Y-1124119D01*
X3527309Y-1095548D01*
X3536833Y-1076500D01*
X3555881Y-1047928D01*
X3565405Y-1038405D01*
X3622548Y-1066976D02*
X3746357Y-1066976D01*
X3679690Y-1143167D01*
X3708262Y-1143167D01*
X3727309Y-1152690D01*
X3736833Y-1162214D01*
X3746357Y-1181262D01*
X3746357Y-1228881D01*
X3736833Y-1247929D01*
X3727309Y-1257452D01*
X3708262Y-1266976D01*
X3651119Y-1266976D01*
X3632071Y-1257452D01*
X3622548Y-1247929D01*
X3984452Y-1266976D02*
X3984452Y-1066976D01*
X4070167Y-1266976D02*
X4070167Y-1162214D01*
X4060643Y-1143167D01*
X4041595Y-1133643D01*
X4013024Y-1133643D01*
X3993976Y-1143167D01*
X3984452Y-1152690D01*
X4193976Y-1266976D02*
X4174928Y-1257452D01*
X4165405Y-1247929D01*
X4155881Y-1228881D01*
X4155881Y-1171738D01*
X4165405Y-1152690D01*
X4174928Y-1143167D01*
X4193976Y-1133643D01*
X4222548Y-1133643D01*
X4241595Y-1143167D01*
X4251119Y-1152690D01*
X4260643Y-1171738D01*
X4260643Y-1228881D01*
X4251119Y-1247929D01*
X4241595Y-1257452D01*
X4222548Y-1266976D01*
X4193976Y-1266976D01*
X4374929Y-1266976D02*
X4355881Y-1257452D01*
X4346357Y-1238405D01*
X4346357Y-1066976D01*
X4527310Y-1257452D02*
X4508262Y-1266976D01*
X4470167Y-1266976D01*
X4451119Y-1257452D01*
X4441595Y-1238405D01*
X4441595Y-1162214D01*
X4451119Y-1143167D01*
X4470167Y-1133643D01*
X4508262Y-1133643D01*
X4527310Y-1143167D01*
X4536833Y-1162214D01*
X4536833Y-1181262D01*
X4441595Y-1200310D01*
X4613024Y-1257452D02*
X4632071Y-1266976D01*
X4670167Y-1266976D01*
X4689214Y-1257452D01*
X4698738Y-1238405D01*
X4698738Y-1228881D01*
X4689214Y-1209833D01*
X4670167Y-1200310D01*
X4641595Y-1200310D01*
X4622548Y-1190786D01*
X4613024Y-1171738D01*
X4613024Y-1162214D01*
X4622548Y-1143167D01*
X4641595Y-1133643D01*
X4670167Y-1133643D01*
X4689214Y-1143167D01*
X4765405Y-1343167D02*
X4774929Y-1333643D01*
X4793976Y-1305071D01*
X4803500Y-1286024D01*
X4813024Y-1257452D01*
X4822548Y-1209833D01*
X4822548Y-1171738D01*
X4813024Y-1124119D01*
X4803500Y-1095548D01*
X4793976Y-1076500D01*
X4774929Y-1047928D01*
X4765405Y-1038405D01*
D15*
X-18216Y-1468784D02*
X-18216Y-1412215D01*
X-74785Y-1412215D01*
X-74785Y-1468784D01*
X-18216Y-1468784D01*
D11*
X289214Y-1330976D02*
X308262Y-1330976D01*
X327310Y-1340500D01*
X336833Y-1350024D01*
X346357Y-1369071D01*
X355881Y-1407167D01*
X355881Y-1454786D01*
X346357Y-1492881D01*
X336833Y-1511928D01*
X327310Y-1521452D01*
X308262Y-1530976D01*
X289214Y-1530976D01*
X270167Y-1521452D01*
X260643Y-1511928D01*
X251119Y-1492881D01*
X241595Y-1454786D01*
X241595Y-1407167D01*
X251119Y-1369071D01*
X260643Y-1350024D01*
X270167Y-1340500D01*
X289214Y-1330976D01*
X441595Y-1511928D02*
X451119Y-1521452D01*
X441595Y-1530976D01*
X432071Y-1521452D01*
X441595Y-1511928D01*
X441595Y-1530976D01*
X565405Y-1416690D02*
X546357Y-1407167D01*
X536833Y-1397643D01*
X527310Y-1378595D01*
X527310Y-1369071D01*
X536833Y-1350024D01*
X546357Y-1340500D01*
X565405Y-1330976D01*
X603500Y-1330976D01*
X622548Y-1340500D01*
X632071Y-1350024D01*
X641595Y-1369071D01*
X641595Y-1378595D01*
X632071Y-1397643D01*
X622548Y-1407167D01*
X603500Y-1416690D01*
X565405Y-1416690D01*
X546357Y-1426214D01*
X536833Y-1435738D01*
X527310Y-1454786D01*
X527310Y-1492881D01*
X536833Y-1511928D01*
X546357Y-1521452D01*
X565405Y-1530976D01*
X603500Y-1530976D01*
X622548Y-1521452D01*
X632071Y-1511928D01*
X641595Y-1492881D01*
X641595Y-1454786D01*
X632071Y-1435738D01*
X622548Y-1426214D01*
X603500Y-1416690D01*
X765405Y-1330976D02*
X784452Y-1330976D01*
X803500Y-1340500D01*
X813024Y-1350024D01*
X822548Y-1369071D01*
X832071Y-1407167D01*
X832071Y-1454786D01*
X822548Y-1492881D01*
X813024Y-1511928D01*
X803500Y-1521452D01*
X784452Y-1530976D01*
X765405Y-1530976D01*
X746357Y-1521452D01*
X736833Y-1511928D01*
X727309Y-1492881D01*
X717786Y-1454786D01*
X717786Y-1407167D01*
X727309Y-1369071D01*
X736833Y-1350024D01*
X746357Y-1340500D01*
X765405Y-1330976D01*
X955881Y-1330976D02*
X974928Y-1330976D01*
X993976Y-1340500D01*
X1003500Y-1350024D01*
X1013024Y-1369071D01*
X1022548Y-1407167D01*
X1022548Y-1454786D01*
X1013024Y-1492881D01*
X1003500Y-1511928D01*
X993976Y-1521452D01*
X974928Y-1530976D01*
X955881Y-1530976D01*
X936833Y-1521452D01*
X927309Y-1511928D01*
X917786Y-1492881D01*
X908262Y-1454786D01*
X908262Y-1407167D01*
X917786Y-1369071D01*
X927309Y-1350024D01*
X936833Y-1340500D01*
X955881Y-1330976D01*
X1108262Y-1530976D02*
X1108262Y-1397643D01*
X1108262Y-1416690D02*
X1117786Y-1407167D01*
X1136833Y-1397643D01*
X1165405Y-1397643D01*
X1184452Y-1407167D01*
X1193976Y-1426214D01*
X1193976Y-1530976D01*
X1193976Y-1426214D02*
X1203500Y-1407167D01*
X1222548Y-1397643D01*
X1251119Y-1397643D01*
X1270167Y-1407167D01*
X1279690Y-1426214D01*
X1279690Y-1530976D01*
X1374929Y-1530976D02*
X1374929Y-1397643D01*
X1374929Y-1416690D02*
X1384452Y-1407167D01*
X1403500Y-1397643D01*
X1432071Y-1397643D01*
X1451119Y-1407167D01*
X1460643Y-1426214D01*
X1460643Y-1530976D01*
X1460643Y-1426214D02*
X1470167Y-1407167D01*
X1489214Y-1397643D01*
X1517786Y-1397643D01*
X1536833Y-1407167D01*
X1546357Y-1426214D01*
X1546357Y-1530976D01*
X1936833Y-1321452D02*
X1765405Y-1578595D01*
X2193976Y-1330976D02*
X2213024Y-1330976D01*
X2232071Y-1340500D01*
X2241595Y-1350024D01*
X2251119Y-1369071D01*
X2260643Y-1407167D01*
X2260643Y-1454786D01*
X2251119Y-1492881D01*
X2241595Y-1511928D01*
X2232071Y-1521452D01*
X2213024Y-1530976D01*
X2193976Y-1530976D01*
X2174929Y-1521452D01*
X2165405Y-1511928D01*
X2155881Y-1492881D01*
X2146357Y-1454786D01*
X2146357Y-1407167D01*
X2155881Y-1369071D01*
X2165405Y-1350024D01*
X2174929Y-1340500D01*
X2193976Y-1330976D01*
X2346357Y-1511928D02*
X2355881Y-1521452D01*
X2346357Y-1530976D01*
X2336833Y-1521452D01*
X2346357Y-1511928D01*
X2346357Y-1530976D01*
X2479690Y-1330976D02*
X2498738Y-1330976D01*
X2517786Y-1340500D01*
X2527310Y-1350024D01*
X2536833Y-1369071D01*
X2546357Y-1407167D01*
X2546357Y-1454786D01*
X2536833Y-1492881D01*
X2527310Y-1511928D01*
X2517786Y-1521452D01*
X2498738Y-1530976D01*
X2479690Y-1530976D01*
X2460643Y-1521452D01*
X2451119Y-1511928D01*
X2441595Y-1492881D01*
X2432071Y-1454786D01*
X2432071Y-1407167D01*
X2441595Y-1369071D01*
X2451119Y-1350024D01*
X2460643Y-1340500D01*
X2479690Y-1330976D01*
X2613024Y-1330976D02*
X2736833Y-1330976D01*
X2670167Y-1407167D01*
X2698738Y-1407167D01*
X2717786Y-1416690D01*
X2727310Y-1426214D01*
X2736833Y-1445262D01*
X2736833Y-1492881D01*
X2727310Y-1511928D01*
X2717786Y-1521452D01*
X2698738Y-1530976D01*
X2641595Y-1530976D01*
X2622548Y-1521452D01*
X2613024Y-1511928D01*
X2927309Y-1530976D02*
X2813024Y-1530976D01*
X2870167Y-1530976D02*
X2870167Y-1330976D01*
X2851119Y-1359548D01*
X2832071Y-1378595D01*
X2813024Y-1388119D01*
X3108262Y-1330976D02*
X3013024Y-1330976D01*
X3003500Y-1426214D01*
X3013024Y-1416690D01*
X3032071Y-1407167D01*
X3079690Y-1407167D01*
X3098738Y-1416690D01*
X3108262Y-1426214D01*
X3117786Y-1445262D01*
X3117786Y-1492881D01*
X3108262Y-1511928D01*
X3098738Y-1521452D01*
X3079690Y-1530976D01*
X3032071Y-1530976D01*
X3013024Y-1521452D01*
X3003500Y-1511928D01*
X3193976Y-1330976D02*
X3193976Y-1369071D01*
X3270167Y-1330976D02*
X3270167Y-1369071D01*
X3565405Y-1607167D02*
X3555881Y-1597643D01*
X3536833Y-1569071D01*
X3527309Y-1550024D01*
X3517786Y-1521452D01*
X3508262Y-1473833D01*
X3508262Y-1435738D01*
X3517786Y-1388119D01*
X3527309Y-1359548D01*
X3536833Y-1340500D01*
X3555881Y-1311929D01*
X3565405Y-1302405D01*
X3622548Y-1330976D02*
X3746357Y-1330976D01*
X3679690Y-1407167D01*
X3708262Y-1407167D01*
X3727309Y-1416690D01*
X3736833Y-1426214D01*
X3746357Y-1445262D01*
X3746357Y-1492881D01*
X3736833Y-1511928D01*
X3727309Y-1521452D01*
X3708262Y-1530976D01*
X3651119Y-1530976D01*
X3632071Y-1521452D01*
X3622548Y-1511928D01*
X3917786Y-1397643D02*
X3917786Y-1530976D01*
X3870167Y-1321452D02*
X3822548Y-1464309D01*
X3946357Y-1464309D01*
X4174928Y-1530976D02*
X4174928Y-1330976D01*
X4260643Y-1530976D02*
X4260643Y-1426214D01*
X4251119Y-1407167D01*
X4232071Y-1397643D01*
X4203500Y-1397643D01*
X4184452Y-1407167D01*
X4174928Y-1416690D01*
X4384452Y-1530976D02*
X4365405Y-1521452D01*
X4355881Y-1511928D01*
X4346357Y-1492881D01*
X4346357Y-1435738D01*
X4355881Y-1416690D01*
X4365405Y-1407167D01*
X4384452Y-1397643D01*
X4413024Y-1397643D01*
X4432071Y-1407167D01*
X4441595Y-1416690D01*
X4451119Y-1435738D01*
X4451119Y-1492881D01*
X4441595Y-1511928D01*
X4432071Y-1521452D01*
X4413024Y-1530976D01*
X4384452Y-1530976D01*
X4565405Y-1530976D02*
X4546357Y-1521452D01*
X4536833Y-1502405D01*
X4536833Y-1330976D01*
X4717786Y-1521452D02*
X4698738Y-1530976D01*
X4660643Y-1530976D01*
X4641595Y-1521452D01*
X4632071Y-1502405D01*
X4632071Y-1426214D01*
X4641595Y-1407167D01*
X4660643Y-1397643D01*
X4698738Y-1397643D01*
X4717786Y-1407167D01*
X4727310Y-1426214D01*
X4727310Y-1445262D01*
X4632071Y-1464309D01*
X4803500Y-1521452D02*
X4822548Y-1530976D01*
X4860643Y-1530976D01*
X4879690Y-1521452D01*
X4889214Y-1502405D01*
X4889214Y-1492881D01*
X4879690Y-1473833D01*
X4860643Y-1464309D01*
X4832071Y-1464309D01*
X4813024Y-1454786D01*
X4803500Y-1435738D01*
X4803500Y-1426214D01*
X4813024Y-1407167D01*
X4832071Y-1397643D01*
X4860643Y-1397643D01*
X4879690Y-1407167D01*
X5127310Y-1454786D02*
X5279690Y-1454786D01*
X5203500Y-1530976D02*
X5203500Y-1378595D01*
X5517786Y-1350024D02*
X5527310Y-1340500D01*
X5546357Y-1330976D01*
X5593976Y-1330976D01*
X5613024Y-1340500D01*
X5622548Y-1350024D01*
X5632071Y-1369071D01*
X5632071Y-1388119D01*
X5622548Y-1416690D01*
X5508262Y-1530976D01*
X5632071Y-1530976D01*
X5860643Y-1521452D02*
X5879690Y-1530976D01*
X5917786Y-1530976D01*
X5936833Y-1521452D01*
X5946357Y-1502405D01*
X5946357Y-1492881D01*
X5936833Y-1473833D01*
X5917786Y-1464309D01*
X5889214Y-1464309D01*
X5870167Y-1454786D01*
X5860643Y-1435738D01*
X5860643Y-1426214D01*
X5870167Y-1407167D01*
X5889214Y-1397643D01*
X5917786Y-1397643D01*
X5936833Y-1407167D01*
X6060643Y-1530976D02*
X6041595Y-1521452D01*
X6032071Y-1502405D01*
X6032071Y-1330976D01*
X6165405Y-1530976D02*
X6146357Y-1521452D01*
X6136833Y-1511928D01*
X6127309Y-1492881D01*
X6127309Y-1435738D01*
X6136833Y-1416690D01*
X6146357Y-1407167D01*
X6165405Y-1397643D01*
X6193976Y-1397643D01*
X6213024Y-1407167D01*
X6222548Y-1416690D01*
X6232071Y-1435738D01*
X6232071Y-1492881D01*
X6222548Y-1511928D01*
X6213024Y-1521452D01*
X6193976Y-1530976D01*
X6165405Y-1530976D01*
X6289214Y-1397643D02*
X6365405Y-1397643D01*
X6317786Y-1330976D02*
X6317786Y-1502405D01*
X6327309Y-1521452D01*
X6346357Y-1530976D01*
X6365405Y-1530976D01*
X6422548Y-1521452D02*
X6441595Y-1530976D01*
X6479690Y-1530976D01*
X6498738Y-1521452D01*
X6508262Y-1502405D01*
X6508262Y-1492881D01*
X6498738Y-1473833D01*
X6479690Y-1464309D01*
X6451119Y-1464309D01*
X6432071Y-1454786D01*
X6422548Y-1435738D01*
X6422548Y-1426214D01*
X6432071Y-1407167D01*
X6451119Y-1397643D01*
X6479690Y-1397643D01*
X6498738Y-1407167D01*
X6574928Y-1607167D02*
X6584452Y-1597643D01*
X6603500Y-1569071D01*
X6613024Y-1550024D01*
X6622548Y-1521452D01*
X6632071Y-1473833D01*
X6632071Y-1435738D01*
X6622548Y-1388119D01*
X6613024Y-1359548D01*
X6603500Y-1340500D01*
X6584452Y-1311929D01*
X6574928Y-1302405D01*
D16*
X-51500Y-1749500D02*
X-6500Y-1704500D01*
X-51500Y-1659500D01*
X-96500Y-1704500D01*
X-51500Y-1749500D01*
D11*
X289214Y-1594976D02*
X308262Y-1594976D01*
X327310Y-1604500D01*
X336833Y-1614024D01*
X346357Y-1633071D01*
X355881Y-1671167D01*
X355881Y-1718786D01*
X346357Y-1756881D01*
X336833Y-1775928D01*
X327310Y-1785452D01*
X308262Y-1794976D01*
X289214Y-1794976D01*
X270167Y-1785452D01*
X260643Y-1775928D01*
X251119Y-1756881D01*
X241595Y-1718786D01*
X241595Y-1671167D01*
X251119Y-1633071D01*
X260643Y-1614024D01*
X270167Y-1604500D01*
X289214Y-1594976D01*
X441595Y-1775928D02*
X451119Y-1785452D01*
X441595Y-1794976D01*
X432071Y-1785452D01*
X441595Y-1775928D01*
X441595Y-1794976D01*
X546357Y-1794976D02*
X584452Y-1794976D01*
X603500Y-1785452D01*
X613024Y-1775928D01*
X632071Y-1747357D01*
X641595Y-1709262D01*
X641595Y-1633071D01*
X632071Y-1614024D01*
X622548Y-1604500D01*
X603500Y-1594976D01*
X565405Y-1594976D01*
X546357Y-1604500D01*
X536833Y-1614024D01*
X527310Y-1633071D01*
X527310Y-1680690D01*
X536833Y-1699738D01*
X546357Y-1709262D01*
X565405Y-1718786D01*
X603500Y-1718786D01*
X622548Y-1709262D01*
X632071Y-1699738D01*
X641595Y-1680690D01*
X765405Y-1594976D02*
X784452Y-1594976D01*
X803500Y-1604500D01*
X813024Y-1614024D01*
X822548Y-1633071D01*
X832071Y-1671167D01*
X832071Y-1718786D01*
X822548Y-1756881D01*
X813024Y-1775928D01*
X803500Y-1785452D01*
X784452Y-1794976D01*
X765405Y-1794976D01*
X746357Y-1785452D01*
X736833Y-1775928D01*
X727309Y-1756881D01*
X717786Y-1718786D01*
X717786Y-1671167D01*
X727309Y-1633071D01*
X736833Y-1614024D01*
X746357Y-1604500D01*
X765405Y-1594976D01*
X955881Y-1594976D02*
X974928Y-1594976D01*
X993976Y-1604500D01*
X1003500Y-1614024D01*
X1013024Y-1633071D01*
X1022548Y-1671167D01*
X1022548Y-1718786D01*
X1013024Y-1756881D01*
X1003500Y-1775928D01*
X993976Y-1785452D01*
X974928Y-1794976D01*
X955881Y-1794976D01*
X936833Y-1785452D01*
X927309Y-1775928D01*
X917786Y-1756881D01*
X908262Y-1718786D01*
X908262Y-1671167D01*
X917786Y-1633071D01*
X927309Y-1614024D01*
X936833Y-1604500D01*
X955881Y-1594976D01*
X1108262Y-1794976D02*
X1108262Y-1661643D01*
X1108262Y-1680690D02*
X1117786Y-1671167D01*
X1136833Y-1661643D01*
X1165405Y-1661643D01*
X1184452Y-1671167D01*
X1193976Y-1690214D01*
X1193976Y-1794976D01*
X1193976Y-1690214D02*
X1203500Y-1671167D01*
X1222548Y-1661643D01*
X1251119Y-1661643D01*
X1270167Y-1671167D01*
X1279690Y-1690214D01*
X1279690Y-1794976D01*
X1374929Y-1794976D02*
X1374929Y-1661643D01*
X1374929Y-1680690D02*
X1384452Y-1671167D01*
X1403500Y-1661643D01*
X1432071Y-1661643D01*
X1451119Y-1671167D01*
X1460643Y-1690214D01*
X1460643Y-1794976D01*
X1460643Y-1690214D02*
X1470167Y-1671167D01*
X1489214Y-1661643D01*
X1517786Y-1661643D01*
X1536833Y-1671167D01*
X1546357Y-1690214D01*
X1546357Y-1794976D01*
X1936833Y-1585452D02*
X1765405Y-1842595D01*
X2193976Y-1594976D02*
X2213024Y-1594976D01*
X2232071Y-1604500D01*
X2241595Y-1614024D01*
X2251119Y-1633071D01*
X2260643Y-1671167D01*
X2260643Y-1718786D01*
X2251119Y-1756881D01*
X2241595Y-1775928D01*
X2232071Y-1785452D01*
X2213024Y-1794976D01*
X2193976Y-1794976D01*
X2174929Y-1785452D01*
X2165405Y-1775928D01*
X2155881Y-1756881D01*
X2146357Y-1718786D01*
X2146357Y-1671167D01*
X2155881Y-1633071D01*
X2165405Y-1614024D01*
X2174929Y-1604500D01*
X2193976Y-1594976D01*
X2346357Y-1775928D02*
X2355881Y-1785452D01*
X2346357Y-1794976D01*
X2336833Y-1785452D01*
X2346357Y-1775928D01*
X2346357Y-1794976D01*
X2479690Y-1594976D02*
X2498738Y-1594976D01*
X2517786Y-1604500D01*
X2527310Y-1614024D01*
X2536833Y-1633071D01*
X2546357Y-1671167D01*
X2546357Y-1718786D01*
X2536833Y-1756881D01*
X2527310Y-1775928D01*
X2517786Y-1785452D01*
X2498738Y-1794976D01*
X2479690Y-1794976D01*
X2460643Y-1785452D01*
X2451119Y-1775928D01*
X2441595Y-1756881D01*
X2432071Y-1718786D01*
X2432071Y-1671167D01*
X2441595Y-1633071D01*
X2451119Y-1614024D01*
X2460643Y-1604500D01*
X2479690Y-1594976D01*
X2613024Y-1594976D02*
X2736833Y-1594976D01*
X2670167Y-1671167D01*
X2698738Y-1671167D01*
X2717786Y-1680690D01*
X2727310Y-1690214D01*
X2736833Y-1709262D01*
X2736833Y-1756881D01*
X2727310Y-1775928D01*
X2717786Y-1785452D01*
X2698738Y-1794976D01*
X2641595Y-1794976D01*
X2622548Y-1785452D01*
X2613024Y-1775928D01*
X2917786Y-1594976D02*
X2822548Y-1594976D01*
X2813024Y-1690214D01*
X2822548Y-1680690D01*
X2841595Y-1671167D01*
X2889214Y-1671167D01*
X2908262Y-1680690D01*
X2917786Y-1690214D01*
X2927309Y-1709262D01*
X2927309Y-1756881D01*
X2917786Y-1775928D01*
X2908262Y-1785452D01*
X2889214Y-1794976D01*
X2841595Y-1794976D01*
X2822548Y-1785452D01*
X2813024Y-1775928D01*
X3098738Y-1661643D02*
X3098738Y-1794976D01*
X3051119Y-1585452D02*
X3003500Y-1728309D01*
X3127309Y-1728309D01*
X3193976Y-1594976D02*
X3193976Y-1633071D01*
X3270167Y-1594976D02*
X3270167Y-1633071D01*
X3565405Y-1871167D02*
X3555881Y-1861643D01*
X3536833Y-1833071D01*
X3527309Y-1814024D01*
X3517786Y-1785452D01*
X3508262Y-1737833D01*
X3508262Y-1699738D01*
X3517786Y-1652119D01*
X3527309Y-1623548D01*
X3536833Y-1604500D01*
X3555881Y-1575928D01*
X3565405Y-1566405D01*
X3632071Y-1614024D02*
X3641595Y-1604500D01*
X3660643Y-1594976D01*
X3708262Y-1594976D01*
X3727309Y-1604500D01*
X3736833Y-1614024D01*
X3746357Y-1633071D01*
X3746357Y-1652119D01*
X3736833Y-1680690D01*
X3622548Y-1794976D01*
X3746357Y-1794976D01*
X3813024Y-1594976D02*
X3936833Y-1594976D01*
X3870167Y-1671167D01*
X3898738Y-1671167D01*
X3917786Y-1680690D01*
X3927309Y-1690214D01*
X3936833Y-1709262D01*
X3936833Y-1756881D01*
X3927309Y-1775928D01*
X3917786Y-1785452D01*
X3898738Y-1794976D01*
X3841595Y-1794976D01*
X3822548Y-1785452D01*
X3813024Y-1775928D01*
X4174928Y-1794976D02*
X4174928Y-1594976D01*
X4260643Y-1794976D02*
X4260643Y-1690214D01*
X4251119Y-1671167D01*
X4232071Y-1661643D01*
X4203500Y-1661643D01*
X4184452Y-1671167D01*
X4174928Y-1680690D01*
X4384452Y-1794976D02*
X4365405Y-1785452D01*
X4355881Y-1775928D01*
X4346357Y-1756881D01*
X4346357Y-1699738D01*
X4355881Y-1680690D01*
X4365405Y-1671167D01*
X4384452Y-1661643D01*
X4413024Y-1661643D01*
X4432071Y-1671167D01*
X4441595Y-1680690D01*
X4451119Y-1699738D01*
X4451119Y-1756881D01*
X4441595Y-1775928D01*
X4432071Y-1785452D01*
X4413024Y-1794976D01*
X4384452Y-1794976D01*
X4565405Y-1794976D02*
X4546357Y-1785452D01*
X4536833Y-1766405D01*
X4536833Y-1594976D01*
X4717786Y-1785452D02*
X4698738Y-1794976D01*
X4660643Y-1794976D01*
X4641595Y-1785452D01*
X4632071Y-1766405D01*
X4632071Y-1690214D01*
X4641595Y-1671167D01*
X4660643Y-1661643D01*
X4698738Y-1661643D01*
X4717786Y-1671167D01*
X4727310Y-1690214D01*
X4727310Y-1709262D01*
X4632071Y-1728309D01*
X4803500Y-1785452D02*
X4822548Y-1794976D01*
X4860643Y-1794976D01*
X4879690Y-1785452D01*
X4889214Y-1766405D01*
X4889214Y-1756881D01*
X4879690Y-1737833D01*
X4860643Y-1728309D01*
X4832071Y-1728309D01*
X4813024Y-1718786D01*
X4803500Y-1699738D01*
X4803500Y-1690214D01*
X4813024Y-1671167D01*
X4832071Y-1661643D01*
X4860643Y-1661643D01*
X4879690Y-1671167D01*
X4955881Y-1871167D02*
X4965405Y-1861643D01*
X4984452Y-1833071D01*
X4993976Y-1814024D01*
X5003500Y-1785452D01*
X5013024Y-1737833D01*
X5013024Y-1699738D01*
X5003500Y-1652119D01*
X4993976Y-1623548D01*
X4984452Y-1604500D01*
X4965405Y-1575928D01*
X4955881Y-1566405D01*
D17*
X-106500Y-1918500D02*
X-6500Y-2018500D01*
X-6500Y-1918500D02*
X-106500Y-2018500D01*
X-6500Y-1968500D02*
G75*
G03*
X-6500Y-1968500I-50000J0D01*
G01*
D11*
X355881Y-2058976D02*
X241595Y-2058976D01*
X298738Y-2058976D02*
X298738Y-1858976D01*
X279690Y-1887548D01*
X260643Y-1906595D01*
X241595Y-1916119D01*
X441595Y-2039928D02*
X451119Y-2049452D01*
X441595Y-2058976D01*
X432071Y-2049452D01*
X441595Y-2039928D01*
X441595Y-2058976D01*
X574929Y-1858976D02*
X593976Y-1858976D01*
X613024Y-1868500D01*
X622548Y-1878024D01*
X632071Y-1897071D01*
X641595Y-1935167D01*
X641595Y-1982786D01*
X632071Y-2020881D01*
X622548Y-2039928D01*
X613024Y-2049452D01*
X593976Y-2058976D01*
X574929Y-2058976D01*
X555881Y-2049452D01*
X546357Y-2039928D01*
X536833Y-2020881D01*
X527310Y-1982786D01*
X527310Y-1935167D01*
X536833Y-1897071D01*
X546357Y-1878024D01*
X555881Y-1868500D01*
X574929Y-1858976D01*
X765405Y-1858976D02*
X784452Y-1858976D01*
X803500Y-1868500D01*
X813024Y-1878024D01*
X822548Y-1897071D01*
X832071Y-1935167D01*
X832071Y-1982786D01*
X822548Y-2020881D01*
X813024Y-2039928D01*
X803500Y-2049452D01*
X784452Y-2058976D01*
X765405Y-2058976D01*
X746357Y-2049452D01*
X736833Y-2039928D01*
X727309Y-2020881D01*
X717786Y-1982786D01*
X717786Y-1935167D01*
X727309Y-1897071D01*
X736833Y-1878024D01*
X746357Y-1868500D01*
X765405Y-1858976D01*
X955881Y-1858976D02*
X974928Y-1858976D01*
X993976Y-1868500D01*
X1003500Y-1878024D01*
X1013024Y-1897071D01*
X1022548Y-1935167D01*
X1022548Y-1982786D01*
X1013024Y-2020881D01*
X1003500Y-2039928D01*
X993976Y-2049452D01*
X974928Y-2058976D01*
X955881Y-2058976D01*
X936833Y-2049452D01*
X927309Y-2039928D01*
X917786Y-2020881D01*
X908262Y-1982786D01*
X908262Y-1935167D01*
X917786Y-1897071D01*
X927309Y-1878024D01*
X936833Y-1868500D01*
X955881Y-1858976D01*
X1108262Y-2058976D02*
X1108262Y-1925643D01*
X1108262Y-1944690D02*
X1117786Y-1935167D01*
X1136833Y-1925643D01*
X1165405Y-1925643D01*
X1184452Y-1935167D01*
X1193976Y-1954214D01*
X1193976Y-2058976D01*
X1193976Y-1954214D02*
X1203500Y-1935167D01*
X1222548Y-1925643D01*
X1251119Y-1925643D01*
X1270167Y-1935167D01*
X1279690Y-1954214D01*
X1279690Y-2058976D01*
X1374929Y-2058976D02*
X1374929Y-1925643D01*
X1374929Y-1944690D02*
X1384452Y-1935167D01*
X1403500Y-1925643D01*
X1432071Y-1925643D01*
X1451119Y-1935167D01*
X1460643Y-1954214D01*
X1460643Y-2058976D01*
X1460643Y-1954214D02*
X1470167Y-1935167D01*
X1489214Y-1925643D01*
X1517786Y-1925643D01*
X1536833Y-1935167D01*
X1546357Y-1954214D01*
X1546357Y-2058976D01*
X1936833Y-1849452D02*
X1765405Y-2106595D01*
X2193976Y-1858976D02*
X2213024Y-1858976D01*
X2232071Y-1868500D01*
X2241595Y-1878024D01*
X2251119Y-1897071D01*
X2260643Y-1935167D01*
X2260643Y-1982786D01*
X2251119Y-2020881D01*
X2241595Y-2039928D01*
X2232071Y-2049452D01*
X2213024Y-2058976D01*
X2193976Y-2058976D01*
X2174929Y-2049452D01*
X2165405Y-2039928D01*
X2155881Y-2020881D01*
X2146357Y-1982786D01*
X2146357Y-1935167D01*
X2155881Y-1897071D01*
X2165405Y-1878024D01*
X2174929Y-1868500D01*
X2193976Y-1858976D01*
X2346357Y-2039928D02*
X2355881Y-2049452D01*
X2346357Y-2058976D01*
X2336833Y-2049452D01*
X2346357Y-2039928D01*
X2346357Y-2058976D01*
X2479690Y-1858976D02*
X2498738Y-1858976D01*
X2517786Y-1868500D01*
X2527310Y-1878024D01*
X2536833Y-1897071D01*
X2546357Y-1935167D01*
X2546357Y-1982786D01*
X2536833Y-2020881D01*
X2527310Y-2039928D01*
X2517786Y-2049452D01*
X2498738Y-2058976D01*
X2479690Y-2058976D01*
X2460643Y-2049452D01*
X2451119Y-2039928D01*
X2441595Y-2020881D01*
X2432071Y-1982786D01*
X2432071Y-1935167D01*
X2441595Y-1897071D01*
X2451119Y-1878024D01*
X2460643Y-1868500D01*
X2479690Y-1858976D01*
X2613024Y-1858976D02*
X2736833Y-1858976D01*
X2670167Y-1935167D01*
X2698738Y-1935167D01*
X2717786Y-1944690D01*
X2727310Y-1954214D01*
X2736833Y-1973262D01*
X2736833Y-2020881D01*
X2727310Y-2039928D01*
X2717786Y-2049452D01*
X2698738Y-2058976D01*
X2641595Y-2058976D01*
X2622548Y-2049452D01*
X2613024Y-2039928D01*
X2832071Y-2058976D02*
X2870167Y-2058976D01*
X2889214Y-2049452D01*
X2898738Y-2039928D01*
X2917786Y-2011357D01*
X2927309Y-1973262D01*
X2927309Y-1897071D01*
X2917786Y-1878024D01*
X2908262Y-1868500D01*
X2889214Y-1858976D01*
X2851119Y-1858976D01*
X2832071Y-1868500D01*
X2822548Y-1878024D01*
X2813024Y-1897071D01*
X2813024Y-1944690D01*
X2822548Y-1963738D01*
X2832071Y-1973262D01*
X2851119Y-1982786D01*
X2889214Y-1982786D01*
X2908262Y-1973262D01*
X2917786Y-1963738D01*
X2927309Y-1944690D01*
X3098738Y-1925643D02*
X3098738Y-2058976D01*
X3051119Y-1849452D02*
X3003500Y-1992309D01*
X3127309Y-1992309D01*
X3193976Y-1858976D02*
X3193976Y-1897071D01*
X3270167Y-1858976D02*
X3270167Y-1897071D01*
X3565405Y-2135167D02*
X3555881Y-2125643D01*
X3536833Y-2097071D01*
X3527309Y-2078024D01*
X3517786Y-2049452D01*
X3508262Y-2001833D01*
X3508262Y-1963738D01*
X3517786Y-1916119D01*
X3527309Y-1887548D01*
X3536833Y-1868500D01*
X3555881Y-1839928D01*
X3565405Y-1830405D01*
X3679690Y-1858976D02*
X3698738Y-1858976D01*
X3717786Y-1868500D01*
X3727309Y-1878024D01*
X3736833Y-1897071D01*
X3746357Y-1935167D01*
X3746357Y-1982786D01*
X3736833Y-2020881D01*
X3727309Y-2039928D01*
X3717786Y-2049452D01*
X3698738Y-2058976D01*
X3679690Y-2058976D01*
X3660643Y-2049452D01*
X3651119Y-2039928D01*
X3641595Y-2020881D01*
X3632071Y-1982786D01*
X3632071Y-1935167D01*
X3641595Y-1897071D01*
X3651119Y-1878024D01*
X3660643Y-1868500D01*
X3679690Y-1858976D01*
X3984452Y-2058976D02*
X3984452Y-1858976D01*
X4070167Y-2058976D02*
X4070167Y-1954214D01*
X4060643Y-1935167D01*
X4041595Y-1925643D01*
X4013024Y-1925643D01*
X3993976Y-1935167D01*
X3984452Y-1944690D01*
X4193976Y-2058976D02*
X4174928Y-2049452D01*
X4165405Y-2039928D01*
X4155881Y-2020881D01*
X4155881Y-1963738D01*
X4165405Y-1944690D01*
X4174928Y-1935167D01*
X4193976Y-1925643D01*
X4222548Y-1925643D01*
X4241595Y-1935167D01*
X4251119Y-1944690D01*
X4260643Y-1963738D01*
X4260643Y-2020881D01*
X4251119Y-2039928D01*
X4241595Y-2049452D01*
X4222548Y-2058976D01*
X4193976Y-2058976D01*
X4374929Y-2058976D02*
X4355881Y-2049452D01*
X4346357Y-2030405D01*
X4346357Y-1858976D01*
X4527310Y-2049452D02*
X4508262Y-2058976D01*
X4470167Y-2058976D01*
X4451119Y-2049452D01*
X4441595Y-2030405D01*
X4441595Y-1954214D01*
X4451119Y-1935167D01*
X4470167Y-1925643D01*
X4508262Y-1925643D01*
X4527310Y-1935167D01*
X4536833Y-1954214D01*
X4536833Y-1973262D01*
X4441595Y-1992309D01*
X4613024Y-2049452D02*
X4632071Y-2058976D01*
X4670167Y-2058976D01*
X4689214Y-2049452D01*
X4698738Y-2030405D01*
X4698738Y-2020881D01*
X4689214Y-2001833D01*
X4670167Y-1992309D01*
X4641595Y-1992309D01*
X4622548Y-1982786D01*
X4613024Y-1963738D01*
X4613024Y-1954214D01*
X4622548Y-1935167D01*
X4641595Y-1925643D01*
X4670167Y-1925643D01*
X4689214Y-1935167D01*
X4936833Y-1982786D02*
X5089214Y-1982786D01*
X5013024Y-2058976D02*
X5013024Y-1906595D01*
X5327310Y-1878024D02*
X5336833Y-1868500D01*
X5355881Y-1858976D01*
X5403500Y-1858976D01*
X5422548Y-1868500D01*
X5432071Y-1878024D01*
X5441595Y-1897071D01*
X5441595Y-1916119D01*
X5432071Y-1944690D01*
X5317786Y-2058976D01*
X5441595Y-2058976D01*
X5670167Y-2049452D02*
X5689214Y-2058976D01*
X5727309Y-2058976D01*
X5746357Y-2049452D01*
X5755881Y-2030405D01*
X5755881Y-2020881D01*
X5746357Y-2001833D01*
X5727309Y-1992309D01*
X5698738Y-1992309D01*
X5679690Y-1982786D01*
X5670167Y-1963738D01*
X5670167Y-1954214D01*
X5679690Y-1935167D01*
X5698738Y-1925643D01*
X5727309Y-1925643D01*
X5746357Y-1935167D01*
X5870167Y-2058976D02*
X5851119Y-2049452D01*
X5841595Y-2030405D01*
X5841595Y-1858976D01*
X5974928Y-2058976D02*
X5955881Y-2049452D01*
X5946357Y-2039928D01*
X5936833Y-2020881D01*
X5936833Y-1963738D01*
X5946357Y-1944690D01*
X5955881Y-1935167D01*
X5974928Y-1925643D01*
X6003500Y-1925643D01*
X6022548Y-1935167D01*
X6032071Y-1944690D01*
X6041595Y-1963738D01*
X6041595Y-2020881D01*
X6032071Y-2039928D01*
X6022548Y-2049452D01*
X6003500Y-2058976D01*
X5974928Y-2058976D01*
X6098738Y-1925643D02*
X6174928Y-1925643D01*
X6127309Y-1858976D02*
X6127309Y-2030405D01*
X6136833Y-2049452D01*
X6155881Y-2058976D01*
X6174928Y-2058976D01*
X6232071Y-2049452D02*
X6251119Y-2058976D01*
X6289214Y-2058976D01*
X6308262Y-2049452D01*
X6317786Y-2030405D01*
X6317786Y-2020881D01*
X6308262Y-2001833D01*
X6289214Y-1992309D01*
X6260643Y-1992309D01*
X6241595Y-1982786D01*
X6232071Y-1963738D01*
X6232071Y-1954214D01*
X6241595Y-1935167D01*
X6260643Y-1925643D01*
X6289214Y-1925643D01*
X6308262Y-1935167D01*
X6384452Y-2135167D02*
X6393976Y-2125643D01*
X6413024Y-2097071D01*
X6422548Y-2078024D01*
X6432071Y-2049452D01*
X6441595Y-2001833D01*
X6441595Y-1963738D01*
X6432071Y-1916119D01*
X6422548Y-1887548D01*
X6413024Y-1868500D01*
X6393976Y-1839928D01*
X6384452Y-1830405D01*
D18*
X-116500Y-2177500D02*
X-6500Y-2287500D01*
X-6500Y-2177500D02*
X-116500Y-2287500D01*
X-61500Y-2177500D02*
X-61500Y-2287500D01*
X-116500Y-2232500D02*
X-6500Y-2232500D01*
D11*
X355881Y-2322976D02*
X241595Y-2322976D01*
X298738Y-2322976D02*
X298738Y-2122976D01*
X279690Y-2151548D01*
X260643Y-2170595D01*
X241595Y-2180119D01*
X441595Y-2303929D02*
X451119Y-2313452D01*
X441595Y-2322976D01*
X432071Y-2313452D01*
X441595Y-2303929D01*
X441595Y-2322976D01*
X641595Y-2322976D02*
X527310Y-2322976D01*
X584452Y-2322976D02*
X584452Y-2122976D01*
X565405Y-2151548D01*
X546357Y-2170595D01*
X527310Y-2180119D01*
X765405Y-2122976D02*
X784452Y-2122976D01*
X803500Y-2132500D01*
X813024Y-2142024D01*
X822548Y-2161071D01*
X832071Y-2199167D01*
X832071Y-2246786D01*
X822548Y-2284881D01*
X813024Y-2303929D01*
X803500Y-2313452D01*
X784452Y-2322976D01*
X765405Y-2322976D01*
X746357Y-2313452D01*
X736833Y-2303929D01*
X727309Y-2284881D01*
X717786Y-2246786D01*
X717786Y-2199167D01*
X727309Y-2161071D01*
X736833Y-2142024D01*
X746357Y-2132500D01*
X765405Y-2122976D01*
X955881Y-2122976D02*
X974928Y-2122976D01*
X993976Y-2132500D01*
X1003500Y-2142024D01*
X1013024Y-2161071D01*
X1022548Y-2199167D01*
X1022548Y-2246786D01*
X1013024Y-2284881D01*
X1003500Y-2303929D01*
X993976Y-2313452D01*
X974928Y-2322976D01*
X955881Y-2322976D01*
X936833Y-2313452D01*
X927309Y-2303929D01*
X917786Y-2284881D01*
X908262Y-2246786D01*
X908262Y-2199167D01*
X917786Y-2161071D01*
X927309Y-2142024D01*
X936833Y-2132500D01*
X955881Y-2122976D01*
X1108262Y-2322976D02*
X1108262Y-2189643D01*
X1108262Y-2208690D02*
X1117786Y-2199167D01*
X1136833Y-2189643D01*
X1165405Y-2189643D01*
X1184452Y-2199167D01*
X1193976Y-2218214D01*
X1193976Y-2322976D01*
X1193976Y-2218214D02*
X1203500Y-2199167D01*
X1222548Y-2189643D01*
X1251119Y-2189643D01*
X1270167Y-2199167D01*
X1279690Y-2218214D01*
X1279690Y-2322976D01*
X1374929Y-2322976D02*
X1374929Y-2189643D01*
X1374929Y-2208690D02*
X1384452Y-2199167D01*
X1403500Y-2189643D01*
X1432071Y-2189643D01*
X1451119Y-2199167D01*
X1460643Y-2218214D01*
X1460643Y-2322976D01*
X1460643Y-2218214D02*
X1470167Y-2199167D01*
X1489214Y-2189643D01*
X1517786Y-2189643D01*
X1536833Y-2199167D01*
X1546357Y-2218214D01*
X1546357Y-2322976D01*
X1936833Y-2113452D02*
X1765405Y-2370595D01*
X2193976Y-2122976D02*
X2213024Y-2122976D01*
X2232071Y-2132500D01*
X2241595Y-2142024D01*
X2251119Y-2161071D01*
X2260643Y-2199167D01*
X2260643Y-2246786D01*
X2251119Y-2284881D01*
X2241595Y-2303929D01*
X2232071Y-2313452D01*
X2213024Y-2322976D01*
X2193976Y-2322976D01*
X2174929Y-2313452D01*
X2165405Y-2303929D01*
X2155881Y-2284881D01*
X2146357Y-2246786D01*
X2146357Y-2199167D01*
X2155881Y-2161071D01*
X2165405Y-2142024D01*
X2174929Y-2132500D01*
X2193976Y-2122976D01*
X2346357Y-2303929D02*
X2355881Y-2313452D01*
X2346357Y-2322976D01*
X2336833Y-2313452D01*
X2346357Y-2303929D01*
X2346357Y-2322976D01*
X2479690Y-2122976D02*
X2498738Y-2122976D01*
X2517786Y-2132500D01*
X2527310Y-2142024D01*
X2536833Y-2161071D01*
X2546357Y-2199167D01*
X2546357Y-2246786D01*
X2536833Y-2284881D01*
X2527310Y-2303929D01*
X2517786Y-2313452D01*
X2498738Y-2322976D01*
X2479690Y-2322976D01*
X2460643Y-2313452D01*
X2451119Y-2303929D01*
X2441595Y-2284881D01*
X2432071Y-2246786D01*
X2432071Y-2199167D01*
X2441595Y-2161071D01*
X2451119Y-2142024D01*
X2460643Y-2132500D01*
X2479690Y-2122976D01*
X2717786Y-2189643D02*
X2717786Y-2322976D01*
X2670167Y-2113452D02*
X2622548Y-2256310D01*
X2746357Y-2256310D01*
X2803500Y-2122976D02*
X2927309Y-2122976D01*
X2860643Y-2199167D01*
X2889214Y-2199167D01*
X2908262Y-2208690D01*
X2917786Y-2218214D01*
X2927309Y-2237262D01*
X2927309Y-2284881D01*
X2917786Y-2303929D01*
X2908262Y-2313452D01*
X2889214Y-2322976D01*
X2832071Y-2322976D01*
X2813024Y-2313452D01*
X2803500Y-2303929D01*
X2993976Y-2122976D02*
X3117786Y-2122976D01*
X3051119Y-2199167D01*
X3079690Y-2199167D01*
X3098738Y-2208690D01*
X3108262Y-2218214D01*
X3117786Y-2237262D01*
X3117786Y-2284881D01*
X3108262Y-2303929D01*
X3098738Y-2313452D01*
X3079690Y-2322976D01*
X3022548Y-2322976D01*
X3003500Y-2313452D01*
X2993976Y-2303929D01*
X3193976Y-2122976D02*
X3193976Y-2161071D01*
X3270167Y-2122976D02*
X3270167Y-2161071D01*
X3565405Y-2399167D02*
X3555881Y-2389643D01*
X3536833Y-2361071D01*
X3527309Y-2342024D01*
X3517786Y-2313452D01*
X3508262Y-2265833D01*
X3508262Y-2227738D01*
X3517786Y-2180119D01*
X3527309Y-2151548D01*
X3536833Y-2132500D01*
X3555881Y-2103929D01*
X3565405Y-2094405D01*
X3746357Y-2322976D02*
X3632071Y-2322976D01*
X3689214Y-2322976D02*
X3689214Y-2122976D01*
X3670167Y-2151548D01*
X3651119Y-2170595D01*
X3632071Y-2180119D01*
X3984452Y-2322976D02*
X3984452Y-2122976D01*
X4070167Y-2322976D02*
X4070167Y-2218214D01*
X4060643Y-2199167D01*
X4041595Y-2189643D01*
X4013024Y-2189643D01*
X3993976Y-2199167D01*
X3984452Y-2208690D01*
X4193976Y-2322976D02*
X4174928Y-2313452D01*
X4165405Y-2303929D01*
X4155881Y-2284881D01*
X4155881Y-2227738D01*
X4165405Y-2208690D01*
X4174928Y-2199167D01*
X4193976Y-2189643D01*
X4222548Y-2189643D01*
X4241595Y-2199167D01*
X4251119Y-2208690D01*
X4260643Y-2227738D01*
X4260643Y-2284881D01*
X4251119Y-2303929D01*
X4241595Y-2313452D01*
X4222548Y-2322976D01*
X4193976Y-2322976D01*
X4374929Y-2322976D02*
X4355881Y-2313452D01*
X4346357Y-2294405D01*
X4346357Y-2122976D01*
X4527310Y-2313452D02*
X4508262Y-2322976D01*
X4470167Y-2322976D01*
X4451119Y-2313452D01*
X4441595Y-2294405D01*
X4441595Y-2218214D01*
X4451119Y-2199167D01*
X4470167Y-2189643D01*
X4508262Y-2189643D01*
X4527310Y-2199167D01*
X4536833Y-2218214D01*
X4536833Y-2237262D01*
X4441595Y-2256310D01*
X4603500Y-2399167D02*
X4613024Y-2389643D01*
X4632071Y-2361071D01*
X4641595Y-2342024D01*
X4651119Y-2313452D01*
X4660643Y-2265833D01*
X4660643Y-2227738D01*
X4651119Y-2180119D01*
X4641595Y-2151548D01*
X4632071Y-2132500D01*
X4613024Y-2103929D01*
X4603500Y-2094405D01*
D19*
X-126500Y-2436500D02*
X-6500Y-2556500D01*
X-6500Y-2436500D02*
X-126500Y-2556500D01*
X-24073Y-2538927D02*
X-24073Y-2454073D01*
X-108927Y-2454073D01*
X-108927Y-2538927D01*
X-24073Y-2538927D01*
D11*
X355881Y-2586976D02*
X241595Y-2586976D01*
X298738Y-2586976D02*
X298738Y-2386976D01*
X279690Y-2415548D01*
X260643Y-2434595D01*
X241595Y-2444119D01*
X441595Y-2567929D02*
X451119Y-2577452D01*
X441595Y-2586976D01*
X432071Y-2577452D01*
X441595Y-2567929D01*
X441595Y-2586976D01*
X527310Y-2406024D02*
X536833Y-2396500D01*
X555881Y-2386976D01*
X603500Y-2386976D01*
X622548Y-2396500D01*
X632071Y-2406024D01*
X641595Y-2425071D01*
X641595Y-2444119D01*
X632071Y-2472690D01*
X517786Y-2586976D01*
X641595Y-2586976D01*
X765405Y-2386976D02*
X784452Y-2386976D01*
X803500Y-2396500D01*
X813024Y-2406024D01*
X822548Y-2425071D01*
X832071Y-2463167D01*
X832071Y-2510786D01*
X822548Y-2548881D01*
X813024Y-2567929D01*
X803500Y-2577452D01*
X784452Y-2586976D01*
X765405Y-2586976D01*
X746357Y-2577452D01*
X736833Y-2567929D01*
X727309Y-2548881D01*
X717786Y-2510786D01*
X717786Y-2463167D01*
X727309Y-2425071D01*
X736833Y-2406024D01*
X746357Y-2396500D01*
X765405Y-2386976D01*
X955881Y-2386976D02*
X974928Y-2386976D01*
X993976Y-2396500D01*
X1003500Y-2406024D01*
X1013024Y-2425071D01*
X1022548Y-2463167D01*
X1022548Y-2510786D01*
X1013024Y-2548881D01*
X1003500Y-2567929D01*
X993976Y-2577452D01*
X974928Y-2586976D01*
X955881Y-2586976D01*
X936833Y-2577452D01*
X927309Y-2567929D01*
X917786Y-2548881D01*
X908262Y-2510786D01*
X908262Y-2463167D01*
X917786Y-2425071D01*
X927309Y-2406024D01*
X936833Y-2396500D01*
X955881Y-2386976D01*
X1108262Y-2586976D02*
X1108262Y-2453643D01*
X1108262Y-2472690D02*
X1117786Y-2463167D01*
X1136833Y-2453643D01*
X1165405Y-2453643D01*
X1184452Y-2463167D01*
X1193976Y-2482214D01*
X1193976Y-2586976D01*
X1193976Y-2482214D02*
X1203500Y-2463167D01*
X1222548Y-2453643D01*
X1251119Y-2453643D01*
X1270167Y-2463167D01*
X1279690Y-2482214D01*
X1279690Y-2586976D01*
X1374929Y-2586976D02*
X1374929Y-2453643D01*
X1374929Y-2472690D02*
X1384452Y-2463167D01*
X1403500Y-2453643D01*
X1432071Y-2453643D01*
X1451119Y-2463167D01*
X1460643Y-2482214D01*
X1460643Y-2586976D01*
X1460643Y-2482214D02*
X1470167Y-2463167D01*
X1489214Y-2453643D01*
X1517786Y-2453643D01*
X1536833Y-2463167D01*
X1546357Y-2482214D01*
X1546357Y-2586976D01*
X1936833Y-2377452D02*
X1765405Y-2634595D01*
X2193976Y-2386976D02*
X2213024Y-2386976D01*
X2232071Y-2396500D01*
X2241595Y-2406024D01*
X2251119Y-2425071D01*
X2260643Y-2463167D01*
X2260643Y-2510786D01*
X2251119Y-2548881D01*
X2241595Y-2567929D01*
X2232071Y-2577452D01*
X2213024Y-2586976D01*
X2193976Y-2586976D01*
X2174929Y-2577452D01*
X2165405Y-2567929D01*
X2155881Y-2548881D01*
X2146357Y-2510786D01*
X2146357Y-2463167D01*
X2155881Y-2425071D01*
X2165405Y-2406024D01*
X2174929Y-2396500D01*
X2193976Y-2386976D01*
X2346357Y-2567929D02*
X2355881Y-2577452D01*
X2346357Y-2586976D01*
X2336833Y-2577452D01*
X2346357Y-2567929D01*
X2346357Y-2586976D01*
X2479690Y-2386976D02*
X2498738Y-2386976D01*
X2517786Y-2396500D01*
X2527310Y-2406024D01*
X2536833Y-2425071D01*
X2546357Y-2463167D01*
X2546357Y-2510786D01*
X2536833Y-2548881D01*
X2527310Y-2567929D01*
X2517786Y-2577452D01*
X2498738Y-2586976D01*
X2479690Y-2586976D01*
X2460643Y-2577452D01*
X2451119Y-2567929D01*
X2441595Y-2548881D01*
X2432071Y-2510786D01*
X2432071Y-2463167D01*
X2441595Y-2425071D01*
X2451119Y-2406024D01*
X2460643Y-2396500D01*
X2479690Y-2386976D01*
X2717786Y-2453643D02*
X2717786Y-2586976D01*
X2670167Y-2377452D02*
X2622548Y-2520310D01*
X2746357Y-2520310D01*
X2803500Y-2386976D02*
X2936833Y-2386976D01*
X2851119Y-2586976D01*
X3003500Y-2406024D02*
X3013024Y-2396500D01*
X3032071Y-2386976D01*
X3079690Y-2386976D01*
X3098738Y-2396500D01*
X3108262Y-2406024D01*
X3117786Y-2425071D01*
X3117786Y-2444119D01*
X3108262Y-2472690D01*
X2993976Y-2586976D01*
X3117786Y-2586976D01*
X3193976Y-2386976D02*
X3193976Y-2425071D01*
X3270167Y-2386976D02*
X3270167Y-2425071D01*
X3565405Y-2663167D02*
X3555881Y-2653643D01*
X3536833Y-2625071D01*
X3527309Y-2606024D01*
X3517786Y-2577452D01*
X3508262Y-2529833D01*
X3508262Y-2491738D01*
X3517786Y-2444119D01*
X3527309Y-2415548D01*
X3536833Y-2396500D01*
X3555881Y-2367929D01*
X3565405Y-2358405D01*
X3727309Y-2453643D02*
X3727309Y-2586976D01*
X3679690Y-2377452D02*
X3632071Y-2520310D01*
X3755881Y-2520310D01*
X3984452Y-2586976D02*
X3984452Y-2386976D01*
X4070167Y-2586976D02*
X4070167Y-2482214D01*
X4060643Y-2463167D01*
X4041595Y-2453643D01*
X4013024Y-2453643D01*
X3993976Y-2463167D01*
X3984452Y-2472690D01*
X4193976Y-2586976D02*
X4174928Y-2577452D01*
X4165405Y-2567929D01*
X4155881Y-2548881D01*
X4155881Y-2491738D01*
X4165405Y-2472690D01*
X4174928Y-2463167D01*
X4193976Y-2453643D01*
X4222548Y-2453643D01*
X4241595Y-2463167D01*
X4251119Y-2472690D01*
X4260643Y-2491738D01*
X4260643Y-2548881D01*
X4251119Y-2567929D01*
X4241595Y-2577452D01*
X4222548Y-2586976D01*
X4193976Y-2586976D01*
X4374929Y-2586976D02*
X4355881Y-2577452D01*
X4346357Y-2558405D01*
X4346357Y-2386976D01*
X4527310Y-2577452D02*
X4508262Y-2586976D01*
X4470167Y-2586976D01*
X4451119Y-2577452D01*
X4441595Y-2558405D01*
X4441595Y-2482214D01*
X4451119Y-2463167D01*
X4470167Y-2453643D01*
X4508262Y-2453643D01*
X4527310Y-2463167D01*
X4536833Y-2482214D01*
X4536833Y-2501262D01*
X4441595Y-2520310D01*
X4613024Y-2577452D02*
X4632071Y-2586976D01*
X4670167Y-2586976D01*
X4689214Y-2577452D01*
X4698738Y-2558405D01*
X4698738Y-2548881D01*
X4689214Y-2529833D01*
X4670167Y-2520310D01*
X4641595Y-2520310D01*
X4622548Y-2510786D01*
X4613024Y-2491738D01*
X4613024Y-2482214D01*
X4622548Y-2463167D01*
X4641595Y-2453643D01*
X4670167Y-2453643D01*
X4689214Y-2463167D01*
X4765405Y-2663167D02*
X4774929Y-2653643D01*
X4793976Y-2625071D01*
X4803500Y-2606024D01*
X4813024Y-2577452D01*
X4822548Y-2529833D01*
X4822548Y-2491738D01*
X4813024Y-2444119D01*
X4803500Y-2415548D01*
X4793976Y-2396500D01*
X4774929Y-2367929D01*
X4765405Y-2358405D01*
D20*
X-156500Y-2685500D02*
X-6500Y-2835500D01*
X-6500Y-2685500D02*
X-156500Y-2835500D01*
X-81500Y-2835500D02*
X-6500Y-2760500D01*
X-81500Y-2685500D01*
X-156500Y-2760500D01*
X-81500Y-2835500D01*
D11*
X355881Y-2850976D02*
X241595Y-2850976D01*
X298738Y-2850976D02*
X298738Y-2650976D01*
X279690Y-2679548D01*
X260643Y-2698595D01*
X241595Y-2708119D01*
X441595Y-2831928D02*
X451119Y-2841452D01*
X441595Y-2850976D01*
X432071Y-2841452D01*
X441595Y-2831928D01*
X441595Y-2850976D01*
X632071Y-2650976D02*
X536833Y-2650976D01*
X527310Y-2746214D01*
X536833Y-2736690D01*
X555881Y-2727167D01*
X603500Y-2727167D01*
X622548Y-2736690D01*
X632071Y-2746214D01*
X641595Y-2765262D01*
X641595Y-2812881D01*
X632071Y-2831928D01*
X622548Y-2841452D01*
X603500Y-2850976D01*
X555881Y-2850976D01*
X536833Y-2841452D01*
X527310Y-2831928D01*
X765405Y-2650976D02*
X784452Y-2650976D01*
X803500Y-2660500D01*
X813024Y-2670024D01*
X822548Y-2689071D01*
X832071Y-2727167D01*
X832071Y-2774786D01*
X822548Y-2812881D01*
X813024Y-2831928D01*
X803500Y-2841452D01*
X784452Y-2850976D01*
X765405Y-2850976D01*
X746357Y-2841452D01*
X736833Y-2831928D01*
X727309Y-2812881D01*
X717786Y-2774786D01*
X717786Y-2727167D01*
X727309Y-2689071D01*
X736833Y-2670024D01*
X746357Y-2660500D01*
X765405Y-2650976D01*
X955881Y-2650976D02*
X974928Y-2650976D01*
X993976Y-2660500D01*
X1003500Y-2670024D01*
X1013024Y-2689071D01*
X1022548Y-2727167D01*
X1022548Y-2774786D01*
X1013024Y-2812881D01*
X1003500Y-2831928D01*
X993976Y-2841452D01*
X974928Y-2850976D01*
X955881Y-2850976D01*
X936833Y-2841452D01*
X927309Y-2831928D01*
X917786Y-2812881D01*
X908262Y-2774786D01*
X908262Y-2727167D01*
X917786Y-2689071D01*
X927309Y-2670024D01*
X936833Y-2660500D01*
X955881Y-2650976D01*
X1108262Y-2850976D02*
X1108262Y-2717643D01*
X1108262Y-2736690D02*
X1117786Y-2727167D01*
X1136833Y-2717643D01*
X1165405Y-2717643D01*
X1184452Y-2727167D01*
X1193976Y-2746214D01*
X1193976Y-2850976D01*
X1193976Y-2746214D02*
X1203500Y-2727167D01*
X1222548Y-2717643D01*
X1251119Y-2717643D01*
X1270167Y-2727167D01*
X1279690Y-2746214D01*
X1279690Y-2850976D01*
X1374929Y-2850976D02*
X1374929Y-2717643D01*
X1374929Y-2736690D02*
X1384452Y-2727167D01*
X1403500Y-2717643D01*
X1432071Y-2717643D01*
X1451119Y-2727167D01*
X1460643Y-2746214D01*
X1460643Y-2850976D01*
X1460643Y-2746214D02*
X1470167Y-2727167D01*
X1489214Y-2717643D01*
X1517786Y-2717643D01*
X1536833Y-2727167D01*
X1546357Y-2746214D01*
X1546357Y-2850976D01*
X1936833Y-2641452D02*
X1765405Y-2898595D01*
X2193976Y-2650976D02*
X2213024Y-2650976D01*
X2232071Y-2660500D01*
X2241595Y-2670024D01*
X2251119Y-2689071D01*
X2260643Y-2727167D01*
X2260643Y-2774786D01*
X2251119Y-2812881D01*
X2241595Y-2831928D01*
X2232071Y-2841452D01*
X2213024Y-2850976D01*
X2193976Y-2850976D01*
X2174929Y-2841452D01*
X2165405Y-2831928D01*
X2155881Y-2812881D01*
X2146357Y-2774786D01*
X2146357Y-2727167D01*
X2155881Y-2689071D01*
X2165405Y-2670024D01*
X2174929Y-2660500D01*
X2193976Y-2650976D01*
X2346357Y-2831928D02*
X2355881Y-2841452D01*
X2346357Y-2850976D01*
X2336833Y-2841452D01*
X2346357Y-2831928D01*
X2346357Y-2850976D01*
X2479690Y-2650976D02*
X2498738Y-2650976D01*
X2517786Y-2660500D01*
X2527310Y-2670024D01*
X2536833Y-2689071D01*
X2546357Y-2727167D01*
X2546357Y-2774786D01*
X2536833Y-2812881D01*
X2527310Y-2831928D01*
X2517786Y-2841452D01*
X2498738Y-2850976D01*
X2479690Y-2850976D01*
X2460643Y-2841452D01*
X2451119Y-2831928D01*
X2441595Y-2812881D01*
X2432071Y-2774786D01*
X2432071Y-2727167D01*
X2441595Y-2689071D01*
X2451119Y-2670024D01*
X2460643Y-2660500D01*
X2479690Y-2650976D01*
X2727310Y-2650976D02*
X2632071Y-2650976D01*
X2622548Y-2746214D01*
X2632071Y-2736690D01*
X2651119Y-2727167D01*
X2698738Y-2727167D01*
X2717786Y-2736690D01*
X2727310Y-2746214D01*
X2736833Y-2765262D01*
X2736833Y-2812881D01*
X2727310Y-2831928D01*
X2717786Y-2841452D01*
X2698738Y-2850976D01*
X2651119Y-2850976D01*
X2632071Y-2841452D01*
X2622548Y-2831928D01*
X2832071Y-2850976D02*
X2870167Y-2850976D01*
X2889214Y-2841452D01*
X2898738Y-2831928D01*
X2917786Y-2803357D01*
X2927309Y-2765262D01*
X2927309Y-2689071D01*
X2917786Y-2670024D01*
X2908262Y-2660500D01*
X2889214Y-2650976D01*
X2851119Y-2650976D01*
X2832071Y-2660500D01*
X2822548Y-2670024D01*
X2813024Y-2689071D01*
X2813024Y-2736690D01*
X2822548Y-2755738D01*
X2832071Y-2765262D01*
X2851119Y-2774786D01*
X2889214Y-2774786D01*
X2908262Y-2765262D01*
X2917786Y-2755738D01*
X2927309Y-2736690D01*
X3117786Y-2850976D02*
X3003500Y-2850976D01*
X3060643Y-2850976D02*
X3060643Y-2650976D01*
X3041595Y-2679548D01*
X3022548Y-2698595D01*
X3003500Y-2708119D01*
X3193976Y-2650976D02*
X3193976Y-2689071D01*
X3270167Y-2650976D02*
X3270167Y-2689071D01*
X3565405Y-2927167D02*
X3555881Y-2917643D01*
X3536833Y-2889071D01*
X3527309Y-2870024D01*
X3517786Y-2841452D01*
X3508262Y-2793833D01*
X3508262Y-2755738D01*
X3517786Y-2708119D01*
X3527309Y-2679548D01*
X3536833Y-2660500D01*
X3555881Y-2631929D01*
X3565405Y-2622405D01*
X3727309Y-2717643D02*
X3727309Y-2850976D01*
X3679690Y-2641452D02*
X3632071Y-2784310D01*
X3755881Y-2784310D01*
X3984452Y-2850976D02*
X3984452Y-2650976D01*
X4070167Y-2850976D02*
X4070167Y-2746214D01*
X4060643Y-2727167D01*
X4041595Y-2717643D01*
X4013024Y-2717643D01*
X3993976Y-2727167D01*
X3984452Y-2736690D01*
X4193976Y-2850976D02*
X4174928Y-2841452D01*
X4165405Y-2831928D01*
X4155881Y-2812881D01*
X4155881Y-2755738D01*
X4165405Y-2736690D01*
X4174928Y-2727167D01*
X4193976Y-2717643D01*
X4222548Y-2717643D01*
X4241595Y-2727167D01*
X4251119Y-2736690D01*
X4260643Y-2755738D01*
X4260643Y-2812881D01*
X4251119Y-2831928D01*
X4241595Y-2841452D01*
X4222548Y-2850976D01*
X4193976Y-2850976D01*
X4374929Y-2850976D02*
X4355881Y-2841452D01*
X4346357Y-2822405D01*
X4346357Y-2650976D01*
X4527310Y-2841452D02*
X4508262Y-2850976D01*
X4470167Y-2850976D01*
X4451119Y-2841452D01*
X4441595Y-2822405D01*
X4441595Y-2746214D01*
X4451119Y-2727167D01*
X4470167Y-2717643D01*
X4508262Y-2717643D01*
X4527310Y-2727167D01*
X4536833Y-2746214D01*
X4536833Y-2765262D01*
X4441595Y-2784310D01*
X4613024Y-2841452D02*
X4632071Y-2850976D01*
X4670167Y-2850976D01*
X4689214Y-2841452D01*
X4698738Y-2822405D01*
X4698738Y-2812881D01*
X4689214Y-2793833D01*
X4670167Y-2784310D01*
X4641595Y-2784310D01*
X4622548Y-2774786D01*
X4613024Y-2755738D01*
X4613024Y-2746214D01*
X4622548Y-2727167D01*
X4641595Y-2717643D01*
X4670167Y-2717643D01*
X4689214Y-2727167D01*
X4765405Y-2927167D02*
X4774929Y-2917643D01*
X4793976Y-2889071D01*
X4803500Y-2870024D01*
X4813024Y-2841452D01*
X4822548Y-2793833D01*
X4822548Y-2755738D01*
X4813024Y-2708119D01*
X4803500Y-2679548D01*
X4793976Y-2660500D01*
X4774929Y-2631929D01*
X4765405Y-2622405D01*
X-106500Y-2930500D02*
X-106500Y-3130500D01*
X-206500Y-3030500D02*
X-6500Y-3030500D01*
X-6500Y-3030500D02*
G75*
G03*
X-6500Y-3030500I-100000J0D01*
G01*
X241595Y-2940024D02*
X251119Y-2930500D01*
X270167Y-2920976D01*
X317786Y-2920976D01*
X336833Y-2930500D01*
X346357Y-2940024D01*
X355881Y-2959071D01*
X355881Y-2978119D01*
X346357Y-3006690D01*
X232071Y-3120976D01*
X355881Y-3120976D01*
X441595Y-3101928D02*
X451119Y-3111452D01*
X441595Y-3120976D01*
X432071Y-3111452D01*
X441595Y-3101928D01*
X441595Y-3120976D01*
X622548Y-2987643D02*
X622548Y-3120976D01*
X574929Y-2911452D02*
X527310Y-3054309D01*
X651119Y-3054309D01*
X765405Y-2920976D02*
X784452Y-2920976D01*
X803500Y-2930500D01*
X813024Y-2940024D01*
X822548Y-2959071D01*
X832071Y-2997167D01*
X832071Y-3044786D01*
X822548Y-3082881D01*
X813024Y-3101928D01*
X803500Y-3111452D01*
X784452Y-3120976D01*
X765405Y-3120976D01*
X746357Y-3111452D01*
X736833Y-3101928D01*
X727309Y-3082881D01*
X717786Y-3044786D01*
X717786Y-2997167D01*
X727309Y-2959071D01*
X736833Y-2940024D01*
X746357Y-2930500D01*
X765405Y-2920976D01*
X955881Y-2920976D02*
X974928Y-2920976D01*
X993976Y-2930500D01*
X1003500Y-2940024D01*
X1013024Y-2959071D01*
X1022548Y-2997167D01*
X1022548Y-3044786D01*
X1013024Y-3082881D01*
X1003500Y-3101928D01*
X993976Y-3111452D01*
X974928Y-3120976D01*
X955881Y-3120976D01*
X936833Y-3111452D01*
X927309Y-3101928D01*
X917786Y-3082881D01*
X908262Y-3044786D01*
X908262Y-2997167D01*
X917786Y-2959071D01*
X927309Y-2940024D01*
X936833Y-2930500D01*
X955881Y-2920976D01*
X1108262Y-3120976D02*
X1108262Y-2987643D01*
X1108262Y-3006690D02*
X1117786Y-2997167D01*
X1136833Y-2987643D01*
X1165405Y-2987643D01*
X1184452Y-2997167D01*
X1193976Y-3016214D01*
X1193976Y-3120976D01*
X1193976Y-3016214D02*
X1203500Y-2997167D01*
X1222548Y-2987643D01*
X1251119Y-2987643D01*
X1270167Y-2997167D01*
X1279690Y-3016214D01*
X1279690Y-3120976D01*
X1374929Y-3120976D02*
X1374929Y-2987643D01*
X1374929Y-3006690D02*
X1384452Y-2997167D01*
X1403500Y-2987643D01*
X1432071Y-2987643D01*
X1451119Y-2997167D01*
X1460643Y-3016214D01*
X1460643Y-3120976D01*
X1460643Y-3016214D02*
X1470167Y-2997167D01*
X1489214Y-2987643D01*
X1517786Y-2987643D01*
X1536833Y-2997167D01*
X1546357Y-3016214D01*
X1546357Y-3120976D01*
X1936833Y-2911452D02*
X1765405Y-3168595D01*
X2193976Y-2920976D02*
X2213024Y-2920976D01*
X2232071Y-2930500D01*
X2241595Y-2940024D01*
X2251119Y-2959071D01*
X2260643Y-2997167D01*
X2260643Y-3044786D01*
X2251119Y-3082881D01*
X2241595Y-3101928D01*
X2232071Y-3111452D01*
X2213024Y-3120976D01*
X2193976Y-3120976D01*
X2174929Y-3111452D01*
X2165405Y-3101928D01*
X2155881Y-3082881D01*
X2146357Y-3044786D01*
X2146357Y-2997167D01*
X2155881Y-2959071D01*
X2165405Y-2940024D01*
X2174929Y-2930500D01*
X2193976Y-2920976D01*
X2346357Y-3101928D02*
X2355881Y-3111452D01*
X2346357Y-3120976D01*
X2336833Y-3111452D01*
X2346357Y-3101928D01*
X2346357Y-3120976D01*
X2479690Y-2920976D02*
X2498738Y-2920976D01*
X2517786Y-2930500D01*
X2527310Y-2940024D01*
X2536833Y-2959071D01*
X2546357Y-2997167D01*
X2546357Y-3044786D01*
X2536833Y-3082881D01*
X2527310Y-3101928D01*
X2517786Y-3111452D01*
X2498738Y-3120976D01*
X2479690Y-3120976D01*
X2460643Y-3111452D01*
X2451119Y-3101928D01*
X2441595Y-3082881D01*
X2432071Y-3044786D01*
X2432071Y-2997167D01*
X2441595Y-2959071D01*
X2451119Y-2940024D01*
X2460643Y-2930500D01*
X2479690Y-2920976D01*
X2641595Y-3120976D02*
X2679690Y-3120976D01*
X2698738Y-3111452D01*
X2708262Y-3101928D01*
X2727310Y-3073357D01*
X2736833Y-3035262D01*
X2736833Y-2959071D01*
X2727310Y-2940024D01*
X2717786Y-2930500D01*
X2698738Y-2920976D01*
X2660643Y-2920976D01*
X2641595Y-2930500D01*
X2632071Y-2940024D01*
X2622548Y-2959071D01*
X2622548Y-3006690D01*
X2632071Y-3025738D01*
X2641595Y-3035262D01*
X2660643Y-3044786D01*
X2698738Y-3044786D01*
X2717786Y-3035262D01*
X2727310Y-3025738D01*
X2736833Y-3006690D01*
X2908262Y-2987643D02*
X2908262Y-3120976D01*
X2860643Y-2911452D02*
X2813024Y-3054309D01*
X2936833Y-3054309D01*
X3108262Y-2920976D02*
X3013024Y-2920976D01*
X3003500Y-3016214D01*
X3013024Y-3006690D01*
X3032071Y-2997167D01*
X3079690Y-2997167D01*
X3098738Y-3006690D01*
X3108262Y-3016214D01*
X3117786Y-3035262D01*
X3117786Y-3082881D01*
X3108262Y-3101928D01*
X3098738Y-3111452D01*
X3079690Y-3120976D01*
X3032071Y-3120976D01*
X3013024Y-3111452D01*
X3003500Y-3101928D01*
X3193976Y-2920976D02*
X3193976Y-2959071D01*
X3270167Y-2920976D02*
X3270167Y-2959071D01*
X3565405Y-3197167D02*
X3555881Y-3187643D01*
X3536833Y-3159071D01*
X3527309Y-3140024D01*
X3517786Y-3111452D01*
X3508262Y-3063833D01*
X3508262Y-3025738D01*
X3517786Y-2978119D01*
X3527309Y-2949548D01*
X3536833Y-2930500D01*
X3555881Y-2901928D01*
X3565405Y-2892405D01*
X3632071Y-2940024D02*
X3641595Y-2930500D01*
X3660643Y-2920976D01*
X3708262Y-2920976D01*
X3727309Y-2930500D01*
X3736833Y-2940024D01*
X3746357Y-2959071D01*
X3746357Y-2978119D01*
X3736833Y-3006690D01*
X3622548Y-3120976D01*
X3746357Y-3120976D01*
X3984452Y-3120976D02*
X3984452Y-2920976D01*
X4070167Y-3120976D02*
X4070167Y-3016214D01*
X4060643Y-2997167D01*
X4041595Y-2987643D01*
X4013024Y-2987643D01*
X3993976Y-2997167D01*
X3984452Y-3006690D01*
X4193976Y-3120976D02*
X4174928Y-3111452D01*
X4165405Y-3101928D01*
X4155881Y-3082881D01*
X4155881Y-3025738D01*
X4165405Y-3006690D01*
X4174928Y-2997167D01*
X4193976Y-2987643D01*
X4222548Y-2987643D01*
X4241595Y-2997167D01*
X4251119Y-3006690D01*
X4260643Y-3025738D01*
X4260643Y-3082881D01*
X4251119Y-3101928D01*
X4241595Y-3111452D01*
X4222548Y-3120976D01*
X4193976Y-3120976D01*
X4374929Y-3120976D02*
X4355881Y-3111452D01*
X4346357Y-3092405D01*
X4346357Y-2920976D01*
X4527310Y-3111452D02*
X4508262Y-3120976D01*
X4470167Y-3120976D01*
X4451119Y-3111452D01*
X4441595Y-3092405D01*
X4441595Y-3016214D01*
X4451119Y-2997167D01*
X4470167Y-2987643D01*
X4508262Y-2987643D01*
X4527310Y-2997167D01*
X4536833Y-3016214D01*
X4536833Y-3035262D01*
X4441595Y-3054309D01*
X4613024Y-3111452D02*
X4632071Y-3120976D01*
X4670167Y-3120976D01*
X4689214Y-3111452D01*
X4698738Y-3092405D01*
X4698738Y-3082881D01*
X4689214Y-3063833D01*
X4670167Y-3054309D01*
X4641595Y-3054309D01*
X4622548Y-3044786D01*
X4613024Y-3025738D01*
X4613024Y-3016214D01*
X4622548Y-2997167D01*
X4641595Y-2987643D01*
X4670167Y-2987643D01*
X4689214Y-2997167D01*
X4765405Y-3197167D02*
X4774929Y-3187643D01*
X4793976Y-3159071D01*
X4803500Y-3140024D01*
X4813024Y-3111452D01*
X4822548Y-3063833D01*
X4822548Y-3025738D01*
X4813024Y-2978119D01*
X4803500Y-2949548D01*
X4793976Y-2930500D01*
X4774929Y-2901928D01*
X4765405Y-2892405D01*
X-35789Y-3421211D02*
X-35789Y-3279789D01*
X-177211Y-3279789D01*
X-177211Y-3421211D01*
X-35789Y-3421211D01*
X-6500Y-3350500D02*
G75*
G03*
X-6500Y-3350500I-100000J0D01*
G01*
X232071Y-3240976D02*
X355881Y-3240976D01*
X289214Y-3317167D01*
X317786Y-3317167D01*
X336833Y-3326690D01*
X346357Y-3336214D01*
X355881Y-3355262D01*
X355881Y-3402881D01*
X346357Y-3421928D01*
X336833Y-3431452D01*
X317786Y-3440976D01*
X260643Y-3440976D01*
X241595Y-3431452D01*
X232071Y-3421928D01*
X441595Y-3421928D02*
X451119Y-3431452D01*
X441595Y-3440976D01*
X432071Y-3431452D01*
X441595Y-3421928D01*
X441595Y-3440976D01*
X527310Y-3260024D02*
X536833Y-3250500D01*
X555881Y-3240976D01*
X603500Y-3240976D01*
X622548Y-3250500D01*
X632071Y-3260024D01*
X641595Y-3279071D01*
X641595Y-3298119D01*
X632071Y-3326690D01*
X517786Y-3440976D01*
X641595Y-3440976D01*
X765405Y-3240976D02*
X784452Y-3240976D01*
X803500Y-3250500D01*
X813024Y-3260024D01*
X822548Y-3279071D01*
X832071Y-3317167D01*
X832071Y-3364786D01*
X822548Y-3402881D01*
X813024Y-3421928D01*
X803500Y-3431452D01*
X784452Y-3440976D01*
X765405Y-3440976D01*
X746357Y-3431452D01*
X736833Y-3421928D01*
X727309Y-3402881D01*
X717786Y-3364786D01*
X717786Y-3317167D01*
X727309Y-3279071D01*
X736833Y-3260024D01*
X746357Y-3250500D01*
X765405Y-3240976D01*
X955881Y-3240976D02*
X974928Y-3240976D01*
X993976Y-3250500D01*
X1003500Y-3260024D01*
X1013024Y-3279071D01*
X1022548Y-3317167D01*
X1022548Y-3364786D01*
X1013024Y-3402881D01*
X1003500Y-3421928D01*
X993976Y-3431452D01*
X974928Y-3440976D01*
X955881Y-3440976D01*
X936833Y-3431452D01*
X927309Y-3421928D01*
X917786Y-3402881D01*
X908262Y-3364786D01*
X908262Y-3317167D01*
X917786Y-3279071D01*
X927309Y-3260024D01*
X936833Y-3250500D01*
X955881Y-3240976D01*
X1108262Y-3440976D02*
X1108262Y-3307643D01*
X1108262Y-3326690D02*
X1117786Y-3317167D01*
X1136833Y-3307643D01*
X1165405Y-3307643D01*
X1184452Y-3317167D01*
X1193976Y-3336214D01*
X1193976Y-3440976D01*
X1193976Y-3336214D02*
X1203500Y-3317167D01*
X1222548Y-3307643D01*
X1251119Y-3307643D01*
X1270167Y-3317167D01*
X1279690Y-3336214D01*
X1279690Y-3440976D01*
X1374929Y-3440976D02*
X1374929Y-3307643D01*
X1374929Y-3326690D02*
X1384452Y-3317167D01*
X1403500Y-3307643D01*
X1432071Y-3307643D01*
X1451119Y-3317167D01*
X1460643Y-3336214D01*
X1460643Y-3440976D01*
X1460643Y-3336214D02*
X1470167Y-3317167D01*
X1489214Y-3307643D01*
X1517786Y-3307643D01*
X1536833Y-3317167D01*
X1546357Y-3336214D01*
X1546357Y-3440976D01*
X1936833Y-3231452D02*
X1765405Y-3488595D01*
X2193976Y-3240976D02*
X2213024Y-3240976D01*
X2232071Y-3250500D01*
X2241595Y-3260024D01*
X2251119Y-3279071D01*
X2260643Y-3317167D01*
X2260643Y-3364786D01*
X2251119Y-3402881D01*
X2241595Y-3421928D01*
X2232071Y-3431452D01*
X2213024Y-3440976D01*
X2193976Y-3440976D01*
X2174929Y-3431452D01*
X2165405Y-3421928D01*
X2155881Y-3402881D01*
X2146357Y-3364786D01*
X2146357Y-3317167D01*
X2155881Y-3279071D01*
X2165405Y-3260024D01*
X2174929Y-3250500D01*
X2193976Y-3240976D01*
X2346357Y-3421928D02*
X2355881Y-3431452D01*
X2346357Y-3440976D01*
X2336833Y-3431452D01*
X2346357Y-3421928D01*
X2346357Y-3440976D01*
X2546357Y-3440976D02*
X2432071Y-3440976D01*
X2489214Y-3440976D02*
X2489214Y-3240976D01*
X2470167Y-3269548D01*
X2451119Y-3288595D01*
X2432071Y-3298119D01*
X2622548Y-3260024D02*
X2632071Y-3250500D01*
X2651119Y-3240976D01*
X2698738Y-3240976D01*
X2717786Y-3250500D01*
X2727310Y-3260024D01*
X2736833Y-3279071D01*
X2736833Y-3298119D01*
X2727310Y-3326690D01*
X2613024Y-3440976D01*
X2736833Y-3440976D01*
X2908262Y-3240976D02*
X2870167Y-3240976D01*
X2851119Y-3250500D01*
X2841595Y-3260024D01*
X2822548Y-3288595D01*
X2813024Y-3326690D01*
X2813024Y-3402881D01*
X2822548Y-3421928D01*
X2832071Y-3431452D01*
X2851119Y-3440976D01*
X2889214Y-3440976D01*
X2908262Y-3431452D01*
X2917786Y-3421928D01*
X2927309Y-3402881D01*
X2927309Y-3355262D01*
X2917786Y-3336214D01*
X2908262Y-3326690D01*
X2889214Y-3317167D01*
X2851119Y-3317167D01*
X2832071Y-3326690D01*
X2822548Y-3336214D01*
X2813024Y-3355262D01*
X3051119Y-3240976D02*
X3070167Y-3240976D01*
X3089214Y-3250500D01*
X3098738Y-3260024D01*
X3108262Y-3279071D01*
X3117786Y-3317167D01*
X3117786Y-3364786D01*
X3108262Y-3402881D01*
X3098738Y-3421928D01*
X3089214Y-3431452D01*
X3070167Y-3440976D01*
X3051119Y-3440976D01*
X3032071Y-3431452D01*
X3022548Y-3421928D01*
X3013024Y-3402881D01*
X3003500Y-3364786D01*
X3003500Y-3317167D01*
X3013024Y-3279071D01*
X3022548Y-3260024D01*
X3032071Y-3250500D01*
X3051119Y-3240976D01*
X3193976Y-3240976D02*
X3193976Y-3279071D01*
X3270167Y-3240976D02*
X3270167Y-3279071D01*
X3565405Y-3517167D02*
X3555881Y-3507643D01*
X3536833Y-3479071D01*
X3527309Y-3460024D01*
X3517786Y-3431452D01*
X3508262Y-3383833D01*
X3508262Y-3345738D01*
X3517786Y-3298119D01*
X3527309Y-3269548D01*
X3536833Y-3250500D01*
X3555881Y-3221928D01*
X3565405Y-3212405D01*
X3746357Y-3440976D02*
X3632071Y-3440976D01*
X3689214Y-3440976D02*
X3689214Y-3240976D01*
X3670167Y-3269548D01*
X3651119Y-3288595D01*
X3632071Y-3298119D01*
X3984452Y-3440976D02*
X3984452Y-3240976D01*
X4070167Y-3440976D02*
X4070167Y-3336214D01*
X4060643Y-3317167D01*
X4041595Y-3307643D01*
X4013024Y-3307643D01*
X3993976Y-3317167D01*
X3984452Y-3326690D01*
X4193976Y-3440976D02*
X4174928Y-3431452D01*
X4165405Y-3421928D01*
X4155881Y-3402881D01*
X4155881Y-3345738D01*
X4165405Y-3326690D01*
X4174928Y-3317167D01*
X4193976Y-3307643D01*
X4222548Y-3307643D01*
X4241595Y-3317167D01*
X4251119Y-3326690D01*
X4260643Y-3345738D01*
X4260643Y-3402881D01*
X4251119Y-3421928D01*
X4241595Y-3431452D01*
X4222548Y-3440976D01*
X4193976Y-3440976D01*
X4374929Y-3440976D02*
X4355881Y-3431452D01*
X4346357Y-3412405D01*
X4346357Y-3240976D01*
X4527310Y-3431452D02*
X4508262Y-3440976D01*
X4470167Y-3440976D01*
X4451119Y-3431452D01*
X4441595Y-3412405D01*
X4441595Y-3336214D01*
X4451119Y-3317167D01*
X4470167Y-3307643D01*
X4508262Y-3307643D01*
X4527310Y-3317167D01*
X4536833Y-3336214D01*
X4536833Y-3355262D01*
X4441595Y-3374309D01*
X4603500Y-3517167D02*
X4613024Y-3507643D01*
X4632071Y-3479071D01*
X4641595Y-3460024D01*
X4651119Y-3431452D01*
X4660643Y-3383833D01*
X4660643Y-3345738D01*
X4651119Y-3298119D01*
X4641595Y-3269548D01*
X4632071Y-3250500D01*
X4613024Y-3221928D01*
X4603500Y-3212405D01*
M02*
