%FSLAX45Y45*%
G04 Gerber Fmt 4.5, Leading zero omitted, Abs format (unit mm)*
G04 Created by KiCad (PCBNEW (6.0.4)) date 2022-10-08 16:20:50*
%MOMM*%
%LPD*%
G01*
G04 APERTURE LIST*
%TA.AperFunction,Profile*%
%ADD10C,0.100000*%
%TD*%
%ADD11C,0.200000*%
%ADD12C,0.110000*%
%ADD13C,0.260000*%
G04 APERTURE END LIST*
D10*
X10002500Y10017500D02*
X-5000Y10017500D01*
X-5000Y10017500D02*
X-5000Y-2500D01*
X-5000Y-2500D02*
X10002500Y-2500D01*
X10002500Y-2500D02*
X10002500Y10017500D01*
D11*
D12*
X8947500Y9027500D02*
X9057500Y8917500D01*
X9057500Y9027500D02*
X8947500Y8917500D01*
X9447500Y9027500D02*
X9557500Y8917500D01*
X9557500Y9027500D02*
X9447500Y8917500D01*
D13*
X1640000Y8580000D02*
G75*
G03*
X1640000Y8580000I-130000J0D01*
G01*
X3115000Y6360000D02*
G75*
G03*
X3115000Y6360000I-130000J0D01*
G01*
X4440000Y8580000D02*
G75*
G03*
X4440000Y8580000I-130000J0D01*
G01*
D11*
X247619Y-317976D02*
X247619Y-117976D01*
X295238Y-117976D01*
X323810Y-127500D01*
X342857Y-146548D01*
X352381Y-165595D01*
X361905Y-203690D01*
X361905Y-232262D01*
X352381Y-270357D01*
X342857Y-289405D01*
X323810Y-308452D01*
X295238Y-317976D01*
X247619Y-317976D01*
X447619Y-317976D02*
X447619Y-184643D01*
X447619Y-222738D02*
X457143Y-203690D01*
X466667Y-194167D01*
X485714Y-184643D01*
X504762Y-184643D01*
X571429Y-317976D02*
X571429Y-184643D01*
X571429Y-117976D02*
X561905Y-127500D01*
X571429Y-137024D01*
X580952Y-127500D01*
X571429Y-117976D01*
X571429Y-137024D01*
X695238Y-317976D02*
X676190Y-308452D01*
X666667Y-289405D01*
X666667Y-117976D01*
X800000Y-317976D02*
X780952Y-308452D01*
X771428Y-289405D01*
X771428Y-117976D01*
X1028571Y-317976D02*
X1028571Y-117976D01*
X1095238Y-260833D01*
X1161905Y-117976D01*
X1161905Y-317976D01*
X1342857Y-317976D02*
X1342857Y-213214D01*
X1333333Y-194167D01*
X1314286Y-184643D01*
X1276190Y-184643D01*
X1257143Y-194167D01*
X1342857Y-308452D02*
X1323810Y-317976D01*
X1276190Y-317976D01*
X1257143Y-308452D01*
X1247619Y-289405D01*
X1247619Y-270357D01*
X1257143Y-251309D01*
X1276190Y-241786D01*
X1323810Y-241786D01*
X1342857Y-232262D01*
X1438095Y-184643D02*
X1438095Y-384643D01*
X1438095Y-194167D02*
X1457143Y-184643D01*
X1495238Y-184643D01*
X1514286Y-194167D01*
X1523809Y-203690D01*
X1533333Y-222738D01*
X1533333Y-279881D01*
X1523809Y-298929D01*
X1514286Y-308452D01*
X1495238Y-317976D01*
X1457143Y-317976D01*
X1438095Y-308452D01*
X1619048Y-298929D02*
X1628571Y-308452D01*
X1619048Y-317976D01*
X1609524Y-308452D01*
X1619048Y-298929D01*
X1619048Y-317976D01*
X1619048Y-194167D02*
X1628571Y-203690D01*
X1619048Y-213214D01*
X1609524Y-203690D01*
X1619048Y-194167D01*
X1619048Y-213214D01*
D12*
X-120000Y-592500D02*
X-10000Y-702500D01*
X-10000Y-592500D02*
X-120000Y-702500D01*
D11*
X352381Y-737976D02*
X238095Y-737976D01*
X295238Y-737976D02*
X295238Y-537976D01*
X276190Y-566548D01*
X257143Y-585595D01*
X238095Y-595119D01*
X438095Y-718928D02*
X447619Y-728452D01*
X438095Y-737976D01*
X428571Y-728452D01*
X438095Y-718928D01*
X438095Y-737976D01*
X638095Y-737976D02*
X523809Y-737976D01*
X580952Y-737976D02*
X580952Y-537976D01*
X561905Y-566548D01*
X542857Y-585595D01*
X523809Y-595119D01*
X761905Y-537976D02*
X780952Y-537976D01*
X800000Y-547500D01*
X809524Y-557024D01*
X819048Y-576071D01*
X828571Y-614167D01*
X828571Y-661786D01*
X819048Y-699881D01*
X809524Y-718928D01*
X800000Y-728452D01*
X780952Y-737976D01*
X761905Y-737976D01*
X742857Y-728452D01*
X733333Y-718928D01*
X723809Y-699881D01*
X714286Y-661786D01*
X714286Y-614167D01*
X723809Y-576071D01*
X733333Y-557024D01*
X742857Y-547500D01*
X761905Y-537976D01*
X952381Y-537976D02*
X971428Y-537976D01*
X990476Y-547500D01*
X1000000Y-557024D01*
X1009524Y-576071D01*
X1019048Y-614167D01*
X1019048Y-661786D01*
X1009524Y-699881D01*
X1000000Y-718928D01*
X990476Y-728452D01*
X971428Y-737976D01*
X952381Y-737976D01*
X933333Y-728452D01*
X923809Y-718928D01*
X914286Y-699881D01*
X904762Y-661786D01*
X904762Y-614167D01*
X914286Y-576071D01*
X923809Y-557024D01*
X933333Y-547500D01*
X952381Y-537976D01*
X1104762Y-737976D02*
X1104762Y-604643D01*
X1104762Y-623690D02*
X1114286Y-614167D01*
X1133333Y-604643D01*
X1161905Y-604643D01*
X1180952Y-614167D01*
X1190476Y-633214D01*
X1190476Y-737976D01*
X1190476Y-633214D02*
X1200000Y-614167D01*
X1219048Y-604643D01*
X1247619Y-604643D01*
X1266667Y-614167D01*
X1276190Y-633214D01*
X1276190Y-737976D01*
X1371429Y-737976D02*
X1371429Y-604643D01*
X1371429Y-623690D02*
X1380952Y-614167D01*
X1400000Y-604643D01*
X1428571Y-604643D01*
X1447619Y-614167D01*
X1457143Y-633214D01*
X1457143Y-737976D01*
X1457143Y-633214D02*
X1466667Y-614167D01*
X1485714Y-604643D01*
X1514286Y-604643D01*
X1533333Y-614167D01*
X1542857Y-633214D01*
X1542857Y-737976D01*
X1933333Y-528452D02*
X1761905Y-785595D01*
X2190476Y-537976D02*
X2209524Y-537976D01*
X2228571Y-547500D01*
X2238095Y-557024D01*
X2247619Y-576071D01*
X2257143Y-614167D01*
X2257143Y-661786D01*
X2247619Y-699881D01*
X2238095Y-718928D01*
X2228571Y-728452D01*
X2209524Y-737976D01*
X2190476Y-737976D01*
X2171429Y-728452D01*
X2161905Y-718928D01*
X2152381Y-699881D01*
X2142857Y-661786D01*
X2142857Y-614167D01*
X2152381Y-576071D01*
X2161905Y-557024D01*
X2171429Y-547500D01*
X2190476Y-537976D01*
X2342857Y-718928D02*
X2352381Y-728452D01*
X2342857Y-737976D01*
X2333333Y-728452D01*
X2342857Y-718928D01*
X2342857Y-737976D01*
X2476190Y-537976D02*
X2495238Y-537976D01*
X2514286Y-547500D01*
X2523810Y-557024D01*
X2533333Y-576071D01*
X2542857Y-614167D01*
X2542857Y-661786D01*
X2533333Y-699881D01*
X2523810Y-718928D01*
X2514286Y-728452D01*
X2495238Y-737976D01*
X2476190Y-737976D01*
X2457143Y-728452D01*
X2447619Y-718928D01*
X2438095Y-699881D01*
X2428571Y-661786D01*
X2428571Y-614167D01*
X2438095Y-576071D01*
X2447619Y-557024D01*
X2457143Y-547500D01*
X2476190Y-537976D01*
X2714286Y-604643D02*
X2714286Y-737976D01*
X2666667Y-528452D02*
X2619048Y-671310D01*
X2742857Y-671310D01*
X2800000Y-537976D02*
X2923809Y-537976D01*
X2857143Y-614167D01*
X2885714Y-614167D01*
X2904762Y-623690D01*
X2914286Y-633214D01*
X2923809Y-652262D01*
X2923809Y-699881D01*
X2914286Y-718928D01*
X2904762Y-728452D01*
X2885714Y-737976D01*
X2828571Y-737976D01*
X2809524Y-728452D01*
X2800000Y-718928D01*
X2990476Y-537976D02*
X3114286Y-537976D01*
X3047619Y-614167D01*
X3076190Y-614167D01*
X3095238Y-623690D01*
X3104762Y-633214D01*
X3114286Y-652262D01*
X3114286Y-699881D01*
X3104762Y-718928D01*
X3095238Y-728452D01*
X3076190Y-737976D01*
X3019048Y-737976D01*
X3000000Y-728452D01*
X2990476Y-718928D01*
X3190476Y-537976D02*
X3190476Y-576071D01*
X3266667Y-537976D02*
X3266667Y-576071D01*
X3561905Y-814167D02*
X3552381Y-804643D01*
X3533333Y-776071D01*
X3523809Y-757024D01*
X3514286Y-728452D01*
X3504762Y-680833D01*
X3504762Y-642738D01*
X3514286Y-595119D01*
X3523809Y-566548D01*
X3533333Y-547500D01*
X3552381Y-518928D01*
X3561905Y-509405D01*
X3628571Y-557024D02*
X3638095Y-547500D01*
X3657143Y-537976D01*
X3704762Y-537976D01*
X3723809Y-547500D01*
X3733333Y-557024D01*
X3742857Y-576071D01*
X3742857Y-595119D01*
X3733333Y-623690D01*
X3619048Y-737976D01*
X3742857Y-737976D01*
X3980952Y-737976D02*
X3980952Y-537976D01*
X4066667Y-737976D02*
X4066667Y-633214D01*
X4057143Y-614167D01*
X4038095Y-604643D01*
X4009524Y-604643D01*
X3990476Y-614167D01*
X3980952Y-623690D01*
X4190476Y-737976D02*
X4171428Y-728452D01*
X4161905Y-718928D01*
X4152381Y-699881D01*
X4152381Y-642738D01*
X4161905Y-623690D01*
X4171428Y-614167D01*
X4190476Y-604643D01*
X4219048Y-604643D01*
X4238095Y-614167D01*
X4247619Y-623690D01*
X4257143Y-642738D01*
X4257143Y-699881D01*
X4247619Y-718928D01*
X4238095Y-728452D01*
X4219048Y-737976D01*
X4190476Y-737976D01*
X4371429Y-737976D02*
X4352381Y-728452D01*
X4342857Y-709405D01*
X4342857Y-537976D01*
X4523810Y-728452D02*
X4504762Y-737976D01*
X4466667Y-737976D01*
X4447619Y-728452D01*
X4438095Y-709405D01*
X4438095Y-633214D01*
X4447619Y-614167D01*
X4466667Y-604643D01*
X4504762Y-604643D01*
X4523810Y-614167D01*
X4533333Y-633214D01*
X4533333Y-652262D01*
X4438095Y-671310D01*
X4609524Y-728452D02*
X4628571Y-737976D01*
X4666667Y-737976D01*
X4685714Y-728452D01*
X4695238Y-709405D01*
X4695238Y-699881D01*
X4685714Y-680833D01*
X4666667Y-671310D01*
X4638095Y-671310D01*
X4619048Y-661786D01*
X4609524Y-642738D01*
X4609524Y-633214D01*
X4619048Y-614167D01*
X4638095Y-604643D01*
X4666667Y-604643D01*
X4685714Y-614167D01*
X4761905Y-814167D02*
X4771429Y-804643D01*
X4790476Y-776071D01*
X4800000Y-757024D01*
X4809524Y-728452D01*
X4819048Y-680833D01*
X4819048Y-642738D01*
X4809524Y-595119D01*
X4800000Y-566548D01*
X4790476Y-547500D01*
X4771429Y-518928D01*
X4761905Y-509405D01*
X5123810Y-814167D02*
X5114286Y-804643D01*
X5095238Y-776071D01*
X5085714Y-757024D01*
X5076190Y-728452D01*
X5066667Y-680833D01*
X5066667Y-642738D01*
X5076190Y-595119D01*
X5085714Y-566548D01*
X5095238Y-547500D01*
X5114286Y-518928D01*
X5123810Y-509405D01*
X5200000Y-604643D02*
X5200000Y-737976D01*
X5200000Y-623690D02*
X5209524Y-614167D01*
X5228571Y-604643D01*
X5257143Y-604643D01*
X5276190Y-614167D01*
X5285714Y-633214D01*
X5285714Y-737976D01*
X5409524Y-737976D02*
X5390476Y-728452D01*
X5380952Y-718928D01*
X5371429Y-699881D01*
X5371429Y-642738D01*
X5380952Y-623690D01*
X5390476Y-614167D01*
X5409524Y-604643D01*
X5438095Y-604643D01*
X5457143Y-614167D01*
X5466667Y-623690D01*
X5476190Y-642738D01*
X5476190Y-699881D01*
X5466667Y-718928D01*
X5457143Y-728452D01*
X5438095Y-737976D01*
X5409524Y-737976D01*
X5533333Y-604643D02*
X5609524Y-604643D01*
X5561905Y-537976D02*
X5561905Y-709405D01*
X5571429Y-728452D01*
X5590476Y-737976D01*
X5609524Y-737976D01*
X5828571Y-604643D02*
X5828571Y-804643D01*
X5828571Y-614167D02*
X5847619Y-604643D01*
X5885714Y-604643D01*
X5904762Y-614167D01*
X5914286Y-623690D01*
X5923809Y-642738D01*
X5923809Y-699881D01*
X5914286Y-718928D01*
X5904762Y-728452D01*
X5885714Y-737976D01*
X5847619Y-737976D01*
X5828571Y-728452D01*
X6038095Y-737976D02*
X6019048Y-728452D01*
X6009524Y-709405D01*
X6009524Y-537976D01*
X6200000Y-737976D02*
X6200000Y-633214D01*
X6190476Y-614167D01*
X6171428Y-604643D01*
X6133333Y-604643D01*
X6114286Y-614167D01*
X6200000Y-728452D02*
X6180952Y-737976D01*
X6133333Y-737976D01*
X6114286Y-728452D01*
X6104762Y-709405D01*
X6104762Y-690357D01*
X6114286Y-671310D01*
X6133333Y-661786D01*
X6180952Y-661786D01*
X6200000Y-652262D01*
X6266667Y-604643D02*
X6342857Y-604643D01*
X6295238Y-537976D02*
X6295238Y-709405D01*
X6304762Y-728452D01*
X6323809Y-737976D01*
X6342857Y-737976D01*
X6485714Y-728452D02*
X6466667Y-737976D01*
X6428571Y-737976D01*
X6409524Y-728452D01*
X6400000Y-709405D01*
X6400000Y-633214D01*
X6409524Y-614167D01*
X6428571Y-604643D01*
X6466667Y-604643D01*
X6485714Y-614167D01*
X6495238Y-633214D01*
X6495238Y-652262D01*
X6400000Y-671310D01*
X6666667Y-737976D02*
X6666667Y-537976D01*
X6666667Y-728452D02*
X6647619Y-737976D01*
X6609524Y-737976D01*
X6590476Y-728452D01*
X6580952Y-718928D01*
X6571428Y-699881D01*
X6571428Y-642738D01*
X6580952Y-623690D01*
X6590476Y-614167D01*
X6609524Y-604643D01*
X6647619Y-604643D01*
X6666667Y-614167D01*
X6742857Y-814167D02*
X6752381Y-804643D01*
X6771428Y-776071D01*
X6780952Y-757024D01*
X6790476Y-728452D01*
X6800000Y-680833D01*
X6800000Y-642738D01*
X6790476Y-595119D01*
X6780952Y-566548D01*
X6771428Y-547500D01*
X6752381Y-518928D01*
X6742857Y-509405D01*
X-10000Y-911500D02*
G75*
G03*
X-10000Y-911500I-100000J0D01*
G01*
X238095Y-821024D02*
X247619Y-811500D01*
X266667Y-801976D01*
X314286Y-801976D01*
X333333Y-811500D01*
X342857Y-821024D01*
X352381Y-840071D01*
X352381Y-859119D01*
X342857Y-887690D01*
X228571Y-1001976D01*
X352381Y-1001976D01*
X438095Y-982928D02*
X447619Y-992452D01*
X438095Y-1001976D01*
X428571Y-992452D01*
X438095Y-982928D01*
X438095Y-1001976D01*
X619048Y-801976D02*
X580952Y-801976D01*
X561905Y-811500D01*
X552381Y-821024D01*
X533333Y-849595D01*
X523809Y-887690D01*
X523809Y-963881D01*
X533333Y-982928D01*
X542857Y-992452D01*
X561905Y-1001976D01*
X600000Y-1001976D01*
X619048Y-992452D01*
X628571Y-982928D01*
X638095Y-963881D01*
X638095Y-916262D01*
X628571Y-897214D01*
X619048Y-887690D01*
X600000Y-878167D01*
X561905Y-878167D01*
X542857Y-887690D01*
X533333Y-897214D01*
X523809Y-916262D01*
X761905Y-801976D02*
X780952Y-801976D01*
X800000Y-811500D01*
X809524Y-821024D01*
X819048Y-840071D01*
X828571Y-878167D01*
X828571Y-925786D01*
X819048Y-963881D01*
X809524Y-982928D01*
X800000Y-992452D01*
X780952Y-1001976D01*
X761905Y-1001976D01*
X742857Y-992452D01*
X733333Y-982928D01*
X723809Y-963881D01*
X714286Y-925786D01*
X714286Y-878167D01*
X723809Y-840071D01*
X733333Y-821024D01*
X742857Y-811500D01*
X761905Y-801976D01*
X952381Y-801976D02*
X971428Y-801976D01*
X990476Y-811500D01*
X1000000Y-821024D01*
X1009524Y-840071D01*
X1019048Y-878167D01*
X1019048Y-925786D01*
X1009524Y-963881D01*
X1000000Y-982928D01*
X990476Y-992452D01*
X971428Y-1001976D01*
X952381Y-1001976D01*
X933333Y-992452D01*
X923809Y-982928D01*
X914286Y-963881D01*
X904762Y-925786D01*
X904762Y-878167D01*
X914286Y-840071D01*
X923809Y-821024D01*
X933333Y-811500D01*
X952381Y-801976D01*
X1104762Y-1001976D02*
X1104762Y-868643D01*
X1104762Y-887690D02*
X1114286Y-878167D01*
X1133333Y-868643D01*
X1161905Y-868643D01*
X1180952Y-878167D01*
X1190476Y-897214D01*
X1190476Y-1001976D01*
X1190476Y-897214D02*
X1200000Y-878167D01*
X1219048Y-868643D01*
X1247619Y-868643D01*
X1266667Y-878167D01*
X1276190Y-897214D01*
X1276190Y-1001976D01*
X1371429Y-1001976D02*
X1371429Y-868643D01*
X1371429Y-887690D02*
X1380952Y-878167D01*
X1400000Y-868643D01*
X1428571Y-868643D01*
X1447619Y-878167D01*
X1457143Y-897214D01*
X1457143Y-1001976D01*
X1457143Y-897214D02*
X1466667Y-878167D01*
X1485714Y-868643D01*
X1514286Y-868643D01*
X1533333Y-878167D01*
X1542857Y-897214D01*
X1542857Y-1001976D01*
X1933333Y-792452D02*
X1761905Y-1049595D01*
X2190476Y-801976D02*
X2209524Y-801976D01*
X2228571Y-811500D01*
X2238095Y-821024D01*
X2247619Y-840071D01*
X2257143Y-878167D01*
X2257143Y-925786D01*
X2247619Y-963881D01*
X2238095Y-982928D01*
X2228571Y-992452D01*
X2209524Y-1001976D01*
X2190476Y-1001976D01*
X2171429Y-992452D01*
X2161905Y-982928D01*
X2152381Y-963881D01*
X2142857Y-925786D01*
X2142857Y-878167D01*
X2152381Y-840071D01*
X2161905Y-821024D01*
X2171429Y-811500D01*
X2190476Y-801976D01*
X2342857Y-982928D02*
X2352381Y-992452D01*
X2342857Y-1001976D01*
X2333333Y-992452D01*
X2342857Y-982928D01*
X2342857Y-1001976D01*
X2542857Y-1001976D02*
X2428571Y-1001976D01*
X2485714Y-1001976D02*
X2485714Y-801976D01*
X2466667Y-830548D01*
X2447619Y-849595D01*
X2428571Y-859119D01*
X2666667Y-801976D02*
X2685714Y-801976D01*
X2704762Y-811500D01*
X2714286Y-821024D01*
X2723810Y-840071D01*
X2733333Y-878167D01*
X2733333Y-925786D01*
X2723810Y-963881D01*
X2714286Y-982928D01*
X2704762Y-992452D01*
X2685714Y-1001976D01*
X2666667Y-1001976D01*
X2647619Y-992452D01*
X2638095Y-982928D01*
X2628571Y-963881D01*
X2619048Y-925786D01*
X2619048Y-878167D01*
X2628571Y-840071D01*
X2638095Y-821024D01*
X2647619Y-811500D01*
X2666667Y-801976D01*
X2809524Y-821024D02*
X2819048Y-811500D01*
X2838095Y-801976D01*
X2885714Y-801976D01*
X2904762Y-811500D01*
X2914286Y-821024D01*
X2923809Y-840071D01*
X2923809Y-859119D01*
X2914286Y-887690D01*
X2800000Y-1001976D01*
X2923809Y-1001976D01*
X3095238Y-868643D02*
X3095238Y-1001976D01*
X3047619Y-792452D02*
X3000000Y-935309D01*
X3123809Y-935309D01*
X3190476Y-801976D02*
X3190476Y-840071D01*
X3266667Y-801976D02*
X3266667Y-840071D01*
X3561905Y-1078167D02*
X3552381Y-1068643D01*
X3533333Y-1040071D01*
X3523809Y-1021024D01*
X3514286Y-992452D01*
X3504762Y-944833D01*
X3504762Y-906738D01*
X3514286Y-859119D01*
X3523809Y-830548D01*
X3533333Y-811500D01*
X3552381Y-782928D01*
X3561905Y-773405D01*
X3619048Y-801976D02*
X3742857Y-801976D01*
X3676190Y-878167D01*
X3704762Y-878167D01*
X3723809Y-887690D01*
X3733333Y-897214D01*
X3742857Y-916262D01*
X3742857Y-963881D01*
X3733333Y-982928D01*
X3723809Y-992452D01*
X3704762Y-1001976D01*
X3647619Y-1001976D01*
X3628571Y-992452D01*
X3619048Y-982928D01*
X3980952Y-1001976D02*
X3980952Y-801976D01*
X4066667Y-1001976D02*
X4066667Y-897214D01*
X4057143Y-878167D01*
X4038095Y-868643D01*
X4009524Y-868643D01*
X3990476Y-878167D01*
X3980952Y-887690D01*
X4190476Y-1001976D02*
X4171428Y-992452D01*
X4161905Y-982928D01*
X4152381Y-963881D01*
X4152381Y-906738D01*
X4161905Y-887690D01*
X4171428Y-878167D01*
X4190476Y-868643D01*
X4219048Y-868643D01*
X4238095Y-878167D01*
X4247619Y-887690D01*
X4257143Y-906738D01*
X4257143Y-963881D01*
X4247619Y-982928D01*
X4238095Y-992452D01*
X4219048Y-1001976D01*
X4190476Y-1001976D01*
X4371429Y-1001976D02*
X4352381Y-992452D01*
X4342857Y-973405D01*
X4342857Y-801976D01*
X4523810Y-992452D02*
X4504762Y-1001976D01*
X4466667Y-1001976D01*
X4447619Y-992452D01*
X4438095Y-973405D01*
X4438095Y-897214D01*
X4447619Y-878167D01*
X4466667Y-868643D01*
X4504762Y-868643D01*
X4523810Y-878167D01*
X4533333Y-897214D01*
X4533333Y-916262D01*
X4438095Y-935309D01*
X4609524Y-992452D02*
X4628571Y-1001976D01*
X4666667Y-1001976D01*
X4685714Y-992452D01*
X4695238Y-973405D01*
X4695238Y-963881D01*
X4685714Y-944833D01*
X4666667Y-935309D01*
X4638095Y-935309D01*
X4619048Y-925786D01*
X4609524Y-906738D01*
X4609524Y-897214D01*
X4619048Y-878167D01*
X4638095Y-868643D01*
X4666667Y-868643D01*
X4685714Y-878167D01*
X4761905Y-1078167D02*
X4771429Y-1068643D01*
X4790476Y-1040071D01*
X4800000Y-1021024D01*
X4809524Y-992452D01*
X4819048Y-944833D01*
X4819048Y-906738D01*
X4809524Y-859119D01*
X4800000Y-830548D01*
X4790476Y-811500D01*
X4771429Y-782928D01*
X4761905Y-773405D01*
X5123810Y-1078167D02*
X5114286Y-1068643D01*
X5095238Y-1040071D01*
X5085714Y-1021024D01*
X5076190Y-992452D01*
X5066667Y-944833D01*
X5066667Y-906738D01*
X5076190Y-859119D01*
X5085714Y-830548D01*
X5095238Y-811500D01*
X5114286Y-782928D01*
X5123810Y-773405D01*
X5200000Y-868643D02*
X5200000Y-1001976D01*
X5200000Y-887690D02*
X5209524Y-878167D01*
X5228571Y-868643D01*
X5257143Y-868643D01*
X5276190Y-878167D01*
X5285714Y-897214D01*
X5285714Y-1001976D01*
X5409524Y-1001976D02*
X5390476Y-992452D01*
X5380952Y-982928D01*
X5371429Y-963881D01*
X5371429Y-906738D01*
X5380952Y-887690D01*
X5390476Y-878167D01*
X5409524Y-868643D01*
X5438095Y-868643D01*
X5457143Y-878167D01*
X5466667Y-887690D01*
X5476190Y-906738D01*
X5476190Y-963881D01*
X5466667Y-982928D01*
X5457143Y-992452D01*
X5438095Y-1001976D01*
X5409524Y-1001976D01*
X5533333Y-868643D02*
X5609524Y-868643D01*
X5561905Y-801976D02*
X5561905Y-973405D01*
X5571429Y-992452D01*
X5590476Y-1001976D01*
X5609524Y-1001976D01*
X5828571Y-868643D02*
X5828571Y-1068643D01*
X5828571Y-878167D02*
X5847619Y-868643D01*
X5885714Y-868643D01*
X5904762Y-878167D01*
X5914286Y-887690D01*
X5923809Y-906738D01*
X5923809Y-963881D01*
X5914286Y-982928D01*
X5904762Y-992452D01*
X5885714Y-1001976D01*
X5847619Y-1001976D01*
X5828571Y-992452D01*
X6038095Y-1001976D02*
X6019048Y-992452D01*
X6009524Y-973405D01*
X6009524Y-801976D01*
X6200000Y-1001976D02*
X6200000Y-897214D01*
X6190476Y-878167D01*
X6171428Y-868643D01*
X6133333Y-868643D01*
X6114286Y-878167D01*
X6200000Y-992452D02*
X6180952Y-1001976D01*
X6133333Y-1001976D01*
X6114286Y-992452D01*
X6104762Y-973405D01*
X6104762Y-954357D01*
X6114286Y-935309D01*
X6133333Y-925786D01*
X6180952Y-925786D01*
X6200000Y-916262D01*
X6266667Y-868643D02*
X6342857Y-868643D01*
X6295238Y-801976D02*
X6295238Y-973405D01*
X6304762Y-992452D01*
X6323809Y-1001976D01*
X6342857Y-1001976D01*
X6485714Y-992452D02*
X6466667Y-1001976D01*
X6428571Y-1001976D01*
X6409524Y-992452D01*
X6400000Y-973405D01*
X6400000Y-897214D01*
X6409524Y-878167D01*
X6428571Y-868643D01*
X6466667Y-868643D01*
X6485714Y-878167D01*
X6495238Y-897214D01*
X6495238Y-916262D01*
X6400000Y-935309D01*
X6666667Y-1001976D02*
X6666667Y-801976D01*
X6666667Y-992452D02*
X6647619Y-1001976D01*
X6609524Y-1001976D01*
X6590476Y-992452D01*
X6580952Y-982928D01*
X6571428Y-963881D01*
X6571428Y-906738D01*
X6580952Y-887690D01*
X6590476Y-878167D01*
X6609524Y-868643D01*
X6647619Y-868643D01*
X6666667Y-878167D01*
X6742857Y-1078167D02*
X6752381Y-1068643D01*
X6771428Y-1040071D01*
X6780952Y-1021024D01*
X6790476Y-992452D01*
X6800000Y-944833D01*
X6800000Y-906738D01*
X6790476Y-859119D01*
X6780952Y-830548D01*
X6771428Y-811500D01*
X6752381Y-782928D01*
X6742857Y-773405D01*
M02*
