  0
SECTION
  2
HEADER
  9
$ANGBASE
  50
0.0
  9
$ANGDIR
  70
1
  9
$MEASUREMENT
  70
1
  0
ENDSEC
  0
SECTION
  2
TABLES
  0
TABLE
  2
LTYPE
  70
4
  0
LTYPE
  5
40F
  2
CONTINUOUS
  70
0
  3
Solid line
  72
65
  73
0
  40
0.0
  0
LTYPE
  5
410
  2
DASHDOT
 70
0
  3
Dash Dot ____ _ ____ _
 72
65
 73
4
 40
2.0
 49
1.25
 49
-0.25
 49
0.25
 49
-0.25
  0
LTYPE
  5
411
  2
DASHED
 70
0
  3
Dashed __ __ __ __ __
 72
65
 73
2
 40
0.75
 49
0.5
 49
-0.25
  0
LTYPE
  5
43B
  2
DOTTED
 70
0
  3
Dotted .  .  .  .
 72
65
 73
2
 40
0.2
 49
0.0
 49
-0.2
  0
ENDTAB
  0
TABLE
  2
STYLE
  70
4
  0
STYLE
  2
KICAD
  70
0
  40
0
  41
1
  42
1
  50
0
  71
0
  3
isocp.shx
  0
STYLE
  2
KICADB
  70
0
  40
0
  41
1
  42
1
  50
0
  71
0
  3
isocp.shx
  0
STYLE
  2
KICADI
  70
0
  40
0
  41
1
  42
1
  50
15
  71
0
  3
isocp.shx
  0
STYLE
  2
KICADBI
  70
0
  40
0
  41
1
  42
1
  50
15
  71
0
  3
isocp.shx
  0
ENDTAB
  0
TABLE
  2
LAYER
  70
1
  0
LAYER
  2
BLACK
  70
0
  62
7
  6
CONTINUOUS
  0
ENDTAB
  0
ENDSEC
  0
SECTION
  2
ENTITIES
0
LINE
8
BLACK
6
CONTINUOUS
10
-0.050355
20
-0.070355
11
-0.065
21
-0.035
0
LINE
8
BLACK
6
CONTINUOUS
10
-0.065
20
-0.035
11
-0.065
21
69.915
0
LINE
8
BLACK
6
CONTINUOUS
10
-0.065
20
69.915
11
-0.050355
21
69.9504
0
LINE
8
BLACK
6
CONTINUOUS
10
-0.050355
20
69.9504
11
-0.015
21
69.965
0
LINE
8
BLACK
6
CONTINUOUS
10
-0.015
20
69.965
11
79.62
21
69.965
0
LINE
8
BLACK
6
CONTINUOUS
10
79.62
20
69.965
11
79.6554
21
69.9504
0
LINE
8
BLACK
6
CONTINUOUS
10
79.6554
20
69.9504
11
79.67
21
69.915
0
LINE
8
BLACK
6
CONTINUOUS
10
79.67
20
69.915
11
79.67
21
-0.035
0
LINE
8
BLACK
6
CONTINUOUS
10
79.67
20
-0.035
11
79.6554
21
-0.070355
0
LINE
8
BLACK
6
CONTINUOUS
10
79.6554
20
-0.070355
11
79.62
21
-0.085
0
LINE
8
BLACK
6
CONTINUOUS
10
79.62
20
-0.085
11
-0.015
21
-0.085
0
LINE
8
BLACK
6
CONTINUOUS
10
-0.015
20
-0.085
11
-0.050355
21
-0.070355
0
LINE
8
BLACK
6
CONTINUOUS
10
0.035
20
69.865
11
0.035
21
0.015
0
LINE
8
BLACK
6
CONTINUOUS
10
0.035
20
0.015
11
79.57
21
0.015
0
LINE
8
BLACK
6
CONTINUOUS
10
79.57
20
0.015
11
79.57
21
69.865
0
LINE
8
BLACK
6
CONTINUOUS
10
79.57
20
69.865
11
0.035
21
69.865
0
LINE
8
BLACK
6
CONTINUOUS
10
72.5423
20
0.702322
11
72.535
21
0.72
0
LINE
8
BLACK
6
CONTINUOUS
10
72.535
20
0.72
11
72.535
21
5.22
0
LINE
8
BLACK
6
CONTINUOUS
10
72.535
20
5.22
11
72.5423
21
5.23768
0
LINE
8
BLACK
6
CONTINUOUS
10
72.5423
20
5.23768
11
72.56
21
5.245
0
LINE
8
BLACK
6
CONTINUOUS
10
72.56
20
5.245
11
77.41
21
5.245
0
LINE
8
BLACK
6
CONTINUOUS
10
77.41
20
5.245
11
77.4277
21
5.23768
0
LINE
8
BLACK
6
CONTINUOUS
10
77.4277
20
5.23768
11
77.435
21
5.22
0
LINE
8
BLACK
6
CONTINUOUS
10
77.435
20
5.22
11
77.435
21
0.72
0
LINE
8
BLACK
6
CONTINUOUS
10
77.435
20
0.72
11
77.4277
21
0.702322
0
LINE
8
BLACK
6
CONTINUOUS
10
77.4277
20
0.702322
11
77.41
21
0.695
0
LINE
8
BLACK
6
CONTINUOUS
10
77.41
20
0.695
11
72.56
21
0.695
0
LINE
8
BLACK
6
CONTINUOUS
10
72.56
20
0.695
11
72.5423
21
0.702322
0
LINE
8
BLACK
6
CONTINUOUS
10
72.585
20
5.195
11
72.585
21
0.745
0
LINE
8
BLACK
6
CONTINUOUS
10
72.585
20
0.745
11
77.385
21
0.745
0
LINE
8
BLACK
6
CONTINUOUS
10
77.385
20
0.745
11
77.385
21
5.195
0
LINE
8
BLACK
6
CONTINUOUS
10
77.385
20
5.195
11
72.585
21
5.195
0
LINE
8
BLACK
6
CONTINUOUS
10
3.11232
20
3.93232
11
3.105
21
3.95
0
LINE
8
BLACK
6
CONTINUOUS
10
3.105
20
3.95
11
3.105
21
59.45
0
LINE
8
BLACK
6
CONTINUOUS
10
3.105
20
59.45
11
3.11232
21
59.4677
0
LINE
8
BLACK
6
CONTINUOUS
10
3.11232
20
59.4677
11
3.13
21
59.475
0
LINE
8
BLACK
6
CONTINUOUS
10
3.13
20
59.475
11
34.33
21
59.475
0
LINE
8
BLACK
6
CONTINUOUS
10
34.33
20
59.475
11
34.3477
21
59.4677
0
LINE
8
BLACK
6
CONTINUOUS
10
34.3477
20
59.4677
11
34.355
21
59.45
0
LINE
8
BLACK
6
CONTINUOUS
10
34.355
20
59.45
11
34.355
21
3.95
0
LINE
8
BLACK
6
CONTINUOUS
10
34.355
20
3.95
11
34.3477
21
3.93232
0
LINE
8
BLACK
6
CONTINUOUS
10
34.3477
20
3.93232
11
34.33
21
3.925
0
LINE
8
BLACK
6
CONTINUOUS
10
34.33
20
3.925
11
3.13
21
3.925
0
LINE
8
BLACK
6
CONTINUOUS
10
3.13
20
3.925
11
3.11232
21
3.93232
0
LINE
8
BLACK
6
CONTINUOUS
10
3.155
20
59.425
11
3.155
21
3.975
0
LINE
8
BLACK
6
CONTINUOUS
10
3.155
20
3.975
11
34.305
21
3.975
0
LINE
8
BLACK
6
CONTINUOUS
10
34.305
20
3.975
11
34.305
21
59.425
0
LINE
8
BLACK
6
CONTINUOUS
10
34.305
20
59.425
11
3.155
21
59.425
0
LINE
8
BLACK
6
CONTINUOUS
10
72.4923
20
5.35232
11
72.485
21
5.37
0
LINE
8
BLACK
6
CONTINUOUS
10
72.485
20
5.37
11
72.485
21
9.87
0
LINE
8
BLACK
6
CONTINUOUS
10
72.485
20
9.87
11
72.4923
21
9.88768
0
LINE
8
BLACK
6
CONTINUOUS
10
72.4923
20
9.88768
11
72.51
21
9.895
0
LINE
8
BLACK
6
CONTINUOUS
10
72.51
20
9.895
11
77.36
21
9.895
0
LINE
8
BLACK
6
CONTINUOUS
10
77.36
20
9.895
11
77.3777
21
9.88768
0
LINE
8
BLACK
6
CONTINUOUS
10
77.3777
20
9.88768
11
77.385
21
9.87
0
LINE
8
BLACK
6
CONTINUOUS
10
77.385
20
9.87
11
77.385
21
5.37
0
LINE
8
BLACK
6
CONTINUOUS
10
77.385
20
5.37
11
77.3777
21
5.35232
0
LINE
8
BLACK
6
CONTINUOUS
10
77.3777
20
5.35232
11
77.36
21
5.345
0
LINE
8
BLACK
6
CONTINUOUS
10
77.36
20
5.345
11
72.51
21
5.345
0
LINE
8
BLACK
6
CONTINUOUS
10
72.51
20
5.345
11
72.4923
21
5.35232
0
LINE
8
BLACK
6
CONTINUOUS
10
72.535
20
9.845
11
72.535
21
5.395
0
LINE
8
BLACK
6
CONTINUOUS
10
72.535
20
5.395
11
77.335
21
5.395
0
LINE
8
BLACK
6
CONTINUOUS
10
77.335
20
5.395
11
77.335
21
9.845
0
LINE
8
BLACK
6
CONTINUOUS
10
77.335
20
9.845
11
72.535
21
9.845
0
LINE
8
BLACK
6
CONTINUOUS
10
72.4673
20
9.95232
11
72.46
21
9.97
0
LINE
8
BLACK
6
CONTINUOUS
10
72.46
20
9.97
11
72.46
21
14.47
0
LINE
8
BLACK
6
CONTINUOUS
10
72.46
20
14.47
11
72.4673
21
14.4877
0
LINE
8
BLACK
6
CONTINUOUS
10
72.4673
20
14.4877
11
72.485
21
14.495
0
LINE
8
BLACK
6
CONTINUOUS
10
72.485
20
14.495
11
77.335
21
14.495
0
LINE
8
BLACK
6
CONTINUOUS
10
77.335
20
14.495
11
77.3527
21
14.4877
0
LINE
8
BLACK
6
CONTINUOUS
10
77.3527
20
14.4877
11
77.36
21
14.47
0
LINE
8
BLACK
6
CONTINUOUS
10
77.36
20
14.47
11
77.36
21
9.97
0
LINE
8
BLACK
6
CONTINUOUS
10
77.36
20
9.97
11
77.3527
21
9.95232
0
LINE
8
BLACK
6
CONTINUOUS
10
77.3527
20
9.95232
11
77.335
21
9.945
0
LINE
8
BLACK
6
CONTINUOUS
10
77.335
20
9.945
11
72.485
21
9.945
0
LINE
8
BLACK
6
CONTINUOUS
10
72.485
20
9.945
11
72.4673
21
9.95232
0
LINE
8
BLACK
6
CONTINUOUS
10
72.51
20
14.445
11
72.51
21
9.995
0
LINE
8
BLACK
6
CONTINUOUS
10
72.51
20
9.995
11
77.31
21
9.995
0
LINE
8
BLACK
6
CONTINUOUS
10
77.31
20
9.995
11
77.31
21
14.445
0
LINE
8
BLACK
6
CONTINUOUS
10
77.31
20
14.445
11
72.51
21
14.445
0
LINE
8
BLACK
6
CONTINUOUS
10
72.4423
20
14.5523
11
72.435
21
14.57
0
LINE
8
BLACK
6
CONTINUOUS
10
72.435
20
14.57
11
72.435
21
19.07
0
LINE
8
BLACK
6
CONTINUOUS
10
72.435
20
19.07
11
72.4423
21
19.0877
0
LINE
8
BLACK
6
CONTINUOUS
10
72.4423
20
19.0877
11
72.46
21
19.095
0
LINE
8
BLACK
6
CONTINUOUS
10
72.46
20
19.095
11
77.31
21
19.095
0
LINE
8
BLACK
6
CONTINUOUS
10
77.31
20
19.095
11
77.3277
21
19.0877
0
LINE
8
BLACK
6
CONTINUOUS
10
77.3277
20
19.0877
11
77.335
21
19.07
0
LINE
8
BLACK
6
CONTINUOUS
10
77.335
20
19.07
11
77.335
21
14.57
0
LINE
8
BLACK
6
CONTINUOUS
10
77.335
20
14.57
11
77.3277
21
14.5523
0
LINE
8
BLACK
6
CONTINUOUS
10
77.3277
20
14.5523
11
77.31
21
14.545
0
LINE
8
BLACK
6
CONTINUOUS
10
77.31
20
14.545
11
72.46
21
14.545
0
LINE
8
BLACK
6
CONTINUOUS
10
72.46
20
14.545
11
72.4423
21
14.5523
0
LINE
8
BLACK
6
CONTINUOUS
10
72.485
20
19.045
11
72.485
21
14.595
0
LINE
8
BLACK
6
CONTINUOUS
10
72.485
20
14.595
11
77.285
21
14.595
0
LINE
8
BLACK
6
CONTINUOUS
10
77.285
20
14.595
11
77.285
21
19.045
0
LINE
8
BLACK
6
CONTINUOUS
10
77.285
20
19.045
11
72.485
21
19.045
0
LINE
8
BLACK
6
CONTINUOUS
10
72.4173
20
19.1523
11
72.41
21
19.17
0
LINE
8
BLACK
6
CONTINUOUS
10
72.41
20
19.17
11
72.41
21
23.67
0
LINE
8
BLACK
6
CONTINUOUS
10
72.41
20
23.67
11
72.4173
21
23.6877
0
LINE
8
BLACK
6
CONTINUOUS
10
72.4173
20
23.6877
11
72.435
21
23.695
0
LINE
8
BLACK
6
CONTINUOUS
10
72.435
20
23.695
11
72.41
21
23.695
0
LINE
8
BLACK
6
CONTINUOUS
10
72.41
20
23.695
11
72.3923
21
23.7023
0
LINE
8
BLACK
6
CONTINUOUS
10
72.3923
20
23.7023
11
72.385
21
23.72
0
LINE
8
BLACK
6
CONTINUOUS
10
72.385
20
23.72
11
72.385
21
28.22
0
LINE
8
BLACK
6
CONTINUOUS
10
72.385
20
28.22
11
72.3923
21
28.2377
0
LINE
8
BLACK
6
CONTINUOUS
10
72.3923
20
28.2377
11
72.41
21
28.245
0
LINE
8
BLACK
6
CONTINUOUS
10
72.41
20
28.245
11
77.26
21
28.245
0
LINE
8
BLACK
6
CONTINUOUS
10
77.26
20
28.245
11
77.2777
21
28.2377
0
LINE
8
BLACK
6
CONTINUOUS
10
77.2777
20
28.2377
11
77.285
21
28.22
0
LINE
8
BLACK
6
CONTINUOUS
10
77.285
20
28.22
11
77.285
21
23.72
0
LINE
8
BLACK
6
CONTINUOUS
10
77.285
20
23.72
11
77.2777
21
23.7023
0
LINE
8
BLACK
6
CONTINUOUS
10
77.2777
20
23.7023
11
77.26
21
23.695
0
LINE
8
BLACK
6
CONTINUOUS
10
77.26
20
23.695
11
77.285
21
23.695
0
LINE
8
BLACK
6
CONTINUOUS
10
77.285
20
23.695
11
77.3027
21
23.6877
0
LINE
8
BLACK
6
CONTINUOUS
10
77.3027
20
23.6877
11
77.31
21
23.67
0
LINE
8
BLACK
6
CONTINUOUS
10
77.31
20
23.67
11
77.31
21
19.17
0
LINE
8
BLACK
6
CONTINUOUS
10
77.31
20
19.17
11
77.3027
21
19.1523
0
LINE
8
BLACK
6
CONTINUOUS
10
77.3027
20
19.1523
11
77.285
21
19.145
0
LINE
8
BLACK
6
CONTINUOUS
10
77.285
20
19.145
11
72.435
21
19.145
0
LINE
8
BLACK
6
CONTINUOUS
10
72.435
20
19.145
11
72.4173
21
19.1523
0
LINE
8
BLACK
6
CONTINUOUS
10
72.46
20
23.645
11
72.46
21
19.195
0
LINE
8
BLACK
6
CONTINUOUS
10
72.46
20
19.195
11
77.26
21
19.195
0
LINE
8
BLACK
6
CONTINUOUS
10
77.26
20
19.195
11
77.26
21
23.645
0
LINE
8
BLACK
6
CONTINUOUS
10
77.26
20
23.645
11
72.46
21
23.645
0
LINE
8
BLACK
6
CONTINUOUS
10
72.435
20
28.195
11
72.435
21
23.745
0
LINE
8
BLACK
6
CONTINUOUS
10
72.435
20
23.745
11
77.235
21
23.745
0
LINE
8
BLACK
6
CONTINUOUS
10
77.235
20
23.745
11
77.235
21
28.195
0
LINE
8
BLACK
6
CONTINUOUS
10
77.235
20
28.195
11
72.435
21
28.195
0
LINE
8
BLACK
6
CONTINUOUS
10
43.4123
20
19.2023
11
43.405
21
19.22
0
LINE
8
BLACK
6
CONTINUOUS
10
43.405
20
19.22
11
43.405
21
22.22
0
LINE
8
BLACK
6
CONTINUOUS
10
43.405
20
22.22
11
43.4123
21
22.2377
0
LINE
8
BLACK
6
CONTINUOUS
10
43.4123
20
22.2377
11
43.43
21
22.245
0
LINE
8
BLACK
6
CONTINUOUS
10
43.43
20
22.245
11
55.69
21
22.245
0
LINE
8
BLACK
6
CONTINUOUS
10
55.69
20
22.245
11
55.7077
21
22.2377
0
LINE
8
BLACK
6
CONTINUOUS
10
55.7077
20
22.2377
11
55.715
21
22.22
0
LINE
8
BLACK
6
CONTINUOUS
10
55.715
20
22.22
11
55.715
21
19.22
0
LINE
8
BLACK
6
CONTINUOUS
10
55.715
20
19.22
11
55.7077
21
19.2023
0
LINE
8
BLACK
6
CONTINUOUS
10
55.7077
20
19.2023
11
55.69
21
19.195
0
LINE
8
BLACK
6
CONTINUOUS
10
55.69
20
19.195
11
43.43
21
19.195
0
LINE
8
BLACK
6
CONTINUOUS
10
43.43
20
19.195
11
43.4123
21
19.2023
0
LINE
8
BLACK
6
CONTINUOUS
10
43.455
20
22.195
11
43.455
21
19.245
0
LINE
8
BLACK
6
CONTINUOUS
10
43.455
20
19.245
11
55.665
21
19.245
0
LINE
8
BLACK
6
CONTINUOUS
10
55.665
20
19.245
11
55.665
21
22.195
0
LINE
8
BLACK
6
CONTINUOUS
10
55.665
20
22.195
11
43.455
21
22.195
0
LINE
8
BLACK
6
CONTINUOUS
10
58.5723
20
20.1123
11
58.565
21
20.13
0
LINE
8
BLACK
6
CONTINUOUS
10
58.565
20
20.13
11
58.565
21
43.63
0
LINE
8
BLACK
6
CONTINUOUS
10
58.565
20
43.63
11
58.5723
21
43.6477
0
LINE
8
BLACK
6
CONTINUOUS
10
58.5723
20
43.6477
11
58.59
21
43.655
0
LINE
8
BLACK
6
CONTINUOUS
10
58.59
20
43.655
11
69.29
21
43.655
0
LINE
8
BLACK
6
CONTINUOUS
10
69.29
20
43.655
11
69.3077
21
43.6477
0
LINE
8
BLACK
6
CONTINUOUS
10
69.3077
20
43.6477
11
69.315
21
43.63
0
LINE
8
BLACK
6
CONTINUOUS
10
69.315
20
43.63
11
69.315
21
20.13
0
LINE
8
BLACK
6
CONTINUOUS
10
69.315
20
20.13
11
69.3077
21
20.1123
0
LINE
8
BLACK
6
CONTINUOUS
10
69.3077
20
20.1123
11
69.29
21
20.105
0
LINE
8
BLACK
6
CONTINUOUS
10
69.29
20
20.105
11
58.59
21
20.105
0
LINE
8
BLACK
6
CONTINUOUS
10
58.59
20
20.105
11
58.5723
21
20.1123
0
LINE
8
BLACK
6
CONTINUOUS
10
58.615
20
43.605
11
58.615
21
20.155
0
LINE
8
BLACK
6
CONTINUOUS
10
58.615
20
20.155
11
69.265
21
20.155
0
LINE
8
BLACK
6
CONTINUOUS
10
69.265
20
20.155
11
69.265
21
43.605
0
LINE
8
BLACK
6
CONTINUOUS
10
69.265
20
43.605
11
58.615
21
43.605
0
LINE
8
BLACK
6
CONTINUOUS
10
45.7173
20
25.0673
11
45.71
21
25.085
0
LINE
8
BLACK
6
CONTINUOUS
10
45.71
20
25.085
11
45.71
21
30.135
0
LINE
8
BLACK
6
CONTINUOUS
10
45.71
20
30.135
11
45.7173
21
30.1527
0
LINE
8
BLACK
6
CONTINUOUS
10
45.7173
20
30.1527
11
45.735
21
30.16
0
LINE
8
BLACK
6
CONTINUOUS
10
45.735
20
30.16
11
52.985
21
30.16
0
LINE
8
BLACK
6
CONTINUOUS
10
52.985
20
30.16
11
53.0027
21
30.1527
0
LINE
8
BLACK
6
CONTINUOUS
10
53.0027
20
30.1527
11
53.01
21
30.135
0
LINE
8
BLACK
6
CONTINUOUS
10
53.01
20
30.135
11
53.01
21
25.085
0
LINE
8
BLACK
6
CONTINUOUS
10
53.01
20
25.085
11
53.0027
21
25.0673
0
LINE
8
BLACK
6
CONTINUOUS
10
53.0027
20
25.0673
11
52.985
21
25.06
0
LINE
8
BLACK
6
CONTINUOUS
10
52.985
20
25.06
11
45.735
21
25.06
0
LINE
8
BLACK
6
CONTINUOUS
10
45.735
20
25.06
11
45.7173
21
25.0673
0
LINE
8
BLACK
6
CONTINUOUS
10
45.76
20
30.11
11
45.76
21
25.11
0
LINE
8
BLACK
6
CONTINUOUS
10
45.76
20
25.11
11
52.96
21
25.11
0
LINE
8
BLACK
6
CONTINUOUS
10
52.96
20
25.11
11
52.96
21
30.11
0
LINE
8
BLACK
6
CONTINUOUS
10
52.96
20
30.11
11
45.76
21
30.11
0
LINE
8
BLACK
6
CONTINUOUS
10
72.3923
20
28.2523
11
72.385
21
28.27
0
LINE
8
BLACK
6
CONTINUOUS
10
72.385
20
28.27
11
72.385
21
32.77
0
LINE
8
BLACK
6
CONTINUOUS
10
72.385
20
32.77
11
72.3923
21
32.7877
0
LINE
8
BLACK
6
CONTINUOUS
10
72.3923
20
32.7877
11
72.41
21
32.795
0
LINE
8
BLACK
6
CONTINUOUS
10
72.41
20
32.795
11
77.26
21
32.795
0
LINE
8
BLACK
6
CONTINUOUS
10
77.26
20
32.795
11
77.2777
21
32.7877
0
LINE
8
BLACK
6
CONTINUOUS
10
77.2777
20
32.7877
11
77.285
21
32.77
0
LINE
8
BLACK
6
CONTINUOUS
10
77.285
20
32.77
11
77.285
21
28.27
0
LINE
8
BLACK
6
CONTINUOUS
10
77.285
20
28.27
11
77.2777
21
28.2523
0
LINE
8
BLACK
6
CONTINUOUS
10
77.2777
20
28.2523
11
77.26
21
28.245
0
LINE
8
BLACK
6
CONTINUOUS
10
77.26
20
28.245
11
72.41
21
28.245
0
LINE
8
BLACK
6
CONTINUOUS
10
72.41
20
28.245
11
72.3923
21
28.2523
0
LINE
8
BLACK
6
CONTINUOUS
10
72.435
20
32.745
11
72.435
21
28.295
0
LINE
8
BLACK
6
CONTINUOUS
10
72.435
20
28.295
11
77.235
21
28.295
0
LINE
8
BLACK
6
CONTINUOUS
10
77.235
20
28.295
11
77.235
21
32.745
0
LINE
8
BLACK
6
CONTINUOUS
10
77.235
20
32.745
11
72.435
21
32.745
0
LINE
8
BLACK
6
CONTINUOUS
10
45.7473
20
32.1573
11
45.74
21
32.175
0
LINE
8
BLACK
6
CONTINUOUS
10
45.74
20
32.175
11
45.74
21
37.225
0
LINE
8
BLACK
6
CONTINUOUS
10
45.74
20
37.225
11
45.7473
21
37.2427
0
LINE
8
BLACK
6
CONTINUOUS
10
45.7473
20
37.2427
11
45.765
21
37.25
0
LINE
8
BLACK
6
CONTINUOUS
10
45.765
20
37.25
11
53.015
21
37.25
0
LINE
8
BLACK
6
CONTINUOUS
10
53.015
20
37.25
11
53.0327
21
37.2427
0
LINE
8
BLACK
6
CONTINUOUS
10
53.0327
20
37.2427
11
53.04
21
37.225
0
LINE
8
BLACK
6
CONTINUOUS
10
53.04
20
37.225
11
53.04
21
32.175
0
LINE
8
BLACK
6
CONTINUOUS
10
53.04
20
32.175
11
53.0327
21
32.1573
0
LINE
8
BLACK
6
CONTINUOUS
10
53.0327
20
32.1573
11
53.015
21
32.15
0
LINE
8
BLACK
6
CONTINUOUS
10
53.015
20
32.15
11
45.765
21
32.15
0
LINE
8
BLACK
6
CONTINUOUS
10
45.765
20
32.15
11
45.7473
21
32.1573
0
LINE
8
BLACK
6
CONTINUOUS
10
45.79
20
37.2
11
45.79
21
32.2
0
LINE
8
BLACK
6
CONTINUOUS
10
45.79
20
32.2
11
52.99
21
32.2
0
LINE
8
BLACK
6
CONTINUOUS
10
52.99
20
32.2
11
52.99
21
37.2
0
LINE
8
BLACK
6
CONTINUOUS
10
52.99
20
37.2
11
45.79
21
37.2
0
LINE
8
BLACK
6
CONTINUOUS
10
72.3923
20
32.8273
11
72.385
21
32.845
0
LINE
8
BLACK
6
CONTINUOUS
10
72.385
20
32.845
11
72.385
21
37.345
0
LINE
8
BLACK
6
CONTINUOUS
10
72.385
20
37.345
11
72.3923
21
37.3627
0
LINE
8
BLACK
6
CONTINUOUS
10
72.3923
20
37.3627
11
72.41
21
37.37
0
LINE
8
BLACK
6
CONTINUOUS
10
72.41
20
37.37
11
77.26
21
37.37
0
LINE
8
BLACK
6
CONTINUOUS
10
77.26
20
37.37
11
77.2777
21
37.3627
0
LINE
8
BLACK
6
CONTINUOUS
10
77.2777
20
37.3627
11
77.285
21
37.345
0
LINE
8
BLACK
6
CONTINUOUS
10
77.285
20
37.345
11
77.285
21
32.845
0
LINE
8
BLACK
6
CONTINUOUS
10
77.285
20
32.845
11
77.2777
21
32.8273
0
LINE
8
BLACK
6
CONTINUOUS
10
77.2777
20
32.8273
11
77.26
21
32.82
0
LINE
8
BLACK
6
CONTINUOUS
10
77.26
20
32.82
11
72.41
21
32.82
0
LINE
8
BLACK
6
CONTINUOUS
10
72.41
20
32.82
11
72.3923
21
32.8273
0
LINE
8
BLACK
6
CONTINUOUS
10
72.435
20
37.32
11
72.435
21
32.87
0
LINE
8
BLACK
6
CONTINUOUS
10
72.435
20
32.87
11
77.235
21
32.87
0
LINE
8
BLACK
6
CONTINUOUS
10
77.235
20
32.87
11
77.235
21
37.32
0
LINE
8
BLACK
6
CONTINUOUS
10
77.235
20
37.32
11
72.435
21
37.32
0
LINE
8
BLACK
6
CONTINUOUS
10
72.4423
20
37.3773
11
72.435
21
37.395
0
LINE
8
BLACK
6
CONTINUOUS
10
72.435
20
37.395
11
72.435
21
41.895
0
LINE
8
BLACK
6
CONTINUOUS
10
72.435
20
41.895
11
72.4423
21
41.9127
0
LINE
8
BLACK
6
CONTINUOUS
10
72.4423
20
41.9127
11
72.46
21
41.92
0
LINE
8
BLACK
6
CONTINUOUS
10
72.46
20
41.92
11
77.31
21
41.92
0
LINE
8
BLACK
6
CONTINUOUS
10
77.31
20
41.92
11
77.3277
21
41.9127
0
LINE
8
BLACK
6
CONTINUOUS
10
77.3277
20
41.9127
11
77.335
21
41.895
0
LINE
8
BLACK
6
CONTINUOUS
10
77.335
20
41.895
11
77.335
21
37.395
0
LINE
8
BLACK
6
CONTINUOUS
10
77.335
20
37.395
11
77.3277
21
37.3773
0
LINE
8
BLACK
6
CONTINUOUS
10
77.3277
20
37.3773
11
77.31
21
37.37
0
LINE
8
BLACK
6
CONTINUOUS
10
77.31
20
37.37
11
72.46
21
37.37
0
LINE
8
BLACK
6
CONTINUOUS
10
72.46
20
37.37
11
72.4423
21
37.3773
0
LINE
8
BLACK
6
CONTINUOUS
10
72.485
20
41.87
11
72.485
21
37.42
0
LINE
8
BLACK
6
CONTINUOUS
10
72.485
20
37.42
11
77.285
21
37.42
0
LINE
8
BLACK
6
CONTINUOUS
10
77.285
20
37.42
11
77.285
21
41.87
0
LINE
8
BLACK
6
CONTINUOUS
10
77.285
20
41.87
11
72.485
21
41.87
0
LINE
8
BLACK
6
CONTINUOUS
10
44.4523
20
39.2823
11
44.445
21
39.3
0
LINE
8
BLACK
6
CONTINUOUS
10
44.445
20
39.3
11
44.445
21
41.8
0
LINE
8
BLACK
6
CONTINUOUS
10
44.445
20
41.8
11
44.4523
21
41.8177
0
LINE
8
BLACK
6
CONTINUOUS
10
44.4523
20
41.8177
11
44.47
21
41.825
0
LINE
8
BLACK
6
CONTINUOUS
10
44.47
20
41.825
11
54.19
21
41.825
0
LINE
8
BLACK
6
CONTINUOUS
10
54.19
20
41.825
11
54.2077
21
41.8177
0
LINE
8
BLACK
6
CONTINUOUS
10
54.2077
20
41.8177
11
54.215
21
41.8
0
LINE
8
BLACK
6
CONTINUOUS
10
54.215
20
41.8
11
54.215
21
39.3
0
LINE
8
BLACK
6
CONTINUOUS
10
54.215
20
39.3
11
54.2077
21
39.2823
0
LINE
8
BLACK
6
CONTINUOUS
10
54.2077
20
39.2823
11
54.19
21
39.275
0
LINE
8
BLACK
6
CONTINUOUS
10
54.19
20
39.275
11
44.47
21
39.275
0
LINE
8
BLACK
6
CONTINUOUS
10
44.47
20
39.275
11
44.4523
21
39.2823
0
LINE
8
BLACK
6
CONTINUOUS
10
44.495
20
41.775
11
44.495
21
39.325
0
LINE
8
BLACK
6
CONTINUOUS
10
44.495
20
39.325
11
54.165
21
39.325
0
LINE
8
BLACK
6
CONTINUOUS
10
54.165
20
39.325
11
54.165
21
41.775
0
LINE
8
BLACK
6
CONTINUOUS
10
54.165
20
41.775
11
44.495
21
41.775
0
LINE
8
BLACK
6
CONTINUOUS
10
72.4173
20
41.9523
11
72.41
21
41.97
0
LINE
8
BLACK
6
CONTINUOUS
10
72.41
20
41.97
11
72.41
21
46.47
0
LINE
8
BLACK
6
CONTINUOUS
10
72.41
20
46.47
11
72.4173
21
46.4877
0
LINE
8
BLACK
6
CONTINUOUS
10
72.4173
20
46.4877
11
72.435
21
46.495
0
LINE
8
BLACK
6
CONTINUOUS
10
72.435
20
46.495
11
77.285
21
46.495
0
LINE
8
BLACK
6
CONTINUOUS
10
77.285
20
46.495
11
77.3027
21
46.4877
0
LINE
8
BLACK
6
CONTINUOUS
10
77.3027
20
46.4877
11
77.31
21
46.47
0
LINE
8
BLACK
6
CONTINUOUS
10
77.31
20
46.47
11
77.31
21
41.97
0
LINE
8
BLACK
6
CONTINUOUS
10
77.31
20
41.97
11
77.3027
21
41.9523
0
LINE
8
BLACK
6
CONTINUOUS
10
77.3027
20
41.9523
11
77.285
21
41.945
0
LINE
8
BLACK
6
CONTINUOUS
10
77.285
20
41.945
11
72.435
21
41.945
0
LINE
8
BLACK
6
CONTINUOUS
10
72.435
20
41.945
11
72.4173
21
41.9523
0
LINE
8
BLACK
6
CONTINUOUS
10
72.46
20
46.445
11
72.46
21
41.995
0
LINE
8
BLACK
6
CONTINUOUS
10
72.46
20
41.995
11
77.26
21
41.995
0
LINE
8
BLACK
6
CONTINUOUS
10
77.26
20
41.995
11
77.26
21
46.445
0
LINE
8
BLACK
6
CONTINUOUS
10
77.26
20
46.445
11
72.46
21
46.445
0
LINE
8
BLACK
6
CONTINUOUS
10
57.6323
20
47.3823
11
57.625
21
47.4
0
LINE
8
BLACK
6
CONTINUOUS
10
57.625
20
47.4
11
57.625
21
50.5
0
LINE
8
BLACK
6
CONTINUOUS
10
57.625
20
50.5
11
57.6323
21
50.5177
0
LINE
8
BLACK
6
CONTINUOUS
10
57.6323
20
50.5177
11
57.65
21
50.525
0
LINE
8
BLACK
6
CONTINUOUS
10
57.65
20
50.525
11
62.5
21
50.525
0
LINE
8
BLACK
6
CONTINUOUS
10
62.5
20
50.525
11
62.5177
21
50.5177
0
LINE
8
BLACK
6
CONTINUOUS
10
62.5177
20
50.5177
11
62.525
21
50.5
0
LINE
8
BLACK
6
CONTINUOUS
10
62.525
20
50.5
11
62.525
21
47.4
0
LINE
8
BLACK
6
CONTINUOUS
10
62.525
20
47.4
11
62.5177
21
47.3823
0
LINE
8
BLACK
6
CONTINUOUS
10
62.5177
20
47.3823
11
62.5
21
47.375
0
LINE
8
BLACK
6
CONTINUOUS
10
62.5
20
47.375
11
57.65
21
47.375
0
LINE
8
BLACK
6
CONTINUOUS
10
57.65
20
47.375
11
57.6323
21
47.3823
0
LINE
8
BLACK
6
CONTINUOUS
10
57.675
20
50.475
11
57.675
21
47.425
0
LINE
8
BLACK
6
CONTINUOUS
10
57.675
20
47.425
11
62.475
21
47.425
0
LINE
8
BLACK
6
CONTINUOUS
10
62.475
20
47.425
11
62.475
21
50.475
0
LINE
8
BLACK
6
CONTINUOUS
10
62.475
20
50.475
11
57.675
21
50.475
0
LINE
8
BLACK
6
CONTINUOUS
10
35.5873
20
47.6573
11
35.58
21
47.675
0
LINE
8
BLACK
6
CONTINUOUS
10
35.58
20
47.675
11
35.58
21
54.975
0
LINE
8
BLACK
6
CONTINUOUS
10
35.58
20
54.975
11
35.5873
21
54.9927
0
LINE
8
BLACK
6
CONTINUOUS
10
35.5873
20
54.9927
11
35.605
21
55
0
LINE
8
BLACK
6
CONTINUOUS
10
35.605
20
55
11
45.405
21
55
0
LINE
8
BLACK
6
CONTINUOUS
10
45.405
20
55
11
45.4227
21
54.9927
0
LINE
8
BLACK
6
CONTINUOUS
10
45.4227
20
54.9927
11
45.43
21
54.975
0
LINE
8
BLACK
6
CONTINUOUS
10
45.43
20
54.975
11
45.43
21
47.675
0
LINE
8
BLACK
6
CONTINUOUS
10
45.43
20
47.675
11
45.4227
21
47.6573
0
LINE
8
BLACK
6
CONTINUOUS
10
45.4227
20
47.6573
11
45.405
21
47.65
0
LINE
8
BLACK
6
CONTINUOUS
10
45.405
20
47.65
11
35.605
21
47.65
0
LINE
8
BLACK
6
CONTINUOUS
10
35.605
20
47.65
11
35.5873
21
47.6573
0
LINE
8
BLACK
6
CONTINUOUS
10
35.63
20
54.95
11
35.63
21
47.7
0
LINE
8
BLACK
6
CONTINUOUS
10
35.63
20
47.7
11
45.38
21
47.7
0
LINE
8
BLACK
6
CONTINUOUS
10
45.38
20
47.7
11
45.38
21
54.95
0
LINE
8
BLACK
6
CONTINUOUS
10
45.38
20
54.95
11
35.63
21
54.95
0
LINE
8
BLACK
6
CONTINUOUS
10
54.0823
20
54.0023
11
54.075
21
54.02
0
LINE
8
BLACK
6
CONTINUOUS
10
54.075
20
54.02
11
54.075
21
78.95
0
LINE
8
BLACK
6
CONTINUOUS
10
54.075
20
78.95
11
54.0823
21
78.9677
0
LINE
8
BLACK
6
CONTINUOUS
10
54.0823
20
78.9677
11
54.1
21
78.975
0
LINE
8
BLACK
6
CONTINUOUS
10
54.1
20
78.975
11
69.16
21
78.975
0
LINE
8
BLACK
6
CONTINUOUS
10
69.16
20
78.975
11
69.1777
21
78.9677
0
LINE
8
BLACK
6
CONTINUOUS
10
69.1777
20
78.9677
11
69.185
21
78.95
0
LINE
8
BLACK
6
CONTINUOUS
10
69.185
20
78.95
11
69.185
21
54.02
0
LINE
8
BLACK
6
CONTINUOUS
10
69.185
20
54.02
11
69.1777
21
54.0023
0
LINE
8
BLACK
6
CONTINUOUS
10
69.1777
20
54.0023
11
69.16
21
53.995
0
LINE
8
BLACK
6
CONTINUOUS
10
69.16
20
53.995
11
54.1
21
53.995
0
LINE
8
BLACK
6
CONTINUOUS
10
54.1
20
53.995
11
54.0823
21
54.0023
0
LINE
8
BLACK
6
CONTINUOUS
10
54.125
20
78.925
11
54.125
21
54.045
0
LINE
8
BLACK
6
CONTINUOUS
10
54.125
20
54.045
11
69.135
21
54.045
0
LINE
8
BLACK
6
CONTINUOUS
10
69.135
20
54.045
11
69.135
21
78.925
0
LINE
8
BLACK
6
CONTINUOUS
10
69.135
20
78.925
11
54.125
21
78.925
0
LINE
8
BLACK
6
CONTINUOUS
10
69.4873
20
54.0823
11
69.48
21
54.1
0
LINE
8
BLACK
6
CONTINUOUS
10
69.48
20
54.1
11
69.48
21
69.75
0
LINE
8
BLACK
6
CONTINUOUS
10
69.48
20
69.75
11
69.4873
21
69.7677
0
LINE
8
BLACK
6
CONTINUOUS
10
69.4873
20
69.7677
11
69.505
21
69.775
0
LINE
8
BLACK
6
CONTINUOUS
10
69.505
20
69.775
11
78.005
21
69.775
0
LINE
8
BLACK
6
CONTINUOUS
10
78.005
20
69.775
11
78.0227
21
69.7677
0
LINE
8
BLACK
6
CONTINUOUS
10
78.0227
20
69.7677
11
78.03
21
69.75
0
LINE
8
BLACK
6
CONTINUOUS
10
78.03
20
69.75
11
78.03
21
54.1
0
LINE
8
BLACK
6
CONTINUOUS
10
78.03
20
54.1
11
78.0227
21
54.0823
0
LINE
8
BLACK
6
CONTINUOUS
10
78.0227
20
54.0823
11
78.005
21
54.075
0
LINE
8
BLACK
6
CONTINUOUS
10
78.005
20
54.075
11
69.505
21
54.075
0
LINE
8
BLACK
6
CONTINUOUS
10
69.505
20
54.075
11
69.4873
21
54.0823
0
LINE
8
BLACK
6
CONTINUOUS
10
69.53
20
69.725
11
69.53
21
54.125
0
LINE
8
BLACK
6
CONTINUOUS
10
69.53
20
54.125
11
77.98
21
54.125
0
LINE
8
BLACK
6
CONTINUOUS
10
77.98
20
54.125
11
77.98
21
69.725
0
LINE
8
BLACK
6
CONTINUOUS
10
77.98
20
69.725
11
69.53
21
69.725
0
LINE
8
BLACK
6
CONTINUOUS
10
53.455
20
68.825
11
53.455
21
60.325
0
LINE
8
BLACK
6
CONTINUOUS
10
53.455
20
60.325
11
53.4477
21
60.3073
0
LINE
8
BLACK
6
CONTINUOUS
10
53.4477
20
60.3073
11
53.43
21
60.3
0
LINE
8
BLACK
6
CONTINUOUS
10
53.43
20
60.3
11
38.93
21
60.3
0
LINE
8
BLACK
6
CONTINUOUS
10
38.93
20
60.3
11
38.9123
21
60.3073
0
LINE
8
BLACK
6
CONTINUOUS
10
38.9123
20
60.3073
11
38.905
21
60.325
0
LINE
8
BLACK
6
CONTINUOUS
10
38.905
20
60.325
11
38.905
21
68.825
0
LINE
8
BLACK
6
CONTINUOUS
10
38.905
20
68.825
11
38.9123
21
68.8427
0
LINE
8
BLACK
6
CONTINUOUS
10
38.9123
20
68.8427
11
38.93
21
68.85
0
LINE
8
BLACK
6
CONTINUOUS
10
38.93
20
68.85
11
41.405
21
68.85
0
LINE
8
BLACK
6
CONTINUOUS
10
41.405
20
68.85
11
41.405
21
77.075
0
LINE
8
BLACK
6
CONTINUOUS
10
41.405
20
77.075
11
41.4123
21
77.0927
0
LINE
8
BLACK
6
CONTINUOUS
10
41.4123
20
77.0927
11
41.43
21
77.1
0
LINE
8
BLACK
6
CONTINUOUS
10
41.43
20
77.1
11
50.93
21
77.1
0
LINE
8
BLACK
6
CONTINUOUS
10
50.93
20
77.1
11
50.9477
21
77.0927
0
LINE
8
BLACK
6
CONTINUOUS
10
50.9477
20
77.0927
11
50.955
21
77.075
0
LINE
8
BLACK
6
CONTINUOUS
10
50.955
20
77.075
11
50.955
21
68.85
0
LINE
8
BLACK
6
CONTINUOUS
10
50.955
20
68.85
11
53.43
21
68.85
0
LINE
8
BLACK
6
CONTINUOUS
10
53.43
20
68.85
11
53.4477
21
68.8427
0
LINE
8
BLACK
6
CONTINUOUS
10
53.4477
20
68.8427
11
53.455
21
68.825
0
LINE
8
BLACK
6
CONTINUOUS
10
38.955
20
60.35
11
53.405
21
60.35
0
LINE
8
BLACK
6
CONTINUOUS
10
53.405
20
60.35
11
53.405
21
68.8
0
LINE
8
BLACK
6
CONTINUOUS
10
53.405
20
68.8
11
50.93
21
68.8
0
LINE
8
BLACK
6
CONTINUOUS
10
50.93
20
68.8
11
50.9123
21
68.8073
0
LINE
8
BLACK
6
CONTINUOUS
10
50.9123
20
68.8073
11
50.905
21
68.825
0
LINE
8
BLACK
6
CONTINUOUS
10
50.905
20
68.825
11
50.905
21
77.05
0
LINE
8
BLACK
6
CONTINUOUS
10
50.905
20
77.05
11
41.455
21
77.05
0
LINE
8
BLACK
6
CONTINUOUS
10
41.455
20
77.05
11
41.455
21
68.825
0
LINE
8
BLACK
6
CONTINUOUS
10
41.455
20
68.825
11
41.4477
21
68.8073
0
LINE
8
BLACK
6
CONTINUOUS
10
41.4477
20
68.8073
11
41.43
21
68.8
0
LINE
8
BLACK
6
CONTINUOUS
10
41.43
20
68.8
11
38.955
21
68.8
0
LINE
8
BLACK
6
CONTINUOUS
10
38.955
20
68.8
11
38.955
21
60.35
0
LINE
8
BLACK
6
CONTINUOUS
10
27.5448
20
62.5073
11
27.5375
21
62.525
0
LINE
8
BLACK
6
CONTINUOUS
10
27.5375
20
62.525
11
27.5375
21
67.925
0
LINE
8
BLACK
6
CONTINUOUS
10
27.5375
20
67.925
11
27.5448
21
67.9427
0
LINE
8
BLACK
6
CONTINUOUS
10
27.5448
20
67.9427
11
27.5625
21
67.95
0
LINE
8
BLACK
6
CONTINUOUS
10
27.5625
20
67.95
11
37.8625
21
67.95
0
LINE
8
BLACK
6
CONTINUOUS
10
37.8625
20
67.95
11
37.8802
21
67.9427
0
LINE
8
BLACK
6
CONTINUOUS
10
37.8802
20
67.9427
11
37.8875
21
67.925
0
LINE
8
BLACK
6
CONTINUOUS
10
37.8875
20
67.925
11
37.8875
21
62.525
0
LINE
8
BLACK
6
CONTINUOUS
10
37.8875
20
62.525
11
37.8802
21
62.5073
0
LINE
8
BLACK
6
CONTINUOUS
10
37.8802
20
62.5073
11
37.8625
21
62.5
0
LINE
8
BLACK
6
CONTINUOUS
10
37.8625
20
62.5
11
27.5625
21
62.5
0
LINE
8
BLACK
6
CONTINUOUS
10
27.5625
20
62.5
11
27.5448
21
62.5073
0
LINE
8
BLACK
6
CONTINUOUS
10
27.5875
20
67.9
11
27.5875
21
62.55
0
LINE
8
BLACK
6
CONTINUOUS
10
27.5875
20
62.55
11
37.8375
21
62.55
0
LINE
8
BLACK
6
CONTINUOUS
10
37.8375
20
62.55
11
37.8375
21
67.9
0
LINE
8
BLACK
6
CONTINUOUS
10
37.8375
20
67.9
11
27.5875
21
67.9
0
LINE
8
BLACK
6
CONTINUOUS
10
35.2909
20
22.6925
11
35.3851
21
23.0438
0
LINE
8
BLACK
6
CONTINUOUS
10
35.3851
20
23.0438
11
35.5154
21
23.3834
0
LINE
8
BLACK
6
CONTINUOUS
10
35.5154
20
23.3834
11
35.6806
21
23.7075
0
LINE
8
BLACK
6
CONTINUOUS
10
35.6806
20
23.7075
11
35.8787
21
24.0126
0
LINE
8
BLACK
6
CONTINUOUS
10
35.8787
20
24.0126
11
36.1076
21
24.2952
0
LINE
8
BLACK
6
CONTINUOUS
10
36.1076
20
24.2952
11
36.3648
21
24.5524
0
LINE
8
BLACK
6
CONTINUOUS
10
36.3648
20
24.5524
11
36.6474
21
24.7813
0
LINE
8
BLACK
6
CONTINUOUS
10
36.6474
20
24.7813
11
36.9525
21
24.9794
0
LINE
8
BLACK
6
CONTINUOUS
10
36.9525
20
24.9794
11
37.2766
21
25.1446
0
LINE
8
BLACK
6
CONTINUOUS
10
37.2766
20
25.1446
11
37.6162
21
25.2749
0
LINE
8
BLACK
6
CONTINUOUS
10
37.6162
20
25.2749
11
37.9675
21
25.3691
0
LINE
8
BLACK
6
CONTINUOUS
10
37.9675
20
25.3691
11
38.3268
21
25.426
0
LINE
8
BLACK
6
CONTINUOUS
10
38.3268
20
25.426
11
38.69
21
25.445
0
LINE
8
BLACK
6
CONTINUOUS
10
38.69
20
25.445
11
39.0532
21
25.426
0
LINE
8
BLACK
6
CONTINUOUS
10
39.0532
20
25.426
11
39.4125
21
25.3691
0
LINE
8
BLACK
6
CONTINUOUS
10
39.4125
20
25.3691
11
39.7638
21
25.2749
0
LINE
8
BLACK
6
CONTINUOUS
10
39.7638
20
25.2749
11
40.1034
21
25.1446
0
LINE
8
BLACK
6
CONTINUOUS
10
40.1034
20
25.1446
11
40.4275
21
24.9794
0
LINE
8
BLACK
6
CONTINUOUS
10
40.4275
20
24.9794
11
40.7326
21
24.7813
0
LINE
8
BLACK
6
CONTINUOUS
10
40.7326
20
24.7813
11
41.0152
21
24.5524
0
LINE
8
BLACK
6
CONTINUOUS
10
41.0152
20
24.5524
11
41.2724
21
24.2952
0
LINE
8
BLACK
6
CONTINUOUS
10
41.2724
20
24.2952
11
41.5013
21
24.0126
0
LINE
8
BLACK
6
CONTINUOUS
10
41.5013
20
24.0126
11
41.6994
21
23.7075
0
LINE
8
BLACK
6
CONTINUOUS
10
41.6994
20
23.7075
11
41.8646
21
23.3834
0
LINE
8
BLACK
6
CONTINUOUS
10
41.8646
20
23.3834
11
41.9949
21
23.0438
0
LINE
8
BLACK
6
CONTINUOUS
10
41.9949
20
23.0438
11
42.0891
21
22.6925
0
LINE
8
BLACK
6
CONTINUOUS
10
42.0891
20
22.6925
11
42.146
21
22.3332
0
LINE
8
BLACK
6
CONTINUOUS
10
42.146
20
22.3332
11
42.165
21
21.97
0
LINE
8
BLACK
6
CONTINUOUS
10
42.165
20
21.97
11
42.146
21
21.6068
0
LINE
8
BLACK
6
CONTINUOUS
10
42.146
20
21.6068
11
42.0891
21
21.2475
0
LINE
8
BLACK
6
CONTINUOUS
10
42.0891
20
21.2475
11
41.9949
21
20.8962
0
LINE
8
BLACK
6
CONTINUOUS
10
41.9949
20
20.8962
11
41.8646
21
20.5566
0
LINE
8
BLACK
6
CONTINUOUS
10
41.8646
20
20.5566
11
41.6994
21
20.2325
0
LINE
8
BLACK
6
CONTINUOUS
10
41.6994
20
20.2325
11
41.5013
21
19.9274
0
LINE
8
BLACK
6
CONTINUOUS
10
41.5013
20
19.9274
11
41.2724
21
19.6448
0
LINE
8
BLACK
6
CONTINUOUS
10
41.2724
20
19.6448
11
41.0152
21
19.3876
0
LINE
8
BLACK
6
CONTINUOUS
10
41.0152
20
19.3876
11
40.7326
21
19.1587
0
LINE
8
BLACK
6
CONTINUOUS
10
40.7326
20
19.1587
11
40.4275
21
18.9606
0
LINE
8
BLACK
6
CONTINUOUS
10
40.4275
20
18.9606
11
40.1034
21
18.7954
0
LINE
8
BLACK
6
CONTINUOUS
10
40.1034
20
18.7954
11
39.7638
21
18.6651
0
LINE
8
BLACK
6
CONTINUOUS
10
39.7638
20
18.6651
11
39.4125
21
18.5709
0
LINE
8
BLACK
6
CONTINUOUS
10
39.4125
20
18.5709
11
39.0532
21
18.514
0
LINE
8
BLACK
6
CONTINUOUS
10
39.0532
20
18.514
11
38.69
21
18.495
0
LINE
8
BLACK
6
CONTINUOUS
10
38.69
20
18.495
11
38.3268
21
18.514
0
LINE
8
BLACK
6
CONTINUOUS
10
38.3268
20
18.514
11
37.9675
21
18.5709
0
LINE
8
BLACK
6
CONTINUOUS
10
37.9675
20
18.5709
11
37.6162
21
18.6651
0
LINE
8
BLACK
6
CONTINUOUS
10
37.6162
20
18.6651
11
37.2766
21
18.7954
0
LINE
8
BLACK
6
CONTINUOUS
10
37.2766
20
18.7954
11
36.9525
21
18.9606
0
LINE
8
BLACK
6
CONTINUOUS
10
36.9525
20
18.9606
11
36.6474
21
19.1587
0
LINE
8
BLACK
6
CONTINUOUS
10
36.6474
20
19.1587
11
36.3648
21
19.3876
0
LINE
8
BLACK
6
CONTINUOUS
10
36.3648
20
19.3876
11
36.1076
21
19.6448
0
LINE
8
BLACK
6
CONTINUOUS
10
36.1076
20
19.6448
11
35.8787
21
19.9274
0
LINE
8
BLACK
6
CONTINUOUS
10
35.8787
20
19.9274
11
35.6806
21
20.2325
0
LINE
8
BLACK
6
CONTINUOUS
10
35.6806
20
20.2325
11
35.5154
21
20.5566
0
LINE
8
BLACK
6
CONTINUOUS
10
35.5154
20
20.5566
11
35.3851
21
20.8962
0
LINE
8
BLACK
6
CONTINUOUS
10
35.3851
20
20.8962
11
35.2909
21
21.2475
0
LINE
8
BLACK
6
CONTINUOUS
10
35.2909
20
21.2475
11
35.234
21
21.6068
0
LINE
8
BLACK
6
CONTINUOUS
10
35.234
20
21.6068
11
35.215
21
21.97
0
LINE
8
BLACK
6
CONTINUOUS
10
35.215
20
21.97
11
35.2156
21
21.982
0
LINE
8
BLACK
6
CONTINUOUS
10
35.2156
20
21.982
11
35.234
21
22.3332
0
LINE
8
BLACK
6
CONTINUOUS
10
35.234
20
22.3332
11
35.2909
21
22.6925
0
LINE
8
BLACK
6
CONTINUOUS
10
35.3374
20
21.2451
11
35.4353
21
20.8873
0
LINE
8
BLACK
6
CONTINUOUS
10
35.4353
20
20.8873
11
35.5713
21
20.5421
0
LINE
8
BLACK
6
CONTINUOUS
10
35.5713
20
20.5421
11
35.7437
21
20.2137
0
LINE
8
BLACK
6
CONTINUOUS
10
35.7437
20
20.2137
11
35.9507
21
19.9058
0
LINE
8
BLACK
6
CONTINUOUS
10
35.9507
20
19.9058
11
36.1896
21
19.622
0
LINE
8
BLACK
6
CONTINUOUS
10
36.1896
20
19.622
11
36.4578
21
19.3657
0
LINE
8
BLACK
6
CONTINUOUS
10
36.4578
20
19.3657
11
36.7521
21
19.1398
0
LINE
8
BLACK
6
CONTINUOUS
10
36.7521
20
19.1398
11
37.0691
21
18.9471
0
LINE
8
BLACK
6
CONTINUOUS
10
37.0691
20
18.9471
11
37.4051
21
18.7897
0
LINE
8
BLACK
6
CONTINUOUS
10
37.4051
20
18.7897
11
37.7561
21
18.6696
0
LINE
8
BLACK
6
CONTINUOUS
10
37.7561
20
18.6696
11
38.118
21
18.588
0
LINE
8
BLACK
6
CONTINUOUS
10
38.118
20
18.588
11
38.4866
21
18.546
0
LINE
8
BLACK
6
CONTINUOUS
10
38.4866
20
18.546
11
38.8576
21
18.5441
0
LINE
8
BLACK
6
CONTINUOUS
10
38.8576
20
18.5441
11
39.2266
21
18.5822
0
LINE
8
BLACK
6
CONTINUOUS
10
39.2266
20
18.5822
11
39.5893
21
18.66
0
LINE
8
BLACK
6
CONTINUOUS
10
39.5893
20
18.66
11
39.9415
21
18.7765
0
LINE
8
BLACK
6
CONTINUOUS
10
39.9415
20
18.7765
11
40.2791
21
18.9303
0
LINE
8
BLACK
6
CONTINUOUS
10
40.2791
20
18.9303
11
40.5981
21
19.1197
0
LINE
8
BLACK
6
CONTINUOUS
10
40.5981
20
19.1197
11
40.8948
21
19.3424
0
LINE
8
BLACK
6
CONTINUOUS
10
40.8948
20
19.3424
11
41.1657
21
19.5959
0
LINE
8
BLACK
6
CONTINUOUS
10
41.1657
20
19.5959
11
41.4076
21
19.8772
0
LINE
8
BLACK
6
CONTINUOUS
10
41.4076
20
19.8772
11
41.6177
21
20.1829
0
LINE
8
BLACK
6
CONTINUOUS
10
41.6177
20
20.1829
11
41.7936
21
20.5096
0
LINE
8
BLACK
6
CONTINUOUS
10
41.7936
20
20.5096
11
41.9332
21
20.8533
0
LINE
8
BLACK
6
CONTINUOUS
10
41.9332
20
20.8533
11
42.0348
21
21.2101
0
LINE
8
BLACK
6
CONTINUOUS
10
42.0348
20
21.2101
11
42.0973
21
21.5758
0
LINE
8
BLACK
6
CONTINUOUS
10
42.0973
20
21.5758
11
42.1199
21
21.9461
0
LINE
8
BLACK
6
CONTINUOUS
10
42.1199
20
21.9461
11
42.12
21
21.97
0
LINE
8
BLACK
6
CONTINUOUS
10
42.12
20
21.97
11
42.1
21
22.3404
0
LINE
8
BLACK
6
CONTINUOUS
10
42.1
20
22.3404
11
42.04
21
22.7065
0
LINE
8
BLACK
6
CONTINUOUS
10
42.04
20
22.7065
11
41.9409
21
23.064
0
LINE
8
BLACK
6
CONTINUOUS
10
41.9409
20
23.064
11
41.8037
21
23.4087
0
LINE
8
BLACK
6
CONTINUOUS
10
41.8037
20
23.4087
11
41.6301
21
23.7366
0
LINE
8
BLACK
6
CONTINUOUS
10
41.6301
20
23.7366
11
41.4221
21
24.0438
0
LINE
8
BLACK
6
CONTINUOUS
10
41.4221
20
24.0438
11
41.1822
21
24.3267
0
LINE
8
BLACK
6
CONTINUOUS
10
41.1822
20
24.3267
11
40.9131
21
24.5821
0
LINE
8
BLACK
6
CONTINUOUS
10
40.9131
20
24.5821
11
40.618
21
24.8069
0
LINE
8
BLACK
6
CONTINUOUS
10
40.618
20
24.8069
11
40.3003
21
24.9985
0
LINE
8
BLACK
6
CONTINUOUS
10
40.3003
20
24.9985
11
39.9638
21
25.1547
0
LINE
8
BLACK
6
CONTINUOUS
10
39.9638
20
25.1547
11
39.6124
21
25.2737
0
LINE
8
BLACK
6
CONTINUOUS
10
39.6124
20
25.2737
11
39.2502
21
25.354
0
LINE
8
BLACK
6
CONTINUOUS
10
39.2502
20
25.354
11
38.8815
21
25.3947
0
LINE
8
BLACK
6
CONTINUOUS
10
38.8815
20
25.3947
11
38.5105
21
25.3953
0
LINE
8
BLACK
6
CONTINUOUS
10
38.5105
20
25.3953
11
38.1416
21
25.3559
0
LINE
8
BLACK
6
CONTINUOUS
10
38.1416
20
25.3559
11
37.7791
21
25.2769
0
LINE
8
BLACK
6
CONTINUOUS
10
37.7791
20
25.2769
11
37.4273
21
25.1592
0
LINE
8
BLACK
6
CONTINUOUS
10
37.4273
20
25.1592
11
37.0903
21
25.0041
0
LINE
8
BLACK
6
CONTINUOUS
10
37.0903
20
25.0041
11
36.772
21
24.8136
0
LINE
8
BLACK
6
CONTINUOUS
10
36.772
20
24.8136
11
36.4761
21
24.5898
0
LINE
8
BLACK
6
CONTINUOUS
10
36.4761
20
24.5898
11
36.2061
21
24.3354
0
LINE
8
BLACK
6
CONTINUOUS
10
36.2061
20
24.3354
11
35.9651
21
24.0533
0
LINE
8
BLACK
6
CONTINUOUS
10
35.9651
20
24.0533
11
35.7561
21
23.7468
0
LINE
8
BLACK
6
CONTINUOUS
10
35.7561
20
23.7468
11
35.5813
21
23.4196
0
LINE
8
BLACK
6
CONTINUOUS
10
35.5813
20
23.4196
11
35.443
21
23.0754
0
LINE
8
BLACK
6
CONTINUOUS
10
35.443
20
23.0754
11
35.3426
21
22.7182
0
LINE
8
BLACK
6
CONTINUOUS
10
35.3426
20
22.7182
11
35.2813
21
22.3523
0
LINE
8
BLACK
6
CONTINUOUS
10
35.2813
20
22.3523
11
35.26
21
21.982
0
LINE
8
BLACK
6
CONTINUOUS
10
35.26
20
21.982
11
35.2788
21
21.6115
0
LINE
8
BLACK
6
CONTINUOUS
10
35.2788
20
21.6115
11
35.3374
21
21.2451
  0
ENDSEC
  0
EOF
