<?xml version="1.0" standalone="no"?>
 <!DOCTYPE svg PUBLIC "-//W3C//DTD SVG 1.1//EN" 
 "http://www.w3.org/Graphics/SVG/1.1/DTD/svg11.dtd"> 
<svg
  xmlns:svg="http://www.w3.org/2000/svg"
  xmlns="http://www.w3.org/2000/svg"
  xmlns:xlink="http://www.w3.org/1999/xlink"
  version="1.1"
  width="29.700220cm" height="21.000720cm" viewBox="0 0 116930 82680">
<title>SVG Picture created as smeter-PTH-drl-drl_map.svg date 2022/10/08 16:20:04 </title>
  <desc>Picture generated by PCBNEW </desc>
<g style="fill:#000000; fill-opacity:1.000000;stroke:#000000; stroke-opacity:1.000000;
stroke-linecap:round; stroke-linejoin:round;"
 transform="translate(0 0) scale(1 1)">
</g>
<g style="fill:#000000; fill-opacity:0.0; 
stroke:#000000; stroke-width:0.000000; stroke-opacity:1; 
stroke-linecap:round; stroke-linejoin:round;">
</g>
<g style="fill:#000000; fill-opacity:0.0; 
stroke:#000000; stroke-width:45.534389; stroke-opacity:1; 
stroke-linecap:round; stroke-linejoin:round;">
<path d="M81249 1991
L35680 1991
" />
<path d="M35680 1991
L35680 47616
" />
<path d="M35680 47616
L81249 47616
" />
<path d="M81249 47616
L81249 1991
" />
</g>
<g style="fill:#000000; fill-opacity:0.0; 
stroke:#000000; stroke-width:91.068778; stroke-opacity:1; 
stroke-linecap:round; stroke-linejoin:round;">
</g>
<g style="fill:#000000; fill-opacity:0.0; 
stroke:#000000; stroke-width:18.213756; stroke-opacity:1; 
stroke-linecap:round; stroke-linejoin:round;">
<path d="M36511 2605
L36693 2788
" />
<path d="M36693 2605
L36511 2788
" />
<path d="M36568 25782
L36750 25965
" />
<path d="M36750 25782
L36568 25965
" />
<path d="M36989 46466
L37171 46649
" />
<path d="M37171 46466
L36989 46649
" />
<path d="M41361 13591
L41543 13773
" />
<path d="M41543 13591
L41361 13773
" />
<path d="M43182 39875
L43364 40058
" />
<path d="M43364 39875
L43182 40058
" />
<path d="M46381 26158
L46563 26340
" />
<path d="M46563 26158
L46381 26340
" />
<path d="M46396 34796
L46578 34978
" />
<path d="M46578 34796
L46396 34978
" />
<path d="M47553 40194
L47735 40376
" />
<path d="M47735 40194
L47553 40376
" />
<path d="M50855 32715
L51037 32897
" />
<path d="M51037 32715
L50855 32897
" />
<path d="M52471 26090
L52653 26272
" />
<path d="M52653 26090
L52471 26272
" />
<path d="M54247 33170
L54429 33353
" />
<path d="M54429 33170
L54247 33353
" />
<path d="M54338 42687
L54520 42869
" />
<path d="M54520 42687
L54338 42869
" />
<path d="M56398 46535
L56581 46717
" />
<path d="M56581 46535
L56398 46717
" />
<path d="M56467 2776
L56649 2958
" />
<path d="M56649 2776
L56467 2958
" />
<path d="M57719 39454
L57901 39636
" />
<path d="M57901 39454
L57719 39636
" />
<path d="M58095 13534
L58277 13716
" />
<path d="M58277 13534
L58095 13716
" />
<path d="M58766 35584
L58948 35766
" />
<path d="M58948 35584
L58766 35766
" />
<path d="M58982 42687
L59165 42869
" />
<path d="M59165 42687
L58982 42869
" />
<path d="M60178 20444
L60360 20626
" />
<path d="M60360 20444
L60178 20626
" />
<path d="M61908 33318
L62090 33501
" />
<path d="M62090 33318
L61908 33501
" />
<path d="M63058 42960
L63240 43142
" />
<path d="M63240 42960
L63058 43142
" />
<path d="M63684 31577
L63866 31759
" />
<path d="M63866 31577
L63684 31759
" />
<path d="M64743 40308
L64925 40490
" />
<path d="M64925 40308
L64743 40490
" />
<path d="M65141 16585
L65323 16767
" />
<path d="M65323 16585
L65141 16767
" />
<path d="M66707 34589
L66889 34771
" />
<path d="M66889 34589
L66707 34771
" />
<path d="M69194 40410
L69376 40593
" />
<path d="M69376 40410
L69194 40593
" />
<path d="M72233 39898
L72415 40080
" />
<path d="M72415 39898
L72233 40080
" />
<path d="M72795 27121
L72977 27303
" />
<path d="M72977 27121
L72795 27303
" />
<path d="M73039 21862
L73221 22044
" />
<path d="M73221 21862
L73039 22044
" />
<path d="M74863 4848
L75045 5030
" />
<path d="M75045 4848
L74863 5030
" />
<path d="M77092 13961
L77274 14143
" />
<path d="M77274 13961
L77092 14143
" />
<path d="M77845 27911
L78027 28093
" />
<path d="M78027 27911
L77845 28093
" />
<path d="M80133 46318
L80315 46501
" />
<path d="M80315 46318
L80133 46501
" />
<path d="M80577 25771
L80759 25953
" />
<path d="M80759 25771
L80577 25953
" />
<path d="M80600 3084
L80782 3266
" />
<path d="M80782 3084
L80600 3266
" />
</g>
<g style="fill:#000000; fill-opacity:0.0; 
stroke:#000000; stroke-width:22.767194; stroke-opacity:1; 
stroke-linecap:round; stroke-linejoin:round;">
<circle cx="55920.766233" cy="28526.436360" r="113.835972" /> 
<circle cx="56240.847488" cy="27753.692280" r="113.835972" /> 
<circle cx="56240.847488" cy="29299.180440" r="113.835972" /> 
<circle cx="57013.591568" cy="27433.611025" r="113.835972" /> 
<circle cx="57013.591568" cy="29619.261695" r="113.835972" /> 
<circle cx="57786.335648" cy="27753.692280" r="113.835972" /> 
<circle cx="57786.335648" cy="29299.180440" r="113.835972" /> 
<circle cx="58106.416903" cy="28526.436360" r="113.835972" /> 
</g>
<g style="fill:#000000; fill-opacity:0.0; 
stroke:#000000; stroke-width:29.597353; stroke-opacity:1; 
stroke-linecap:round; stroke-linejoin:round;">
<path d="M70355 31670
L70355 31966
" />
<path d="M70207 31818
L70503 31818
" />
<path d="M70355 32248
L70355 32544
" />
<path d="M70207 32396
L70503 32396
" />
</g>
<g style="fill:#000000; fill-opacity:0.0; 
stroke:#000000; stroke-width:36.427511; stroke-opacity:1; 
stroke-linecap:round; stroke-linejoin:round;">
<path style="fill:#000000; fill-opacity:0.0; 
stroke:#000000; stroke-width:36.427511; stroke-opacity:1; 
stroke-linecap:round; stroke-linejoin:round;fill:none"
d="M 43081.364000,32582.569150
43081.364000,32324.985665
42823.780515,32324.985665
42823.780515,32582.569150
Z" /> 
<path style="fill:#000000; fill-opacity:0.0; 
stroke:#000000; stroke-width:36.427511; stroke-opacity:1; 
stroke-linecap:round; stroke-linejoin:round;fill:none"
d="M 47707.657918,32582.569150
47707.657918,32324.985665
47450.074433,32324.985665
47450.074433,32582.569150
Z" /> 
<path style="fill:#000000; fill-opacity:0.0; 
stroke:#000000; stroke-width:36.427511; stroke-opacity:1; 
stroke-linecap:round; stroke-linejoin:round;fill:none"
d="M 48433.931422,25046.627777
48433.931422,24789.044292
48176.347937,24789.044292
48176.347937,25046.627777
Z" /> 
<path style="fill:#000000; fill-opacity:0.0; 
stroke:#000000; stroke-width:36.427511; stroke-opacity:1; 
stroke-linecap:round; stroke-linejoin:round;fill:none"
d="M 48433.931422,26203.201257
48433.931422,25945.617772
48176.347937,25945.617772
48176.347937,26203.201257
Z" /> 
<path style="fill:#000000; fill-opacity:0.0; 
stroke:#000000; stroke-width:36.427511; stroke-opacity:1; 
stroke-linecap:round; stroke-linejoin:round;fill:none"
d="M 48433.931422,27359.774736
48433.931422,27102.191251
48176.347937,27102.191251
48176.347937,27359.774736
Z" /> 
<path style="fill:#000000; fill-opacity:0.0; 
stroke:#000000; stroke-width:36.427511; stroke-opacity:1; 
stroke-linecap:round; stroke-linejoin:round;fill:none"
d="M 51987.890480,34631.616653
51987.890480,34374.033168
51730.306995,34374.033168
51730.306995,34631.616653
Z" /> 
<path style="fill:#000000; fill-opacity:0.0; 
stroke:#000000; stroke-width:36.427511; stroke-opacity:1; 
stroke-linecap:round; stroke-linejoin:round;fill:none"
d="M 51987.890480,38101.337092
51987.890480,37843.753607
51730.306995,37843.753607
51730.306995,38101.337092
Z" /> 
<path style="fill:#000000; fill-opacity:0.0; 
stroke:#000000; stroke-width:36.427511; stroke-opacity:1; 
stroke-linecap:round; stroke-linejoin:round;fill:none"
d="M 53144.463960,34631.616653
53144.463960,34374.033168
52886.880475,34374.033168
52886.880475,34631.616653
Z" /> 
<path style="fill:#000000; fill-opacity:0.0; 
stroke:#000000; stroke-width:36.427511; stroke-opacity:1; 
stroke-linecap:round; stroke-linejoin:round;fill:none"
d="M 53144.463960,38101.337092
53144.463960,37843.753607
52886.880475,37843.753607
52886.880475,38101.337092
Z" /> 
<path style="fill:#000000; fill-opacity:0.0; 
stroke:#000000; stroke-width:36.427511; stroke-opacity:1; 
stroke-linecap:round; stroke-linejoin:round;fill:none"
d="M 54301.037439,34631.616653
54301.037439,34374.033168
54043.453954,34374.033168
54043.453954,34631.616653
Z" /> 
<path style="fill:#000000; fill-opacity:0.0; 
stroke:#000000; stroke-width:36.427511; stroke-opacity:1; 
stroke-linecap:round; stroke-linejoin:round;fill:none"
d="M 54301.037439,38101.337092
54301.037439,37843.753607
54043.453954,37843.753607
54043.453954,38101.337092
Z" /> 
<path style="fill:#000000; fill-opacity:0.0; 
stroke:#000000; stroke-width:36.427511; stroke-opacity:1; 
stroke-linecap:round; stroke-linejoin:round;fill:none"
d="M 55457.610919,34631.616653
55457.610919,34374.033168
55200.027434,34374.033168
55200.027434,34631.616653
Z" /> 
<path style="fill:#000000; fill-opacity:0.0; 
stroke:#000000; stroke-width:36.427511; stroke-opacity:1; 
stroke-linecap:round; stroke-linejoin:round;fill:none"
d="M 55457.610919,38101.337092
55457.610919,37843.753607
55200.027434,37843.753607
55200.027434,38101.337092
Z" /> 
<path style="fill:#000000; fill-opacity:0.0; 
stroke:#000000; stroke-width:36.427511; stroke-opacity:1; 
stroke-linecap:round; stroke-linejoin:round;fill:none"
d="M 56614.184398,34631.616653
56614.184398,34374.033168
56356.600914,34374.033168
56356.600914,34631.616653
Z" /> 
<path style="fill:#000000; fill-opacity:0.0; 
stroke:#000000; stroke-width:36.427511; stroke-opacity:1; 
stroke-linecap:round; stroke-linejoin:round;fill:none"
d="M 56614.184398,38101.337092
56614.184398,37843.753607
56356.600914,37843.753607
56356.600914,38101.337092
Z" /> 
<path style="fill:#000000; fill-opacity:0.0; 
stroke:#000000; stroke-width:36.427511; stroke-opacity:1; 
stroke-linecap:round; stroke-linejoin:round;fill:none"
d="M 57770.757878,34631.616653
57770.757878,34374.033168
57513.174393,34374.033168
57513.174393,34631.616653
Z" /> 
<path style="fill:#000000; fill-opacity:0.0; 
stroke:#000000; stroke-width:36.427511; stroke-opacity:1; 
stroke-linecap:round; stroke-linejoin:round;fill:none"
d="M 57770.757878,38101.337092
57770.757878,37843.753607
57513.174393,37843.753607
57513.174393,38101.337092
Z" /> 
<path style="fill:#000000; fill-opacity:0.0; 
stroke:#000000; stroke-width:36.427511; stroke-opacity:1; 
stroke-linecap:round; stroke-linejoin:round;fill:none"
d="M 58927.331358,34631.616653
58927.331358,34374.033168
58669.747873,34374.033168
58669.747873,34631.616653
Z" /> 
<path style="fill:#000000; fill-opacity:0.0; 
stroke:#000000; stroke-width:36.427511; stroke-opacity:1; 
stroke-linecap:round; stroke-linejoin:round;fill:none"
d="M 58927.331358,38101.337092
58927.331358,37843.753607
58669.747873,37843.753607
58669.747873,38101.337092
Z" /> 
<path style="fill:#000000; fill-opacity:0.0; 
stroke:#000000; stroke-width:36.427511; stroke-opacity:1; 
stroke-linecap:round; stroke-linejoin:round;fill:none"
d="M 59087.840079,3986.972884
59087.840079,3729.389399
58830.256594,3729.389399
58830.256594,3986.972884
Z" /> 
<path style="fill:#000000; fill-opacity:0.0; 
stroke:#000000; stroke-width:36.427511; stroke-opacity:1; 
stroke-linecap:round; stroke-linejoin:round;fill:none"
d="M 60083.904837,34631.616653
60083.904837,34374.033168
59826.321352,34374.033168
59826.321352,34631.616653
Z" /> 
<path style="fill:#000000; fill-opacity:0.0; 
stroke:#000000; stroke-width:36.427511; stroke-opacity:1; 
stroke-linecap:round; stroke-linejoin:round;fill:none"
d="M 60083.904837,38101.337092
60083.904837,37843.753607
59826.321352,37843.753607
59826.321352,38101.337092
Z" /> 
<path style="fill:#000000; fill-opacity:0.0; 
stroke:#000000; stroke-width:36.427511; stroke-opacity:1; 
stroke-linecap:round; stroke-linejoin:round;fill:none"
d="M 61240.478317,34631.616653
61240.478317,34374.033168
60982.894832,34374.033168
60982.894832,34631.616653
Z" /> 
<path style="fill:#000000; fill-opacity:0.0; 
stroke:#000000; stroke-width:36.427511; stroke-opacity:1; 
stroke-linecap:round; stroke-linejoin:round;fill:none"
d="M 61240.478317,38101.337092
61240.478317,37843.753607
60982.894832,37843.753607
60982.894832,38101.337092
Z" /> 
<path style="fill:#000000; fill-opacity:0.0; 
stroke:#000000; stroke-width:36.427511; stroke-opacity:1; 
stroke-linecap:round; stroke-linejoin:round;fill:none"
d="M 62557.560517,3986.972884
62557.560517,3729.389399
62299.977032,3729.389399
62299.977032,3986.972884
Z" /> 
<path style="fill:#000000; fill-opacity:0.0; 
stroke:#000000; stroke-width:36.427511; stroke-opacity:1; 
stroke-linecap:round; stroke-linejoin:round;fill:none"
d="M 69083.776815,26729.123449
69083.776815,26471.539964
68826.193330,26471.539964
68826.193330,26729.123449
Z" /> 
<path style="fill:#000000; fill-opacity:0.0; 
stroke:#000000; stroke-width:36.427511; stroke-opacity:1; 
stroke-linecap:round; stroke-linejoin:round;fill:none"
d="M 69083.776815,27885.696929
69083.776815,27628.113444
68826.193330,27628.113444
68826.193330,27885.696929
Z" /> 
<path style="fill:#000000; fill-opacity:0.0; 
stroke:#000000; stroke-width:36.427511; stroke-opacity:1; 
stroke-linecap:round; stroke-linejoin:round;fill:none"
d="M 69083.776815,29042.270408
69083.776815,28784.686923
68826.193330,28784.686923
68826.193330,29042.270408
Z" /> 
<path style="fill:#000000; fill-opacity:0.0; 
stroke:#000000; stroke-width:36.427511; stroke-opacity:1; 
stroke-linecap:round; stroke-linejoin:round;fill:none"
d="M 69140.694801,20386.183067
69140.694801,20128.599582
68883.111316,20128.599582
68883.111316,20386.183067
Z" /> 
<path style="fill:#000000; fill-opacity:0.0; 
stroke:#000000; stroke-width:36.427511; stroke-opacity:1; 
stroke-linecap:round; stroke-linejoin:round;fill:none"
d="M 69140.694801,23855.903506
69140.694801,23598.320021
68883.111316,23598.320021
68883.111316,23855.903506
Z" /> 
<path style="fill:#000000; fill-opacity:0.0; 
stroke:#000000; stroke-width:36.427511; stroke-opacity:1; 
stroke-linecap:round; stroke-linejoin:round;fill:none"
d="M 75413.056880,23965.186039
75413.056880,23707.602554
75155.473395,23707.602554
75155.473395,23965.186039
Z" /> 
<path style="fill:#000000; fill-opacity:0.0; 
stroke:#000000; stroke-width:36.427511; stroke-opacity:1; 
stroke-linecap:round; stroke-linejoin:round;fill:none"
d="M 75413.056880,25121.759519
75413.056880,24864.176034
75155.473395,24864.176034
75155.473395,25121.759519
Z" /> 
<path style="fill:#000000; fill-opacity:0.0; 
stroke:#000000; stroke-width:36.427511; stroke-opacity:1; 
stroke-linecap:round; stroke-linejoin:round;fill:none"
d="M 75413.056880,26278.332998
75413.056880,26020.749514
75155.473395,26020.749514
75155.473395,26278.332998
Z" /> 
<path style="fill:#000000; fill-opacity:0.0; 
stroke:#000000; stroke-width:36.427511; stroke-opacity:1; 
stroke-linecap:round; stroke-linejoin:round;fill:none"
d="M 76915.691716,8699.782141
76915.691716,8442.198656
76658.108231,8442.198656
76658.108231,8699.782141
Z" /> 
</g>
<g style="fill:#000000; fill-opacity:0.0; 
stroke:#000000; stroke-width:91.068778; stroke-opacity:1; 
stroke-linecap:round; stroke-linejoin:round;">
<path d="M76650 8457
L76650 8684
" />
<path d="M76923 8457
L76923 8684
" />
<path d="M76650.296807 8684.826371 A136.603167 136.603167 0.0 0 0 76923.503140 8684.826371" />
<path d="M76923.503140 8457.154426 A136.603167 136.603167 0.0 0 0 76650.296807 8457.154426" />
</g>
<g style="fill:#000000; fill-opacity:0.0; 
stroke:#000000; stroke-width:36.427511; stroke-opacity:1; 
stroke-linecap:round; stroke-linejoin:round;">
<path style="fill:#000000; fill-opacity:0.0; 
stroke:#000000; stroke-width:36.427511; stroke-opacity:1; 
stroke-linecap:round; stroke-linejoin:round;fill:none"
d="M 78882.777319,23965.186039
78882.777319,23707.602554
78625.193834,23707.602554
78625.193834,23965.186039
Z" /> 
<path style="fill:#000000; fill-opacity:0.0; 
stroke:#000000; stroke-width:36.427511; stroke-opacity:1; 
stroke-linecap:round; stroke-linejoin:round;fill:none"
d="M 78882.777319,25121.759519
78882.777319,24864.176034
78625.193834,24864.176034
78625.193834,25121.759519
Z" /> 
<path style="fill:#000000; fill-opacity:0.0; 
stroke:#000000; stroke-width:36.427511; stroke-opacity:1; 
stroke-linecap:round; stroke-linejoin:round;fill:none"
d="M 78882.777319,26278.332998
78882.777319,26020.749514
78625.193834,26020.749514
78625.193834,26278.332998
Z" /> 
<path style="fill:#000000; fill-opacity:0.0; 
stroke:#000000; stroke-width:36.427511; stroke-opacity:1; 
stroke-linecap:round; stroke-linejoin:round;fill:none"
d="M 79010.273608,8699.782141
79010.273608,8442.198656
78752.690123,8442.198656
78752.690123,8699.782141
Z" /> 
</g>
<g style="fill:#000000; fill-opacity:0.0; 
stroke:#000000; stroke-width:91.068778; stroke-opacity:1; 
stroke-linecap:round; stroke-linejoin:round;">
<path d="M78744 8457
L78744 8684
" />
<path d="M79018 8457
L79018 8684
" />
<path d="M78744.878699 8684.826371 A136.603167 136.603167 0.0 0 0 79018.085032 8684.826371" />
<path d="M79018.085032 8457.154426 A136.603167 136.603167 0.0 0 0 78744.878699 8457.154426" />
</g>
<g style="fill:#000000; fill-opacity:0.0; 
stroke:#000000; stroke-width:40.980950; stroke-opacity:1; 
stroke-linecap:round; stroke-linejoin:round;">
<path style="fill:#000000; fill-opacity:0.0; 
stroke:#000000; stroke-width:40.980950; stroke-opacity:1; 
stroke-linecap:round; stroke-linejoin:round;fill:none"
d="M 38788.452387,42403.041395
38993.357137,42198.136645
38788.452387,41993.231894
38583.547637,42198.136645
Z" /> 
<path style="fill:#000000; fill-opacity:0.0; 
stroke:#000000; stroke-width:40.980950; stroke-opacity:1; 
stroke-linecap:round; stroke-linejoin:round;fill:none"
d="M 39945.025867,42403.041395
40149.930617,42198.136645
39945.025867,41993.231894
39740.121116,42198.136645
Z" /> 
<path style="fill:#000000; fill-opacity:0.0; 
stroke:#000000; stroke-width:40.980950; stroke-opacity:1; 
stroke-linecap:round; stroke-linejoin:round;fill:none"
d="M 43478.494450,42403.041395
43683.399200,42198.136645
43478.494450,41993.231894
43273.589700,42198.136645
Z" /> 
<path style="fill:#000000; fill-opacity:0.0; 
stroke:#000000; stroke-width:40.980950; stroke-opacity:1; 
stroke-linecap:round; stroke-linejoin:round;fill:none"
d="M 44635.067929,42403.041395
44839.972680,42198.136645
44635.067929,41993.231894
44430.163179,42198.136645
Z" /> 
<path style="fill:#000000; fill-opacity:0.0; 
stroke:#000000; stroke-width:40.980950; stroke-opacity:1; 
stroke-linecap:round; stroke-linejoin:round;fill:none"
d="M 47485.520678,42494.110173
47690.425429,42289.205423
47485.520678,42084.300672
47280.615928,42289.205423
Z" /> 
<path style="fill:#000000; fill-opacity:0.0; 
stroke:#000000; stroke-width:40.980950; stroke-opacity:1; 
stroke-linecap:round; stroke-linejoin:round;fill:none"
d="M 48642.094158,42494.110173
48846.998908,42289.205423
48642.094158,42084.300672
48437.189408,42289.205423
Z" /> 
<path style="fill:#000000; fill-opacity:0.0; 
stroke:#000000; stroke-width:40.980950; stroke-opacity:1; 
stroke-linecap:round; stroke-linejoin:round;fill:none"
d="M 51765.753240,42676.247729
51970.657991,42471.342978
51765.753240,42266.438228
51560.848490,42471.342978
Z" /> 
<path style="fill:#000000; fill-opacity:0.0; 
stroke:#000000; stroke-width:40.980950; stroke-opacity:1; 
stroke-linecap:round; stroke-linejoin:round;fill:none"
d="M 52922.326720,42676.247729
53127.231470,42471.342978
52922.326720,42266.438228
52717.421970,42471.342978
Z" /> 
<path style="fill:#000000; fill-opacity:0.0; 
stroke:#000000; stroke-width:40.980950; stroke-opacity:1; 
stroke-linecap:round; stroke-linejoin:round;fill:none"
d="M 56228.123358,42539.644562
56433.028109,42334.739811
56228.123358,42129.835061
56023.218608,42334.739811
Z" /> 
<path style="fill:#000000; fill-opacity:0.0; 
stroke:#000000; stroke-width:40.980950; stroke-opacity:1; 
stroke-linecap:round; stroke-linejoin:round;fill:none"
d="M 57384.696838,42539.644562
57589.601588,42334.739811
57384.696838,42129.835061
57179.792088,42334.739811
Z" /> 
<path style="fill:#000000; fill-opacity:0.0; 
stroke:#000000; stroke-width:40.980950; stroke-opacity:1; 
stroke-linecap:round; stroke-linejoin:round;fill:none"
d="M 60405.903545,42539.644562
60610.808296,42334.739811
60405.903545,42129.835061
60200.998795,42334.739811
Z" /> 
<path style="fill:#000000; fill-opacity:0.0; 
stroke:#000000; stroke-width:40.980950; stroke-opacity:1; 
stroke-linecap:round; stroke-linejoin:round;fill:none"
d="M 61562.477025,42539.644562
61767.381775,42334.739811
61562.477025,42129.835061
61357.572275,42334.739811
Z" /> 
<path style="fill:#000000; fill-opacity:0.0; 
stroke:#000000; stroke-width:40.980950; stroke-opacity:1; 
stroke-linecap:round; stroke-linejoin:round;fill:none"
d="M 64469.847760,42494.110173
64674.752510,42289.205423
64469.847760,42084.300672
64264.943010,42289.205423
Z" /> 
<path style="fill:#000000; fill-opacity:0.0; 
stroke:#000000; stroke-width:40.980950; stroke-opacity:1; 
stroke-linecap:round; stroke-linejoin:round;fill:none"
d="M 65626.421240,42494.110173
65831.325990,42289.205423
65626.421240,42084.300672
65421.516489,42289.205423
Z" /> 
<path style="fill:#000000; fill-opacity:0.0; 
stroke:#000000; stroke-width:40.980950; stroke-opacity:1; 
stroke-linecap:round; stroke-linejoin:round;fill:none"
d="M 69205.424212,42539.644562
69410.328962,42334.739811
69205.424212,42129.835061
69000.519461,42334.739811
Z" /> 
<path style="fill:#000000; fill-opacity:0.0; 
stroke:#000000; stroke-width:40.980950; stroke-opacity:1; 
stroke-linecap:round; stroke-linejoin:round;fill:none"
d="M 70361.997691,42539.644562
70566.902442,42334.739811
70361.997691,42129.835061
70157.092941,42334.739811
Z" /> 
<path style="fill:#000000; fill-opacity:0.0; 
stroke:#000000; stroke-width:40.980950; stroke-opacity:1; 
stroke-linecap:round; stroke-linejoin:round;fill:none"
d="M 72848.175329,42403.041395
73053.080079,42198.136645
72848.175329,41993.231894
72643.270578,42198.136645
Z" /> 
<path style="fill:#000000; fill-opacity:0.0; 
stroke:#000000; stroke-width:40.980950; stroke-opacity:1; 
stroke-linecap:round; stroke-linejoin:round;fill:none"
d="M 74004.748808,42403.041395
74209.653558,42198.136645
74004.748808,41993.231894
73799.844058,42198.136645
Z" /> 
<path style="fill:#000000; fill-opacity:0.0; 
stroke:#000000; stroke-width:40.980950; stroke-opacity:1; 
stroke-linecap:round; stroke-linejoin:round;fill:none"
d="M 76388.474070,42403.041395
76593.378820,42198.136645
76388.474070,41993.231894
76183.569320,42198.136645
Z" /> 
<path style="fill:#000000; fill-opacity:0.0; 
stroke:#000000; stroke-width:40.980950; stroke-opacity:1; 
stroke-linecap:round; stroke-linejoin:round;fill:none"
d="M 77545.047550,42403.041395
77749.952300,42198.136645
77545.047550,41993.231894
77340.142799,42198.136645
Z" /> 
</g>
<g style="fill:#000000; fill-opacity:0.0; 
stroke:#000000; stroke-width:45.534389; stroke-opacity:1; 
stroke-linecap:round; stroke-linejoin:round;">
<path d="M76354 4928
L76809 5383
" />
<path d="M76809 4928
L76354 5383
" />
<circle cx="76581.995223" cy="5155.911226" r="227.671945" /> 
</g>
<g style="fill:#000000; fill-opacity:0.0; 
stroke:#000000; stroke-width:91.068778; stroke-opacity:1; 
stroke-linecap:round; stroke-linejoin:round;">
<path d="M76399 5087
L76399 5224
" />
<path d="M76764 5087
L76764 5224
" />
<path d="M76399.857667 5224.212810 A182.137556 182.137556 0.0 0 0 76764.132779 5224.212810" />
<path d="M76764.132779 5087.609643 A182.137556 182.137556 0.0 0 0 76399.857667 5087.609643" />
</g>
<g style="fill:#000000; fill-opacity:0.0; 
stroke:#000000; stroke-width:45.534389; stroke-opacity:1; 
stroke-linecap:round; stroke-linejoin:round;">
<path d="M78858 4928
L79314 5383
" />
<path d="M79314 4928
L78858 5383
" />
<circle cx="79086.386616" cy="5155.911226" r="227.671945" /> 
</g>
<g style="fill:#000000; fill-opacity:0.0; 
stroke:#000000; stroke-width:91.068778; stroke-opacity:1; 
stroke-linecap:round; stroke-linejoin:round;">
<path d="M78904 5087
L78904 5224
" />
<path d="M79268 5087
L79268 5224
" />
<path d="M78904.249060 5224.212810 A182.137556 182.137556 0.0 0 0 79268.524172 5224.212810" />
<path d="M79268.524172 5087.609643 A182.137556 182.137556 0.0 0 0 78904.249060 5087.609643" />
</g>
<g style="fill:#000000; fill-opacity:0.0; 
stroke:#000000; stroke-width:50.087828; stroke-opacity:1; 
stroke-linecap:round; stroke-linejoin:round;">
<path d="M69865 5547
L70366 6048
" />
<path d="M70366 5547
L69865 6048
" />
<path d="M70116 5547
L70116 6048
" />
<path d="M69865 5797
L70366 5797
" />
</g>
<g style="fill:#000000; fill-opacity:0.0; 
stroke:#000000; stroke-width:68.301583; stroke-opacity:1; 
stroke-linecap:round; stroke-linejoin:round;">
<path d="M67486 3168
L68169 3851
" />
<path d="M68169 3168
L67486 3851
" />
<path style="fill:#000000; fill-opacity:0.0; 
stroke:#000000; stroke-width:68.301583; stroke-opacity:1; 
stroke-linecap:round; stroke-linejoin:round;fill:none"
d="M 68069.493747,3751.327867
68069.493747,3268.358264
67586.524144,3268.358264
67586.524144,3751.327867
Z" /> 
<path d="M67486 7744
L68169 8427
" />
<path d="M68169 7744
L67486 8427
" />
<path style="fill:#000000; fill-opacity:0.0; 
stroke:#000000; stroke-width:68.301583; stroke-opacity:1; 
stroke-linecap:round; stroke-linejoin:round;fill:none"
d="M 68069.493747,8327.533958
68069.493747,7844.564354
67586.524144,7844.564354
67586.524144,8327.533958
Z" /> 
<path d="M72062 3168
L72745 3851
" />
<path d="M72745 3168
L72062 3851
" />
<path style="fill:#000000; fill-opacity:0.0; 
stroke:#000000; stroke-width:68.301583; stroke-opacity:1; 
stroke-linecap:round; stroke-linejoin:round;fill:none"
d="M 72645.699838,3751.327867
72645.699838,3268.358264
72162.730234,3268.358264
72162.730234,3751.327867
Z" /> 
<path d="M72062 7744
L72745 8427
" />
<path d="M72745 7744
L72062 8427
" />
<path style="fill:#000000; fill-opacity:0.0; 
stroke:#000000; stroke-width:68.301583; stroke-opacity:1; 
stroke-linecap:round; stroke-linejoin:round;fill:none"
d="M 72645.699838,8327.533958
72645.699838,7844.564354
72162.730234,7844.564354
72162.730234,8327.533958
Z" /> 
</g>
<g style="fill:#000000; fill-opacity:0.0; 
stroke:#000000; stroke-width:109.282534; stroke-opacity:1; 
stroke-linecap:round; stroke-linejoin:round;">
<path d="M59745 10153
L60838 11246
" />
<path d="M60838 10153
L59745 11246
" />
<path style="fill:#000000; fill-opacity:0.0; 
stroke:#000000; stroke-width:109.282534; stroke-opacity:1; 
stroke-linecap:round; stroke-linejoin:round;fill:none"
d="M 60292.067573,11246.135750
60838.480241,10699.723082
60292.067573,10153.310415
59745.654906,10699.723082
Z" /> 
<path d="M59745 15936
L60838 17029
" />
<path d="M60838 15936
L59745 17029
" />
<path style="fill:#000000; fill-opacity:0.0; 
stroke:#000000; stroke-width:109.282534; stroke-opacity:1; 
stroke-linecap:round; stroke-linejoin:round;fill:none"
d="M 60292.067573,17029.003147
60838.480241,16482.590480
60292.067573,15936.177812
59745.654906,16482.590480
Z" /> 
</g>
<g style="fill:#000000; fill-opacity:0.0; 
stroke:#000000; stroke-width:145.710045; stroke-opacity:1; 
stroke-linecap:round; stroke-linejoin:round;">
<path d="M57013 27797
L57013 29254
" />
<path d="M56285 28526
L57742 28526
" />
<circle cx="57013.591568" cy="28526.436360" r="728.550223" /> 
</g>
<g style="fill:#000000; fill-opacity:0.0; 
stroke:#000000; stroke-width:91.068778; stroke-opacity:1; 
stroke-linecap:round; stroke-linejoin:round;">
</g>
<g style="fill:#000000; fill-opacity:0.0; 
stroke:#000000; stroke-width:78.740342; stroke-opacity:1; 
stroke-linecap:round; stroke-linejoin:round;">
<text x="36445.364746" y="48899.338867"
textLength="5865.347024" font-size="1049.868648" lengthAdjust="spacingAndGlyphs"
text-anchor="start" opacity="0">Drill Map:</text>
<g class="stroked-text"><desc>Drill Map:</desc>
<path d="M36672 48861
L36672 48074
L36859 48074
L36972 48111
L37047 48186
L37084 48261
L37122 48411
L37122 48524
L37084 48674
L37047 48749
L36972 48824
L36859 48861
L36672 48861
" />
<path d="M37459 48861
L37459 48336
" />
<path d="M37459 48486
L37497 48411
L37534 48374
L37609 48336
L37684 48336
" />
<path d="M37947 48861
L37947 48336
" />
<path d="M37947 48074
L37909 48111
L37947 48149
L37984 48111
L37947 48074
L37947 48149
" />
<path d="M38434 48861
L38359 48824
L38322 48749
L38322 48074
" />
<path d="M38846 48861
L38771 48824
L38734 48749
L38734 48074
" />
<path d="M39746 48861
L39746 48074
L40009 48636
L40271 48074
L40271 48861
" />
<path d="M40984 48861
L40984 48449
L40946 48374
L40871 48336
L40721 48336
L40646 48374
" />
<path d="M40984 48824
L40909 48861
L40721 48861
L40646 48824
L40609 48749
L40609 48674
L40646 48599
L40721 48561
L40909 48561
L40984 48524
" />
<path d="M41359 48336
L41359 49124
" />
<path d="M41359 48374
L41434 48336
L41584 48336
L41659 48374
L41696 48411
L41734 48486
L41734 48711
L41696 48786
L41659 48824
L41584 48861
L41434 48861
L41359 48824
" />
<path d="M42071 48786
L42109 48824
L42071 48861
L42034 48824
L42071 48786
L42071 48861
" />
<path d="M42071 48374
L42109 48411
L42071 48449
L42034 48411
L42071 48374
L42071 48449
" />
</g></g>
<g style="fill:#000000; fill-opacity:0.0; 
stroke:#000000; stroke-width:18.213756; stroke-opacity:1; 
stroke-linecap:round; stroke-linejoin:round;">
<path d="M35475 50068
L35657 50250
" />
<path d="M35657 50068
L35475 50250
" />
</g>
<g style="fill:#000000; fill-opacity:0.0; 
stroke:#000000; stroke-width:91.068778; stroke-opacity:1; 
stroke-linecap:round; stroke-linejoin:round;">
</g>
<g style="fill:#000000; fill-opacity:0.0; 
stroke:#000000; stroke-width:78.740342; stroke-opacity:1; 
stroke-linecap:round; stroke-linejoin:round;">
<text x="36445.364746" y="50552.882408"
textLength="19201.350490" font-size="1049.868648" lengthAdjust="spacingAndGlyphs"
text-anchor="start" opacity="0">0.400mm / 0.0157" (35 holes)</text>
<g class="stroked-text"><desc>0.400mm / 0.0157" (35 holes)</desc>
<path d="M36822 49727
L36897 49727
L36972 49765
L37009 49802
L37047 49877
L37084 50027
L37084 50215
L37047 50365
L37009 50440
L36972 50477
L36897 50515
L36822 50515
L36747 50477
L36709 50440
L36672 50365
L36634 50215
L36634 50027
L36672 49877
L36709 49802
L36747 49765
L36822 49727
" />
<path d="M37422 50440
L37459 50477
L37422 50515
L37384 50477
L37422 50440
L37422 50515
" />
<path d="M38134 49990
L38134 50515
" />
<path d="M37947 49690
L37759 50252
L38247 50252
" />
<path d="M38696 49727
L38771 49727
L38846 49765
L38884 49802
L38921 49877
L38959 50027
L38959 50215
L38921 50365
L38884 50440
L38846 50477
L38771 50515
L38696 50515
L38621 50477
L38584 50440
L38546 50365
L38509 50215
L38509 50027
L38546 49877
L38584 49802
L38621 49765
L38696 49727
" />
<path d="M39446 49727
L39521 49727
L39596 49765
L39634 49802
L39671 49877
L39709 50027
L39709 50215
L39671 50365
L39634 50440
L39596 50477
L39521 50515
L39446 50515
L39371 50477
L39334 50440
L39296 50365
L39259 50215
L39259 50027
L39296 49877
L39334 49802
L39371 49765
L39446 49727
" />
<path d="M40046 50515
L40046 49990
" />
<path d="M40046 50065
L40084 50027
L40159 49990
L40271 49990
L40346 50027
L40384 50102
L40384 50515
" />
<path d="M40384 50102
L40421 50027
L40496 49990
L40609 49990
L40684 50027
L40721 50102
L40721 50515
" />
<path d="M41096 50515
L41096 49990
" />
<path d="M41096 50065
L41134 50027
L41209 49990
L41321 49990
L41396 50027
L41434 50102
L41434 50515
" />
<path d="M41434 50102
L41471 50027
L41546 49990
L41659 49990
L41734 50027
L41771 50102
L41771 50515
" />
<path d="M43308 49690
L42633 50702
" />
<path d="M44321 49727
L44396 49727
L44471 49765
L44508 49802
L44546 49877
L44583 50027
L44583 50215
L44546 50365
L44508 50440
L44471 50477
L44396 50515
L44321 50515
L44246 50477
L44208 50440
L44171 50365
L44133 50215
L44133 50027
L44171 49877
L44208 49802
L44246 49765
L44321 49727
" />
<path d="M44921 50440
L44958 50477
L44921 50515
L44883 50477
L44921 50440
L44921 50515
" />
<path d="M45446 49727
L45521 49727
L45596 49765
L45633 49802
L45671 49877
L45708 50027
L45708 50215
L45671 50365
L45633 50440
L45596 50477
L45521 50515
L45446 50515
L45371 50477
L45333 50440
L45296 50365
L45258 50215
L45258 50027
L45296 49877
L45333 49802
L45371 49765
L45446 49727
" />
<path d="M46458 50515
L46008 50515
" />
<path d="M46233 50515
L46233 49727
L46158 49840
L46083 49915
L46008 49952
" />
<path d="M47170 49727
L46795 49727
L46758 50102
L46795 50065
L46870 50027
L47058 50027
L47133 50065
L47170 50102
L47208 50177
L47208 50365
L47170 50440
L47133 50477
L47058 50515
L46870 50515
L46795 50477
L46758 50440
" />
<path d="M47470 49727
L47995 49727
L47658 50515
" />
<path d="M48258 49727
L48258 49877
" />
<path d="M48558 49727
L48558 49877
" />
<path d="M49720 50815
L49683 50777
L49608 50665
L49570 50590
L49533 50477
L49495 50290
L49495 50140
L49533 49952
L49570 49840
L49608 49765
L49683 49652
L49720 49615
" />
<path d="M49945 49727
L50432 49727
L50170 50027
L50283 50027
L50358 50065
L50395 50102
L50432 50177
L50432 50365
L50395 50440
L50358 50477
L50283 50515
L50058 50515
L49983 50477
L49945 50440
" />
<path d="M51145 49727
L50770 49727
L50732 50102
L50770 50065
L50845 50027
L51032 50027
L51107 50065
L51145 50102
L51182 50177
L51182 50365
L51145 50440
L51107 50477
L51032 50515
L50845 50515
L50770 50477
L50732 50440
" />
<path d="M52120 50515
L52120 49727
" />
<path d="M52457 50515
L52457 50102
L52420 50027
L52345 49990
L52232 49990
L52157 50027
L52120 50065
" />
<path d="M52945 50515
L52870 50477
L52832 50440
L52795 50365
L52795 50140
L52832 50065
L52870 50027
L52945 49990
L53057 49990
L53132 50027
L53170 50065
L53207 50140
L53207 50365
L53170 50440
L53132 50477
L53057 50515
L52945 50515
" />
<path d="M53657 50515
L53582 50477
L53545 50402
L53545 49727
" />
<path d="M54257 50477
L54182 50515
L54032 50515
L53957 50477
L53920 50402
L53920 50102
L53957 50027
L54032 49990
L54182 49990
L54257 50027
L54295 50102
L54295 50177
L53920 50252
" />
<path d="M54594 50477
L54669 50515
L54819 50515
L54894 50477
L54932 50402
L54932 50365
L54894 50290
L54819 50252
L54707 50252
L54632 50215
L54594 50140
L54594 50102
L54632 50027
L54707 49990
L54819 49990
L54894 50027
" />
<path d="M55194 50815
L55232 50777
L55307 50665
L55344 50590
L55382 50477
L55419 50290
L55419 50140
L55382 49952
L55344 49840
L55307 49765
L55232 49652
L55194 49615
" />
</g></g>
<g style="fill:#000000; fill-opacity:0.0; 
stroke:#000000; stroke-width:22.767194; stroke-opacity:1; 
stroke-linecap:round; stroke-linejoin:round;">
<circle cx="35544.127174" cy="51198.551848" r="113.835972" /> 
</g>
<g style="fill:#000000; fill-opacity:0.0; 
stroke:#000000; stroke-width:91.068778; stroke-opacity:1; 
stroke-linecap:round; stroke-linejoin:round;">
</g>
<g style="fill:#000000; fill-opacity:0.0; 
stroke:#000000; stroke-width:78.740342; stroke-opacity:1; 
stroke-linecap:round; stroke-linejoin:round;">
<text x="36445.364746" y="51592.252647"
textLength="18451.444183" font-size="1049.868648" lengthAdjust="spacingAndGlyphs"
text-anchor="start" opacity="0">0.500mm / 0.0197" (8 holes)</text>
<g class="stroked-text"><desc>0.500mm / 0.0197" (8 holes)</desc>
<path d="M36822 50767
L36897 50767
L36972 50804
L37009 50842
L37047 50917
L37084 51067
L37084 51254
L37047 51404
L37009 51479
L36972 51517
L36897 51554
L36822 51554
L36747 51517
L36709 51479
L36672 51404
L36634 51254
L36634 51067
L36672 50917
L36709 50842
L36747 50804
L36822 50767
" />
<path d="M37422 51479
L37459 51517
L37422 51554
L37384 51517
L37422 51479
L37422 51554
" />
<path d="M38172 50767
L37797 50767
L37759 51142
L37797 51104
L37872 51067
L38059 51067
L38134 51104
L38172 51142
L38209 51217
L38209 51404
L38172 51479
L38134 51517
L38059 51554
L37872 51554
L37797 51517
L37759 51479
" />
<path d="M38696 50767
L38771 50767
L38846 50804
L38884 50842
L38921 50917
L38959 51067
L38959 51254
L38921 51404
L38884 51479
L38846 51517
L38771 51554
L38696 51554
L38621 51517
L38584 51479
L38546 51404
L38509 51254
L38509 51067
L38546 50917
L38584 50842
L38621 50804
L38696 50767
" />
<path d="M39446 50767
L39521 50767
L39596 50804
L39634 50842
L39671 50917
L39709 51067
L39709 51254
L39671 51404
L39634 51479
L39596 51517
L39521 51554
L39446 51554
L39371 51517
L39334 51479
L39296 51404
L39259 51254
L39259 51067
L39296 50917
L39334 50842
L39371 50804
L39446 50767
" />
<path d="M40046 51554
L40046 51029
" />
<path d="M40046 51104
L40084 51067
L40159 51029
L40271 51029
L40346 51067
L40384 51142
L40384 51554
" />
<path d="M40384 51142
L40421 51067
L40496 51029
L40609 51029
L40684 51067
L40721 51142
L40721 51554
" />
<path d="M41096 51554
L41096 51029
" />
<path d="M41096 51104
L41134 51067
L41209 51029
L41321 51029
L41396 51067
L41434 51142
L41434 51554
" />
<path d="M41434 51142
L41471 51067
L41546 51029
L41659 51029
L41734 51067
L41771 51142
L41771 51554
" />
<path d="M43308 50729
L42633 51742
" />
<path d="M44321 50767
L44396 50767
L44471 50804
L44508 50842
L44546 50917
L44583 51067
L44583 51254
L44546 51404
L44508 51479
L44471 51517
L44396 51554
L44321 51554
L44246 51517
L44208 51479
L44171 51404
L44133 51254
L44133 51067
L44171 50917
L44208 50842
L44246 50804
L44321 50767
" />
<path d="M44921 51479
L44958 51517
L44921 51554
L44883 51517
L44921 51479
L44921 51554
" />
<path d="M45446 50767
L45521 50767
L45596 50804
L45633 50842
L45671 50917
L45708 51067
L45708 51254
L45671 51404
L45633 51479
L45596 51517
L45521 51554
L45446 51554
L45371 51517
L45333 51479
L45296 51404
L45258 51254
L45258 51067
L45296 50917
L45333 50842
L45371 50804
L45446 50767
" />
<path d="M46458 51554
L46008 51554
" />
<path d="M46233 51554
L46233 50767
L46158 50879
L46083 50954
L46008 50992
" />
<path d="M46833 51554
L46983 51554
L47058 51517
L47095 51479
L47170 51367
L47208 51217
L47208 50917
L47170 50842
L47133 50804
L47058 50767
L46908 50767
L46833 50804
L46795 50842
L46758 50917
L46758 51104
L46795 51179
L46833 51217
L46908 51254
L47058 51254
L47133 51217
L47170 51179
L47208 51104
" />
<path d="M47470 50767
L47995 50767
L47658 51554
" />
<path d="M48258 50767
L48258 50917
" />
<path d="M48558 50767
L48558 50917
" />
<path d="M49720 51854
L49683 51817
L49608 51704
L49570 51629
L49533 51517
L49495 51329
L49495 51179
L49533 50992
L49570 50879
L49608 50804
L49683 50692
L49720 50654
" />
<path d="M50133 51104
L50058 51067
L50020 51029
L49983 50954
L49983 50917
L50020 50842
L50058 50804
L50133 50767
L50283 50767
L50358 50804
L50395 50842
L50432 50917
L50432 50954
L50395 51029
L50358 51067
L50283 51104
L50133 51104
L50058 51142
L50020 51179
L49983 51254
L49983 51404
L50020 51479
L50058 51517
L50133 51554
L50283 51554
L50358 51517
L50395 51479
L50432 51404
L50432 51254
L50395 51179
L50358 51142
L50283 51104
" />
<path d="M51370 51554
L51370 50767
" />
<path d="M51707 51554
L51707 51142
L51670 51067
L51595 51029
L51482 51029
L51407 51067
L51370 51104
" />
<path d="M52195 51554
L52120 51517
L52082 51479
L52045 51404
L52045 51179
L52082 51104
L52120 51067
L52195 51029
L52307 51029
L52382 51067
L52420 51104
L52457 51179
L52457 51404
L52420 51479
L52382 51517
L52307 51554
L52195 51554
" />
<path d="M52907 51554
L52832 51517
L52795 51442
L52795 50767
" />
<path d="M53507 51517
L53432 51554
L53282 51554
L53207 51517
L53170 51442
L53170 51142
L53207 51067
L53282 51029
L53432 51029
L53507 51067
L53545 51142
L53545 51217
L53170 51292
" />
<path d="M53845 51517
L53920 51554
L54070 51554
L54145 51517
L54182 51442
L54182 51404
L54145 51329
L54070 51292
L53957 51292
L53882 51254
L53845 51179
L53845 51142
L53882 51067
L53957 51029
L54070 51029
L54145 51067
" />
<path d="M54444 51854
L54482 51817
L54557 51704
L54594 51629
L54632 51517
L54669 51329
L54669 51179
L54632 50992
L54594 50879
L54557 50804
L54482 50692
L54444 50654
" />
</g></g>
<g style="fill:#000000; fill-opacity:0.0; 
stroke:#000000; stroke-width:29.597353; stroke-opacity:1; 
stroke-linecap:round; stroke-linejoin:round;">
<path d="M35509 52089
L35509 52385
" />
<path d="M35361 52237
L35657 52237
" />
</g>
<g style="fill:#000000; fill-opacity:0.0; 
stroke:#000000; stroke-width:91.068778; stroke-opacity:1; 
stroke-linecap:round; stroke-linejoin:round;">
</g>
<g style="fill:#000000; fill-opacity:0.0; 
stroke:#000000; stroke-width:78.740342; stroke-opacity:1; 
stroke-linecap:round; stroke-linejoin:round;">
<text x="36445.364746" y="52631.622887"
textLength="18451.444183" font-size="1049.868648" lengthAdjust="spacingAndGlyphs"
text-anchor="start" opacity="0">0.650mm / 0.0256" (2 holes)</text>
<g class="stroked-text"><desc>0.650mm / 0.0256" (2 holes)</desc>
<path d="M36822 51806
L36897 51806
L36972 51844
L37009 51881
L37047 51956
L37084 52106
L37084 52294
L37047 52444
L37009 52519
L36972 52556
L36897 52594
L36822 52594
L36747 52556
L36709 52519
L36672 52444
L36634 52294
L36634 52106
L36672 51956
L36709 51881
L36747 51844
L36822 51806
" />
<path d="M37422 52519
L37459 52556
L37422 52594
L37384 52556
L37422 52519
L37422 52594
" />
<path d="M38134 51806
L37984 51806
L37909 51844
L37872 51881
L37797 51994
L37759 52144
L37759 52444
L37797 52519
L37834 52556
L37909 52594
L38059 52594
L38134 52556
L38172 52519
L38209 52444
L38209 52256
L38172 52181
L38134 52144
L38059 52106
L37909 52106
L37834 52144
L37797 52181
L37759 52256
" />
<path d="M38921 51806
L38546 51806
L38509 52181
L38546 52144
L38621 52106
L38809 52106
L38884 52144
L38921 52181
L38959 52256
L38959 52444
L38921 52519
L38884 52556
L38809 52594
L38621 52594
L38546 52556
L38509 52519
" />
<path d="M39446 51806
L39521 51806
L39596 51844
L39634 51881
L39671 51956
L39709 52106
L39709 52294
L39671 52444
L39634 52519
L39596 52556
L39521 52594
L39446 52594
L39371 52556
L39334 52519
L39296 52444
L39259 52294
L39259 52106
L39296 51956
L39334 51881
L39371 51844
L39446 51806
" />
<path d="M40046 52594
L40046 52069
" />
<path d="M40046 52144
L40084 52106
L40159 52069
L40271 52069
L40346 52106
L40384 52181
L40384 52594
" />
<path d="M40384 52181
L40421 52106
L40496 52069
L40609 52069
L40684 52106
L40721 52181
L40721 52594
" />
<path d="M41096 52594
L41096 52069
" />
<path d="M41096 52144
L41134 52106
L41209 52069
L41321 52069
L41396 52106
L41434 52181
L41434 52594
" />
<path d="M41434 52181
L41471 52106
L41546 52069
L41659 52069
L41734 52106
L41771 52181
L41771 52594
" />
<path d="M43308 51769
L42633 52781
" />
<path d="M44321 51806
L44396 51806
L44471 51844
L44508 51881
L44546 51956
L44583 52106
L44583 52294
L44546 52444
L44508 52519
L44471 52556
L44396 52594
L44321 52594
L44246 52556
L44208 52519
L44171 52444
L44133 52294
L44133 52106
L44171 51956
L44208 51881
L44246 51844
L44321 51806
" />
<path d="M44921 52519
L44958 52556
L44921 52594
L44883 52556
L44921 52519
L44921 52594
" />
<path d="M45446 51806
L45521 51806
L45596 51844
L45633 51881
L45671 51956
L45708 52106
L45708 52294
L45671 52444
L45633 52519
L45596 52556
L45521 52594
L45446 52594
L45371 52556
L45333 52519
L45296 52444
L45258 52294
L45258 52106
L45296 51956
L45333 51881
L45371 51844
L45446 51806
" />
<path d="M46008 51881
L46046 51844
L46121 51806
L46308 51806
L46383 51844
L46420 51881
L46458 51956
L46458 52031
L46420 52144
L45971 52594
L46458 52594
" />
<path d="M47170 51806
L46795 51806
L46758 52181
L46795 52144
L46870 52106
L47058 52106
L47133 52144
L47170 52181
L47208 52256
L47208 52444
L47170 52519
L47133 52556
L47058 52594
L46870 52594
L46795 52556
L46758 52519
" />
<path d="M47883 51806
L47733 51806
L47658 51844
L47620 51881
L47545 51994
L47508 52144
L47508 52444
L47545 52519
L47583 52556
L47658 52594
L47808 52594
L47883 52556
L47920 52519
L47958 52444
L47958 52256
L47920 52181
L47883 52144
L47808 52106
L47658 52106
L47583 52144
L47545 52181
L47508 52256
" />
<path d="M48258 51806
L48258 51956
" />
<path d="M48558 51806
L48558 51956
" />
<path d="M49720 52894
L49683 52856
L49608 52744
L49570 52669
L49533 52556
L49495 52369
L49495 52219
L49533 52031
L49570 51919
L49608 51844
L49683 51731
L49720 51694
" />
<path d="M49983 51881
L50020 51844
L50095 51806
L50283 51806
L50358 51844
L50395 51881
L50432 51956
L50432 52031
L50395 52144
L49945 52594
L50432 52594
" />
<path d="M51370 52594
L51370 51806
" />
<path d="M51707 52594
L51707 52181
L51670 52106
L51595 52069
L51482 52069
L51407 52106
L51370 52144
" />
<path d="M52195 52594
L52120 52556
L52082 52519
L52045 52444
L52045 52219
L52082 52144
L52120 52106
L52195 52069
L52307 52069
L52382 52106
L52420 52144
L52457 52219
L52457 52444
L52420 52519
L52382 52556
L52307 52594
L52195 52594
" />
<path d="M52907 52594
L52832 52556
L52795 52481
L52795 51806
" />
<path d="M53507 52556
L53432 52594
L53282 52594
L53207 52556
L53170 52481
L53170 52181
L53207 52106
L53282 52069
L53432 52069
L53507 52106
L53545 52181
L53545 52256
L53170 52331
" />
<path d="M53845 52556
L53920 52594
L54070 52594
L54145 52556
L54182 52481
L54182 52444
L54145 52369
L54070 52331
L53957 52331
L53882 52294
L53845 52219
L53845 52181
L53882 52106
L53957 52069
L54070 52069
L54145 52106
" />
<path d="M54444 52894
L54482 52856
L54557 52744
L54594 52669
L54632 52556
L54669 52369
L54669 52219
L54632 52031
L54594 51919
L54557 51844
L54482 51731
L54444 51694
" />
</g></g>
<g style="fill:#000000; fill-opacity:0.0; 
stroke:#000000; stroke-width:36.427511; stroke-opacity:1; 
stroke-linecap:round; stroke-linejoin:round;">
<path style="fill:#000000; fill-opacity:0.0; 
stroke:#000000; stroke-width:36.427511; stroke-opacity:1; 
stroke-linecap:round; stroke-linejoin:round;fill:none"
d="M 35604.617333,53406.084068
35604.617333,53148.500583
35347.033848,53148.500583
35347.033848,53406.084068
Z" /> 
</g>
<g style="fill:#000000; fill-opacity:0.0; 
stroke:#000000; stroke-width:91.068778; stroke-opacity:1; 
stroke-linecap:round; stroke-linejoin:round;">
</g>
<g style="fill:#000000; fill-opacity:0.0; 
stroke:#000000; stroke-width:78.740342; stroke-opacity:1; 
stroke-linecap:round; stroke-linejoin:round;">
<text x="36445.364746" y="53670.993126"
textLength="25575.553873" font-size="1049.868648" lengthAdjust="spacingAndGlyphs"
text-anchor="start" opacity="0">0.800mm / 0.0315" (36 holes + 2 slots)</text>
<g class="stroked-text"><desc>0.800mm / 0.0315" (36 holes + 2 slots)</desc>
<path d="M36822 52846
L36897 52846
L36972 52883
L37009 52921
L37047 52996
L37084 53146
L37084 53333
L37047 53483
L37009 53558
L36972 53596
L36897 53633
L36822 53633
L36747 53596
L36709 53558
L36672 53483
L36634 53333
L36634 53146
L36672 52996
L36709 52921
L36747 52883
L36822 52846
" />
<path d="M37422 53558
L37459 53596
L37422 53633
L37384 53596
L37422 53558
L37422 53633
" />
<path d="M37909 53183
L37834 53146
L37797 53108
L37759 53033
L37759 52996
L37797 52921
L37834 52883
L37909 52846
L38059 52846
L38134 52883
L38172 52921
L38209 52996
L38209 53033
L38172 53108
L38134 53146
L38059 53183
L37909 53183
L37834 53221
L37797 53258
L37759 53333
L37759 53483
L37797 53558
L37834 53596
L37909 53633
L38059 53633
L38134 53596
L38172 53558
L38209 53483
L38209 53333
L38172 53258
L38134 53221
L38059 53183
" />
<path d="M38696 52846
L38771 52846
L38846 52883
L38884 52921
L38921 52996
L38959 53146
L38959 53333
L38921 53483
L38884 53558
L38846 53596
L38771 53633
L38696 53633
L38621 53596
L38584 53558
L38546 53483
L38509 53333
L38509 53146
L38546 52996
L38584 52921
L38621 52883
L38696 52846
" />
<path d="M39446 52846
L39521 52846
L39596 52883
L39634 52921
L39671 52996
L39709 53146
L39709 53333
L39671 53483
L39634 53558
L39596 53596
L39521 53633
L39446 53633
L39371 53596
L39334 53558
L39296 53483
L39259 53333
L39259 53146
L39296 52996
L39334 52921
L39371 52883
L39446 52846
" />
<path d="M40046 53633
L40046 53108
" />
<path d="M40046 53183
L40084 53146
L40159 53108
L40271 53108
L40346 53146
L40384 53221
L40384 53633
" />
<path d="M40384 53221
L40421 53146
L40496 53108
L40609 53108
L40684 53146
L40721 53221
L40721 53633
" />
<path d="M41096 53633
L41096 53108
" />
<path d="M41096 53183
L41134 53146
L41209 53108
L41321 53108
L41396 53146
L41434 53221
L41434 53633
" />
<path d="M41434 53221
L41471 53146
L41546 53108
L41659 53108
L41734 53146
L41771 53221
L41771 53633
" />
<path d="M43308 52808
L42633 53820
" />
<path d="M44321 52846
L44396 52846
L44471 52883
L44508 52921
L44546 52996
L44583 53146
L44583 53333
L44546 53483
L44508 53558
L44471 53596
L44396 53633
L44321 53633
L44246 53596
L44208 53558
L44171 53483
L44133 53333
L44133 53146
L44171 52996
L44208 52921
L44246 52883
L44321 52846
" />
<path d="M44921 53558
L44958 53596
L44921 53633
L44883 53596
L44921 53558
L44921 53633
" />
<path d="M45446 52846
L45521 52846
L45596 52883
L45633 52921
L45671 52996
L45708 53146
L45708 53333
L45671 53483
L45633 53558
L45596 53596
L45521 53633
L45446 53633
L45371 53596
L45333 53558
L45296 53483
L45258 53333
L45258 53146
L45296 52996
L45333 52921
L45371 52883
L45446 52846
" />
<path d="M45971 52846
L46458 52846
L46196 53146
L46308 53146
L46383 53183
L46420 53221
L46458 53296
L46458 53483
L46420 53558
L46383 53596
L46308 53633
L46083 53633
L46008 53596
L45971 53558
" />
<path d="M47208 53633
L46758 53633
" />
<path d="M46983 53633
L46983 52846
L46908 52958
L46833 53033
L46758 53071
" />
<path d="M47920 52846
L47545 52846
L47508 53221
L47545 53183
L47620 53146
L47808 53146
L47883 53183
L47920 53221
L47958 53296
L47958 53483
L47920 53558
L47883 53596
L47808 53633
L47620 53633
L47545 53596
L47508 53558
" />
<path d="M48258 52846
L48258 52996
" />
<path d="M48558 52846
L48558 52996
" />
<path d="M49720 53933
L49683 53895
L49608 53783
L49570 53708
L49533 53596
L49495 53408
L49495 53258
L49533 53071
L49570 52958
L49608 52883
L49683 52771
L49720 52733
" />
<path d="M49945 52846
L50432 52846
L50170 53146
L50283 53146
L50358 53183
L50395 53221
L50432 53296
L50432 53483
L50395 53558
L50358 53596
L50283 53633
L50058 53633
L49983 53596
L49945 53558
" />
<path d="M51107 52846
L50957 52846
L50882 52883
L50845 52921
L50770 53033
L50732 53183
L50732 53483
L50770 53558
L50807 53596
L50882 53633
L51032 53633
L51107 53596
L51145 53558
L51182 53483
L51182 53296
L51145 53221
L51107 53183
L51032 53146
L50882 53146
L50807 53183
L50770 53221
L50732 53296
" />
<path d="M52120 53633
L52120 52846
" />
<path d="M52457 53633
L52457 53221
L52420 53146
L52345 53108
L52232 53108
L52157 53146
L52120 53183
" />
<path d="M52945 53633
L52870 53596
L52832 53558
L52795 53483
L52795 53258
L52832 53183
L52870 53146
L52945 53108
L53057 53108
L53132 53146
L53170 53183
L53207 53258
L53207 53483
L53170 53558
L53132 53596
L53057 53633
L52945 53633
" />
<path d="M53657 53633
L53582 53596
L53545 53521
L53545 52846
" />
<path d="M54257 53596
L54182 53633
L54032 53633
L53957 53596
L53920 53521
L53920 53221
L53957 53146
L54032 53108
L54182 53108
L54257 53146
L54295 53221
L54295 53296
L53920 53371
" />
<path d="M54594 53596
L54669 53633
L54819 53633
L54894 53596
L54932 53521
L54932 53483
L54894 53408
L54819 53371
L54707 53371
L54632 53333
L54594 53258
L54594 53221
L54632 53146
L54707 53108
L54819 53108
L54894 53146
" />
<path d="M55869 53333
L56469 53333
" />
<path d="M56169 53633
L56169 53033
" />
<path d="M57407 52921
L57444 52883
L57519 52846
L57707 52846
L57782 52883
L57819 52921
L57857 52996
L57857 53071
L57819 53183
L57369 53633
L57857 53633
" />
<path d="M58756 53596
L58831 53633
L58981 53633
L59056 53596
L59094 53521
L59094 53483
L59056 53408
L58981 53371
L58869 53371
L58794 53333
L58756 53258
L58756 53221
L58794 53146
L58869 53108
L58981 53108
L59056 53146
" />
<path d="M59544 53633
L59469 53596
L59431 53521
L59431 52846
" />
<path d="M59956 53633
L59881 53596
L59844 53558
L59806 53483
L59806 53258
L59844 53183
L59881 53146
L59956 53108
L60069 53108
L60144 53146
L60181 53183
L60219 53258
L60219 53483
L60181 53558
L60144 53596
L60069 53633
L59956 53633
" />
<path d="M60444 53108
L60744 53108
" />
<path d="M60556 52846
L60556 53521
L60594 53596
L60669 53633
L60744 53633
" />
<path d="M60969 53596
L61044 53633
L61194 53633
L61269 53596
L61306 53521
L61306 53483
L61269 53408
L61194 53371
L61081 53371
L61006 53333
L60969 53258
L60969 53221
L61006 53146
L61081 53108
L61194 53108
L61269 53146
" />
<path d="M61569 53933
L61606 53895
L61681 53783
L61719 53708
L61756 53596
L61794 53408
L61794 53258
L61756 53071
L61719 52958
L61681 52883
L61606 52771
L61569 52733
" />
</g></g>
<g style="fill:#000000; fill-opacity:0.0; 
stroke:#000000; stroke-width:40.980950; stroke-opacity:1; 
stroke-linecap:round; stroke-linejoin:round;">
<path style="fill:#000000; fill-opacity:0.0; 
stroke:#000000; stroke-width:40.980950; stroke-opacity:1; 
stroke-linecap:round; stroke-linejoin:round;fill:none"
d="M 35453.058396,54521.567315
35657.963146,54316.662565
35453.058396,54111.757815
35248.153646,54316.662565
Z" /> 
</g>
<g style="fill:#000000; fill-opacity:0.0; 
stroke:#000000; stroke-width:91.068778; stroke-opacity:1; 
stroke-linecap:round; stroke-linejoin:round;">
</g>
<g style="fill:#000000; fill-opacity:0.0; 
stroke:#000000; stroke-width:78.740342; stroke-opacity:1; 
stroke-linecap:round; stroke-linejoin:round;">
<text x="36445.364746" y="54710.363365"
textLength="19201.350490" font-size="1049.868648" lengthAdjust="spacingAndGlyphs"
text-anchor="start" opacity="0">0.900mm / 0.0354" (20 holes)</text>
<g class="stroked-text"><desc>0.900mm / 0.0354" (20 holes)</desc>
<path d="M36822 53885
L36897 53885
L36972 53922
L37009 53960
L37047 54035
L37084 54185
L37084 54372
L37047 54522
L37009 54597
L36972 54635
L36897 54672
L36822 54672
L36747 54635
L36709 54597
L36672 54522
L36634 54372
L36634 54185
L36672 54035
L36709 53960
L36747 53922
L36822 53885
" />
<path d="M37422 54597
L37459 54635
L37422 54672
L37384 54635
L37422 54597
L37422 54672
" />
<path d="M37834 54672
L37984 54672
L38059 54635
L38097 54597
L38172 54485
L38209 54335
L38209 54035
L38172 53960
L38134 53922
L38059 53885
L37909 53885
L37834 53922
L37797 53960
L37759 54035
L37759 54222
L37797 54297
L37834 54335
L37909 54372
L38059 54372
L38134 54335
L38172 54297
L38209 54222
" />
<path d="M38696 53885
L38771 53885
L38846 53922
L38884 53960
L38921 54035
L38959 54185
L38959 54372
L38921 54522
L38884 54597
L38846 54635
L38771 54672
L38696 54672
L38621 54635
L38584 54597
L38546 54522
L38509 54372
L38509 54185
L38546 54035
L38584 53960
L38621 53922
L38696 53885
" />
<path d="M39446 53885
L39521 53885
L39596 53922
L39634 53960
L39671 54035
L39709 54185
L39709 54372
L39671 54522
L39634 54597
L39596 54635
L39521 54672
L39446 54672
L39371 54635
L39334 54597
L39296 54522
L39259 54372
L39259 54185
L39296 54035
L39334 53960
L39371 53922
L39446 53885
" />
<path d="M40046 54672
L40046 54147
" />
<path d="M40046 54222
L40084 54185
L40159 54147
L40271 54147
L40346 54185
L40384 54260
L40384 54672
" />
<path d="M40384 54260
L40421 54185
L40496 54147
L40609 54147
L40684 54185
L40721 54260
L40721 54672
" />
<path d="M41096 54672
L41096 54147
" />
<path d="M41096 54222
L41134 54185
L41209 54147
L41321 54147
L41396 54185
L41434 54260
L41434 54672
" />
<path d="M41434 54260
L41471 54185
L41546 54147
L41659 54147
L41734 54185
L41771 54260
L41771 54672
" />
<path d="M43308 53847
L42633 54860
" />
<path d="M44321 53885
L44396 53885
L44471 53922
L44508 53960
L44546 54035
L44583 54185
L44583 54372
L44546 54522
L44508 54597
L44471 54635
L44396 54672
L44321 54672
L44246 54635
L44208 54597
L44171 54522
L44133 54372
L44133 54185
L44171 54035
L44208 53960
L44246 53922
L44321 53885
" />
<path d="M44921 54597
L44958 54635
L44921 54672
L44883 54635
L44921 54597
L44921 54672
" />
<path d="M45446 53885
L45521 53885
L45596 53922
L45633 53960
L45671 54035
L45708 54185
L45708 54372
L45671 54522
L45633 54597
L45596 54635
L45521 54672
L45446 54672
L45371 54635
L45333 54597
L45296 54522
L45258 54372
L45258 54185
L45296 54035
L45333 53960
L45371 53922
L45446 53885
" />
<path d="M45971 53885
L46458 53885
L46196 54185
L46308 54185
L46383 54222
L46420 54260
L46458 54335
L46458 54522
L46420 54597
L46383 54635
L46308 54672
L46083 54672
L46008 54635
L45971 54597
" />
<path d="M47170 53885
L46795 53885
L46758 54260
L46795 54222
L46870 54185
L47058 54185
L47133 54222
L47170 54260
L47208 54335
L47208 54522
L47170 54597
L47133 54635
L47058 54672
L46870 54672
L46795 54635
L46758 54597
" />
<path d="M47883 54147
L47883 54672
" />
<path d="M47695 53847
L47508 54410
L47995 54410
" />
<path d="M48258 53885
L48258 54035
" />
<path d="M48558 53885
L48558 54035
" />
<path d="M49720 54972
L49683 54935
L49608 54822
L49570 54747
L49533 54635
L49495 54447
L49495 54297
L49533 54110
L49570 53997
L49608 53922
L49683 53810
L49720 53772
" />
<path d="M49983 53960
L50020 53922
L50095 53885
L50283 53885
L50358 53922
L50395 53960
L50432 54035
L50432 54110
L50395 54222
L49945 54672
L50432 54672
" />
<path d="M50920 53885
L50995 53885
L51070 53922
L51107 53960
L51145 54035
L51182 54185
L51182 54372
L51145 54522
L51107 54597
L51070 54635
L50995 54672
L50920 54672
L50845 54635
L50807 54597
L50770 54522
L50732 54372
L50732 54185
L50770 54035
L50807 53960
L50845 53922
L50920 53885
" />
<path d="M52120 54672
L52120 53885
" />
<path d="M52457 54672
L52457 54260
L52420 54185
L52345 54147
L52232 54147
L52157 54185
L52120 54222
" />
<path d="M52945 54672
L52870 54635
L52832 54597
L52795 54522
L52795 54297
L52832 54222
L52870 54185
L52945 54147
L53057 54147
L53132 54185
L53170 54222
L53207 54297
L53207 54522
L53170 54597
L53132 54635
L53057 54672
L52945 54672
" />
<path d="M53657 54672
L53582 54635
L53545 54560
L53545 53885
" />
<path d="M54257 54635
L54182 54672
L54032 54672
L53957 54635
L53920 54560
L53920 54260
L53957 54185
L54032 54147
L54182 54147
L54257 54185
L54295 54260
L54295 54335
L53920 54410
" />
<path d="M54594 54635
L54669 54672
L54819 54672
L54894 54635
L54932 54560
L54932 54522
L54894 54447
L54819 54410
L54707 54410
L54632 54372
L54594 54297
L54594 54260
L54632 54185
L54707 54147
L54819 54147
L54894 54185
" />
<path d="M55194 54972
L55232 54935
L55307 54822
L55344 54747
L55382 54635
L55419 54447
L55419 54297
L55382 54110
L55344 53997
L55307 53922
L55232 53810
L55194 53772
" />
</g></g>
<g style="fill:#000000; fill-opacity:0.0; 
stroke:#000000; stroke-width:45.534389; stroke-opacity:1; 
stroke-linecap:round; stroke-linejoin:round;">
<path d="M35202 55128
L35657 55583
" />
<path d="M35657 55128
L35202 55583
" />
<circle cx="35430.291201" cy="55356.032804" r="227.671945" /> 
</g>
<g style="fill:#000000; fill-opacity:0.0; 
stroke:#000000; stroke-width:91.068778; stroke-opacity:1; 
stroke-linecap:round; stroke-linejoin:round;">
</g>
<g style="fill:#000000; fill-opacity:0.0; 
stroke:#000000; stroke-width:78.740342; stroke-opacity:1; 
stroke-linecap:round; stroke-linejoin:round;">
<text x="36445.364746" y="55749.733604"
textLength="24825.647566" font-size="1049.868648" lengthAdjust="spacingAndGlyphs"
text-anchor="start" opacity="0">1.000mm / 0.0394" (0 holes + 2 slots)</text>
<g class="stroked-text"><desc>1.000mm / 0.0394" (0 holes + 2 slots)</desc>
<path d="M37084 55712
L36634 55712
" />
<path d="M36859 55712
L36859 54924
L36784 55037
L36709 55112
L36634 55149
" />
<path d="M37422 55637
L37459 55674
L37422 55712
L37384 55674
L37422 55637
L37422 55712
" />
<path d="M37947 54924
L38022 54924
L38097 54962
L38134 54999
L38172 55074
L38209 55224
L38209 55412
L38172 55562
L38134 55637
L38097 55674
L38022 55712
L37947 55712
L37872 55674
L37834 55637
L37797 55562
L37759 55412
L37759 55224
L37797 55074
L37834 54999
L37872 54962
L37947 54924
" />
<path d="M38696 54924
L38771 54924
L38846 54962
L38884 54999
L38921 55074
L38959 55224
L38959 55412
L38921 55562
L38884 55637
L38846 55674
L38771 55712
L38696 55712
L38621 55674
L38584 55637
L38546 55562
L38509 55412
L38509 55224
L38546 55074
L38584 54999
L38621 54962
L38696 54924
" />
<path d="M39446 54924
L39521 54924
L39596 54962
L39634 54999
L39671 55074
L39709 55224
L39709 55412
L39671 55562
L39634 55637
L39596 55674
L39521 55712
L39446 55712
L39371 55674
L39334 55637
L39296 55562
L39259 55412
L39259 55224
L39296 55074
L39334 54999
L39371 54962
L39446 54924
" />
<path d="M40046 55712
L40046 55187
" />
<path d="M40046 55262
L40084 55224
L40159 55187
L40271 55187
L40346 55224
L40384 55299
L40384 55712
" />
<path d="M40384 55299
L40421 55224
L40496 55187
L40609 55187
L40684 55224
L40721 55299
L40721 55712
" />
<path d="M41096 55712
L41096 55187
" />
<path d="M41096 55262
L41134 55224
L41209 55187
L41321 55187
L41396 55224
L41434 55299
L41434 55712
" />
<path d="M41434 55299
L41471 55224
L41546 55187
L41659 55187
L41734 55224
L41771 55299
L41771 55712
" />
<path d="M43308 54887
L42633 55899
" />
<path d="M44321 54924
L44396 54924
L44471 54962
L44508 54999
L44546 55074
L44583 55224
L44583 55412
L44546 55562
L44508 55637
L44471 55674
L44396 55712
L44321 55712
L44246 55674
L44208 55637
L44171 55562
L44133 55412
L44133 55224
L44171 55074
L44208 54999
L44246 54962
L44321 54924
" />
<path d="M44921 55637
L44958 55674
L44921 55712
L44883 55674
L44921 55637
L44921 55712
" />
<path d="M45446 54924
L45521 54924
L45596 54962
L45633 54999
L45671 55074
L45708 55224
L45708 55412
L45671 55562
L45633 55637
L45596 55674
L45521 55712
L45446 55712
L45371 55674
L45333 55637
L45296 55562
L45258 55412
L45258 55224
L45296 55074
L45333 54999
L45371 54962
L45446 54924
" />
<path d="M45971 54924
L46458 54924
L46196 55224
L46308 55224
L46383 55262
L46420 55299
L46458 55374
L46458 55562
L46420 55637
L46383 55674
L46308 55712
L46083 55712
L46008 55674
L45971 55637
" />
<path d="M46833 55712
L46983 55712
L47058 55674
L47095 55637
L47170 55524
L47208 55374
L47208 55074
L47170 54999
L47133 54962
L47058 54924
L46908 54924
L46833 54962
L46795 54999
L46758 55074
L46758 55262
L46795 55337
L46833 55374
L46908 55412
L47058 55412
L47133 55374
L47170 55337
L47208 55262
" />
<path d="M47883 55187
L47883 55712
" />
<path d="M47695 54887
L47508 55449
L47995 55449
" />
<path d="M48258 54924
L48258 55074
" />
<path d="M48558 54924
L48558 55074
" />
<path d="M49720 56012
L49683 55974
L49608 55862
L49570 55787
L49533 55674
L49495 55487
L49495 55337
L49533 55149
L49570 55037
L49608 54962
L49683 54849
L49720 54812
" />
<path d="M50170 54924
L50245 54924
L50320 54962
L50358 54999
L50395 55074
L50432 55224
L50432 55412
L50395 55562
L50358 55637
L50320 55674
L50245 55712
L50170 55712
L50095 55674
L50058 55637
L50020 55562
L49983 55412
L49983 55224
L50020 55074
L50058 54999
L50095 54962
L50170 54924
" />
<path d="M51370 55712
L51370 54924
" />
<path d="M51707 55712
L51707 55299
L51670 55224
L51595 55187
L51482 55187
L51407 55224
L51370 55262
" />
<path d="M52195 55712
L52120 55674
L52082 55637
L52045 55562
L52045 55337
L52082 55262
L52120 55224
L52195 55187
L52307 55187
L52382 55224
L52420 55262
L52457 55337
L52457 55562
L52420 55637
L52382 55674
L52307 55712
L52195 55712
" />
<path d="M52907 55712
L52832 55674
L52795 55599
L52795 54924
" />
<path d="M53507 55674
L53432 55712
L53282 55712
L53207 55674
L53170 55599
L53170 55299
L53207 55224
L53282 55187
L53432 55187
L53507 55224
L53545 55299
L53545 55374
L53170 55449
" />
<path d="M53845 55674
L53920 55712
L54070 55712
L54145 55674
L54182 55599
L54182 55562
L54145 55487
L54070 55449
L53957 55449
L53882 55412
L53845 55337
L53845 55299
L53882 55224
L53957 55187
L54070 55187
L54145 55224
" />
<path d="M55119 55412
L55719 55412
" />
<path d="M55419 55712
L55419 55112
" />
<path d="M56657 54999
L56694 54962
L56769 54924
L56957 54924
L57032 54962
L57069 54999
L57107 55074
L57107 55149
L57069 55262
L56619 55712
L57107 55712
" />
<path d="M58007 55674
L58082 55712
L58232 55712
L58307 55674
L58344 55599
L58344 55562
L58307 55487
L58232 55449
L58119 55449
L58044 55412
L58007 55337
L58007 55299
L58044 55224
L58119 55187
L58232 55187
L58307 55224
" />
<path d="M58794 55712
L58719 55674
L58681 55599
L58681 54924
" />
<path d="M59206 55712
L59131 55674
L59094 55637
L59056 55562
L59056 55337
L59094 55262
L59131 55224
L59206 55187
L59319 55187
L59394 55224
L59431 55262
L59469 55337
L59469 55562
L59431 55637
L59394 55674
L59319 55712
L59206 55712
" />
<path d="M59694 55187
L59994 55187
" />
<path d="M59806 54924
L59806 55599
L59844 55674
L59919 55712
L59994 55712
" />
<path d="M60219 55674
L60294 55712
L60444 55712
L60519 55674
L60556 55599
L60556 55562
L60519 55487
L60444 55449
L60331 55449
L60256 55412
L60219 55337
L60219 55299
L60256 55224
L60331 55187
L60444 55187
L60519 55224
" />
<path d="M60819 56012
L60856 55974
L60931 55862
L60969 55787
L61006 55674
L61044 55487
L61044 55337
L61006 55149
L60969 55037
L60931 54962
L60856 54849
L60819 54812
" />
</g></g>
<g style="fill:#000000; fill-opacity:0.0; 
stroke:#000000; stroke-width:50.087828; stroke-opacity:1; 
stroke-linecap:round; stroke-linejoin:round;">
<path d="M35157 56144
L35657 56645
" />
<path d="M35657 56144
L35157 56645
" />
<path d="M35407 56144
L35407 56645
" />
<path d="M35157 56395
L35657 56395
" />
</g>
<g style="fill:#000000; fill-opacity:0.0; 
stroke:#000000; stroke-width:91.068778; stroke-opacity:1; 
stroke-linecap:round; stroke-linejoin:round;">
</g>
<g style="fill:#000000; fill-opacity:0.0; 
stroke:#000000; stroke-width:78.740342; stroke-opacity:1; 
stroke-linecap:round; stroke-linejoin:round;">
<text x="36445.364746" y="56789.103843"
textLength="17814.024209" font-size="1049.868648" lengthAdjust="spacingAndGlyphs"
text-anchor="start" opacity="0">1.100mm / 0.0433" (1 hole)</text>
<g class="stroked-text"><desc>1.100mm / 0.0433" (1 hole)</desc>
<path d="M37084 56751
L36634 56751
" />
<path d="M36859 56751
L36859 55964
L36784 56076
L36709 56151
L36634 56189
" />
<path d="M37422 56676
L37459 56714
L37422 56751
L37384 56714
L37422 56676
L37422 56751
" />
<path d="M38209 56751
L37759 56751
" />
<path d="M37984 56751
L37984 55964
L37909 56076
L37834 56151
L37759 56189
" />
<path d="M38696 55964
L38771 55964
L38846 56001
L38884 56039
L38921 56114
L38959 56264
L38959 56451
L38921 56601
L38884 56676
L38846 56714
L38771 56751
L38696 56751
L38621 56714
L38584 56676
L38546 56601
L38509 56451
L38509 56264
L38546 56114
L38584 56039
L38621 56001
L38696 55964
" />
<path d="M39446 55964
L39521 55964
L39596 56001
L39634 56039
L39671 56114
L39709 56264
L39709 56451
L39671 56601
L39634 56676
L39596 56714
L39521 56751
L39446 56751
L39371 56714
L39334 56676
L39296 56601
L39259 56451
L39259 56264
L39296 56114
L39334 56039
L39371 56001
L39446 55964
" />
<path d="M40046 56751
L40046 56226
" />
<path d="M40046 56301
L40084 56264
L40159 56226
L40271 56226
L40346 56264
L40384 56339
L40384 56751
" />
<path d="M40384 56339
L40421 56264
L40496 56226
L40609 56226
L40684 56264
L40721 56339
L40721 56751
" />
<path d="M41096 56751
L41096 56226
" />
<path d="M41096 56301
L41134 56264
L41209 56226
L41321 56226
L41396 56264
L41434 56339
L41434 56751
" />
<path d="M41434 56339
L41471 56264
L41546 56226
L41659 56226
L41734 56264
L41771 56339
L41771 56751
" />
<path d="M43308 55926
L42633 56939
" />
<path d="M44321 55964
L44396 55964
L44471 56001
L44508 56039
L44546 56114
L44583 56264
L44583 56451
L44546 56601
L44508 56676
L44471 56714
L44396 56751
L44321 56751
L44246 56714
L44208 56676
L44171 56601
L44133 56451
L44133 56264
L44171 56114
L44208 56039
L44246 56001
L44321 55964
" />
<path d="M44921 56676
L44958 56714
L44921 56751
L44883 56714
L44921 56676
L44921 56751
" />
<path d="M45446 55964
L45521 55964
L45596 56001
L45633 56039
L45671 56114
L45708 56264
L45708 56451
L45671 56601
L45633 56676
L45596 56714
L45521 56751
L45446 56751
L45371 56714
L45333 56676
L45296 56601
L45258 56451
L45258 56264
L45296 56114
L45333 56039
L45371 56001
L45446 55964
" />
<path d="M46383 56226
L46383 56751
" />
<path d="M46196 55926
L46008 56489
L46495 56489
" />
<path d="M46720 55964
L47208 55964
L46945 56264
L47058 56264
L47133 56301
L47170 56339
L47208 56414
L47208 56601
L47170 56676
L47133 56714
L47058 56751
L46833 56751
L46758 56714
L46720 56676
" />
<path d="M47470 55964
L47958 55964
L47695 56264
L47808 56264
L47883 56301
L47920 56339
L47958 56414
L47958 56601
L47920 56676
L47883 56714
L47808 56751
L47583 56751
L47508 56714
L47470 56676
" />
<path d="M48258 55964
L48258 56114
" />
<path d="M48558 55964
L48558 56114
" />
<path d="M49720 57051
L49683 57014
L49608 56901
L49570 56826
L49533 56714
L49495 56526
L49495 56376
L49533 56189
L49570 56076
L49608 56001
L49683 55889
L49720 55851
" />
<path d="M50432 56751
L49983 56751
" />
<path d="M50208 56751
L50208 55964
L50133 56076
L50058 56151
L49983 56189
" />
<path d="M51370 56751
L51370 55964
" />
<path d="M51707 56751
L51707 56339
L51670 56264
L51595 56226
L51482 56226
L51407 56264
L51370 56301
" />
<path d="M52195 56751
L52120 56714
L52082 56676
L52045 56601
L52045 56376
L52082 56301
L52120 56264
L52195 56226
L52307 56226
L52382 56264
L52420 56301
L52457 56376
L52457 56601
L52420 56676
L52382 56714
L52307 56751
L52195 56751
" />
<path d="M52907 56751
L52832 56714
L52795 56639
L52795 55964
" />
<path d="M53507 56714
L53432 56751
L53282 56751
L53207 56714
L53170 56639
L53170 56339
L53207 56264
L53282 56226
L53432 56226
L53507 56264
L53545 56339
L53545 56414
L53170 56489
" />
<path d="M53807 57051
L53845 57014
L53920 56901
L53957 56826
L53995 56714
L54032 56526
L54032 56376
L53995 56189
L53957 56076
L53920 56001
L53845 55889
L53807 55851
" />
</g></g>
<g style="fill:#000000; fill-opacity:0.0; 
stroke:#000000; stroke-width:68.301583; stroke-opacity:1; 
stroke-linecap:round; stroke-linejoin:round;">
<path d="M34974 57093
L35657 57776
" />
<path d="M35657 57093
L34974 57776
" />
<path style="fill:#000000; fill-opacity:0.0; 
stroke:#000000; stroke-width:68.301583; stroke-opacity:1; 
stroke-linecap:round; stroke-linejoin:round;fill:none"
d="M 35557.940031,57676.258084
35557.940031,57193.288481
35074.970427,57193.288481
35074.970427,57676.258084
Z" /> 
</g>
<g style="fill:#000000; fill-opacity:0.0; 
stroke:#000000; stroke-width:91.068778; stroke-opacity:1; 
stroke-linecap:round; stroke-linejoin:round;">
</g>
<g style="fill:#000000; fill-opacity:0.0; 
stroke:#000000; stroke-width:78.740342; stroke-opacity:1; 
stroke-linecap:round; stroke-linejoin:round;">
<text x="36445.364746" y="57828.474082"
textLength="18451.444183" font-size="1049.868648" lengthAdjust="spacingAndGlyphs"
text-anchor="start" opacity="0">1.500mm / 0.0591" (4 holes)</text>
<g class="stroked-text"><desc>1.500mm / 0.0591" (4 holes)</desc>
<path d="M37084 57790
L36634 57790
" />
<path d="M36859 57790
L36859 57003
L36784 57116
L36709 57191
L36634 57228
" />
<path d="M37422 57715
L37459 57753
L37422 57790
L37384 57753
L37422 57715
L37422 57790
" />
<path d="M38172 57003
L37797 57003
L37759 57378
L37797 57341
L37872 57303
L38059 57303
L38134 57341
L38172 57378
L38209 57453
L38209 57640
L38172 57715
L38134 57753
L38059 57790
L37872 57790
L37797 57753
L37759 57715
" />
<path d="M38696 57003
L38771 57003
L38846 57041
L38884 57078
L38921 57153
L38959 57303
L38959 57491
L38921 57640
L38884 57715
L38846 57753
L38771 57790
L38696 57790
L38621 57753
L38584 57715
L38546 57640
L38509 57491
L38509 57303
L38546 57153
L38584 57078
L38621 57041
L38696 57003
" />
<path d="M39446 57003
L39521 57003
L39596 57041
L39634 57078
L39671 57153
L39709 57303
L39709 57491
L39671 57640
L39634 57715
L39596 57753
L39521 57790
L39446 57790
L39371 57753
L39334 57715
L39296 57640
L39259 57491
L39259 57303
L39296 57153
L39334 57078
L39371 57041
L39446 57003
" />
<path d="M40046 57790
L40046 57266
" />
<path d="M40046 57341
L40084 57303
L40159 57266
L40271 57266
L40346 57303
L40384 57378
L40384 57790
" />
<path d="M40384 57378
L40421 57303
L40496 57266
L40609 57266
L40684 57303
L40721 57378
L40721 57790
" />
<path d="M41096 57790
L41096 57266
" />
<path d="M41096 57341
L41134 57303
L41209 57266
L41321 57266
L41396 57303
L41434 57378
L41434 57790
" />
<path d="M41434 57378
L41471 57303
L41546 57266
L41659 57266
L41734 57303
L41771 57378
L41771 57790
" />
<path d="M43308 56966
L42633 57978
" />
<path d="M44321 57003
L44396 57003
L44471 57041
L44508 57078
L44546 57153
L44583 57303
L44583 57491
L44546 57640
L44508 57715
L44471 57753
L44396 57790
L44321 57790
L44246 57753
L44208 57715
L44171 57640
L44133 57491
L44133 57303
L44171 57153
L44208 57078
L44246 57041
L44321 57003
" />
<path d="M44921 57715
L44958 57753
L44921 57790
L44883 57753
L44921 57715
L44921 57790
" />
<path d="M45446 57003
L45521 57003
L45596 57041
L45633 57078
L45671 57153
L45708 57303
L45708 57491
L45671 57640
L45633 57715
L45596 57753
L45521 57790
L45446 57790
L45371 57753
L45333 57715
L45296 57640
L45258 57491
L45258 57303
L45296 57153
L45333 57078
L45371 57041
L45446 57003
" />
<path d="M46420 57003
L46046 57003
L46008 57378
L46046 57341
L46121 57303
L46308 57303
L46383 57341
L46420 57378
L46458 57453
L46458 57640
L46420 57715
L46383 57753
L46308 57790
L46121 57790
L46046 57753
L46008 57715
" />
<path d="M46833 57790
L46983 57790
L47058 57753
L47095 57715
L47170 57603
L47208 57453
L47208 57153
L47170 57078
L47133 57041
L47058 57003
L46908 57003
L46833 57041
L46795 57078
L46758 57153
L46758 57341
L46795 57416
L46833 57453
L46908 57491
L47058 57491
L47133 57453
L47170 57416
L47208 57341
" />
<path d="M47958 57790
L47508 57790
" />
<path d="M47733 57790
L47733 57003
L47658 57116
L47583 57191
L47508 57228
" />
<path d="M48258 57003
L48258 57153
" />
<path d="M48558 57003
L48558 57153
" />
<path d="M49720 58090
L49683 58053
L49608 57940
L49570 57865
L49533 57753
L49495 57566
L49495 57416
L49533 57228
L49570 57116
L49608 57041
L49683 56928
L49720 56891
" />
<path d="M50358 57266
L50358 57790
" />
<path d="M50170 56966
L49983 57528
L50470 57528
" />
<path d="M51370 57790
L51370 57003
" />
<path d="M51707 57790
L51707 57378
L51670 57303
L51595 57266
L51482 57266
L51407 57303
L51370 57341
" />
<path d="M52195 57790
L52120 57753
L52082 57715
L52045 57640
L52045 57416
L52082 57341
L52120 57303
L52195 57266
L52307 57266
L52382 57303
L52420 57341
L52457 57416
L52457 57640
L52420 57715
L52382 57753
L52307 57790
L52195 57790
" />
<path d="M52907 57790
L52832 57753
L52795 57678
L52795 57003
" />
<path d="M53507 57753
L53432 57790
L53282 57790
L53207 57753
L53170 57678
L53170 57378
L53207 57303
L53282 57266
L53432 57266
L53507 57303
L53545 57378
L53545 57453
L53170 57528
" />
<path d="M53845 57753
L53920 57790
L54070 57790
L54145 57753
L54182 57678
L54182 57640
L54145 57566
L54070 57528
L53957 57528
L53882 57491
L53845 57416
L53845 57378
L53882 57303
L53957 57266
L54070 57266
L54145 57303
" />
<path d="M54444 58090
L54482 58053
L54557 57940
L54594 57865
L54632 57753
L54669 57566
L54669 57416
L54632 57228
L54594 57116
L54557 57041
L54482 56928
L54444 56891
" />
</g></g>
<g style="fill:#000000; fill-opacity:0.0; 
stroke:#000000; stroke-width:78.739887; stroke-opacity:1; 
stroke-linecap:round; stroke-linejoin:round;">
<path d="M34870 58196
L35657 58983
" />
<path d="M35657 58196
L34870 58983
" />
<path style="fill:#000000; fill-opacity:0.0; 
stroke:#000000; stroke-width:78.739887; stroke-opacity:1; 
stroke-linecap:round; stroke-linejoin:round;fill:none"
d="M 35264.262346,58983.930603
35657.963146,58590.229803
35264.262346,58196.529003
34870.561546,58590.229803
Z" /> 
</g>
<g style="fill:#000000; fill-opacity:0.0; 
stroke:#000000; stroke-width:91.068778; stroke-opacity:1; 
stroke-linecap:round; stroke-linejoin:round;">
</g>
<g style="fill:#000000; fill-opacity:0.0; 
stroke:#000000; stroke-width:78.740342; stroke-opacity:1; 
stroke-linecap:round; stroke-linejoin:round;">
<text x="36445.364746" y="58983.930603"
textLength="18451.444183" font-size="1049.868648" lengthAdjust="spacingAndGlyphs"
text-anchor="start" opacity="0">2.400mm / 0.0945" (2 holes)</text>
<g class="stroked-text"><desc>2.400mm / 0.0945" (2 holes)</desc>
<path d="M36634 58234
L36672 58196
L36747 58159
L36934 58159
L37009 58196
L37047 58234
L37084 58309
L37084 58384
L37047 58496
L36597 58946
L37084 58946
" />
<path d="M37422 58871
L37459 58908
L37422 58946
L37384 58908
L37422 58871
L37422 58946
" />
<path d="M38134 58421
L38134 58946
" />
<path d="M37947 58121
L37759 58683
L38247 58683
" />
<path d="M38696 58159
L38771 58159
L38846 58196
L38884 58234
L38921 58309
L38959 58458
L38959 58646
L38921 58796
L38884 58871
L38846 58908
L38771 58946
L38696 58946
L38621 58908
L38584 58871
L38546 58796
L38509 58646
L38509 58458
L38546 58309
L38584 58234
L38621 58196
L38696 58159
" />
<path d="M39446 58159
L39521 58159
L39596 58196
L39634 58234
L39671 58309
L39709 58458
L39709 58646
L39671 58796
L39634 58871
L39596 58908
L39521 58946
L39446 58946
L39371 58908
L39334 58871
L39296 58796
L39259 58646
L39259 58458
L39296 58309
L39334 58234
L39371 58196
L39446 58159
" />
<path d="M40046 58946
L40046 58421
" />
<path d="M40046 58496
L40084 58458
L40159 58421
L40271 58421
L40346 58458
L40384 58533
L40384 58946
" />
<path d="M40384 58533
L40421 58458
L40496 58421
L40609 58421
L40684 58458
L40721 58533
L40721 58946
" />
<path d="M41096 58946
L41096 58421
" />
<path d="M41096 58496
L41134 58458
L41209 58421
L41321 58421
L41396 58458
L41434 58533
L41434 58946
" />
<path d="M41434 58533
L41471 58458
L41546 58421
L41659 58421
L41734 58458
L41771 58533
L41771 58946
" />
<path d="M43308 58121
L42633 59133
" />
<path d="M44321 58159
L44396 58159
L44471 58196
L44508 58234
L44546 58309
L44583 58458
L44583 58646
L44546 58796
L44508 58871
L44471 58908
L44396 58946
L44321 58946
L44246 58908
L44208 58871
L44171 58796
L44133 58646
L44133 58458
L44171 58309
L44208 58234
L44246 58196
L44321 58159
" />
<path d="M44921 58871
L44958 58908
L44921 58946
L44883 58908
L44921 58871
L44921 58946
" />
<path d="M45446 58159
L45521 58159
L45596 58196
L45633 58234
L45671 58309
L45708 58458
L45708 58646
L45671 58796
L45633 58871
L45596 58908
L45521 58946
L45446 58946
L45371 58908
L45333 58871
L45296 58796
L45258 58646
L45258 58458
L45296 58309
L45333 58234
L45371 58196
L45446 58159
" />
<path d="M46083 58946
L46233 58946
L46308 58908
L46346 58871
L46420 58758
L46458 58608
L46458 58309
L46420 58234
L46383 58196
L46308 58159
L46158 58159
L46083 58196
L46046 58234
L46008 58309
L46008 58496
L46046 58571
L46083 58608
L46158 58646
L46308 58646
L46383 58608
L46420 58571
L46458 58496
" />
<path d="M47133 58421
L47133 58946
" />
<path d="M46945 58121
L46758 58683
L47245 58683
" />
<path d="M47920 58159
L47545 58159
L47508 58533
L47545 58496
L47620 58458
L47808 58458
L47883 58496
L47920 58533
L47958 58608
L47958 58796
L47920 58871
L47883 58908
L47808 58946
L47620 58946
L47545 58908
L47508 58871
" />
<path d="M48258 58159
L48258 58309
" />
<path d="M48558 58159
L48558 58309
" />
<path d="M49720 59246
L49683 59208
L49608 59096
L49570 59021
L49533 58908
L49495 58721
L49495 58571
L49533 58384
L49570 58271
L49608 58196
L49683 58084
L49720 58046
" />
<path d="M49983 58234
L50020 58196
L50095 58159
L50283 58159
L50358 58196
L50395 58234
L50432 58309
L50432 58384
L50395 58496
L49945 58946
L50432 58946
" />
<path d="M51370 58946
L51370 58159
" />
<path d="M51707 58946
L51707 58533
L51670 58458
L51595 58421
L51482 58421
L51407 58458
L51370 58496
" />
<path d="M52195 58946
L52120 58908
L52082 58871
L52045 58796
L52045 58571
L52082 58496
L52120 58458
L52195 58421
L52307 58421
L52382 58458
L52420 58496
L52457 58571
L52457 58796
L52420 58871
L52382 58908
L52307 58946
L52195 58946
" />
<path d="M52907 58946
L52832 58908
L52795 58833
L52795 58159
" />
<path d="M53507 58908
L53432 58946
L53282 58946
L53207 58908
L53170 58833
L53170 58533
L53207 58458
L53282 58421
L53432 58421
L53507 58458
L53545 58533
L53545 58608
L53170 58683
" />
<path d="M53845 58908
L53920 58946
L54070 58946
L54145 58908
L54182 58833
L54182 58796
L54145 58721
L54070 58683
L53957 58683
L53882 58646
L53845 58571
L53845 58533
L53882 58458
L53957 58421
L54070 58421
L54145 58458
" />
<path d="M54444 59246
L54482 59208
L54557 59096
L54594 59021
L54632 58908
L54669 58721
L54669 58571
L54632 58384
L54594 58271
L54557 58196
L54482 58084
L54444 58046
" />
</g></g>
<g style="fill:#000000; fill-opacity:0.0; 
stroke:#000000; stroke-width:78.739887; stroke-opacity:1; 
stroke-linecap:round; stroke-linejoin:round;">
<path d="M35264 59456
L35264 60243
" />
<path d="M34870 59850
L35657 59850
" />
<circle cx="35264.262346" cy="59850.072090" r="393.700800" /> 
</g>
<g style="fill:#000000; fill-opacity:0.0; 
stroke:#000000; stroke-width:91.068778; stroke-opacity:1; 
stroke-linecap:round; stroke-linejoin:round;">
</g>
<g style="fill:#000000; fill-opacity:0.0; 
stroke:#000000; stroke-width:78.740342; stroke-opacity:1; 
stroke-linecap:round; stroke-linejoin:round;">
<text x="36445.364746" y="60243.772889"
textLength="17814.024209" font-size="1049.868648" lengthAdjust="spacingAndGlyphs"
text-anchor="start" opacity="0">3.200mm / 0.1260" (1 hole)</text>
<g class="stroked-text"><desc>3.200mm / 0.1260" (1 hole)</desc>
<path d="M36597 59418
L37084 59418
L36822 59718
L36934 59718
L37009 59756
L37047 59793
L37084 59868
L37084 60056
L37047 60131
L37009 60168
L36934 60206
L36709 60206
L36634 60168
L36597 60131
" />
<path d="M37422 60131
L37459 60168
L37422 60206
L37384 60168
L37422 60131
L37422 60206
" />
<path d="M37759 59493
L37797 59456
L37872 59418
L38059 59418
L38134 59456
L38172 59493
L38209 59568
L38209 59643
L38172 59756
L37722 60206
L38209 60206
" />
<path d="M38696 59418
L38771 59418
L38846 59456
L38884 59493
L38921 59568
L38959 59718
L38959 59906
L38921 60056
L38884 60131
L38846 60168
L38771 60206
L38696 60206
L38621 60168
L38584 60131
L38546 60056
L38509 59906
L38509 59718
L38546 59568
L38584 59493
L38621 59456
L38696 59418
" />
<path d="M39446 59418
L39521 59418
L39596 59456
L39634 59493
L39671 59568
L39709 59718
L39709 59906
L39671 60056
L39634 60131
L39596 60168
L39521 60206
L39446 60206
L39371 60168
L39334 60131
L39296 60056
L39259 59906
L39259 59718
L39296 59568
L39334 59493
L39371 59456
L39446 59418
" />
<path d="M40046 60206
L40046 59681
" />
<path d="M40046 59756
L40084 59718
L40159 59681
L40271 59681
L40346 59718
L40384 59793
L40384 60206
" />
<path d="M40384 59793
L40421 59718
L40496 59681
L40609 59681
L40684 59718
L40721 59793
L40721 60206
" />
<path d="M41096 60206
L41096 59681
" />
<path d="M41096 59756
L41134 59718
L41209 59681
L41321 59681
L41396 59718
L41434 59793
L41434 60206
" />
<path d="M41434 59793
L41471 59718
L41546 59681
L41659 59681
L41734 59718
L41771 59793
L41771 60206
" />
<path d="M43308 59381
L42633 60393
" />
<path d="M44321 59418
L44396 59418
L44471 59456
L44508 59493
L44546 59568
L44583 59718
L44583 59906
L44546 60056
L44508 60131
L44471 60168
L44396 60206
L44321 60206
L44246 60168
L44208 60131
L44171 60056
L44133 59906
L44133 59718
L44171 59568
L44208 59493
L44246 59456
L44321 59418
" />
<path d="M44921 60131
L44958 60168
L44921 60206
L44883 60168
L44921 60131
L44921 60206
" />
<path d="M45708 60206
L45258 60206
" />
<path d="M45483 60206
L45483 59418
L45408 59531
L45333 59606
L45258 59643
" />
<path d="M46008 59493
L46046 59456
L46121 59418
L46308 59418
L46383 59456
L46420 59493
L46458 59568
L46458 59643
L46420 59756
L45971 60206
L46458 60206
" />
<path d="M47133 59418
L46983 59418
L46908 59456
L46870 59493
L46795 59606
L46758 59756
L46758 60056
L46795 60131
L46833 60168
L46908 60206
L47058 60206
L47133 60168
L47170 60131
L47208 60056
L47208 59868
L47170 59793
L47133 59756
L47058 59718
L46908 59718
L46833 59756
L46795 59793
L46758 59868
" />
<path d="M47695 59418
L47770 59418
L47845 59456
L47883 59493
L47920 59568
L47958 59718
L47958 59906
L47920 60056
L47883 60131
L47845 60168
L47770 60206
L47695 60206
L47620 60168
L47583 60131
L47545 60056
L47508 59906
L47508 59718
L47545 59568
L47583 59493
L47620 59456
L47695 59418
" />
<path d="M48258 59418
L48258 59568
" />
<path d="M48558 59418
L48558 59568
" />
<path d="M49720 60506
L49683 60468
L49608 60356
L49570 60281
L49533 60168
L49495 59981
L49495 59831
L49533 59643
L49570 59531
L49608 59456
L49683 59343
L49720 59306
" />
<path d="M50432 60206
L49983 60206
" />
<path d="M50208 60206
L50208 59418
L50133 59531
L50058 59606
L49983 59643
" />
<path d="M51370 60206
L51370 59418
" />
<path d="M51707 60206
L51707 59793
L51670 59718
L51595 59681
L51482 59681
L51407 59718
L51370 59756
" />
<path d="M52195 60206
L52120 60168
L52082 60131
L52045 60056
L52045 59831
L52082 59756
L52120 59718
L52195 59681
L52307 59681
L52382 59718
L52420 59756
L52457 59831
L52457 60056
L52420 60131
L52382 60168
L52307 60206
L52195 60206
" />
<path d="M52907 60206
L52832 60168
L52795 60093
L52795 59418
" />
<path d="M53507 60168
L53432 60206
L53282 60206
L53207 60168
L53170 60093
L53170 59793
L53207 59718
L53282 59681
L53432 59681
L53507 59718
L53545 59793
L53545 59868
L53170 59943
" />
<path d="M53807 60506
L53845 60468
L53920 60356
L53957 60281
L53995 60168
L54032 59981
L54032 59831
L53995 59643
L53957 59531
L53920 59456
L53845 59343
L53807 59306
" />
</g></g> 
</svg>
