  0
SECTION
  2
HEADER
  9
$ANGBASE
  50
0.0
  9
$ANGDIR
  70
1
  9
$MEASUREMENT
  70
1
  0
ENDSEC
  0
SECTION
  2
TABLES
  0
TABLE
  2
LTYPE
  70
4
  0
LTYPE
  5
40F
  2
CONTINUOUS
  70
0
  3
Solid line
  72
65
  73
0
  40
0.0
  0
LTYPE
  5
410
  2
DASHDOT
 70
0
  3
Dash Dot ____ _ ____ _
 72
65
 73
4
 40
2.0
 49
1.25
 49
-0.25
 49
0.25
 49
-0.25
  0
LTYPE
  5
411
  2
DASHED
 70
0
  3
Dashed __ __ __ __ __
 72
65
 73
2
 40
0.75
 49
0.5
 49
-0.25
  0
LTYPE
  5
43B
  2
DOTTED
 70
0
  3
Dotted .  .  .  .
 72
65
 73
2
 40
0.2
 49
0.0
 49
-0.2
  0
ENDTAB
  0
TABLE
  2
STYLE
  70
4
  0
STYLE
  2
KICAD
  70
0
  40
0
  41
1
  42
1
  50
0
  71
0
  3
isocp.shx
  0
STYLE
  2
KICADB
  70
0
  40
0
  41
1
  42
1
  50
0
  71
0
  3
isocp.shx
  0
STYLE
  2
KICADI
  70
0
  40
0
  41
1
  42
1
  50
15
  71
0
  3
isocp.shx
  0
STYLE
  2
KICADBI
  70
0
  40
0
  41
1
  42
1
  50
15
  71
0
  3
isocp.shx
  0
ENDTAB
  0
TABLE
  2
LAYER
  70
1
  0
LAYER
  2
BLACK
  70
0
  62
7
  6
CONTINUOUS
  0
ENDTAB
  0
ENDSEC
  0
SECTION
  2
ENTITIES
0
LINE
8
BLACK
6
CONTINUOUS
10
177.002
20
-166.007
11
177.002
21
-198.007
0
LINE
8
BLACK
6
CONTINUOUS
10
177.002
20
-198.007
11
285.002
21
-198.007
0
LINE
8
BLACK
6
CONTINUOUS
10
285.002
20
-198.007
11
285.002
21
-166.007
0
LINE
8
BLACK
6
CONTINUOUS
10
285.002
20
-166.007
11
177.002
21
-166.007
0
LINE
8
BLACK
6
CONTINUOUS
10
10
20
-10
11
10
21
-200.007
0
LINE
8
BLACK
6
CONTINUOUS
10
10
20
-200.007
11
287.002
21
-200.007
0
LINE
8
BLACK
6
CONTINUOUS
10
287.002
20
-200.007
11
287.002
21
-10
0
LINE
8
BLACK
6
CONTINUOUS
10
287.002
20
-10
11
10
21
-10
0
LINE
8
BLACK
6
CONTINUOUS
10
12
20
-12
11
12
21
-198.007
0
LINE
8
BLACK
6
CONTINUOUS
10
12
20
-198.007
11
285.002
21
-198.007
0
LINE
8
BLACK
6
CONTINUOUS
10
285.002
20
-198.007
11
285.002
21
-12
0
LINE
8
BLACK
6
CONTINUOUS
10
285.002
20
-12
11
12
21
-12
0
LINE
8
BLACK
6
CONTINUOUS
10
60
20
-12
11
60
21
-10
0
LINE
8
BLACK
6
CONTINUOUS
10
110
20
-12
11
110
21
-10
0
LINE
8
BLACK
6
CONTINUOUS
10
160
20
-12
11
160
21
-10
0
LINE
8
BLACK
6
CONTINUOUS
10
210
20
-12
11
210
21
-10
0
LINE
8
BLACK
6
CONTINUOUS
10
260
20
-12
11
260
21
-10
0
LINE
8
BLACK
6
CONTINUOUS
10
36.0655
20
-11.5881
11
35.3226
21
-11.5881
0
LINE
8
BLACK
6
CONTINUOUS
10
35.694
20
-11.5881
11
35.694
21
-10.2881
0
LINE
8
BLACK
6
CONTINUOUS
10
35.694
20
-10.2881
11
35.5702
21
-10.4738
0
LINE
8
BLACK
6
CONTINUOUS
10
35.5702
20
-10.4738
11
35.4464
21
-10.5976
0
LINE
8
BLACK
6
CONTINUOUS
10
35.4464
20
-10.5976
11
35.3226
21
-10.6595
0
LINE
8
BLACK
6
CONTINUOUS
10
85.3226
20
-10.4119
11
85.3845
21
-10.35
0
LINE
8
BLACK
6
CONTINUOUS
10
85.3845
20
-10.35
11
85.5083
21
-10.2881
0
LINE
8
BLACK
6
CONTINUOUS
10
85.5083
20
-10.2881
11
85.8179
21
-10.2881
0
LINE
8
BLACK
6
CONTINUOUS
10
85.8179
20
-10.2881
11
85.9417
21
-10.35
0
LINE
8
BLACK
6
CONTINUOUS
10
85.9417
20
-10.35
11
86.0036
21
-10.4119
0
LINE
8
BLACK
6
CONTINUOUS
10
86.0036
20
-10.4119
11
86.0655
21
-10.5357
0
LINE
8
BLACK
6
CONTINUOUS
10
86.0655
20
-10.5357
11
86.0655
21
-10.6595
0
LINE
8
BLACK
6
CONTINUOUS
10
86.0655
20
-10.6595
11
86.0036
21
-10.8452
0
LINE
8
BLACK
6
CONTINUOUS
10
86.0036
20
-10.8452
11
85.2607
21
-11.5881
0
LINE
8
BLACK
6
CONTINUOUS
10
85.2607
20
-11.5881
11
86.0655
21
-11.5881
0
LINE
8
BLACK
6
CONTINUOUS
10
135.261
20
-10.2881
11
136.065
21
-10.2881
0
LINE
8
BLACK
6
CONTINUOUS
10
136.065
20
-10.2881
11
135.632
21
-10.7833
0
LINE
8
BLACK
6
CONTINUOUS
10
135.632
20
-10.7833
11
135.818
21
-10.7833
0
LINE
8
BLACK
6
CONTINUOUS
10
135.818
20
-10.7833
11
135.942
21
-10.8452
0
LINE
8
BLACK
6
CONTINUOUS
10
135.942
20
-10.8452
11
136.004
21
-10.9071
0
LINE
8
BLACK
6
CONTINUOUS
10
136.004
20
-10.9071
11
136.065
21
-11.031
0
LINE
8
BLACK
6
CONTINUOUS
10
136.065
20
-11.031
11
136.065
21
-11.3405
0
LINE
8
BLACK
6
CONTINUOUS
10
136.065
20
-11.3405
11
136.004
21
-11.4643
0
LINE
8
BLACK
6
CONTINUOUS
10
136.004
20
-11.4643
11
135.942
21
-11.5262
0
LINE
8
BLACK
6
CONTINUOUS
10
135.942
20
-11.5262
11
135.818
21
-11.5881
0
LINE
8
BLACK
6
CONTINUOUS
10
135.818
20
-11.5881
11
135.446
21
-11.5881
0
LINE
8
BLACK
6
CONTINUOUS
10
135.446
20
-11.5881
11
135.323
21
-11.5262
0
LINE
8
BLACK
6
CONTINUOUS
10
135.323
20
-11.5262
11
135.261
21
-11.4643
0
LINE
8
BLACK
6
CONTINUOUS
10
185.942
20
-10.7214
11
185.942
21
-11.5881
0
LINE
8
BLACK
6
CONTINUOUS
10
185.632
20
-10.2262
11
185.323
21
-11.1548
0
LINE
8
BLACK
6
CONTINUOUS
10
185.323
20
-11.1548
11
186.127
21
-11.1548
0
LINE
8
BLACK
6
CONTINUOUS
10
236.004
20
-10.2881
11
235.385
21
-10.2881
0
LINE
8
BLACK
6
CONTINUOUS
10
235.385
20
-10.2881
11
235.323
21
-10.9071
0
LINE
8
BLACK
6
CONTINUOUS
10
235.323
20
-10.9071
11
235.385
21
-10.8452
0
LINE
8
BLACK
6
CONTINUOUS
10
235.385
20
-10.8452
11
235.508
21
-10.7833
0
LINE
8
BLACK
6
CONTINUOUS
10
235.508
20
-10.7833
11
235.818
21
-10.7833
0
LINE
8
BLACK
6
CONTINUOUS
10
235.818
20
-10.7833
11
235.942
21
-10.8452
0
LINE
8
BLACK
6
CONTINUOUS
10
235.942
20
-10.8452
11
236.004
21
-10.9071
0
LINE
8
BLACK
6
CONTINUOUS
10
236.004
20
-10.9071
11
236.065
21
-11.031
0
LINE
8
BLACK
6
CONTINUOUS
10
236.065
20
-11.031
11
236.065
21
-11.3405
0
LINE
8
BLACK
6
CONTINUOUS
10
236.065
20
-11.3405
11
236.004
21
-11.4643
0
LINE
8
BLACK
6
CONTINUOUS
10
236.004
20
-11.4643
11
235.942
21
-11.5262
0
LINE
8
BLACK
6
CONTINUOUS
10
235.942
20
-11.5262
11
235.818
21
-11.5881
0
LINE
8
BLACK
6
CONTINUOUS
10
235.818
20
-11.5881
11
235.508
21
-11.5881
0
LINE
8
BLACK
6
CONTINUOUS
10
235.508
20
-11.5881
11
235.385
21
-11.5262
0
LINE
8
BLACK
6
CONTINUOUS
10
235.385
20
-11.5262
11
235.323
21
-11.4643
0
LINE
8
BLACK
6
CONTINUOUS
10
285.942
20
-10.2881
11
285.694
21
-10.2881
0
LINE
8
BLACK
6
CONTINUOUS
10
285.694
20
-10.2881
11
285.57
21
-10.35
0
LINE
8
BLACK
6
CONTINUOUS
10
285.57
20
-10.35
11
285.508
21
-10.4119
0
LINE
8
BLACK
6
CONTINUOUS
10
285.508
20
-10.4119
11
285.385
21
-10.5976
0
LINE
8
BLACK
6
CONTINUOUS
10
285.385
20
-10.5976
11
285.323
21
-10.8452
0
LINE
8
BLACK
6
CONTINUOUS
10
285.323
20
-10.8452
11
285.323
21
-11.3405
0
LINE
8
BLACK
6
CONTINUOUS
10
285.323
20
-11.3405
11
285.385
21
-11.4643
0
LINE
8
BLACK
6
CONTINUOUS
10
285.385
20
-11.4643
11
285.446
21
-11.5262
0
LINE
8
BLACK
6
CONTINUOUS
10
285.446
20
-11.5262
11
285.57
21
-11.5881
0
LINE
8
BLACK
6
CONTINUOUS
10
285.57
20
-11.5881
11
285.818
21
-11.5881
0
LINE
8
BLACK
6
CONTINUOUS
10
285.818
20
-11.5881
11
285.942
21
-11.5262
0
LINE
8
BLACK
6
CONTINUOUS
10
285.942
20
-11.5262
11
286.004
21
-11.4643
0
LINE
8
BLACK
6
CONTINUOUS
10
286.004
20
-11.4643
11
286.065
21
-11.3405
0
LINE
8
BLACK
6
CONTINUOUS
10
286.065
20
-11.3405
11
286.065
21
-11.031
0
LINE
8
BLACK
6
CONTINUOUS
10
286.065
20
-11.031
11
286.004
21
-10.9071
0
LINE
8
BLACK
6
CONTINUOUS
10
286.004
20
-10.9071
11
285.942
21
-10.8452
0
LINE
8
BLACK
6
CONTINUOUS
10
285.942
20
-10.8452
11
285.818
21
-10.7833
0
LINE
8
BLACK
6
CONTINUOUS
10
285.818
20
-10.7833
11
285.57
21
-10.7833
0
LINE
8
BLACK
6
CONTINUOUS
10
285.57
20
-10.7833
11
285.446
21
-10.8452
0
LINE
8
BLACK
6
CONTINUOUS
10
285.446
20
-10.8452
11
285.385
21
-10.9071
0
LINE
8
BLACK
6
CONTINUOUS
10
285.385
20
-10.9071
11
285.323
21
-11.031
0
LINE
8
BLACK
6
CONTINUOUS
10
60
20
-198.007
11
60
21
-200.007
0
LINE
8
BLACK
6
CONTINUOUS
10
110
20
-198.007
11
110
21
-200.007
0
LINE
8
BLACK
6
CONTINUOUS
10
160
20
-198.007
11
160
21
-200.007
0
LINE
8
BLACK
6
CONTINUOUS
10
210
20
-198.007
11
210
21
-200.007
0
LINE
8
BLACK
6
CONTINUOUS
10
260
20
-198.007
11
260
21
-200.007
0
LINE
8
BLACK
6
CONTINUOUS
10
36.0655
20
-199.595
11
35.3226
21
-199.595
0
LINE
8
BLACK
6
CONTINUOUS
10
35.694
20
-199.595
11
35.694
21
-198.295
0
LINE
8
BLACK
6
CONTINUOUS
10
35.694
20
-198.295
11
35.5702
21
-198.481
0
LINE
8
BLACK
6
CONTINUOUS
10
35.5702
20
-198.481
11
35.4464
21
-198.605
0
LINE
8
BLACK
6
CONTINUOUS
10
35.4464
20
-198.605
11
35.3226
21
-198.667
0
LINE
8
BLACK
6
CONTINUOUS
10
85.3226
20
-198.419
11
85.3845
21
-198.357
0
LINE
8
BLACK
6
CONTINUOUS
10
85.3845
20
-198.357
11
85.5083
21
-198.295
0
LINE
8
BLACK
6
CONTINUOUS
10
85.5083
20
-198.295
11
85.8179
21
-198.295
0
LINE
8
BLACK
6
CONTINUOUS
10
85.8179
20
-198.295
11
85.9417
21
-198.357
0
LINE
8
BLACK
6
CONTINUOUS
10
85.9417
20
-198.357
11
86.0036
21
-198.419
0
LINE
8
BLACK
6
CONTINUOUS
10
86.0036
20
-198.419
11
86.0655
21
-198.543
0
LINE
8
BLACK
6
CONTINUOUS
10
86.0655
20
-198.543
11
86.0655
21
-198.667
0
LINE
8
BLACK
6
CONTINUOUS
10
86.0655
20
-198.667
11
86.0036
21
-198.852
0
LINE
8
BLACK
6
CONTINUOUS
10
86.0036
20
-198.852
11
85.2607
21
-199.595
0
LINE
8
BLACK
6
CONTINUOUS
10
85.2607
20
-199.595
11
86.0655
21
-199.595
0
LINE
8
BLACK
6
CONTINUOUS
10
135.261
20
-198.295
11
136.065
21
-198.295
0
LINE
8
BLACK
6
CONTINUOUS
10
136.065
20
-198.295
11
135.632
21
-198.791
0
LINE
8
BLACK
6
CONTINUOUS
10
135.632
20
-198.791
11
135.818
21
-198.791
0
LINE
8
BLACK
6
CONTINUOUS
10
135.818
20
-198.791
11
135.942
21
-198.852
0
LINE
8
BLACK
6
CONTINUOUS
10
135.942
20
-198.852
11
136.004
21
-198.914
0
LINE
8
BLACK
6
CONTINUOUS
10
136.004
20
-198.914
11
136.065
21
-199.038
0
LINE
8
BLACK
6
CONTINUOUS
10
136.065
20
-199.038
11
136.065
21
-199.348
0
LINE
8
BLACK
6
CONTINUOUS
10
136.065
20
-199.348
11
136.004
21
-199.471
0
LINE
8
BLACK
6
CONTINUOUS
10
136.004
20
-199.471
11
135.942
21
-199.533
0
LINE
8
BLACK
6
CONTINUOUS
10
135.942
20
-199.533
11
135.818
21
-199.595
0
LINE
8
BLACK
6
CONTINUOUS
10
135.818
20
-199.595
11
135.446
21
-199.595
0
LINE
8
BLACK
6
CONTINUOUS
10
135.446
20
-199.595
11
135.323
21
-199.533
0
LINE
8
BLACK
6
CONTINUOUS
10
135.323
20
-199.533
11
135.261
21
-199.471
0
LINE
8
BLACK
6
CONTINUOUS
10
185.942
20
-198.729
11
185.942
21
-199.595
0
LINE
8
BLACK
6
CONTINUOUS
10
185.632
20
-198.233
11
185.323
21
-199.162
0
LINE
8
BLACK
6
CONTINUOUS
10
185.323
20
-199.162
11
186.127
21
-199.162
0
LINE
8
BLACK
6
CONTINUOUS
10
236.004
20
-198.295
11
235.385
21
-198.295
0
LINE
8
BLACK
6
CONTINUOUS
10
235.385
20
-198.295
11
235.323
21
-198.914
0
LINE
8
BLACK
6
CONTINUOUS
10
235.323
20
-198.914
11
235.385
21
-198.852
0
LINE
8
BLACK
6
CONTINUOUS
10
235.385
20
-198.852
11
235.508
21
-198.791
0
LINE
8
BLACK
6
CONTINUOUS
10
235.508
20
-198.791
11
235.818
21
-198.791
0
LINE
8
BLACK
6
CONTINUOUS
10
235.818
20
-198.791
11
235.942
21
-198.852
0
LINE
8
BLACK
6
CONTINUOUS
10
235.942
20
-198.852
11
236.004
21
-198.914
0
LINE
8
BLACK
6
CONTINUOUS
10
236.004
20
-198.914
11
236.065
21
-199.038
0
LINE
8
BLACK
6
CONTINUOUS
10
236.065
20
-199.038
11
236.065
21
-199.348
0
LINE
8
BLACK
6
CONTINUOUS
10
236.065
20
-199.348
11
236.004
21
-199.471
0
LINE
8
BLACK
6
CONTINUOUS
10
236.004
20
-199.471
11
235.942
21
-199.533
0
LINE
8
BLACK
6
CONTINUOUS
10
235.942
20
-199.533
11
235.818
21
-199.595
0
LINE
8
BLACK
6
CONTINUOUS
10
235.818
20
-199.595
11
235.508
21
-199.595
0
LINE
8
BLACK
6
CONTINUOUS
10
235.508
20
-199.595
11
235.385
21
-199.533
0
LINE
8
BLACK
6
CONTINUOUS
10
235.385
20
-199.533
11
235.323
21
-199.471
0
LINE
8
BLACK
6
CONTINUOUS
10
285.942
20
-198.295
11
285.694
21
-198.295
0
LINE
8
BLACK
6
CONTINUOUS
10
285.694
20
-198.295
11
285.57
21
-198.357
0
LINE
8
BLACK
6
CONTINUOUS
10
285.57
20
-198.357
11
285.508
21
-198.419
0
LINE
8
BLACK
6
CONTINUOUS
10
285.508
20
-198.419
11
285.385
21
-198.605
0
LINE
8
BLACK
6
CONTINUOUS
10
285.385
20
-198.605
11
285.323
21
-198.852
0
LINE
8
BLACK
6
CONTINUOUS
10
285.323
20
-198.852
11
285.323
21
-199.348
0
LINE
8
BLACK
6
CONTINUOUS
10
285.323
20
-199.348
11
285.385
21
-199.471
0
LINE
8
BLACK
6
CONTINUOUS
10
285.385
20
-199.471
11
285.446
21
-199.533
0
LINE
8
BLACK
6
CONTINUOUS
10
285.446
20
-199.533
11
285.57
21
-199.595
0
LINE
8
BLACK
6
CONTINUOUS
10
285.57
20
-199.595
11
285.818
21
-199.595
0
LINE
8
BLACK
6
CONTINUOUS
10
285.818
20
-199.595
11
285.942
21
-199.533
0
LINE
8
BLACK
6
CONTINUOUS
10
285.942
20
-199.533
11
286.004
21
-199.471
0
LINE
8
BLACK
6
CONTINUOUS
10
286.004
20
-199.471
11
286.065
21
-199.348
0
LINE
8
BLACK
6
CONTINUOUS
10
286.065
20
-199.348
11
286.065
21
-199.038
0
LINE
8
BLACK
6
CONTINUOUS
10
286.065
20
-199.038
11
286.004
21
-198.914
0
LINE
8
BLACK
6
CONTINUOUS
10
286.004
20
-198.914
11
285.942
21
-198.852
0
LINE
8
BLACK
6
CONTINUOUS
10
285.942
20
-198.852
11
285.818
21
-198.791
0
LINE
8
BLACK
6
CONTINUOUS
10
285.818
20
-198.791
11
285.57
21
-198.791
0
LINE
8
BLACK
6
CONTINUOUS
10
285.57
20
-198.791
11
285.446
21
-198.852
0
LINE
8
BLACK
6
CONTINUOUS
10
285.446
20
-198.852
11
285.385
21
-198.914
0
LINE
8
BLACK
6
CONTINUOUS
10
285.385
20
-198.914
11
285.323
21
-199.038
0
LINE
8
BLACK
6
CONTINUOUS
10
10
20
-60
11
12
21
-60
0
LINE
8
BLACK
6
CONTINUOUS
10
10
20
-110
11
12
21
-110
0
LINE
8
BLACK
6
CONTINUOUS
10
10
20
-160
11
12
21
-160
0
LINE
8
BLACK
6
CONTINUOUS
10
10.6905
20
-35.2167
11
11.3095
21
-35.2167
0
LINE
8
BLACK
6
CONTINUOUS
10
10.5667
20
-35.5881
11
11
21
-34.2881
0
LINE
8
BLACK
6
CONTINUOUS
10
11
20
-34.2881
11
11.4333
21
-35.5881
0
LINE
8
BLACK
6
CONTINUOUS
10
11.0929
20
-84.9071
11
11.2786
21
-84.969
0
LINE
8
BLACK
6
CONTINUOUS
10
11.2786
20
-84.969
11
11.3405
21
-85.031
0
LINE
8
BLACK
6
CONTINUOUS
10
11.3405
20
-85.031
11
11.4024
21
-85.1548
0
LINE
8
BLACK
6
CONTINUOUS
10
11.4024
20
-85.1548
11
11.4024
21
-85.3405
0
LINE
8
BLACK
6
CONTINUOUS
10
11.4024
20
-85.3405
11
11.3405
21
-85.4643
0
LINE
8
BLACK
6
CONTINUOUS
10
11.3405
20
-85.4643
11
11.2786
21
-85.5262
0
LINE
8
BLACK
6
CONTINUOUS
10
11.2786
20
-85.5262
11
11.1548
21
-85.5881
0
LINE
8
BLACK
6
CONTINUOUS
10
11.1548
20
-85.5881
11
10.6595
21
-85.5881
0
LINE
8
BLACK
6
CONTINUOUS
10
10.6595
20
-85.5881
11
10.6595
21
-84.2881
0
LINE
8
BLACK
6
CONTINUOUS
10
10.6595
20
-84.2881
11
11.0929
21
-84.2881
0
LINE
8
BLACK
6
CONTINUOUS
10
11.0929
20
-84.2881
11
11.2167
21
-84.35
0
LINE
8
BLACK
6
CONTINUOUS
10
11.2167
20
-84.35
11
11.2786
21
-84.4119
0
LINE
8
BLACK
6
CONTINUOUS
10
11.2786
20
-84.4119
11
11.3405
21
-84.5357
0
LINE
8
BLACK
6
CONTINUOUS
10
11.3405
20
-84.5357
11
11.3405
21
-84.6595
0
LINE
8
BLACK
6
CONTINUOUS
10
11.3405
20
-84.6595
11
11.2786
21
-84.7833
0
LINE
8
BLACK
6
CONTINUOUS
10
11.2786
20
-84.7833
11
11.2167
21
-84.8452
0
LINE
8
BLACK
6
CONTINUOUS
10
11.2167
20
-84.8452
11
11.0929
21
-84.9071
0
LINE
8
BLACK
6
CONTINUOUS
10
11.0929
20
-84.9071
11
10.6595
21
-84.9071
0
LINE
8
BLACK
6
CONTINUOUS
10
11.4024
20
-135.464
11
11.3405
21
-135.526
0
LINE
8
BLACK
6
CONTINUOUS
10
11.3405
20
-135.526
11
11.1548
21
-135.588
0
LINE
8
BLACK
6
CONTINUOUS
10
11.1548
20
-135.588
11
11.031
21
-135.588
0
LINE
8
BLACK
6
CONTINUOUS
10
11.031
20
-135.588
11
10.8452
21
-135.526
0
LINE
8
BLACK
6
CONTINUOUS
10
10.8452
20
-135.526
11
10.7214
21
-135.402
0
LINE
8
BLACK
6
CONTINUOUS
10
10.7214
20
-135.402
11
10.6595
21
-135.279
0
LINE
8
BLACK
6
CONTINUOUS
10
10.6595
20
-135.279
11
10.5976
21
-135.031
0
LINE
8
BLACK
6
CONTINUOUS
10
10.5976
20
-135.031
11
10.5976
21
-134.845
0
LINE
8
BLACK
6
CONTINUOUS
10
10.5976
20
-134.845
11
10.6595
21
-134.598
0
LINE
8
BLACK
6
CONTINUOUS
10
10.6595
20
-134.598
11
10.7214
21
-134.474
0
LINE
8
BLACK
6
CONTINUOUS
10
10.7214
20
-134.474
11
10.8452
21
-134.35
0
LINE
8
BLACK
6
CONTINUOUS
10
10.8452
20
-134.35
11
11.031
21
-134.288
0
LINE
8
BLACK
6
CONTINUOUS
10
11.031
20
-134.288
11
11.1548
21
-134.288
0
LINE
8
BLACK
6
CONTINUOUS
10
11.1548
20
-134.288
11
11.3405
21
-134.35
0
LINE
8
BLACK
6
CONTINUOUS
10
11.3405
20
-134.35
11
11.4024
21
-134.412
0
LINE
8
BLACK
6
CONTINUOUS
10
10.6595
20
-185.588
11
10.6595
21
-184.288
0
LINE
8
BLACK
6
CONTINUOUS
10
10.6595
20
-184.288
11
10.969
21
-184.288
0
LINE
8
BLACK
6
CONTINUOUS
10
10.969
20
-184.288
11
11.1548
21
-184.35
0
LINE
8
BLACK
6
CONTINUOUS
10
11.1548
20
-184.35
11
11.2786
21
-184.474
0
LINE
8
BLACK
6
CONTINUOUS
10
11.2786
20
-184.474
11
11.3405
21
-184.598
0
LINE
8
BLACK
6
CONTINUOUS
10
11.3405
20
-184.598
11
11.4024
21
-184.845
0
LINE
8
BLACK
6
CONTINUOUS
10
11.4024
20
-184.845
11
11.4024
21
-185.031
0
LINE
8
BLACK
6
CONTINUOUS
10
11.4024
20
-185.031
11
11.3405
21
-185.279
0
LINE
8
BLACK
6
CONTINUOUS
10
11.3405
20
-185.279
11
11.2786
21
-185.402
0
LINE
8
BLACK
6
CONTINUOUS
10
11.2786
20
-185.402
11
11.1548
21
-185.526
0
LINE
8
BLACK
6
CONTINUOUS
10
11.1548
20
-185.526
11
10.969
21
-185.588
0
LINE
8
BLACK
6
CONTINUOUS
10
10.969
20
-185.588
11
10.6595
21
-185.588
0
LINE
8
BLACK
6
CONTINUOUS
10
287.002
20
-60
11
285.002
21
-60
0
LINE
8
BLACK
6
CONTINUOUS
10
287.002
20
-110
11
285.002
21
-110
0
LINE
8
BLACK
6
CONTINUOUS
10
287.002
20
-160
11
285.002
21
-160
0
LINE
8
BLACK
6
CONTINUOUS
10
285.693
20
-35.2167
11
286.312
21
-35.2167
0
LINE
8
BLACK
6
CONTINUOUS
10
285.569
20
-35.5881
11
286.002
21
-34.2881
0
LINE
8
BLACK
6
CONTINUOUS
10
286.002
20
-34.2881
11
286.436
21
-35.5881
0
LINE
8
BLACK
6
CONTINUOUS
10
286.095
20
-84.9071
11
286.281
21
-84.969
0
LINE
8
BLACK
6
CONTINUOUS
10
286.281
20
-84.969
11
286.343
21
-85.031
0
LINE
8
BLACK
6
CONTINUOUS
10
286.343
20
-85.031
11
286.405
21
-85.1548
0
LINE
8
BLACK
6
CONTINUOUS
10
286.405
20
-85.1548
11
286.405
21
-85.3405
0
LINE
8
BLACK
6
CONTINUOUS
10
286.405
20
-85.3405
11
286.343
21
-85.4643
0
LINE
8
BLACK
6
CONTINUOUS
10
286.343
20
-85.4643
11
286.281
21
-85.5262
0
LINE
8
BLACK
6
CONTINUOUS
10
286.281
20
-85.5262
11
286.157
21
-85.5881
0
LINE
8
BLACK
6
CONTINUOUS
10
286.157
20
-85.5881
11
285.662
21
-85.5881
0
LINE
8
BLACK
6
CONTINUOUS
10
285.662
20
-85.5881
11
285.662
21
-84.2881
0
LINE
8
BLACK
6
CONTINUOUS
10
285.662
20
-84.2881
11
286.095
21
-84.2881
0
LINE
8
BLACK
6
CONTINUOUS
10
286.095
20
-84.2881
11
286.219
21
-84.35
0
LINE
8
BLACK
6
CONTINUOUS
10
286.219
20
-84.35
11
286.281
21
-84.4119
0
LINE
8
BLACK
6
CONTINUOUS
10
286.281
20
-84.4119
11
286.343
21
-84.5357
0
LINE
8
BLACK
6
CONTINUOUS
10
286.343
20
-84.5357
11
286.343
21
-84.6595
0
LINE
8
BLACK
6
CONTINUOUS
10
286.343
20
-84.6595
11
286.281
21
-84.7833
0
LINE
8
BLACK
6
CONTINUOUS
10
286.281
20
-84.7833
11
286.219
21
-84.8452
0
LINE
8
BLACK
6
CONTINUOUS
10
286.219
20
-84.8452
11
286.095
21
-84.9071
0
LINE
8
BLACK
6
CONTINUOUS
10
286.095
20
-84.9071
11
285.662
21
-84.9071
0
LINE
8
BLACK
6
CONTINUOUS
10
286.405
20
-135.464
11
286.343
21
-135.526
0
LINE
8
BLACK
6
CONTINUOUS
10
286.343
20
-135.526
11
286.157
21
-135.588
0
LINE
8
BLACK
6
CONTINUOUS
10
286.157
20
-135.588
11
286.033
21
-135.588
0
LINE
8
BLACK
6
CONTINUOUS
10
286.033
20
-135.588
11
285.847
21
-135.526
0
LINE
8
BLACK
6
CONTINUOUS
10
285.847
20
-135.526
11
285.724
21
-135.402
0
LINE
8
BLACK
6
CONTINUOUS
10
285.724
20
-135.402
11
285.662
21
-135.279
0
LINE
8
BLACK
6
CONTINUOUS
10
285.662
20
-135.279
11
285.6
21
-135.031
0
LINE
8
BLACK
6
CONTINUOUS
10
285.6
20
-135.031
11
285.6
21
-134.845
0
LINE
8
BLACK
6
CONTINUOUS
10
285.6
20
-134.845
11
285.662
21
-134.598
0
LINE
8
BLACK
6
CONTINUOUS
10
285.662
20
-134.598
11
285.724
21
-134.474
0
LINE
8
BLACK
6
CONTINUOUS
10
285.724
20
-134.474
11
285.847
21
-134.35
0
LINE
8
BLACK
6
CONTINUOUS
10
285.847
20
-134.35
11
286.033
21
-134.288
0
LINE
8
BLACK
6
CONTINUOUS
10
286.033
20
-134.288
11
286.157
21
-134.288
0
LINE
8
BLACK
6
CONTINUOUS
10
286.157
20
-134.288
11
286.343
21
-134.35
0
LINE
8
BLACK
6
CONTINUOUS
10
286.343
20
-134.35
11
286.405
21
-134.412
0
LINE
8
BLACK
6
CONTINUOUS
10
285.662
20
-185.588
11
285.662
21
-184.288
0
LINE
8
BLACK
6
CONTINUOUS
10
285.662
20
-184.288
11
285.971
21
-184.288
0
LINE
8
BLACK
6
CONTINUOUS
10
285.971
20
-184.288
11
286.157
21
-184.35
0
LINE
8
BLACK
6
CONTINUOUS
10
286.157
20
-184.35
11
286.281
21
-184.474
0
LINE
8
BLACK
6
CONTINUOUS
10
286.281
20
-184.474
11
286.343
21
-184.598
0
LINE
8
BLACK
6
CONTINUOUS
10
286.343
20
-184.598
11
286.405
21
-184.845
0
LINE
8
BLACK
6
CONTINUOUS
10
286.405
20
-184.845
11
286.405
21
-185.031
0
LINE
8
BLACK
6
CONTINUOUS
10
286.405
20
-185.031
11
286.343
21
-185.279
0
LINE
8
BLACK
6
CONTINUOUS
10
286.343
20
-185.279
11
286.281
21
-185.402
0
LINE
8
BLACK
6
CONTINUOUS
10
286.281
20
-185.402
11
286.157
21
-185.526
0
LINE
8
BLACK
6
CONTINUOUS
10
286.157
20
-185.526
11
285.971
21
-185.588
0
LINE
8
BLACK
6
CONTINUOUS
10
285.971
20
-185.588
11
285.662
21
-185.588
0
LINE
8
BLACK
6
CONTINUOUS
10
200.434
20
-193.786
11
200.434
21
-192.286
0
LINE
8
BLACK
6
CONTINUOUS
10
200.434
20
-192.286
11
200.791
21
-192.286
0
LINE
8
BLACK
6
CONTINUOUS
10
200.791
20
-192.286
11
201.006
21
-192.357
0
LINE
8
BLACK
6
CONTINUOUS
10
201.006
20
-192.357
11
201.149
21
-192.5
0
LINE
8
BLACK
6
CONTINUOUS
10
201.149
20
-192.5
11
201.22
21
-192.643
0
LINE
8
BLACK
6
CONTINUOUS
10
201.22
20
-192.643
11
201.291
21
-192.929
0
LINE
8
BLACK
6
CONTINUOUS
10
201.291
20
-192.929
11
201.291
21
-193.143
0
LINE
8
BLACK
6
CONTINUOUS
10
201.291
20
-193.143
11
201.22
21
-193.429
0
LINE
8
BLACK
6
CONTINUOUS
10
201.22
20
-193.429
11
201.149
21
-193.571
0
LINE
8
BLACK
6
CONTINUOUS
10
201.149
20
-193.571
11
201.006
21
-193.714
0
LINE
8
BLACK
6
CONTINUOUS
10
201.006
20
-193.714
11
200.791
21
-193.786
0
LINE
8
BLACK
6
CONTINUOUS
10
200.791
20
-193.786
11
200.434
21
-193.786
0
LINE
8
BLACK
6
CONTINUOUS
10
202.577
20
-193.786
11
202.577
21
-193
0
LINE
8
BLACK
6
CONTINUOUS
10
202.577
20
-193
11
202.506
21
-192.857
0
LINE
8
BLACK
6
CONTINUOUS
10
202.506
20
-192.857
11
202.363
21
-192.786
0
LINE
8
BLACK
6
CONTINUOUS
10
202.363
20
-192.786
11
202.077
21
-192.786
0
LINE
8
BLACK
6
CONTINUOUS
10
202.077
20
-192.786
11
201.934
21
-192.857
0
LINE
8
BLACK
6
CONTINUOUS
10
202.577
20
-193.714
11
202.434
21
-193.786
0
LINE
8
BLACK
6
CONTINUOUS
10
202.434
20
-193.786
11
202.077
21
-193.786
0
LINE
8
BLACK
6
CONTINUOUS
10
202.077
20
-193.786
11
201.934
21
-193.714
0
LINE
8
BLACK
6
CONTINUOUS
10
201.934
20
-193.714
11
201.863
21
-193.571
0
LINE
8
BLACK
6
CONTINUOUS
10
201.863
20
-193.571
11
201.863
21
-193.429
0
LINE
8
BLACK
6
CONTINUOUS
10
201.863
20
-193.429
11
201.934
21
-193.286
0
LINE
8
BLACK
6
CONTINUOUS
10
201.934
20
-193.286
11
202.077
21
-193.214
0
LINE
8
BLACK
6
CONTINUOUS
10
202.077
20
-193.214
11
202.434
21
-193.214
0
LINE
8
BLACK
6
CONTINUOUS
10
202.434
20
-193.214
11
202.577
21
-193.143
0
LINE
8
BLACK
6
CONTINUOUS
10
203.077
20
-192.786
11
203.649
21
-192.786
0
LINE
8
BLACK
6
CONTINUOUS
10
203.291
20
-192.286
11
203.291
21
-193.571
0
LINE
8
BLACK
6
CONTINUOUS
10
203.291
20
-193.571
11
203.363
21
-193.714
0
LINE
8
BLACK
6
CONTINUOUS
10
203.363
20
-193.714
11
203.506
21
-193.786
0
LINE
8
BLACK
6
CONTINUOUS
10
203.506
20
-193.786
11
203.649
21
-193.786
0
LINE
8
BLACK
6
CONTINUOUS
10
204.72
20
-193.714
11
204.577
21
-193.786
0
LINE
8
BLACK
6
CONTINUOUS
10
204.577
20
-193.786
11
204.291
21
-193.786
0
LINE
8
BLACK
6
CONTINUOUS
10
204.291
20
-193.786
11
204.149
21
-193.714
0
LINE
8
BLACK
6
CONTINUOUS
10
204.149
20
-193.714
11
204.077
21
-193.571
0
LINE
8
BLACK
6
CONTINUOUS
10
204.077
20
-193.571
11
204.077
21
-193
0
LINE
8
BLACK
6
CONTINUOUS
10
204.077
20
-193
11
204.149
21
-192.857
0
LINE
8
BLACK
6
CONTINUOUS
10
204.149
20
-192.857
11
204.291
21
-192.786
0
LINE
8
BLACK
6
CONTINUOUS
10
204.291
20
-192.786
11
204.577
21
-192.786
0
LINE
8
BLACK
6
CONTINUOUS
10
204.577
20
-192.786
11
204.72
21
-192.857
0
LINE
8
BLACK
6
CONTINUOUS
10
204.72
20
-192.857
11
204.791
21
-193
0
LINE
8
BLACK
6
CONTINUOUS
10
204.791
20
-193
11
204.791
21
-193.143
0
LINE
8
BLACK
6
CONTINUOUS
10
204.791
20
-193.143
11
204.077
21
-193.286
0
LINE
8
BLACK
6
CONTINUOUS
10
205.434
20
-193.643
11
205.506
21
-193.714
0
LINE
8
BLACK
6
CONTINUOUS
10
205.506
20
-193.714
11
205.434
21
-193.786
0
LINE
8
BLACK
6
CONTINUOUS
10
205.434
20
-193.786
11
205.363
21
-193.714
0
LINE
8
BLACK
6
CONTINUOUS
10
205.363
20
-193.714
11
205.434
21
-193.643
0
LINE
8
BLACK
6
CONTINUOUS
10
205.434
20
-193.643
11
205.434
21
-193.786
0
LINE
8
BLACK
6
CONTINUOUS
10
205.434
20
-192.857
11
205.506
21
-192.929
0
LINE
8
BLACK
6
CONTINUOUS
10
205.506
20
-192.929
11
205.434
21
-193
0
LINE
8
BLACK
6
CONTINUOUS
10
205.434
20
-193
11
205.363
21
-192.929
0
LINE
8
BLACK
6
CONTINUOUS
10
205.363
20
-192.929
11
205.434
21
-192.857
0
LINE
8
BLACK
6
CONTINUOUS
10
205.434
20
-192.857
11
205.434
21
-193
0
LINE
8
BLACK
6
CONTINUOUS
10
207.22
20
-192.429
11
207.291
21
-192.357
0
LINE
8
BLACK
6
CONTINUOUS
10
207.291
20
-192.357
11
207.434
21
-192.286
0
LINE
8
BLACK
6
CONTINUOUS
10
207.434
20
-192.286
11
207.791
21
-192.286
0
LINE
8
BLACK
6
CONTINUOUS
10
207.791
20
-192.286
11
207.934
21
-192.357
0
LINE
8
BLACK
6
CONTINUOUS
10
207.934
20
-192.357
11
208.006
21
-192.429
0
LINE
8
BLACK
6
CONTINUOUS
10
208.006
20
-192.429
11
208.077
21
-192.571
0
LINE
8
BLACK
6
CONTINUOUS
10
208.077
20
-192.571
11
208.077
21
-192.714
0
LINE
8
BLACK
6
CONTINUOUS
10
208.077
20
-192.714
11
208.006
21
-192.929
0
LINE
8
BLACK
6
CONTINUOUS
10
208.006
20
-192.929
11
207.149
21
-193.786
0
LINE
8
BLACK
6
CONTINUOUS
10
207.149
20
-193.786
11
208.077
21
-193.786
0
LINE
8
BLACK
6
CONTINUOUS
10
209.006
20
-192.286
11
209.149
21
-192.286
0
LINE
8
BLACK
6
CONTINUOUS
10
209.149
20
-192.286
11
209.291
21
-192.357
0
LINE
8
BLACK
6
CONTINUOUS
10
209.291
20
-192.357
11
209.363
21
-192.429
0
LINE
8
BLACK
6
CONTINUOUS
10
209.363
20
-192.429
11
209.434
21
-192.571
0
LINE
8
BLACK
6
CONTINUOUS
10
209.434
20
-192.571
11
209.506
21
-192.857
0
LINE
8
BLACK
6
CONTINUOUS
10
209.506
20
-192.857
11
209.506
21
-193.214
0
LINE
8
BLACK
6
CONTINUOUS
10
209.506
20
-193.214
11
209.434
21
-193.5
0
LINE
8
BLACK
6
CONTINUOUS
10
209.434
20
-193.5
11
209.363
21
-193.643
0
LINE
8
BLACK
6
CONTINUOUS
10
209.363
20
-193.643
11
209.291
21
-193.714
0
LINE
8
BLACK
6
CONTINUOUS
10
209.291
20
-193.714
11
209.149
21
-193.786
0
LINE
8
BLACK
6
CONTINUOUS
10
209.149
20
-193.786
11
209.006
21
-193.786
0
LINE
8
BLACK
6
CONTINUOUS
10
209.006
20
-193.786
11
208.863
21
-193.714
0
LINE
8
BLACK
6
CONTINUOUS
10
208.863
20
-193.714
11
208.791
21
-193.643
0
LINE
8
BLACK
6
CONTINUOUS
10
208.791
20
-193.643
11
208.72
21
-193.5
0
LINE
8
BLACK
6
CONTINUOUS
10
208.72
20
-193.5
11
208.649
21
-193.214
0
LINE
8
BLACK
6
CONTINUOUS
10
208.649
20
-193.214
11
208.649
21
-192.857
0
LINE
8
BLACK
6
CONTINUOUS
10
208.649
20
-192.857
11
208.72
21
-192.571
0
LINE
8
BLACK
6
CONTINUOUS
10
208.72
20
-192.571
11
208.791
21
-192.429
0
LINE
8
BLACK
6
CONTINUOUS
10
208.791
20
-192.429
11
208.863
21
-192.357
0
LINE
8
BLACK
6
CONTINUOUS
10
208.863
20
-192.357
11
209.006
21
-192.286
0
LINE
8
BLACK
6
CONTINUOUS
10
210.077
20
-192.429
11
210.149
21
-192.357
0
LINE
8
BLACK
6
CONTINUOUS
10
210.149
20
-192.357
11
210.291
21
-192.286
0
LINE
8
BLACK
6
CONTINUOUS
10
210.291
20
-192.286
11
210.649
21
-192.286
0
LINE
8
BLACK
6
CONTINUOUS
10
210.649
20
-192.286
11
210.791
21
-192.357
0
LINE
8
BLACK
6
CONTINUOUS
10
210.791
20
-192.357
11
210.863
21
-192.429
0
LINE
8
BLACK
6
CONTINUOUS
10
210.863
20
-192.429
11
210.934
21
-192.571
0
LINE
8
BLACK
6
CONTINUOUS
10
210.934
20
-192.571
11
210.934
21
-192.714
0
LINE
8
BLACK
6
CONTINUOUS
10
210.934
20
-192.714
11
210.863
21
-192.929
0
LINE
8
BLACK
6
CONTINUOUS
10
210.863
20
-192.929
11
210.006
21
-193.786
0
LINE
8
BLACK
6
CONTINUOUS
10
210.006
20
-193.786
11
210.934
21
-193.786
0
LINE
8
BLACK
6
CONTINUOUS
10
211.506
20
-192.429
11
211.577
21
-192.357
0
LINE
8
BLACK
6
CONTINUOUS
10
211.577
20
-192.357
11
211.72
21
-192.286
0
LINE
8
BLACK
6
CONTINUOUS
10
211.72
20
-192.286
11
212.077
21
-192.286
0
LINE
8
BLACK
6
CONTINUOUS
10
212.077
20
-192.286
11
212.22
21
-192.357
0
LINE
8
BLACK
6
CONTINUOUS
10
212.22
20
-192.357
11
212.291
21
-192.429
0
LINE
8
BLACK
6
CONTINUOUS
10
212.291
20
-192.429
11
212.363
21
-192.571
0
LINE
8
BLACK
6
CONTINUOUS
10
212.363
20
-192.571
11
212.363
21
-192.714
0
LINE
8
BLACK
6
CONTINUOUS
10
212.363
20
-192.714
11
212.291
21
-192.929
0
LINE
8
BLACK
6
CONTINUOUS
10
212.291
20
-192.929
11
211.434
21
-193.786
0
LINE
8
BLACK
6
CONTINUOUS
10
211.434
20
-193.786
11
212.363
21
-193.786
0
LINE
8
BLACK
6
CONTINUOUS
10
213.006
20
-193.214
11
214.149
21
-193.214
0
LINE
8
BLACK
6
CONTINUOUS
10
215.649
20
-193.786
11
214.791
21
-193.786
0
LINE
8
BLACK
6
CONTINUOUS
10
215.22
20
-193.786
11
215.22
21
-192.286
0
LINE
8
BLACK
6
CONTINUOUS
10
215.22
20
-192.286
11
215.077
21
-192.5
0
LINE
8
BLACK
6
CONTINUOUS
10
215.077
20
-192.5
11
214.934
21
-192.643
0
LINE
8
BLACK
6
CONTINUOUS
10
214.934
20
-192.643
11
214.791
21
-192.714
0
LINE
8
BLACK
6
CONTINUOUS
10
216.577
20
-192.286
11
216.72
21
-192.286
0
LINE
8
BLACK
6
CONTINUOUS
10
216.72
20
-192.286
11
216.863
21
-192.357
0
LINE
8
BLACK
6
CONTINUOUS
10
216.863
20
-192.357
11
216.934
21
-192.429
0
LINE
8
BLACK
6
CONTINUOUS
10
216.934
20
-192.429
11
217.006
21
-192.571
0
LINE
8
BLACK
6
CONTINUOUS
10
217.006
20
-192.571
11
217.077
21
-192.857
0
LINE
8
BLACK
6
CONTINUOUS
10
217.077
20
-192.857
11
217.077
21
-193.214
0
LINE
8
BLACK
6
CONTINUOUS
10
217.077
20
-193.214
11
217.006
21
-193.5
0
LINE
8
BLACK
6
CONTINUOUS
10
217.006
20
-193.5
11
216.934
21
-193.643
0
LINE
8
BLACK
6
CONTINUOUS
10
216.934
20
-193.643
11
216.863
21
-193.714
0
LINE
8
BLACK
6
CONTINUOUS
10
216.863
20
-193.714
11
216.72
21
-193.786
0
LINE
8
BLACK
6
CONTINUOUS
10
216.72
20
-193.786
11
216.577
21
-193.786
0
LINE
8
BLACK
6
CONTINUOUS
10
216.577
20
-193.786
11
216.434
21
-193.714
0
LINE
8
BLACK
6
CONTINUOUS
10
216.434
20
-193.714
11
216.363
21
-193.643
0
LINE
8
BLACK
6
CONTINUOUS
10
216.363
20
-193.643
11
216.291
21
-193.5
0
LINE
8
BLACK
6
CONTINUOUS
10
216.291
20
-193.5
11
216.22
21
-193.214
0
LINE
8
BLACK
6
CONTINUOUS
10
216.22
20
-193.214
11
216.22
21
-192.857
0
LINE
8
BLACK
6
CONTINUOUS
10
216.22
20
-192.857
11
216.291
21
-192.571
0
LINE
8
BLACK
6
CONTINUOUS
10
216.291
20
-192.571
11
216.363
21
-192.429
0
LINE
8
BLACK
6
CONTINUOUS
10
216.363
20
-192.429
11
216.434
21
-192.357
0
LINE
8
BLACK
6
CONTINUOUS
10
216.434
20
-192.357
11
216.577
21
-192.286
0
LINE
8
BLACK
6
CONTINUOUS
10
217.72
20
-193.214
11
218.863
21
-193.214
0
LINE
8
BLACK
6
CONTINUOUS
10
219.506
20
-192.429
11
219.577
21
-192.357
0
LINE
8
BLACK
6
CONTINUOUS
10
219.577
20
-192.357
11
219.72
21
-192.286
0
LINE
8
BLACK
6
CONTINUOUS
10
219.72
20
-192.286
11
220.077
21
-192.286
0
LINE
8
BLACK
6
CONTINUOUS
10
220.077
20
-192.286
11
220.22
21
-192.357
0
LINE
8
BLACK
6
CONTINUOUS
10
220.22
20
-192.357
11
220.291
21
-192.429
0
LINE
8
BLACK
6
CONTINUOUS
10
220.291
20
-192.429
11
220.363
21
-192.571
0
LINE
8
BLACK
6
CONTINUOUS
10
220.363
20
-192.571
11
220.363
21
-192.714
0
LINE
8
BLACK
6
CONTINUOUS
10
220.363
20
-192.714
11
220.291
21
-192.929
0
LINE
8
BLACK
6
CONTINUOUS
10
220.291
20
-192.929
11
219.434
21
-193.786
0
LINE
8
BLACK
6
CONTINUOUS
10
219.434
20
-193.786
11
220.363
21
-193.786
0
LINE
8
BLACK
6
CONTINUOUS
10
221.791
20
-193.786
11
220.934
21
-193.786
0
LINE
8
BLACK
6
CONTINUOUS
10
221.363
20
-193.786
11
221.363
21
-192.286
0
LINE
8
BLACK
6
CONTINUOUS
10
221.363
20
-192.286
11
221.22
21
-192.5
0
LINE
8
BLACK
6
CONTINUOUS
10
221.22
20
-192.5
11
221.077
21
-192.643
0
LINE
8
BLACK
6
CONTINUOUS
10
221.077
20
-192.643
11
220.934
21
-192.714
0
LINE
8
BLACK
6
CONTINUOUS
10
177.002
20
-194.507
11
285.002
21
-194.507
0
LINE
8
BLACK
6
CONTINUOUS
10
178.434
20
-196.586
11
178.434
21
-195.086
0
LINE
8
BLACK
6
CONTINUOUS
10
179.291
20
-196.586
11
178.649
21
-195.729
0
LINE
8
BLACK
6
CONTINUOUS
10
179.291
20
-195.086
11
178.434
21
-195.943
0
LINE
8
BLACK
6
CONTINUOUS
10
179.934
20
-196.586
11
179.934
21
-195.586
0
LINE
8
BLACK
6
CONTINUOUS
10
179.934
20
-195.086
11
179.863
21
-195.157
0
LINE
8
BLACK
6
CONTINUOUS
10
179.863
20
-195.157
11
179.934
21
-195.229
0
LINE
8
BLACK
6
CONTINUOUS
10
179.934
20
-195.229
11
180.006
21
-195.157
0
LINE
8
BLACK
6
CONTINUOUS
10
180.006
20
-195.157
11
179.934
21
-195.086
0
LINE
8
BLACK
6
CONTINUOUS
10
179.934
20
-195.086
11
179.934
21
-195.229
0
LINE
8
BLACK
6
CONTINUOUS
10
181.506
20
-196.443
11
181.434
21
-196.514
0
LINE
8
BLACK
6
CONTINUOUS
10
181.434
20
-196.514
11
181.22
21
-196.586
0
LINE
8
BLACK
6
CONTINUOUS
10
181.22
20
-196.586
11
181.077
21
-196.586
0
LINE
8
BLACK
6
CONTINUOUS
10
181.077
20
-196.586
11
180.863
21
-196.514
0
LINE
8
BLACK
6
CONTINUOUS
10
180.863
20
-196.514
11
180.72
21
-196.371
0
LINE
8
BLACK
6
CONTINUOUS
10
180.72
20
-196.371
11
180.649
21
-196.229
0
LINE
8
BLACK
6
CONTINUOUS
10
180.649
20
-196.229
11
180.577
21
-195.943
0
LINE
8
BLACK
6
CONTINUOUS
10
180.577
20
-195.943
11
180.577
21
-195.729
0
LINE
8
BLACK
6
CONTINUOUS
10
180.577
20
-195.729
11
180.649
21
-195.443
0
LINE
8
BLACK
6
CONTINUOUS
10
180.649
20
-195.443
11
180.72
21
-195.3
0
LINE
8
BLACK
6
CONTINUOUS
10
180.72
20
-195.3
11
180.863
21
-195.157
0
LINE
8
BLACK
6
CONTINUOUS
10
180.863
20
-195.157
11
181.077
21
-195.086
0
LINE
8
BLACK
6
CONTINUOUS
10
181.077
20
-195.086
11
181.22
21
-195.086
0
LINE
8
BLACK
6
CONTINUOUS
10
181.22
20
-195.086
11
181.434
21
-195.157
0
LINE
8
BLACK
6
CONTINUOUS
10
181.434
20
-195.157
11
181.506
21
-195.229
0
LINE
8
BLACK
6
CONTINUOUS
10
182.791
20
-196.586
11
182.791
21
-195.8
0
LINE
8
BLACK
6
CONTINUOUS
10
182.791
20
-195.8
11
182.72
21
-195.657
0
LINE
8
BLACK
6
CONTINUOUS
10
182.72
20
-195.657
11
182.577
21
-195.586
0
LINE
8
BLACK
6
CONTINUOUS
10
182.577
20
-195.586
11
182.291
21
-195.586
0
LINE
8
BLACK
6
CONTINUOUS
10
182.291
20
-195.586
11
182.149
21
-195.657
0
LINE
8
BLACK
6
CONTINUOUS
10
182.791
20
-196.514
11
182.649
21
-196.586
0
LINE
8
BLACK
6
CONTINUOUS
10
182.649
20
-196.586
11
182.291
21
-196.586
0
LINE
8
BLACK
6
CONTINUOUS
10
182.291
20
-196.586
11
182.149
21
-196.514
0
LINE
8
BLACK
6
CONTINUOUS
10
182.149
20
-196.514
11
182.077
21
-196.371
0
LINE
8
BLACK
6
CONTINUOUS
10
182.077
20
-196.371
11
182.077
21
-196.229
0
LINE
8
BLACK
6
CONTINUOUS
10
182.077
20
-196.229
11
182.149
21
-196.086
0
LINE
8
BLACK
6
CONTINUOUS
10
182.149
20
-196.086
11
182.291
21
-196.014
0
LINE
8
BLACK
6
CONTINUOUS
10
182.291
20
-196.014
11
182.649
21
-196.014
0
LINE
8
BLACK
6
CONTINUOUS
10
182.649
20
-196.014
11
182.791
21
-195.943
0
LINE
8
BLACK
6
CONTINUOUS
10
184.149
20
-196.586
11
184.149
21
-195.086
0
LINE
8
BLACK
6
CONTINUOUS
10
184.149
20
-196.514
11
184.006
21
-196.586
0
LINE
8
BLACK
6
CONTINUOUS
10
184.006
20
-196.586
11
183.72
21
-196.586
0
LINE
8
BLACK
6
CONTINUOUS
10
183.72
20
-196.586
11
183.577
21
-196.514
0
LINE
8
BLACK
6
CONTINUOUS
10
183.577
20
-196.514
11
183.506
21
-196.443
0
LINE
8
BLACK
6
CONTINUOUS
10
183.506
20
-196.443
11
183.434
21
-196.3
0
LINE
8
BLACK
6
CONTINUOUS
10
183.434
20
-196.3
11
183.434
21
-195.871
0
LINE
8
BLACK
6
CONTINUOUS
10
183.434
20
-195.871
11
183.506
21
-195.729
0
LINE
8
BLACK
6
CONTINUOUS
10
183.506
20
-195.729
11
183.577
21
-195.657
0
LINE
8
BLACK
6
CONTINUOUS
10
183.577
20
-195.657
11
183.72
21
-195.586
0
LINE
8
BLACK
6
CONTINUOUS
10
183.72
20
-195.586
11
184.006
21
-195.586
0
LINE
8
BLACK
6
CONTINUOUS
10
184.006
20
-195.586
11
184.149
21
-195.657
0
LINE
8
BLACK
6
CONTINUOUS
10
186.006
20
-195.8
11
186.506
21
-195.8
0
LINE
8
BLACK
6
CONTINUOUS
10
186.72
20
-196.586
11
186.006
21
-196.586
0
LINE
8
BLACK
6
CONTINUOUS
10
186.006
20
-196.586
11
186.006
21
-195.086
0
LINE
8
BLACK
6
CONTINUOUS
10
186.006
20
-195.086
11
186.72
21
-195.086
0
LINE
8
BLACK
6
CONTINUOUS
10
187.363
20
-196.443
11
187.434
21
-196.514
0
LINE
8
BLACK
6
CONTINUOUS
10
187.434
20
-196.514
11
187.363
21
-196.586
0
LINE
8
BLACK
6
CONTINUOUS
10
187.363
20
-196.586
11
187.291
21
-196.514
0
LINE
8
BLACK
6
CONTINUOUS
10
187.291
20
-196.514
11
187.363
21
-196.443
0
LINE
8
BLACK
6
CONTINUOUS
10
187.363
20
-196.443
11
187.363
21
-196.586
0
LINE
8
BLACK
6
CONTINUOUS
10
188.077
20
-196.586
11
188.077
21
-195.086
0
LINE
8
BLACK
6
CONTINUOUS
10
188.077
20
-195.086
11
188.434
21
-195.086
0
LINE
8
BLACK
6
CONTINUOUS
10
188.434
20
-195.086
11
188.649
21
-195.157
0
LINE
8
BLACK
6
CONTINUOUS
10
188.649
20
-195.157
11
188.791
21
-195.3
0
LINE
8
BLACK
6
CONTINUOUS
10
188.791
20
-195.3
11
188.863
21
-195.443
0
LINE
8
BLACK
6
CONTINUOUS
10
188.863
20
-195.443
11
188.934
21
-195.729
0
LINE
8
BLACK
6
CONTINUOUS
10
188.934
20
-195.729
11
188.934
21
-195.943
0
LINE
8
BLACK
6
CONTINUOUS
10
188.934
20
-195.943
11
188.863
21
-196.229
0
LINE
8
BLACK
6
CONTINUOUS
10
188.863
20
-196.229
11
188.791
21
-196.371
0
LINE
8
BLACK
6
CONTINUOUS
10
188.791
20
-196.371
11
188.649
21
-196.514
0
LINE
8
BLACK
6
CONTINUOUS
10
188.649
20
-196.514
11
188.434
21
-196.586
0
LINE
8
BLACK
6
CONTINUOUS
10
188.434
20
-196.586
11
188.077
21
-196.586
0
LINE
8
BLACK
6
CONTINUOUS
10
189.577
20
-196.443
11
189.649
21
-196.514
0
LINE
8
BLACK
6
CONTINUOUS
10
189.649
20
-196.514
11
189.577
21
-196.586
0
LINE
8
BLACK
6
CONTINUOUS
10
189.577
20
-196.586
11
189.506
21
-196.514
0
LINE
8
BLACK
6
CONTINUOUS
10
189.506
20
-196.514
11
189.577
21
-196.443
0
LINE
8
BLACK
6
CONTINUOUS
10
189.577
20
-196.443
11
189.577
21
-196.586
0
LINE
8
BLACK
6
CONTINUOUS
10
190.22
20
-196.157
11
190.934
21
-196.157
0
LINE
8
BLACK
6
CONTINUOUS
10
190.077
20
-196.586
11
190.577
21
-195.086
0
LINE
8
BLACK
6
CONTINUOUS
10
190.577
20
-195.086
11
191.077
21
-196.586
0
LINE
8
BLACK
6
CONTINUOUS
10
191.577
20
-196.443
11
191.649
21
-196.514
0
LINE
8
BLACK
6
CONTINUOUS
10
191.649
20
-196.514
11
191.577
21
-196.586
0
LINE
8
BLACK
6
CONTINUOUS
10
191.577
20
-196.586
11
191.506
21
-196.514
0
LINE
8
BLACK
6
CONTINUOUS
10
191.506
20
-196.514
11
191.577
21
-196.443
0
LINE
8
BLACK
6
CONTINUOUS
10
191.577
20
-196.443
11
191.577
21
-196.586
0
LINE
8
BLACK
6
CONTINUOUS
10
194.577
20
-196.586
11
194.577
21
-195.086
0
LINE
8
BLACK
6
CONTINUOUS
10
194.72
20
-196.014
11
195.149
21
-196.586
0
LINE
8
BLACK
6
CONTINUOUS
10
195.149
20
-195.586
11
194.577
21
-196.157
0
LINE
8
BLACK
6
CONTINUOUS
10
195.791
20
-196.586
11
195.791
21
-195.586
0
LINE
8
BLACK
6
CONTINUOUS
10
195.791
20
-195.086
11
195.72
21
-195.157
0
LINE
8
BLACK
6
CONTINUOUS
10
195.72
20
-195.157
11
195.791
21
-195.229
0
LINE
8
BLACK
6
CONTINUOUS
10
195.791
20
-195.229
11
195.863
21
-195.157
0
LINE
8
BLACK
6
CONTINUOUS
10
195.863
20
-195.157
11
195.791
21
-195.086
0
LINE
8
BLACK
6
CONTINUOUS
10
195.791
20
-195.086
11
195.791
21
-195.229
0
LINE
8
BLACK
6
CONTINUOUS
10
197.149
20
-196.514
11
197.006
21
-196.586
0
LINE
8
BLACK
6
CONTINUOUS
10
197.006
20
-196.586
11
196.72
21
-196.586
0
LINE
8
BLACK
6
CONTINUOUS
10
196.72
20
-196.586
11
196.577
21
-196.514
0
LINE
8
BLACK
6
CONTINUOUS
10
196.577
20
-196.514
11
196.506
21
-196.443
0
LINE
8
BLACK
6
CONTINUOUS
10
196.506
20
-196.443
11
196.434
21
-196.3
0
LINE
8
BLACK
6
CONTINUOUS
10
196.434
20
-196.3
11
196.434
21
-195.871
0
LINE
8
BLACK
6
CONTINUOUS
10
196.434
20
-195.871
11
196.506
21
-195.729
0
LINE
8
BLACK
6
CONTINUOUS
10
196.506
20
-195.729
11
196.577
21
-195.657
0
LINE
8
BLACK
6
CONTINUOUS
10
196.577
20
-195.657
11
196.72
21
-195.586
0
LINE
8
BLACK
6
CONTINUOUS
10
196.72
20
-195.586
11
197.006
21
-195.586
0
LINE
8
BLACK
6
CONTINUOUS
10
197.006
20
-195.586
11
197.149
21
-195.657
0
LINE
8
BLACK
6
CONTINUOUS
10
198.434
20
-196.586
11
198.434
21
-195.8
0
LINE
8
BLACK
6
CONTINUOUS
10
198.434
20
-195.8
11
198.363
21
-195.657
0
LINE
8
BLACK
6
CONTINUOUS
10
198.363
20
-195.657
11
198.22
21
-195.586
0
LINE
8
BLACK
6
CONTINUOUS
10
198.22
20
-195.586
11
197.934
21
-195.586
0
LINE
8
BLACK
6
CONTINUOUS
10
197.934
20
-195.586
11
197.791
21
-195.657
0
LINE
8
BLACK
6
CONTINUOUS
10
198.434
20
-196.514
11
198.291
21
-196.586
0
LINE
8
BLACK
6
CONTINUOUS
10
198.291
20
-196.586
11
197.934
21
-196.586
0
LINE
8
BLACK
6
CONTINUOUS
10
197.934
20
-196.586
11
197.791
21
-196.514
0
LINE
8
BLACK
6
CONTINUOUS
10
197.791
20
-196.514
11
197.72
21
-196.371
0
LINE
8
BLACK
6
CONTINUOUS
10
197.72
20
-196.371
11
197.72
21
-196.229
0
LINE
8
BLACK
6
CONTINUOUS
10
197.72
20
-196.229
11
197.791
21
-196.086
0
LINE
8
BLACK
6
CONTINUOUS
10
197.791
20
-196.086
11
197.934
21
-196.014
0
LINE
8
BLACK
6
CONTINUOUS
10
197.934
20
-196.014
11
198.291
21
-196.014
0
LINE
8
BLACK
6
CONTINUOUS
10
198.291
20
-196.014
11
198.434
21
-195.943
0
LINE
8
BLACK
6
CONTINUOUS
10
199.791
20
-196.586
11
199.791
21
-195.086
0
LINE
8
BLACK
6
CONTINUOUS
10
199.791
20
-196.514
11
199.649
21
-196.586
0
LINE
8
BLACK
6
CONTINUOUS
10
199.649
20
-196.586
11
199.363
21
-196.586
0
LINE
8
BLACK
6
CONTINUOUS
10
199.363
20
-196.586
11
199.22
21
-196.514
0
LINE
8
BLACK
6
CONTINUOUS
10
199.22
20
-196.514
11
199.149
21
-196.443
0
LINE
8
BLACK
6
CONTINUOUS
10
199.149
20
-196.443
11
199.077
21
-196.3
0
LINE
8
BLACK
6
CONTINUOUS
10
199.077
20
-196.3
11
199.077
21
-195.871
0
LINE
8
BLACK
6
CONTINUOUS
10
199.077
20
-195.871
11
199.149
21
-195.729
0
LINE
8
BLACK
6
CONTINUOUS
10
199.149
20
-195.729
11
199.22
21
-195.657
0
LINE
8
BLACK
6
CONTINUOUS
10
199.22
20
-195.657
11
199.363
21
-195.586
0
LINE
8
BLACK
6
CONTINUOUS
10
199.363
20
-195.586
11
199.649
21
-195.586
0
LINE
8
BLACK
6
CONTINUOUS
10
199.649
20
-195.586
11
199.791
21
-195.657
0
LINE
8
BLACK
6
CONTINUOUS
10
202.077
20
-197.157
11
202.006
21
-197.086
0
LINE
8
BLACK
6
CONTINUOUS
10
202.006
20
-197.086
11
201.863
21
-196.871
0
LINE
8
BLACK
6
CONTINUOUS
10
201.863
20
-196.871
11
201.791
21
-196.729
0
LINE
8
BLACK
6
CONTINUOUS
10
201.791
20
-196.729
11
201.72
21
-196.514
0
LINE
8
BLACK
6
CONTINUOUS
10
201.72
20
-196.514
11
201.649
21
-196.157
0
LINE
8
BLACK
6
CONTINUOUS
10
201.649
20
-196.157
11
201.649
21
-195.871
0
LINE
8
BLACK
6
CONTINUOUS
10
201.649
20
-195.871
11
201.72
21
-195.514
0
LINE
8
BLACK
6
CONTINUOUS
10
201.72
20
-195.514
11
201.791
21
-195.3
0
LINE
8
BLACK
6
CONTINUOUS
10
201.791
20
-195.3
11
201.863
21
-195.157
0
LINE
8
BLACK
6
CONTINUOUS
10
201.863
20
-195.157
11
202.006
21
-194.943
0
LINE
8
BLACK
6
CONTINUOUS
10
202.006
20
-194.943
11
202.077
21
-194.871
0
LINE
8
BLACK
6
CONTINUOUS
10
203.291
20
-195.086
11
203.006
21
-195.086
0
LINE
8
BLACK
6
CONTINUOUS
10
203.006
20
-195.086
11
202.863
21
-195.157
0
LINE
8
BLACK
6
CONTINUOUS
10
202.863
20
-195.157
11
202.791
21
-195.229
0
LINE
8
BLACK
6
CONTINUOUS
10
202.791
20
-195.229
11
202.649
21
-195.443
0
LINE
8
BLACK
6
CONTINUOUS
10
202.649
20
-195.443
11
202.577
21
-195.729
0
LINE
8
BLACK
6
CONTINUOUS
10
202.577
20
-195.729
11
202.577
21
-196.3
0
LINE
8
BLACK
6
CONTINUOUS
10
202.577
20
-196.3
11
202.649
21
-196.443
0
LINE
8
BLACK
6
CONTINUOUS
10
202.649
20
-196.443
11
202.72
21
-196.514
0
LINE
8
BLACK
6
CONTINUOUS
10
202.72
20
-196.514
11
202.863
21
-196.586
0
LINE
8
BLACK
6
CONTINUOUS
10
202.863
20
-196.586
11
203.149
21
-196.586
0
LINE
8
BLACK
6
CONTINUOUS
10
203.149
20
-196.586
11
203.291
21
-196.514
0
LINE
8
BLACK
6
CONTINUOUS
10
203.291
20
-196.514
11
203.363
21
-196.443
0
LINE
8
BLACK
6
CONTINUOUS
10
203.363
20
-196.443
11
203.434
21
-196.3
0
LINE
8
BLACK
6
CONTINUOUS
10
203.434
20
-196.3
11
203.434
21
-195.943
0
LINE
8
BLACK
6
CONTINUOUS
10
203.434
20
-195.943
11
203.363
21
-195.8
0
LINE
8
BLACK
6
CONTINUOUS
10
203.363
20
-195.8
11
203.291
21
-195.729
0
LINE
8
BLACK
6
CONTINUOUS
10
203.291
20
-195.729
11
203.149
21
-195.657
0
LINE
8
BLACK
6
CONTINUOUS
10
203.149
20
-195.657
11
202.863
21
-195.657
0
LINE
8
BLACK
6
CONTINUOUS
10
202.863
20
-195.657
11
202.72
21
-195.729
0
LINE
8
BLACK
6
CONTINUOUS
10
202.72
20
-195.729
11
202.649
21
-195.8
0
LINE
8
BLACK
6
CONTINUOUS
10
202.649
20
-195.8
11
202.577
21
-195.943
0
LINE
8
BLACK
6
CONTINUOUS
10
204.077
20
-196.443
11
204.149
21
-196.514
0
LINE
8
BLACK
6
CONTINUOUS
10
204.149
20
-196.514
11
204.077
21
-196.586
0
LINE
8
BLACK
6
CONTINUOUS
10
204.077
20
-196.586
11
204.006
21
-196.514
0
LINE
8
BLACK
6
CONTINUOUS
10
204.006
20
-196.514
11
204.077
21
-196.443
0
LINE
8
BLACK
6
CONTINUOUS
10
204.077
20
-196.443
11
204.077
21
-196.586
0
LINE
8
BLACK
6
CONTINUOUS
10
205.077
20
-195.086
11
205.22
21
-195.086
0
LINE
8
BLACK
6
CONTINUOUS
10
205.22
20
-195.086
11
205.363
21
-195.157
0
LINE
8
BLACK
6
CONTINUOUS
10
205.363
20
-195.157
11
205.434
21
-195.229
0
LINE
8
BLACK
6
CONTINUOUS
10
205.434
20
-195.229
11
205.506
21
-195.371
0
LINE
8
BLACK
6
CONTINUOUS
10
205.506
20
-195.371
11
205.577
21
-195.657
0
LINE
8
BLACK
6
CONTINUOUS
10
205.577
20
-195.657
11
205.577
21
-196.014
0
LINE
8
BLACK
6
CONTINUOUS
10
205.577
20
-196.014
11
205.506
21
-196.3
0
LINE
8
BLACK
6
CONTINUOUS
10
205.506
20
-196.3
11
205.434
21
-196.443
0
LINE
8
BLACK
6
CONTINUOUS
10
205.434
20
-196.443
11
205.363
21
-196.514
0
LINE
8
BLACK
6
CONTINUOUS
10
205.363
20
-196.514
11
205.22
21
-196.586
0
LINE
8
BLACK
6
CONTINUOUS
10
205.22
20
-196.586
11
205.077
21
-196.586
0
LINE
8
BLACK
6
CONTINUOUS
10
205.077
20
-196.586
11
204.934
21
-196.514
0
LINE
8
BLACK
6
CONTINUOUS
10
204.934
20
-196.514
11
204.863
21
-196.443
0
LINE
8
BLACK
6
CONTINUOUS
10
204.863
20
-196.443
11
204.791
21
-196.3
0
LINE
8
BLACK
6
CONTINUOUS
10
204.791
20
-196.3
11
204.72
21
-196.014
0
LINE
8
BLACK
6
CONTINUOUS
10
204.72
20
-196.014
11
204.72
21
-195.657
0
LINE
8
BLACK
6
CONTINUOUS
10
204.72
20
-195.657
11
204.791
21
-195.371
0
LINE
8
BLACK
6
CONTINUOUS
10
204.791
20
-195.371
11
204.863
21
-195.229
0
LINE
8
BLACK
6
CONTINUOUS
10
204.863
20
-195.229
11
204.934
21
-195.157
0
LINE
8
BLACK
6
CONTINUOUS
10
204.934
20
-195.157
11
205.077
21
-195.086
0
LINE
8
BLACK
6
CONTINUOUS
10
206.22
20
-196.443
11
206.291
21
-196.514
0
LINE
8
BLACK
6
CONTINUOUS
10
206.291
20
-196.514
11
206.22
21
-196.586
0
LINE
8
BLACK
6
CONTINUOUS
10
206.22
20
-196.586
11
206.149
21
-196.514
0
LINE
8
BLACK
6
CONTINUOUS
10
206.149
20
-196.514
11
206.22
21
-196.443
0
LINE
8
BLACK
6
CONTINUOUS
10
206.22
20
-196.443
11
206.22
21
-196.586
0
LINE
8
BLACK
6
CONTINUOUS
10
207.577
20
-195.586
11
207.577
21
-196.586
0
LINE
8
BLACK
6
CONTINUOUS
10
207.22
20
-195.014
11
206.863
21
-196.086
0
LINE
8
BLACK
6
CONTINUOUS
10
206.863
20
-196.086
11
207.791
21
-196.086
0
LINE
8
BLACK
6
CONTINUOUS
10
208.22
20
-197.157
11
208.291
21
-197.086
0
LINE
8
BLACK
6
CONTINUOUS
10
208.291
20
-197.086
11
208.434
21
-196.871
0
LINE
8
BLACK
6
CONTINUOUS
10
208.434
20
-196.871
11
208.506
21
-196.729
0
LINE
8
BLACK
6
CONTINUOUS
10
208.506
20
-196.729
11
208.577
21
-196.514
0
LINE
8
BLACK
6
CONTINUOUS
10
208.577
20
-196.514
11
208.649
21
-196.157
0
LINE
8
BLACK
6
CONTINUOUS
10
208.649
20
-196.157
11
208.649
21
-195.871
0
LINE
8
BLACK
6
CONTINUOUS
10
208.649
20
-195.871
11
208.577
21
-195.514
0
LINE
8
BLACK
6
CONTINUOUS
10
208.577
20
-195.514
11
208.506
21
-195.3
0
LINE
8
BLACK
6
CONTINUOUS
10
208.506
20
-195.3
11
208.434
21
-195.157
0
LINE
8
BLACK
6
CONTINUOUS
10
208.434
20
-195.157
11
208.291
21
-194.943
0
LINE
8
BLACK
6
CONTINUOUS
10
208.291
20
-194.943
11
208.22
21
-194.871
0
LINE
8
BLACK
6
CONTINUOUS
10
177.002
20
-191.507
11
285.002
21
-191.507
0
LINE
8
BLACK
6
CONTINUOUS
10
264.411
20
-193.786
11
263.911
21
-193.071
0
LINE
8
BLACK
6
CONTINUOUS
10
263.554
20
-193.786
11
263.554
21
-192.286
0
LINE
8
BLACK
6
CONTINUOUS
10
263.554
20
-192.286
11
264.126
21
-192.286
0
LINE
8
BLACK
6
CONTINUOUS
10
264.126
20
-192.286
11
264.269
21
-192.357
0
LINE
8
BLACK
6
CONTINUOUS
10
264.269
20
-192.357
11
264.34
21
-192.429
0
LINE
8
BLACK
6
CONTINUOUS
10
264.34
20
-192.429
11
264.411
21
-192.571
0
LINE
8
BLACK
6
CONTINUOUS
10
264.411
20
-192.571
11
264.411
21
-192.786
0
LINE
8
BLACK
6
CONTINUOUS
10
264.411
20
-192.786
11
264.34
21
-192.929
0
LINE
8
BLACK
6
CONTINUOUS
10
264.34
20
-192.929
11
264.269
21
-193
0
LINE
8
BLACK
6
CONTINUOUS
10
264.269
20
-193
11
264.126
21
-193.071
0
LINE
8
BLACK
6
CONTINUOUS
10
264.126
20
-193.071
11
263.554
21
-193.071
0
LINE
8
BLACK
6
CONTINUOUS
10
265.626
20
-193.714
11
265.483
21
-193.786
0
LINE
8
BLACK
6
CONTINUOUS
10
265.483
20
-193.786
11
265.197
21
-193.786
0
LINE
8
BLACK
6
CONTINUOUS
10
265.197
20
-193.786
11
265.054
21
-193.714
0
LINE
8
BLACK
6
CONTINUOUS
10
265.054
20
-193.714
11
264.983
21
-193.571
0
LINE
8
BLACK
6
CONTINUOUS
10
264.983
20
-193.571
11
264.983
21
-193
0
LINE
8
BLACK
6
CONTINUOUS
10
264.983
20
-193
11
265.054
21
-192.857
0
LINE
8
BLACK
6
CONTINUOUS
10
265.054
20
-192.857
11
265.197
21
-192.786
0
LINE
8
BLACK
6
CONTINUOUS
10
265.197
20
-192.786
11
265.483
21
-192.786
0
LINE
8
BLACK
6
CONTINUOUS
10
265.483
20
-192.786
11
265.626
21
-192.857
0
LINE
8
BLACK
6
CONTINUOUS
10
265.626
20
-192.857
11
265.697
21
-193
0
LINE
8
BLACK
6
CONTINUOUS
10
265.697
20
-193
11
265.697
21
-193.143
0
LINE
8
BLACK
6
CONTINUOUS
10
265.697
20
-193.143
11
264.983
21
-193.286
0
LINE
8
BLACK
6
CONTINUOUS
10
266.197
20
-192.786
11
266.554
21
-193.786
0
LINE
8
BLACK
6
CONTINUOUS
10
266.554
20
-193.786
11
266.911
21
-192.786
0
LINE
8
BLACK
6
CONTINUOUS
10
267.483
20
-193.643
11
267.554
21
-193.714
0
LINE
8
BLACK
6
CONTINUOUS
10
267.554
20
-193.714
11
267.483
21
-193.786
0
LINE
8
BLACK
6
CONTINUOUS
10
267.483
20
-193.786
11
267.411
21
-193.714
0
LINE
8
BLACK
6
CONTINUOUS
10
267.411
20
-193.714
11
267.483
21
-193.643
0
LINE
8
BLACK
6
CONTINUOUS
10
267.483
20
-193.643
11
267.483
21
-193.786
0
LINE
8
BLACK
6
CONTINUOUS
10
267.483
20
-192.857
11
267.554
21
-192.929
0
LINE
8
BLACK
6
CONTINUOUS
10
267.554
20
-192.929
11
267.483
21
-193
0
LINE
8
BLACK
6
CONTINUOUS
10
267.483
20
-193
11
267.411
21
-192.929
0
LINE
8
BLACK
6
CONTINUOUS
10
267.411
20
-192.929
11
267.483
21
-192.857
0
LINE
8
BLACK
6
CONTINUOUS
10
267.483
20
-192.857
11
267.483
21
-193
0
LINE
8
BLACK
6
CONTINUOUS
10
269.626
20
-192.286
11
269.769
21
-192.286
0
LINE
8
BLACK
6
CONTINUOUS
10
269.769
20
-192.286
11
269.911
21
-192.357
0
LINE
8
BLACK
6
CONTINUOUS
10
269.911
20
-192.357
11
269.983
21
-192.429
0
LINE
8
BLACK
6
CONTINUOUS
10
269.983
20
-192.429
11
270.054
21
-192.571
0
LINE
8
BLACK
6
CONTINUOUS
10
270.054
20
-192.571
11
270.126
21
-192.857
0
LINE
8
BLACK
6
CONTINUOUS
10
270.126
20
-192.857
11
270.126
21
-193.214
0
LINE
8
BLACK
6
CONTINUOUS
10
270.126
20
-193.214
11
270.054
21
-193.5
0
LINE
8
BLACK
6
CONTINUOUS
10
270.054
20
-193.5
11
269.983
21
-193.643
0
LINE
8
BLACK
6
CONTINUOUS
10
269.983
20
-193.643
11
269.911
21
-193.714
0
LINE
8
BLACK
6
CONTINUOUS
10
269.911
20
-193.714
11
269.769
21
-193.786
0
LINE
8
BLACK
6
CONTINUOUS
10
269.769
20
-193.786
11
269.626
21
-193.786
0
LINE
8
BLACK
6
CONTINUOUS
10
269.626
20
-193.786
11
269.483
21
-193.714
0
LINE
8
BLACK
6
CONTINUOUS
10
269.483
20
-193.714
11
269.411
21
-193.643
0
LINE
8
BLACK
6
CONTINUOUS
10
269.411
20
-193.643
11
269.34
21
-193.5
0
LINE
8
BLACK
6
CONTINUOUS
10
269.34
20
-193.5
11
269.269
21
-193.214
0
LINE
8
BLACK
6
CONTINUOUS
10
269.269
20
-193.214
11
269.269
21
-192.857
0
LINE
8
BLACK
6
CONTINUOUS
10
269.269
20
-192.857
11
269.34
21
-192.571
0
LINE
8
BLACK
6
CONTINUOUS
10
269.34
20
-192.571
11
269.411
21
-192.429
0
LINE
8
BLACK
6
CONTINUOUS
10
269.411
20
-192.429
11
269.483
21
-192.357
0
LINE
8
BLACK
6
CONTINUOUS
10
269.483
20
-192.357
11
269.626
21
-192.286
0
LINE
8
BLACK
6
CONTINUOUS
10
270.769
20
-193.643
11
270.84
21
-193.714
0
LINE
8
BLACK
6
CONTINUOUS
10
270.84
20
-193.714
11
270.769
21
-193.786
0
LINE
8
BLACK
6
CONTINUOUS
10
270.769
20
-193.786
11
270.697
21
-193.714
0
LINE
8
BLACK
6
CONTINUOUS
10
270.697
20
-193.714
11
270.769
21
-193.643
0
LINE
8
BLACK
6
CONTINUOUS
10
270.769
20
-193.643
11
270.769
21
-193.786
0
LINE
8
BLACK
6
CONTINUOUS
10
271.411
20
-192.429
11
271.483
21
-192.357
0
LINE
8
BLACK
6
CONTINUOUS
10
271.483
20
-192.357
11
271.626
21
-192.286
0
LINE
8
BLACK
6
CONTINUOUS
10
271.626
20
-192.286
11
271.983
21
-192.286
0
LINE
8
BLACK
6
CONTINUOUS
10
271.983
20
-192.286
11
272.126
21
-192.357
0
LINE
8
BLACK
6
CONTINUOUS
10
272.126
20
-192.357
11
272.197
21
-192.429
0
LINE
8
BLACK
6
CONTINUOUS
10
272.197
20
-192.429
11
272.269
21
-192.571
0
LINE
8
BLACK
6
CONTINUOUS
10
272.269
20
-192.571
11
272.269
21
-192.714
0
LINE
8
BLACK
6
CONTINUOUS
10
272.269
20
-192.714
11
272.197
21
-192.929
0
LINE
8
BLACK
6
CONTINUOUS
10
272.197
20
-192.929
11
271.34
21
-193.786
0
LINE
8
BLACK
6
CONTINUOUS
10
271.34
20
-193.786
11
272.269
21
-193.786
0
LINE
8
BLACK
6
CONTINUOUS
10
178.363
20
-193.714
11
178.577
21
-193.786
0
LINE
8
BLACK
6
CONTINUOUS
10
178.577
20
-193.786
11
178.934
21
-193.786
0
LINE
8
BLACK
6
CONTINUOUS
10
178.934
20
-193.786
11
179.077
21
-193.714
0
LINE
8
BLACK
6
CONTINUOUS
10
179.077
20
-193.714
11
179.149
21
-193.643
0
LINE
8
BLACK
6
CONTINUOUS
10
179.149
20
-193.643
11
179.22
21
-193.5
0
LINE
8
BLACK
6
CONTINUOUS
10
179.22
20
-193.5
11
179.22
21
-193.357
0
LINE
8
BLACK
6
CONTINUOUS
10
179.22
20
-193.357
11
179.149
21
-193.214
0
LINE
8
BLACK
6
CONTINUOUS
10
179.149
20
-193.214
11
179.077
21
-193.143
0
LINE
8
BLACK
6
CONTINUOUS
10
179.077
20
-193.143
11
178.934
21
-193.071
0
LINE
8
BLACK
6
CONTINUOUS
10
178.934
20
-193.071
11
178.649
21
-193
0
LINE
8
BLACK
6
CONTINUOUS
10
178.649
20
-193
11
178.506
21
-192.929
0
LINE
8
BLACK
6
CONTINUOUS
10
178.506
20
-192.929
11
178.434
21
-192.857
0
LINE
8
BLACK
6
CONTINUOUS
10
178.434
20
-192.857
11
178.363
21
-192.714
0
LINE
8
BLACK
6
CONTINUOUS
10
178.363
20
-192.714
11
178.363
21
-192.571
0
LINE
8
BLACK
6
CONTINUOUS
10
178.363
20
-192.571
11
178.434
21
-192.429
0
LINE
8
BLACK
6
CONTINUOUS
10
178.434
20
-192.429
11
178.506
21
-192.357
0
LINE
8
BLACK
6
CONTINUOUS
10
178.506
20
-192.357
11
178.649
21
-192.286
0
LINE
8
BLACK
6
CONTINUOUS
10
178.649
20
-192.286
11
179.006
21
-192.286
0
LINE
8
BLACK
6
CONTINUOUS
10
179.006
20
-192.286
11
179.22
21
-192.357
0
LINE
8
BLACK
6
CONTINUOUS
10
179.863
20
-193.786
11
179.863
21
-192.786
0
LINE
8
BLACK
6
CONTINUOUS
10
179.863
20
-192.286
11
179.791
21
-192.357
0
LINE
8
BLACK
6
CONTINUOUS
10
179.791
20
-192.357
11
179.863
21
-192.429
0
LINE
8
BLACK
6
CONTINUOUS
10
179.863
20
-192.429
11
179.934
21
-192.357
0
LINE
8
BLACK
6
CONTINUOUS
10
179.934
20
-192.357
11
179.863
21
-192.286
0
LINE
8
BLACK
6
CONTINUOUS
10
179.863
20
-192.286
11
179.863
21
-192.429
0
LINE
8
BLACK
6
CONTINUOUS
10
180.434
20
-192.786
11
181.22
21
-192.786
0
LINE
8
BLACK
6
CONTINUOUS
10
181.22
20
-192.786
11
180.434
21
-193.786
0
LINE
8
BLACK
6
CONTINUOUS
10
180.434
20
-193.786
11
181.22
21
-193.786
0
LINE
8
BLACK
6
CONTINUOUS
10
182.363
20
-193.714
11
182.22
21
-193.786
0
LINE
8
BLACK
6
CONTINUOUS
10
182.22
20
-193.786
11
181.934
21
-193.786
0
LINE
8
BLACK
6
CONTINUOUS
10
181.934
20
-193.786
11
181.791
21
-193.714
0
LINE
8
BLACK
6
CONTINUOUS
10
181.791
20
-193.714
11
181.72
21
-193.571
0
LINE
8
BLACK
6
CONTINUOUS
10
181.72
20
-193.571
11
181.72
21
-193
0
LINE
8
BLACK
6
CONTINUOUS
10
181.72
20
-193
11
181.791
21
-192.857
0
LINE
8
BLACK
6
CONTINUOUS
10
181.791
20
-192.857
11
181.934
21
-192.786
0
LINE
8
BLACK
6
CONTINUOUS
10
181.934
20
-192.786
11
182.22
21
-192.786
0
LINE
8
BLACK
6
CONTINUOUS
10
182.22
20
-192.786
11
182.363
21
-192.857
0
LINE
8
BLACK
6
CONTINUOUS
10
182.363
20
-192.857
11
182.434
21
-193
0
LINE
8
BLACK
6
CONTINUOUS
10
182.434
20
-193
11
182.434
21
-193.143
0
LINE
8
BLACK
6
CONTINUOUS
10
182.434
20
-193.143
11
181.72
21
-193.286
0
LINE
8
BLACK
6
CONTINUOUS
10
183.077
20
-193.643
11
183.149
21
-193.714
0
LINE
8
BLACK
6
CONTINUOUS
10
183.149
20
-193.714
11
183.077
21
-193.786
0
LINE
8
BLACK
6
CONTINUOUS
10
183.077
20
-193.786
11
183.006
21
-193.714
0
LINE
8
BLACK
6
CONTINUOUS
10
183.006
20
-193.714
11
183.077
21
-193.643
0
LINE
8
BLACK
6
CONTINUOUS
10
183.077
20
-193.643
11
183.077
21
-193.786
0
LINE
8
BLACK
6
CONTINUOUS
10
183.077
20
-192.857
11
183.149
21
-192.929
0
LINE
8
BLACK
6
CONTINUOUS
10
183.149
20
-192.929
11
183.077
21
-193
0
LINE
8
BLACK
6
CONTINUOUS
10
183.077
20
-193
11
183.006
21
-192.929
0
LINE
8
BLACK
6
CONTINUOUS
10
183.006
20
-192.929
11
183.077
21
-192.857
0
LINE
8
BLACK
6
CONTINUOUS
10
183.077
20
-192.857
11
183.077
21
-193
0
LINE
8
BLACK
6
CONTINUOUS
10
184.863
20
-193.357
11
185.577
21
-193.357
0
LINE
8
BLACK
6
CONTINUOUS
10
184.72
20
-193.786
11
185.22
21
-192.286
0
LINE
8
BLACK
6
CONTINUOUS
10
185.22
20
-192.286
11
185.72
21
-193.786
0
LINE
8
BLACK
6
CONTINUOUS
10
186.863
20
-192.786
11
186.863
21
-193.786
0
LINE
8
BLACK
6
CONTINUOUS
10
186.506
20
-192.214
11
186.149
21
-193.286
0
LINE
8
BLACK
6
CONTINUOUS
10
186.149
20
-193.286
11
187.077
21
-193.286
0
LINE
8
BLACK
6
CONTINUOUS
10
263.434
20
-196.586
11
263.434
21
-195.086
0
LINE
8
BLACK
6
CONTINUOUS
10
264.791
20
-196.586
11
264.791
21
-195.086
0
LINE
8
BLACK
6
CONTINUOUS
10
264.791
20
-196.514
11
264.649
21
-196.586
0
LINE
8
BLACK
6
CONTINUOUS
10
264.649
20
-196.586
11
264.363
21
-196.586
0
LINE
8
BLACK
6
CONTINUOUS
10
264.363
20
-196.586
11
264.22
21
-196.514
0
LINE
8
BLACK
6
CONTINUOUS
10
264.22
20
-196.514
11
264.149
21
-196.443
0
LINE
8
BLACK
6
CONTINUOUS
10
264.149
20
-196.443
11
264.077
21
-196.3
0
LINE
8
BLACK
6
CONTINUOUS
10
264.077
20
-196.3
11
264.077
21
-195.871
0
LINE
8
BLACK
6
CONTINUOUS
10
264.077
20
-195.871
11
264.149
21
-195.729
0
LINE
8
BLACK
6
CONTINUOUS
10
264.149
20
-195.729
11
264.22
21
-195.657
0
LINE
8
BLACK
6
CONTINUOUS
10
264.22
20
-195.657
11
264.363
21
-195.586
0
LINE
8
BLACK
6
CONTINUOUS
10
264.363
20
-195.586
11
264.649
21
-195.586
0
LINE
8
BLACK
6
CONTINUOUS
10
264.649
20
-195.586
11
264.791
21
-195.657
0
LINE
8
BLACK
6
CONTINUOUS
10
265.506
20
-196.443
11
265.577
21
-196.514
0
LINE
8
BLACK
6
CONTINUOUS
10
265.577
20
-196.514
11
265.506
21
-196.586
0
LINE
8
BLACK
6
CONTINUOUS
10
265.506
20
-196.586
11
265.434
21
-196.514
0
LINE
8
BLACK
6
CONTINUOUS
10
265.434
20
-196.514
11
265.506
21
-196.443
0
LINE
8
BLACK
6
CONTINUOUS
10
265.506
20
-196.443
11
265.506
21
-196.586
0
LINE
8
BLACK
6
CONTINUOUS
10
265.506
20
-195.657
11
265.577
21
-195.729
0
LINE
8
BLACK
6
CONTINUOUS
10
265.577
20
-195.729
11
265.506
21
-195.8
0
LINE
8
BLACK
6
CONTINUOUS
10
265.506
20
-195.8
11
265.434
21
-195.729
0
LINE
8
BLACK
6
CONTINUOUS
10
265.434
20
-195.729
11
265.506
21
-195.657
0
LINE
8
BLACK
6
CONTINUOUS
10
265.506
20
-195.657
11
265.506
21
-195.8
0
LINE
8
BLACK
6
CONTINUOUS
10
268.149
20
-196.586
11
267.291
21
-196.586
0
LINE
8
BLACK
6
CONTINUOUS
10
267.72
20
-196.586
11
267.72
21
-195.086
0
LINE
8
BLACK
6
CONTINUOUS
10
267.72
20
-195.086
11
267.577
21
-195.3
0
LINE
8
BLACK
6
CONTINUOUS
10
267.577
20
-195.3
11
267.434
21
-195.443
0
LINE
8
BLACK
6
CONTINUOUS
10
267.434
20
-195.443
11
267.291
21
-195.514
0
LINE
8
BLACK
6
CONTINUOUS
10
269.863
20
-195.014
11
268.577
21
-196.943
0
LINE
8
BLACK
6
CONTINUOUS
10
271.149
20
-196.586
11
270.291
21
-196.586
0
LINE
8
BLACK
6
CONTINUOUS
10
270.72
20
-196.586
11
270.72
21
-195.086
0
LINE
8
BLACK
6
CONTINUOUS
10
270.72
20
-195.086
11
270.577
21
-195.3
0
LINE
8
BLACK
6
CONTINUOUS
10
270.577
20
-195.3
11
270.434
21
-195.443
0
LINE
8
BLACK
6
CONTINUOUS
10
270.434
20
-195.443
11
270.291
21
-195.514
0
LINE
8
BLACK
6
CONTINUOUS
10
177.002
20
-187.507
11
285.002
21
-187.507
0
LINE
8
BLACK
6
CONTINUOUS
10
178.715
20
-188.212
11
179.857
21
-188.212
0
LINE
8
BLACK
6
CONTINUOUS
10
179.036
20
-190.212
11
179.286
21
-188.212
0
LINE
8
BLACK
6
CONTINUOUS
10
180.274
20
-190.212
11
180.441
21
-188.879
0
LINE
8
BLACK
6
CONTINUOUS
10
180.524
20
-188.212
11
180.417
21
-188.307
0
LINE
8
BLACK
6
CONTINUOUS
10
180.417
20
-188.307
11
180.5
21
-188.402
0
LINE
8
BLACK
6
CONTINUOUS
10
180.5
20
-188.402
11
180.607
21
-188.307
0
LINE
8
BLACK
6
CONTINUOUS
10
180.607
20
-188.307
11
180.524
21
-188.212
0
LINE
8
BLACK
6
CONTINUOUS
10
180.524
20
-188.212
11
180.5
21
-188.402
0
LINE
8
BLACK
6
CONTINUOUS
10
181.107
20
-188.879
11
181.869
21
-188.879
0
LINE
8
BLACK
6
CONTINUOUS
10
181.476
20
-188.212
11
181.262
21
-189.926
0
LINE
8
BLACK
6
CONTINUOUS
10
181.262
20
-189.926
11
181.334
21
-190.117
0
LINE
8
BLACK
6
CONTINUOUS
10
181.334
20
-190.117
11
181.512
21
-190.212
0
LINE
8
BLACK
6
CONTINUOUS
10
181.512
20
-190.212
11
181.703
21
-190.212
0
LINE
8
BLACK
6
CONTINUOUS
10
182.655
20
-190.212
11
182.476
21
-190.117
0
LINE
8
BLACK
6
CONTINUOUS
10
182.476
20
-190.117
11
182.405
21
-189.926
0
LINE
8
BLACK
6
CONTINUOUS
10
182.405
20
-189.926
11
182.619
21
-188.212
0
LINE
8
BLACK
6
CONTINUOUS
10
184.191
20
-190.117
11
183.988
21
-190.212
0
LINE
8
BLACK
6
CONTINUOUS
10
183.988
20
-190.212
11
183.607
21
-190.212
0
LINE
8
BLACK
6
CONTINUOUS
10
183.607
20
-190.212
11
183.429
21
-190.117
0
LINE
8
BLACK
6
CONTINUOUS
10
183.429
20
-190.117
11
183.357
21
-189.926
0
LINE
8
BLACK
6
CONTINUOUS
10
183.357
20
-189.926
11
183.453
21
-189.164
0
LINE
8
BLACK
6
CONTINUOUS
10
183.453
20
-189.164
11
183.572
21
-188.974
0
LINE
8
BLACK
6
CONTINUOUS
10
183.572
20
-188.974
11
183.774
21
-188.879
0
LINE
8
BLACK
6
CONTINUOUS
10
183.774
20
-188.879
11
184.155
21
-188.879
0
LINE
8
BLACK
6
CONTINUOUS
10
184.155
20
-188.879
11
184.334
21
-188.974
0
LINE
8
BLACK
6
CONTINUOUS
10
184.334
20
-188.974
11
184.405
21
-189.164
0
LINE
8
BLACK
6
CONTINUOUS
10
184.405
20
-189.164
11
184.381
21
-189.355
0
LINE
8
BLACK
6
CONTINUOUS
10
184.381
20
-189.355
11
183.405
21
-189.545
0
LINE
8
BLACK
6
CONTINUOUS
10
185.155
20
-190.021
11
185.238
21
-190.117
0
LINE
8
BLACK
6
CONTINUOUS
10
185.238
20
-190.117
11
185.131
21
-190.212
0
LINE
8
BLACK
6
CONTINUOUS
10
185.131
20
-190.212
11
185.048
21
-190.117
0
LINE
8
BLACK
6
CONTINUOUS
10
185.048
20
-190.117
11
185.155
21
-190.021
0
LINE
8
BLACK
6
CONTINUOUS
10
185.155
20
-190.021
11
185.131
21
-190.212
0
LINE
8
BLACK
6
CONTINUOUS
10
185.286
20
-188.974
11
185.369
21
-189.069
0
LINE
8
BLACK
6
CONTINUOUS
10
185.369
20
-189.069
11
185.262
21
-189.164
0
LINE
8
BLACK
6
CONTINUOUS
10
185.262
20
-189.164
11
185.179
21
-189.069
0
LINE
8
BLACK
6
CONTINUOUS
10
185.179
20
-189.069
11
185.286
21
-188.974
0
LINE
8
BLACK
6
CONTINUOUS
10
185.286
20
-188.974
11
185.262
21
-189.164
0
LINE
8
BLACK
6
CONTINUOUS
10
187.524
20
-190.117
11
187.798
21
-190.212
0
LINE
8
BLACK
6
CONTINUOUS
10
187.798
20
-190.212
11
188.274
21
-190.212
0
LINE
8
BLACK
6
CONTINUOUS
10
188.274
20
-190.212
11
188.476
21
-190.117
0
LINE
8
BLACK
6
CONTINUOUS
10
188.476
20
-190.117
11
188.584
21
-190.021
0
LINE
8
BLACK
6
CONTINUOUS
10
188.584
20
-190.021
11
188.703
21
-189.831
0
LINE
8
BLACK
6
CONTINUOUS
10
188.703
20
-189.831
11
188.726
21
-189.641
0
LINE
8
BLACK
6
CONTINUOUS
10
188.726
20
-189.641
11
188.655
21
-189.45
0
LINE
8
BLACK
6
CONTINUOUS
10
188.655
20
-189.45
11
188.572
21
-189.355
0
LINE
8
BLACK
6
CONTINUOUS
10
188.572
20
-189.355
11
188.393
21
-189.26
0
LINE
8
BLACK
6
CONTINUOUS
10
188.393
20
-189.26
11
188.024
21
-189.164
0
LINE
8
BLACK
6
CONTINUOUS
10
188.024
20
-189.164
11
187.846
21
-189.069
0
LINE
8
BLACK
6
CONTINUOUS
10
187.846
20
-189.069
11
187.762
21
-188.974
0
LINE
8
BLACK
6
CONTINUOUS
10
187.762
20
-188.974
11
187.691
21
-188.783
0
LINE
8
BLACK
6
CONTINUOUS
10
187.691
20
-188.783
11
187.715
21
-188.593
0
LINE
8
BLACK
6
CONTINUOUS
10
187.715
20
-188.593
11
187.834
21
-188.402
0
LINE
8
BLACK
6
CONTINUOUS
10
187.834
20
-188.402
11
187.941
21
-188.307
0
LINE
8
BLACK
6
CONTINUOUS
10
187.941
20
-188.307
11
188.143
21
-188.212
0
LINE
8
BLACK
6
CONTINUOUS
10
188.143
20
-188.212
11
188.619
21
-188.212
0
LINE
8
BLACK
6
CONTINUOUS
10
188.619
20
-188.212
11
188.893
21
-188.307
0
LINE
8
BLACK
6
CONTINUOUS
10
189.572
20
-188.212
11
189.798
21
-190.212
0
LINE
8
BLACK
6
CONTINUOUS
10
189.798
20
-190.212
11
190.357
21
-188.783
0
LINE
8
BLACK
6
CONTINUOUS
10
190.357
20
-188.783
11
190.56
21
-190.212
0
LINE
8
BLACK
6
CONTINUOUS
10
190.56
20
-190.212
11
191.286
21
-188.212
0
LINE
8
BLACK
6
CONTINUOUS
10
191.893
20
-189.45
11
193.417
21
-189.45
0
LINE
8
BLACK
6
CONTINUOUS
10
194.274
20
-190.212
11
194.524
21
-188.212
0
LINE
8
BLACK
6
CONTINUOUS
10
194.524
20
-188.212
11
195.012
21
-189.641
0
LINE
8
BLACK
6
CONTINUOUS
10
195.012
20
-189.641
11
195.857
21
-188.212
0
LINE
8
BLACK
6
CONTINUOUS
10
195.857
20
-188.212
11
195.607
21
-190.212
0
LINE
8
BLACK
6
CONTINUOUS
10
197.334
20
-190.117
11
197.131
21
-190.212
0
LINE
8
BLACK
6
CONTINUOUS
10
197.131
20
-190.212
11
196.75
21
-190.212
0
LINE
8
BLACK
6
CONTINUOUS
10
196.75
20
-190.212
11
196.572
21
-190.117
0
LINE
8
BLACK
6
CONTINUOUS
10
196.572
20
-190.117
11
196.5
21
-189.926
0
LINE
8
BLACK
6
CONTINUOUS
10
196.5
20
-189.926
11
196.596
21
-189.164
0
LINE
8
BLACK
6
CONTINUOUS
10
196.596
20
-189.164
11
196.715
21
-188.974
0
LINE
8
BLACK
6
CONTINUOUS
10
196.715
20
-188.974
11
196.917
21
-188.879
0
LINE
8
BLACK
6
CONTINUOUS
10
196.917
20
-188.879
11
197.298
21
-188.879
0
LINE
8
BLACK
6
CONTINUOUS
10
197.298
20
-188.879
11
197.476
21
-188.974
0
LINE
8
BLACK
6
CONTINUOUS
10
197.476
20
-188.974
11
197.548
21
-189.164
0
LINE
8
BLACK
6
CONTINUOUS
10
197.548
20
-189.164
11
197.524
21
-189.355
0
LINE
8
BLACK
6
CONTINUOUS
10
197.524
20
-189.355
11
196.548
21
-189.545
0
LINE
8
BLACK
6
CONTINUOUS
10
198.155
20
-188.879
11
198.917
21
-188.879
0
LINE
8
BLACK
6
CONTINUOUS
10
198.524
20
-188.212
11
198.31
21
-189.926
0
LINE
8
BLACK
6
CONTINUOUS
10
198.31
20
-189.926
11
198.381
21
-190.117
0
LINE
8
BLACK
6
CONTINUOUS
10
198.381
20
-190.117
11
198.56
21
-190.212
0
LINE
8
BLACK
6
CONTINUOUS
10
198.56
20
-190.212
11
198.75
21
-190.212
0
LINE
8
BLACK
6
CONTINUOUS
10
200.191
20
-190.117
11
199.988
21
-190.212
0
LINE
8
BLACK
6
CONTINUOUS
10
199.988
20
-190.212
11
199.607
21
-190.212
0
LINE
8
BLACK
6
CONTINUOUS
10
199.607
20
-190.212
11
199.429
21
-190.117
0
LINE
8
BLACK
6
CONTINUOUS
10
199.429
20
-190.117
11
199.357
21
-189.926
0
LINE
8
BLACK
6
CONTINUOUS
10
199.357
20
-189.926
11
199.453
21
-189.164
0
LINE
8
BLACK
6
CONTINUOUS
10
199.453
20
-189.164
11
199.572
21
-188.974
0
LINE
8
BLACK
6
CONTINUOUS
10
199.572
20
-188.974
11
199.774
21
-188.879
0
LINE
8
BLACK
6
CONTINUOUS
10
199.774
20
-188.879
11
200.155
21
-188.879
0
LINE
8
BLACK
6
CONTINUOUS
10
200.155
20
-188.879
11
200.334
21
-188.974
0
LINE
8
BLACK
6
CONTINUOUS
10
200.334
20
-188.974
11
200.405
21
-189.164
0
LINE
8
BLACK
6
CONTINUOUS
10
200.405
20
-189.164
11
200.381
21
-189.355
0
LINE
8
BLACK
6
CONTINUOUS
10
200.381
20
-189.355
11
199.405
21
-189.545
0
LINE
8
BLACK
6
CONTINUOUS
10
201.131
20
-190.212
11
201.298
21
-188.879
0
LINE
8
BLACK
6
CONTINUOUS
10
201.25
20
-189.26
11
201.369
21
-189.069
0
LINE
8
BLACK
6
CONTINUOUS
10
201.369
20
-189.069
11
201.476
21
-188.974
0
LINE
8
BLACK
6
CONTINUOUS
10
201.476
20
-188.974
11
201.679
21
-188.879
0
LINE
8
BLACK
6
CONTINUOUS
10
201.679
20
-188.879
11
201.869
21
-188.879
0
LINE
8
BLACK
6
CONTINUOUS
10
178.934
20
-185.6
11
178.434
21
-185.6
0
LINE
8
BLACK
6
CONTINUOUS
10
178.434
20
-186.386
11
178.434
21
-184.886
0
LINE
8
BLACK
6
CONTINUOUS
10
178.434
20
-184.886
11
179.149
21
-184.886
0
LINE
8
BLACK
6
CONTINUOUS
10
179.72
20
-186.386
11
179.72
21
-185.386
0
LINE
8
BLACK
6
CONTINUOUS
10
179.72
20
-184.886
11
179.649
21
-184.957
0
LINE
8
BLACK
6
CONTINUOUS
10
179.649
20
-184.957
11
179.72
21
-185.029
0
LINE
8
BLACK
6
CONTINUOUS
10
179.72
20
-185.029
11
179.791
21
-184.957
0
LINE
8
BLACK
6
CONTINUOUS
10
179.791
20
-184.957
11
179.72
21
-184.886
0
LINE
8
BLACK
6
CONTINUOUS
10
179.72
20
-184.886
11
179.72
21
-185.029
0
LINE
8
BLACK
6
CONTINUOUS
10
180.649
20
-186.386
11
180.506
21
-186.314
0
LINE
8
BLACK
6
CONTINUOUS
10
180.506
20
-186.314
11
180.434
21
-186.171
0
LINE
8
BLACK
6
CONTINUOUS
10
180.434
20
-186.171
11
180.434
21
-184.886
0
LINE
8
BLACK
6
CONTINUOUS
10
181.791
20
-186.314
11
181.649
21
-186.386
0
LINE
8
BLACK
6
CONTINUOUS
10
181.649
20
-186.386
11
181.363
21
-186.386
0
LINE
8
BLACK
6
CONTINUOUS
10
181.363
20
-186.386
11
181.22
21
-186.314
0
LINE
8
BLACK
6
CONTINUOUS
10
181.22
20
-186.314
11
181.149
21
-186.171
0
LINE
8
BLACK
6
CONTINUOUS
10
181.149
20
-186.171
11
181.149
21
-185.6
0
LINE
8
BLACK
6
CONTINUOUS
10
181.149
20
-185.6
11
181.22
21
-185.457
0
LINE
8
BLACK
6
CONTINUOUS
10
181.22
20
-185.457
11
181.363
21
-185.386
0
LINE
8
BLACK
6
CONTINUOUS
10
181.363
20
-185.386
11
181.649
21
-185.386
0
LINE
8
BLACK
6
CONTINUOUS
10
181.649
20
-185.386
11
181.791
21
-185.457
0
LINE
8
BLACK
6
CONTINUOUS
10
181.791
20
-185.457
11
181.863
21
-185.6
0
LINE
8
BLACK
6
CONTINUOUS
10
181.863
20
-185.6
11
181.863
21
-185.743
0
LINE
8
BLACK
6
CONTINUOUS
10
181.863
20
-185.743
11
181.149
21
-185.886
0
LINE
8
BLACK
6
CONTINUOUS
10
182.506
20
-186.243
11
182.577
21
-186.314
0
LINE
8
BLACK
6
CONTINUOUS
10
182.577
20
-186.314
11
182.506
21
-186.386
0
LINE
8
BLACK
6
CONTINUOUS
10
182.506
20
-186.386
11
182.434
21
-186.314
0
LINE
8
BLACK
6
CONTINUOUS
10
182.434
20
-186.314
11
182.506
21
-186.243
0
LINE
8
BLACK
6
CONTINUOUS
10
182.506
20
-186.243
11
182.506
21
-186.386
0
LINE
8
BLACK
6
CONTINUOUS
10
182.506
20
-185.457
11
182.577
21
-185.529
0
LINE
8
BLACK
6
CONTINUOUS
10
182.577
20
-185.529
11
182.506
21
-185.6
0
LINE
8
BLACK
6
CONTINUOUS
10
182.506
20
-185.6
11
182.434
21
-185.529
0
LINE
8
BLACK
6
CONTINUOUS
10
182.434
20
-185.529
11
182.506
21
-185.457
0
LINE
8
BLACK
6
CONTINUOUS
10
182.506
20
-185.457
11
182.506
21
-185.6
0
LINE
8
BLACK
6
CONTINUOUS
10
184.291
20
-186.314
11
184.434
21
-186.386
0
LINE
8
BLACK
6
CONTINUOUS
10
184.434
20
-186.386
11
184.72
21
-186.386
0
LINE
8
BLACK
6
CONTINUOUS
10
184.72
20
-186.386
11
184.863
21
-186.314
0
LINE
8
BLACK
6
CONTINUOUS
10
184.863
20
-186.314
11
184.934
21
-186.171
0
LINE
8
BLACK
6
CONTINUOUS
10
184.934
20
-186.171
11
184.934
21
-186.1
0
LINE
8
BLACK
6
CONTINUOUS
10
184.934
20
-186.1
11
184.863
21
-185.957
0
LINE
8
BLACK
6
CONTINUOUS
10
184.863
20
-185.957
11
184.72
21
-185.886
0
LINE
8
BLACK
6
CONTINUOUS
10
184.72
20
-185.886
11
184.506
21
-185.886
0
LINE
8
BLACK
6
CONTINUOUS
10
184.506
20
-185.886
11
184.363
21
-185.814
0
LINE
8
BLACK
6
CONTINUOUS
10
184.363
20
-185.814
11
184.291
21
-185.671
0
LINE
8
BLACK
6
CONTINUOUS
10
184.291
20
-185.671
11
184.291
21
-185.6
0
LINE
8
BLACK
6
CONTINUOUS
10
184.291
20
-185.6
11
184.363
21
-185.457
0
LINE
8
BLACK
6
CONTINUOUS
10
184.363
20
-185.457
11
184.506
21
-185.386
0
LINE
8
BLACK
6
CONTINUOUS
10
184.506
20
-185.386
11
184.72
21
-185.386
0
LINE
8
BLACK
6
CONTINUOUS
10
184.72
20
-185.386
11
184.863
21
-185.457
0
LINE
8
BLACK
6
CONTINUOUS
10
185.434
20
-185.386
11
185.72
21
-186.386
0
LINE
8
BLACK
6
CONTINUOUS
10
185.72
20
-186.386
11
186.006
21
-185.671
0
LINE
8
BLACK
6
CONTINUOUS
10
186.006
20
-185.671
11
186.291
21
-186.386
0
LINE
8
BLACK
6
CONTINUOUS
10
186.291
20
-186.386
11
186.577
21
-185.386
0
LINE
8
BLACK
6
CONTINUOUS
10
187.149
20
-186.386
11
187.149
21
-185.386
0
LINE
8
BLACK
6
CONTINUOUS
10
187.149
20
-185.529
11
187.22
21
-185.457
0
LINE
8
BLACK
6
CONTINUOUS
10
187.22
20
-185.457
11
187.363
21
-185.386
0
LINE
8
BLACK
6
CONTINUOUS
10
187.363
20
-185.386
11
187.577
21
-185.386
0
LINE
8
BLACK
6
CONTINUOUS
10
187.577
20
-185.386
11
187.72
21
-185.457
0
LINE
8
BLACK
6
CONTINUOUS
10
187.72
20
-185.457
11
187.791
21
-185.6
0
LINE
8
BLACK
6
CONTINUOUS
10
187.791
20
-185.6
11
187.791
21
-186.386
0
LINE
8
BLACK
6
CONTINUOUS
10
187.791
20
-185.6
11
187.863
21
-185.457
0
LINE
8
BLACK
6
CONTINUOUS
10
187.863
20
-185.457
11
188.006
21
-185.386
0
LINE
8
BLACK
6
CONTINUOUS
10
188.006
20
-185.386
11
188.22
21
-185.386
0
LINE
8
BLACK
6
CONTINUOUS
10
188.22
20
-185.386
11
188.363
21
-185.457
0
LINE
8
BLACK
6
CONTINUOUS
10
188.363
20
-185.457
11
188.434
21
-185.6
0
LINE
8
BLACK
6
CONTINUOUS
10
188.434
20
-185.6
11
188.434
21
-186.386
0
LINE
8
BLACK
6
CONTINUOUS
10
189.72
20
-186.314
11
189.577
21
-186.386
0
LINE
8
BLACK
6
CONTINUOUS
10
189.577
20
-186.386
11
189.291
21
-186.386
0
LINE
8
BLACK
6
CONTINUOUS
10
189.291
20
-186.386
11
189.149
21
-186.314
0
LINE
8
BLACK
6
CONTINUOUS
10
189.149
20
-186.314
11
189.077
21
-186.171
0
LINE
8
BLACK
6
CONTINUOUS
10
189.077
20
-186.171
11
189.077
21
-185.6
0
LINE
8
BLACK
6
CONTINUOUS
10
189.077
20
-185.6
11
189.149
21
-185.457
0
LINE
8
BLACK
6
CONTINUOUS
10
189.149
20
-185.457
11
189.291
21
-185.386
0
LINE
8
BLACK
6
CONTINUOUS
10
189.291
20
-185.386
11
189.577
21
-185.386
0
LINE
8
BLACK
6
CONTINUOUS
10
189.577
20
-185.386
11
189.72
21
-185.457
0
LINE
8
BLACK
6
CONTINUOUS
10
189.72
20
-185.457
11
189.791
21
-185.6
0
LINE
8
BLACK
6
CONTINUOUS
10
189.791
20
-185.6
11
189.791
21
-185.743
0
LINE
8
BLACK
6
CONTINUOUS
10
189.791
20
-185.743
11
189.077
21
-185.886
0
LINE
8
BLACK
6
CONTINUOUS
10
190.22
20
-185.386
11
190.791
21
-185.386
0
LINE
8
BLACK
6
CONTINUOUS
10
190.434
20
-184.886
11
190.434
21
-186.171
0
LINE
8
BLACK
6
CONTINUOUS
10
190.434
20
-186.171
11
190.506
21
-186.314
0
LINE
8
BLACK
6
CONTINUOUS
10
190.506
20
-186.314
11
190.649
21
-186.386
0
LINE
8
BLACK
6
CONTINUOUS
10
190.649
20
-186.386
11
190.791
21
-186.386
0
LINE
8
BLACK
6
CONTINUOUS
10
191.863
20
-186.314
11
191.72
21
-186.386
0
LINE
8
BLACK
6
CONTINUOUS
10
191.72
20
-186.386
11
191.434
21
-186.386
0
LINE
8
BLACK
6
CONTINUOUS
10
191.434
20
-186.386
11
191.291
21
-186.314
0
LINE
8
BLACK
6
CONTINUOUS
10
191.291
20
-186.314
11
191.22
21
-186.171
0
LINE
8
BLACK
6
CONTINUOUS
10
191.22
20
-186.171
11
191.22
21
-185.6
0
LINE
8
BLACK
6
CONTINUOUS
10
191.22
20
-185.6
11
191.291
21
-185.457
0
LINE
8
BLACK
6
CONTINUOUS
10
191.291
20
-185.457
11
191.434
21
-185.386
0
LINE
8
BLACK
6
CONTINUOUS
10
191.434
20
-185.386
11
191.72
21
-185.386
0
LINE
8
BLACK
6
CONTINUOUS
10
191.72
20
-185.386
11
191.863
21
-185.457
0
LINE
8
BLACK
6
CONTINUOUS
10
191.863
20
-185.457
11
191.934
21
-185.6
0
LINE
8
BLACK
6
CONTINUOUS
10
191.934
20
-185.6
11
191.934
21
-185.743
0
LINE
8
BLACK
6
CONTINUOUS
10
191.934
20
-185.743
11
191.22
21
-185.886
0
LINE
8
BLACK
6
CONTINUOUS
10
192.577
20
-186.386
11
192.577
21
-185.386
0
LINE
8
BLACK
6
CONTINUOUS
10
192.577
20
-185.671
11
192.649
21
-185.529
0
LINE
8
BLACK
6
CONTINUOUS
10
192.649
20
-185.529
11
192.72
21
-185.457
0
LINE
8
BLACK
6
CONTINUOUS
10
192.72
20
-185.457
11
192.863
21
-185.386
0
LINE
8
BLACK
6
CONTINUOUS
10
192.863
20
-185.386
11
193.006
21
-185.386
0
LINE
8
BLACK
6
CONTINUOUS
10
193.506
20
-186.243
11
193.577
21
-186.314
0
LINE
8
BLACK
6
CONTINUOUS
10
193.577
20
-186.314
11
193.506
21
-186.386
0
LINE
8
BLACK
6
CONTINUOUS
10
193.506
20
-186.386
11
193.434
21
-186.314
0
LINE
8
BLACK
6
CONTINUOUS
10
193.434
20
-186.314
11
193.506
21
-186.243
0
LINE
8
BLACK
6
CONTINUOUS
10
193.506
20
-186.243
11
193.506
21
-186.386
0
LINE
8
BLACK
6
CONTINUOUS
10
194.22
20
-186.386
11
194.22
21
-184.886
0
LINE
8
BLACK
6
CONTINUOUS
10
194.363
20
-185.814
11
194.791
21
-186.386
0
LINE
8
BLACK
6
CONTINUOUS
10
194.791
20
-185.386
11
194.22
21
-185.957
0
LINE
8
BLACK
6
CONTINUOUS
10
195.434
20
-186.386
11
195.434
21
-185.386
0
LINE
8
BLACK
6
CONTINUOUS
10
195.434
20
-184.886
11
195.363
21
-184.957
0
LINE
8
BLACK
6
CONTINUOUS
10
195.363
20
-184.957
11
195.434
21
-185.029
0
LINE
8
BLACK
6
CONTINUOUS
10
195.434
20
-185.029
11
195.506
21
-184.957
0
LINE
8
BLACK
6
CONTINUOUS
10
195.506
20
-184.957
11
195.434
21
-184.886
0
LINE
8
BLACK
6
CONTINUOUS
10
195.434
20
-184.886
11
195.434
21
-185.029
0
LINE
8
BLACK
6
CONTINUOUS
10
196.791
20
-186.314
11
196.649
21
-186.386
0
LINE
8
BLACK
6
CONTINUOUS
10
196.649
20
-186.386
11
196.363
21
-186.386
0
LINE
8
BLACK
6
CONTINUOUS
10
196.363
20
-186.386
11
196.22
21
-186.314
0
LINE
8
BLACK
6
CONTINUOUS
10
196.22
20
-186.314
11
196.149
21
-186.243
0
LINE
8
BLACK
6
CONTINUOUS
10
196.149
20
-186.243
11
196.077
21
-186.1
0
LINE
8
BLACK
6
CONTINUOUS
10
196.077
20
-186.1
11
196.077
21
-185.671
0
LINE
8
BLACK
6
CONTINUOUS
10
196.077
20
-185.671
11
196.149
21
-185.529
0
LINE
8
BLACK
6
CONTINUOUS
10
196.149
20
-185.529
11
196.22
21
-185.457
0
LINE
8
BLACK
6
CONTINUOUS
10
196.22
20
-185.457
11
196.363
21
-185.386
0
LINE
8
BLACK
6
CONTINUOUS
10
196.363
20
-185.386
11
196.649
21
-185.386
0
LINE
8
BLACK
6
CONTINUOUS
10
196.649
20
-185.386
11
196.791
21
-185.457
0
LINE
8
BLACK
6
CONTINUOUS
10
198.077
20
-186.386
11
198.077
21
-185.6
0
LINE
8
BLACK
6
CONTINUOUS
10
198.077
20
-185.6
11
198.006
21
-185.457
0
LINE
8
BLACK
6
CONTINUOUS
10
198.006
20
-185.457
11
197.863
21
-185.386
0
LINE
8
BLACK
6
CONTINUOUS
10
197.863
20
-185.386
11
197.577
21
-185.386
0
LINE
8
BLACK
6
CONTINUOUS
10
197.577
20
-185.386
11
197.434
21
-185.457
0
LINE
8
BLACK
6
CONTINUOUS
10
198.077
20
-186.314
11
197.934
21
-186.386
0
LINE
8
BLACK
6
CONTINUOUS
10
197.934
20
-186.386
11
197.577
21
-186.386
0
LINE
8
BLACK
6
CONTINUOUS
10
197.577
20
-186.386
11
197.434
21
-186.314
0
LINE
8
BLACK
6
CONTINUOUS
10
197.434
20
-186.314
11
197.363
21
-186.171
0
LINE
8
BLACK
6
CONTINUOUS
10
197.363
20
-186.171
11
197.363
21
-186.029
0
LINE
8
BLACK
6
CONTINUOUS
10
197.363
20
-186.029
11
197.434
21
-185.886
0
LINE
8
BLACK
6
CONTINUOUS
10
197.434
20
-185.886
11
197.577
21
-185.814
0
LINE
8
BLACK
6
CONTINUOUS
10
197.577
20
-185.814
11
197.934
21
-185.814
0
LINE
8
BLACK
6
CONTINUOUS
10
197.934
20
-185.814
11
198.077
21
-185.743
0
LINE
8
BLACK
6
CONTINUOUS
10
199.434
20
-186.386
11
199.434
21
-184.886
0
LINE
8
BLACK
6
CONTINUOUS
10
199.434
20
-186.314
11
199.291
21
-186.386
0
LINE
8
BLACK
6
CONTINUOUS
10
199.291
20
-186.386
11
199.006
21
-186.386
0
LINE
8
BLACK
6
CONTINUOUS
10
199.006
20
-186.386
11
198.863
21
-186.314
0
LINE
8
BLACK
6
CONTINUOUS
10
198.863
20
-186.314
11
198.791
21
-186.243
0
LINE
8
BLACK
6
CONTINUOUS
10
198.791
20
-186.243
11
198.72
21
-186.1
0
LINE
8
BLACK
6
CONTINUOUS
10
198.72
20
-186.1
11
198.72
21
-185.671
0
LINE
8
BLACK
6
CONTINUOUS
10
198.72
20
-185.671
11
198.791
21
-185.529
0
LINE
8
BLACK
6
CONTINUOUS
10
198.791
20
-185.529
11
198.863
21
-185.457
0
LINE
8
BLACK
6
CONTINUOUS
10
198.863
20
-185.457
11
199.006
21
-185.386
0
LINE
8
BLACK
6
CONTINUOUS
10
199.006
20
-185.386
11
199.291
21
-185.386
0
LINE
8
BLACK
6
CONTINUOUS
10
199.291
20
-185.386
11
199.434
21
-185.457
0
LINE
8
BLACK
6
CONTINUOUS
10
199.791
20
-186.529
11
200.934
21
-186.529
0
LINE
8
BLACK
6
CONTINUOUS
10
201.291
20
-185.386
11
201.291
21
-186.886
0
LINE
8
BLACK
6
CONTINUOUS
10
201.291
20
-185.457
11
201.434
21
-185.386
0
LINE
8
BLACK
6
CONTINUOUS
10
201.434
20
-185.386
11
201.72
21
-185.386
0
LINE
8
BLACK
6
CONTINUOUS
10
201.72
20
-185.386
11
201.863
21
-185.457
0
LINE
8
BLACK
6
CONTINUOUS
10
201.863
20
-185.457
11
201.934
21
-185.529
0
LINE
8
BLACK
6
CONTINUOUS
10
201.934
20
-185.529
11
202.006
21
-185.671
0
LINE
8
BLACK
6
CONTINUOUS
10
202.006
20
-185.671
11
202.006
21
-186.1
0
LINE
8
BLACK
6
CONTINUOUS
10
202.006
20
-186.1
11
201.934
21
-186.243
0
LINE
8
BLACK
6
CONTINUOUS
10
201.934
20
-186.243
11
201.863
21
-186.314
0
LINE
8
BLACK
6
CONTINUOUS
10
201.863
20
-186.314
11
201.72
21
-186.386
0
LINE
8
BLACK
6
CONTINUOUS
10
201.72
20
-186.386
11
201.434
21
-186.386
0
LINE
8
BLACK
6
CONTINUOUS
10
201.434
20
-186.386
11
201.291
21
-186.314
0
LINE
8
BLACK
6
CONTINUOUS
10
203.291
20
-186.314
11
203.149
21
-186.386
0
LINE
8
BLACK
6
CONTINUOUS
10
203.149
20
-186.386
11
202.863
21
-186.386
0
LINE
8
BLACK
6
CONTINUOUS
10
202.863
20
-186.386
11
202.72
21
-186.314
0
LINE
8
BLACK
6
CONTINUOUS
10
202.72
20
-186.314
11
202.649
21
-186.243
0
LINE
8
BLACK
6
CONTINUOUS
10
202.649
20
-186.243
11
202.577
21
-186.1
0
LINE
8
BLACK
6
CONTINUOUS
10
202.577
20
-186.1
11
202.577
21
-185.671
0
LINE
8
BLACK
6
CONTINUOUS
10
202.577
20
-185.671
11
202.649
21
-185.529
0
LINE
8
BLACK
6
CONTINUOUS
10
202.649
20
-185.529
11
202.72
21
-185.457
0
LINE
8
BLACK
6
CONTINUOUS
10
202.72
20
-185.457
11
202.863
21
-185.386
0
LINE
8
BLACK
6
CONTINUOUS
10
202.863
20
-185.386
11
203.149
21
-185.386
0
LINE
8
BLACK
6
CONTINUOUS
10
203.149
20
-185.386
11
203.291
21
-185.457
0
LINE
8
BLACK
6
CONTINUOUS
10
203.934
20
-186.386
11
203.934
21
-184.886
0
LINE
8
BLACK
6
CONTINUOUS
10
203.934
20
-185.457
11
204.077
21
-185.386
0
LINE
8
BLACK
6
CONTINUOUS
10
204.077
20
-185.386
11
204.363
21
-185.386
0
LINE
8
BLACK
6
CONTINUOUS
10
204.363
20
-185.386
11
204.506
21
-185.457
0
LINE
8
BLACK
6
CONTINUOUS
10
204.506
20
-185.457
11
204.577
21
-185.529
0
LINE
8
BLACK
6
CONTINUOUS
10
204.577
20
-185.529
11
204.649
21
-185.671
0
LINE
8
BLACK
6
CONTINUOUS
10
204.649
20
-185.671
11
204.649
21
-186.1
0
LINE
8
BLACK
6
CONTINUOUS
10
204.649
20
-186.1
11
204.577
21
-186.243
0
LINE
8
BLACK
6
CONTINUOUS
10
204.577
20
-186.243
11
204.506
21
-186.314
0
LINE
8
BLACK
6
CONTINUOUS
10
204.506
20
-186.314
11
204.363
21
-186.386
0
LINE
8
BLACK
6
CONTINUOUS
10
204.363
20
-186.386
11
204.077
21
-186.386
0
LINE
8
BLACK
6
CONTINUOUS
10
204.077
20
-186.386
11
203.934
21
-186.314
0
LINE
8
BLACK
6
CONTINUOUS
10
177.002
20
-181.507
11
285.002
21
-181.507
0
LINE
8
BLACK
6
CONTINUOUS
10
178.363
20
-183.614
11
178.577
21
-183.686
0
LINE
8
BLACK
6
CONTINUOUS
10
178.577
20
-183.686
11
178.934
21
-183.686
0
LINE
8
BLACK
6
CONTINUOUS
10
178.934
20
-183.686
11
179.077
21
-183.614
0
LINE
8
BLACK
6
CONTINUOUS
10
179.077
20
-183.614
11
179.149
21
-183.543
0
LINE
8
BLACK
6
CONTINUOUS
10
179.149
20
-183.543
11
179.22
21
-183.4
0
LINE
8
BLACK
6
CONTINUOUS
10
179.22
20
-183.4
11
179.22
21
-183.257
0
LINE
8
BLACK
6
CONTINUOUS
10
179.22
20
-183.257
11
179.149
21
-183.114
0
LINE
8
BLACK
6
CONTINUOUS
10
179.149
20
-183.114
11
179.077
21
-183.043
0
LINE
8
BLACK
6
CONTINUOUS
10
179.077
20
-183.043
11
178.934
21
-182.971
0
LINE
8
BLACK
6
CONTINUOUS
10
178.934
20
-182.971
11
178.649
21
-182.9
0
LINE
8
BLACK
6
CONTINUOUS
10
178.649
20
-182.9
11
178.506
21
-182.829
0
LINE
8
BLACK
6
CONTINUOUS
10
178.506
20
-182.829
11
178.434
21
-182.757
0
LINE
8
BLACK
6
CONTINUOUS
10
178.434
20
-182.757
11
178.363
21
-182.614
0
LINE
8
BLACK
6
CONTINUOUS
10
178.363
20
-182.614
11
178.363
21
-182.471
0
LINE
8
BLACK
6
CONTINUOUS
10
178.363
20
-182.471
11
178.434
21
-182.329
0
LINE
8
BLACK
6
CONTINUOUS
10
178.434
20
-182.329
11
178.506
21
-182.257
0
LINE
8
BLACK
6
CONTINUOUS
10
178.506
20
-182.257
11
178.649
21
-182.186
0
LINE
8
BLACK
6
CONTINUOUS
10
178.649
20
-182.186
11
179.006
21
-182.186
0
LINE
8
BLACK
6
CONTINUOUS
10
179.006
20
-182.186
11
179.22
21
-182.257
0
LINE
8
BLACK
6
CONTINUOUS
10
179.863
20
-183.686
11
179.863
21
-182.186
0
LINE
8
BLACK
6
CONTINUOUS
10
180.506
20
-183.686
11
180.506
21
-182.9
0
LINE
8
BLACK
6
CONTINUOUS
10
180.506
20
-182.9
11
180.434
21
-182.757
0
LINE
8
BLACK
6
CONTINUOUS
10
180.434
20
-182.757
11
180.291
21
-182.686
0
LINE
8
BLACK
6
CONTINUOUS
10
180.291
20
-182.686
11
180.077
21
-182.686
0
LINE
8
BLACK
6
CONTINUOUS
10
180.077
20
-182.686
11
179.934
21
-182.757
0
LINE
8
BLACK
6
CONTINUOUS
10
179.934
20
-182.757
11
179.863
21
-182.829
0
LINE
8
BLACK
6
CONTINUOUS
10
181.791
20
-183.614
11
181.649
21
-183.686
0
LINE
8
BLACK
6
CONTINUOUS
10
181.649
20
-183.686
11
181.363
21
-183.686
0
LINE
8
BLACK
6
CONTINUOUS
10
181.363
20
-183.686
11
181.22
21
-183.614
0
LINE
8
BLACK
6
CONTINUOUS
10
181.22
20
-183.614
11
181.149
21
-183.471
0
LINE
8
BLACK
6
CONTINUOUS
10
181.149
20
-183.471
11
181.149
21
-182.9
0
LINE
8
BLACK
6
CONTINUOUS
10
181.149
20
-182.9
11
181.22
21
-182.757
0
LINE
8
BLACK
6
CONTINUOUS
10
181.22
20
-182.757
11
181.363
21
-182.686
0
LINE
8
BLACK
6
CONTINUOUS
10
181.363
20
-182.686
11
181.649
21
-182.686
0
LINE
8
BLACK
6
CONTINUOUS
10
181.649
20
-182.686
11
181.791
21
-182.757
0
LINE
8
BLACK
6
CONTINUOUS
10
181.791
20
-182.757
11
181.863
21
-182.9
0
LINE
8
BLACK
6
CONTINUOUS
10
181.863
20
-182.9
11
181.863
21
-183.043
0
LINE
8
BLACK
6
CONTINUOUS
10
181.863
20
-183.043
11
181.149
21
-183.186
0
LINE
8
BLACK
6
CONTINUOUS
10
183.077
20
-183.614
11
182.934
21
-183.686
0
LINE
8
BLACK
6
CONTINUOUS
10
182.934
20
-183.686
11
182.649
21
-183.686
0
LINE
8
BLACK
6
CONTINUOUS
10
182.649
20
-183.686
11
182.506
21
-183.614
0
LINE
8
BLACK
6
CONTINUOUS
10
182.506
20
-183.614
11
182.434
21
-183.471
0
LINE
8
BLACK
6
CONTINUOUS
10
182.434
20
-183.471
11
182.434
21
-182.9
0
LINE
8
BLACK
6
CONTINUOUS
10
182.434
20
-182.9
11
182.506
21
-182.757
0
LINE
8
BLACK
6
CONTINUOUS
10
182.506
20
-182.757
11
182.649
21
-182.686
0
LINE
8
BLACK
6
CONTINUOUS
10
182.649
20
-182.686
11
182.934
21
-182.686
0
LINE
8
BLACK
6
CONTINUOUS
10
182.934
20
-182.686
11
183.077
21
-182.757
0
LINE
8
BLACK
6
CONTINUOUS
10
183.077
20
-182.757
11
183.149
21
-182.9
0
LINE
8
BLACK
6
CONTINUOUS
10
183.149
20
-182.9
11
183.149
21
-183.043
0
LINE
8
BLACK
6
CONTINUOUS
10
183.149
20
-183.043
11
182.434
21
-183.186
0
LINE
8
BLACK
6
CONTINUOUS
10
183.577
20
-182.686
11
184.149
21
-182.686
0
LINE
8
BLACK
6
CONTINUOUS
10
183.791
20
-182.186
11
183.791
21
-183.471
0
LINE
8
BLACK
6
CONTINUOUS
10
183.791
20
-183.471
11
183.863
21
-183.614
0
LINE
8
BLACK
6
CONTINUOUS
10
183.863
20
-183.614
11
184.006
21
-183.686
0
LINE
8
BLACK
6
CONTINUOUS
10
184.006
20
-183.686
11
184.149
21
-183.686
0
LINE
8
BLACK
6
CONTINUOUS
10
184.649
20
-183.543
11
184.72
21
-183.614
0
LINE
8
BLACK
6
CONTINUOUS
10
184.72
20
-183.614
11
184.649
21
-183.686
0
LINE
8
BLACK
6
CONTINUOUS
10
184.649
20
-183.686
11
184.577
21
-183.614
0
LINE
8
BLACK
6
CONTINUOUS
10
184.577
20
-183.614
11
184.649
21
-183.543
0
LINE
8
BLACK
6
CONTINUOUS
10
184.649
20
-183.543
11
184.649
21
-183.686
0
LINE
8
BLACK
6
CONTINUOUS
10
184.649
20
-182.757
11
184.72
21
-182.829
0
LINE
8
BLACK
6
CONTINUOUS
10
184.72
20
-182.829
11
184.649
21
-182.9
0
LINE
8
BLACK
6
CONTINUOUS
10
184.649
20
-182.9
11
184.577
21
-182.829
0
LINE
8
BLACK
6
CONTINUOUS
10
184.577
20
-182.829
11
184.649
21
-182.757
0
LINE
8
BLACK
6
CONTINUOUS
10
184.649
20
-182.757
11
184.649
21
-182.9
0
LINE
8
BLACK
6
CONTINUOUS
10
179.769
20
-179.543
11
179.626
21
-179.471
0
LINE
8
BLACK
6
CONTINUOUS
10
179.626
20
-179.471
11
179.34
21
-179.471
0
LINE
8
BLACK
6
CONTINUOUS
10
179.34
20
-179.471
11
179.197
21
-179.543
0
LINE
8
BLACK
6
CONTINUOUS
10
179.197
20
-179.543
11
179.054
21
-179.686
0
LINE
8
BLACK
6
CONTINUOUS
10
179.054
20
-179.686
11
178.983
21
-179.829
0
LINE
8
BLACK
6
CONTINUOUS
10
178.983
20
-179.829
11
178.983
21
-180.114
0
LINE
8
BLACK
6
CONTINUOUS
10
178.983
20
-180.114
11
179.054
21
-180.257
0
LINE
8
BLACK
6
CONTINUOUS
10
179.054
20
-180.257
11
179.197
21
-180.4
0
LINE
8
BLACK
6
CONTINUOUS
10
179.197
20
-180.4
11
179.34
21
-180.471
0
LINE
8
BLACK
6
CONTINUOUS
10
179.34
20
-180.471
11
179.626
21
-180.471
0
LINE
8
BLACK
6
CONTINUOUS
10
179.626
20
-180.471
11
179.769
21
-180.4
0
LINE
8
BLACK
6
CONTINUOUS
10
179.483
20
-178.971
11
179.126
21
-179.043
0
LINE
8
BLACK
6
CONTINUOUS
10
179.126
20
-179.043
11
178.769
21
-179.257
0
LINE
8
BLACK
6
CONTINUOUS
10
178.769
20
-179.257
11
178.554
21
-179.614
0
LINE
8
BLACK
6
CONTINUOUS
10
178.554
20
-179.614
11
178.483
21
-179.971
0
LINE
8
BLACK
6
CONTINUOUS
10
178.483
20
-179.971
11
178.554
21
-180.329
0
LINE
8
BLACK
6
CONTINUOUS
10
178.554
20
-180.329
11
178.769
21
-180.686
0
LINE
8
BLACK
6
CONTINUOUS
10
178.769
20
-180.686
11
179.126
21
-180.9
0
LINE
8
BLACK
6
CONTINUOUS
10
179.126
20
-180.9
11
179.483
21
-180.971
0
LINE
8
BLACK
6
CONTINUOUS
10
179.483
20
-180.971
11
179.84
21
-180.9
0
LINE
8
BLACK
6
CONTINUOUS
10
179.84
20
-180.9
11
180.197
21
-180.686
0
LINE
8
BLACK
6
CONTINUOUS
10
180.197
20
-180.686
11
180.411
21
-180.329
0
LINE
8
BLACK
6
CONTINUOUS
10
180.411
20
-180.329
11
180.483
21
-179.971
0
LINE
8
BLACK
6
CONTINUOUS
10
180.483
20
-179.971
11
180.411
21
-179.614
0
LINE
8
BLACK
6
CONTINUOUS
10
180.411
20
-179.614
11
180.197
21
-179.257
0
LINE
8
BLACK
6
CONTINUOUS
10
180.197
20
-179.257
11
179.84
21
-179.043
0
LINE
8
BLACK
6
CONTINUOUS
10
179.84
20
-179.043
11
179.483
21
-178.971
0
LINE
8
BLACK
6
CONTINUOUS
10
182.126
20
-179.186
11
182.483
21
-180.686
0
LINE
8
BLACK
6
CONTINUOUS
10
182.483
20
-180.686
11
182.769
21
-179.614
0
LINE
8
BLACK
6
CONTINUOUS
10
182.769
20
-179.614
11
183.054
21
-180.686
0
LINE
8
BLACK
6
CONTINUOUS
10
183.054
20
-180.686
11
183.411
21
-179.186
0
LINE
8
BLACK
6
CONTINUOUS
10
184.197
20
-180.686
11
184.054
21
-180.614
0
LINE
8
BLACK
6
CONTINUOUS
10
184.054
20
-180.614
11
183.983
21
-180.543
0
LINE
8
BLACK
6
CONTINUOUS
10
183.983
20
-180.543
11
183.911
21
-180.4
0
LINE
8
BLACK
6
CONTINUOUS
10
183.911
20
-180.4
11
183.911
21
-179.971
0
LINE
8
BLACK
6
CONTINUOUS
10
183.911
20
-179.971
11
183.983
21
-179.829
0
LINE
8
BLACK
6
CONTINUOUS
10
183.983
20
-179.829
11
184.054
21
-179.757
0
LINE
8
BLACK
6
CONTINUOUS
10
184.054
20
-179.757
11
184.197
21
-179.686
0
LINE
8
BLACK
6
CONTINUOUS
10
184.197
20
-179.686
11
184.411
21
-179.686
0
LINE
8
BLACK
6
CONTINUOUS
10
184.411
20
-179.686
11
184.554
21
-179.757
0
LINE
8
BLACK
6
CONTINUOUS
10
184.554
20
-179.757
11
184.626
21
-179.829
0
LINE
8
BLACK
6
CONTINUOUS
10
184.626
20
-179.829
11
184.697
21
-179.971
0
LINE
8
BLACK
6
CONTINUOUS
10
184.697
20
-179.971
11
184.697
21
-180.4
0
LINE
8
BLACK
6
CONTINUOUS
10
184.697
20
-180.4
11
184.626
21
-180.543
0
LINE
8
BLACK
6
CONTINUOUS
10
184.626
20
-180.543
11
184.554
21
-180.614
0
LINE
8
BLACK
6
CONTINUOUS
10
184.554
20
-180.614
11
184.411
21
-180.686
0
LINE
8
BLACK
6
CONTINUOUS
10
184.411
20
-180.686
11
184.197
21
-180.686
0
LINE
8
BLACK
6
CONTINUOUS
10
185.983
20
-180.686
11
185.983
21
-179.186
0
LINE
8
BLACK
6
CONTINUOUS
10
185.983
20
-180.614
11
185.84
21
-180.686
0
LINE
8
BLACK
6
CONTINUOUS
10
185.84
20
-180.686
11
185.554
21
-180.686
0
LINE
8
BLACK
6
CONTINUOUS
10
185.554
20
-180.686
11
185.411
21
-180.614
0
LINE
8
BLACK
6
CONTINUOUS
10
185.411
20
-180.614
11
185.34
21
-180.543
0
LINE
8
BLACK
6
CONTINUOUS
10
185.34
20
-180.543
11
185.269
21
-180.4
0
LINE
8
BLACK
6
CONTINUOUS
10
185.269
20
-180.4
11
185.269
21
-179.971
0
LINE
8
BLACK
6
CONTINUOUS
10
185.269
20
-179.971
11
185.34
21
-179.829
0
LINE
8
BLACK
6
CONTINUOUS
10
185.34
20
-179.829
11
185.411
21
-179.757
0
LINE
8
BLACK
6
CONTINUOUS
10
185.411
20
-179.757
11
185.554
21
-179.686
0
LINE
8
BLACK
6
CONTINUOUS
10
185.554
20
-179.686
11
185.84
21
-179.686
0
LINE
8
BLACK
6
CONTINUOUS
10
185.84
20
-179.686
11
185.983
21
-179.757
0
LINE
8
BLACK
6
CONTINUOUS
10
186.911
20
-180.686
11
186.769
21
-180.614
0
LINE
8
BLACK
6
CONTINUOUS
10
186.769
20
-180.614
11
186.697
21
-180.543
0
LINE
8
BLACK
6
CONTINUOUS
10
186.697
20
-180.543
11
186.626
21
-180.4
0
LINE
8
BLACK
6
CONTINUOUS
10
186.626
20
-180.4
11
186.626
21
-179.971
0
LINE
8
BLACK
6
CONTINUOUS
10
186.626
20
-179.971
11
186.697
21
-179.829
0
LINE
8
BLACK
6
CONTINUOUS
10
186.697
20
-179.829
11
186.769
21
-179.757
0
LINE
8
BLACK
6
CONTINUOUS
10
186.769
20
-179.757
11
186.911
21
-179.686
0
LINE
8
BLACK
6
CONTINUOUS
10
186.911
20
-179.686
11
187.126
21
-179.686
0
LINE
8
BLACK
6
CONTINUOUS
10
187.126
20
-179.686
11
187.269
21
-179.757
0
LINE
8
BLACK
6
CONTINUOUS
10
187.269
20
-179.757
11
187.34
21
-179.829
0
LINE
8
BLACK
6
CONTINUOUS
10
187.34
20
-179.829
11
187.411
21
-179.971
0
LINE
8
BLACK
6
CONTINUOUS
10
187.411
20
-179.971
11
187.411
21
-180.4
0
LINE
8
BLACK
6
CONTINUOUS
10
187.411
20
-180.4
11
187.34
21
-180.543
0
LINE
8
BLACK
6
CONTINUOUS
10
187.34
20
-180.543
11
187.269
21
-180.614
0
LINE
8
BLACK
6
CONTINUOUS
10
187.269
20
-180.614
11
187.126
21
-180.686
0
LINE
8
BLACK
6
CONTINUOUS
10
187.126
20
-180.686
11
186.911
21
-180.686
0
LINE
8
BLACK
6
CONTINUOUS
10
187.911
20
-179.186
11
188.269
21
-180.686
0
LINE
8
BLACK
6
CONTINUOUS
10
188.269
20
-180.686
11
188.554
21
-179.614
0
LINE
8
BLACK
6
CONTINUOUS
10
188.554
20
-179.614
11
188.84
21
-180.686
0
LINE
8
BLACK
6
CONTINUOUS
10
188.84
20
-180.686
11
189.197
21
-179.186
0
LINE
8
BLACK
6
CONTINUOUS
10
189.769
20
-180.686
11
189.769
21
-179.686
0
LINE
8
BLACK
6
CONTINUOUS
10
189.769
20
-179.186
11
189.697
21
-179.257
0
LINE
8
BLACK
6
CONTINUOUS
10
189.697
20
-179.257
11
189.769
21
-179.329
0
LINE
8
BLACK
6
CONTINUOUS
10
189.769
20
-179.329
11
189.84
21
-179.257
0
LINE
8
BLACK
6
CONTINUOUS
10
189.84
20
-179.257
11
189.769
21
-179.186
0
LINE
8
BLACK
6
CONTINUOUS
10
189.769
20
-179.186
11
189.769
21
-179.329
0
LINE
8
BLACK
6
CONTINUOUS
10
191.054
20
-180.614
11
190.911
21
-180.686
0
LINE
8
BLACK
6
CONTINUOUS
10
190.911
20
-180.686
11
190.626
21
-180.686
0
LINE
8
BLACK
6
CONTINUOUS
10
190.626
20
-180.686
11
190.483
21
-180.614
0
LINE
8
BLACK
6
CONTINUOUS
10
190.483
20
-180.614
11
190.411
21
-180.471
0
LINE
8
BLACK
6
CONTINUOUS
10
190.411
20
-180.471
11
190.411
21
-179.9
0
LINE
8
BLACK
6
CONTINUOUS
10
190.411
20
-179.9
11
190.483
21
-179.757
0
LINE
8
BLACK
6
CONTINUOUS
10
190.483
20
-179.757
11
190.626
21
-179.686
0
LINE
8
BLACK
6
CONTINUOUS
10
190.626
20
-179.686
11
190.911
21
-179.686
0
LINE
8
BLACK
6
CONTINUOUS
10
190.911
20
-179.686
11
191.054
21
-179.757
0
LINE
8
BLACK
6
CONTINUOUS
10
191.054
20
-179.757
11
191.126
21
-179.9
0
LINE
8
BLACK
6
CONTINUOUS
10
191.126
20
-179.9
11
191.126
21
-180.043
0
LINE
8
BLACK
6
CONTINUOUS
10
191.126
20
-180.043
11
190.411
21
-180.186
0
LINE
8
BLACK
6
CONTINUOUS
10
191.697
20
-180.614
11
191.84
21
-180.686
0
LINE
8
BLACK
6
CONTINUOUS
10
191.84
20
-180.686
11
192.126
21
-180.686
0
LINE
8
BLACK
6
CONTINUOUS
10
192.126
20
-180.686
11
192.269
21
-180.614
0
LINE
8
BLACK
6
CONTINUOUS
10
192.269
20
-180.614
11
192.34
21
-180.471
0
LINE
8
BLACK
6
CONTINUOUS
10
192.34
20
-180.471
11
192.34
21
-180.4
0
LINE
8
BLACK
6
CONTINUOUS
10
192.34
20
-180.4
11
192.269
21
-180.257
0
LINE
8
BLACK
6
CONTINUOUS
10
192.269
20
-180.257
11
192.126
21
-180.186
0
LINE
8
BLACK
6
CONTINUOUS
10
192.126
20
-180.186
11
191.911
21
-180.186
0
LINE
8
BLACK
6
CONTINUOUS
10
191.911
20
-180.186
11
191.769
21
-180.114
0
LINE
8
BLACK
6
CONTINUOUS
10
191.769
20
-180.114
11
191.697
21
-179.971
0
LINE
8
BLACK
6
CONTINUOUS
10
191.697
20
-179.971
11
191.697
21
-179.9
0
LINE
8
BLACK
6
CONTINUOUS
10
191.697
20
-179.9
11
191.769
21
-179.757
0
LINE
8
BLACK
6
CONTINUOUS
10
191.769
20
-179.757
11
191.911
21
-179.686
0
LINE
8
BLACK
6
CONTINUOUS
10
191.911
20
-179.686
11
192.126
21
-179.686
0
LINE
8
BLACK
6
CONTINUOUS
10
192.126
20
-179.686
11
192.269
21
-179.757
0
LINE
8
BLACK
6
CONTINUOUS
10
193.554
20
-180.614
11
193.411
21
-180.686
0
LINE
8
BLACK
6
CONTINUOUS
10
193.411
20
-180.686
11
193.126
21
-180.686
0
LINE
8
BLACK
6
CONTINUOUS
10
193.126
20
-180.686
11
192.983
21
-180.614
0
LINE
8
BLACK
6
CONTINUOUS
10
192.983
20
-180.614
11
192.911
21
-180.471
0
LINE
8
BLACK
6
CONTINUOUS
10
192.911
20
-180.471
11
192.911
21
-179.9
0
LINE
8
BLACK
6
CONTINUOUS
10
192.911
20
-179.9
11
192.983
21
-179.757
0
LINE
8
BLACK
6
CONTINUOUS
10
192.983
20
-179.757
11
193.126
21
-179.686
0
LINE
8
BLACK
6
CONTINUOUS
10
193.126
20
-179.686
11
193.411
21
-179.686
0
LINE
8
BLACK
6
CONTINUOUS
10
193.411
20
-179.686
11
193.554
21
-179.757
0
LINE
8
BLACK
6
CONTINUOUS
10
193.554
20
-179.757
11
193.626
21
-179.9
0
LINE
8
BLACK
6
CONTINUOUS
10
193.626
20
-179.9
11
193.626
21
-180.043
0
LINE
8
BLACK
6
CONTINUOUS
10
193.626
20
-180.043
11
192.911
21
-180.186
0
LINE
8
BLACK
6
CONTINUOUS
10
194.483
20
-180.686
11
194.34
21
-180.614
0
LINE
8
BLACK
6
CONTINUOUS
10
194.34
20
-180.614
11
194.269
21
-180.471
0
LINE
8
BLACK
6
CONTINUOUS
10
194.269
20
-180.471
11
194.269
21
-179.186
0
LINE
8
BLACK
6
CONTINUOUS
10
178.363
20
-177.614
11
178.577
21
-177.686
0
LINE
8
BLACK
6
CONTINUOUS
10
178.577
20
-177.686
11
178.934
21
-177.686
0
LINE
8
BLACK
6
CONTINUOUS
10
178.934
20
-177.686
11
179.077
21
-177.614
0
LINE
8
BLACK
6
CONTINUOUS
10
179.077
20
-177.614
11
179.149
21
-177.543
0
LINE
8
BLACK
6
CONTINUOUS
10
179.149
20
-177.543
11
179.22
21
-177.4
0
LINE
8
BLACK
6
CONTINUOUS
10
179.22
20
-177.4
11
179.22
21
-177.257
0
LINE
8
BLACK
6
CONTINUOUS
10
179.22
20
-177.257
11
179.149
21
-177.114
0
LINE
8
BLACK
6
CONTINUOUS
10
179.149
20
-177.114
11
179.077
21
-177.043
0
LINE
8
BLACK
6
CONTINUOUS
10
179.077
20
-177.043
11
178.934
21
-176.971
0
LINE
8
BLACK
6
CONTINUOUS
10
178.934
20
-176.971
11
178.649
21
-176.9
0
LINE
8
BLACK
6
CONTINUOUS
10
178.649
20
-176.9
11
178.506
21
-176.829
0
LINE
8
BLACK
6
CONTINUOUS
10
178.506
20
-176.829
11
178.434
21
-176.757
0
LINE
8
BLACK
6
CONTINUOUS
10
178.434
20
-176.757
11
178.363
21
-176.614
0
LINE
8
BLACK
6
CONTINUOUS
10
178.363
20
-176.614
11
178.363
21
-176.471
0
LINE
8
BLACK
6
CONTINUOUS
10
178.363
20
-176.471
11
178.434
21
-176.329
0
LINE
8
BLACK
6
CONTINUOUS
10
178.434
20
-176.329
11
178.506
21
-176.257
0
LINE
8
BLACK
6
CONTINUOUS
10
178.506
20
-176.257
11
178.649
21
-176.186
0
LINE
8
BLACK
6
CONTINUOUS
10
178.649
20
-176.186
11
179.006
21
-176.186
0
LINE
8
BLACK
6
CONTINUOUS
10
179.006
20
-176.186
11
179.22
21
-176.257
0
LINE
8
BLACK
6
CONTINUOUS
10
179.72
20
-176.186
11
180.077
21
-177.686
0
LINE
8
BLACK
6
CONTINUOUS
10
180.077
20
-177.686
11
180.363
21
-176.614
0
LINE
8
BLACK
6
CONTINUOUS
10
180.363
20
-176.614
11
180.649
21
-177.686
0
LINE
8
BLACK
6
CONTINUOUS
10
180.649
20
-177.686
11
181.006
21
-176.186
0
LINE
8
BLACK
6
CONTINUOUS
10
181.577
20
-177.114
11
182.72
21
-177.114
0
LINE
8
BLACK
6
CONTINUOUS
10
183.434
20
-177.686
11
183.434
21
-176.186
0
LINE
8
BLACK
6
CONTINUOUS
10
183.434
20
-176.186
11
183.934
21
-177.257
0
LINE
8
BLACK
6
CONTINUOUS
10
183.934
20
-177.257
11
184.434
21
-176.186
0
LINE
8
BLACK
6
CONTINUOUS
10
184.434
20
-176.186
11
184.434
21
-177.686
0
LINE
8
BLACK
6
CONTINUOUS
10
185.72
20
-177.614
11
185.577
21
-177.686
0
LINE
8
BLACK
6
CONTINUOUS
10
185.577
20
-177.686
11
185.291
21
-177.686
0
LINE
8
BLACK
6
CONTINUOUS
10
185.291
20
-177.686
11
185.149
21
-177.614
0
LINE
8
BLACK
6
CONTINUOUS
10
185.149
20
-177.614
11
185.077
21
-177.471
0
LINE
8
BLACK
6
CONTINUOUS
10
185.077
20
-177.471
11
185.077
21
-176.9
0
LINE
8
BLACK
6
CONTINUOUS
10
185.077
20
-176.9
11
185.149
21
-176.757
0
LINE
8
BLACK
6
CONTINUOUS
10
185.149
20
-176.757
11
185.291
21
-176.686
0
LINE
8
BLACK
6
CONTINUOUS
10
185.291
20
-176.686
11
185.577
21
-176.686
0
LINE
8
BLACK
6
CONTINUOUS
10
185.577
20
-176.686
11
185.72
21
-176.757
0
LINE
8
BLACK
6
CONTINUOUS
10
185.72
20
-176.757
11
185.791
21
-176.9
0
LINE
8
BLACK
6
CONTINUOUS
10
185.791
20
-176.9
11
185.791
21
-177.043
0
LINE
8
BLACK
6
CONTINUOUS
10
185.791
20
-177.043
11
185.077
21
-177.186
0
LINE
8
BLACK
6
CONTINUOUS
10
186.22
20
-176.686
11
186.791
21
-176.686
0
LINE
8
BLACK
6
CONTINUOUS
10
186.434
20
-176.186
11
186.434
21
-177.471
0
LINE
8
BLACK
6
CONTINUOUS
10
186.434
20
-177.471
11
186.506
21
-177.614
0
LINE
8
BLACK
6
CONTINUOUS
10
186.506
20
-177.614
11
186.649
21
-177.686
0
LINE
8
BLACK
6
CONTINUOUS
10
186.649
20
-177.686
11
186.791
21
-177.686
0
LINE
8
BLACK
6
CONTINUOUS
10
187.863
20
-177.614
11
187.72
21
-177.686
0
LINE
8
BLACK
6
CONTINUOUS
10
187.72
20
-177.686
11
187.434
21
-177.686
0
LINE
8
BLACK
6
CONTINUOUS
10
187.434
20
-177.686
11
187.291
21
-177.614
0
LINE
8
BLACK
6
CONTINUOUS
10
187.291
20
-177.614
11
187.22
21
-177.471
0
LINE
8
BLACK
6
CONTINUOUS
10
187.22
20
-177.471
11
187.22
21
-176.9
0
LINE
8
BLACK
6
CONTINUOUS
10
187.22
20
-176.9
11
187.291
21
-176.757
0
LINE
8
BLACK
6
CONTINUOUS
10
187.291
20
-176.757
11
187.434
21
-176.686
0
LINE
8
BLACK
6
CONTINUOUS
10
187.434
20
-176.686
11
187.72
21
-176.686
0
LINE
8
BLACK
6
CONTINUOUS
10
187.72
20
-176.686
11
187.863
21
-176.757
0
LINE
8
BLACK
6
CONTINUOUS
10
187.863
20
-176.757
11
187.934
21
-176.9
0
LINE
8
BLACK
6
CONTINUOUS
10
187.934
20
-176.9
11
187.934
21
-177.043
0
LINE
8
BLACK
6
CONTINUOUS
10
187.934
20
-177.043
11
187.22
21
-177.186
0
LINE
8
BLACK
6
CONTINUOUS
10
188.577
20
-177.686
11
188.577
21
-176.686
0
LINE
8
BLACK
6
CONTINUOUS
10
188.577
20
-176.971
11
188.649
21
-176.829
0
LINE
8
BLACK
6
CONTINUOUS
10
188.649
20
-176.829
11
188.72
21
-176.757
0
LINE
8
BLACK
6
CONTINUOUS
10
188.72
20
-176.757
11
188.863
21
-176.686
0
LINE
8
BLACK
6
CONTINUOUS
10
188.863
20
-176.686
11
189.006
21
-176.686
0
LINE
8
BLACK
6
CONTINUOUS
10
197.002
20
-191.507
11
197.002
21
-194.507
0
LINE
8
BLACK
6
CONTINUOUS
10
261.002
20
-191.507
11
261.002
21
-198.007
0
LINE
8
BLACK
6
CONTINUOUS
10
98.1196
20
-125.22
11
98.105
21
-125.185
0
LINE
8
BLACK
6
CONTINUOUS
10
98.105
20
-125.185
11
98.105
21
-55.235
0
LINE
8
BLACK
6
CONTINUOUS
10
98.105
20
-55.235
11
98.1196
21
-55.1996
0
LINE
8
BLACK
6
CONTINUOUS
10
98.1196
20
-55.1996
11
98.155
21
-55.185
0
LINE
8
BLACK
6
CONTINUOUS
10
98.155
20
-55.185
11
177.79
21
-55.185
0
LINE
8
BLACK
6
CONTINUOUS
10
177.79
20
-55.185
11
177.825
21
-55.1996
0
LINE
8
BLACK
6
CONTINUOUS
10
177.825
20
-55.1996
11
177.84
21
-55.235
0
LINE
8
BLACK
6
CONTINUOUS
10
177.84
20
-55.235
11
177.84
21
-125.185
0
LINE
8
BLACK
6
CONTINUOUS
10
177.84
20
-125.185
11
177.825
21
-125.22
0
LINE
8
BLACK
6
CONTINUOUS
10
177.825
20
-125.22
11
177.79
21
-125.235
0
LINE
8
BLACK
6
CONTINUOUS
10
177.79
20
-125.235
11
98.155
21
-125.235
0
LINE
8
BLACK
6
CONTINUOUS
10
98.155
20
-125.235
11
98.1196
21
-125.22
0
LINE
8
BLACK
6
CONTINUOUS
10
98.205
20
-55.285
11
98.205
21
-125.135
0
LINE
8
BLACK
6
CONTINUOUS
10
98.205
20
-125.135
11
177.74
21
-125.135
0
LINE
8
BLACK
6
CONTINUOUS
10
177.74
20
-125.135
11
177.74
21
-55.285
0
LINE
8
BLACK
6
CONTINUOUS
10
177.74
20
-55.285
11
98.205
21
-55.285
0
LINE
8
BLACK
6
CONTINUOUS
10
170.712
20
-124.448
11
170.705
21
-124.43
0
LINE
8
BLACK
6
CONTINUOUS
10
170.705
20
-124.43
11
170.705
21
-119.93
0
LINE
8
BLACK
6
CONTINUOUS
10
170.705
20
-119.93
11
170.712
21
-119.912
0
LINE
8
BLACK
6
CONTINUOUS
10
170.712
20
-119.912
11
170.73
21
-119.905
0
LINE
8
BLACK
6
CONTINUOUS
10
170.73
20
-119.905
11
175.58
21
-119.905
0
LINE
8
BLACK
6
CONTINUOUS
10
175.58
20
-119.905
11
175.598
21
-119.912
0
LINE
8
BLACK
6
CONTINUOUS
10
175.598
20
-119.912
11
175.605
21
-119.93
0
LINE
8
BLACK
6
CONTINUOUS
10
175.605
20
-119.93
11
175.605
21
-124.43
0
LINE
8
BLACK
6
CONTINUOUS
10
175.605
20
-124.43
11
175.598
21
-124.448
0
LINE
8
BLACK
6
CONTINUOUS
10
175.598
20
-124.448
11
175.58
21
-124.455
0
LINE
8
BLACK
6
CONTINUOUS
10
175.58
20
-124.455
11
170.73
21
-124.455
0
LINE
8
BLACK
6
CONTINUOUS
10
170.73
20
-124.455
11
170.712
21
-124.448
0
LINE
8
BLACK
6
CONTINUOUS
10
170.755
20
-119.955
11
170.755
21
-124.405
0
LINE
8
BLACK
6
CONTINUOUS
10
170.755
20
-124.405
11
175.555
21
-124.405
0
LINE
8
BLACK
6
CONTINUOUS
10
175.555
20
-124.405
11
175.555
21
-119.955
0
LINE
8
BLACK
6
CONTINUOUS
10
175.555
20
-119.955
11
170.755
21
-119.955
0
LINE
8
BLACK
6
CONTINUOUS
10
101.282
20
-121.218
11
101.275
21
-121.2
0
LINE
8
BLACK
6
CONTINUOUS
10
101.275
20
-121.2
11
101.275
21
-65.7
0
LINE
8
BLACK
6
CONTINUOUS
10
101.275
20
-65.7
11
101.282
21
-65.6823
0
LINE
8
BLACK
6
CONTINUOUS
10
101.282
20
-65.6823
11
101.3
21
-65.675
0
LINE
8
BLACK
6
CONTINUOUS
10
101.3
20
-65.675
11
132.5
21
-65.675
0
LINE
8
BLACK
6
CONTINUOUS
10
132.5
20
-65.675
11
132.518
21
-65.6823
0
LINE
8
BLACK
6
CONTINUOUS
10
132.518
20
-65.6823
11
132.525
21
-65.7
0
LINE
8
BLACK
6
CONTINUOUS
10
132.525
20
-65.7
11
132.525
21
-121.2
0
LINE
8
BLACK
6
CONTINUOUS
10
132.525
20
-121.2
11
132.518
21
-121.218
0
LINE
8
BLACK
6
CONTINUOUS
10
132.518
20
-121.218
11
132.5
21
-121.225
0
LINE
8
BLACK
6
CONTINUOUS
10
132.5
20
-121.225
11
101.3
21
-121.225
0
LINE
8
BLACK
6
CONTINUOUS
10
101.3
20
-121.225
11
101.282
21
-121.218
0
LINE
8
BLACK
6
CONTINUOUS
10
101.325
20
-65.725
11
101.325
21
-121.175
0
LINE
8
BLACK
6
CONTINUOUS
10
101.325
20
-121.175
11
132.475
21
-121.175
0
LINE
8
BLACK
6
CONTINUOUS
10
132.475
20
-121.175
11
132.475
21
-65.725
0
LINE
8
BLACK
6
CONTINUOUS
10
132.475
20
-65.725
11
101.325
21
-65.725
0
LINE
8
BLACK
6
CONTINUOUS
10
170.662
20
-119.798
11
170.655
21
-119.78
0
LINE
8
BLACK
6
CONTINUOUS
10
170.655
20
-119.78
11
170.655
21
-115.28
0
LINE
8
BLACK
6
CONTINUOUS
10
170.655
20
-115.28
11
170.662
21
-115.262
0
LINE
8
BLACK
6
CONTINUOUS
10
170.662
20
-115.262
11
170.68
21
-115.255
0
LINE
8
BLACK
6
CONTINUOUS
10
170.68
20
-115.255
11
175.53
21
-115.255
0
LINE
8
BLACK
6
CONTINUOUS
10
175.53
20
-115.255
11
175.548
21
-115.262
0
LINE
8
BLACK
6
CONTINUOUS
10
175.548
20
-115.262
11
175.555
21
-115.28
0
LINE
8
BLACK
6
CONTINUOUS
10
175.555
20
-115.28
11
175.555
21
-119.78
0
LINE
8
BLACK
6
CONTINUOUS
10
175.555
20
-119.78
11
175.548
21
-119.798
0
LINE
8
BLACK
6
CONTINUOUS
10
175.548
20
-119.798
11
175.53
21
-119.805
0
LINE
8
BLACK
6
CONTINUOUS
10
175.53
20
-119.805
11
170.68
21
-119.805
0
LINE
8
BLACK
6
CONTINUOUS
10
170.68
20
-119.805
11
170.662
21
-119.798
0
LINE
8
BLACK
6
CONTINUOUS
10
170.705
20
-115.305
11
170.705
21
-119.755
0
LINE
8
BLACK
6
CONTINUOUS
10
170.705
20
-119.755
11
175.505
21
-119.755
0
LINE
8
BLACK
6
CONTINUOUS
10
175.505
20
-119.755
11
175.505
21
-115.305
0
LINE
8
BLACK
6
CONTINUOUS
10
175.505
20
-115.305
11
170.705
21
-115.305
0
LINE
8
BLACK
6
CONTINUOUS
10
170.637
20
-115.198
11
170.63
21
-115.18
0
LINE
8
BLACK
6
CONTINUOUS
10
170.63
20
-115.18
11
170.63
21
-110.68
0
LINE
8
BLACK
6
CONTINUOUS
10
170.63
20
-110.68
11
170.637
21
-110.662
0
LINE
8
BLACK
6
CONTINUOUS
10
170.637
20
-110.662
11
170.655
21
-110.655
0
LINE
8
BLACK
6
CONTINUOUS
10
170.655
20
-110.655
11
175.505
21
-110.655
0
LINE
8
BLACK
6
CONTINUOUS
10
175.505
20
-110.655
11
175.523
21
-110.662
0
LINE
8
BLACK
6
CONTINUOUS
10
175.523
20
-110.662
11
175.53
21
-110.68
0
LINE
8
BLACK
6
CONTINUOUS
10
175.53
20
-110.68
11
175.53
21
-115.18
0
LINE
8
BLACK
6
CONTINUOUS
10
175.53
20
-115.18
11
175.523
21
-115.198
0
LINE
8
BLACK
6
CONTINUOUS
10
175.523
20
-115.198
11
175.505
21
-115.205
0
LINE
8
BLACK
6
CONTINUOUS
10
175.505
20
-115.205
11
170.655
21
-115.205
0
LINE
8
BLACK
6
CONTINUOUS
10
170.655
20
-115.205
11
170.637
21
-115.198
0
LINE
8
BLACK
6
CONTINUOUS
10
170.68
20
-110.705
11
170.68
21
-115.155
0
LINE
8
BLACK
6
CONTINUOUS
10
170.68
20
-115.155
11
175.48
21
-115.155
0
LINE
8
BLACK
6
CONTINUOUS
10
175.48
20
-115.155
11
175.48
21
-110.705
0
LINE
8
BLACK
6
CONTINUOUS
10
175.48
20
-110.705
11
170.68
21
-110.705
0
LINE
8
BLACK
6
CONTINUOUS
10
170.612
20
-110.598
11
170.605
21
-110.58
0
LINE
8
BLACK
6
CONTINUOUS
10
170.605
20
-110.58
11
170.605
21
-106.08
0
LINE
8
BLACK
6
CONTINUOUS
10
170.605
20
-106.08
11
170.612
21
-106.062
0
LINE
8
BLACK
6
CONTINUOUS
10
170.612
20
-106.062
11
170.63
21
-106.055
0
LINE
8
BLACK
6
CONTINUOUS
10
170.63
20
-106.055
11
175.48
21
-106.055
0
LINE
8
BLACK
6
CONTINUOUS
10
175.48
20
-106.055
11
175.498
21
-106.062
0
LINE
8
BLACK
6
CONTINUOUS
10
175.498
20
-106.062
11
175.505
21
-106.08
0
LINE
8
BLACK
6
CONTINUOUS
10
175.505
20
-106.08
11
175.505
21
-110.58
0
LINE
8
BLACK
6
CONTINUOUS
10
175.505
20
-110.58
11
175.498
21
-110.598
0
LINE
8
BLACK
6
CONTINUOUS
10
175.498
20
-110.598
11
175.48
21
-110.605
0
LINE
8
BLACK
6
CONTINUOUS
10
175.48
20
-110.605
11
170.63
21
-110.605
0
LINE
8
BLACK
6
CONTINUOUS
10
170.63
20
-110.605
11
170.612
21
-110.598
0
LINE
8
BLACK
6
CONTINUOUS
10
170.655
20
-106.105
11
170.655
21
-110.555
0
LINE
8
BLACK
6
CONTINUOUS
10
170.655
20
-110.555
11
175.455
21
-110.555
0
LINE
8
BLACK
6
CONTINUOUS
10
175.455
20
-110.555
11
175.455
21
-106.105
0
LINE
8
BLACK
6
CONTINUOUS
10
175.455
20
-106.105
11
170.655
21
-106.105
0
LINE
8
BLACK
6
CONTINUOUS
10
170.587
20
-105.998
11
170.58
21
-105.98
0
LINE
8
BLACK
6
CONTINUOUS
10
170.58
20
-105.98
11
170.58
21
-101.48
0
LINE
8
BLACK
6
CONTINUOUS
10
170.58
20
-101.48
11
170.587
21
-101.462
0
LINE
8
BLACK
6
CONTINUOUS
10
170.587
20
-101.462
11
170.605
21
-101.455
0
LINE
8
BLACK
6
CONTINUOUS
10
170.605
20
-101.455
11
170.58
21
-101.455
0
LINE
8
BLACK
6
CONTINUOUS
10
170.58
20
-101.455
11
170.562
21
-101.448
0
LINE
8
BLACK
6
CONTINUOUS
10
170.562
20
-101.448
11
170.555
21
-101.43
0
LINE
8
BLACK
6
CONTINUOUS
10
170.555
20
-101.43
11
170.555
21
-96.93
0
LINE
8
BLACK
6
CONTINUOUS
10
170.555
20
-96.93
11
170.562
21
-96.9123
0
LINE
8
BLACK
6
CONTINUOUS
10
170.562
20
-96.9123
11
170.58
21
-96.905
0
LINE
8
BLACK
6
CONTINUOUS
10
170.58
20
-96.905
11
170.562
21
-96.8977
0
LINE
8
BLACK
6
CONTINUOUS
10
170.562
20
-96.8977
11
170.555
21
-96.88
0
LINE
8
BLACK
6
CONTINUOUS
10
170.555
20
-96.88
11
170.555
21
-92.38
0
LINE
8
BLACK
6
CONTINUOUS
10
170.555
20
-92.38
11
170.562
21
-92.3623
0
LINE
8
BLACK
6
CONTINUOUS
10
170.562
20
-92.3623
11
170.58
21
-92.355
0
LINE
8
BLACK
6
CONTINUOUS
10
170.58
20
-92.355
11
175.43
21
-92.355
0
LINE
8
BLACK
6
CONTINUOUS
10
175.43
20
-92.355
11
175.448
21
-92.3623
0
LINE
8
BLACK
6
CONTINUOUS
10
175.448
20
-92.3623
11
175.455
21
-92.38
0
LINE
8
BLACK
6
CONTINUOUS
10
175.455
20
-92.38
11
175.455
21
-96.88
0
LINE
8
BLACK
6
CONTINUOUS
10
175.455
20
-96.88
11
175.448
21
-96.8977
0
LINE
8
BLACK
6
CONTINUOUS
10
175.448
20
-96.8977
11
175.43
21
-96.905
0
LINE
8
BLACK
6
CONTINUOUS
10
175.43
20
-96.905
11
175.448
21
-96.9123
0
LINE
8
BLACK
6
CONTINUOUS
10
175.448
20
-96.9123
11
175.455
21
-96.93
0
LINE
8
BLACK
6
CONTINUOUS
10
175.455
20
-96.93
11
175.455
21
-101.43
0
LINE
8
BLACK
6
CONTINUOUS
10
175.455
20
-101.43
11
175.448
21
-101.448
0
LINE
8
BLACK
6
CONTINUOUS
10
175.448
20
-101.448
11
175.43
21
-101.455
0
LINE
8
BLACK
6
CONTINUOUS
10
175.43
20
-101.455
11
175.455
21
-101.455
0
LINE
8
BLACK
6
CONTINUOUS
10
175.455
20
-101.455
11
175.473
21
-101.462
0
LINE
8
BLACK
6
CONTINUOUS
10
175.473
20
-101.462
11
175.48
21
-101.48
0
LINE
8
BLACK
6
CONTINUOUS
10
175.48
20
-101.48
11
175.48
21
-105.98
0
LINE
8
BLACK
6
CONTINUOUS
10
175.48
20
-105.98
11
175.473
21
-105.998
0
LINE
8
BLACK
6
CONTINUOUS
10
175.473
20
-105.998
11
175.455
21
-106.005
0
LINE
8
BLACK
6
CONTINUOUS
10
175.455
20
-106.005
11
170.605
21
-106.005
0
LINE
8
BLACK
6
CONTINUOUS
10
170.605
20
-106.005
11
170.587
21
-105.998
0
LINE
8
BLACK
6
CONTINUOUS
10
170.63
20
-101.505
11
170.63
21
-105.955
0
LINE
8
BLACK
6
CONTINUOUS
10
170.63
20
-105.955
11
175.43
21
-105.955
0
LINE
8
BLACK
6
CONTINUOUS
10
175.43
20
-105.955
11
175.43
21
-101.505
0
LINE
8
BLACK
6
CONTINUOUS
10
175.43
20
-101.505
11
170.63
21
-101.505
0
LINE
8
BLACK
6
CONTINUOUS
10
170.605
20
-96.955
11
170.605
21
-101.405
0
LINE
8
BLACK
6
CONTINUOUS
10
170.605
20
-101.405
11
175.405
21
-101.405
0
LINE
8
BLACK
6
CONTINUOUS
10
175.405
20
-101.405
11
175.405
21
-96.955
0
LINE
8
BLACK
6
CONTINUOUS
10
175.405
20
-96.955
11
170.605
21
-96.955
0
LINE
8
BLACK
6
CONTINUOUS
10
170.605
20
-92.405
11
170.605
21
-96.855
0
LINE
8
BLACK
6
CONTINUOUS
10
170.605
20
-96.855
11
175.405
21
-96.855
0
LINE
8
BLACK
6
CONTINUOUS
10
175.405
20
-96.855
11
175.405
21
-92.405
0
LINE
8
BLACK
6
CONTINUOUS
10
175.405
20
-92.405
11
170.605
21
-92.405
0
LINE
8
BLACK
6
CONTINUOUS
10
141.582
20
-105.948
11
141.575
21
-105.93
0
LINE
8
BLACK
6
CONTINUOUS
10
141.575
20
-105.93
11
141.575
21
-102.93
0
LINE
8
BLACK
6
CONTINUOUS
10
141.575
20
-102.93
11
141.582
21
-102.912
0
LINE
8
BLACK
6
CONTINUOUS
10
141.582
20
-102.912
11
141.6
21
-102.905
0
LINE
8
BLACK
6
CONTINUOUS
10
141.6
20
-102.905
11
153.86
21
-102.905
0
LINE
8
BLACK
6
CONTINUOUS
10
153.86
20
-102.905
11
153.878
21
-102.912
0
LINE
8
BLACK
6
CONTINUOUS
10
153.878
20
-102.912
11
153.885
21
-102.93
0
LINE
8
BLACK
6
CONTINUOUS
10
153.885
20
-102.93
11
153.885
21
-105.93
0
LINE
8
BLACK
6
CONTINUOUS
10
153.885
20
-105.93
11
153.878
21
-105.948
0
LINE
8
BLACK
6
CONTINUOUS
10
153.878
20
-105.948
11
153.86
21
-105.955
0
LINE
8
BLACK
6
CONTINUOUS
10
153.86
20
-105.955
11
141.6
21
-105.955
0
LINE
8
BLACK
6
CONTINUOUS
10
141.6
20
-105.955
11
141.582
21
-105.948
0
LINE
8
BLACK
6
CONTINUOUS
10
141.625
20
-102.955
11
141.625
21
-105.905
0
LINE
8
BLACK
6
CONTINUOUS
10
141.625
20
-105.905
11
153.835
21
-105.905
0
LINE
8
BLACK
6
CONTINUOUS
10
153.835
20
-105.905
11
153.835
21
-102.955
0
LINE
8
BLACK
6
CONTINUOUS
10
153.835
20
-102.955
11
141.625
21
-102.955
0
LINE
8
BLACK
6
CONTINUOUS
10
156.742
20
-105.038
11
156.735
21
-105.02
0
LINE
8
BLACK
6
CONTINUOUS
10
156.735
20
-105.02
11
156.735
21
-81.52
0
LINE
8
BLACK
6
CONTINUOUS
10
156.735
20
-81.52
11
156.742
21
-81.5023
0
LINE
8
BLACK
6
CONTINUOUS
10
156.742
20
-81.5023
11
156.76
21
-81.495
0
LINE
8
BLACK
6
CONTINUOUS
10
156.76
20
-81.495
11
167.46
21
-81.495
0
LINE
8
BLACK
6
CONTINUOUS
10
167.46
20
-81.495
11
167.478
21
-81.5023
0
LINE
8
BLACK
6
CONTINUOUS
10
167.478
20
-81.5023
11
167.485
21
-81.52
0
LINE
8
BLACK
6
CONTINUOUS
10
167.485
20
-81.52
11
167.485
21
-105.02
0
LINE
8
BLACK
6
CONTINUOUS
10
167.485
20
-105.02
11
167.478
21
-105.038
0
LINE
8
BLACK
6
CONTINUOUS
10
167.478
20
-105.038
11
167.46
21
-105.045
0
LINE
8
BLACK
6
CONTINUOUS
10
167.46
20
-105.045
11
156.76
21
-105.045
0
LINE
8
BLACK
6
CONTINUOUS
10
156.76
20
-105.045
11
156.742
21
-105.038
0
LINE
8
BLACK
6
CONTINUOUS
10
156.785
20
-81.545
11
156.785
21
-104.995
0
LINE
8
BLACK
6
CONTINUOUS
10
156.785
20
-104.995
11
167.435
21
-104.995
0
LINE
8
BLACK
6
CONTINUOUS
10
167.435
20
-104.995
11
167.435
21
-81.545
0
LINE
8
BLACK
6
CONTINUOUS
10
167.435
20
-81.545
11
156.785
21
-81.545
0
LINE
8
BLACK
6
CONTINUOUS
10
143.887
20
-100.083
11
143.88
21
-100.065
0
LINE
8
BLACK
6
CONTINUOUS
10
143.88
20
-100.065
11
143.88
21
-95.015
0
LINE
8
BLACK
6
CONTINUOUS
10
143.88
20
-95.015
11
143.887
21
-94.9973
0
LINE
8
BLACK
6
CONTINUOUS
10
143.887
20
-94.9973
11
143.905
21
-94.99
0
LINE
8
BLACK
6
CONTINUOUS
10
143.905
20
-94.99
11
151.155
21
-94.99
0
LINE
8
BLACK
6
CONTINUOUS
10
151.155
20
-94.99
11
151.173
21
-94.9973
0
LINE
8
BLACK
6
CONTINUOUS
10
151.173
20
-94.9973
11
151.18
21
-95.015
0
LINE
8
BLACK
6
CONTINUOUS
10
151.18
20
-95.015
11
151.18
21
-100.065
0
LINE
8
BLACK
6
CONTINUOUS
10
151.18
20
-100.065
11
151.173
21
-100.083
0
LINE
8
BLACK
6
CONTINUOUS
10
151.173
20
-100.083
11
151.155
21
-100.09
0
LINE
8
BLACK
6
CONTINUOUS
10
151.155
20
-100.09
11
143.905
21
-100.09
0
LINE
8
BLACK
6
CONTINUOUS
10
143.905
20
-100.09
11
143.887
21
-100.083
0
LINE
8
BLACK
6
CONTINUOUS
10
143.93
20
-95.04
11
143.93
21
-100.04
0
LINE
8
BLACK
6
CONTINUOUS
10
143.93
20
-100.04
11
151.13
21
-100.04
0
LINE
8
BLACK
6
CONTINUOUS
10
151.13
20
-100.04
11
151.13
21
-95.04
0
LINE
8
BLACK
6
CONTINUOUS
10
151.13
20
-95.04
11
143.93
21
-95.04
0
LINE
8
BLACK
6
CONTINUOUS
10
143.917
20
-92.9927
11
143.91
21
-92.975
0
LINE
8
BLACK
6
CONTINUOUS
10
143.91
20
-92.975
11
143.91
21
-87.925
0
LINE
8
BLACK
6
CONTINUOUS
10
143.91
20
-87.925
11
143.917
21
-87.9073
0
LINE
8
BLACK
6
CONTINUOUS
10
143.917
20
-87.9073
11
143.935
21
-87.9
0
LINE
8
BLACK
6
CONTINUOUS
10
143.935
20
-87.9
11
151.185
21
-87.9
0
LINE
8
BLACK
6
CONTINUOUS
10
151.185
20
-87.9
11
151.203
21
-87.9073
0
LINE
8
BLACK
6
CONTINUOUS
10
151.203
20
-87.9073
11
151.21
21
-87.925
0
LINE
8
BLACK
6
CONTINUOUS
10
151.21
20
-87.925
11
151.21
21
-92.975
0
LINE
8
BLACK
6
CONTINUOUS
10
151.21
20
-92.975
11
151.203
21
-92.9927
0
LINE
8
BLACK
6
CONTINUOUS
10
151.203
20
-92.9927
11
151.185
21
-93
0
LINE
8
BLACK
6
CONTINUOUS
10
151.185
20
-93
11
143.935
21
-93
0
LINE
8
BLACK
6
CONTINUOUS
10
143.935
20
-93
11
143.917
21
-92.9927
0
LINE
8
BLACK
6
CONTINUOUS
10
143.96
20
-87.95
11
143.96
21
-92.95
0
LINE
8
BLACK
6
CONTINUOUS
10
143.96
20
-92.95
11
151.16
21
-92.95
0
LINE
8
BLACK
6
CONTINUOUS
10
151.16
20
-92.95
11
151.16
21
-87.95
0
LINE
8
BLACK
6
CONTINUOUS
10
151.16
20
-87.95
11
143.96
21
-87.95
0
LINE
8
BLACK
6
CONTINUOUS
10
170.562
20
-92.3227
11
170.555
21
-92.305
0
LINE
8
BLACK
6
CONTINUOUS
10
170.555
20
-92.305
11
170.555
21
-87.805
0
LINE
8
BLACK
6
CONTINUOUS
10
170.555
20
-87.805
11
170.562
21
-87.7873
0
LINE
8
BLACK
6
CONTINUOUS
10
170.562
20
-87.7873
11
170.58
21
-87.78
0
LINE
8
BLACK
6
CONTINUOUS
10
170.58
20
-87.78
11
170.63
21
-87.78
0
LINE
8
BLACK
6
CONTINUOUS
10
170.63
20
-87.78
11
170.612
21
-87.7727
0
LINE
8
BLACK
6
CONTINUOUS
10
170.612
20
-87.7727
11
170.605
21
-87.755
0
LINE
8
BLACK
6
CONTINUOUS
10
170.605
20
-87.755
11
170.605
21
-83.255
0
LINE
8
BLACK
6
CONTINUOUS
10
170.605
20
-83.255
11
170.612
21
-83.2373
0
LINE
8
BLACK
6
CONTINUOUS
10
170.612
20
-83.2373
11
170.63
21
-83.23
0
LINE
8
BLACK
6
CONTINUOUS
10
170.63
20
-83.23
11
175.48
21
-83.23
0
LINE
8
BLACK
6
CONTINUOUS
10
175.48
20
-83.23
11
175.498
21
-83.2373
0
LINE
8
BLACK
6
CONTINUOUS
10
175.498
20
-83.2373
11
175.505
21
-83.255
0
LINE
8
BLACK
6
CONTINUOUS
10
175.505
20
-83.255
11
175.505
21
-87.755
0
LINE
8
BLACK
6
CONTINUOUS
10
175.505
20
-87.755
11
175.498
21
-87.7727
0
LINE
8
BLACK
6
CONTINUOUS
10
175.498
20
-87.7727
11
175.48
21
-87.78
0
LINE
8
BLACK
6
CONTINUOUS
10
175.48
20
-87.78
11
175.43
21
-87.78
0
LINE
8
BLACK
6
CONTINUOUS
10
175.43
20
-87.78
11
175.448
21
-87.7873
0
LINE
8
BLACK
6
CONTINUOUS
10
175.448
20
-87.7873
11
175.455
21
-87.805
0
LINE
8
BLACK
6
CONTINUOUS
10
175.455
20
-87.805
11
175.455
21
-92.305
0
LINE
8
BLACK
6
CONTINUOUS
10
175.455
20
-92.305
11
175.448
21
-92.3227
0
LINE
8
BLACK
6
CONTINUOUS
10
175.448
20
-92.3227
11
175.43
21
-92.33
0
LINE
8
BLACK
6
CONTINUOUS
10
175.43
20
-92.33
11
170.58
21
-92.33
0
LINE
8
BLACK
6
CONTINUOUS
10
170.58
20
-92.33
11
170.562
21
-92.3227
0
LINE
8
BLACK
6
CONTINUOUS
10
170.605
20
-87.83
11
170.605
21
-92.28
0
LINE
8
BLACK
6
CONTINUOUS
10
170.605
20
-92.28
11
175.405
21
-92.28
0
LINE
8
BLACK
6
CONTINUOUS
10
175.405
20
-92.28
11
175.405
21
-87.83
0
LINE
8
BLACK
6
CONTINUOUS
10
175.405
20
-87.83
11
170.605
21
-87.83
0
LINE
8
BLACK
6
CONTINUOUS
10
170.655
20
-83.28
11
170.655
21
-87.73
0
LINE
8
BLACK
6
CONTINUOUS
10
170.655
20
-87.73
11
175.455
21
-87.73
0
LINE
8
BLACK
6
CONTINUOUS
10
175.455
20
-87.73
11
175.455
21
-83.28
0
LINE
8
BLACK
6
CONTINUOUS
10
175.455
20
-83.28
11
170.655
21
-83.28
0
LINE
8
BLACK
6
CONTINUOUS
10
142.622
20
-85.8677
11
142.615
21
-85.85
0
LINE
8
BLACK
6
CONTINUOUS
10
142.615
20
-85.85
11
142.615
21
-83.35
0
LINE
8
BLACK
6
CONTINUOUS
10
142.615
20
-83.35
11
142.622
21
-83.3323
0
LINE
8
BLACK
6
CONTINUOUS
10
142.622
20
-83.3323
11
142.64
21
-83.325
0
LINE
8
BLACK
6
CONTINUOUS
10
142.64
20
-83.325
11
152.36
21
-83.325
0
LINE
8
BLACK
6
CONTINUOUS
10
152.36
20
-83.325
11
152.378
21
-83.3323
0
LINE
8
BLACK
6
CONTINUOUS
10
152.378
20
-83.3323
11
152.385
21
-83.35
0
LINE
8
BLACK
6
CONTINUOUS
10
152.385
20
-83.35
11
152.385
21
-85.85
0
LINE
8
BLACK
6
CONTINUOUS
10
152.385
20
-85.85
11
152.378
21
-85.8677
0
LINE
8
BLACK
6
CONTINUOUS
10
152.378
20
-85.8677
11
152.36
21
-85.875
0
LINE
8
BLACK
6
CONTINUOUS
10
152.36
20
-85.875
11
142.64
21
-85.875
0
LINE
8
BLACK
6
CONTINUOUS
10
142.64
20
-85.875
11
142.622
21
-85.8677
0
LINE
8
BLACK
6
CONTINUOUS
10
142.665
20
-83.375
11
142.665
21
-85.825
0
LINE
8
BLACK
6
CONTINUOUS
10
142.665
20
-85.825
11
152.335
21
-85.825
0
LINE
8
BLACK
6
CONTINUOUS
10
152.335
20
-85.825
11
152.335
21
-83.375
0
LINE
8
BLACK
6
CONTINUOUS
10
152.335
20
-83.375
11
142.665
21
-83.375
0
LINE
8
BLACK
6
CONTINUOUS
10
170.587
20
-83.1977
11
170.58
21
-83.18
0
LINE
8
BLACK
6
CONTINUOUS
10
170.58
20
-83.18
11
170.58
21
-78.68
0
LINE
8
BLACK
6
CONTINUOUS
10
170.58
20
-78.68
11
170.587
21
-78.6623
0
LINE
8
BLACK
6
CONTINUOUS
10
170.587
20
-78.6623
11
170.605
21
-78.655
0
LINE
8
BLACK
6
CONTINUOUS
10
170.605
20
-78.655
11
175.455
21
-78.655
0
LINE
8
BLACK
6
CONTINUOUS
10
175.455
20
-78.655
11
175.473
21
-78.6623
0
LINE
8
BLACK
6
CONTINUOUS
10
175.473
20
-78.6623
11
175.48
21
-78.68
0
LINE
8
BLACK
6
CONTINUOUS
10
175.48
20
-78.68
11
175.48
21
-83.18
0
LINE
8
BLACK
6
CONTINUOUS
10
175.48
20
-83.18
11
175.473
21
-83.1977
0
LINE
8
BLACK
6
CONTINUOUS
10
175.473
20
-83.1977
11
175.455
21
-83.205
0
LINE
8
BLACK
6
CONTINUOUS
10
175.455
20
-83.205
11
170.605
21
-83.205
0
LINE
8
BLACK
6
CONTINUOUS
10
170.605
20
-83.205
11
170.587
21
-83.1977
0
LINE
8
BLACK
6
CONTINUOUS
10
170.63
20
-78.705
11
170.63
21
-83.155
0
LINE
8
BLACK
6
CONTINUOUS
10
170.63
20
-83.155
11
175.43
21
-83.155
0
LINE
8
BLACK
6
CONTINUOUS
10
175.43
20
-83.155
11
175.43
21
-78.705
0
LINE
8
BLACK
6
CONTINUOUS
10
175.43
20
-78.705
11
170.63
21
-78.705
0
LINE
8
BLACK
6
CONTINUOUS
10
151.797
20
-77.5277
11
151.79
21
-77.51
0
LINE
8
BLACK
6
CONTINUOUS
10
151.79
20
-77.51
11
151.79
21
-74.41
0
LINE
8
BLACK
6
CONTINUOUS
10
151.79
20
-74.41
11
151.797
21
-74.3923
0
LINE
8
BLACK
6
CONTINUOUS
10
151.797
20
-74.3923
11
151.815
21
-74.385
0
LINE
8
BLACK
6
CONTINUOUS
10
151.815
20
-74.385
11
156.665
21
-74.385
0
LINE
8
BLACK
6
CONTINUOUS
10
156.665
20
-74.385
11
156.683
21
-74.3923
0
LINE
8
BLACK
6
CONTINUOUS
10
156.683
20
-74.3923
11
156.69
21
-74.41
0
LINE
8
BLACK
6
CONTINUOUS
10
156.69
20
-74.41
11
156.69
21
-77.51
0
LINE
8
BLACK
6
CONTINUOUS
10
156.69
20
-77.51
11
156.683
21
-77.5277
0
LINE
8
BLACK
6
CONTINUOUS
10
156.683
20
-77.5277
11
156.665
21
-77.535
0
LINE
8
BLACK
6
CONTINUOUS
10
156.665
20
-77.535
11
151.815
21
-77.535
0
LINE
8
BLACK
6
CONTINUOUS
10
151.815
20
-77.535
11
151.797
21
-77.5277
0
LINE
8
BLACK
6
CONTINUOUS
10
151.84
20
-74.435
11
151.84
21
-77.485
0
LINE
8
BLACK
6
CONTINUOUS
10
151.84
20
-77.485
11
156.64
21
-77.485
0
LINE
8
BLACK
6
CONTINUOUS
10
156.64
20
-77.485
11
156.64
21
-74.435
0
LINE
8
BLACK
6
CONTINUOUS
10
156.64
20
-74.435
11
151.84
21
-74.435
0
LINE
8
BLACK
6
CONTINUOUS
10
133.757
20
-77.4927
11
133.75
21
-77.475
0
LINE
8
BLACK
6
CONTINUOUS
10
133.75
20
-77.475
11
133.75
21
-70.175
0
LINE
8
BLACK
6
CONTINUOUS
10
133.75
20
-70.175
11
133.757
21
-70.1573
0
LINE
8
BLACK
6
CONTINUOUS
10
133.757
20
-70.1573
11
133.775
21
-70.15
0
LINE
8
BLACK
6
CONTINUOUS
10
133.775
20
-70.15
11
143.575
21
-70.15
0
LINE
8
BLACK
6
CONTINUOUS
10
143.575
20
-70.15
11
143.593
21
-70.1573
0
LINE
8
BLACK
6
CONTINUOUS
10
143.593
20
-70.1573
11
143.6
21
-70.175
0
LINE
8
BLACK
6
CONTINUOUS
10
143.6
20
-70.175
11
143.6
21
-77.475
0
LINE
8
BLACK
6
CONTINUOUS
10
143.6
20
-77.475
11
143.593
21
-77.4927
0
LINE
8
BLACK
6
CONTINUOUS
10
143.593
20
-77.4927
11
143.575
21
-77.5
0
LINE
8
BLACK
6
CONTINUOUS
10
143.575
20
-77.5
11
133.775
21
-77.5
0
LINE
8
BLACK
6
CONTINUOUS
10
133.775
20
-77.5
11
133.757
21
-77.4927
0
LINE
8
BLACK
6
CONTINUOUS
10
133.8
20
-70.2
11
133.8
21
-77.45
0
LINE
8
BLACK
6
CONTINUOUS
10
133.8
20
-77.45
11
143.55
21
-77.45
0
LINE
8
BLACK
6
CONTINUOUS
10
143.55
20
-77.45
11
143.55
21
-70.2
0
LINE
8
BLACK
6
CONTINUOUS
10
143.55
20
-70.2
11
133.8
21
-70.2
0
LINE
8
BLACK
6
CONTINUOUS
10
152.252
20
-71.1477
11
152.245
21
-71.13
0
LINE
8
BLACK
6
CONTINUOUS
10
152.245
20
-71.13
11
152.245
21
-46.2
0
LINE
8
BLACK
6
CONTINUOUS
10
152.245
20
-46.2
11
152.252
21
-46.1823
0
LINE
8
BLACK
6
CONTINUOUS
10
152.252
20
-46.1823
11
152.27
21
-46.175
0
LINE
8
BLACK
6
CONTINUOUS
10
152.27
20
-46.175
11
167.33
21
-46.175
0
LINE
8
BLACK
6
CONTINUOUS
10
167.33
20
-46.175
11
167.348
21
-46.1823
0
LINE
8
BLACK
6
CONTINUOUS
10
167.348
20
-46.1823
11
167.355
21
-46.2
0
LINE
8
BLACK
6
CONTINUOUS
10
167.355
20
-46.2
11
167.355
21
-71.13
0
LINE
8
BLACK
6
CONTINUOUS
10
167.355
20
-71.13
11
167.348
21
-71.1477
0
LINE
8
BLACK
6
CONTINUOUS
10
167.348
20
-71.1477
11
167.33
21
-71.155
0
LINE
8
BLACK
6
CONTINUOUS
10
167.33
20
-71.155
11
152.27
21
-71.155
0
LINE
8
BLACK
6
CONTINUOUS
10
152.27
20
-71.155
11
152.252
21
-71.1477
0
LINE
8
BLACK
6
CONTINUOUS
10
152.295
20
-46.225
11
152.295
21
-71.105
0
LINE
8
BLACK
6
CONTINUOUS
10
152.295
20
-71.105
11
167.305
21
-71.105
0
LINE
8
BLACK
6
CONTINUOUS
10
167.305
20
-71.105
11
167.305
21
-46.225
0
LINE
8
BLACK
6
CONTINUOUS
10
167.305
20
-46.225
11
152.295
21
-46.225
0
LINE
8
BLACK
6
CONTINUOUS
10
167.657
20
-71.0677
11
167.65
21
-71.05
0
LINE
8
BLACK
6
CONTINUOUS
10
167.65
20
-71.05
11
167.65
21
-55.4
0
LINE
8
BLACK
6
CONTINUOUS
10
167.65
20
-55.4
11
167.657
21
-55.3823
0
LINE
8
BLACK
6
CONTINUOUS
10
167.657
20
-55.3823
11
167.675
21
-55.375
0
LINE
8
BLACK
6
CONTINUOUS
10
167.675
20
-55.375
11
176.175
21
-55.375
0
LINE
8
BLACK
6
CONTINUOUS
10
176.175
20
-55.375
11
176.193
21
-55.3823
0
LINE
8
BLACK
6
CONTINUOUS
10
176.193
20
-55.3823
11
176.2
21
-55.4
0
LINE
8
BLACK
6
CONTINUOUS
10
176.2
20
-55.4
11
176.2
21
-71.05
0
LINE
8
BLACK
6
CONTINUOUS
10
176.2
20
-71.05
11
176.193
21
-71.0677
0
LINE
8
BLACK
6
CONTINUOUS
10
176.193
20
-71.0677
11
176.175
21
-71.075
0
LINE
8
BLACK
6
CONTINUOUS
10
176.175
20
-71.075
11
167.675
21
-71.075
0
LINE
8
BLACK
6
CONTINUOUS
10
167.675
20
-71.075
11
167.657
21
-71.0677
0
LINE
8
BLACK
6
CONTINUOUS
10
167.7
20
-55.425
11
167.7
21
-71.025
0
LINE
8
BLACK
6
CONTINUOUS
10
167.7
20
-71.025
11
176.15
21
-71.025
0
LINE
8
BLACK
6
CONTINUOUS
10
176.15
20
-71.025
11
176.15
21
-55.425
0
LINE
8
BLACK
6
CONTINUOUS
10
176.15
20
-55.425
11
167.7
21
-55.425
0
LINE
8
BLACK
6
CONTINUOUS
10
136.245
20
-56.43
11
136.245
21
-64.93
0
LINE
8
BLACK
6
CONTINUOUS
10
136.245
20
-64.93
11
136.238
21
-64.9477
0
LINE
8
BLACK
6
CONTINUOUS
10
136.238
20
-64.9477
11
136.22
21
-64.955
0
LINE
8
BLACK
6
CONTINUOUS
10
136.22
20
-64.955
11
121.72
21
-64.955
0
LINE
8
BLACK
6
CONTINUOUS
10
121.72
20
-64.955
11
121.702
21
-64.9477
0
LINE
8
BLACK
6
CONTINUOUS
10
121.702
20
-64.9477
11
121.695
21
-64.93
0
LINE
8
BLACK
6
CONTINUOUS
10
121.695
20
-64.93
11
121.695
21
-56.43
0
LINE
8
BLACK
6
CONTINUOUS
10
121.695
20
-56.43
11
121.702
21
-56.4123
0
LINE
8
BLACK
6
CONTINUOUS
10
121.702
20
-56.4123
11
121.72
21
-56.405
0
LINE
8
BLACK
6
CONTINUOUS
10
121.72
20
-56.405
11
124.195
21
-56.405
0
LINE
8
BLACK
6
CONTINUOUS
10
124.195
20
-56.405
11
124.195
21
-48.18
0
LINE
8
BLACK
6
CONTINUOUS
10
124.195
20
-48.18
11
124.202
21
-48.1623
0
LINE
8
BLACK
6
CONTINUOUS
10
124.202
20
-48.1623
11
124.22
21
-48.155
0
LINE
8
BLACK
6
CONTINUOUS
10
124.22
20
-48.155
11
133.72
21
-48.155
0
LINE
8
BLACK
6
CONTINUOUS
10
133.72
20
-48.155
11
133.738
21
-48.1623
0
LINE
8
BLACK
6
CONTINUOUS
10
133.738
20
-48.1623
11
133.745
21
-48.18
0
LINE
8
BLACK
6
CONTINUOUS
10
133.745
20
-48.18
11
133.745
21
-56.405
0
LINE
8
BLACK
6
CONTINUOUS
10
133.745
20
-56.405
11
136.22
21
-56.405
0
LINE
8
BLACK
6
CONTINUOUS
10
136.22
20
-56.405
11
136.238
21
-56.4123
0
LINE
8
BLACK
6
CONTINUOUS
10
136.238
20
-56.4123
11
136.245
21
-56.43
0
LINE
8
BLACK
6
CONTINUOUS
10
121.745
20
-64.905
11
136.195
21
-64.905
0
LINE
8
BLACK
6
CONTINUOUS
10
136.195
20
-64.905
11
136.195
21
-56.455
0
LINE
8
BLACK
6
CONTINUOUS
10
136.195
20
-56.455
11
133.72
21
-56.455
0
LINE
8
BLACK
6
CONTINUOUS
10
133.72
20
-56.455
11
133.702
21
-56.4477
0
LINE
8
BLACK
6
CONTINUOUS
10
133.702
20
-56.4477
11
133.695
21
-56.43
0
LINE
8
BLACK
6
CONTINUOUS
10
133.695
20
-56.43
11
133.695
21
-48.205
0
LINE
8
BLACK
6
CONTINUOUS
10
133.695
20
-48.205
11
124.245
21
-48.205
0
LINE
8
BLACK
6
CONTINUOUS
10
124.245
20
-48.205
11
124.245
21
-56.43
0
LINE
8
BLACK
6
CONTINUOUS
10
124.245
20
-56.43
11
124.238
21
-56.4477
0
LINE
8
BLACK
6
CONTINUOUS
10
124.238
20
-56.4477
11
124.22
21
-56.455
0
LINE
8
BLACK
6
CONTINUOUS
10
124.22
20
-56.455
11
121.745
21
-56.455
0
LINE
8
BLACK
6
CONTINUOUS
10
121.745
20
-56.455
11
121.745
21
-64.905
0
LINE
8
BLACK
6
CONTINUOUS
10
151.625
20
-56.325
11
151.625
21
-64.825
0
LINE
8
BLACK
6
CONTINUOUS
10
151.625
20
-64.825
11
151.618
21
-64.8427
0
LINE
8
BLACK
6
CONTINUOUS
10
151.618
20
-64.8427
11
151.6
21
-64.85
0
LINE
8
BLACK
6
CONTINUOUS
10
151.6
20
-64.85
11
137.1
21
-64.85
0
LINE
8
BLACK
6
CONTINUOUS
10
137.1
20
-64.85
11
137.082
21
-64.8427
0
LINE
8
BLACK
6
CONTINUOUS
10
137.082
20
-64.8427
11
137.075
21
-64.825
0
LINE
8
BLACK
6
CONTINUOUS
10
137.075
20
-64.825
11
137.075
21
-56.325
0
LINE
8
BLACK
6
CONTINUOUS
10
137.075
20
-56.325
11
137.082
21
-56.3073
0
LINE
8
BLACK
6
CONTINUOUS
10
137.082
20
-56.3073
11
137.1
21
-56.3
0
LINE
8
BLACK
6
CONTINUOUS
10
137.1
20
-56.3
11
139.575
21
-56.3
0
LINE
8
BLACK
6
CONTINUOUS
10
139.575
20
-56.3
11
139.575
21
-48.075
0
LINE
8
BLACK
6
CONTINUOUS
10
139.575
20
-48.075
11
139.582
21
-48.0573
0
LINE
8
BLACK
6
CONTINUOUS
10
139.582
20
-48.0573
11
139.6
21
-48.05
0
LINE
8
BLACK
6
CONTINUOUS
10
139.6
20
-48.05
11
149.1
21
-48.05
0
LINE
8
BLACK
6
CONTINUOUS
10
149.1
20
-48.05
11
149.118
21
-48.0573
0
LINE
8
BLACK
6
CONTINUOUS
10
149.118
20
-48.0573
11
149.125
21
-48.075
0
LINE
8
BLACK
6
CONTINUOUS
10
149.125
20
-48.075
11
149.125
21
-56.3
0
LINE
8
BLACK
6
CONTINUOUS
10
149.125
20
-56.3
11
151.6
21
-56.3
0
LINE
8
BLACK
6
CONTINUOUS
10
151.6
20
-56.3
11
151.618
21
-56.3073
0
LINE
8
BLACK
6
CONTINUOUS
10
151.618
20
-56.3073
11
151.625
21
-56.325
0
LINE
8
BLACK
6
CONTINUOUS
10
137.125
20
-64.8
11
151.575
21
-64.8
0
LINE
8
BLACK
6
CONTINUOUS
10
151.575
20
-64.8
11
151.575
21
-56.35
0
LINE
8
BLACK
6
CONTINUOUS
10
151.575
20
-56.35
11
149.1
21
-56.35
0
LINE
8
BLACK
6
CONTINUOUS
10
149.1
20
-56.35
11
149.082
21
-56.3427
0
LINE
8
BLACK
6
CONTINUOUS
10
149.082
20
-56.3427
11
149.075
21
-56.325
0
LINE
8
BLACK
6
CONTINUOUS
10
149.075
20
-56.325
11
149.075
21
-48.1
0
LINE
8
BLACK
6
CONTINUOUS
10
149.075
20
-48.1
11
139.625
21
-48.1
0
LINE
8
BLACK
6
CONTINUOUS
10
139.625
20
-48.1
11
139.625
21
-56.325
0
LINE
8
BLACK
6
CONTINUOUS
10
139.625
20
-56.325
11
139.618
21
-56.3427
0
LINE
8
BLACK
6
CONTINUOUS
10
139.618
20
-56.3427
11
139.6
21
-56.35
0
LINE
8
BLACK
6
CONTINUOUS
10
139.6
20
-56.35
11
137.125
21
-56.35
0
LINE
8
BLACK
6
CONTINUOUS
10
137.125
20
-56.35
11
137.125
21
-64.8
0
LINE
8
BLACK
6
CONTINUOUS
10
133.461
20
-102.458
11
133.555
21
-102.106
0
LINE
8
BLACK
6
CONTINUOUS
10
133.555
20
-102.106
11
133.685
21
-101.767
0
LINE
8
BLACK
6
CONTINUOUS
10
133.685
20
-101.767
11
133.851
21
-101.442
0
LINE
8
BLACK
6
CONTINUOUS
10
133.851
20
-101.442
11
134.049
21
-101.137
0
LINE
8
BLACK
6
CONTINUOUS
10
134.049
20
-101.137
11
134.278
21
-100.855
0
LINE
8
BLACK
6
CONTINUOUS
10
134.278
20
-100.855
11
134.535
21
-100.598
0
LINE
8
BLACK
6
CONTINUOUS
10
134.535
20
-100.598
11
134.817
21
-100.369
0
LINE
8
BLACK
6
CONTINUOUS
10
134.817
20
-100.369
11
135.123
21
-100.171
0
LINE
8
BLACK
6
CONTINUOUS
10
135.123
20
-100.171
11
135.447
21
-100.005
0
LINE
8
BLACK
6
CONTINUOUS
10
135.447
20
-100.005
11
135.786
21
-99.8751
0
LINE
8
BLACK
6
CONTINUOUS
10
135.786
20
-99.8751
11
136.138
21
-99.7809
0
LINE
8
BLACK
6
CONTINUOUS
10
136.138
20
-99.7809
11
136.497
21
-99.724
0
LINE
8
BLACK
6
CONTINUOUS
10
136.497
20
-99.724
11
136.86
21
-99.705
0
LINE
8
BLACK
6
CONTINUOUS
10
136.86
20
-99.705
11
137.223
21
-99.724
0
LINE
8
BLACK
6
CONTINUOUS
10
137.223
20
-99.724
11
137.582
21
-99.7809
0
LINE
8
BLACK
6
CONTINUOUS
10
137.582
20
-99.7809
11
137.934
21
-99.8751
0
LINE
8
BLACK
6
CONTINUOUS
10
137.934
20
-99.8751
11
138.273
21
-100.005
0
LINE
8
BLACK
6
CONTINUOUS
10
138.273
20
-100.005
11
138.597
21
-100.171
0
LINE
8
BLACK
6
CONTINUOUS
10
138.597
20
-100.171
11
138.903
21
-100.369
0
LINE
8
BLACK
6
CONTINUOUS
10
138.903
20
-100.369
11
139.185
21
-100.598
0
LINE
8
BLACK
6
CONTINUOUS
10
139.185
20
-100.598
11
139.442
21
-100.855
0
LINE
8
BLACK
6
CONTINUOUS
10
139.442
20
-100.855
11
139.671
21
-101.137
0
LINE
8
BLACK
6
CONTINUOUS
10
139.671
20
-101.137
11
139.869
21
-101.442
0
LINE
8
BLACK
6
CONTINUOUS
10
139.869
20
-101.442
11
140.035
21
-101.767
0
LINE
8
BLACK
6
CONTINUOUS
10
140.035
20
-101.767
11
140.165
21
-102.106
0
LINE
8
BLACK
6
CONTINUOUS
10
140.165
20
-102.106
11
140.259
21
-102.458
0
LINE
8
BLACK
6
CONTINUOUS
10
140.259
20
-102.458
11
140.316
21
-102.817
0
LINE
8
BLACK
6
CONTINUOUS
10
140.316
20
-102.817
11
140.335
21
-103.18
0
LINE
8
BLACK
6
CONTINUOUS
10
140.335
20
-103.18
11
140.316
21
-103.543
0
LINE
8
BLACK
6
CONTINUOUS
10
140.316
20
-103.543
11
140.259
21
-103.902
0
LINE
8
BLACK
6
CONTINUOUS
10
140.259
20
-103.902
11
140.165
21
-104.254
0
LINE
8
BLACK
6
CONTINUOUS
10
140.165
20
-104.254
11
140.035
21
-104.593
0
LINE
8
BLACK
6
CONTINUOUS
10
140.035
20
-104.593
11
139.869
21
-104.917
0
LINE
8
BLACK
6
CONTINUOUS
10
139.869
20
-104.917
11
139.671
21
-105.223
0
LINE
8
BLACK
6
CONTINUOUS
10
139.671
20
-105.223
11
139.442
21
-105.505
0
LINE
8
BLACK
6
CONTINUOUS
10
139.442
20
-105.505
11
139.185
21
-105.762
0
LINE
8
BLACK
6
CONTINUOUS
10
139.185
20
-105.762
11
138.903
21
-105.991
0
LINE
8
BLACK
6
CONTINUOUS
10
138.903
20
-105.991
11
138.597
21
-106.189
0
LINE
8
BLACK
6
CONTINUOUS
10
138.597
20
-106.189
11
138.273
21
-106.355
0
LINE
8
BLACK
6
CONTINUOUS
10
138.273
20
-106.355
11
137.934
21
-106.485
0
LINE
8
BLACK
6
CONTINUOUS
10
137.934
20
-106.485
11
137.582
21
-106.579
0
LINE
8
BLACK
6
CONTINUOUS
10
137.582
20
-106.579
11
137.223
21
-106.636
0
LINE
8
BLACK
6
CONTINUOUS
10
137.223
20
-106.636
11
136.86
21
-106.655
0
LINE
8
BLACK
6
CONTINUOUS
10
136.86
20
-106.655
11
136.497
21
-106.636
0
LINE
8
BLACK
6
CONTINUOUS
10
136.497
20
-106.636
11
136.138
21
-106.579
0
LINE
8
BLACK
6
CONTINUOUS
10
136.138
20
-106.579
11
135.786
21
-106.485
0
LINE
8
BLACK
6
CONTINUOUS
10
135.786
20
-106.485
11
135.447
21
-106.355
0
LINE
8
BLACK
6
CONTINUOUS
10
135.447
20
-106.355
11
135.123
21
-106.189
0
LINE
8
BLACK
6
CONTINUOUS
10
135.123
20
-106.189
11
134.817
21
-105.991
0
LINE
8
BLACK
6
CONTINUOUS
10
134.817
20
-105.991
11
134.535
21
-105.762
0
LINE
8
BLACK
6
CONTINUOUS
10
134.535
20
-105.762
11
134.278
21
-105.505
0
LINE
8
BLACK
6
CONTINUOUS
10
134.278
20
-105.505
11
134.049
21
-105.223
0
LINE
8
BLACK
6
CONTINUOUS
10
134.049
20
-105.223
11
133.851
21
-104.917
0
LINE
8
BLACK
6
CONTINUOUS
10
133.851
20
-104.917
11
133.685
21
-104.593
0
LINE
8
BLACK
6
CONTINUOUS
10
133.685
20
-104.593
11
133.555
21
-104.254
0
LINE
8
BLACK
6
CONTINUOUS
10
133.555
20
-104.254
11
133.461
21
-103.902
0
LINE
8
BLACK
6
CONTINUOUS
10
133.461
20
-103.902
11
133.404
21
-103.543
0
LINE
8
BLACK
6
CONTINUOUS
10
133.404
20
-103.543
11
133.385
21
-103.18
0
LINE
8
BLACK
6
CONTINUOUS
10
133.385
20
-103.18
11
133.386
21
-103.168
0
LINE
8
BLACK
6
CONTINUOUS
10
133.386
20
-103.168
11
133.404
21
-102.817
0
LINE
8
BLACK
6
CONTINUOUS
10
133.404
20
-102.817
11
133.461
21
-102.458
0
LINE
8
BLACK
6
CONTINUOUS
10
133.507
20
-103.905
11
133.605
21
-104.263
0
LINE
8
BLACK
6
CONTINUOUS
10
133.605
20
-104.263
11
133.741
21
-104.608
0
LINE
8
BLACK
6
CONTINUOUS
10
133.741
20
-104.608
11
133.914
21
-104.936
0
LINE
8
BLACK
6
CONTINUOUS
10
133.914
20
-104.936
11
134.121
21
-105.244
0
LINE
8
BLACK
6
CONTINUOUS
10
134.121
20
-105.244
11
134.36
21
-105.528
0
LINE
8
BLACK
6
CONTINUOUS
10
134.36
20
-105.528
11
134.628
21
-105.784
0
LINE
8
BLACK
6
CONTINUOUS
10
134.628
20
-105.784
11
134.922
21
-106.01
0
LINE
8
BLACK
6
CONTINUOUS
10
134.922
20
-106.01
11
135.239
21
-106.203
0
LINE
8
BLACK
6
CONTINUOUS
10
135.239
20
-106.203
11
135.575
21
-106.36
0
LINE
8
BLACK
6
CONTINUOUS
10
135.575
20
-106.36
11
135.926
21
-106.48
0
LINE
8
BLACK
6
CONTINUOUS
10
135.926
20
-106.48
11
136.288
21
-106.562
0
LINE
8
BLACK
6
CONTINUOUS
10
136.288
20
-106.562
11
136.657
21
-106.604
0
LINE
8
BLACK
6
CONTINUOUS
10
136.657
20
-106.604
11
137.028
21
-106.606
0
LINE
8
BLACK
6
CONTINUOUS
10
137.028
20
-106.606
11
137.397
21
-106.568
0
LINE
8
BLACK
6
CONTINUOUS
10
137.397
20
-106.568
11
137.759
21
-106.49
0
LINE
8
BLACK
6
CONTINUOUS
10
137.759
20
-106.49
11
138.112
21
-106.374
0
LINE
8
BLACK
6
CONTINUOUS
10
138.112
20
-106.374
11
138.449
21
-106.22
0
LINE
8
BLACK
6
CONTINUOUS
10
138.449
20
-106.22
11
138.768
21
-106.03
0
LINE
8
BLACK
6
CONTINUOUS
10
138.768
20
-106.03
11
139.065
21
-105.808
0
LINE
8
BLACK
6
CONTINUOUS
10
139.065
20
-105.808
11
139.336
21
-105.554
0
LINE
8
BLACK
6
CONTINUOUS
10
139.336
20
-105.554
11
139.578
21
-105.273
0
LINE
8
BLACK
6
CONTINUOUS
10
139.578
20
-105.273
11
139.788
21
-104.967
0
LINE
8
BLACK
6
CONTINUOUS
10
139.788
20
-104.967
11
139.964
21
-104.64
0
LINE
8
BLACK
6
CONTINUOUS
10
139.964
20
-104.64
11
140.103
21
-104.297
0
LINE
8
BLACK
6
CONTINUOUS
10
140.103
20
-104.297
11
140.205
21
-103.94
0
LINE
8
BLACK
6
CONTINUOUS
10
140.205
20
-103.94
11
140.267
21
-103.574
0
LINE
8
BLACK
6
CONTINUOUS
10
140.267
20
-103.574
11
140.29
21
-103.204
0
LINE
8
BLACK
6
CONTINUOUS
10
140.29
20
-103.204
11
140.29
21
-103.18
0
LINE
8
BLACK
6
CONTINUOUS
10
140.29
20
-103.18
11
140.27
21
-102.81
0
LINE
8
BLACK
6
CONTINUOUS
10
140.27
20
-102.81
11
140.21
21
-102.443
0
LINE
8
BLACK
6
CONTINUOUS
10
140.21
20
-102.443
11
140.111
21
-102.086
0
LINE
8
BLACK
6
CONTINUOUS
10
140.111
20
-102.086
11
139.974
21
-101.741
0
LINE
8
BLACK
6
CONTINUOUS
10
139.974
20
-101.741
11
139.8
21
-101.413
0
LINE
8
BLACK
6
CONTINUOUS
10
139.8
20
-101.413
11
139.592
21
-101.106
0
LINE
8
BLACK
6
CONTINUOUS
10
139.592
20
-101.106
11
139.352
21
-100.823
0
LINE
8
BLACK
6
CONTINUOUS
10
139.352
20
-100.823
11
139.083
21
-100.568
0
LINE
8
BLACK
6
CONTINUOUS
10
139.083
20
-100.568
11
138.788
21
-100.343
0
LINE
8
BLACK
6
CONTINUOUS
10
138.788
20
-100.343
11
138.47
21
-100.151
0
LINE
8
BLACK
6
CONTINUOUS
10
138.47
20
-100.151
11
138.134
21
-99.9953
0
LINE
8
BLACK
6
CONTINUOUS
10
138.134
20
-99.9953
11
137.782
21
-99.8763
0
LINE
8
BLACK
6
CONTINUOUS
10
137.782
20
-99.8763
11
137.42
21
-99.796
0
LINE
8
BLACK
6
CONTINUOUS
10
137.42
20
-99.796
11
137.051
21
-99.7553
0
LINE
8
BLACK
6
CONTINUOUS
10
137.051
20
-99.7553
11
136.68
21
-99.7547
0
LINE
8
BLACK
6
CONTINUOUS
10
136.68
20
-99.7547
11
136.312
21
-99.7941
0
LINE
8
BLACK
6
CONTINUOUS
10
136.312
20
-99.7941
11
135.949
21
-99.8731
0
LINE
8
BLACK
6
CONTINUOUS
10
135.949
20
-99.8731
11
135.597
21
-99.9908
0
LINE
8
BLACK
6
CONTINUOUS
10
135.597
20
-99.9908
11
135.26
21
-100.146
0
LINE
8
BLACK
6
CONTINUOUS
10
135.26
20
-100.146
11
134.942
21
-100.336
0
LINE
8
BLACK
6
CONTINUOUS
10
134.942
20
-100.336
11
134.646
21
-100.56
0
LINE
8
BLACK
6
CONTINUOUS
10
134.646
20
-100.56
11
134.376
21
-100.815
0
LINE
8
BLACK
6
CONTINUOUS
10
134.376
20
-100.815
11
134.135
21
-101.097
0
LINE
8
BLACK
6
CONTINUOUS
10
134.135
20
-101.097
11
133.926
21
-101.403
0
LINE
8
BLACK
6
CONTINUOUS
10
133.926
20
-101.403
11
133.751
21
-101.73
0
LINE
8
BLACK
6
CONTINUOUS
10
133.751
20
-101.73
11
133.613
21
-102.075
0
LINE
8
BLACK
6
CONTINUOUS
10
133.613
20
-102.075
11
133.513
21
-102.432
0
LINE
8
BLACK
6
CONTINUOUS
10
133.513
20
-102.432
11
133.451
21
-102.798
0
LINE
8
BLACK
6
CONTINUOUS
10
133.451
20
-102.798
11
133.43
21
-103.168
0
LINE
8
BLACK
6
CONTINUOUS
10
133.43
20
-103.168
11
133.449
21
-103.539
0
LINE
8
BLACK
6
CONTINUOUS
10
133.449
20
-103.539
11
133.507
21
-103.905
0
LINE
8
BLACK
6
CONTINUOUS
10
158.539
20
-76.6198
11
158.602
21
-76.2919
0
LINE
8
BLACK
6
CONTINUOUS
10
158.602
20
-76.2919
11
158.705
21
-75.974
0
LINE
8
BLACK
6
CONTINUOUS
10
158.705
20
-75.974
11
158.844
21
-75.6707
0
LINE
8
BLACK
6
CONTINUOUS
10
158.844
20
-75.6707
11
159.02
21
-75.3864
0
LINE
8
BLACK
6
CONTINUOUS
10
159.02
20
-75.3864
11
159.228
21
-75.1252
0
LINE
8
BLACK
6
CONTINUOUS
10
159.228
20
-75.1252
11
159.466
21
-74.8909
0
LINE
8
BLACK
6
CONTINUOUS
10
159.466
20
-74.8909
11
159.73
21
-74.6869
0
LINE
8
BLACK
6
CONTINUOUS
10
159.73
20
-74.6869
11
160.017
21
-74.5161
0
LINE
8
BLACK
6
CONTINUOUS
10
160.017
20
-74.5161
11
160.323
21
-74.381
0
LINE
8
BLACK
6
CONTINUOUS
10
160.323
20
-74.381
11
160.642
21
-74.2837
0
LINE
8
BLACK
6
CONTINUOUS
10
160.642
20
-74.2837
11
160.971
21
-74.2254
0
LINE
8
BLACK
6
CONTINUOUS
10
160.971
20
-74.2254
11
161.305
21
-74.207
0
LINE
8
BLACK
6
CONTINUOUS
10
161.305
20
-74.207
11
161.638
21
-74.2289
0
LINE
8
BLACK
6
CONTINUOUS
10
161.638
20
-74.2289
11
161.966
21
-74.2906
0
LINE
8
BLACK
6
CONTINUOUS
10
161.966
20
-74.2906
11
162.284
21
-74.3913
0
LINE
8
BLACK
6
CONTINUOUS
10
162.284
20
-74.3913
11
162.589
21
-74.5296
0
LINE
8
BLACK
6
CONTINUOUS
10
162.589
20
-74.5296
11
162.874
21
-74.7033
0
LINE
8
BLACK
6
CONTINUOUS
10
162.874
20
-74.7033
11
163.136
21
-74.9101
0
LINE
8
BLACK
6
CONTINUOUS
10
163.136
20
-74.9101
11
163.372
21
-75.1469
0
LINE
8
BLACK
6
CONTINUOUS
10
163.372
20
-75.1469
11
163.577
21
-75.4102
0
LINE
8
BLACK
6
CONTINUOUS
10
163.577
20
-75.4102
11
163.749
21
-75.6964
0
LINE
8
BLACK
6
CONTINUOUS
10
163.749
20
-75.6964
11
163.886
21
-76.0011
0
LINE
8
BLACK
6
CONTINUOUS
10
163.886
20
-76.0011
11
163.985
21
-76.3201
0
LINE
8
BLACK
6
CONTINUOUS
10
163.985
20
-76.3201
11
164.045
21
-76.6486
0
LINE
8
BLACK
6
CONTINUOUS
10
164.045
20
-76.6486
11
164.065
21
-76.982
0
LINE
8
BLACK
6
CONTINUOUS
10
164.065
20
-76.982
11
164.064
21
-77.0401
0
LINE
8
BLACK
6
CONTINUOUS
10
164.064
20
-77.0401
11
164.037
21
-77.373
0
LINE
8
BLACK
6
CONTINUOUS
10
164.037
20
-77.373
11
163.97
21
-77.7002
0
LINE
8
BLACK
6
CONTINUOUS
10
163.97
20
-77.7002
11
163.865
21
-78.017
0
LINE
8
BLACK
6
CONTINUOUS
10
163.865
20
-78.017
11
163.722
21
-78.3189
0
LINE
8
BLACK
6
CONTINUOUS
10
163.722
20
-78.3189
11
163.544
21
-78.6013
0
LINE
8
BLACK
6
CONTINUOUS
10
163.544
20
-78.6013
11
163.333
21
-78.8603
0
LINE
8
BLACK
6
CONTINUOUS
10
163.333
20
-78.8603
11
163.092
21
-79.0921
0
LINE
8
BLACK
6
CONTINUOUS
10
163.092
20
-79.0921
11
162.826
21
-79.2934
0
LINE
8
BLACK
6
CONTINUOUS
10
162.826
20
-79.2934
11
162.537
21
-79.4611
0
LINE
8
BLACK
6
CONTINUOUS
10
162.537
20
-79.4611
11
162.23
21
-79.5929
0
LINE
8
BLACK
6
CONTINUOUS
10
162.23
20
-79.5929
11
161.91
21
-79.687
0
LINE
8
BLACK
6
CONTINUOUS
10
161.91
20
-79.687
11
161.58
21
-79.7418
0
LINE
8
BLACK
6
CONTINUOUS
10
161.58
20
-79.7418
11
161.246
21
-79.7567
0
LINE
8
BLACK
6
CONTINUOUS
10
161.246
20
-79.7567
11
160.913
21
-79.7313
0
LINE
8
BLACK
6
CONTINUOUS
10
160.913
20
-79.7313
11
160.586
21
-79.6662
0
LINE
8
BLACK
6
CONTINUOUS
10
160.586
20
-79.6662
11
160.268
21
-79.5621
0
LINE
8
BLACK
6
CONTINUOUS
10
160.268
20
-79.5621
11
159.966
21
-79.4207
0
LINE
8
BLACK
6
CONTINUOUS
10
159.966
20
-79.4207
11
159.682
21
-79.244
0
LINE
8
BLACK
6
CONTINUOUS
10
159.682
20
-79.244
11
159.422
21
-79.0345
0
LINE
8
BLACK
6
CONTINUOUS
10
159.422
20
-79.0345
11
159.189
21
-78.7952
0
LINE
8
BLACK
6
CONTINUOUS
10
159.189
20
-78.7952
11
158.987
21
-78.5297
0
LINE
8
BLACK
6
CONTINUOUS
10
158.987
20
-78.5297
11
158.817
21
-78.2418
0
LINE
8
BLACK
6
CONTINUOUS
10
158.817
20
-78.2418
11
158.684
21
-77.9357
0
LINE
8
BLACK
6
CONTINUOUS
10
158.684
20
-77.9357
11
158.588
21
-77.6157
0
LINE
8
BLACK
6
CONTINUOUS
10
158.588
20
-77.6157
11
158.532
21
-77.2865
0
LINE
8
BLACK
6
CONTINUOUS
10
158.532
20
-77.2865
11
158.515
21
-76.9534
0
LINE
8
BLACK
6
CONTINUOUS
10
158.515
20
-76.9534
11
158.515
21
-76.9529
0
LINE
8
BLACK
6
CONTINUOUS
10
158.515
20
-76.9529
11
158.539
21
-76.6198
0
LINE
8
BLACK
6
CONTINUOUS
10
158.632
20
-77.6054
11
158.726
21
-77.9202
0
LINE
8
BLACK
6
CONTINUOUS
10
158.726
20
-77.9202
11
158.858
21
-78.2214
0
LINE
8
BLACK
6
CONTINUOUS
10
158.858
20
-78.2214
11
159.024
21
-78.5046
0
LINE
8
BLACK
6
CONTINUOUS
10
159.024
20
-78.5046
11
159.223
21
-78.7658
0
LINE
8
BLACK
6
CONTINUOUS
10
159.223
20
-78.7658
11
159.453
21
-79.0012
0
LINE
8
BLACK
6
CONTINUOUS
10
159.453
20
-79.0012
11
159.709
21
-79.2073
0
LINE
8
BLACK
6
CONTINUOUS
10
159.709
20
-79.2073
11
159.987
21
-79.3812
0
LINE
8
BLACK
6
CONTINUOUS
10
159.987
20
-79.3812
11
160.285
21
-79.5203
0
LINE
8
BLACK
6
CONTINUOUS
10
160.285
20
-79.5203
11
160.597
21
-79.6226
0
LINE
8
BLACK
6
CONTINUOUS
10
160.597
20
-79.6226
11
160.919
21
-79.6867
0
LINE
8
BLACK
6
CONTINUOUS
10
160.919
20
-79.6867
11
161.247
21
-79.7116
0
LINE
8
BLACK
6
CONTINUOUS
10
161.247
20
-79.7116
11
161.575
21
-79.697
0
LINE
8
BLACK
6
CONTINUOUS
10
161.575
20
-79.697
11
161.899
21
-79.6431
0
LINE
8
BLACK
6
CONTINUOUS
10
161.899
20
-79.6431
11
162.215
21
-79.5506
0
LINE
8
BLACK
6
CONTINUOUS
10
162.215
20
-79.5506
11
162.517
21
-79.4209
0
LINE
8
BLACK
6
CONTINUOUS
10
162.517
20
-79.4209
11
162.801
21
-79.2559
0
LINE
8
BLACK
6
CONTINUOUS
10
162.801
20
-79.2559
11
163.063
21
-79.0579
0
LINE
8
BLACK
6
CONTINUOUS
10
163.063
20
-79.0579
11
163.3
21
-78.8299
0
LINE
8
BLACK
6
CONTINUOUS
10
163.3
20
-78.8299
11
163.507
21
-78.5751
0
LINE
8
BLACK
6
CONTINUOUS
10
163.507
20
-78.5751
11
163.682
21
-78.2972
0
LINE
8
BLACK
6
CONTINUOUS
10
163.682
20
-78.2972
11
163.823
21
-78.0002
0
LINE
8
BLACK
6
CONTINUOUS
10
163.823
20
-78.0002
11
163.927
21
-77.6886
0
LINE
8
BLACK
6
CONTINUOUS
10
163.927
20
-77.6886
11
163.993
21
-77.3667
0
LINE
8
BLACK
6
CONTINUOUS
10
163.993
20
-77.3667
11
164.019
21
-77.0392
0
LINE
8
BLACK
6
CONTINUOUS
10
164.019
20
-77.0392
11
164.02
21
-76.982
0
LINE
8
BLACK
6
CONTINUOUS
10
164.02
20
-76.982
11
164
21
-76.654
0
LINE
8
BLACK
6
CONTINUOUS
10
164
20
-76.654
11
163.941
21
-76.3308
0
LINE
8
BLACK
6
CONTINUOUS
10
163.941
20
-76.3308
11
163.844
21
-76.017
0
LINE
8
BLACK
6
CONTINUOUS
10
163.844
20
-76.017
11
163.709
21
-75.7172
0
LINE
8
BLACK
6
CONTINUOUS
10
163.709
20
-75.7172
11
163.54
21
-75.4357
0
LINE
8
BLACK
6
CONTINUOUS
10
163.54
20
-75.4357
11
163.338
21
-75.1766
0
LINE
8
BLACK
6
CONTINUOUS
10
163.338
20
-75.1766
11
163.106
21
-74.9437
0
LINE
8
BLACK
6
CONTINUOUS
10
163.106
20
-74.9437
11
162.848
21
-74.7403
0
LINE
8
BLACK
6
CONTINUOUS
10
162.848
20
-74.7403
11
162.567
21
-74.5693
0
LINE
8
BLACK
6
CONTINUOUS
10
162.567
20
-74.5693
11
162.268
21
-74.4333
0
LINE
8
BLACK
6
CONTINUOUS
10
162.268
20
-74.4333
11
161.955
21
-74.3343
0
LINE
8
BLACK
6
CONTINUOUS
10
161.955
20
-74.3343
11
161.632
21
-74.2735
0
LINE
8
BLACK
6
CONTINUOUS
10
161.632
20
-74.2735
11
161.304
21
-74.2521
0
LINE
8
BLACK
6
CONTINUOUS
10
161.304
20
-74.2521
11
160.976
21
-74.2701
0
LINE
8
BLACK
6
CONTINUOUS
10
160.976
20
-74.2701
11
160.653
21
-74.3274
0
LINE
8
BLACK
6
CONTINUOUS
10
160.653
20
-74.3274
11
160.338
21
-74.4232
0
LINE
8
BLACK
6
CONTINUOUS
10
160.338
20
-74.4232
11
160.038
21
-74.5561
0
LINE
8
BLACK
6
CONTINUOUS
10
160.038
20
-74.5561
11
159.756
21
-74.7241
0
LINE
8
BLACK
6
CONTINUOUS
10
159.756
20
-74.7241
11
159.495
21
-74.9248
0
LINE
8
BLACK
6
CONTINUOUS
10
159.495
20
-74.9248
11
159.261
21
-75.1553
0
LINE
8
BLACK
6
CONTINUOUS
10
159.261
20
-75.1553
11
159.056
21
-75.4122
0
LINE
8
BLACK
6
CONTINUOUS
10
159.056
20
-75.4122
11
158.884
21
-75.6919
0
LINE
8
BLACK
6
CONTINUOUS
10
158.884
20
-75.6919
11
158.747
21
-75.9903
0
LINE
8
BLACK
6
CONTINUOUS
10
158.747
20
-75.9903
11
158.646
21
-76.3031
0
LINE
8
BLACK
6
CONTINUOUS
10
158.646
20
-76.3031
11
158.583
21
-76.6257
0
LINE
8
BLACK
6
CONTINUOUS
10
158.583
20
-76.6257
11
158.56
21
-76.9534
0
LINE
8
BLACK
6
CONTINUOUS
10
158.56
20
-76.9534
11
158.577
21
-77.2816
0
LINE
8
BLACK
6
CONTINUOUS
10
158.577
20
-77.2816
11
158.632
21
-77.6054
  0
ENDSEC
  0
EOF
