%TF.GenerationSoftware,KiCad,Pcbnew,(6.0.4)*%
%TF.CreationDate,2022-11-07T20:32:36+01:00*%
%TF.ProjectId,swmeter,73776d65-7465-4722-9e6b-696361645f70,0.2*%
%TF.SameCoordinates,PX5d9f490PY775a330*%
%TF.FileFunction,Other,Comment*%
%FSLAX46Y46*%
G04 Gerber Fmt 4.6, Leading zero omitted, Abs format (unit mm)*
G04 Created by KiCad (PCBNEW (6.0.4)) date 2022-11-07 20:32:36*
%MOMM*%
%LPD*%
G01*
G04 APERTURE LIST*
%ADD10C,0.100000*%
%ADD11C,0.150000*%
%ADD12C,0.300000*%
%ADD13C,0.400000*%
%TA.AperFunction,Profile*%
%ADD14C,0.100000*%
%TD*%
G04 APERTURE END LIST*
D10*
D11*
X78832200Y-40857200D02*
X78832200Y-72857200D01*
X186832200Y-72857200D01*
X186832200Y-40857200D01*
X78832200Y-40857200D01*
D10*
D11*
X-88170000Y115150000D02*
X-88170000Y-74857200D01*
X188832200Y-74857200D01*
X188832200Y115150000D01*
X-88170000Y115150000D01*
D10*
D11*
X-86170000Y113150000D02*
X-86170000Y-72857200D01*
X186832200Y-72857200D01*
X186832200Y113150000D01*
X-86170000Y113150000D01*
D10*
D11*
X-38170000Y113150000D02*
X-38170000Y115150000D01*
D10*
D11*
X11830000Y113150000D02*
X11830000Y115150000D01*
D10*
D11*
X61830000Y113150000D02*
X61830000Y115150000D01*
D10*
D11*
X111830000Y113150000D02*
X111830000Y115150000D01*
D10*
D11*
X161830000Y113150000D02*
X161830000Y115150000D01*
D10*
D11*
X-62104524Y113561905D02*
X-62847381Y113561905D01*
X-62475953Y113561905D02*
X-62475953Y114861905D01*
X-62599762Y114676191D01*
X-62723572Y114552381D01*
X-62847381Y114490477D01*
D10*
D11*
X-12847381Y114738096D02*
X-12785477Y114800000D01*
X-12661667Y114861905D01*
X-12352143Y114861905D01*
X-12228334Y114800000D01*
X-12166429Y114738096D01*
X-12104524Y114614286D01*
X-12104524Y114490477D01*
X-12166429Y114304762D01*
X-12909286Y113561905D01*
X-12104524Y113561905D01*
D10*
D11*
X37090714Y114861905D02*
X37895476Y114861905D01*
X37462142Y114366667D01*
X37647857Y114366667D01*
X37771666Y114304762D01*
X37833571Y114242858D01*
X37895476Y114119048D01*
X37895476Y113809524D01*
X37833571Y113685715D01*
X37771666Y113623810D01*
X37647857Y113561905D01*
X37276428Y113561905D01*
X37152619Y113623810D01*
X37090714Y113685715D01*
D10*
D11*
X87771666Y114428572D02*
X87771666Y113561905D01*
X87462142Y114923810D02*
X87152619Y113995239D01*
X87957380Y113995239D01*
D10*
D11*
X137833571Y114861905D02*
X137214523Y114861905D01*
X137152619Y114242858D01*
X137214523Y114304762D01*
X137338333Y114366667D01*
X137647857Y114366667D01*
X137771666Y114304762D01*
X137833571Y114242858D01*
X137895476Y114119048D01*
X137895476Y113809524D01*
X137833571Y113685715D01*
X137771666Y113623810D01*
X137647857Y113561905D01*
X137338333Y113561905D01*
X137214523Y113623810D01*
X137152619Y113685715D01*
D10*
D11*
X187771666Y114861905D02*
X187524047Y114861905D01*
X187400238Y114800000D01*
X187338333Y114738096D01*
X187214523Y114552381D01*
X187152619Y114304762D01*
X187152619Y113809524D01*
X187214523Y113685715D01*
X187276428Y113623810D01*
X187400238Y113561905D01*
X187647857Y113561905D01*
X187771666Y113623810D01*
X187833571Y113685715D01*
X187895476Y113809524D01*
X187895476Y114119048D01*
X187833571Y114242858D01*
X187771666Y114304762D01*
X187647857Y114366667D01*
X187400238Y114366667D01*
X187276428Y114304762D01*
X187214523Y114242858D01*
X187152619Y114119048D01*
D10*
D11*
X-38170000Y-72857200D02*
X-38170000Y-74857200D01*
D10*
D11*
X11830000Y-72857200D02*
X11830000Y-74857200D01*
D10*
D11*
X61830000Y-72857200D02*
X61830000Y-74857200D01*
D10*
D11*
X111830000Y-72857200D02*
X111830000Y-74857200D01*
D10*
D11*
X161830000Y-72857200D02*
X161830000Y-74857200D01*
D10*
D11*
X-62104524Y-74445295D02*
X-62847381Y-74445295D01*
X-62475953Y-74445295D02*
X-62475953Y-73145295D01*
X-62599762Y-73331009D01*
X-62723572Y-73454819D01*
X-62847381Y-73516723D01*
D10*
D11*
X-12847381Y-73269104D02*
X-12785477Y-73207200D01*
X-12661667Y-73145295D01*
X-12352143Y-73145295D01*
X-12228334Y-73207200D01*
X-12166429Y-73269104D01*
X-12104524Y-73392914D01*
X-12104524Y-73516723D01*
X-12166429Y-73702438D01*
X-12909286Y-74445295D01*
X-12104524Y-74445295D01*
D10*
D11*
X37090714Y-73145295D02*
X37895476Y-73145295D01*
X37462142Y-73640533D01*
X37647857Y-73640533D01*
X37771666Y-73702438D01*
X37833571Y-73764342D01*
X37895476Y-73888152D01*
X37895476Y-74197676D01*
X37833571Y-74321485D01*
X37771666Y-74383390D01*
X37647857Y-74445295D01*
X37276428Y-74445295D01*
X37152619Y-74383390D01*
X37090714Y-74321485D01*
D10*
D11*
X87771666Y-73578628D02*
X87771666Y-74445295D01*
X87462142Y-73083390D02*
X87152619Y-74011961D01*
X87957380Y-74011961D01*
D10*
D11*
X137833571Y-73145295D02*
X137214523Y-73145295D01*
X137152619Y-73764342D01*
X137214523Y-73702438D01*
X137338333Y-73640533D01*
X137647857Y-73640533D01*
X137771666Y-73702438D01*
X137833571Y-73764342D01*
X137895476Y-73888152D01*
X137895476Y-74197676D01*
X137833571Y-74321485D01*
X137771666Y-74383390D01*
X137647857Y-74445295D01*
X137338333Y-74445295D01*
X137214523Y-74383390D01*
X137152619Y-74321485D01*
D10*
D11*
X187771666Y-73145295D02*
X187524047Y-73145295D01*
X187400238Y-73207200D01*
X187338333Y-73269104D01*
X187214523Y-73454819D01*
X187152619Y-73702438D01*
X187152619Y-74197676D01*
X187214523Y-74321485D01*
X187276428Y-74383390D01*
X187400238Y-74445295D01*
X187647857Y-74445295D01*
X187771666Y-74383390D01*
X187833571Y-74321485D01*
X187895476Y-74197676D01*
X187895476Y-73888152D01*
X187833571Y-73764342D01*
X187771666Y-73702438D01*
X187647857Y-73640533D01*
X187400238Y-73640533D01*
X187276428Y-73702438D01*
X187214523Y-73764342D01*
X187152619Y-73888152D01*
D10*
D11*
X-88170000Y65150000D02*
X-86170000Y65150000D01*
D10*
D11*
X-88170000Y15150000D02*
X-86170000Y15150000D01*
D10*
D11*
X-88170000Y-34850000D02*
X-86170000Y-34850000D01*
D10*
D11*
X-87479524Y89933334D02*
X-86860477Y89933334D01*
X-87603334Y89561905D02*
X-87170000Y90861905D01*
X-86736667Y89561905D01*
D10*
D11*
X-87077143Y40242858D02*
X-86891429Y40180953D01*
X-86829524Y40119048D01*
X-86767620Y39995239D01*
X-86767620Y39809524D01*
X-86829524Y39685715D01*
X-86891429Y39623810D01*
X-87015239Y39561905D01*
X-87510477Y39561905D01*
X-87510477Y40861905D01*
X-87077143Y40861905D01*
X-86953334Y40800000D01*
X-86891429Y40738096D01*
X-86829524Y40614286D01*
X-86829524Y40490477D01*
X-86891429Y40366667D01*
X-86953334Y40304762D01*
X-87077143Y40242858D01*
X-87510477Y40242858D01*
D10*
D11*
X-86767620Y-10314285D02*
X-86829524Y-10376190D01*
X-87015239Y-10438095D01*
X-87139048Y-10438095D01*
X-87324762Y-10376190D01*
X-87448572Y-10252380D01*
X-87510477Y-10128571D01*
X-87572381Y-9880952D01*
X-87572381Y-9695238D01*
X-87510477Y-9447619D01*
X-87448572Y-9323809D01*
X-87324762Y-9200000D01*
X-87139048Y-9138095D01*
X-87015239Y-9138095D01*
X-86829524Y-9200000D01*
X-86767620Y-9261904D01*
D10*
D11*
X-87510477Y-60438095D02*
X-87510477Y-59138095D01*
X-87200953Y-59138095D01*
X-87015239Y-59200000D01*
X-86891429Y-59323809D01*
X-86829524Y-59447619D01*
X-86767620Y-59695238D01*
X-86767620Y-59880952D01*
X-86829524Y-60128571D01*
X-86891429Y-60252380D01*
X-87015239Y-60376190D01*
X-87200953Y-60438095D01*
X-87510477Y-60438095D01*
D10*
D11*
X188832200Y65150000D02*
X186832200Y65150000D01*
D10*
D11*
X188832200Y15150000D02*
X186832200Y15150000D01*
D10*
D11*
X188832200Y-34850000D02*
X186832200Y-34850000D01*
D10*
D11*
X187522676Y89933334D02*
X188141723Y89933334D01*
X187398866Y89561905D02*
X187832200Y90861905D01*
X188265533Y89561905D01*
D10*
D11*
X187925057Y40242858D02*
X188110771Y40180953D01*
X188172676Y40119048D01*
X188234580Y39995239D01*
X188234580Y39809524D01*
X188172676Y39685715D01*
X188110771Y39623810D01*
X187986961Y39561905D01*
X187491723Y39561905D01*
X187491723Y40861905D01*
X187925057Y40861905D01*
X188048866Y40800000D01*
X188110771Y40738096D01*
X188172676Y40614286D01*
X188172676Y40490477D01*
X188110771Y40366667D01*
X188048866Y40304762D01*
X187925057Y40242858D01*
X187491723Y40242858D01*
D10*
D11*
X188234580Y-10314285D02*
X188172676Y-10376190D01*
X187986961Y-10438095D01*
X187863152Y-10438095D01*
X187677438Y-10376190D01*
X187553628Y-10252380D01*
X187491723Y-10128571D01*
X187429819Y-9880952D01*
X187429819Y-9695238D01*
X187491723Y-9447619D01*
X187553628Y-9323809D01*
X187677438Y-9200000D01*
X187863152Y-9138095D01*
X187986961Y-9138095D01*
X188172676Y-9200000D01*
X188234580Y-9261904D01*
D10*
D11*
X187491723Y-60438095D02*
X187491723Y-59138095D01*
X187801247Y-59138095D01*
X187986961Y-59200000D01*
X188110771Y-59323809D01*
X188172676Y-59447619D01*
X188234580Y-59695238D01*
X188234580Y-59880952D01*
X188172676Y-60128571D01*
X188110771Y-60252380D01*
X187986961Y-60376190D01*
X187801247Y-60438095D01*
X187491723Y-60438095D01*
D10*
D11*
X102264342Y-68635771D02*
X102264342Y-67135771D01*
X102621485Y-67135771D01*
X102835771Y-67207200D01*
X102978628Y-67350057D01*
X103050057Y-67492914D01*
X103121485Y-67778628D01*
X103121485Y-67992914D01*
X103050057Y-68278628D01*
X102978628Y-68421485D01*
X102835771Y-68564342D01*
X102621485Y-68635771D01*
X102264342Y-68635771D01*
X104407200Y-68635771D02*
X104407200Y-67850057D01*
X104335771Y-67707200D01*
X104192914Y-67635771D01*
X103907200Y-67635771D01*
X103764342Y-67707200D01*
X104407200Y-68564342D02*
X104264342Y-68635771D01*
X103907200Y-68635771D01*
X103764342Y-68564342D01*
X103692914Y-68421485D01*
X103692914Y-68278628D01*
X103764342Y-68135771D01*
X103907200Y-68064342D01*
X104264342Y-68064342D01*
X104407200Y-67992914D01*
X104907200Y-67635771D02*
X105478628Y-67635771D01*
X105121485Y-67135771D02*
X105121485Y-68421485D01*
X105192914Y-68564342D01*
X105335771Y-68635771D01*
X105478628Y-68635771D01*
X106550057Y-68564342D02*
X106407200Y-68635771D01*
X106121485Y-68635771D01*
X105978628Y-68564342D01*
X105907200Y-68421485D01*
X105907200Y-67850057D01*
X105978628Y-67707200D01*
X106121485Y-67635771D01*
X106407200Y-67635771D01*
X106550057Y-67707200D01*
X106621485Y-67850057D01*
X106621485Y-67992914D01*
X105907200Y-68135771D01*
X107264342Y-68492914D02*
X107335771Y-68564342D01*
X107264342Y-68635771D01*
X107192914Y-68564342D01*
X107264342Y-68492914D01*
X107264342Y-68635771D01*
X107264342Y-67707200D02*
X107335771Y-67778628D01*
X107264342Y-67850057D01*
X107192914Y-67778628D01*
X107264342Y-67707200D01*
X107264342Y-67850057D01*
X109050057Y-67278628D02*
X109121485Y-67207200D01*
X109264342Y-67135771D01*
X109621485Y-67135771D01*
X109764342Y-67207200D01*
X109835771Y-67278628D01*
X109907200Y-67421485D01*
X109907200Y-67564342D01*
X109835771Y-67778628D01*
X108978628Y-68635771D01*
X109907200Y-68635771D01*
X110835771Y-67135771D02*
X110978628Y-67135771D01*
X111121485Y-67207200D01*
X111192914Y-67278628D01*
X111264342Y-67421485D01*
X111335771Y-67707200D01*
X111335771Y-68064342D01*
X111264342Y-68350057D01*
X111192914Y-68492914D01*
X111121485Y-68564342D01*
X110978628Y-68635771D01*
X110835771Y-68635771D01*
X110692914Y-68564342D01*
X110621485Y-68492914D01*
X110550057Y-68350057D01*
X110478628Y-68064342D01*
X110478628Y-67707200D01*
X110550057Y-67421485D01*
X110621485Y-67278628D01*
X110692914Y-67207200D01*
X110835771Y-67135771D01*
X111907200Y-67278628D02*
X111978628Y-67207200D01*
X112121485Y-67135771D01*
X112478628Y-67135771D01*
X112621485Y-67207200D01*
X112692914Y-67278628D01*
X112764342Y-67421485D01*
X112764342Y-67564342D01*
X112692914Y-67778628D01*
X111835771Y-68635771D01*
X112764342Y-68635771D01*
X113335771Y-67278628D02*
X113407200Y-67207200D01*
X113550057Y-67135771D01*
X113907200Y-67135771D01*
X114050057Y-67207200D01*
X114121485Y-67278628D01*
X114192914Y-67421485D01*
X114192914Y-67564342D01*
X114121485Y-67778628D01*
X113264342Y-68635771D01*
X114192914Y-68635771D01*
X114835771Y-68064342D02*
X115978628Y-68064342D01*
X117478628Y-68635771D02*
X116621485Y-68635771D01*
X117050057Y-68635771D02*
X117050057Y-67135771D01*
X116907200Y-67350057D01*
X116764342Y-67492914D01*
X116621485Y-67564342D01*
X118407200Y-67135771D02*
X118550057Y-67135771D01*
X118692914Y-67207200D01*
X118764342Y-67278628D01*
X118835771Y-67421485D01*
X118907200Y-67707200D01*
X118907200Y-68064342D01*
X118835771Y-68350057D01*
X118764342Y-68492914D01*
X118692914Y-68564342D01*
X118550057Y-68635771D01*
X118407200Y-68635771D01*
X118264342Y-68564342D01*
X118192914Y-68492914D01*
X118121485Y-68350057D01*
X118050057Y-68064342D01*
X118050057Y-67707200D01*
X118121485Y-67421485D01*
X118192914Y-67278628D01*
X118264342Y-67207200D01*
X118407200Y-67135771D01*
X119550057Y-68064342D02*
X120692914Y-68064342D01*
X121335771Y-67278628D02*
X121407200Y-67207200D01*
X121550057Y-67135771D01*
X121907200Y-67135771D01*
X122050057Y-67207200D01*
X122121485Y-67278628D01*
X122192914Y-67421485D01*
X122192914Y-67564342D01*
X122121485Y-67778628D01*
X121264342Y-68635771D01*
X122192914Y-68635771D01*
X123621485Y-68635771D02*
X122764342Y-68635771D01*
X123192914Y-68635771D02*
X123192914Y-67135771D01*
X123050057Y-67350057D01*
X122907200Y-67492914D01*
X122764342Y-67564342D01*
D10*
D11*
X78832200Y-69357200D02*
X186832200Y-69357200D01*
D10*
D11*
X80264342Y-71435771D02*
X80264342Y-69935771D01*
X81121485Y-71435771D02*
X80478628Y-70578628D01*
X81121485Y-69935771D02*
X80264342Y-70792914D01*
X81764342Y-71435771D02*
X81764342Y-70435771D01*
X81764342Y-69935771D02*
X81692914Y-70007200D01*
X81764342Y-70078628D01*
X81835771Y-70007200D01*
X81764342Y-69935771D01*
X81764342Y-70078628D01*
X83335771Y-71292914D02*
X83264342Y-71364342D01*
X83050057Y-71435771D01*
X82907200Y-71435771D01*
X82692914Y-71364342D01*
X82550057Y-71221485D01*
X82478628Y-71078628D01*
X82407200Y-70792914D01*
X82407200Y-70578628D01*
X82478628Y-70292914D01*
X82550057Y-70150057D01*
X82692914Y-70007200D01*
X82907200Y-69935771D01*
X83050057Y-69935771D01*
X83264342Y-70007200D01*
X83335771Y-70078628D01*
X84621485Y-71435771D02*
X84621485Y-70650057D01*
X84550057Y-70507200D01*
X84407200Y-70435771D01*
X84121485Y-70435771D01*
X83978628Y-70507200D01*
X84621485Y-71364342D02*
X84478628Y-71435771D01*
X84121485Y-71435771D01*
X83978628Y-71364342D01*
X83907200Y-71221485D01*
X83907200Y-71078628D01*
X83978628Y-70935771D01*
X84121485Y-70864342D01*
X84478628Y-70864342D01*
X84621485Y-70792914D01*
X85978628Y-71435771D02*
X85978628Y-69935771D01*
X85978628Y-71364342D02*
X85835771Y-71435771D01*
X85550057Y-71435771D01*
X85407200Y-71364342D01*
X85335771Y-71292914D01*
X85264342Y-71150057D01*
X85264342Y-70721485D01*
X85335771Y-70578628D01*
X85407200Y-70507200D01*
X85550057Y-70435771D01*
X85835771Y-70435771D01*
X85978628Y-70507200D01*
X87835771Y-70650057D02*
X88335771Y-70650057D01*
X88550057Y-71435771D02*
X87835771Y-71435771D01*
X87835771Y-69935771D01*
X88550057Y-69935771D01*
X89192914Y-71292914D02*
X89264342Y-71364342D01*
X89192914Y-71435771D01*
X89121485Y-71364342D01*
X89192914Y-71292914D01*
X89192914Y-71435771D01*
X89907200Y-71435771D02*
X89907200Y-69935771D01*
X90264342Y-69935771D01*
X90478628Y-70007200D01*
X90621485Y-70150057D01*
X90692914Y-70292914D01*
X90764342Y-70578628D01*
X90764342Y-70792914D01*
X90692914Y-71078628D01*
X90621485Y-71221485D01*
X90478628Y-71364342D01*
X90264342Y-71435771D01*
X89907200Y-71435771D01*
X91407200Y-71292914D02*
X91478628Y-71364342D01*
X91407200Y-71435771D01*
X91335771Y-71364342D01*
X91407200Y-71292914D01*
X91407200Y-71435771D01*
X92050057Y-71007200D02*
X92764342Y-71007200D01*
X91907200Y-71435771D02*
X92407200Y-69935771D01*
X92907200Y-71435771D01*
X93407200Y-71292914D02*
X93478628Y-71364342D01*
X93407200Y-71435771D01*
X93335771Y-71364342D01*
X93407200Y-71292914D01*
X93407200Y-71435771D01*
X96407200Y-71435771D02*
X96407200Y-69935771D01*
X96550057Y-70864342D02*
X96978628Y-71435771D01*
X96978628Y-70435771D02*
X96407200Y-71007200D01*
X97621485Y-71435771D02*
X97621485Y-70435771D01*
X97621485Y-69935771D02*
X97550057Y-70007200D01*
X97621485Y-70078628D01*
X97692914Y-70007200D01*
X97621485Y-69935771D01*
X97621485Y-70078628D01*
X98978628Y-71364342D02*
X98835771Y-71435771D01*
X98550057Y-71435771D01*
X98407200Y-71364342D01*
X98335771Y-71292914D01*
X98264342Y-71150057D01*
X98264342Y-70721485D01*
X98335771Y-70578628D01*
X98407200Y-70507200D01*
X98550057Y-70435771D01*
X98835771Y-70435771D01*
X98978628Y-70507200D01*
X100264342Y-71435771D02*
X100264342Y-70650057D01*
X100192914Y-70507200D01*
X100050057Y-70435771D01*
X99764342Y-70435771D01*
X99621485Y-70507200D01*
X100264342Y-71364342D02*
X100121485Y-71435771D01*
X99764342Y-71435771D01*
X99621485Y-71364342D01*
X99550057Y-71221485D01*
X99550057Y-71078628D01*
X99621485Y-70935771D01*
X99764342Y-70864342D01*
X100121485Y-70864342D01*
X100264342Y-70792914D01*
X101621485Y-71435771D02*
X101621485Y-69935771D01*
X101621485Y-71364342D02*
X101478628Y-71435771D01*
X101192914Y-71435771D01*
X101050057Y-71364342D01*
X100978628Y-71292914D01*
X100907200Y-71150057D01*
X100907200Y-70721485D01*
X100978628Y-70578628D01*
X101050057Y-70507200D01*
X101192914Y-70435771D01*
X101478628Y-70435771D01*
X101621485Y-70507200D01*
X103907200Y-72007200D02*
X103835771Y-71935771D01*
X103692914Y-71721485D01*
X103621485Y-71578628D01*
X103550057Y-71364342D01*
X103478628Y-71007200D01*
X103478628Y-70721485D01*
X103550057Y-70364342D01*
X103621485Y-70150057D01*
X103692914Y-70007200D01*
X103835771Y-69792914D01*
X103907200Y-69721485D01*
X105121485Y-69935771D02*
X104835771Y-69935771D01*
X104692914Y-70007200D01*
X104621485Y-70078628D01*
X104478628Y-70292914D01*
X104407200Y-70578628D01*
X104407200Y-71150057D01*
X104478628Y-71292914D01*
X104550057Y-71364342D01*
X104692914Y-71435771D01*
X104978628Y-71435771D01*
X105121485Y-71364342D01*
X105192914Y-71292914D01*
X105264342Y-71150057D01*
X105264342Y-70792914D01*
X105192914Y-70650057D01*
X105121485Y-70578628D01*
X104978628Y-70507200D01*
X104692914Y-70507200D01*
X104550057Y-70578628D01*
X104478628Y-70650057D01*
X104407200Y-70792914D01*
X105907200Y-71292914D02*
X105978628Y-71364342D01*
X105907200Y-71435771D01*
X105835771Y-71364342D01*
X105907200Y-71292914D01*
X105907200Y-71435771D01*
X106907200Y-69935771D02*
X107050057Y-69935771D01*
X107192914Y-70007200D01*
X107264342Y-70078628D01*
X107335771Y-70221485D01*
X107407200Y-70507200D01*
X107407200Y-70864342D01*
X107335771Y-71150057D01*
X107264342Y-71292914D01*
X107192914Y-71364342D01*
X107050057Y-71435771D01*
X106907200Y-71435771D01*
X106764342Y-71364342D01*
X106692914Y-71292914D01*
X106621485Y-71150057D01*
X106550057Y-70864342D01*
X106550057Y-70507200D01*
X106621485Y-70221485D01*
X106692914Y-70078628D01*
X106764342Y-70007200D01*
X106907200Y-69935771D01*
X108050057Y-71292914D02*
X108121485Y-71364342D01*
X108050057Y-71435771D01*
X107978628Y-71364342D01*
X108050057Y-71292914D01*
X108050057Y-71435771D01*
X109407200Y-70435771D02*
X109407200Y-71435771D01*
X109050057Y-69864342D02*
X108692914Y-70935771D01*
X109621485Y-70935771D01*
X110050057Y-72007200D02*
X110121485Y-71935771D01*
X110264342Y-71721485D01*
X110335771Y-71578628D01*
X110407200Y-71364342D01*
X110478628Y-71007200D01*
X110478628Y-70721485D01*
X110407200Y-70364342D01*
X110335771Y-70150057D01*
X110264342Y-70007200D01*
X110121485Y-69792914D01*
X110050057Y-69721485D01*
D10*
D11*
X78832200Y-66357200D02*
X186832200Y-66357200D01*
D10*
D12*
X166241485Y-68635771D02*
X165741485Y-67921485D01*
X165384342Y-68635771D02*
X165384342Y-67135771D01*
X165955771Y-67135771D01*
X166098628Y-67207200D01*
X166170057Y-67278628D01*
X166241485Y-67421485D01*
X166241485Y-67635771D01*
X166170057Y-67778628D01*
X166098628Y-67850057D01*
X165955771Y-67921485D01*
X165384342Y-67921485D01*
X167455771Y-68564342D02*
X167312914Y-68635771D01*
X167027200Y-68635771D01*
X166884342Y-68564342D01*
X166812914Y-68421485D01*
X166812914Y-67850057D01*
X166884342Y-67707200D01*
X167027200Y-67635771D01*
X167312914Y-67635771D01*
X167455771Y-67707200D01*
X167527200Y-67850057D01*
X167527200Y-67992914D01*
X166812914Y-68135771D01*
X168027200Y-67635771D02*
X168384342Y-68635771D01*
X168741485Y-67635771D01*
X169312914Y-68492914D02*
X169384342Y-68564342D01*
X169312914Y-68635771D01*
X169241485Y-68564342D01*
X169312914Y-68492914D01*
X169312914Y-68635771D01*
X169312914Y-67707200D02*
X169384342Y-67778628D01*
X169312914Y-67850057D01*
X169241485Y-67778628D01*
X169312914Y-67707200D01*
X169312914Y-67850057D01*
X171455771Y-67135771D02*
X171598628Y-67135771D01*
X171741485Y-67207200D01*
X171812914Y-67278628D01*
X171884342Y-67421485D01*
X171955771Y-67707200D01*
X171955771Y-68064342D01*
X171884342Y-68350057D01*
X171812914Y-68492914D01*
X171741485Y-68564342D01*
X171598628Y-68635771D01*
X171455771Y-68635771D01*
X171312914Y-68564342D01*
X171241485Y-68492914D01*
X171170057Y-68350057D01*
X171098628Y-68064342D01*
X171098628Y-67707200D01*
X171170057Y-67421485D01*
X171241485Y-67278628D01*
X171312914Y-67207200D01*
X171455771Y-67135771D01*
X172598628Y-68492914D02*
X172670057Y-68564342D01*
X172598628Y-68635771D01*
X172527200Y-68564342D01*
X172598628Y-68492914D01*
X172598628Y-68635771D01*
X173241485Y-67278628D02*
X173312914Y-67207200D01*
X173455771Y-67135771D01*
X173812914Y-67135771D01*
X173955771Y-67207200D01*
X174027200Y-67278628D01*
X174098628Y-67421485D01*
X174098628Y-67564342D01*
X174027200Y-67778628D01*
X173170057Y-68635771D01*
X174098628Y-68635771D01*
D10*
D11*
X80192914Y-68564342D02*
X80407200Y-68635771D01*
X80764342Y-68635771D01*
X80907200Y-68564342D01*
X80978628Y-68492914D01*
X81050057Y-68350057D01*
X81050057Y-68207200D01*
X80978628Y-68064342D01*
X80907200Y-67992914D01*
X80764342Y-67921485D01*
X80478628Y-67850057D01*
X80335771Y-67778628D01*
X80264342Y-67707200D01*
X80192914Y-67564342D01*
X80192914Y-67421485D01*
X80264342Y-67278628D01*
X80335771Y-67207200D01*
X80478628Y-67135771D01*
X80835771Y-67135771D01*
X81050057Y-67207200D01*
X81692914Y-68635771D02*
X81692914Y-67635771D01*
X81692914Y-67135771D02*
X81621485Y-67207200D01*
X81692914Y-67278628D01*
X81764342Y-67207200D01*
X81692914Y-67135771D01*
X81692914Y-67278628D01*
X82264342Y-67635771D02*
X83050057Y-67635771D01*
X82264342Y-68635771D01*
X83050057Y-68635771D01*
X84192914Y-68564342D02*
X84050057Y-68635771D01*
X83764342Y-68635771D01*
X83621485Y-68564342D01*
X83550057Y-68421485D01*
X83550057Y-67850057D01*
X83621485Y-67707200D01*
X83764342Y-67635771D01*
X84050057Y-67635771D01*
X84192914Y-67707200D01*
X84264342Y-67850057D01*
X84264342Y-67992914D01*
X83550057Y-68135771D01*
X84907200Y-68492914D02*
X84978628Y-68564342D01*
X84907200Y-68635771D01*
X84835771Y-68564342D01*
X84907200Y-68492914D01*
X84907200Y-68635771D01*
X84907200Y-67707200D02*
X84978628Y-67778628D01*
X84907200Y-67850057D01*
X84835771Y-67778628D01*
X84907200Y-67707200D01*
X84907200Y-67850057D01*
X86692914Y-68207200D02*
X87407200Y-68207200D01*
X86550057Y-68635771D02*
X87050057Y-67135771D01*
X87550057Y-68635771D01*
X88692914Y-67635771D02*
X88692914Y-68635771D01*
X88335771Y-67064342D02*
X87978628Y-68135771D01*
X88907200Y-68135771D01*
D10*
D11*
X165264342Y-71435771D02*
X165264342Y-69935771D01*
X166621485Y-71435771D02*
X166621485Y-69935771D01*
X166621485Y-71364342D02*
X166478628Y-71435771D01*
X166192914Y-71435771D01*
X166050057Y-71364342D01*
X165978628Y-71292914D01*
X165907200Y-71150057D01*
X165907200Y-70721485D01*
X165978628Y-70578628D01*
X166050057Y-70507200D01*
X166192914Y-70435771D01*
X166478628Y-70435771D01*
X166621485Y-70507200D01*
X167335771Y-71292914D02*
X167407200Y-71364342D01*
X167335771Y-71435771D01*
X167264342Y-71364342D01*
X167335771Y-71292914D01*
X167335771Y-71435771D01*
X167335771Y-70507200D02*
X167407200Y-70578628D01*
X167335771Y-70650057D01*
X167264342Y-70578628D01*
X167335771Y-70507200D01*
X167335771Y-70650057D01*
X169978628Y-71435771D02*
X169121485Y-71435771D01*
X169550057Y-71435771D02*
X169550057Y-69935771D01*
X169407200Y-70150057D01*
X169264342Y-70292914D01*
X169121485Y-70364342D01*
X171692914Y-69864342D02*
X170407200Y-71792914D01*
X172978628Y-71435771D02*
X172121485Y-71435771D01*
X172550057Y-71435771D02*
X172550057Y-69935771D01*
X172407200Y-70150057D01*
X172264342Y-70292914D01*
X172121485Y-70364342D01*
D10*
D11*
X78832200Y-62357200D02*
X186832200Y-62357200D01*
D10*
D13*
X80544580Y-63061961D02*
X81687438Y-63061961D01*
X80866009Y-65061961D02*
X81116009Y-63061961D01*
X82104104Y-65061961D02*
X82270771Y-63728628D01*
X82354104Y-63061961D02*
X82246961Y-63157200D01*
X82330295Y-63252438D01*
X82437438Y-63157200D01*
X82354104Y-63061961D01*
X82330295Y-63252438D01*
X82937438Y-63728628D02*
X83699342Y-63728628D01*
X83306485Y-63061961D02*
X83092200Y-64776247D01*
X83163628Y-64966723D01*
X83342200Y-65061961D01*
X83532676Y-65061961D01*
X84485057Y-65061961D02*
X84306485Y-64966723D01*
X84235057Y-64776247D01*
X84449342Y-63061961D01*
X86020771Y-64966723D02*
X85818390Y-65061961D01*
X85437438Y-65061961D01*
X85258866Y-64966723D01*
X85187438Y-64776247D01*
X85282676Y-64014342D01*
X85401723Y-63823866D01*
X85604104Y-63728628D01*
X85985057Y-63728628D01*
X86163628Y-63823866D01*
X86235057Y-64014342D01*
X86211247Y-64204819D01*
X85235057Y-64395295D01*
X86985057Y-64871485D02*
X87068390Y-64966723D01*
X86961247Y-65061961D01*
X86877914Y-64966723D01*
X86985057Y-64871485D01*
X86961247Y-65061961D01*
X87116009Y-63823866D02*
X87199342Y-63919104D01*
X87092200Y-64014342D01*
X87008866Y-63919104D01*
X87116009Y-63823866D01*
X87092200Y-64014342D01*
X89354104Y-64966723D02*
X89627914Y-65061961D01*
X90104104Y-65061961D01*
X90306485Y-64966723D01*
X90413628Y-64871485D01*
X90532676Y-64681009D01*
X90556485Y-64490533D01*
X90485057Y-64300057D01*
X90401723Y-64204819D01*
X90223152Y-64109580D01*
X89854104Y-64014342D01*
X89675533Y-63919104D01*
X89592200Y-63823866D01*
X89520771Y-63633390D01*
X89544580Y-63442914D01*
X89663628Y-63252438D01*
X89770771Y-63157200D01*
X89973152Y-63061961D01*
X90449342Y-63061961D01*
X90723152Y-63157200D01*
X91401723Y-63061961D02*
X91627914Y-65061961D01*
X92187438Y-63633390D01*
X92389819Y-65061961D01*
X93116009Y-63061961D01*
X93723152Y-64300057D02*
X95246961Y-64300057D01*
X96104104Y-65061961D02*
X96354104Y-63061961D01*
X96842200Y-64490533D01*
X97687438Y-63061961D01*
X97437438Y-65061961D01*
X99163628Y-64966723D02*
X98961247Y-65061961D01*
X98580295Y-65061961D01*
X98401723Y-64966723D01*
X98330295Y-64776247D01*
X98425533Y-64014342D01*
X98544580Y-63823866D01*
X98746961Y-63728628D01*
X99127914Y-63728628D01*
X99306485Y-63823866D01*
X99377914Y-64014342D01*
X99354104Y-64204819D01*
X98377914Y-64395295D01*
X99985057Y-63728628D02*
X100746961Y-63728628D01*
X100354104Y-63061961D02*
X100139819Y-64776247D01*
X100211247Y-64966723D01*
X100389819Y-65061961D01*
X100580295Y-65061961D01*
X102020771Y-64966723D02*
X101818390Y-65061961D01*
X101437438Y-65061961D01*
X101258866Y-64966723D01*
X101187438Y-64776247D01*
X101282676Y-64014342D01*
X101401723Y-63823866D01*
X101604104Y-63728628D01*
X101985057Y-63728628D01*
X102163628Y-63823866D01*
X102235057Y-64014342D01*
X102211247Y-64204819D01*
X101235057Y-64395295D01*
X102961247Y-65061961D02*
X103127914Y-63728628D01*
X103080295Y-64109580D02*
X103199342Y-63919104D01*
X103306485Y-63823866D01*
X103508866Y-63728628D01*
X103699342Y-63728628D01*
D10*
D11*
X80764342Y-60450057D02*
X80264342Y-60450057D01*
X80264342Y-61235771D02*
X80264342Y-59735771D01*
X80978628Y-59735771D01*
X81550057Y-61235771D02*
X81550057Y-60235771D01*
X81550057Y-59735771D02*
X81478628Y-59807200D01*
X81550057Y-59878628D01*
X81621485Y-59807200D01*
X81550057Y-59735771D01*
X81550057Y-59878628D01*
X82478628Y-61235771D02*
X82335771Y-61164342D01*
X82264342Y-61021485D01*
X82264342Y-59735771D01*
X83621485Y-61164342D02*
X83478628Y-61235771D01*
X83192914Y-61235771D01*
X83050057Y-61164342D01*
X82978628Y-61021485D01*
X82978628Y-60450057D01*
X83050057Y-60307200D01*
X83192914Y-60235771D01*
X83478628Y-60235771D01*
X83621485Y-60307200D01*
X83692914Y-60450057D01*
X83692914Y-60592914D01*
X82978628Y-60735771D01*
X84335771Y-61092914D02*
X84407200Y-61164342D01*
X84335771Y-61235771D01*
X84264342Y-61164342D01*
X84335771Y-61092914D01*
X84335771Y-61235771D01*
X84335771Y-60307200D02*
X84407200Y-60378628D01*
X84335771Y-60450057D01*
X84264342Y-60378628D01*
X84335771Y-60307200D01*
X84335771Y-60450057D01*
X86121485Y-61164342D02*
X86264342Y-61235771D01*
X86550057Y-61235771D01*
X86692914Y-61164342D01*
X86764342Y-61021485D01*
X86764342Y-60950057D01*
X86692914Y-60807200D01*
X86550057Y-60735771D01*
X86335771Y-60735771D01*
X86192914Y-60664342D01*
X86121485Y-60521485D01*
X86121485Y-60450057D01*
X86192914Y-60307200D01*
X86335771Y-60235771D01*
X86550057Y-60235771D01*
X86692914Y-60307200D01*
X87264342Y-60235771D02*
X87550057Y-61235771D01*
X87835771Y-60521485D01*
X88121485Y-61235771D01*
X88407200Y-60235771D01*
X88978628Y-61235771D02*
X88978628Y-60235771D01*
X88978628Y-60378628D02*
X89050057Y-60307200D01*
X89192914Y-60235771D01*
X89407200Y-60235771D01*
X89550057Y-60307200D01*
X89621485Y-60450057D01*
X89621485Y-61235771D01*
X89621485Y-60450057D02*
X89692914Y-60307200D01*
X89835771Y-60235771D01*
X90050057Y-60235771D01*
X90192914Y-60307200D01*
X90264342Y-60450057D01*
X90264342Y-61235771D01*
X91550057Y-61164342D02*
X91407200Y-61235771D01*
X91121485Y-61235771D01*
X90978628Y-61164342D01*
X90907200Y-61021485D01*
X90907200Y-60450057D01*
X90978628Y-60307200D01*
X91121485Y-60235771D01*
X91407200Y-60235771D01*
X91550057Y-60307200D01*
X91621485Y-60450057D01*
X91621485Y-60592914D01*
X90907200Y-60735771D01*
X92050057Y-60235771D02*
X92621485Y-60235771D01*
X92264342Y-59735771D02*
X92264342Y-61021485D01*
X92335771Y-61164342D01*
X92478628Y-61235771D01*
X92621485Y-61235771D01*
X93692914Y-61164342D02*
X93550057Y-61235771D01*
X93264342Y-61235771D01*
X93121485Y-61164342D01*
X93050057Y-61021485D01*
X93050057Y-60450057D01*
X93121485Y-60307200D01*
X93264342Y-60235771D01*
X93550057Y-60235771D01*
X93692914Y-60307200D01*
X93764342Y-60450057D01*
X93764342Y-60592914D01*
X93050057Y-60735771D01*
X94407200Y-61235771D02*
X94407200Y-60235771D01*
X94407200Y-60521485D02*
X94478628Y-60378628D01*
X94550057Y-60307200D01*
X94692914Y-60235771D01*
X94835771Y-60235771D01*
X95335771Y-61092914D02*
X95407200Y-61164342D01*
X95335771Y-61235771D01*
X95264342Y-61164342D01*
X95335771Y-61092914D01*
X95335771Y-61235771D01*
X96050057Y-61235771D02*
X96050057Y-59735771D01*
X96192914Y-60664342D02*
X96621485Y-61235771D01*
X96621485Y-60235771D02*
X96050057Y-60807200D01*
X97264342Y-61235771D02*
X97264342Y-60235771D01*
X97264342Y-59735771D02*
X97192914Y-59807200D01*
X97264342Y-59878628D01*
X97335771Y-59807200D01*
X97264342Y-59735771D01*
X97264342Y-59878628D01*
X98621485Y-61164342D02*
X98478628Y-61235771D01*
X98192914Y-61235771D01*
X98050057Y-61164342D01*
X97978628Y-61092914D01*
X97907200Y-60950057D01*
X97907200Y-60521485D01*
X97978628Y-60378628D01*
X98050057Y-60307200D01*
X98192914Y-60235771D01*
X98478628Y-60235771D01*
X98621485Y-60307200D01*
X99907200Y-61235771D02*
X99907200Y-60450057D01*
X99835771Y-60307200D01*
X99692914Y-60235771D01*
X99407200Y-60235771D01*
X99264342Y-60307200D01*
X99907200Y-61164342D02*
X99764342Y-61235771D01*
X99407200Y-61235771D01*
X99264342Y-61164342D01*
X99192914Y-61021485D01*
X99192914Y-60878628D01*
X99264342Y-60735771D01*
X99407200Y-60664342D01*
X99764342Y-60664342D01*
X99907200Y-60592914D01*
X101264342Y-61235771D02*
X101264342Y-59735771D01*
X101264342Y-61164342D02*
X101121485Y-61235771D01*
X100835771Y-61235771D01*
X100692914Y-61164342D01*
X100621485Y-61092914D01*
X100550057Y-60950057D01*
X100550057Y-60521485D01*
X100621485Y-60378628D01*
X100692914Y-60307200D01*
X100835771Y-60235771D01*
X101121485Y-60235771D01*
X101264342Y-60307200D01*
X101621485Y-61378628D02*
X102764342Y-61378628D01*
X103121485Y-60235771D02*
X103121485Y-61735771D01*
X103121485Y-60307200D02*
X103264342Y-60235771D01*
X103550057Y-60235771D01*
X103692914Y-60307200D01*
X103764342Y-60378628D01*
X103835771Y-60521485D01*
X103835771Y-60950057D01*
X103764342Y-61092914D01*
X103692914Y-61164342D01*
X103550057Y-61235771D01*
X103264342Y-61235771D01*
X103121485Y-61164342D01*
X105121485Y-61164342D02*
X104978628Y-61235771D01*
X104692914Y-61235771D01*
X104550057Y-61164342D01*
X104478628Y-61092914D01*
X104407200Y-60950057D01*
X104407200Y-60521485D01*
X104478628Y-60378628D01*
X104550057Y-60307200D01*
X104692914Y-60235771D01*
X104978628Y-60235771D01*
X105121485Y-60307200D01*
X105764342Y-61235771D02*
X105764342Y-59735771D01*
X105764342Y-60307200D02*
X105907200Y-60235771D01*
X106192914Y-60235771D01*
X106335771Y-60307200D01*
X106407200Y-60378628D01*
X106478628Y-60521485D01*
X106478628Y-60950057D01*
X106407200Y-61092914D01*
X106335771Y-61164342D01*
X106192914Y-61235771D01*
X105907200Y-61235771D01*
X105764342Y-61164342D01*
D10*
D11*
X78832200Y-56357200D02*
X186832200Y-56357200D01*
D10*
D11*
X80192914Y-58464342D02*
X80407200Y-58535771D01*
X80764342Y-58535771D01*
X80907200Y-58464342D01*
X80978628Y-58392914D01*
X81050057Y-58250057D01*
X81050057Y-58107200D01*
X80978628Y-57964342D01*
X80907200Y-57892914D01*
X80764342Y-57821485D01*
X80478628Y-57750057D01*
X80335771Y-57678628D01*
X80264342Y-57607200D01*
X80192914Y-57464342D01*
X80192914Y-57321485D01*
X80264342Y-57178628D01*
X80335771Y-57107200D01*
X80478628Y-57035771D01*
X80835771Y-57035771D01*
X81050057Y-57107200D01*
X81692914Y-58535771D02*
X81692914Y-57035771D01*
X82335771Y-58535771D02*
X82335771Y-57750057D01*
X82264342Y-57607200D01*
X82121485Y-57535771D01*
X81907200Y-57535771D01*
X81764342Y-57607200D01*
X81692914Y-57678628D01*
X83621485Y-58464342D02*
X83478628Y-58535771D01*
X83192914Y-58535771D01*
X83050057Y-58464342D01*
X82978628Y-58321485D01*
X82978628Y-57750057D01*
X83050057Y-57607200D01*
X83192914Y-57535771D01*
X83478628Y-57535771D01*
X83621485Y-57607200D01*
X83692914Y-57750057D01*
X83692914Y-57892914D01*
X82978628Y-58035771D01*
X84907200Y-58464342D02*
X84764342Y-58535771D01*
X84478628Y-58535771D01*
X84335771Y-58464342D01*
X84264342Y-58321485D01*
X84264342Y-57750057D01*
X84335771Y-57607200D01*
X84478628Y-57535771D01*
X84764342Y-57535771D01*
X84907200Y-57607200D01*
X84978628Y-57750057D01*
X84978628Y-57892914D01*
X84264342Y-58035771D01*
X85407200Y-57535771D02*
X85978628Y-57535771D01*
X85621485Y-57035771D02*
X85621485Y-58321485D01*
X85692914Y-58464342D01*
X85835771Y-58535771D01*
X85978628Y-58535771D01*
X86478628Y-58392914D02*
X86550057Y-58464342D01*
X86478628Y-58535771D01*
X86407200Y-58464342D01*
X86478628Y-58392914D01*
X86478628Y-58535771D01*
X86478628Y-57607200D02*
X86550057Y-57678628D01*
X86478628Y-57750057D01*
X86407200Y-57678628D01*
X86478628Y-57607200D01*
X86478628Y-57750057D01*
D10*
D12*
X81598628Y-54392914D02*
X81455771Y-54321485D01*
X81170057Y-54321485D01*
X81027200Y-54392914D01*
X80884342Y-54535771D01*
X80812914Y-54678628D01*
X80812914Y-54964342D01*
X80884342Y-55107200D01*
X81027200Y-55250057D01*
X81170057Y-55321485D01*
X81455771Y-55321485D01*
X81598628Y-55250057D01*
X81312914Y-53821485D02*
X80955771Y-53892914D01*
X80598628Y-54107200D01*
X80384342Y-54464342D01*
X80312914Y-54821485D01*
X80384342Y-55178628D01*
X80598628Y-55535771D01*
X80955771Y-55750057D01*
X81312914Y-55821485D01*
X81670057Y-55750057D01*
X82027200Y-55535771D01*
X82241485Y-55178628D01*
X82312914Y-54821485D01*
X82241485Y-54464342D01*
X82027200Y-54107200D01*
X81670057Y-53892914D01*
X81312914Y-53821485D01*
X83955771Y-54035771D02*
X84312914Y-55535771D01*
X84598628Y-54464342D01*
X84884342Y-55535771D01*
X85241485Y-54035771D01*
X86027200Y-55535771D02*
X85884342Y-55464342D01*
X85812914Y-55392914D01*
X85741485Y-55250057D01*
X85741485Y-54821485D01*
X85812914Y-54678628D01*
X85884342Y-54607200D01*
X86027200Y-54535771D01*
X86241485Y-54535771D01*
X86384342Y-54607200D01*
X86455771Y-54678628D01*
X86527200Y-54821485D01*
X86527200Y-55250057D01*
X86455771Y-55392914D01*
X86384342Y-55464342D01*
X86241485Y-55535771D01*
X86027200Y-55535771D01*
X87812914Y-55535771D02*
X87812914Y-54035771D01*
X87812914Y-55464342D02*
X87670057Y-55535771D01*
X87384342Y-55535771D01*
X87241485Y-55464342D01*
X87170057Y-55392914D01*
X87098628Y-55250057D01*
X87098628Y-54821485D01*
X87170057Y-54678628D01*
X87241485Y-54607200D01*
X87384342Y-54535771D01*
X87670057Y-54535771D01*
X87812914Y-54607200D01*
X88741485Y-55535771D02*
X88598628Y-55464342D01*
X88527200Y-55392914D01*
X88455771Y-55250057D01*
X88455771Y-54821485D01*
X88527200Y-54678628D01*
X88598628Y-54607200D01*
X88741485Y-54535771D01*
X88955771Y-54535771D01*
X89098628Y-54607200D01*
X89170057Y-54678628D01*
X89241485Y-54821485D01*
X89241485Y-55250057D01*
X89170057Y-55392914D01*
X89098628Y-55464342D01*
X88955771Y-55535771D01*
X88741485Y-55535771D01*
X89741485Y-54035771D02*
X90098628Y-55535771D01*
X90384342Y-54464342D01*
X90670057Y-55535771D01*
X91027200Y-54035771D01*
X91598628Y-55535771D02*
X91598628Y-54535771D01*
X91598628Y-54035771D02*
X91527200Y-54107200D01*
X91598628Y-54178628D01*
X91670057Y-54107200D01*
X91598628Y-54035771D01*
X91598628Y-54178628D01*
X92884342Y-55464342D02*
X92741485Y-55535771D01*
X92455771Y-55535771D01*
X92312914Y-55464342D01*
X92241485Y-55321485D01*
X92241485Y-54750057D01*
X92312914Y-54607200D01*
X92455771Y-54535771D01*
X92741485Y-54535771D01*
X92884342Y-54607200D01*
X92955771Y-54750057D01*
X92955771Y-54892914D01*
X92241485Y-55035771D01*
X93527200Y-55464342D02*
X93670057Y-55535771D01*
X93955771Y-55535771D01*
X94098628Y-55464342D01*
X94170057Y-55321485D01*
X94170057Y-55250057D01*
X94098628Y-55107200D01*
X93955771Y-55035771D01*
X93741485Y-55035771D01*
X93598628Y-54964342D01*
X93527200Y-54821485D01*
X93527200Y-54750057D01*
X93598628Y-54607200D01*
X93741485Y-54535771D01*
X93955771Y-54535771D01*
X94098628Y-54607200D01*
X95384342Y-55464342D02*
X95241485Y-55535771D01*
X94955771Y-55535771D01*
X94812914Y-55464342D01*
X94741485Y-55321485D01*
X94741485Y-54750057D01*
X94812914Y-54607200D01*
X94955771Y-54535771D01*
X95241485Y-54535771D01*
X95384342Y-54607200D01*
X95455771Y-54750057D01*
X95455771Y-54892914D01*
X94741485Y-55035771D01*
X96312914Y-55535771D02*
X96170057Y-55464342D01*
X96098628Y-55321485D01*
X96098628Y-54035771D01*
D10*
D11*
X80192914Y-52464342D02*
X80407200Y-52535771D01*
X80764342Y-52535771D01*
X80907200Y-52464342D01*
X80978628Y-52392914D01*
X81050057Y-52250057D01*
X81050057Y-52107200D01*
X80978628Y-51964342D01*
X80907200Y-51892914D01*
X80764342Y-51821485D01*
X80478628Y-51750057D01*
X80335771Y-51678628D01*
X80264342Y-51607200D01*
X80192914Y-51464342D01*
X80192914Y-51321485D01*
X80264342Y-51178628D01*
X80335771Y-51107200D01*
X80478628Y-51035771D01*
X80835771Y-51035771D01*
X81050057Y-51107200D01*
X81550057Y-51035771D02*
X81907200Y-52535771D01*
X82192914Y-51464342D01*
X82478628Y-52535771D01*
X82835771Y-51035771D01*
X83407200Y-51964342D02*
X84550057Y-51964342D01*
X85264342Y-52535771D02*
X85264342Y-51035771D01*
X85764342Y-52107200D01*
X86264342Y-51035771D01*
X86264342Y-52535771D01*
X87550057Y-52464342D02*
X87407200Y-52535771D01*
X87121485Y-52535771D01*
X86978628Y-52464342D01*
X86907200Y-52321485D01*
X86907200Y-51750057D01*
X86978628Y-51607200D01*
X87121485Y-51535771D01*
X87407200Y-51535771D01*
X87550057Y-51607200D01*
X87621485Y-51750057D01*
X87621485Y-51892914D01*
X86907200Y-52035771D01*
X88050057Y-51535771D02*
X88621485Y-51535771D01*
X88264342Y-51035771D02*
X88264342Y-52321485D01*
X88335771Y-52464342D01*
X88478628Y-52535771D01*
X88621485Y-52535771D01*
X89692914Y-52464342D02*
X89550057Y-52535771D01*
X89264342Y-52535771D01*
X89121485Y-52464342D01*
X89050057Y-52321485D01*
X89050057Y-51750057D01*
X89121485Y-51607200D01*
X89264342Y-51535771D01*
X89550057Y-51535771D01*
X89692914Y-51607200D01*
X89764342Y-51750057D01*
X89764342Y-51892914D01*
X89050057Y-52035771D01*
X90407200Y-52535771D02*
X90407200Y-51535771D01*
X90407200Y-51821485D02*
X90478628Y-51678628D01*
X90550057Y-51607200D01*
X90692914Y-51535771D01*
X90835771Y-51535771D01*
D10*
D11*
D10*
D11*
D10*
D11*
D10*
D11*
X98832200Y-66357200D02*
X98832200Y-69357200D01*
D10*
D11*
X162832200Y-66357200D02*
X162832200Y-72857200D01*
D14*
X79620000Y69915000D02*
X-15000Y69915000D01*
X-15000Y69915000D02*
X-15000Y-35000D01*
X-15000Y-35000D02*
X79620000Y-35000D01*
X79620000Y-35000D02*
X79620000Y69915000D01*
X81286666Y-35000D02*
G75*
G03*
X81286666Y-35000I-1666666J0D01*
G01*
X77120000Y-35000D02*
X82120000Y-35000D01*
X79620000Y2465000D02*
X79620000Y-2535000D01*
X1666666Y-20000D02*
G75*
G03*
X1666666Y-20000I-1666666J0D01*
G01*
X-2500000Y-20000D02*
X2500000Y-20000D01*
X0Y2480000D02*
X0Y-2520000D01*
X1696666Y69910000D02*
G75*
G03*
X1696666Y69910000I-1666666J0D01*
G01*
X-2470000Y69910000D02*
X2530000Y69910000D01*
X30000Y72410000D02*
X30000Y67410000D01*
X81306666Y69930000D02*
G75*
G03*
X81306666Y69930000I-1666666J0D01*
G01*
X77140000Y69930000D02*
X82140000Y69930000D01*
X79640000Y72430000D02*
X79640000Y67430000D01*
D11*
%TO.C,REF1*%
X41890000Y21970000D02*
G75*
G03*
X41890000Y21970000I-3200000J0D01*
G01*
%TD*%
M02*
