%TF.GenerationSoftware,KiCad,Pcbnew,(6.0.4)*%
%TF.CreationDate,2022-11-15T21:08:02+01:00*%
%TF.ProjectId,swmeter,73776d65-7465-4722-9e6b-696361645f70,0.2*%
%TF.SameCoordinates,Original*%
%TF.FileFunction,Plated,1,2,PTH,Mixed*%
%TF.FilePolarity,Positive*%
%FSLAX46Y46*%
G04 Gerber Fmt 4.6, Leading zero omitted, Abs format (unit mm)*
G04 Created by KiCad (PCBNEW (6.0.4)) date 2022-11-15 21:08:02*
%MOMM*%
%LPD*%
G01*
G04 APERTURE LIST*
%TA.AperFunction,ViaDrill*%
%ADD10C,0.400000*%
%TD*%
%TA.AperFunction,ComponentDrill*%
%ADD11C,0.500000*%
%TD*%
%TA.AperFunction,ComponentDrill*%
%ADD12C,0.650000*%
%TD*%
%TA.AperFunction,ComponentDrill*%
%ADD13C,0.800000*%
%TD*%
G04 aperture for slot hole*
%TA.AperFunction,ComponentDrill*%
%ADD14O,0.800000X1.300000*%
%TD*%
%TA.AperFunction,ComponentDrill*%
%ADD15C,0.900000*%
%TD*%
G04 aperture for slot hole*
%TA.AperFunction,ComponentDrill*%
%ADD16O,1.000000X1.300000*%
%TD*%
%TA.AperFunction,ComponentDrill*%
%ADD17C,1.100000*%
%TD*%
%TA.AperFunction,ComponentDrill*%
%ADD18C,1.200000*%
%TD*%
%TA.AperFunction,ComponentDrill*%
%ADD19C,1.500000*%
%TD*%
%TA.AperFunction,ComponentDrill*%
%ADD20C,2.400000*%
%TD*%
%TA.AperFunction,ComponentDrill*%
%ADD21C,3.200000*%
%TD*%
G04 APERTURE END LIST*
D10*
X99330000Y-122500000D03*
X99700000Y-90740000D03*
X100770000Y-56260000D03*
X106934000Y-69342000D03*
X118350000Y-102690000D03*
X119060000Y-90380000D03*
X133430000Y-67560000D03*
X137668000Y-87150000D03*
X137710000Y-95550000D03*
X138880000Y-68520000D03*
X141460000Y-88930000D03*
X142080000Y-56520000D03*
X142350000Y-95670000D03*
X143270000Y-123990000D03*
X143870000Y-79780000D03*
X144150000Y-67440000D03*
X144780000Y-112014000D03*
X147828000Y-70104000D03*
X147828000Y-76708000D03*
X150368000Y-87376000D03*
X151070000Y-101670000D03*
X154940000Y-78486000D03*
X155580000Y-95570000D03*
X155580000Y-102640000D03*
X155840000Y-91440000D03*
X157988000Y-79248000D03*
X160310000Y-96960000D03*
X163640000Y-96940000D03*
X167132000Y-71882000D03*
X170230000Y-76620000D03*
X176400000Y-90325000D03*
X176730000Y-122630000D03*
X176820000Y-57820000D03*
D11*
%TO.C,REF1*%
X134460000Y-103180000D03*
X135162944Y-101482944D03*
X135162944Y-104877056D03*
X136860000Y-100780000D03*
X136860000Y-105580000D03*
X138557056Y-101482944D03*
X138557056Y-104877056D03*
X139260000Y-103180000D03*
D12*
%TO.C,J3*%
X152965000Y-75960000D03*
X154235000Y-75960000D03*
X155505000Y-75960000D03*
D13*
%TO.C,SW3*%
X134875000Y-72575000D03*
X134875000Y-75115000D03*
X142495000Y-72575000D03*
X142495000Y-75115000D03*
%TO.C,R1*%
X142650000Y-104430000D03*
%TO.C,D0*%
X143690000Y-84600000D03*
%TO.C,RV2*%
X145005000Y-97615000D03*
%TO.C,RV1*%
X145035000Y-90525000D03*
%TO.C,RV2*%
X147545000Y-97615000D03*
%TO.C,RV1*%
X147575000Y-90525000D03*
%TO.C,RV2*%
X150085000Y-97615000D03*
%TO.C,RV1*%
X150115000Y-90525000D03*
%TO.C,D0*%
X151310000Y-84600000D03*
%TO.C,R1*%
X152810000Y-104430000D03*
%TO.C,U1*%
X158310000Y-83120000D03*
X158310000Y-85660000D03*
X158310000Y-88200000D03*
X158310000Y-90740000D03*
X158310000Y-93280000D03*
X158310000Y-95820000D03*
X158310000Y-98360000D03*
X158310000Y-100900000D03*
X158310000Y-103440000D03*
%TO.C,CV1*%
X161290000Y-75732000D03*
X161290000Y-78232000D03*
%TO.C,U1*%
X165930000Y-83120000D03*
X165930000Y-85660000D03*
X165930000Y-88200000D03*
X165930000Y-90740000D03*
X165930000Y-93280000D03*
X165930000Y-95820000D03*
X165930000Y-98360000D03*
X165930000Y-100900000D03*
X165930000Y-103440000D03*
D14*
%TO.C,J1*%
X169625000Y-69400000D03*
X174225000Y-69400000D03*
D15*
%TO.C,SW1*%
X124970000Y-61930000D03*
X128970000Y-61930000D03*
X132970000Y-61930000D03*
%TO.C,SW2*%
X140350000Y-61825000D03*
X144350000Y-61825000D03*
X148350000Y-61825000D03*
%TO.C,D8*%
X171730000Y-90055000D03*
%TO.C,D7*%
X171730000Y-94630000D03*
%TO.C,D6*%
X171730000Y-99180000D03*
%TO.C,D10*%
X171755000Y-80930000D03*
%TO.C,D5*%
X171755000Y-103730000D03*
%TO.C,D9*%
X171780000Y-85505000D03*
%TO.C,D4*%
X171780000Y-108330000D03*
%TO.C,D3*%
X171805000Y-112930000D03*
%TO.C,D2*%
X171830000Y-117530000D03*
%TO.C,D1*%
X171880000Y-122180000D03*
%TO.C,D8*%
X174270000Y-90055000D03*
%TO.C,D7*%
X174270000Y-94630000D03*
%TO.C,D6*%
X174270000Y-99180000D03*
%TO.C,D10*%
X174295000Y-80930000D03*
%TO.C,D5*%
X174295000Y-103730000D03*
%TO.C,D9*%
X174320000Y-85505000D03*
%TO.C,D4*%
X174320000Y-108330000D03*
%TO.C,D3*%
X174345000Y-112930000D03*
%TO.C,D2*%
X174370000Y-117530000D03*
%TO.C,D1*%
X174420000Y-122180000D03*
D16*
%TO.C,J1*%
X169175000Y-61900000D03*
X174675000Y-61900000D03*
D17*
%TO.C,J2*%
X159800000Y-63600000D03*
D18*
%TO.C,SW1*%
X122970000Y-57680000D03*
X122970000Y-63680000D03*
X134970000Y-57680000D03*
X134970000Y-63680000D03*
%TO.C,SW2*%
X138350000Y-57575000D03*
X138350000Y-63575000D03*
X150350000Y-57575000D03*
X150350000Y-63575000D03*
D19*
%TO.C,J2*%
X154775000Y-58575000D03*
X154775000Y-68625000D03*
X164825000Y-58575000D03*
X164825000Y-68625000D03*
D20*
%TO.C,BT1*%
X110550000Y-69300000D03*
X123250000Y-69300000D03*
D21*
%TO.C,REF1*%
X136860000Y-103180000D03*
M02*
