  0
SECTION
  2
HEADER
  9
$ANGBASE
  50
0.0
  9
$ANGDIR
  70
1
  9
$MEASUREMENT
  70
1
  0
ENDSEC
  0
SECTION
  2
TABLES
  0
TABLE
  2
LTYPE
  70
4
  0
LTYPE
  5
40F
  2
CONTINUOUS
  70
0
  3
Solid line
  72
65
  73
0
  40
0.0
  0
LTYPE
  5
410
  2
DASHDOT
 70
0
  3
Dash Dot ____ _ ____ _
 72
65
 73
4
 40
2.0
 49
1.25
 49
-0.25
 49
0.25
 49
-0.25
  0
LTYPE
  5
411
  2
DASHED
 70
0
  3
Dashed __ __ __ __ __
 72
65
 73
2
 40
0.75
 49
0.5
 49
-0.25
  0
LTYPE
  5
43B
  2
DOTTED
 70
0
  3
Dotted .  .  .  .
 72
65
 73
2
 40
0.2
 49
0.0
 49
-0.2
  0
ENDTAB
  0
TABLE
  2
STYLE
  70
4
  0
STYLE
  2
KICAD
  70
0
  40
0
  41
1
  42
1
  50
0
  71
0
  3
isocp.shx
  0
STYLE
  2
KICADB
  70
0
  40
0
  41
1
  42
1
  50
0
  71
0
  3
isocp.shx
  0
STYLE
  2
KICADI
  70
0
  40
0
  41
1
  42
1
  50
15
  71
0
  3
isocp.shx
  0
STYLE
  2
KICADBI
  70
0
  40
0
  41
1
  42
1
  50
15
  71
0
  3
isocp.shx
  0
ENDTAB
  0
TABLE
  2
LAYER
  70
1
  0
LAYER
  2
BLACK
  70
0
  62
7
  6
CONTINUOUS
  0
ENDTAB
  0
ENDSEC
  0
SECTION
  2
ENTITIES
0
LINE
8
BLACK
6
CONTINUOUS
10
35.4939
20
22.6844
11
35.5897
21
23.0254
0
LINE
8
BLACK
6
CONTINUOUS
10
35.5897
20
23.0254
11
35.7218
21
23.3541
0
LINE
8
BLACK
6
CONTINUOUS
10
35.7218
20
23.3541
11
35.8887
21
23.6665
0
LINE
8
BLACK
6
CONTINUOUS
10
35.8887
20
23.6665
11
36.0883
21
23.9592
0
LINE
8
BLACK
6
CONTINUOUS
10
36.0883
20
23.9592
11
36.3183
21
24.2285
0
LINE
8
BLACK
6
CONTINUOUS
10
36.3183
20
24.2285
11
36.5761
21
24.4714
0
LINE
8
BLACK
6
CONTINUOUS
10
36.5761
20
24.4714
11
36.8586
21
24.6851
0
LINE
8
BLACK
6
CONTINUOUS
10
36.8586
20
24.6851
11
37.1626
21
24.867
0
LINE
8
BLACK
6
CONTINUOUS
10
37.1626
20
24.867
11
37.4844
21
25.015
0
LINE
8
BLACK
6
CONTINUOUS
10
37.4844
20
25.015
11
37.8203
21
25.1274
0
LINE
8
BLACK
6
CONTINUOUS
10
37.8203
20
25.1274
11
38.1664
21
25.2029
0
LINE
8
BLACK
6
CONTINUOUS
10
38.1664
20
25.2029
11
38.5186
21
25.2405
0
LINE
8
BLACK
6
CONTINUOUS
10
38.5186
20
25.2405
11
38.8728
21
25.2399
0
LINE
8
BLACK
6
CONTINUOUS
10
38.8728
20
25.2399
11
39.2249
21
25.201
0
LINE
8
BLACK
6
CONTINUOUS
10
39.2249
20
25.201
11
39.5707
21
25.1244
0
LINE
8
BLACK
6
CONTINUOUS
10
39.5707
20
25.1244
11
39.9062
21
25.0108
0
LINE
8
BLACK
6
CONTINUOUS
10
39.9062
20
25.0108
11
40.2275
21
24.8617
0
LINE
8
BLACK
6
CONTINUOUS
10
40.2275
20
24.8617
11
40.5308
21
24.6787
0
LINE
8
BLACK
6
CONTINUOUS
10
40.5308
20
24.6787
11
40.8126
21
24.464
0
LINE
8
BLACK
6
CONTINUOUS
10
40.8126
20
24.464
11
41.0695
21
24.2202
0
LINE
8
BLACK
6
CONTINUOUS
10
41.0695
20
24.2202
11
41.2986
21
23.9501
0
LINE
8
BLACK
6
CONTINUOUS
10
41.2986
20
23.9501
11
41.4972
21
23.6567
0
LINE
8
BLACK
6
CONTINUOUS
10
41.4972
20
23.6567
11
41.663
21
23.3437
0
LINE
8
BLACK
6
CONTINUOUS
10
41.663
20
23.3437
11
41.7939
21
23.0146
0
LINE
8
BLACK
6
CONTINUOUS
10
41.7939
20
23.0146
11
41.8886
21
22.6733
0
LINE
8
BLACK
6
CONTINUOUS
10
41.8886
20
22.6733
11
41.9458
21
22.3237
0
LINE
8
BLACK
6
CONTINUOUS
10
41.9458
20
22.3237
11
41.965
21
21.97
0
LINE
8
BLACK
6
CONTINUOUS
10
41.965
20
21.97
11
41.9649
21
21.9471
0
LINE
8
BLACK
6
CONTINUOUS
10
41.9649
20
21.9471
11
41.9433
21
21.5936
0
LINE
8
BLACK
6
CONTINUOUS
10
41.9433
20
21.5936
11
41.8836
21
21.2444
0
LINE
8
BLACK
6
CONTINUOUS
10
41.8836
20
21.2444
11
41.7866
21
20.9038
0
LINE
8
BLACK
6
CONTINUOUS
10
41.7866
20
20.9038
11
41.6533
21
20.5756
0
LINE
8
BLACK
6
CONTINUOUS
10
41.6533
20
20.5756
11
41.4854
21
20.2637
0
LINE
8
BLACK
6
CONTINUOUS
10
41.4854
20
20.2637
11
41.2847
21
19.9718
0
LINE
8
BLACK
6
CONTINUOUS
10
41.2847
20
19.9718
11
41.0538
21
19.7032
0
LINE
8
BLACK
6
CONTINUOUS
10
41.0538
20
19.7032
11
40.7951
21
19.4612
0
LINE
8
BLACK
6
CONTINUOUS
10
40.7951
20
19.4612
11
40.5119
21
19.2485
0
LINE
8
BLACK
6
CONTINUOUS
10
40.5119
20
19.2485
11
40.2073
21
19.0677
0
LINE
8
BLACK
6
CONTINUOUS
10
40.2073
20
19.0677
11
39.885
21
18.9208
0
LINE
8
BLACK
6
CONTINUOUS
10
39.885
20
18.9208
11
39.5487
21
18.8096
0
LINE
8
BLACK
6
CONTINUOUS
10
39.5487
20
18.8096
11
39.2023
21
18.7353
0
LINE
8
BLACK
6
CONTINUOUS
10
39.2023
20
18.7353
11
38.85
21
18.6989
0
LINE
8
BLACK
6
CONTINUOUS
10
38.85
20
18.6989
11
38.4958
21
18.7008
0
LINE
8
BLACK
6
CONTINUOUS
10
38.4958
20
18.7008
11
38.1438
21
18.7409
0
LINE
8
BLACK
6
CONTINUOUS
10
38.1438
20
18.7409
11
37.7983
21
18.8187
0
LINE
8
BLACK
6
CONTINUOUS
10
37.7983
20
18.8187
11
37.4632
21
18.9335
0
LINE
8
BLACK
6
CONTINUOUS
10
37.4632
20
18.9335
11
37.1424
21
19.0837
0
LINE
8
BLACK
6
CONTINUOUS
10
37.1424
20
19.0837
11
36.8397
21
19.2678
0
LINE
8
BLACK
6
CONTINUOUS
10
36.8397
20
19.2678
11
36.5587
21
19.4834
0
LINE
8
BLACK
6
CONTINUOUS
10
36.5587
20
19.4834
11
36.3026
21
19.7281
0
LINE
8
BLACK
6
CONTINUOUS
10
36.3026
20
19.7281
11
36.0745
21
19.9991
0
LINE
8
BLACK
6
CONTINUOUS
10
36.0745
20
19.9991
11
35.8769
21
20.2931
0
LINE
8
BLACK
6
CONTINUOUS
10
35.8769
20
20.2931
11
35.7123
21
20.6067
0
LINE
8
BLACK
6
CONTINUOUS
10
35.7123
20
20.6067
11
35.5824
21
20.9362
0
LINE
8
BLACK
6
CONTINUOUS
10
35.5824
20
20.9362
11
35.489
21
21.2779
0
LINE
8
BLACK
6
CONTINUOUS
10
35.489
20
21.2779
11
35.4329
21
21.6277
0
LINE
8
BLACK
6
CONTINUOUS
10
35.4329
20
21.6277
11
35.415
21
21.9814
0
LINE
8
BLACK
6
CONTINUOUS
10
35.415
20
21.9814
11
35.4169
21
22.0137
0
LINE
8
BLACK
6
CONTINUOUS
10
35.4169
20
22.0137
11
35.4354
21
22.3351
0
LINE
8
BLACK
6
CONTINUOUS
10
35.4354
20
22.3351
11
35.4939
21
22.6844
0
LINE
8
BLACK
6
CONTINUOUS
10
35.6285
20
21.3193
11
35.7201
21
20.982
0
LINE
8
BLACK
6
CONTINUOUS
10
35.7201
20
20.982
11
35.8487
21
20.6571
0
LINE
8
BLACK
6
CONTINUOUS
10
35.8487
20
20.6571
11
36.0128
21
20.3486
0
LINE
8
BLACK
6
CONTINUOUS
10
36.0128
20
20.3486
11
36.2102
21
20.0603
0
LINE
8
BLACK
6
CONTINUOUS
10
36.2102
20
20.0603
11
36.4385
21
19.7958
0
LINE
8
BLACK
6
CONTINUOUS
10
36.4385
20
19.7958
11
36.6949
21
19.5584
0
LINE
8
BLACK
6
CONTINUOUS
10
36.6949
20
19.5584
11
36.9762
21
19.351
0
LINE
8
BLACK
6
CONTINUOUS
10
36.9762
20
19.351
11
37.2788
21
19.1763
0
LINE
8
BLACK
6
CONTINUOUS
10
37.2788
20
19.1763
11
37.599
21
19.0364
0
LINE
8
BLACK
6
CONTINUOUS
10
37.599
20
19.0364
11
37.9328
21
18.933
0
LINE
8
BLACK
6
CONTINUOUS
10
37.9328
20
18.933
11
38.276
21
18.8676
0
LINE
8
BLACK
6
CONTINUOUS
10
38.276
20
18.8676
11
38.6245
21
18.8408
0
LINE
8
BLACK
6
CONTINUOUS
10
38.6245
20
18.8408
11
38.9737
21
18.853
0
LINE
8
BLACK
6
CONTINUOUS
10
38.9737
20
18.853
11
39.3194
21
18.904
0
LINE
8
BLACK
6
CONTINUOUS
10
39.3194
20
18.904
11
39.6572
21
18.9933
0
LINE
8
BLACK
6
CONTINUOUS
10
39.6572
20
18.9933
11
39.983
21
19.1196
0
LINE
8
BLACK
6
CONTINUOUS
10
39.983
20
19.1196
11
40.2927
21
19.2815
0
LINE
8
BLACK
6
CONTINUOUS
10
40.2927
20
19.2815
11
40.5823
21
19.4769
0
LINE
8
BLACK
6
CONTINUOUS
10
40.5823
20
19.4769
11
40.8485
21
19.7034
0
LINE
8
BLACK
6
CONTINUOUS
10
40.8485
20
19.7034
11
41.0877
21
19.9581
0
LINE
8
BLACK
6
CONTINUOUS
10
41.0877
20
19.9581
11
41.297
21
20.2379
0
LINE
8
BLACK
6
CONTINUOUS
10
41.297
20
20.2379
11
41.4738
21
20.5393
0
LINE
8
BLACK
6
CONTINUOUS
10
41.4738
20
20.5393
11
41.6159
21
20.8585
0
LINE
8
BLACK
6
CONTINUOUS
10
41.6159
20
20.8585
11
41.7216
21
21.1916
0
LINE
8
BLACK
6
CONTINUOUS
10
41.7216
20
21.1916
11
41.7895
21
21.5344
0
LINE
8
BLACK
6
CONTINUOUS
10
41.7895
20
21.5344
11
41.8187
21
21.8826
0
LINE
8
BLACK
6
CONTINUOUS
10
41.8187
20
21.8826
11
41.8199
21
21.97
0
LINE
8
BLACK
6
CONTINUOUS
10
41.8199
20
21.97
11
41.8004
21
22.3189
0
LINE
8
BLACK
6
CONTINUOUS
10
41.8004
20
22.3189
11
41.7421
21
22.6634
0
LINE
8
BLACK
6
CONTINUOUS
10
41.7421
20
22.6634
11
41.6458
21
22.9993
0
LINE
8
BLACK
6
CONTINUOUS
10
41.6458
20
22.9993
11
41.5127
21
23.3224
0
LINE
8
BLACK
6
CONTINUOUS
10
41.5127
20
23.3224
11
41.3443
21
23.6286
0
LINE
8
BLACK
6
CONTINUOUS
10
41.3443
20
23.6286
11
41.1429
21
23.9141
0
LINE
8
BLACK
6
CONTINUOUS
10
41.1429
20
23.9141
11
40.9109
21
24.1755
0
LINE
8
BLACK
6
CONTINUOUS
10
40.9109
20
24.1755
11
40.6512
21
24.4093
0
LINE
8
BLACK
6
CONTINUOUS
10
40.6512
20
24.4093
11
40.3671
21
24.6127
0
LINE
8
BLACK
6
CONTINUOUS
10
40.3671
20
24.6127
11
40.0621
21
24.7832
0
LINE
8
BLACK
6
CONTINUOUS
10
40.0621
20
24.7832
11
39.7399
21
24.9186
0
LINE
8
BLACK
6
CONTINUOUS
10
39.7399
20
24.9186
11
39.4047
21
25.0172
0
LINE
8
BLACK
6
CONTINUOUS
10
39.4047
20
25.0172
11
39.0606
21
25.0779
0
LINE
8
BLACK
6
CONTINUOUS
10
39.0606
20
25.0779
11
38.7119
21
25.0998
0
LINE
8
BLACK
6
CONTINUOUS
10
38.7119
20
25.0998
11
38.3628
21
25.0828
0
LINE
8
BLACK
6
CONTINUOUS
10
38.3628
20
25.0828
11
38.0179
21
25.0269
0
LINE
8
BLACK
6
CONTINUOUS
10
38.0179
20
25.0269
11
37.6813
21
24.9329
0
LINE
8
BLACK
6
CONTINUOUS
10
37.6813
20
24.9329
11
37.3573
21
24.802
0
LINE
8
BLACK
6
CONTINUOUS
10
37.3573
20
24.802
11
37.05
21
24.6358
0
LINE
8
BLACK
6
CONTINUOUS
10
37.05
20
24.6358
11
36.763
21
24.4364
0
LINE
8
BLACK
6
CONTINUOUS
10
36.763
20
24.4364
11
36.5001
21
24.2062
0
LINE
8
BLACK
6
CONTINUOUS
10
36.5001
20
24.2062
11
36.2645
21
23.9482
0
LINE
8
BLACK
6
CONTINUOUS
10
36.2645
20
23.9482
11
36.0591
21
23.6655
0
LINE
8
BLACK
6
CONTINUOUS
10
36.0591
20
23.6655
11
35.8865
21
23.3617
0
LINE
8
BLACK
6
CONTINUOUS
10
35.8865
20
23.3617
11
35.7488
21
23.0405
0
LINE
8
BLACK
6
CONTINUOUS
10
35.7488
20
23.0405
11
35.6478
21
22.706
0
LINE
8
BLACK
6
CONTINUOUS
10
35.6478
20
22.706
11
35.5848
21
22.3623
0
LINE
8
BLACK
6
CONTINUOUS
10
35.5848
20
22.3623
11
35.5604
21
22.0137
0
LINE
8
BLACK
6
CONTINUOUS
10
35.5604
20
22.0137
11
35.575
21
21.6646
0
LINE
8
BLACK
6
CONTINUOUS
10
35.575
20
21.6646
11
35.6285
21
21.3193
0
LINE
8
BLACK
6
CONTINUOUS
10
-0.050355
20
-0.070355
11
-0.065
21
-0.035
0
LINE
8
BLACK
6
CONTINUOUS
10
-0.065
20
-0.035
11
-0.065
21
69.915
0
LINE
8
BLACK
6
CONTINUOUS
10
-0.065
20
69.915
11
-0.050355
21
69.9504
0
LINE
8
BLACK
6
CONTINUOUS
10
-0.050355
20
69.9504
11
-0.015
21
69.965
0
LINE
8
BLACK
6
CONTINUOUS
10
-0.015
20
69.965
11
79.62
21
69.965
0
LINE
8
BLACK
6
CONTINUOUS
10
79.62
20
69.965
11
79.6554
21
69.9504
0
LINE
8
BLACK
6
CONTINUOUS
10
79.6554
20
69.9504
11
79.67
21
69.915
0
LINE
8
BLACK
6
CONTINUOUS
10
79.67
20
69.915
11
79.67
21
-0.035
0
LINE
8
BLACK
6
CONTINUOUS
10
79.67
20
-0.035
11
79.6554
21
-0.070355
0
LINE
8
BLACK
6
CONTINUOUS
10
79.6554
20
-0.070355
11
79.62
21
-0.085
0
LINE
8
BLACK
6
CONTINUOUS
10
79.62
20
-0.085
11
-0.015
21
-0.085
0
LINE
8
BLACK
6
CONTINUOUS
10
-0.015
20
-0.085
11
-0.050355
21
-0.070355
0
LINE
8
BLACK
6
CONTINUOUS
10
0.035
20
69.865
11
0.035
21
0.015
0
LINE
8
BLACK
6
CONTINUOUS
10
0.035
20
0.015
11
79.57
21
0.015
0
LINE
8
BLACK
6
CONTINUOUS
10
79.57
20
0.015
11
79.57
21
69.865
0
LINE
8
BLACK
6
CONTINUOUS
10
79.57
20
69.865
11
0.035
21
69.865
  0
ENDSEC
  0
EOF
