<?xml version="1.0" standalone="no"?>
 <!DOCTYPE svg PUBLIC "-//W3C//DTD SVG 1.1//EN" 
 "http://www.w3.org/Graphics/SVG/1.1/DTD/svg11.dtd"> 
<svg
  xmlns:svg="http://www.w3.org/2000/svg"
  xmlns="http://www.w3.org/2000/svg"
  xmlns:xlink="http://www.w3.org/1999/xlink"
  version="1.1"
  width="29.700220cm" height="21.000720cm" viewBox="0 0 116930 82680">
<title>SVG Picture created as swmeter-NPTH-drl-drl_map.svg date 2022/11/07 20:33:11 </title>
  <desc>Picture generated by PCBNEW </desc>
<g style="fill:#000000; fill-opacity:1.000000;stroke:#000000; stroke-opacity:1.000000;
stroke-linecap:round; stroke-linejoin:round;"
 transform="translate(0 0) scale(1 1)">
</g>
<g style="fill:#000000; fill-opacity:0.0; 
stroke:#000000; stroke-width:0.000000; stroke-opacity:1; 
stroke-linecap:round; stroke-linejoin:round;">
</g>
<g style="fill:#000000; fill-opacity:0.0; 
stroke:#000000; stroke-width:65.197705; stroke-opacity:1; 
stroke-linecap:round; stroke-linejoin:round;">
<path d="M84425 2001
L32504 2001
" />
<path d="M32504 2001
L32504 47606
" />
<path d="M32504 47606
L84425 47606
" />
<path d="M84425 47606
L84425 2001
" />
</g>
<g style="fill:#000000; fill-opacity:0.0; 
stroke:#000000; stroke-width:130.395409; stroke-opacity:1; 
stroke-linecap:round; stroke-linejoin:round;">
</g>
<g style="fill:#000000; fill-opacity:0.0; 
stroke:#000000; stroke-width:71.717475; stroke-opacity:1; 
stroke-linecap:round; stroke-linejoin:round;">
<path d="M78612 8269
L79329 8987
" />
<path d="M79329 8269
L78612 8987
" />
<path d="M81872 8269
L82589 8987
" />
<path d="M82589 8269
L81872 8987
" />
</g>
<g style="fill:#000000; fill-opacity:0.0; 
stroke:#000000; stroke-width:169.514032; stroke-opacity:1; 
stroke-linecap:round; stroke-linejoin:round;">
<circle cx="37489.268272" cy="18277.709691" r="847.570161" /> 
<circle cx="37489.268272" cy="36533.067000" r="847.570161" /> 
<circle cx="51963.158711" cy="26916.405560" r="847.570161" /> 
</g>
<g style="fill:#000000; fill-opacity:0.0; 
stroke:#000000; stroke-width:130.395409; stroke-opacity:1; 
stroke-linecap:round; stroke-linejoin:round;">
</g>
<g style="fill:#000000; fill-opacity:0.0; 
stroke:#000000; stroke-width:78.739920; stroke-opacity:1; 
stroke-linecap:round; stroke-linejoin:round;">
<text x="33259.706705" y="48899.338622"
textLength="5853.019621" font-size="1049.868859" lengthAdjust="spacingAndGlyphs"
text-anchor="start" opacity="0">Drill Map:</text>
<g class="stroked-text"><desc>Drill Map:</desc>
<path d="M33486 48861
L33486 48074
L33674 48074
L33786 48111
L33861 48186
L33899 48261
L33936 48411
L33936 48524
L33899 48674
L33861 48749
L33786 48824
L33674 48861
L33486 48861
" />
<path d="M34273 48861
L34273 48336
" />
<path d="M34273 48486
L34311 48411
L34348 48374
L34423 48336
L34498 48336
" />
<path d="M34761 48861
L34761 48336
" />
<path d="M34761 48074
L34723 48111
L34761 48149
L34798 48111
L34761 48074
L34761 48149
" />
<path d="M35248 48861
L35173 48824
L35136 48749
L35136 48074
" />
<path d="M35661 48861
L35586 48824
L35548 48749
L35548 48074
" />
<path d="M36561 48861
L36561 48074
L36823 48636
L37086 48074
L37086 48861
" />
<path d="M37798 48861
L37798 48449
L37761 48374
L37686 48336
L37536 48336
L37461 48374
" />
<path d="M37798 48824
L37723 48861
L37536 48861
L37461 48824
L37423 48749
L37423 48674
L37461 48599
L37536 48561
L37723 48561
L37798 48524
" />
<path d="M38173 48336
L38173 49124
" />
<path d="M38173 48374
L38248 48336
L38398 48336
L38473 48374
L38510 48411
L38548 48486
L38548 48711
L38510 48786
L38473 48824
L38398 48861
L38248 48861
L38173 48824
" />
<path d="M38885 48786
L38923 48824
L38885 48861
L38848 48824
L38885 48786
L38885 48861
" />
<path d="M38885 48374
L38923 48411
L38885 48449
L38848 48411
L38885 48374
L38885 48449
" />
</g></g>
<g style="fill:#000000; fill-opacity:0.0; 
stroke:#000000; stroke-width:71.717475; stroke-opacity:1; 
stroke-linecap:round; stroke-linejoin:round;">
<path d="M31755 49800
L32472 50517
" />
<path d="M32472 49800
L31755 50517
" />
</g>
<g style="fill:#000000; fill-opacity:0.0; 
stroke:#000000; stroke-width:130.395409; stroke-opacity:1; 
stroke-linecap:round; stroke-linejoin:round;">
</g>
<g style="fill:#000000; fill-opacity:0.0; 
stroke:#000000; stroke-width:78.739920; stroke-opacity:1; 
stroke-linecap:round; stroke-linejoin:round;">
<text x="33259.706705" y="50552.882156"
textLength="26250.476205" font-size="1049.868859" lengthAdjust="spacingAndGlyphs"
text-anchor="start" opacity="0">1.100mm / 0.0433" (2 holes) (not plated)</text>
<g class="stroked-text"><desc>1.100mm / 0.0433" (2 holes) (not plated)</desc>
<path d="M33899 50515
L33449 50515
" />
<path d="M33674 50515
L33674 49727
L33599 49840
L33524 49915
L33449 49952
" />
<path d="M34236 50440
L34273 50477
L34236 50515
L34198 50477
L34236 50440
L34236 50515
" />
<path d="M35023 50515
L34573 50515
" />
<path d="M34798 50515
L34798 49727
L34723 49840
L34648 49915
L34573 49952
" />
<path d="M35511 49727
L35586 49727
L35661 49765
L35698 49802
L35736 49877
L35773 50027
L35773 50215
L35736 50365
L35698 50440
L35661 50477
L35586 50515
L35511 50515
L35436 50477
L35398 50440
L35361 50365
L35323 50215
L35323 50027
L35361 49877
L35398 49802
L35436 49765
L35511 49727
" />
<path d="M36261 49727
L36336 49727
L36411 49765
L36448 49802
L36486 49877
L36523 50027
L36523 50215
L36486 50365
L36448 50440
L36411 50477
L36336 50515
L36261 50515
L36186 50477
L36148 50440
L36111 50365
L36073 50215
L36073 50027
L36111 49877
L36148 49802
L36186 49765
L36261 49727
" />
<path d="M36861 50515
L36861 49990
" />
<path d="M36861 50065
L36898 50027
L36973 49990
L37086 49990
L37161 50027
L37198 50102
L37198 50515
" />
<path d="M37198 50102
L37236 50027
L37311 49990
L37423 49990
L37498 50027
L37536 50102
L37536 50515
" />
<path d="M37911 50515
L37911 49990
" />
<path d="M37911 50065
L37948 50027
L38023 49990
L38135 49990
L38210 50027
L38248 50102
L38248 50515
" />
<path d="M38248 50102
L38285 50027
L38360 49990
L38473 49990
L38548 50027
L38585 50102
L38585 50515
" />
<path d="M40123 49690
L39448 50702
" />
<path d="M41135 49727
L41210 49727
L41285 49765
L41323 49802
L41360 49877
L41398 50027
L41398 50215
L41360 50365
L41323 50440
L41285 50477
L41210 50515
L41135 50515
L41060 50477
L41023 50440
L40985 50365
L40948 50215
L40948 50027
L40985 49877
L41023 49802
L41060 49765
L41135 49727
" />
<path d="M41735 50440
L41773 50477
L41735 50515
L41698 50477
L41735 50440
L41735 50515
" />
<path d="M42260 49727
L42335 49727
L42410 49765
L42447 49802
L42485 49877
L42522 50027
L42522 50215
L42485 50365
L42447 50440
L42410 50477
L42335 50515
L42260 50515
L42185 50477
L42147 50440
L42110 50365
L42072 50215
L42072 50027
L42110 49877
L42147 49802
L42185 49765
L42260 49727
" />
<path d="M43197 49990
L43197 50515
" />
<path d="M43010 49690
L42822 50252
L43310 50252
" />
<path d="M43535 49727
L44022 49727
L43760 50027
L43872 50027
L43947 50065
L43985 50102
L44022 50177
L44022 50365
L43985 50440
L43947 50477
L43872 50515
L43647 50515
L43572 50477
L43535 50440
" />
<path d="M44285 49727
L44772 49727
L44510 50027
L44622 50027
L44697 50065
L44735 50102
L44772 50177
L44772 50365
L44735 50440
L44697 50477
L44622 50515
L44397 50515
L44322 50477
L44285 50440
" />
<path d="M45072 49727
L45072 49877
" />
<path d="M45372 49727
L45372 49877
" />
<path d="M46534 50815
L46497 50777
L46422 50665
L46384 50590
L46347 50477
L46309 50290
L46309 50140
L46347 49952
L46384 49840
L46422 49765
L46497 49652
L46534 49615
" />
<path d="M46797 49802
L46834 49765
L46909 49727
L47097 49727
L47172 49765
L47209 49802
L47247 49877
L47247 49952
L47209 50065
L46759 50515
L47247 50515
" />
<path d="M48184 50515
L48184 49727
" />
<path d="M48522 50515
L48522 50102
L48484 50027
L48409 49990
L48297 49990
L48222 50027
L48184 50065
" />
<path d="M49009 50515
L48934 50477
L48897 50440
L48859 50365
L48859 50140
L48897 50065
L48934 50027
L49009 49990
L49122 49990
L49197 50027
L49234 50065
L49272 50140
L49272 50365
L49234 50440
L49197 50477
L49122 50515
L49009 50515
" />
<path d="M49722 50515
L49647 50477
L49609 50402
L49609 49727
" />
<path d="M50321 50477
L50246 50515
L50096 50515
L50021 50477
L49984 50402
L49984 50102
L50021 50027
L50096 49990
L50246 49990
L50321 50027
L50359 50102
L50359 50177
L49984 50252
" />
<path d="M50659 50477
L50734 50515
L50884 50515
L50959 50477
L50996 50402
L50996 50365
L50959 50290
L50884 50252
L50771 50252
L50696 50215
L50659 50140
L50659 50102
L50696 50027
L50771 49990
L50884 49990
L50959 50027
" />
<path d="M51259 50815
L51296 50777
L51371 50665
L51409 50590
L51446 50477
L51484 50290
L51484 50140
L51446 49952
L51409 49840
L51371 49765
L51296 49652
L51259 49615
" />
<path d="M52684 50815
L52646 50777
L52571 50665
L52534 50590
L52496 50477
L52459 50290
L52459 50140
L52496 49952
L52534 49840
L52571 49765
L52646 49652
L52684 49615
" />
<path d="M52984 49990
L52984 50515
" />
<path d="M52984 50065
L53021 50027
L53096 49990
L53209 49990
L53284 50027
L53321 50102
L53321 50515
" />
<path d="M53809 50515
L53734 50477
L53696 50440
L53659 50365
L53659 50140
L53696 50065
L53734 50027
L53809 49990
L53921 49990
L53996 50027
L54033 50065
L54071 50140
L54071 50365
L54033 50440
L53996 50477
L53921 50515
L53809 50515
" />
<path d="M54296 49990
L54596 49990
" />
<path d="M54408 49727
L54408 50402
L54446 50477
L54521 50515
L54596 50515
" />
<path d="M55458 49990
L55458 50777
" />
<path d="M55458 50027
L55533 49990
L55683 49990
L55758 50027
L55796 50065
L55833 50140
L55833 50365
L55796 50440
L55758 50477
L55683 50515
L55533 50515
L55458 50477
" />
<path d="M56283 50515
L56208 50477
L56171 50402
L56171 49727
" />
<path d="M56921 50515
L56921 50102
L56883 50027
L56808 49990
L56658 49990
L56583 50027
" />
<path d="M56921 50477
L56846 50515
L56658 50515
L56583 50477
L56546 50402
L56546 50327
L56583 50252
L56658 50215
L56846 50215
L56921 50177
" />
<path d="M57183 49990
L57483 49990
" />
<path d="M57296 49727
L57296 50402
L57333 50477
L57408 50515
L57483 50515
" />
<path d="M58045 50477
L57970 50515
L57821 50515
L57746 50477
L57708 50402
L57708 50102
L57746 50027
L57821 49990
L57970 49990
L58045 50027
L58083 50102
L58083 50177
L57708 50252
" />
<path d="M58758 50515
L58758 49727
" />
<path d="M58758 50477
L58683 50515
L58533 50515
L58458 50477
L58420 50440
L58383 50365
L58383 50140
L58420 50065
L58458 50027
L58533 49990
L58683 49990
L58758 50027
" />
<path d="M59058 50815
L59095 50777
L59170 50665
L59208 50590
L59245 50477
L59283 50290
L59283 50140
L59245 49952
L59208 49840
L59170 49765
L59095 49652
L59058 49615
" />
</g><circle cx="32078.603994" cy="51348.796176" r="393.700904" /> 
</g>
<g style="fill:#000000; fill-opacity:0.0; 
stroke:#000000; stroke-width:130.395409; stroke-opacity:1; 
stroke-linecap:round; stroke-linejoin:round;">
</g>
<g style="fill:#000000; fill-opacity:0.0; 
stroke:#000000; stroke-width:78.739920; stroke-opacity:1; 
stroke-linecap:round; stroke-linejoin:round;">
<text x="33259.706705" y="51742.497079"
textLength="26250.476205" font-size="1049.868859" lengthAdjust="spacingAndGlyphs"
text-anchor="start" opacity="0">2.600mm / 0.1024" (3 holes) (not plated)</text>
<g class="stroked-text"><desc>2.600mm / 0.1024" (3 holes) (not plated)</desc>
<path d="M33449 50992
L33486 50955
L33561 50917
L33749 50917
L33824 50955
L33861 50992
L33899 51067
L33899 51142
L33861 51255
L33411 51705
L33899 51705
" />
<path d="M34236 51630
L34273 51667
L34236 51705
L34198 51667
L34236 51630
L34236 51705
" />
<path d="M34948 50917
L34798 50917
L34723 50955
L34686 50992
L34611 51105
L34573 51255
L34573 51555
L34611 51630
L34648 51667
L34723 51705
L34873 51705
L34948 51667
L34986 51630
L35023 51555
L35023 51367
L34986 51292
L34948 51255
L34873 51217
L34723 51217
L34648 51255
L34611 51292
L34573 51367
" />
<path d="M35511 50917
L35586 50917
L35661 50955
L35698 50992
L35736 51067
L35773 51217
L35773 51405
L35736 51555
L35698 51630
L35661 51667
L35586 51705
L35511 51705
L35436 51667
L35398 51630
L35361 51555
L35323 51405
L35323 51217
L35361 51067
L35398 50992
L35436 50955
L35511 50917
" />
<path d="M36261 50917
L36336 50917
L36411 50955
L36448 50992
L36486 51067
L36523 51217
L36523 51405
L36486 51555
L36448 51630
L36411 51667
L36336 51705
L36261 51705
L36186 51667
L36148 51630
L36111 51555
L36073 51405
L36073 51217
L36111 51067
L36148 50992
L36186 50955
L36261 50917
" />
<path d="M36861 51705
L36861 51180
" />
<path d="M36861 51255
L36898 51217
L36973 51180
L37086 51180
L37161 51217
L37198 51292
L37198 51705
" />
<path d="M37198 51292
L37236 51217
L37311 51180
L37423 51180
L37498 51217
L37536 51292
L37536 51705
" />
<path d="M37911 51705
L37911 51180
" />
<path d="M37911 51255
L37948 51217
L38023 51180
L38135 51180
L38210 51217
L38248 51292
L38248 51705
" />
<path d="M38248 51292
L38285 51217
L38360 51180
L38473 51180
L38548 51217
L38585 51292
L38585 51705
" />
<path d="M40123 50880
L39448 51892
" />
<path d="M41135 50917
L41210 50917
L41285 50955
L41323 50992
L41360 51067
L41398 51217
L41398 51405
L41360 51555
L41323 51630
L41285 51667
L41210 51705
L41135 51705
L41060 51667
L41023 51630
L40985 51555
L40948 51405
L40948 51217
L40985 51067
L41023 50992
L41060 50955
L41135 50917
" />
<path d="M41735 51630
L41773 51667
L41735 51705
L41698 51667
L41735 51630
L41735 51705
" />
<path d="M42522 51705
L42072 51705
" />
<path d="M42297 51705
L42297 50917
L42222 51030
L42147 51105
L42072 51142
" />
<path d="M43010 50917
L43085 50917
L43160 50955
L43197 50992
L43235 51067
L43272 51217
L43272 51405
L43235 51555
L43197 51630
L43160 51667
L43085 51705
L43010 51705
L42935 51667
L42897 51630
L42860 51555
L42822 51405
L42822 51217
L42860 51067
L42897 50992
L42935 50955
L43010 50917
" />
<path d="M43572 50992
L43610 50955
L43685 50917
L43872 50917
L43947 50955
L43985 50992
L44022 51067
L44022 51142
L43985 51255
L43535 51705
L44022 51705
" />
<path d="M44697 51180
L44697 51705
" />
<path d="M44510 50880
L44322 51442
L44810 51442
" />
<path d="M45072 50917
L45072 51067
" />
<path d="M45372 50917
L45372 51067
" />
<path d="M46534 52004
L46497 51967
L46422 51854
L46384 51779
L46347 51667
L46309 51480
L46309 51330
L46347 51142
L46384 51030
L46422 50955
L46497 50842
L46534 50805
" />
<path d="M46759 50917
L47247 50917
L46984 51217
L47097 51217
L47172 51255
L47209 51292
L47247 51367
L47247 51555
L47209 51630
L47172 51667
L47097 51705
L46872 51705
L46797 51667
L46759 51630
" />
<path d="M48184 51705
L48184 50917
" />
<path d="M48522 51705
L48522 51292
L48484 51217
L48409 51180
L48297 51180
L48222 51217
L48184 51255
" />
<path d="M49009 51705
L48934 51667
L48897 51630
L48859 51555
L48859 51330
L48897 51255
L48934 51217
L49009 51180
L49122 51180
L49197 51217
L49234 51255
L49272 51330
L49272 51555
L49234 51630
L49197 51667
L49122 51705
L49009 51705
" />
<path d="M49722 51705
L49647 51667
L49609 51592
L49609 50917
" />
<path d="M50321 51667
L50246 51705
L50096 51705
L50021 51667
L49984 51592
L49984 51292
L50021 51217
L50096 51180
L50246 51180
L50321 51217
L50359 51292
L50359 51367
L49984 51442
" />
<path d="M50659 51667
L50734 51705
L50884 51705
L50959 51667
L50996 51592
L50996 51555
L50959 51480
L50884 51442
L50771 51442
L50696 51405
L50659 51330
L50659 51292
L50696 51217
L50771 51180
L50884 51180
L50959 51217
" />
<path d="M51259 52004
L51296 51967
L51371 51854
L51409 51779
L51446 51667
L51484 51480
L51484 51330
L51446 51142
L51409 51030
L51371 50955
L51296 50842
L51259 50805
" />
<path d="M52684 52004
L52646 51967
L52571 51854
L52534 51779
L52496 51667
L52459 51480
L52459 51330
L52496 51142
L52534 51030
L52571 50955
L52646 50842
L52684 50805
" />
<path d="M52984 51180
L52984 51705
" />
<path d="M52984 51255
L53021 51217
L53096 51180
L53209 51180
L53284 51217
L53321 51292
L53321 51705
" />
<path d="M53809 51705
L53734 51667
L53696 51630
L53659 51555
L53659 51330
L53696 51255
L53734 51217
L53809 51180
L53921 51180
L53996 51217
L54033 51255
L54071 51330
L54071 51555
L54033 51630
L53996 51667
L53921 51705
L53809 51705
" />
<path d="M54296 51180
L54596 51180
" />
<path d="M54408 50917
L54408 51592
L54446 51667
L54521 51705
L54596 51705
" />
<path d="M55458 51180
L55458 51967
" />
<path d="M55458 51217
L55533 51180
L55683 51180
L55758 51217
L55796 51255
L55833 51330
L55833 51555
L55796 51630
L55758 51667
L55683 51705
L55533 51705
L55458 51667
" />
<path d="M56283 51705
L56208 51667
L56171 51592
L56171 50917
" />
<path d="M56921 51705
L56921 51292
L56883 51217
L56808 51180
L56658 51180
L56583 51217
" />
<path d="M56921 51667
L56846 51705
L56658 51705
L56583 51667
L56546 51592
L56546 51517
L56583 51442
L56658 51405
L56846 51405
L56921 51367
" />
<path d="M57183 51180
L57483 51180
" />
<path d="M57296 50917
L57296 51592
L57333 51667
L57408 51705
L57483 51705
" />
<path d="M58045 51667
L57970 51705
L57821 51705
L57746 51667
L57708 51592
L57708 51292
L57746 51217
L57821 51180
L57970 51180
L58045 51217
L58083 51292
L58083 51367
L57708 51442
" />
<path d="M58758 51705
L58758 50917
" />
<path d="M58758 51667
L58683 51705
L58533 51705
L58458 51667
L58420 51630
L58383 51555
L58383 51330
L58420 51255
L58458 51217
L58533 51180
L58683 51180
L58758 51217
" />
<path d="M59058 52004
L59095 51967
L59170 51854
L59208 51779
L59245 51667
L59283 51480
L59283 51330
L59245 51142
L59208 51030
L59170 50955
L59095 50842
L59058 50805
" />
</g></g> 
</svg>
