<?xml version="1.0" standalone="no"?>
 <!DOCTYPE svg PUBLIC "-//W3C//DTD SVG 1.1//EN" 
 "http://www.w3.org/Graphics/SVG/1.1/DTD/svg11.dtd"> 
<svg
  xmlns:svg="http://www.w3.org/2000/svg"
  xmlns="http://www.w3.org/2000/svg"
  xmlns:xlink="http://www.w3.org/1999/xlink"
  version="1.1"
  width="29.700220cm" height="21.000720cm" viewBox="0 0 297002200 210007200">
<title>SVG Picture created as swmeter-F_Fab.svg date 2022/10/21 18:23:59 </title>
  <desc>Picture generated by PCBNEW </desc>
<g style="fill:#000000; fill-opacity:1.000000;stroke:#000000; stroke-opacity:1.000000;
stroke-linecap:round; stroke-linejoin:round;"
 transform="translate(0 0) scale(1 1)">
</g>
<g style="fill:#000000; fill-opacity:0.0; 
stroke:#000000; stroke-width:0.000000; stroke-opacity:1; 
stroke-linecap:round; stroke-linejoin:round;">
</g>
<g style="fill:#000000; fill-opacity:0.0; 
stroke:#000000; stroke-width:100000.000000; stroke-opacity:1; 
stroke-linecap:round; stroke-linejoin:round;">
<path d="M177790000 55235000
L98155000 55235000
" />
<path d="M98155000 55235000
L98155000 125185000
" />
<path d="M98155000 125185000
L177790000 125185000
" />
<path d="M177790000 125185000
L177790000 55235000
" />
<circle cx="98170000.000000" cy="125170000.000000" r="1666666.000000" /> 
<path d="M95670000 125170000
L100670000 125170000
" />
<path d="M98170000 122670000
L98170000 127670000
" />
</g>
<g style="fill:#000000; fill-opacity:0.0; 
stroke:#000000; stroke-width:150000.000000; stroke-opacity:1; 
stroke-linecap:round; stroke-linejoin:round;">
<text x="136860000.000000" y="103680000.000000"
textLength="3909286.000000" font-size="1333333.000000" lengthAdjust="spacingAndGlyphs"
text-anchor="middle" opacity="0">REF1</text>
<g class="stroked-text"><desc>REF1</desc>
<path d="M135812380 103632380
L135479047 103156190
" />
<path d="M135240952 103632380
L135240952 102632380
L135621904 102632380
L135717142 102680000
L135764761 102727619
L135812380 102822857
L135812380 102965714
L135764761 103060952
L135717142 103108571
L135621904 103156190
L135240952 103156190
" />
<path d="M136240952 103108571
L136574285 103108571
" />
<path d="M136717142 103632380
L136240952 103632380
L136240952 102632380
L136717142 102632380
" />
<path d="M137479047 103108571
L137145714 103108571
" />
<path d="M137145714 103632380
L137145714 102632380
L137621904 102632380
" />
<path d="M138526666 103632380
L137955238 103632380
" />
<path d="M138240952 103632380
L138240952 102632380
L138145714 102775238
L138050476 102870476
L137955238 102918095
" />
</g></g>
<g style="fill:#000000; fill-opacity:0.0; 
stroke:#000000; stroke-width:100000.000000; stroke-opacity:1; 
stroke-linecap:round; stroke-linejoin:round;">
<path d="M128862500 60490000
L130215833 60490000
" />
<path d="M132922500 59290000
L128862500 59290000
" />
<path d="M128862500 59590000
L130215833 59590000
" />
<path d="M128862500 59490000
L130215833 59490000
" />
<path d="M135782500 62285000
L126002500 62285000
" />
<path d="M128862500 60560000
L132922500 60560000
" />
<path d="M126002500 62285000
L126002500 58565000
" />
<path d="M132922500 60560000
L132922500 59290000
" />
<path d="M128862500 59890000
L130215833 59890000
" />
<path d="M130215833 59290000
L130215833 60560000
" />
<path d="M128862500 60290000
L130215833 60290000
" />
<path d="M135782500 57565000
L135782500 62285000
" />
<path d="M128862500 60090000
L130215833 60090000
" />
<path d="M128862500 59790000
L130215833 59790000
" />
<path d="M127002500 57565000
L135782500 57565000
" />
<path d="M128862500 59290000
L128862500 60560000
" />
<path d="M126002500 58565000
L127002500 57565000
" />
<path d="M128862500 59690000
L130215833 59690000
" />
<path d="M128862500 59990000
L130215833 59990000
" />
<path d="M128862500 60390000
L130215833 60390000
" />
<path d="M128862500 60190000
L130215833 60190000
" />
<path d="M128862500 59390000
L130215833 59390000
" />
<path d="M150250000 63825000
L151250000 62825000
" />
<path d="M151250000 57325000
L151250000 62825000
" />
<path d="M143850000 48325000
L148850000 48325000
" />
<path d="M137450000 63825000
L137450000 57325000
" />
<path d="M137450000 57325000
L151250000 57325000
" />
<path d="M143850000 57325000
L143850000 48325000
" />
<path d="M150250000 63825000
L137450000 63825000
" />
<path d="M148850000 48325000
L148850000 57325000
" />
<path d="M171550000 107163810
L171550000 109496190
" />
<path d="M171549444.919901 109495476.062212 A1900000.000000 1900000.000000 0.0 1 0 171549999.816364 107163809.857231" />
<circle cx="173050000.000000" cy="108330000.000000" r="1500000.000000" /> 
<path d="M169425000 55900000
L174425000 55900000
" />
<path d="M174425000 58400000
L174425000 55900000
" />
<path d="M168675000 58400000
L169425000 58400000
" />
<path d="M168675000 69900000
L175175000 69900000
" />
<path d="M168675000 69900000
L168675000 58400000
" />
<path d="M174425000 58400000
L175175000 58400000
" />
<path d="M175175000 58400000
L175175000 69900000
" />
<path d="M169425000 55900000
L169425000 58400000
" />
<path d="M144220000 88185000
L144220000 92685000
" />
<path d="M150930000 88185000
L144220000 88185000
" />
<path d="M145440000 88573000
L145439000 90336000
" />
<path d="M145440000 88573000
L145439000 90336000
" />
<path d="M144220000 92685000
L150930000 92685000
" />
<path d="M150930000 92685000
L150930000 88185000
" />
<circle cx="145440000.000000" cy="89455000.000000" r="890000.000000" /> 
<path d="M171525000 79763810
L171525000 82096190
" />
<path d="M171524444.919901 82095476.062212 A1900000.000000 1900000.000000 0.0 1 0 171524999.816364 79763809.857231" />
<circle cx="173025000.000000" cy="80930000.000000" r="1500000.000000" /> 
<path d="M123500000 73300000
L123500000 71300000
" />
<path d="M123000000 71300000
L123000000 73300000
" />
<path d="M103900000 71300000
L103900000 96300000
" />
<path d="M132000000 66200000
L132000000 120700000
" />
<path d="M125900000 119300000
L107900000 119300000
" />
<path d="M101800000 66200000
L132000000 66200000
" />
<path d="M125900000 120700000
L125900000 116300000
" />
<path d="M112600000 73300000
L112600000 71300000
" />
<path d="M132000000 120700000
L101800000 120700000
" />
<path d="M125800000 73300000
L125800000 71300000
" />
<path d="M120700000 73300000
L125800000 73300000
" />
<path d="M132000000 67450000
L101800000 67450000
" />
<path d="M107900000 120700000
L107900000 116300000
" />
<path d="M125900000 117300000
L107900000 117300000
" />
<path d="M101800000 120700000
L101800000 66200000
" />
<path d="M125900000 118300000
L107900000 118300000
" />
<path d="M121200000 73300000
L121200000 71300000
" />
<path d="M103900000 96300000
L101800000 96300000
" />
<path d="M125300000 71300000
L125300000 73300000
" />
<path d="M120700000 71300000
L120700000 73300000
" />
<path d="M129900000 71300000
L129900000 96300000
" />
<path d="M129900000 96300000
L132000000 96300000
" />
<path d="M101800000 71300000
L132000000 71300000
" />
<path d="M108500000 71300000
L108500000 73300000
" />
<path d="M125900000 116300000
L107900000 116300000
" />
<path d="M108500000 73300000
L112600000 73300000
" />
<path d="M156860000 77250000
L156335000 76725000
" />
<path d="M156335000 75150000
L160145000 75150000
" />
<path d="M160145000 77250000
L156860000 77250000
" />
<path d="M156335000 76725000
L156335000 75150000
" />
<path d="M160145000 75150000
L160145000 77250000
" />
<path d="M171650000 121013810
L171650000 123346190
" />
<path d="M171649444.919901 123345476.062212 A1900000.000000 1900000.000000 0.0 1 0 171649999.816364 121013809.857231" />
<circle cx="173150000.000000" cy="122180000.000000" r="1500000.000000" /> 
<path d="M171550000 84338810
L171550000 86671190
" />
<path d="M171549444.919901 86670476.062212 A1900000.000000 1900000.000000 0.0 1 0 171549999.816364 84338809.857231" />
<circle cx="173050000.000000" cy="85505000.000000" r="1500000.000000" /> 
<path d="M171525000 102563810
L171525000 104896190
" />
<path d="M171524444.919901 104895476.062212 A1900000.000000 1900000.000000 0.0 1 0 171524999.816364 102563809.857231" />
<circle cx="173025000.000000" cy="103730000.000000" r="1500000.000000" /> 
<path d="M171500000 93463810
L171500000 95796190
" />
<path d="M171499444.919901 95795476.062212 A1900000.000000 1900000.000000 0.0 1 0 171499999.816364 93463809.857231" />
<circle cx="173000000.000000" cy="94630000.000000" r="1500000.000000" /> 
<path d="M135335000 77165000
L135335000 71525000
" />
<path d="M142035000 70525000
L142035000 77165000
" />
<path d="M136875000 75180000
L138081667 75180000
" />
<path d="M136875000 75580000
L138081667 75580000
" />
<path d="M136875000 72340000
L138081667 72340000
" />
<path d="M136875000 71940000
L136875000 73210000
" />
<path d="M136875000 72040000
L138081667 72040000
" />
<path d="M136875000 74580000
L138081667 74580000
" />
<path d="M136875000 72240000
L138081667 72240000
" />
<path d="M136875000 74980000
L138081667 74980000
" />
<path d="M135335000 71525000
L136335000 70525000
" />
<path d="M136335000 70525000
L142035000 70525000
" />
<path d="M140495000 75750000
L140495000 74480000
" />
<path d="M136875000 72640000
L138081667 72640000
" />
<path d="M136875000 72440000
L138081667 72440000
" />
<path d="M136875000 74880000
L138081667 74880000
" />
<path d="M136875000 75080000
L138081667 75080000
" />
<path d="M136875000 75750000
L140495000 75750000
" />
<path d="M138081667 71940000
L138081667 73210000
" />
<path d="M136875000 72140000
L138081667 72140000
" />
<path d="M136875000 73040000
L138081667 73040000
" />
<path d="M136875000 75680000
L138081667 75680000
" />
<path d="M136875000 74480000
L136875000 75750000
" />
<path d="M140495000 71940000
L136875000 71940000
" />
<path d="M138081667 74480000
L138081667 75750000
" />
<path d="M140495000 73210000
L140495000 71940000
" />
<path d="M140495000 74480000
L136875000 74480000
" />
<path d="M136875000 75380000
L138081667 75380000
" />
<path d="M136875000 73210000
L140495000 73210000
" />
<path d="M136875000 75480000
L138081667 75480000
" />
<path d="M136875000 72540000
L138081667 72540000
" />
<path d="M136875000 72740000
L138081667 72740000
" />
<path d="M136875000 72940000
L138081667 72940000
" />
<path d="M136875000 74780000
L138081667 74780000
" />
<path d="M136875000 72840000
L138081667 72840000
" />
<path d="M142035000 77165000
L135335000 77165000
" />
<path d="M136875000 74680000
L138081667 74680000
" />
<path d="M136875000 75280000
L138081667 75280000
" />
<path d="M136875000 73140000
L138081667 73140000
" />
<path d="M144580000 103180000
L144580000 105680000
" />
<path d="M150880000 103180000
L144580000 103180000
" />
<path d="M150880000 105680000
L150880000 103180000
" />
<path d="M152810000 104430000
L150880000 104430000
" />
<path d="M144580000 105680000
L150880000 105680000
" />
<path d="M142650000 104430000
L144580000 104430000
" />
<path d="M167200000 81790000
L157040000 81790000
" />
<path d="M159945000 81850000
L165295000 81850000
" />
<path d="M167200000 104770000
L167200000 81790000
" />
<path d="M158945000 104710000
L158945000 82850000
" />
<path d="M165295000 81850000
L165295000 104710000
" />
<path d="M157040000 81790000
L157040000 104770000
" />
<path d="M157040000 104770000
L167200000 104770000
" />
<path d="M165295000 104710000
L158945000 104710000
" />
<path d="M158945000 82850000
L159945000 81850000
" />
<path d="M154300000 58100000
L165300000 58100000
" />
<path d="M155000000 58100000
L155000000 46700000
" />
<path d="M164600000 58100000
L164600000 46700000
" />
<path d="M165300000 58100000
L165300000 69100000
" />
<path d="M154300000 69100000
L154300000 58100000
" />
<path d="M164600000 46700000
L155000000 46700000
" />
<path d="M165300000 69100000
L154300000 69100000
" />
<circle cx="159800000.000000" cy="50900000.000000" r="1000000.000000" /> 
<path d="M171600000 116363810
L171600000 118696190
" />
<path d="M171599444.919901 118695476.062212 A1900000.000000 1900000.000000 0.0 1 0 171599999.816364 116363809.857231" />
<circle cx="173100000.000000" cy="117530000.000000" r="1500000.000000" /> 
<path d="M145500000 85600000
L149500000 85600000
" />
<path d="M145500000 83600000
L145500000 85600000
" />
<path d="M149500000 83600000
L145500000 83600000
" />
<path d="M148900000 85600000
L148900000 83600000
" />
<path d="M143690000 84600000
L145500000 84600000
" />
<path d="M149000000 85600000
L149000000 83600000
" />
<path d="M149500000 85600000
L149500000 83600000
" />
<path d="M151310000 84600000
L149500000 84600000
" />
<path d="M148800000 85600000
L148800000 83600000
" />
<path d="M171575000 111763810
L171575000 114096190
" />
<path d="M171574444.919901 114095476.062212 A1900000.000000 1900000.000000 0.0 1 0 171574999.816364 111763809.857231" />
<circle cx="173075000.000000" cy="112930000.000000" r="1500000.000000" /> 
<path d="M171500000 88888810
L171500000 91221190
" />
<path d="M171499444.919901 91220476.062212 A1900000.000000 1900000.000000 0.0 1 0 171499999.816364 88888809.857231" />
<circle cx="173000000.000000" cy="90055000.000000" r="1500000.000000" /> 
<path d="M145410000 95663000
L145409000 97426000
" />
<path d="M150900000 99775000
L150900000 95275000
" />
<path d="M145410000 95663000
L145409000 97426000
" />
<path d="M144190000 95275000
L144190000 99775000
" />
<path d="M144190000 99775000
L150900000 99775000
" />
<path d="M150900000 95275000
L144190000 95275000
" />
<circle cx="145410000.000000" cy="96545000.000000" r="890000.000000" /> 
<path d="M171500000 98013810
L171500000 100346190
" />
<path d="M171499444.919901 100345476.062212 A1900000.000000 1900000.000000 0.0 1 0 171499999.816364 98013809.857231" />
<circle cx="173000000.000000" cy="99180000.000000" r="1500000.000000" /> 
<g >
</g>
<g >
</g>
<g >
</g>
<g >
</g>
<g >
</g>
<g >
</g>
<g >
</g>
<g >
</g>
<g >
</g>
<g >
</g>
<g >
</g>
<g >
</g>
<g >
</g>
<g >
</g>
<g >
</g>
<g >
</g>
<g >
</g>
<g >
</g>
<g >
</g>
<g >
</g>
<g >
</g>
<g >
</g>
<g >
</g>
<g >
</g>
<g >
</g>
<g >
</g>
<g >
</g>
<g >
</g>
<g >
</g>
<g >
</g>
<g >
</g>
<g >
</g>
<g >
</g>
<g >
</g>
<g >
</g>
<g >
</g>
</g> 
</svg>
