%TF.GenerationSoftware,KiCad,Pcbnew,(6.0.4)*%
%TF.CreationDate,2022-10-12T20:43:58+02:00*%
%TF.ProjectId,swmeter,73776d65-7465-4722-9e6b-696361645f70,0.2*%
%TF.SameCoordinates,PX5d9f490PY775a330*%
%TF.FileFunction,Plated,1,2,PTH,Mixed*%
%TF.FilePolarity,Positive*%
%FSLAX46Y46*%
G04 Gerber Fmt 4.6, Leading zero omitted, Abs format (unit mm)*
G04 Created by KiCad (PCBNEW (6.0.4)) date 2022-10-12 20:43:58*
%MOMM*%
%LPD*%
G01*
G04 APERTURE LIST*
%TA.AperFunction,ViaDrill*%
%ADD10C,0.400000*%
%TD*%
%TA.AperFunction,ComponentDrill*%
%ADD11C,0.500000*%
%TD*%
%TA.AperFunction,ComponentDrill*%
%ADD12C,0.650000*%
%TD*%
%TA.AperFunction,ComponentDrill*%
%ADD13C,0.800000*%
%TD*%
G04 aperture for slot hole*
%TA.AperFunction,ComponentDrill*%
%ADD14O,0.800000X1.300000*%
%TD*%
%TA.AperFunction,ComponentDrill*%
%ADD15C,0.900000*%
%TD*%
G04 aperture for slot hole*
%TA.AperFunction,ComponentDrill*%
%ADD16O,1.000000X1.300000*%
%TD*%
%TA.AperFunction,ComponentDrill*%
%ADD17C,1.100000*%
%TD*%
%TA.AperFunction,ComponentDrill*%
%ADD18C,1.200000*%
%TD*%
%TA.AperFunction,ComponentDrill*%
%ADD19C,1.500000*%
%TD*%
%TA.AperFunction,ComponentDrill*%
%ADD20C,2.400000*%
%TD*%
%TA.AperFunction,ComponentDrill*%
%ADD21C,3.200000*%
%TD*%
G04 APERTURE END LIST*
D10*
X1750000Y68600000D03*
X2740000Y34800000D03*
X2800000Y1920000D03*
X20890000Y34770000D03*
X36455000Y58375000D03*
X39920000Y30790000D03*
X40540000Y57360000D03*
X43610000Y30720000D03*
X45100000Y1160000D03*
X45310000Y13420000D03*
X45730000Y45000000D03*
X46080000Y56070000D03*
X48905000Y45325000D03*
X57355000Y37375000D03*
X61405000Y48850000D03*
X62140000Y28190000D03*
X65505000Y28125000D03*
X69430000Y53275000D03*
X78230000Y34825000D03*
X78280000Y68550000D03*
X78350000Y1290000D03*
D11*
%TO.C,REF1*%
X36290000Y21970000D03*
X36992944Y23667056D03*
X36992944Y20272944D03*
X38690000Y24370000D03*
X38690000Y19570000D03*
X40387056Y23667056D03*
X40387056Y20272944D03*
X41090000Y21970000D03*
D12*
%TO.C,J3_Meter1*%
X50980000Y45600000D03*
X52250000Y45600000D03*
D13*
%TO.C,SW1*%
X28912500Y65225000D03*
X36532500Y65225000D03*
%TO.C,SW3*%
X36705000Y52575000D03*
X36705000Y50035000D03*
X44325000Y52575000D03*
X44325000Y50035000D03*
%TO.C,R1*%
X44480000Y20720000D03*
%TO.C,D0*%
X45520000Y40550000D03*
%TO.C,RV2*%
X46835000Y27535000D03*
%TO.C,RV1*%
X46865000Y34625000D03*
%TO.C,RV2*%
X49375000Y27535000D03*
%TO.C,RV1*%
X49405000Y34625000D03*
%TO.C,RV2*%
X51915000Y27535000D03*
%TO.C,RV1*%
X51945000Y34625000D03*
%TO.C,D0*%
X53140000Y40550000D03*
%TO.C,R1*%
X54640000Y20720000D03*
%TO.C,U1*%
X60140000Y42030000D03*
X60140000Y39490000D03*
X60140000Y36950000D03*
X60140000Y34410000D03*
X60140000Y31870000D03*
X60140000Y29330000D03*
X60140000Y26790000D03*
X60140000Y24250000D03*
X60140000Y21710000D03*
X67760000Y42030000D03*
X67760000Y39490000D03*
X67760000Y36950000D03*
X67760000Y34410000D03*
X67760000Y31870000D03*
X67760000Y29330000D03*
X67760000Y26790000D03*
X67760000Y24250000D03*
X67760000Y21710000D03*
D14*
%TO.C,J1*%
X71455000Y55750000D03*
X76055000Y55750000D03*
D15*
%TO.C,SW2*%
X42180000Y63325000D03*
X46180000Y63325000D03*
X50180000Y63325000D03*
%TO.C,D8*%
X73560000Y35095000D03*
%TO.C,D7*%
X73560000Y30520000D03*
%TO.C,D6*%
X73560000Y25970000D03*
%TO.C,D10*%
X73585000Y44220000D03*
%TO.C,D5*%
X73585000Y21420000D03*
%TO.C,D9*%
X73610000Y39645000D03*
%TO.C,D4*%
X73610000Y16820000D03*
%TO.C,D3*%
X73635000Y12220000D03*
%TO.C,D2*%
X73660000Y7620000D03*
%TO.C,D1*%
X73710000Y2970000D03*
%TO.C,D8*%
X76100000Y35095000D03*
%TO.C,D7*%
X76100000Y30520000D03*
%TO.C,D6*%
X76100000Y25970000D03*
%TO.C,D10*%
X76125000Y44220000D03*
%TO.C,D5*%
X76125000Y21420000D03*
%TO.C,D9*%
X76150000Y39645000D03*
%TO.C,D4*%
X76150000Y16820000D03*
%TO.C,D3*%
X76175000Y12220000D03*
%TO.C,D2*%
X76200000Y7620000D03*
%TO.C,D1*%
X76250000Y2970000D03*
D16*
%TO.C,J1*%
X71005000Y63250000D03*
X76505000Y63250000D03*
D17*
%TO.C,J2*%
X61630000Y61550000D03*
D18*
%TO.C,SW2*%
X40180000Y67575000D03*
X40180000Y61575000D03*
X52180000Y67575000D03*
X52180000Y61575000D03*
D19*
%TO.C,J2*%
X56605000Y66575000D03*
X56605000Y56525000D03*
X66655000Y66575000D03*
X66655000Y56525000D03*
D20*
%TO.C,BT1*%
X12380000Y55850000D03*
X25080000Y55850000D03*
D21*
%TO.C,REF1*%
X38690000Y21970000D03*
M02*
