%FSLAX45Y45*%
G04 Gerber Fmt 4.5, Leading zero omitted, Abs format (unit mm)*
G04 Created by KiCad (PCBNEW (6.0.4)) date 2022-11-07 20:32:49*
%MOMM*%
%LPD*%
G01*
G04 APERTURE LIST*
%TA.AperFunction,Profile*%
%ADD10C,0.100000*%
%TD*%
%ADD11C,0.200000*%
%ADD12C,0.110000*%
%ADD13C,0.260000*%
G04 APERTURE END LIST*
D10*
X7962000Y6991500D02*
X-1500Y6991500D01*
X-1500Y6991500D02*
X-1500Y-3500D01*
X-1500Y-3500D02*
X7962000Y-3500D01*
X7962000Y-3500D02*
X7962000Y6991500D01*
D11*
D12*
X7070500Y6030000D02*
X7180500Y5920000D01*
X7180500Y6030000D02*
X7070500Y5920000D01*
X7570500Y6030000D02*
X7680500Y5920000D01*
X7680500Y6030000D02*
X7570500Y5920000D01*
D13*
X893000Y4495000D02*
G75*
G03*
X893000Y4495000I-130000J0D01*
G01*
X893000Y1695000D02*
G75*
G03*
X893000Y1695000I-130000J0D01*
G01*
X3113000Y3170000D02*
G75*
G03*
X3113000Y3170000I-130000J0D01*
G01*
D11*
X251119Y-318976D02*
X251119Y-118976D01*
X298738Y-118976D01*
X327310Y-128500D01*
X346357Y-147548D01*
X355881Y-166595D01*
X365405Y-204690D01*
X365405Y-233262D01*
X355881Y-271357D01*
X346357Y-290405D01*
X327310Y-309452D01*
X298738Y-318976D01*
X251119Y-318976D01*
X451119Y-318976D02*
X451119Y-185643D01*
X451119Y-223738D02*
X460643Y-204690D01*
X470167Y-195167D01*
X489214Y-185643D01*
X508262Y-185643D01*
X574929Y-318976D02*
X574929Y-185643D01*
X574929Y-118976D02*
X565405Y-128500D01*
X574929Y-138024D01*
X584452Y-128500D01*
X574929Y-118976D01*
X574929Y-138024D01*
X698738Y-318976D02*
X679690Y-309452D01*
X670167Y-290405D01*
X670167Y-118976D01*
X803500Y-318976D02*
X784452Y-309452D01*
X774928Y-290405D01*
X774928Y-118976D01*
X1032071Y-318976D02*
X1032071Y-118976D01*
X1098738Y-261833D01*
X1165405Y-118976D01*
X1165405Y-318976D01*
X1346357Y-318976D02*
X1346357Y-214214D01*
X1336833Y-195167D01*
X1317786Y-185643D01*
X1279690Y-185643D01*
X1260643Y-195167D01*
X1346357Y-309452D02*
X1327310Y-318976D01*
X1279690Y-318976D01*
X1260643Y-309452D01*
X1251119Y-290405D01*
X1251119Y-271357D01*
X1260643Y-252309D01*
X1279690Y-242786D01*
X1327310Y-242786D01*
X1346357Y-233262D01*
X1441595Y-185643D02*
X1441595Y-385643D01*
X1441595Y-195167D02*
X1460643Y-185643D01*
X1498738Y-185643D01*
X1517786Y-195167D01*
X1527309Y-204690D01*
X1536833Y-223738D01*
X1536833Y-280881D01*
X1527309Y-299929D01*
X1517786Y-309452D01*
X1498738Y-318976D01*
X1460643Y-318976D01*
X1441595Y-309452D01*
X1622548Y-299929D02*
X1632071Y-309452D01*
X1622548Y-318976D01*
X1613024Y-309452D01*
X1622548Y-299929D01*
X1622548Y-318976D01*
X1622548Y-195167D02*
X1632071Y-204690D01*
X1622548Y-214214D01*
X1613024Y-204690D01*
X1622548Y-195167D01*
X1622548Y-214214D01*
D12*
X-116500Y-593500D02*
X-6500Y-703500D01*
X-6500Y-593500D02*
X-116500Y-703500D01*
D11*
X355881Y-738976D02*
X241595Y-738976D01*
X298738Y-738976D02*
X298738Y-538976D01*
X279690Y-567548D01*
X260643Y-586595D01*
X241595Y-596119D01*
X441595Y-719928D02*
X451119Y-729452D01*
X441595Y-738976D01*
X432071Y-729452D01*
X441595Y-719928D01*
X441595Y-738976D01*
X641595Y-738976D02*
X527310Y-738976D01*
X584452Y-738976D02*
X584452Y-538976D01*
X565405Y-567548D01*
X546357Y-586595D01*
X527310Y-596119D01*
X765405Y-538976D02*
X784452Y-538976D01*
X803500Y-548500D01*
X813024Y-558024D01*
X822548Y-577071D01*
X832071Y-615167D01*
X832071Y-662786D01*
X822548Y-700881D01*
X813024Y-719928D01*
X803500Y-729452D01*
X784452Y-738976D01*
X765405Y-738976D01*
X746357Y-729452D01*
X736833Y-719928D01*
X727309Y-700881D01*
X717786Y-662786D01*
X717786Y-615167D01*
X727309Y-577071D01*
X736833Y-558024D01*
X746357Y-548500D01*
X765405Y-538976D01*
X955881Y-538976D02*
X974928Y-538976D01*
X993976Y-548500D01*
X1003500Y-558024D01*
X1013024Y-577071D01*
X1022548Y-615167D01*
X1022548Y-662786D01*
X1013024Y-700881D01*
X1003500Y-719928D01*
X993976Y-729452D01*
X974928Y-738976D01*
X955881Y-738976D01*
X936833Y-729452D01*
X927309Y-719928D01*
X917786Y-700881D01*
X908262Y-662786D01*
X908262Y-615167D01*
X917786Y-577071D01*
X927309Y-558024D01*
X936833Y-548500D01*
X955881Y-538976D01*
X1108262Y-738976D02*
X1108262Y-605643D01*
X1108262Y-624690D02*
X1117786Y-615167D01*
X1136833Y-605643D01*
X1165405Y-605643D01*
X1184452Y-615167D01*
X1193976Y-634214D01*
X1193976Y-738976D01*
X1193976Y-634214D02*
X1203500Y-615167D01*
X1222548Y-605643D01*
X1251119Y-605643D01*
X1270167Y-615167D01*
X1279690Y-634214D01*
X1279690Y-738976D01*
X1374929Y-738976D02*
X1374929Y-605643D01*
X1374929Y-624690D02*
X1384452Y-615167D01*
X1403500Y-605643D01*
X1432071Y-605643D01*
X1451119Y-615167D01*
X1460643Y-634214D01*
X1460643Y-738976D01*
X1460643Y-634214D02*
X1470167Y-615167D01*
X1489214Y-605643D01*
X1517786Y-605643D01*
X1536833Y-615167D01*
X1546357Y-634214D01*
X1546357Y-738976D01*
X1936833Y-529452D02*
X1765405Y-786595D01*
X2193976Y-538976D02*
X2213024Y-538976D01*
X2232071Y-548500D01*
X2241595Y-558024D01*
X2251119Y-577071D01*
X2260643Y-615167D01*
X2260643Y-662786D01*
X2251119Y-700881D01*
X2241595Y-719928D01*
X2232071Y-729452D01*
X2213024Y-738976D01*
X2193976Y-738976D01*
X2174929Y-729452D01*
X2165405Y-719928D01*
X2155881Y-700881D01*
X2146357Y-662786D01*
X2146357Y-615167D01*
X2155881Y-577071D01*
X2165405Y-558024D01*
X2174929Y-548500D01*
X2193976Y-538976D01*
X2346357Y-719928D02*
X2355881Y-729452D01*
X2346357Y-738976D01*
X2336833Y-729452D01*
X2346357Y-719928D01*
X2346357Y-738976D01*
X2479690Y-538976D02*
X2498738Y-538976D01*
X2517786Y-548500D01*
X2527310Y-558024D01*
X2536833Y-577071D01*
X2546357Y-615167D01*
X2546357Y-662786D01*
X2536833Y-700881D01*
X2527310Y-719928D01*
X2517786Y-729452D01*
X2498738Y-738976D01*
X2479690Y-738976D01*
X2460643Y-729452D01*
X2451119Y-719928D01*
X2441595Y-700881D01*
X2432071Y-662786D01*
X2432071Y-615167D01*
X2441595Y-577071D01*
X2451119Y-558024D01*
X2460643Y-548500D01*
X2479690Y-538976D01*
X2717786Y-605643D02*
X2717786Y-738976D01*
X2670167Y-529452D02*
X2622548Y-672310D01*
X2746357Y-672310D01*
X2803500Y-538976D02*
X2927309Y-538976D01*
X2860643Y-615167D01*
X2889214Y-615167D01*
X2908262Y-624690D01*
X2917786Y-634214D01*
X2927309Y-653262D01*
X2927309Y-700881D01*
X2917786Y-719928D01*
X2908262Y-729452D01*
X2889214Y-738976D01*
X2832071Y-738976D01*
X2813024Y-729452D01*
X2803500Y-719928D01*
X2993976Y-538976D02*
X3117786Y-538976D01*
X3051119Y-615167D01*
X3079690Y-615167D01*
X3098738Y-624690D01*
X3108262Y-634214D01*
X3117786Y-653262D01*
X3117786Y-700881D01*
X3108262Y-719928D01*
X3098738Y-729452D01*
X3079690Y-738976D01*
X3022548Y-738976D01*
X3003500Y-729452D01*
X2993976Y-719928D01*
X3193976Y-538976D02*
X3193976Y-577071D01*
X3270167Y-538976D02*
X3270167Y-577071D01*
X3565405Y-815167D02*
X3555881Y-805643D01*
X3536833Y-777071D01*
X3527309Y-758024D01*
X3517786Y-729452D01*
X3508262Y-681833D01*
X3508262Y-643738D01*
X3517786Y-596119D01*
X3527309Y-567548D01*
X3536833Y-548500D01*
X3555881Y-519928D01*
X3565405Y-510405D01*
X3632071Y-558024D02*
X3641595Y-548500D01*
X3660643Y-538976D01*
X3708262Y-538976D01*
X3727309Y-548500D01*
X3736833Y-558024D01*
X3746357Y-577071D01*
X3746357Y-596119D01*
X3736833Y-624690D01*
X3622548Y-738976D01*
X3746357Y-738976D01*
X3984452Y-738976D02*
X3984452Y-538976D01*
X4070167Y-738976D02*
X4070167Y-634214D01*
X4060643Y-615167D01*
X4041595Y-605643D01*
X4013024Y-605643D01*
X3993976Y-615167D01*
X3984452Y-624690D01*
X4193976Y-738976D02*
X4174928Y-729452D01*
X4165405Y-719928D01*
X4155881Y-700881D01*
X4155881Y-643738D01*
X4165405Y-624690D01*
X4174928Y-615167D01*
X4193976Y-605643D01*
X4222548Y-605643D01*
X4241595Y-615167D01*
X4251119Y-624690D01*
X4260643Y-643738D01*
X4260643Y-700881D01*
X4251119Y-719928D01*
X4241595Y-729452D01*
X4222548Y-738976D01*
X4193976Y-738976D01*
X4374929Y-738976D02*
X4355881Y-729452D01*
X4346357Y-710405D01*
X4346357Y-538976D01*
X4527310Y-729452D02*
X4508262Y-738976D01*
X4470167Y-738976D01*
X4451119Y-729452D01*
X4441595Y-710405D01*
X4441595Y-634214D01*
X4451119Y-615167D01*
X4470167Y-605643D01*
X4508262Y-605643D01*
X4527310Y-615167D01*
X4536833Y-634214D01*
X4536833Y-653262D01*
X4441595Y-672310D01*
X4613024Y-729452D02*
X4632071Y-738976D01*
X4670167Y-738976D01*
X4689214Y-729452D01*
X4698738Y-710405D01*
X4698738Y-700881D01*
X4689214Y-681833D01*
X4670167Y-672310D01*
X4641595Y-672310D01*
X4622548Y-662786D01*
X4613024Y-643738D01*
X4613024Y-634214D01*
X4622548Y-615167D01*
X4641595Y-605643D01*
X4670167Y-605643D01*
X4689214Y-615167D01*
X4765405Y-815167D02*
X4774929Y-805643D01*
X4793976Y-777071D01*
X4803500Y-758024D01*
X4813024Y-729452D01*
X4822548Y-681833D01*
X4822548Y-643738D01*
X4813024Y-596119D01*
X4803500Y-567548D01*
X4793976Y-548500D01*
X4774929Y-519928D01*
X4765405Y-510405D01*
X5127310Y-815167D02*
X5117786Y-805643D01*
X5098738Y-777071D01*
X5089214Y-758024D01*
X5079690Y-729452D01*
X5070167Y-681833D01*
X5070167Y-643738D01*
X5079690Y-596119D01*
X5089214Y-567548D01*
X5098738Y-548500D01*
X5117786Y-519928D01*
X5127310Y-510405D01*
X5203500Y-605643D02*
X5203500Y-738976D01*
X5203500Y-624690D02*
X5213024Y-615167D01*
X5232071Y-605643D01*
X5260643Y-605643D01*
X5279690Y-615167D01*
X5289214Y-634214D01*
X5289214Y-738976D01*
X5413024Y-738976D02*
X5393976Y-729452D01*
X5384452Y-719928D01*
X5374929Y-700881D01*
X5374929Y-643738D01*
X5384452Y-624690D01*
X5393976Y-615167D01*
X5413024Y-605643D01*
X5441595Y-605643D01*
X5460643Y-615167D01*
X5470167Y-624690D01*
X5479690Y-643738D01*
X5479690Y-700881D01*
X5470167Y-719928D01*
X5460643Y-729452D01*
X5441595Y-738976D01*
X5413024Y-738976D01*
X5536833Y-605643D02*
X5613024Y-605643D01*
X5565405Y-538976D02*
X5565405Y-710405D01*
X5574929Y-729452D01*
X5593976Y-738976D01*
X5613024Y-738976D01*
X5832071Y-605643D02*
X5832071Y-805643D01*
X5832071Y-615167D02*
X5851119Y-605643D01*
X5889214Y-605643D01*
X5908262Y-615167D01*
X5917786Y-624690D01*
X5927309Y-643738D01*
X5927309Y-700881D01*
X5917786Y-719928D01*
X5908262Y-729452D01*
X5889214Y-738976D01*
X5851119Y-738976D01*
X5832071Y-729452D01*
X6041595Y-738976D02*
X6022548Y-729452D01*
X6013024Y-710405D01*
X6013024Y-538976D01*
X6203500Y-738976D02*
X6203500Y-634214D01*
X6193976Y-615167D01*
X6174928Y-605643D01*
X6136833Y-605643D01*
X6117786Y-615167D01*
X6203500Y-729452D02*
X6184452Y-738976D01*
X6136833Y-738976D01*
X6117786Y-729452D01*
X6108262Y-710405D01*
X6108262Y-691357D01*
X6117786Y-672310D01*
X6136833Y-662786D01*
X6184452Y-662786D01*
X6203500Y-653262D01*
X6270167Y-605643D02*
X6346357Y-605643D01*
X6298738Y-538976D02*
X6298738Y-710405D01*
X6308262Y-729452D01*
X6327309Y-738976D01*
X6346357Y-738976D01*
X6489214Y-729452D02*
X6470167Y-738976D01*
X6432071Y-738976D01*
X6413024Y-729452D01*
X6403500Y-710405D01*
X6403500Y-634214D01*
X6413024Y-615167D01*
X6432071Y-605643D01*
X6470167Y-605643D01*
X6489214Y-615167D01*
X6498738Y-634214D01*
X6498738Y-653262D01*
X6403500Y-672310D01*
X6670167Y-738976D02*
X6670167Y-538976D01*
X6670167Y-729452D02*
X6651119Y-738976D01*
X6613024Y-738976D01*
X6593976Y-729452D01*
X6584452Y-719928D01*
X6574928Y-700881D01*
X6574928Y-643738D01*
X6584452Y-624690D01*
X6593976Y-615167D01*
X6613024Y-605643D01*
X6651119Y-605643D01*
X6670167Y-615167D01*
X6746357Y-815167D02*
X6755881Y-805643D01*
X6774928Y-777071D01*
X6784452Y-758024D01*
X6793976Y-729452D01*
X6803500Y-681833D01*
X6803500Y-643738D01*
X6793976Y-596119D01*
X6784452Y-567548D01*
X6774928Y-548500D01*
X6755881Y-519928D01*
X6746357Y-510405D01*
X-6500Y-912500D02*
G75*
G03*
X-6500Y-912500I-100000J0D01*
G01*
X241595Y-822024D02*
X251119Y-812500D01*
X270167Y-802976D01*
X317786Y-802976D01*
X336833Y-812500D01*
X346357Y-822024D01*
X355881Y-841071D01*
X355881Y-860119D01*
X346357Y-888690D01*
X232071Y-1002976D01*
X355881Y-1002976D01*
X441595Y-983928D02*
X451119Y-993452D01*
X441595Y-1002976D01*
X432071Y-993452D01*
X441595Y-983928D01*
X441595Y-1002976D01*
X622548Y-802976D02*
X584452Y-802976D01*
X565405Y-812500D01*
X555881Y-822024D01*
X536833Y-850595D01*
X527310Y-888690D01*
X527310Y-964881D01*
X536833Y-983928D01*
X546357Y-993452D01*
X565405Y-1002976D01*
X603500Y-1002976D01*
X622548Y-993452D01*
X632071Y-983928D01*
X641595Y-964881D01*
X641595Y-917262D01*
X632071Y-898214D01*
X622548Y-888690D01*
X603500Y-879167D01*
X565405Y-879167D01*
X546357Y-888690D01*
X536833Y-898214D01*
X527310Y-917262D01*
X765405Y-802976D02*
X784452Y-802976D01*
X803500Y-812500D01*
X813024Y-822024D01*
X822548Y-841071D01*
X832071Y-879167D01*
X832071Y-926786D01*
X822548Y-964881D01*
X813024Y-983928D01*
X803500Y-993452D01*
X784452Y-1002976D01*
X765405Y-1002976D01*
X746357Y-993452D01*
X736833Y-983928D01*
X727309Y-964881D01*
X717786Y-926786D01*
X717786Y-879167D01*
X727309Y-841071D01*
X736833Y-822024D01*
X746357Y-812500D01*
X765405Y-802976D01*
X955881Y-802976D02*
X974928Y-802976D01*
X993976Y-812500D01*
X1003500Y-822024D01*
X1013024Y-841071D01*
X1022548Y-879167D01*
X1022548Y-926786D01*
X1013024Y-964881D01*
X1003500Y-983928D01*
X993976Y-993452D01*
X974928Y-1002976D01*
X955881Y-1002976D01*
X936833Y-993452D01*
X927309Y-983928D01*
X917786Y-964881D01*
X908262Y-926786D01*
X908262Y-879167D01*
X917786Y-841071D01*
X927309Y-822024D01*
X936833Y-812500D01*
X955881Y-802976D01*
X1108262Y-1002976D02*
X1108262Y-869643D01*
X1108262Y-888690D02*
X1117786Y-879167D01*
X1136833Y-869643D01*
X1165405Y-869643D01*
X1184452Y-879167D01*
X1193976Y-898214D01*
X1193976Y-1002976D01*
X1193976Y-898214D02*
X1203500Y-879167D01*
X1222548Y-869643D01*
X1251119Y-869643D01*
X1270167Y-879167D01*
X1279690Y-898214D01*
X1279690Y-1002976D01*
X1374929Y-1002976D02*
X1374929Y-869643D01*
X1374929Y-888690D02*
X1384452Y-879167D01*
X1403500Y-869643D01*
X1432071Y-869643D01*
X1451119Y-879167D01*
X1460643Y-898214D01*
X1460643Y-1002976D01*
X1460643Y-898214D02*
X1470167Y-879167D01*
X1489214Y-869643D01*
X1517786Y-869643D01*
X1536833Y-879167D01*
X1546357Y-898214D01*
X1546357Y-1002976D01*
X1936833Y-793452D02*
X1765405Y-1050595D01*
X2193976Y-802976D02*
X2213024Y-802976D01*
X2232071Y-812500D01*
X2241595Y-822024D01*
X2251119Y-841071D01*
X2260643Y-879167D01*
X2260643Y-926786D01*
X2251119Y-964881D01*
X2241595Y-983928D01*
X2232071Y-993452D01*
X2213024Y-1002976D01*
X2193976Y-1002976D01*
X2174929Y-993452D01*
X2165405Y-983928D01*
X2155881Y-964881D01*
X2146357Y-926786D01*
X2146357Y-879167D01*
X2155881Y-841071D01*
X2165405Y-822024D01*
X2174929Y-812500D01*
X2193976Y-802976D01*
X2346357Y-983928D02*
X2355881Y-993452D01*
X2346357Y-1002976D01*
X2336833Y-993452D01*
X2346357Y-983928D01*
X2346357Y-1002976D01*
X2546357Y-1002976D02*
X2432071Y-1002976D01*
X2489214Y-1002976D02*
X2489214Y-802976D01*
X2470167Y-831548D01*
X2451119Y-850595D01*
X2432071Y-860119D01*
X2670167Y-802976D02*
X2689214Y-802976D01*
X2708262Y-812500D01*
X2717786Y-822024D01*
X2727310Y-841071D01*
X2736833Y-879167D01*
X2736833Y-926786D01*
X2727310Y-964881D01*
X2717786Y-983928D01*
X2708262Y-993452D01*
X2689214Y-1002976D01*
X2670167Y-1002976D01*
X2651119Y-993452D01*
X2641595Y-983928D01*
X2632071Y-964881D01*
X2622548Y-926786D01*
X2622548Y-879167D01*
X2632071Y-841071D01*
X2641595Y-822024D01*
X2651119Y-812500D01*
X2670167Y-802976D01*
X2813024Y-822024D02*
X2822548Y-812500D01*
X2841595Y-802976D01*
X2889214Y-802976D01*
X2908262Y-812500D01*
X2917786Y-822024D01*
X2927309Y-841071D01*
X2927309Y-860119D01*
X2917786Y-888690D01*
X2803500Y-1002976D01*
X2927309Y-1002976D01*
X3098738Y-869643D02*
X3098738Y-1002976D01*
X3051119Y-793452D02*
X3003500Y-936309D01*
X3127309Y-936309D01*
X3193976Y-802976D02*
X3193976Y-841071D01*
X3270167Y-802976D02*
X3270167Y-841071D01*
X3565405Y-1079167D02*
X3555881Y-1069643D01*
X3536833Y-1041071D01*
X3527309Y-1022024D01*
X3517786Y-993452D01*
X3508262Y-945833D01*
X3508262Y-907738D01*
X3517786Y-860119D01*
X3527309Y-831548D01*
X3536833Y-812500D01*
X3555881Y-783928D01*
X3565405Y-774405D01*
X3622548Y-802976D02*
X3746357Y-802976D01*
X3679690Y-879167D01*
X3708262Y-879167D01*
X3727309Y-888690D01*
X3736833Y-898214D01*
X3746357Y-917262D01*
X3746357Y-964881D01*
X3736833Y-983928D01*
X3727309Y-993452D01*
X3708262Y-1002976D01*
X3651119Y-1002976D01*
X3632071Y-993452D01*
X3622548Y-983928D01*
X3984452Y-1002976D02*
X3984452Y-802976D01*
X4070167Y-1002976D02*
X4070167Y-898214D01*
X4060643Y-879167D01*
X4041595Y-869643D01*
X4013024Y-869643D01*
X3993976Y-879167D01*
X3984452Y-888690D01*
X4193976Y-1002976D02*
X4174928Y-993452D01*
X4165405Y-983928D01*
X4155881Y-964881D01*
X4155881Y-907738D01*
X4165405Y-888690D01*
X4174928Y-879167D01*
X4193976Y-869643D01*
X4222548Y-869643D01*
X4241595Y-879167D01*
X4251119Y-888690D01*
X4260643Y-907738D01*
X4260643Y-964881D01*
X4251119Y-983928D01*
X4241595Y-993452D01*
X4222548Y-1002976D01*
X4193976Y-1002976D01*
X4374929Y-1002976D02*
X4355881Y-993452D01*
X4346357Y-974405D01*
X4346357Y-802976D01*
X4527310Y-993452D02*
X4508262Y-1002976D01*
X4470167Y-1002976D01*
X4451119Y-993452D01*
X4441595Y-974405D01*
X4441595Y-898214D01*
X4451119Y-879167D01*
X4470167Y-869643D01*
X4508262Y-869643D01*
X4527310Y-879167D01*
X4536833Y-898214D01*
X4536833Y-917262D01*
X4441595Y-936309D01*
X4613024Y-993452D02*
X4632071Y-1002976D01*
X4670167Y-1002976D01*
X4689214Y-993452D01*
X4698738Y-974405D01*
X4698738Y-964881D01*
X4689214Y-945833D01*
X4670167Y-936309D01*
X4641595Y-936309D01*
X4622548Y-926786D01*
X4613024Y-907738D01*
X4613024Y-898214D01*
X4622548Y-879167D01*
X4641595Y-869643D01*
X4670167Y-869643D01*
X4689214Y-879167D01*
X4765405Y-1079167D02*
X4774929Y-1069643D01*
X4793976Y-1041071D01*
X4803500Y-1022024D01*
X4813024Y-993452D01*
X4822548Y-945833D01*
X4822548Y-907738D01*
X4813024Y-860119D01*
X4803500Y-831548D01*
X4793976Y-812500D01*
X4774929Y-783928D01*
X4765405Y-774405D01*
X5127310Y-1079167D02*
X5117786Y-1069643D01*
X5098738Y-1041071D01*
X5089214Y-1022024D01*
X5079690Y-993452D01*
X5070167Y-945833D01*
X5070167Y-907738D01*
X5079690Y-860119D01*
X5089214Y-831548D01*
X5098738Y-812500D01*
X5117786Y-783928D01*
X5127310Y-774405D01*
X5203500Y-869643D02*
X5203500Y-1002976D01*
X5203500Y-888690D02*
X5213024Y-879167D01*
X5232071Y-869643D01*
X5260643Y-869643D01*
X5279690Y-879167D01*
X5289214Y-898214D01*
X5289214Y-1002976D01*
X5413024Y-1002976D02*
X5393976Y-993452D01*
X5384452Y-983928D01*
X5374929Y-964881D01*
X5374929Y-907738D01*
X5384452Y-888690D01*
X5393976Y-879167D01*
X5413024Y-869643D01*
X5441595Y-869643D01*
X5460643Y-879167D01*
X5470167Y-888690D01*
X5479690Y-907738D01*
X5479690Y-964881D01*
X5470167Y-983928D01*
X5460643Y-993452D01*
X5441595Y-1002976D01*
X5413024Y-1002976D01*
X5536833Y-869643D02*
X5613024Y-869643D01*
X5565405Y-802976D02*
X5565405Y-974405D01*
X5574929Y-993452D01*
X5593976Y-1002976D01*
X5613024Y-1002976D01*
X5832071Y-869643D02*
X5832071Y-1069643D01*
X5832071Y-879167D02*
X5851119Y-869643D01*
X5889214Y-869643D01*
X5908262Y-879167D01*
X5917786Y-888690D01*
X5927309Y-907738D01*
X5927309Y-964881D01*
X5917786Y-983928D01*
X5908262Y-993452D01*
X5889214Y-1002976D01*
X5851119Y-1002976D01*
X5832071Y-993452D01*
X6041595Y-1002976D02*
X6022548Y-993452D01*
X6013024Y-974405D01*
X6013024Y-802976D01*
X6203500Y-1002976D02*
X6203500Y-898214D01*
X6193976Y-879167D01*
X6174928Y-869643D01*
X6136833Y-869643D01*
X6117786Y-879167D01*
X6203500Y-993452D02*
X6184452Y-1002976D01*
X6136833Y-1002976D01*
X6117786Y-993452D01*
X6108262Y-974405D01*
X6108262Y-955357D01*
X6117786Y-936309D01*
X6136833Y-926786D01*
X6184452Y-926786D01*
X6203500Y-917262D01*
X6270167Y-869643D02*
X6346357Y-869643D01*
X6298738Y-802976D02*
X6298738Y-974405D01*
X6308262Y-993452D01*
X6327309Y-1002976D01*
X6346357Y-1002976D01*
X6489214Y-993452D02*
X6470167Y-1002976D01*
X6432071Y-1002976D01*
X6413024Y-993452D01*
X6403500Y-974405D01*
X6403500Y-898214D01*
X6413024Y-879167D01*
X6432071Y-869643D01*
X6470167Y-869643D01*
X6489214Y-879167D01*
X6498738Y-898214D01*
X6498738Y-917262D01*
X6403500Y-936309D01*
X6670167Y-1002976D02*
X6670167Y-802976D01*
X6670167Y-993452D02*
X6651119Y-1002976D01*
X6613024Y-1002976D01*
X6593976Y-993452D01*
X6584452Y-983928D01*
X6574928Y-964881D01*
X6574928Y-907738D01*
X6584452Y-888690D01*
X6593976Y-879167D01*
X6613024Y-869643D01*
X6651119Y-869643D01*
X6670167Y-879167D01*
X6746357Y-1079167D02*
X6755881Y-1069643D01*
X6774928Y-1041071D01*
X6784452Y-1022024D01*
X6793976Y-993452D01*
X6803500Y-945833D01*
X6803500Y-907738D01*
X6793976Y-860119D01*
X6784452Y-831548D01*
X6774928Y-812500D01*
X6755881Y-783928D01*
X6746357Y-774405D01*
M02*
