<?xml version="1.0" standalone="no"?>
 <!DOCTYPE svg PUBLIC "-//W3C//DTD SVG 1.1//EN" 
 "http://www.w3.org/Graphics/SVG/1.1/DTD/svg11.dtd"> 
<svg
  xmlns:svg="http://www.w3.org/2000/svg"
  xmlns="http://www.w3.org/2000/svg"
  xmlns:xlink="http://www.w3.org/1999/xlink"
  version="1.1"
  width="29.700220cm" height="21.000720cm" viewBox="0 0 297002200 210007200">
<title>SVG Picture created as swmeter-F_Courtyard.svg date 2022/10/21 18:23:59 </title>
  <desc>Picture generated by PCBNEW </desc>
<g style="fill:#000000; fill-opacity:1.000000;stroke:#000000; stroke-opacity:1.000000;
stroke-linecap:round; stroke-linejoin:round;"
 transform="translate(0 0) scale(1 1)">
</g>
<g style="fill:#000000; fill-opacity:0.0; 
stroke:#000000; stroke-width:0.000000; stroke-opacity:1; 
stroke-linecap:round; stroke-linejoin:round;">
</g>
<g style="fill:#000000; fill-opacity:0.0; 
stroke:#000000; stroke-width:100000.000000; stroke-opacity:1; 
stroke-linecap:round; stroke-linejoin:round;">
<path d="M177790000 55235000
L98155000 55235000
" />
<path d="M98155000 55235000
L98155000 125185000
" />
<path d="M98155000 125185000
L177790000 125185000
" />
<path d="M177790000 125185000
L177790000 55235000
" />
<circle cx="98170000.000000" cy="125170000.000000" r="1666666.000000" /> 
<path d="M95670000 125170000
L100670000 125170000
" />
<path d="M98170000 122670000
L98170000 127670000
" />
</g>
<g style="fill:#000000; fill-opacity:0.0; 
stroke:#000000; stroke-width:50000.000000; stroke-opacity:1; 
stroke-linecap:round; stroke-linejoin:round;">
<path d="M125732500 57225000
L125732500 62625000
" />
<path d="M125732500 62625000
L136032500 62625000
" />
<path d="M136032500 57225000
L125732500 57225000
" />
<path d="M136032500 62625000
L136032500 57225000
" />
<path d="M149100000 56325000
L151600000 56325000
" />
<path d="M139600000 56325000
L139600000 48075000
" />
<path d="M151600000 64825000
L137100000 64825000
" />
<path d="M151600000 56325000
L151600000 64825000
" />
<path d="M149100000 48075000
L149100000 56325000
" />
<path d="M139600000 48075000
L149100000 48075000
" />
<path d="M137100000 64825000
L137100000 56325000
" />
<path d="M137100000 56325000
L139600000 56325000
" />
<path d="M175480000 110580000
L175480000 106080000
" />
<path d="M170630000 106080000
L170630000 110580000
" />
<path d="M170630000 110580000
L175480000 110580000
" />
<path d="M175480000 106080000
L170630000 106080000
" />
<path d="M167675000 71050000
L176175000 71050000
" />
<path d="M167675000 71050000
L167675000 55400000
" />
<path d="M167675000 55400000
L176175000 55400000
" />
<path d="M176175000 55400000
L176175000 71050000
" />
<path d="M143935000 92975000
L151185000 92975000
" />
<path d="M151185000 87925000
L143935000 87925000
" />
<path d="M143935000 87925000
L143935000 92975000
" />
<path d="M151185000 92975000
L151185000 87925000
" />
<path d="M175455000 83180000
L175455000 78680000
" />
<path d="M175455000 78680000
L170605000 78680000
" />
<path d="M170605000 78680000
L170605000 83180000
" />
<path d="M170605000 83180000
L175455000 83180000
" />
<path d="M101300000 65700000
L132500000 65700000
" />
<path d="M132500000 121200000
L101300000 121200000
" />
<path d="M101300000 121200000
L101300000 65700000
" />
<path d="M132500000 65700000
L132500000 121200000
" />
<path d="M160670000 77750000
L160670000 74650000
" />
<path d="M155820000 77750000
L160670000 77750000
" />
<path d="M160670000 74650000
L155820000 74650000
" />
<path d="M155820000 74650000
L155820000 77750000
" />
<path d="M175580000 119930000
L170730000 119930000
" />
<path d="M175580000 124430000
L175580000 119930000
" />
<path d="M170730000 124430000
L175580000 124430000
" />
<path d="M170730000 119930000
L170730000 124430000
" />
<path d="M170630000 83255000
L170630000 87755000
" />
<path d="M175480000 83255000
L170630000 83255000
" />
<path d="M170630000 87755000
L175480000 87755000
" />
<path d="M175480000 87755000
L175480000 83255000
" />
<path d="M170605000 101480000
L170605000 105980000
" />
<path d="M175455000 105980000
L175455000 101480000
" />
<path d="M170605000 105980000
L175455000 105980000
" />
<path d="M175455000 101480000
L170605000 101480000
" />
<path d="M175430000 96880000
L175430000 92380000
" />
<path d="M170580000 96880000
L175430000 96880000
" />
<path d="M175430000 92380000
L170580000 92380000
" />
<path d="M170580000 92380000
L170580000 96880000
" />
<circle cx="136860000.000000" cy="103180000.000000" r="3450000.000000" /> 
<path d="M143575000 70175000
L133775000 70175000
" />
<path d="M143575000 77475000
L143575000 70175000
" />
<path d="M133775000 77475000
L143575000 77475000
" />
<path d="M133775000 70175000
L133775000 77475000
" />
<path d="M141600000 102930000
L141600000 105930000
" />
<path d="M153860000 105930000
L153860000 102930000
" />
<path d="M153860000 102930000
L141600000 102930000
" />
<path d="M141600000 105930000
L153860000 105930000
" />
<path d="M167460000 81520000
L156760000 81520000
" />
<path d="M167460000 105020000
L167460000 81520000
" />
<path d="M156760000 81520000
L156760000 105020000
" />
<path d="M156760000 105020000
L167460000 105020000
" />
<path d="M167330000 46200000
L167330000 71130000
" />
<path d="M152270000 71130000
L152270000 46200000
" />
<path d="M152270000 46200000
L167330000 46200000
" />
<path d="M167330000 71130000
L152270000 71130000
" />
<path d="M175530000 119780000
L175530000 115280000
" />
<path d="M175530000 115280000
L170680000 115280000
" />
<path d="M170680000 115280000
L170680000 119780000
" />
<path d="M170680000 119780000
L175530000 119780000
" />
<path d="M142640000 85850000
L152360000 85850000
" />
<path d="M142640000 83350000
L142640000 85850000
" />
<path d="M152360000 83350000
L142640000 83350000
" />
<path d="M152360000 85850000
L152360000 83350000
" />
<path d="M170655000 110680000
L170655000 115180000
" />
<path d="M175505000 110680000
L170655000 110680000
" />
<path d="M175505000 115180000
L175505000 110680000
" />
<path d="M170655000 115180000
L175505000 115180000
" />
<path d="M170580000 87805000
L170580000 92305000
" />
<path d="M175430000 92305000
L175430000 87805000
" />
<path d="M175430000 87805000
L170580000 87805000
" />
<path d="M170580000 92305000
L175430000 92305000
" />
<path d="M143905000 95015000
L143905000 100065000
" />
<path d="M151155000 95015000
L143905000 95015000
" />
<path d="M151155000 100065000
L151155000 95015000
" />
<path d="M143905000 100065000
L151155000 100065000
" />
<path d="M175430000 96930000
L170580000 96930000
" />
<path d="M170580000 101430000
L175430000 101430000
" />
<path d="M175430000 101430000
L175430000 96930000
" />
<path d="M170580000 96930000
L170580000 101430000
" />
<g >
</g>
<g >
</g>
<g >
</g>
<g >
</g>
<g >
</g>
<g >
</g>
<g >
</g>
<g >
</g>
<g >
</g>
<g >
</g>
<g >
</g>
<g >
</g>
<g >
</g>
<g >
</g>
<g >
</g>
<g >
</g>
<g >
</g>
<g >
</g>
<g >
</g>
<g >
</g>
<g >
</g>
<g >
</g>
<g >
</g>
<g >
</g>
<g >
</g>
<g >
</g>
<g >
</g>
<g >
</g>
<g >
</g>
<g >
</g>
<g >
</g>
<g >
</g>
<g >
</g>
<g >
</g>
<g >
</g>
<g >
</g>
</g> 
</svg>
