  0
SECTION
  2
HEADER
  9
$ANGBASE
  50
0.0
  9
$ANGDIR
  70
1
  9
$MEASUREMENT
  70
1
  0
ENDSEC
  0
SECTION
  2
TABLES
  0
TABLE
  2
LTYPE
  70
4
  0
LTYPE
  5
40F
  2
CONTINUOUS
  70
0
  3
Solid line
  72
65
  73
0
  40
0.0
  0
LTYPE
  5
410
  2
DASHDOT
 70
0
  3
Dash Dot ____ _ ____ _
 72
65
 73
4
 40
2.0
 49
1.25
 49
-0.25
 49
0.25
 49
-0.25
  0
LTYPE
  5
411
  2
DASHED
 70
0
  3
Dashed __ __ __ __ __
 72
65
 73
2
 40
0.75
 49
0.5
 49
-0.25
  0
LTYPE
  5
43B
  2
DOTTED
 70
0
  3
Dotted .  .  .  .
 72
65
 73
2
 40
0.2
 49
0.0
 49
-0.2
  0
ENDTAB
  0
TABLE
  2
STYLE
  70
4
  0
STYLE
  2
KICAD
  70
0
  40
0
  41
1
  42
1
  50
0
  71
0
  3
isocp.shx
  0
STYLE
  2
KICADB
  70
0
  40
0
  41
1
  42
1
  50
0
  71
0
  3
isocp.shx
  0
STYLE
  2
KICADI
  70
0
  40
0
  41
1
  42
1
  50
15
  71
0
  3
isocp.shx
  0
STYLE
  2
KICADBI
  70
0
  40
0
  41
1
  42
1
  50
15
  71
0
  3
isocp.shx
  0
ENDTAB
  0
TABLE
  2
LAYER
  70
1
  0
LAYER
  2
BLACK
  70
0
  62
7
  6
CONTINUOUS
  0
ENDTAB
  0
ENDSEC
  0
SECTION
  2
ENTITIES
0
LINE
8
BLACK
6
CONTINUOUS
10
177.002
20
-166.007
11
177.002
21
-198.007
0
LINE
8
BLACK
6
CONTINUOUS
10
177.002
20
-198.007
11
285.002
21
-198.007
0
LINE
8
BLACK
6
CONTINUOUS
10
285.002
20
-198.007
11
285.002
21
-166.007
0
LINE
8
BLACK
6
CONTINUOUS
10
285.002
20
-166.007
11
177.002
21
-166.007
0
LINE
8
BLACK
6
CONTINUOUS
10
10
20
-10
11
10
21
-200.007
0
LINE
8
BLACK
6
CONTINUOUS
10
10
20
-200.007
11
287.002
21
-200.007
0
LINE
8
BLACK
6
CONTINUOUS
10
287.002
20
-200.007
11
287.002
21
-10
0
LINE
8
BLACK
6
CONTINUOUS
10
287.002
20
-10
11
10
21
-10
0
LINE
8
BLACK
6
CONTINUOUS
10
12
20
-12
11
12
21
-198.007
0
LINE
8
BLACK
6
CONTINUOUS
10
12
20
-198.007
11
285.002
21
-198.007
0
LINE
8
BLACK
6
CONTINUOUS
10
285.002
20
-198.007
11
285.002
21
-12
0
LINE
8
BLACK
6
CONTINUOUS
10
285.002
20
-12
11
12
21
-12
0
LINE
8
BLACK
6
CONTINUOUS
10
60
20
-12
11
60
21
-10
0
LINE
8
BLACK
6
CONTINUOUS
10
110
20
-12
11
110
21
-10
0
LINE
8
BLACK
6
CONTINUOUS
10
160
20
-12
11
160
21
-10
0
LINE
8
BLACK
6
CONTINUOUS
10
210
20
-12
11
210
21
-10
0
LINE
8
BLACK
6
CONTINUOUS
10
260
20
-12
11
260
21
-10
0
LINE
8
BLACK
6
CONTINUOUS
10
36.0655
20
-11.5881
11
35.3226
21
-11.5881
0
LINE
8
BLACK
6
CONTINUOUS
10
35.694
20
-11.5881
11
35.694
21
-10.2881
0
LINE
8
BLACK
6
CONTINUOUS
10
35.694
20
-10.2881
11
35.5702
21
-10.4738
0
LINE
8
BLACK
6
CONTINUOUS
10
35.5702
20
-10.4738
11
35.4464
21
-10.5976
0
LINE
8
BLACK
6
CONTINUOUS
10
35.4464
20
-10.5976
11
35.3226
21
-10.6595
0
LINE
8
BLACK
6
CONTINUOUS
10
85.3226
20
-10.4119
11
85.3845
21
-10.35
0
LINE
8
BLACK
6
CONTINUOUS
10
85.3845
20
-10.35
11
85.5083
21
-10.2881
0
LINE
8
BLACK
6
CONTINUOUS
10
85.5083
20
-10.2881
11
85.8179
21
-10.2881
0
LINE
8
BLACK
6
CONTINUOUS
10
85.8179
20
-10.2881
11
85.9417
21
-10.35
0
LINE
8
BLACK
6
CONTINUOUS
10
85.9417
20
-10.35
11
86.0036
21
-10.4119
0
LINE
8
BLACK
6
CONTINUOUS
10
86.0036
20
-10.4119
11
86.0655
21
-10.5357
0
LINE
8
BLACK
6
CONTINUOUS
10
86.0655
20
-10.5357
11
86.0655
21
-10.6595
0
LINE
8
BLACK
6
CONTINUOUS
10
86.0655
20
-10.6595
11
86.0036
21
-10.8452
0
LINE
8
BLACK
6
CONTINUOUS
10
86.0036
20
-10.8452
11
85.2607
21
-11.5881
0
LINE
8
BLACK
6
CONTINUOUS
10
85.2607
20
-11.5881
11
86.0655
21
-11.5881
0
LINE
8
BLACK
6
CONTINUOUS
10
135.261
20
-10.2881
11
136.065
21
-10.2881
0
LINE
8
BLACK
6
CONTINUOUS
10
136.065
20
-10.2881
11
135.632
21
-10.7833
0
LINE
8
BLACK
6
CONTINUOUS
10
135.632
20
-10.7833
11
135.818
21
-10.7833
0
LINE
8
BLACK
6
CONTINUOUS
10
135.818
20
-10.7833
11
135.942
21
-10.8452
0
LINE
8
BLACK
6
CONTINUOUS
10
135.942
20
-10.8452
11
136.004
21
-10.9071
0
LINE
8
BLACK
6
CONTINUOUS
10
136.004
20
-10.9071
11
136.065
21
-11.031
0
LINE
8
BLACK
6
CONTINUOUS
10
136.065
20
-11.031
11
136.065
21
-11.3405
0
LINE
8
BLACK
6
CONTINUOUS
10
136.065
20
-11.3405
11
136.004
21
-11.4643
0
LINE
8
BLACK
6
CONTINUOUS
10
136.004
20
-11.4643
11
135.942
21
-11.5262
0
LINE
8
BLACK
6
CONTINUOUS
10
135.942
20
-11.5262
11
135.818
21
-11.5881
0
LINE
8
BLACK
6
CONTINUOUS
10
135.818
20
-11.5881
11
135.446
21
-11.5881
0
LINE
8
BLACK
6
CONTINUOUS
10
135.446
20
-11.5881
11
135.323
21
-11.5262
0
LINE
8
BLACK
6
CONTINUOUS
10
135.323
20
-11.5262
11
135.261
21
-11.4643
0
LINE
8
BLACK
6
CONTINUOUS
10
185.942
20
-10.7214
11
185.942
21
-11.5881
0
LINE
8
BLACK
6
CONTINUOUS
10
185.632
20
-10.2262
11
185.323
21
-11.1548
0
LINE
8
BLACK
6
CONTINUOUS
10
185.323
20
-11.1548
11
186.127
21
-11.1548
0
LINE
8
BLACK
6
CONTINUOUS
10
236.004
20
-10.2881
11
235.385
21
-10.2881
0
LINE
8
BLACK
6
CONTINUOUS
10
235.385
20
-10.2881
11
235.323
21
-10.9071
0
LINE
8
BLACK
6
CONTINUOUS
10
235.323
20
-10.9071
11
235.385
21
-10.8452
0
LINE
8
BLACK
6
CONTINUOUS
10
235.385
20
-10.8452
11
235.508
21
-10.7833
0
LINE
8
BLACK
6
CONTINUOUS
10
235.508
20
-10.7833
11
235.818
21
-10.7833
0
LINE
8
BLACK
6
CONTINUOUS
10
235.818
20
-10.7833
11
235.942
21
-10.8452
0
LINE
8
BLACK
6
CONTINUOUS
10
235.942
20
-10.8452
11
236.004
21
-10.9071
0
LINE
8
BLACK
6
CONTINUOUS
10
236.004
20
-10.9071
11
236.065
21
-11.031
0
LINE
8
BLACK
6
CONTINUOUS
10
236.065
20
-11.031
11
236.065
21
-11.3405
0
LINE
8
BLACK
6
CONTINUOUS
10
236.065
20
-11.3405
11
236.004
21
-11.4643
0
LINE
8
BLACK
6
CONTINUOUS
10
236.004
20
-11.4643
11
235.942
21
-11.5262
0
LINE
8
BLACK
6
CONTINUOUS
10
235.942
20
-11.5262
11
235.818
21
-11.5881
0
LINE
8
BLACK
6
CONTINUOUS
10
235.818
20
-11.5881
11
235.508
21
-11.5881
0
LINE
8
BLACK
6
CONTINUOUS
10
235.508
20
-11.5881
11
235.385
21
-11.5262
0
LINE
8
BLACK
6
CONTINUOUS
10
235.385
20
-11.5262
11
235.323
21
-11.4643
0
LINE
8
BLACK
6
CONTINUOUS
10
285.942
20
-10.2881
11
285.694
21
-10.2881
0
LINE
8
BLACK
6
CONTINUOUS
10
285.694
20
-10.2881
11
285.57
21
-10.35
0
LINE
8
BLACK
6
CONTINUOUS
10
285.57
20
-10.35
11
285.508
21
-10.4119
0
LINE
8
BLACK
6
CONTINUOUS
10
285.508
20
-10.4119
11
285.385
21
-10.5976
0
LINE
8
BLACK
6
CONTINUOUS
10
285.385
20
-10.5976
11
285.323
21
-10.8452
0
LINE
8
BLACK
6
CONTINUOUS
10
285.323
20
-10.8452
11
285.323
21
-11.3405
0
LINE
8
BLACK
6
CONTINUOUS
10
285.323
20
-11.3405
11
285.385
21
-11.4643
0
LINE
8
BLACK
6
CONTINUOUS
10
285.385
20
-11.4643
11
285.446
21
-11.5262
0
LINE
8
BLACK
6
CONTINUOUS
10
285.446
20
-11.5262
11
285.57
21
-11.5881
0
LINE
8
BLACK
6
CONTINUOUS
10
285.57
20
-11.5881
11
285.818
21
-11.5881
0
LINE
8
BLACK
6
CONTINUOUS
10
285.818
20
-11.5881
11
285.942
21
-11.5262
0
LINE
8
BLACK
6
CONTINUOUS
10
285.942
20
-11.5262
11
286.004
21
-11.4643
0
LINE
8
BLACK
6
CONTINUOUS
10
286.004
20
-11.4643
11
286.065
21
-11.3405
0
LINE
8
BLACK
6
CONTINUOUS
10
286.065
20
-11.3405
11
286.065
21
-11.031
0
LINE
8
BLACK
6
CONTINUOUS
10
286.065
20
-11.031
11
286.004
21
-10.9071
0
LINE
8
BLACK
6
CONTINUOUS
10
286.004
20
-10.9071
11
285.942
21
-10.8452
0
LINE
8
BLACK
6
CONTINUOUS
10
285.942
20
-10.8452
11
285.818
21
-10.7833
0
LINE
8
BLACK
6
CONTINUOUS
10
285.818
20
-10.7833
11
285.57
21
-10.7833
0
LINE
8
BLACK
6
CONTINUOUS
10
285.57
20
-10.7833
11
285.446
21
-10.8452
0
LINE
8
BLACK
6
CONTINUOUS
10
285.446
20
-10.8452
11
285.385
21
-10.9071
0
LINE
8
BLACK
6
CONTINUOUS
10
285.385
20
-10.9071
11
285.323
21
-11.031
0
LINE
8
BLACK
6
CONTINUOUS
10
60
20
-198.007
11
60
21
-200.007
0
LINE
8
BLACK
6
CONTINUOUS
10
110
20
-198.007
11
110
21
-200.007
0
LINE
8
BLACK
6
CONTINUOUS
10
160
20
-198.007
11
160
21
-200.007
0
LINE
8
BLACK
6
CONTINUOUS
10
210
20
-198.007
11
210
21
-200.007
0
LINE
8
BLACK
6
CONTINUOUS
10
260
20
-198.007
11
260
21
-200.007
0
LINE
8
BLACK
6
CONTINUOUS
10
36.0655
20
-199.595
11
35.3226
21
-199.595
0
LINE
8
BLACK
6
CONTINUOUS
10
35.694
20
-199.595
11
35.694
21
-198.295
0
LINE
8
BLACK
6
CONTINUOUS
10
35.694
20
-198.295
11
35.5702
21
-198.481
0
LINE
8
BLACK
6
CONTINUOUS
10
35.5702
20
-198.481
11
35.4464
21
-198.605
0
LINE
8
BLACK
6
CONTINUOUS
10
35.4464
20
-198.605
11
35.3226
21
-198.667
0
LINE
8
BLACK
6
CONTINUOUS
10
85.3226
20
-198.419
11
85.3845
21
-198.357
0
LINE
8
BLACK
6
CONTINUOUS
10
85.3845
20
-198.357
11
85.5083
21
-198.295
0
LINE
8
BLACK
6
CONTINUOUS
10
85.5083
20
-198.295
11
85.8179
21
-198.295
0
LINE
8
BLACK
6
CONTINUOUS
10
85.8179
20
-198.295
11
85.9417
21
-198.357
0
LINE
8
BLACK
6
CONTINUOUS
10
85.9417
20
-198.357
11
86.0036
21
-198.419
0
LINE
8
BLACK
6
CONTINUOUS
10
86.0036
20
-198.419
11
86.0655
21
-198.543
0
LINE
8
BLACK
6
CONTINUOUS
10
86.0655
20
-198.543
11
86.0655
21
-198.667
0
LINE
8
BLACK
6
CONTINUOUS
10
86.0655
20
-198.667
11
86.0036
21
-198.852
0
LINE
8
BLACK
6
CONTINUOUS
10
86.0036
20
-198.852
11
85.2607
21
-199.595
0
LINE
8
BLACK
6
CONTINUOUS
10
85.2607
20
-199.595
11
86.0655
21
-199.595
0
LINE
8
BLACK
6
CONTINUOUS
10
135.261
20
-198.295
11
136.065
21
-198.295
0
LINE
8
BLACK
6
CONTINUOUS
10
136.065
20
-198.295
11
135.632
21
-198.791
0
LINE
8
BLACK
6
CONTINUOUS
10
135.632
20
-198.791
11
135.818
21
-198.791
0
LINE
8
BLACK
6
CONTINUOUS
10
135.818
20
-198.791
11
135.942
21
-198.852
0
LINE
8
BLACK
6
CONTINUOUS
10
135.942
20
-198.852
11
136.004
21
-198.914
0
LINE
8
BLACK
6
CONTINUOUS
10
136.004
20
-198.914
11
136.065
21
-199.038
0
LINE
8
BLACK
6
CONTINUOUS
10
136.065
20
-199.038
11
136.065
21
-199.348
0
LINE
8
BLACK
6
CONTINUOUS
10
136.065
20
-199.348
11
136.004
21
-199.471
0
LINE
8
BLACK
6
CONTINUOUS
10
136.004
20
-199.471
11
135.942
21
-199.533
0
LINE
8
BLACK
6
CONTINUOUS
10
135.942
20
-199.533
11
135.818
21
-199.595
0
LINE
8
BLACK
6
CONTINUOUS
10
135.818
20
-199.595
11
135.446
21
-199.595
0
LINE
8
BLACK
6
CONTINUOUS
10
135.446
20
-199.595
11
135.323
21
-199.533
0
LINE
8
BLACK
6
CONTINUOUS
10
135.323
20
-199.533
11
135.261
21
-199.471
0
LINE
8
BLACK
6
CONTINUOUS
10
185.942
20
-198.729
11
185.942
21
-199.595
0
LINE
8
BLACK
6
CONTINUOUS
10
185.632
20
-198.233
11
185.323
21
-199.162
0
LINE
8
BLACK
6
CONTINUOUS
10
185.323
20
-199.162
11
186.127
21
-199.162
0
LINE
8
BLACK
6
CONTINUOUS
10
236.004
20
-198.295
11
235.385
21
-198.295
0
LINE
8
BLACK
6
CONTINUOUS
10
235.385
20
-198.295
11
235.323
21
-198.914
0
LINE
8
BLACK
6
CONTINUOUS
10
235.323
20
-198.914
11
235.385
21
-198.852
0
LINE
8
BLACK
6
CONTINUOUS
10
235.385
20
-198.852
11
235.508
21
-198.791
0
LINE
8
BLACK
6
CONTINUOUS
10
235.508
20
-198.791
11
235.818
21
-198.791
0
LINE
8
BLACK
6
CONTINUOUS
10
235.818
20
-198.791
11
235.942
21
-198.852
0
LINE
8
BLACK
6
CONTINUOUS
10
235.942
20
-198.852
11
236.004
21
-198.914
0
LINE
8
BLACK
6
CONTINUOUS
10
236.004
20
-198.914
11
236.065
21
-199.038
0
LINE
8
BLACK
6
CONTINUOUS
10
236.065
20
-199.038
11
236.065
21
-199.348
0
LINE
8
BLACK
6
CONTINUOUS
10
236.065
20
-199.348
11
236.004
21
-199.471
0
LINE
8
BLACK
6
CONTINUOUS
10
236.004
20
-199.471
11
235.942
21
-199.533
0
LINE
8
BLACK
6
CONTINUOUS
10
235.942
20
-199.533
11
235.818
21
-199.595
0
LINE
8
BLACK
6
CONTINUOUS
10
235.818
20
-199.595
11
235.508
21
-199.595
0
LINE
8
BLACK
6
CONTINUOUS
10
235.508
20
-199.595
11
235.385
21
-199.533
0
LINE
8
BLACK
6
CONTINUOUS
10
235.385
20
-199.533
11
235.323
21
-199.471
0
LINE
8
BLACK
6
CONTINUOUS
10
285.942
20
-198.295
11
285.694
21
-198.295
0
LINE
8
BLACK
6
CONTINUOUS
10
285.694
20
-198.295
11
285.57
21
-198.357
0
LINE
8
BLACK
6
CONTINUOUS
10
285.57
20
-198.357
11
285.508
21
-198.419
0
LINE
8
BLACK
6
CONTINUOUS
10
285.508
20
-198.419
11
285.385
21
-198.605
0
LINE
8
BLACK
6
CONTINUOUS
10
285.385
20
-198.605
11
285.323
21
-198.852
0
LINE
8
BLACK
6
CONTINUOUS
10
285.323
20
-198.852
11
285.323
21
-199.348
0
LINE
8
BLACK
6
CONTINUOUS
10
285.323
20
-199.348
11
285.385
21
-199.471
0
LINE
8
BLACK
6
CONTINUOUS
10
285.385
20
-199.471
11
285.446
21
-199.533
0
LINE
8
BLACK
6
CONTINUOUS
10
285.446
20
-199.533
11
285.57
21
-199.595
0
LINE
8
BLACK
6
CONTINUOUS
10
285.57
20
-199.595
11
285.818
21
-199.595
0
LINE
8
BLACK
6
CONTINUOUS
10
285.818
20
-199.595
11
285.942
21
-199.533
0
LINE
8
BLACK
6
CONTINUOUS
10
285.942
20
-199.533
11
286.004
21
-199.471
0
LINE
8
BLACK
6
CONTINUOUS
10
286.004
20
-199.471
11
286.065
21
-199.348
0
LINE
8
BLACK
6
CONTINUOUS
10
286.065
20
-199.348
11
286.065
21
-199.038
0
LINE
8
BLACK
6
CONTINUOUS
10
286.065
20
-199.038
11
286.004
21
-198.914
0
LINE
8
BLACK
6
CONTINUOUS
10
286.004
20
-198.914
11
285.942
21
-198.852
0
LINE
8
BLACK
6
CONTINUOUS
10
285.942
20
-198.852
11
285.818
21
-198.791
0
LINE
8
BLACK
6
CONTINUOUS
10
285.818
20
-198.791
11
285.57
21
-198.791
0
LINE
8
BLACK
6
CONTINUOUS
10
285.57
20
-198.791
11
285.446
21
-198.852
0
LINE
8
BLACK
6
CONTINUOUS
10
285.446
20
-198.852
11
285.385
21
-198.914
0
LINE
8
BLACK
6
CONTINUOUS
10
285.385
20
-198.914
11
285.323
21
-199.038
0
LINE
8
BLACK
6
CONTINUOUS
10
10
20
-60
11
12
21
-60
0
LINE
8
BLACK
6
CONTINUOUS
10
10
20
-110
11
12
21
-110
0
LINE
8
BLACK
6
CONTINUOUS
10
10
20
-160
11
12
21
-160
0
LINE
8
BLACK
6
CONTINUOUS
10
10.6905
20
-35.2167
11
11.3095
21
-35.2167
0
LINE
8
BLACK
6
CONTINUOUS
10
10.5667
20
-35.5881
11
11
21
-34.2881
0
LINE
8
BLACK
6
CONTINUOUS
10
11
20
-34.2881
11
11.4333
21
-35.5881
0
LINE
8
BLACK
6
CONTINUOUS
10
11.0929
20
-84.9071
11
11.2786
21
-84.969
0
LINE
8
BLACK
6
CONTINUOUS
10
11.2786
20
-84.969
11
11.3405
21
-85.031
0
LINE
8
BLACK
6
CONTINUOUS
10
11.3405
20
-85.031
11
11.4024
21
-85.1548
0
LINE
8
BLACK
6
CONTINUOUS
10
11.4024
20
-85.1548
11
11.4024
21
-85.3405
0
LINE
8
BLACK
6
CONTINUOUS
10
11.4024
20
-85.3405
11
11.3405
21
-85.4643
0
LINE
8
BLACK
6
CONTINUOUS
10
11.3405
20
-85.4643
11
11.2786
21
-85.5262
0
LINE
8
BLACK
6
CONTINUOUS
10
11.2786
20
-85.5262
11
11.1548
21
-85.5881
0
LINE
8
BLACK
6
CONTINUOUS
10
11.1548
20
-85.5881
11
10.6595
21
-85.5881
0
LINE
8
BLACK
6
CONTINUOUS
10
10.6595
20
-85.5881
11
10.6595
21
-84.2881
0
LINE
8
BLACK
6
CONTINUOUS
10
10.6595
20
-84.2881
11
11.0929
21
-84.2881
0
LINE
8
BLACK
6
CONTINUOUS
10
11.0929
20
-84.2881
11
11.2167
21
-84.35
0
LINE
8
BLACK
6
CONTINUOUS
10
11.2167
20
-84.35
11
11.2786
21
-84.4119
0
LINE
8
BLACK
6
CONTINUOUS
10
11.2786
20
-84.4119
11
11.3405
21
-84.5357
0
LINE
8
BLACK
6
CONTINUOUS
10
11.3405
20
-84.5357
11
11.3405
21
-84.6595
0
LINE
8
BLACK
6
CONTINUOUS
10
11.3405
20
-84.6595
11
11.2786
21
-84.7833
0
LINE
8
BLACK
6
CONTINUOUS
10
11.2786
20
-84.7833
11
11.2167
21
-84.8452
0
LINE
8
BLACK
6
CONTINUOUS
10
11.2167
20
-84.8452
11
11.0929
21
-84.9071
0
LINE
8
BLACK
6
CONTINUOUS
10
11.0929
20
-84.9071
11
10.6595
21
-84.9071
0
LINE
8
BLACK
6
CONTINUOUS
10
11.4024
20
-135.464
11
11.3405
21
-135.526
0
LINE
8
BLACK
6
CONTINUOUS
10
11.3405
20
-135.526
11
11.1548
21
-135.588
0
LINE
8
BLACK
6
CONTINUOUS
10
11.1548
20
-135.588
11
11.031
21
-135.588
0
LINE
8
BLACK
6
CONTINUOUS
10
11.031
20
-135.588
11
10.8452
21
-135.526
0
LINE
8
BLACK
6
CONTINUOUS
10
10.8452
20
-135.526
11
10.7214
21
-135.402
0
LINE
8
BLACK
6
CONTINUOUS
10
10.7214
20
-135.402
11
10.6595
21
-135.279
0
LINE
8
BLACK
6
CONTINUOUS
10
10.6595
20
-135.279
11
10.5976
21
-135.031
0
LINE
8
BLACK
6
CONTINUOUS
10
10.5976
20
-135.031
11
10.5976
21
-134.845
0
LINE
8
BLACK
6
CONTINUOUS
10
10.5976
20
-134.845
11
10.6595
21
-134.598
0
LINE
8
BLACK
6
CONTINUOUS
10
10.6595
20
-134.598
11
10.7214
21
-134.474
0
LINE
8
BLACK
6
CONTINUOUS
10
10.7214
20
-134.474
11
10.8452
21
-134.35
0
LINE
8
BLACK
6
CONTINUOUS
10
10.8452
20
-134.35
11
11.031
21
-134.288
0
LINE
8
BLACK
6
CONTINUOUS
10
11.031
20
-134.288
11
11.1548
21
-134.288
0
LINE
8
BLACK
6
CONTINUOUS
10
11.1548
20
-134.288
11
11.3405
21
-134.35
0
LINE
8
BLACK
6
CONTINUOUS
10
11.3405
20
-134.35
11
11.4024
21
-134.412
0
LINE
8
BLACK
6
CONTINUOUS
10
10.6595
20
-185.588
11
10.6595
21
-184.288
0
LINE
8
BLACK
6
CONTINUOUS
10
10.6595
20
-184.288
11
10.969
21
-184.288
0
LINE
8
BLACK
6
CONTINUOUS
10
10.969
20
-184.288
11
11.1548
21
-184.35
0
LINE
8
BLACK
6
CONTINUOUS
10
11.1548
20
-184.35
11
11.2786
21
-184.474
0
LINE
8
BLACK
6
CONTINUOUS
10
11.2786
20
-184.474
11
11.3405
21
-184.598
0
LINE
8
BLACK
6
CONTINUOUS
10
11.3405
20
-184.598
11
11.4024
21
-184.845
0
LINE
8
BLACK
6
CONTINUOUS
10
11.4024
20
-184.845
11
11.4024
21
-185.031
0
LINE
8
BLACK
6
CONTINUOUS
10
11.4024
20
-185.031
11
11.3405
21
-185.279
0
LINE
8
BLACK
6
CONTINUOUS
10
11.3405
20
-185.279
11
11.2786
21
-185.402
0
LINE
8
BLACK
6
CONTINUOUS
10
11.2786
20
-185.402
11
11.1548
21
-185.526
0
LINE
8
BLACK
6
CONTINUOUS
10
11.1548
20
-185.526
11
10.969
21
-185.588
0
LINE
8
BLACK
6
CONTINUOUS
10
10.969
20
-185.588
11
10.6595
21
-185.588
0
LINE
8
BLACK
6
CONTINUOUS
10
287.002
20
-60
11
285.002
21
-60
0
LINE
8
BLACK
6
CONTINUOUS
10
287.002
20
-110
11
285.002
21
-110
0
LINE
8
BLACK
6
CONTINUOUS
10
287.002
20
-160
11
285.002
21
-160
0
LINE
8
BLACK
6
CONTINUOUS
10
285.693
20
-35.2167
11
286.312
21
-35.2167
0
LINE
8
BLACK
6
CONTINUOUS
10
285.569
20
-35.5881
11
286.002
21
-34.2881
0
LINE
8
BLACK
6
CONTINUOUS
10
286.002
20
-34.2881
11
286.436
21
-35.5881
0
LINE
8
BLACK
6
CONTINUOUS
10
286.095
20
-84.9071
11
286.281
21
-84.969
0
LINE
8
BLACK
6
CONTINUOUS
10
286.281
20
-84.969
11
286.343
21
-85.031
0
LINE
8
BLACK
6
CONTINUOUS
10
286.343
20
-85.031
11
286.405
21
-85.1548
0
LINE
8
BLACK
6
CONTINUOUS
10
286.405
20
-85.1548
11
286.405
21
-85.3405
0
LINE
8
BLACK
6
CONTINUOUS
10
286.405
20
-85.3405
11
286.343
21
-85.4643
0
LINE
8
BLACK
6
CONTINUOUS
10
286.343
20
-85.4643
11
286.281
21
-85.5262
0
LINE
8
BLACK
6
CONTINUOUS
10
286.281
20
-85.5262
11
286.157
21
-85.5881
0
LINE
8
BLACK
6
CONTINUOUS
10
286.157
20
-85.5881
11
285.662
21
-85.5881
0
LINE
8
BLACK
6
CONTINUOUS
10
285.662
20
-85.5881
11
285.662
21
-84.2881
0
LINE
8
BLACK
6
CONTINUOUS
10
285.662
20
-84.2881
11
286.095
21
-84.2881
0
LINE
8
BLACK
6
CONTINUOUS
10
286.095
20
-84.2881
11
286.219
21
-84.35
0
LINE
8
BLACK
6
CONTINUOUS
10
286.219
20
-84.35
11
286.281
21
-84.4119
0
LINE
8
BLACK
6
CONTINUOUS
10
286.281
20
-84.4119
11
286.343
21
-84.5357
0
LINE
8
BLACK
6
CONTINUOUS
10
286.343
20
-84.5357
11
286.343
21
-84.6595
0
LINE
8
BLACK
6
CONTINUOUS
10
286.343
20
-84.6595
11
286.281
21
-84.7833
0
LINE
8
BLACK
6
CONTINUOUS
10
286.281
20
-84.7833
11
286.219
21
-84.8452
0
LINE
8
BLACK
6
CONTINUOUS
10
286.219
20
-84.8452
11
286.095
21
-84.9071
0
LINE
8
BLACK
6
CONTINUOUS
10
286.095
20
-84.9071
11
285.662
21
-84.9071
0
LINE
8
BLACK
6
CONTINUOUS
10
286.405
20
-135.464
11
286.343
21
-135.526
0
LINE
8
BLACK
6
CONTINUOUS
10
286.343
20
-135.526
11
286.157
21
-135.588
0
LINE
8
BLACK
6
CONTINUOUS
10
286.157
20
-135.588
11
286.033
21
-135.588
0
LINE
8
BLACK
6
CONTINUOUS
10
286.033
20
-135.588
11
285.847
21
-135.526
0
LINE
8
BLACK
6
CONTINUOUS
10
285.847
20
-135.526
11
285.724
21
-135.402
0
LINE
8
BLACK
6
CONTINUOUS
10
285.724
20
-135.402
11
285.662
21
-135.279
0
LINE
8
BLACK
6
CONTINUOUS
10
285.662
20
-135.279
11
285.6
21
-135.031
0
LINE
8
BLACK
6
CONTINUOUS
10
285.6
20
-135.031
11
285.6
21
-134.845
0
LINE
8
BLACK
6
CONTINUOUS
10
285.6
20
-134.845
11
285.662
21
-134.598
0
LINE
8
BLACK
6
CONTINUOUS
10
285.662
20
-134.598
11
285.724
21
-134.474
0
LINE
8
BLACK
6
CONTINUOUS
10
285.724
20
-134.474
11
285.847
21
-134.35
0
LINE
8
BLACK
6
CONTINUOUS
10
285.847
20
-134.35
11
286.033
21
-134.288
0
LINE
8
BLACK
6
CONTINUOUS
10
286.033
20
-134.288
11
286.157
21
-134.288
0
LINE
8
BLACK
6
CONTINUOUS
10
286.157
20
-134.288
11
286.343
21
-134.35
0
LINE
8
BLACK
6
CONTINUOUS
10
286.343
20
-134.35
11
286.405
21
-134.412
0
LINE
8
BLACK
6
CONTINUOUS
10
285.662
20
-185.588
11
285.662
21
-184.288
0
LINE
8
BLACK
6
CONTINUOUS
10
285.662
20
-184.288
11
285.971
21
-184.288
0
LINE
8
BLACK
6
CONTINUOUS
10
285.971
20
-184.288
11
286.157
21
-184.35
0
LINE
8
BLACK
6
CONTINUOUS
10
286.157
20
-184.35
11
286.281
21
-184.474
0
LINE
8
BLACK
6
CONTINUOUS
10
286.281
20
-184.474
11
286.343
21
-184.598
0
LINE
8
BLACK
6
CONTINUOUS
10
286.343
20
-184.598
11
286.405
21
-184.845
0
LINE
8
BLACK
6
CONTINUOUS
10
286.405
20
-184.845
11
286.405
21
-185.031
0
LINE
8
BLACK
6
CONTINUOUS
10
286.405
20
-185.031
11
286.343
21
-185.279
0
LINE
8
BLACK
6
CONTINUOUS
10
286.343
20
-185.279
11
286.281
21
-185.402
0
LINE
8
BLACK
6
CONTINUOUS
10
286.281
20
-185.402
11
286.157
21
-185.526
0
LINE
8
BLACK
6
CONTINUOUS
10
286.157
20
-185.526
11
285.971
21
-185.588
0
LINE
8
BLACK
6
CONTINUOUS
10
285.971
20
-185.588
11
285.662
21
-185.588
0
LINE
8
BLACK
6
CONTINUOUS
10
200.434
20
-193.786
11
200.434
21
-192.286
0
LINE
8
BLACK
6
CONTINUOUS
10
200.434
20
-192.286
11
200.791
21
-192.286
0
LINE
8
BLACK
6
CONTINUOUS
10
200.791
20
-192.286
11
201.006
21
-192.357
0
LINE
8
BLACK
6
CONTINUOUS
10
201.006
20
-192.357
11
201.149
21
-192.5
0
LINE
8
BLACK
6
CONTINUOUS
10
201.149
20
-192.5
11
201.22
21
-192.643
0
LINE
8
BLACK
6
CONTINUOUS
10
201.22
20
-192.643
11
201.291
21
-192.929
0
LINE
8
BLACK
6
CONTINUOUS
10
201.291
20
-192.929
11
201.291
21
-193.143
0
LINE
8
BLACK
6
CONTINUOUS
10
201.291
20
-193.143
11
201.22
21
-193.429
0
LINE
8
BLACK
6
CONTINUOUS
10
201.22
20
-193.429
11
201.149
21
-193.571
0
LINE
8
BLACK
6
CONTINUOUS
10
201.149
20
-193.571
11
201.006
21
-193.714
0
LINE
8
BLACK
6
CONTINUOUS
10
201.006
20
-193.714
11
200.791
21
-193.786
0
LINE
8
BLACK
6
CONTINUOUS
10
200.791
20
-193.786
11
200.434
21
-193.786
0
LINE
8
BLACK
6
CONTINUOUS
10
202.577
20
-193.786
11
202.577
21
-193
0
LINE
8
BLACK
6
CONTINUOUS
10
202.577
20
-193
11
202.506
21
-192.857
0
LINE
8
BLACK
6
CONTINUOUS
10
202.506
20
-192.857
11
202.363
21
-192.786
0
LINE
8
BLACK
6
CONTINUOUS
10
202.363
20
-192.786
11
202.077
21
-192.786
0
LINE
8
BLACK
6
CONTINUOUS
10
202.077
20
-192.786
11
201.934
21
-192.857
0
LINE
8
BLACK
6
CONTINUOUS
10
202.577
20
-193.714
11
202.434
21
-193.786
0
LINE
8
BLACK
6
CONTINUOUS
10
202.434
20
-193.786
11
202.077
21
-193.786
0
LINE
8
BLACK
6
CONTINUOUS
10
202.077
20
-193.786
11
201.934
21
-193.714
0
LINE
8
BLACK
6
CONTINUOUS
10
201.934
20
-193.714
11
201.863
21
-193.571
0
LINE
8
BLACK
6
CONTINUOUS
10
201.863
20
-193.571
11
201.863
21
-193.429
0
LINE
8
BLACK
6
CONTINUOUS
10
201.863
20
-193.429
11
201.934
21
-193.286
0
LINE
8
BLACK
6
CONTINUOUS
10
201.934
20
-193.286
11
202.077
21
-193.214
0
LINE
8
BLACK
6
CONTINUOUS
10
202.077
20
-193.214
11
202.434
21
-193.214
0
LINE
8
BLACK
6
CONTINUOUS
10
202.434
20
-193.214
11
202.577
21
-193.143
0
LINE
8
BLACK
6
CONTINUOUS
10
203.077
20
-192.786
11
203.649
21
-192.786
0
LINE
8
BLACK
6
CONTINUOUS
10
203.291
20
-192.286
11
203.291
21
-193.571
0
LINE
8
BLACK
6
CONTINUOUS
10
203.291
20
-193.571
11
203.363
21
-193.714
0
LINE
8
BLACK
6
CONTINUOUS
10
203.363
20
-193.714
11
203.506
21
-193.786
0
LINE
8
BLACK
6
CONTINUOUS
10
203.506
20
-193.786
11
203.649
21
-193.786
0
LINE
8
BLACK
6
CONTINUOUS
10
204.72
20
-193.714
11
204.577
21
-193.786
0
LINE
8
BLACK
6
CONTINUOUS
10
204.577
20
-193.786
11
204.291
21
-193.786
0
LINE
8
BLACK
6
CONTINUOUS
10
204.291
20
-193.786
11
204.149
21
-193.714
0
LINE
8
BLACK
6
CONTINUOUS
10
204.149
20
-193.714
11
204.077
21
-193.571
0
LINE
8
BLACK
6
CONTINUOUS
10
204.077
20
-193.571
11
204.077
21
-193
0
LINE
8
BLACK
6
CONTINUOUS
10
204.077
20
-193
11
204.149
21
-192.857
0
LINE
8
BLACK
6
CONTINUOUS
10
204.149
20
-192.857
11
204.291
21
-192.786
0
LINE
8
BLACK
6
CONTINUOUS
10
204.291
20
-192.786
11
204.577
21
-192.786
0
LINE
8
BLACK
6
CONTINUOUS
10
204.577
20
-192.786
11
204.72
21
-192.857
0
LINE
8
BLACK
6
CONTINUOUS
10
204.72
20
-192.857
11
204.791
21
-193
0
LINE
8
BLACK
6
CONTINUOUS
10
204.791
20
-193
11
204.791
21
-193.143
0
LINE
8
BLACK
6
CONTINUOUS
10
204.791
20
-193.143
11
204.077
21
-193.286
0
LINE
8
BLACK
6
CONTINUOUS
10
205.434
20
-193.643
11
205.506
21
-193.714
0
LINE
8
BLACK
6
CONTINUOUS
10
205.506
20
-193.714
11
205.434
21
-193.786
0
LINE
8
BLACK
6
CONTINUOUS
10
205.434
20
-193.786
11
205.363
21
-193.714
0
LINE
8
BLACK
6
CONTINUOUS
10
205.363
20
-193.714
11
205.434
21
-193.643
0
LINE
8
BLACK
6
CONTINUOUS
10
205.434
20
-193.643
11
205.434
21
-193.786
0
LINE
8
BLACK
6
CONTINUOUS
10
205.434
20
-192.857
11
205.506
21
-192.929
0
LINE
8
BLACK
6
CONTINUOUS
10
205.506
20
-192.929
11
205.434
21
-193
0
LINE
8
BLACK
6
CONTINUOUS
10
205.434
20
-193
11
205.363
21
-192.929
0
LINE
8
BLACK
6
CONTINUOUS
10
205.363
20
-192.929
11
205.434
21
-192.857
0
LINE
8
BLACK
6
CONTINUOUS
10
205.434
20
-192.857
11
205.434
21
-193
0
LINE
8
BLACK
6
CONTINUOUS
10
207.22
20
-192.429
11
207.291
21
-192.357
0
LINE
8
BLACK
6
CONTINUOUS
10
207.291
20
-192.357
11
207.434
21
-192.286
0
LINE
8
BLACK
6
CONTINUOUS
10
207.434
20
-192.286
11
207.791
21
-192.286
0
LINE
8
BLACK
6
CONTINUOUS
10
207.791
20
-192.286
11
207.934
21
-192.357
0
LINE
8
BLACK
6
CONTINUOUS
10
207.934
20
-192.357
11
208.006
21
-192.429
0
LINE
8
BLACK
6
CONTINUOUS
10
208.006
20
-192.429
11
208.077
21
-192.571
0
LINE
8
BLACK
6
CONTINUOUS
10
208.077
20
-192.571
11
208.077
21
-192.714
0
LINE
8
BLACK
6
CONTINUOUS
10
208.077
20
-192.714
11
208.006
21
-192.929
0
LINE
8
BLACK
6
CONTINUOUS
10
208.006
20
-192.929
11
207.149
21
-193.786
0
LINE
8
BLACK
6
CONTINUOUS
10
207.149
20
-193.786
11
208.077
21
-193.786
0
LINE
8
BLACK
6
CONTINUOUS
10
209.006
20
-192.286
11
209.149
21
-192.286
0
LINE
8
BLACK
6
CONTINUOUS
10
209.149
20
-192.286
11
209.291
21
-192.357
0
LINE
8
BLACK
6
CONTINUOUS
10
209.291
20
-192.357
11
209.363
21
-192.429
0
LINE
8
BLACK
6
CONTINUOUS
10
209.363
20
-192.429
11
209.434
21
-192.571
0
LINE
8
BLACK
6
CONTINUOUS
10
209.434
20
-192.571
11
209.506
21
-192.857
0
LINE
8
BLACK
6
CONTINUOUS
10
209.506
20
-192.857
11
209.506
21
-193.214
0
LINE
8
BLACK
6
CONTINUOUS
10
209.506
20
-193.214
11
209.434
21
-193.5
0
LINE
8
BLACK
6
CONTINUOUS
10
209.434
20
-193.5
11
209.363
21
-193.643
0
LINE
8
BLACK
6
CONTINUOUS
10
209.363
20
-193.643
11
209.291
21
-193.714
0
LINE
8
BLACK
6
CONTINUOUS
10
209.291
20
-193.714
11
209.149
21
-193.786
0
LINE
8
BLACK
6
CONTINUOUS
10
209.149
20
-193.786
11
209.006
21
-193.786
0
LINE
8
BLACK
6
CONTINUOUS
10
209.006
20
-193.786
11
208.863
21
-193.714
0
LINE
8
BLACK
6
CONTINUOUS
10
208.863
20
-193.714
11
208.791
21
-193.643
0
LINE
8
BLACK
6
CONTINUOUS
10
208.791
20
-193.643
11
208.72
21
-193.5
0
LINE
8
BLACK
6
CONTINUOUS
10
208.72
20
-193.5
11
208.649
21
-193.214
0
LINE
8
BLACK
6
CONTINUOUS
10
208.649
20
-193.214
11
208.649
21
-192.857
0
LINE
8
BLACK
6
CONTINUOUS
10
208.649
20
-192.857
11
208.72
21
-192.571
0
LINE
8
BLACK
6
CONTINUOUS
10
208.72
20
-192.571
11
208.791
21
-192.429
0
LINE
8
BLACK
6
CONTINUOUS
10
208.791
20
-192.429
11
208.863
21
-192.357
0
LINE
8
BLACK
6
CONTINUOUS
10
208.863
20
-192.357
11
209.006
21
-192.286
0
LINE
8
BLACK
6
CONTINUOUS
10
210.077
20
-192.429
11
210.149
21
-192.357
0
LINE
8
BLACK
6
CONTINUOUS
10
210.149
20
-192.357
11
210.291
21
-192.286
0
LINE
8
BLACK
6
CONTINUOUS
10
210.291
20
-192.286
11
210.649
21
-192.286
0
LINE
8
BLACK
6
CONTINUOUS
10
210.649
20
-192.286
11
210.791
21
-192.357
0
LINE
8
BLACK
6
CONTINUOUS
10
210.791
20
-192.357
11
210.863
21
-192.429
0
LINE
8
BLACK
6
CONTINUOUS
10
210.863
20
-192.429
11
210.934
21
-192.571
0
LINE
8
BLACK
6
CONTINUOUS
10
210.934
20
-192.571
11
210.934
21
-192.714
0
LINE
8
BLACK
6
CONTINUOUS
10
210.934
20
-192.714
11
210.863
21
-192.929
0
LINE
8
BLACK
6
CONTINUOUS
10
210.863
20
-192.929
11
210.006
21
-193.786
0
LINE
8
BLACK
6
CONTINUOUS
10
210.006
20
-193.786
11
210.934
21
-193.786
0
LINE
8
BLACK
6
CONTINUOUS
10
211.506
20
-192.429
11
211.577
21
-192.357
0
LINE
8
BLACK
6
CONTINUOUS
10
211.577
20
-192.357
11
211.72
21
-192.286
0
LINE
8
BLACK
6
CONTINUOUS
10
211.72
20
-192.286
11
212.077
21
-192.286
0
LINE
8
BLACK
6
CONTINUOUS
10
212.077
20
-192.286
11
212.22
21
-192.357
0
LINE
8
BLACK
6
CONTINUOUS
10
212.22
20
-192.357
11
212.291
21
-192.429
0
LINE
8
BLACK
6
CONTINUOUS
10
212.291
20
-192.429
11
212.363
21
-192.571
0
LINE
8
BLACK
6
CONTINUOUS
10
212.363
20
-192.571
11
212.363
21
-192.714
0
LINE
8
BLACK
6
CONTINUOUS
10
212.363
20
-192.714
11
212.291
21
-192.929
0
LINE
8
BLACK
6
CONTINUOUS
10
212.291
20
-192.929
11
211.434
21
-193.786
0
LINE
8
BLACK
6
CONTINUOUS
10
211.434
20
-193.786
11
212.363
21
-193.786
0
LINE
8
BLACK
6
CONTINUOUS
10
213.006
20
-193.214
11
214.149
21
-193.214
0
LINE
8
BLACK
6
CONTINUOUS
10
215.649
20
-193.786
11
214.791
21
-193.786
0
LINE
8
BLACK
6
CONTINUOUS
10
215.22
20
-193.786
11
215.22
21
-192.286
0
LINE
8
BLACK
6
CONTINUOUS
10
215.22
20
-192.286
11
215.077
21
-192.5
0
LINE
8
BLACK
6
CONTINUOUS
10
215.077
20
-192.5
11
214.934
21
-192.643
0
LINE
8
BLACK
6
CONTINUOUS
10
214.934
20
-192.643
11
214.791
21
-192.714
0
LINE
8
BLACK
6
CONTINUOUS
10
216.577
20
-192.286
11
216.72
21
-192.286
0
LINE
8
BLACK
6
CONTINUOUS
10
216.72
20
-192.286
11
216.863
21
-192.357
0
LINE
8
BLACK
6
CONTINUOUS
10
216.863
20
-192.357
11
216.934
21
-192.429
0
LINE
8
BLACK
6
CONTINUOUS
10
216.934
20
-192.429
11
217.006
21
-192.571
0
LINE
8
BLACK
6
CONTINUOUS
10
217.006
20
-192.571
11
217.077
21
-192.857
0
LINE
8
BLACK
6
CONTINUOUS
10
217.077
20
-192.857
11
217.077
21
-193.214
0
LINE
8
BLACK
6
CONTINUOUS
10
217.077
20
-193.214
11
217.006
21
-193.5
0
LINE
8
BLACK
6
CONTINUOUS
10
217.006
20
-193.5
11
216.934
21
-193.643
0
LINE
8
BLACK
6
CONTINUOUS
10
216.934
20
-193.643
11
216.863
21
-193.714
0
LINE
8
BLACK
6
CONTINUOUS
10
216.863
20
-193.714
11
216.72
21
-193.786
0
LINE
8
BLACK
6
CONTINUOUS
10
216.72
20
-193.786
11
216.577
21
-193.786
0
LINE
8
BLACK
6
CONTINUOUS
10
216.577
20
-193.786
11
216.434
21
-193.714
0
LINE
8
BLACK
6
CONTINUOUS
10
216.434
20
-193.714
11
216.363
21
-193.643
0
LINE
8
BLACK
6
CONTINUOUS
10
216.363
20
-193.643
11
216.291
21
-193.5
0
LINE
8
BLACK
6
CONTINUOUS
10
216.291
20
-193.5
11
216.22
21
-193.214
0
LINE
8
BLACK
6
CONTINUOUS
10
216.22
20
-193.214
11
216.22
21
-192.857
0
LINE
8
BLACK
6
CONTINUOUS
10
216.22
20
-192.857
11
216.291
21
-192.571
0
LINE
8
BLACK
6
CONTINUOUS
10
216.291
20
-192.571
11
216.363
21
-192.429
0
LINE
8
BLACK
6
CONTINUOUS
10
216.363
20
-192.429
11
216.434
21
-192.357
0
LINE
8
BLACK
6
CONTINUOUS
10
216.434
20
-192.357
11
216.577
21
-192.286
0
LINE
8
BLACK
6
CONTINUOUS
10
217.72
20
-193.214
11
218.863
21
-193.214
0
LINE
8
BLACK
6
CONTINUOUS
10
219.506
20
-192.429
11
219.577
21
-192.357
0
LINE
8
BLACK
6
CONTINUOUS
10
219.577
20
-192.357
11
219.72
21
-192.286
0
LINE
8
BLACK
6
CONTINUOUS
10
219.72
20
-192.286
11
220.077
21
-192.286
0
LINE
8
BLACK
6
CONTINUOUS
10
220.077
20
-192.286
11
220.22
21
-192.357
0
LINE
8
BLACK
6
CONTINUOUS
10
220.22
20
-192.357
11
220.291
21
-192.429
0
LINE
8
BLACK
6
CONTINUOUS
10
220.291
20
-192.429
11
220.363
21
-192.571
0
LINE
8
BLACK
6
CONTINUOUS
10
220.363
20
-192.571
11
220.363
21
-192.714
0
LINE
8
BLACK
6
CONTINUOUS
10
220.363
20
-192.714
11
220.291
21
-192.929
0
LINE
8
BLACK
6
CONTINUOUS
10
220.291
20
-192.929
11
219.434
21
-193.786
0
LINE
8
BLACK
6
CONTINUOUS
10
219.434
20
-193.786
11
220.363
21
-193.786
0
LINE
8
BLACK
6
CONTINUOUS
10
221.791
20
-193.786
11
220.934
21
-193.786
0
LINE
8
BLACK
6
CONTINUOUS
10
221.363
20
-193.786
11
221.363
21
-192.286
0
LINE
8
BLACK
6
CONTINUOUS
10
221.363
20
-192.286
11
221.22
21
-192.5
0
LINE
8
BLACK
6
CONTINUOUS
10
221.22
20
-192.5
11
221.077
21
-192.643
0
LINE
8
BLACK
6
CONTINUOUS
10
221.077
20
-192.643
11
220.934
21
-192.714
0
LINE
8
BLACK
6
CONTINUOUS
10
177.002
20
-194.507
11
285.002
21
-194.507
0
LINE
8
BLACK
6
CONTINUOUS
10
178.434
20
-196.586
11
178.434
21
-195.086
0
LINE
8
BLACK
6
CONTINUOUS
10
179.291
20
-196.586
11
178.649
21
-195.729
0
LINE
8
BLACK
6
CONTINUOUS
10
179.291
20
-195.086
11
178.434
21
-195.943
0
LINE
8
BLACK
6
CONTINUOUS
10
179.934
20
-196.586
11
179.934
21
-195.586
0
LINE
8
BLACK
6
CONTINUOUS
10
179.934
20
-195.086
11
179.863
21
-195.157
0
LINE
8
BLACK
6
CONTINUOUS
10
179.863
20
-195.157
11
179.934
21
-195.229
0
LINE
8
BLACK
6
CONTINUOUS
10
179.934
20
-195.229
11
180.006
21
-195.157
0
LINE
8
BLACK
6
CONTINUOUS
10
180.006
20
-195.157
11
179.934
21
-195.086
0
LINE
8
BLACK
6
CONTINUOUS
10
179.934
20
-195.086
11
179.934
21
-195.229
0
LINE
8
BLACK
6
CONTINUOUS
10
181.506
20
-196.443
11
181.434
21
-196.514
0
LINE
8
BLACK
6
CONTINUOUS
10
181.434
20
-196.514
11
181.22
21
-196.586
0
LINE
8
BLACK
6
CONTINUOUS
10
181.22
20
-196.586
11
181.077
21
-196.586
0
LINE
8
BLACK
6
CONTINUOUS
10
181.077
20
-196.586
11
180.863
21
-196.514
0
LINE
8
BLACK
6
CONTINUOUS
10
180.863
20
-196.514
11
180.72
21
-196.371
0
LINE
8
BLACK
6
CONTINUOUS
10
180.72
20
-196.371
11
180.649
21
-196.229
0
LINE
8
BLACK
6
CONTINUOUS
10
180.649
20
-196.229
11
180.577
21
-195.943
0
LINE
8
BLACK
6
CONTINUOUS
10
180.577
20
-195.943
11
180.577
21
-195.729
0
LINE
8
BLACK
6
CONTINUOUS
10
180.577
20
-195.729
11
180.649
21
-195.443
0
LINE
8
BLACK
6
CONTINUOUS
10
180.649
20
-195.443
11
180.72
21
-195.3
0
LINE
8
BLACK
6
CONTINUOUS
10
180.72
20
-195.3
11
180.863
21
-195.157
0
LINE
8
BLACK
6
CONTINUOUS
10
180.863
20
-195.157
11
181.077
21
-195.086
0
LINE
8
BLACK
6
CONTINUOUS
10
181.077
20
-195.086
11
181.22
21
-195.086
0
LINE
8
BLACK
6
CONTINUOUS
10
181.22
20
-195.086
11
181.434
21
-195.157
0
LINE
8
BLACK
6
CONTINUOUS
10
181.434
20
-195.157
11
181.506
21
-195.229
0
LINE
8
BLACK
6
CONTINUOUS
10
182.791
20
-196.586
11
182.791
21
-195.8
0
LINE
8
BLACK
6
CONTINUOUS
10
182.791
20
-195.8
11
182.72
21
-195.657
0
LINE
8
BLACK
6
CONTINUOUS
10
182.72
20
-195.657
11
182.577
21
-195.586
0
LINE
8
BLACK
6
CONTINUOUS
10
182.577
20
-195.586
11
182.291
21
-195.586
0
LINE
8
BLACK
6
CONTINUOUS
10
182.291
20
-195.586
11
182.149
21
-195.657
0
LINE
8
BLACK
6
CONTINUOUS
10
182.791
20
-196.514
11
182.649
21
-196.586
0
LINE
8
BLACK
6
CONTINUOUS
10
182.649
20
-196.586
11
182.291
21
-196.586
0
LINE
8
BLACK
6
CONTINUOUS
10
182.291
20
-196.586
11
182.149
21
-196.514
0
LINE
8
BLACK
6
CONTINUOUS
10
182.149
20
-196.514
11
182.077
21
-196.371
0
LINE
8
BLACK
6
CONTINUOUS
10
182.077
20
-196.371
11
182.077
21
-196.229
0
LINE
8
BLACK
6
CONTINUOUS
10
182.077
20
-196.229
11
182.149
21
-196.086
0
LINE
8
BLACK
6
CONTINUOUS
10
182.149
20
-196.086
11
182.291
21
-196.014
0
LINE
8
BLACK
6
CONTINUOUS
10
182.291
20
-196.014
11
182.649
21
-196.014
0
LINE
8
BLACK
6
CONTINUOUS
10
182.649
20
-196.014
11
182.791
21
-195.943
0
LINE
8
BLACK
6
CONTINUOUS
10
184.149
20
-196.586
11
184.149
21
-195.086
0
LINE
8
BLACK
6
CONTINUOUS
10
184.149
20
-196.514
11
184.006
21
-196.586
0
LINE
8
BLACK
6
CONTINUOUS
10
184.006
20
-196.586
11
183.72
21
-196.586
0
LINE
8
BLACK
6
CONTINUOUS
10
183.72
20
-196.586
11
183.577
21
-196.514
0
LINE
8
BLACK
6
CONTINUOUS
10
183.577
20
-196.514
11
183.506
21
-196.443
0
LINE
8
BLACK
6
CONTINUOUS
10
183.506
20
-196.443
11
183.434
21
-196.3
0
LINE
8
BLACK
6
CONTINUOUS
10
183.434
20
-196.3
11
183.434
21
-195.871
0
LINE
8
BLACK
6
CONTINUOUS
10
183.434
20
-195.871
11
183.506
21
-195.729
0
LINE
8
BLACK
6
CONTINUOUS
10
183.506
20
-195.729
11
183.577
21
-195.657
0
LINE
8
BLACK
6
CONTINUOUS
10
183.577
20
-195.657
11
183.72
21
-195.586
0
LINE
8
BLACK
6
CONTINUOUS
10
183.72
20
-195.586
11
184.006
21
-195.586
0
LINE
8
BLACK
6
CONTINUOUS
10
184.006
20
-195.586
11
184.149
21
-195.657
0
LINE
8
BLACK
6
CONTINUOUS
10
186.006
20
-195.8
11
186.506
21
-195.8
0
LINE
8
BLACK
6
CONTINUOUS
10
186.72
20
-196.586
11
186.006
21
-196.586
0
LINE
8
BLACK
6
CONTINUOUS
10
186.006
20
-196.586
11
186.006
21
-195.086
0
LINE
8
BLACK
6
CONTINUOUS
10
186.006
20
-195.086
11
186.72
21
-195.086
0
LINE
8
BLACK
6
CONTINUOUS
10
187.363
20
-196.443
11
187.434
21
-196.514
0
LINE
8
BLACK
6
CONTINUOUS
10
187.434
20
-196.514
11
187.363
21
-196.586
0
LINE
8
BLACK
6
CONTINUOUS
10
187.363
20
-196.586
11
187.291
21
-196.514
0
LINE
8
BLACK
6
CONTINUOUS
10
187.291
20
-196.514
11
187.363
21
-196.443
0
LINE
8
BLACK
6
CONTINUOUS
10
187.363
20
-196.443
11
187.363
21
-196.586
0
LINE
8
BLACK
6
CONTINUOUS
10
188.077
20
-196.586
11
188.077
21
-195.086
0
LINE
8
BLACK
6
CONTINUOUS
10
188.077
20
-195.086
11
188.434
21
-195.086
0
LINE
8
BLACK
6
CONTINUOUS
10
188.434
20
-195.086
11
188.649
21
-195.157
0
LINE
8
BLACK
6
CONTINUOUS
10
188.649
20
-195.157
11
188.791
21
-195.3
0
LINE
8
BLACK
6
CONTINUOUS
10
188.791
20
-195.3
11
188.863
21
-195.443
0
LINE
8
BLACK
6
CONTINUOUS
10
188.863
20
-195.443
11
188.934
21
-195.729
0
LINE
8
BLACK
6
CONTINUOUS
10
188.934
20
-195.729
11
188.934
21
-195.943
0
LINE
8
BLACK
6
CONTINUOUS
10
188.934
20
-195.943
11
188.863
21
-196.229
0
LINE
8
BLACK
6
CONTINUOUS
10
188.863
20
-196.229
11
188.791
21
-196.371
0
LINE
8
BLACK
6
CONTINUOUS
10
188.791
20
-196.371
11
188.649
21
-196.514
0
LINE
8
BLACK
6
CONTINUOUS
10
188.649
20
-196.514
11
188.434
21
-196.586
0
LINE
8
BLACK
6
CONTINUOUS
10
188.434
20
-196.586
11
188.077
21
-196.586
0
LINE
8
BLACK
6
CONTINUOUS
10
189.577
20
-196.443
11
189.649
21
-196.514
0
LINE
8
BLACK
6
CONTINUOUS
10
189.649
20
-196.514
11
189.577
21
-196.586
0
LINE
8
BLACK
6
CONTINUOUS
10
189.577
20
-196.586
11
189.506
21
-196.514
0
LINE
8
BLACK
6
CONTINUOUS
10
189.506
20
-196.514
11
189.577
21
-196.443
0
LINE
8
BLACK
6
CONTINUOUS
10
189.577
20
-196.443
11
189.577
21
-196.586
0
LINE
8
BLACK
6
CONTINUOUS
10
190.22
20
-196.157
11
190.934
21
-196.157
0
LINE
8
BLACK
6
CONTINUOUS
10
190.077
20
-196.586
11
190.577
21
-195.086
0
LINE
8
BLACK
6
CONTINUOUS
10
190.577
20
-195.086
11
191.077
21
-196.586
0
LINE
8
BLACK
6
CONTINUOUS
10
191.577
20
-196.443
11
191.649
21
-196.514
0
LINE
8
BLACK
6
CONTINUOUS
10
191.649
20
-196.514
11
191.577
21
-196.586
0
LINE
8
BLACK
6
CONTINUOUS
10
191.577
20
-196.586
11
191.506
21
-196.514
0
LINE
8
BLACK
6
CONTINUOUS
10
191.506
20
-196.514
11
191.577
21
-196.443
0
LINE
8
BLACK
6
CONTINUOUS
10
191.577
20
-196.443
11
191.577
21
-196.586
0
LINE
8
BLACK
6
CONTINUOUS
10
194.577
20
-196.586
11
194.577
21
-195.086
0
LINE
8
BLACK
6
CONTINUOUS
10
194.72
20
-196.014
11
195.149
21
-196.586
0
LINE
8
BLACK
6
CONTINUOUS
10
195.149
20
-195.586
11
194.577
21
-196.157
0
LINE
8
BLACK
6
CONTINUOUS
10
195.791
20
-196.586
11
195.791
21
-195.586
0
LINE
8
BLACK
6
CONTINUOUS
10
195.791
20
-195.086
11
195.72
21
-195.157
0
LINE
8
BLACK
6
CONTINUOUS
10
195.72
20
-195.157
11
195.791
21
-195.229
0
LINE
8
BLACK
6
CONTINUOUS
10
195.791
20
-195.229
11
195.863
21
-195.157
0
LINE
8
BLACK
6
CONTINUOUS
10
195.863
20
-195.157
11
195.791
21
-195.086
0
LINE
8
BLACK
6
CONTINUOUS
10
195.791
20
-195.086
11
195.791
21
-195.229
0
LINE
8
BLACK
6
CONTINUOUS
10
197.149
20
-196.514
11
197.006
21
-196.586
0
LINE
8
BLACK
6
CONTINUOUS
10
197.006
20
-196.586
11
196.72
21
-196.586
0
LINE
8
BLACK
6
CONTINUOUS
10
196.72
20
-196.586
11
196.577
21
-196.514
0
LINE
8
BLACK
6
CONTINUOUS
10
196.577
20
-196.514
11
196.506
21
-196.443
0
LINE
8
BLACK
6
CONTINUOUS
10
196.506
20
-196.443
11
196.434
21
-196.3
0
LINE
8
BLACK
6
CONTINUOUS
10
196.434
20
-196.3
11
196.434
21
-195.871
0
LINE
8
BLACK
6
CONTINUOUS
10
196.434
20
-195.871
11
196.506
21
-195.729
0
LINE
8
BLACK
6
CONTINUOUS
10
196.506
20
-195.729
11
196.577
21
-195.657
0
LINE
8
BLACK
6
CONTINUOUS
10
196.577
20
-195.657
11
196.72
21
-195.586
0
LINE
8
BLACK
6
CONTINUOUS
10
196.72
20
-195.586
11
197.006
21
-195.586
0
LINE
8
BLACK
6
CONTINUOUS
10
197.006
20
-195.586
11
197.149
21
-195.657
0
LINE
8
BLACK
6
CONTINUOUS
10
198.434
20
-196.586
11
198.434
21
-195.8
0
LINE
8
BLACK
6
CONTINUOUS
10
198.434
20
-195.8
11
198.363
21
-195.657
0
LINE
8
BLACK
6
CONTINUOUS
10
198.363
20
-195.657
11
198.22
21
-195.586
0
LINE
8
BLACK
6
CONTINUOUS
10
198.22
20
-195.586
11
197.934
21
-195.586
0
LINE
8
BLACK
6
CONTINUOUS
10
197.934
20
-195.586
11
197.791
21
-195.657
0
LINE
8
BLACK
6
CONTINUOUS
10
198.434
20
-196.514
11
198.291
21
-196.586
0
LINE
8
BLACK
6
CONTINUOUS
10
198.291
20
-196.586
11
197.934
21
-196.586
0
LINE
8
BLACK
6
CONTINUOUS
10
197.934
20
-196.586
11
197.791
21
-196.514
0
LINE
8
BLACK
6
CONTINUOUS
10
197.791
20
-196.514
11
197.72
21
-196.371
0
LINE
8
BLACK
6
CONTINUOUS
10
197.72
20
-196.371
11
197.72
21
-196.229
0
LINE
8
BLACK
6
CONTINUOUS
10
197.72
20
-196.229
11
197.791
21
-196.086
0
LINE
8
BLACK
6
CONTINUOUS
10
197.791
20
-196.086
11
197.934
21
-196.014
0
LINE
8
BLACK
6
CONTINUOUS
10
197.934
20
-196.014
11
198.291
21
-196.014
0
LINE
8
BLACK
6
CONTINUOUS
10
198.291
20
-196.014
11
198.434
21
-195.943
0
LINE
8
BLACK
6
CONTINUOUS
10
199.791
20
-196.586
11
199.791
21
-195.086
0
LINE
8
BLACK
6
CONTINUOUS
10
199.791
20
-196.514
11
199.649
21
-196.586
0
LINE
8
BLACK
6
CONTINUOUS
10
199.649
20
-196.586
11
199.363
21
-196.586
0
LINE
8
BLACK
6
CONTINUOUS
10
199.363
20
-196.586
11
199.22
21
-196.514
0
LINE
8
BLACK
6
CONTINUOUS
10
199.22
20
-196.514
11
199.149
21
-196.443
0
LINE
8
BLACK
6
CONTINUOUS
10
199.149
20
-196.443
11
199.077
21
-196.3
0
LINE
8
BLACK
6
CONTINUOUS
10
199.077
20
-196.3
11
199.077
21
-195.871
0
LINE
8
BLACK
6
CONTINUOUS
10
199.077
20
-195.871
11
199.149
21
-195.729
0
LINE
8
BLACK
6
CONTINUOUS
10
199.149
20
-195.729
11
199.22
21
-195.657
0
LINE
8
BLACK
6
CONTINUOUS
10
199.22
20
-195.657
11
199.363
21
-195.586
0
LINE
8
BLACK
6
CONTINUOUS
10
199.363
20
-195.586
11
199.649
21
-195.586
0
LINE
8
BLACK
6
CONTINUOUS
10
199.649
20
-195.586
11
199.791
21
-195.657
0
LINE
8
BLACK
6
CONTINUOUS
10
202.077
20
-197.157
11
202.006
21
-197.086
0
LINE
8
BLACK
6
CONTINUOUS
10
202.006
20
-197.086
11
201.863
21
-196.871
0
LINE
8
BLACK
6
CONTINUOUS
10
201.863
20
-196.871
11
201.791
21
-196.729
0
LINE
8
BLACK
6
CONTINUOUS
10
201.791
20
-196.729
11
201.72
21
-196.514
0
LINE
8
BLACK
6
CONTINUOUS
10
201.72
20
-196.514
11
201.649
21
-196.157
0
LINE
8
BLACK
6
CONTINUOUS
10
201.649
20
-196.157
11
201.649
21
-195.871
0
LINE
8
BLACK
6
CONTINUOUS
10
201.649
20
-195.871
11
201.72
21
-195.514
0
LINE
8
BLACK
6
CONTINUOUS
10
201.72
20
-195.514
11
201.791
21
-195.3
0
LINE
8
BLACK
6
CONTINUOUS
10
201.791
20
-195.3
11
201.863
21
-195.157
0
LINE
8
BLACK
6
CONTINUOUS
10
201.863
20
-195.157
11
202.006
21
-194.943
0
LINE
8
BLACK
6
CONTINUOUS
10
202.006
20
-194.943
11
202.077
21
-194.871
0
LINE
8
BLACK
6
CONTINUOUS
10
203.291
20
-195.086
11
203.006
21
-195.086
0
LINE
8
BLACK
6
CONTINUOUS
10
203.006
20
-195.086
11
202.863
21
-195.157
0
LINE
8
BLACK
6
CONTINUOUS
10
202.863
20
-195.157
11
202.791
21
-195.229
0
LINE
8
BLACK
6
CONTINUOUS
10
202.791
20
-195.229
11
202.649
21
-195.443
0
LINE
8
BLACK
6
CONTINUOUS
10
202.649
20
-195.443
11
202.577
21
-195.729
0
LINE
8
BLACK
6
CONTINUOUS
10
202.577
20
-195.729
11
202.577
21
-196.3
0
LINE
8
BLACK
6
CONTINUOUS
10
202.577
20
-196.3
11
202.649
21
-196.443
0
LINE
8
BLACK
6
CONTINUOUS
10
202.649
20
-196.443
11
202.72
21
-196.514
0
LINE
8
BLACK
6
CONTINUOUS
10
202.72
20
-196.514
11
202.863
21
-196.586
0
LINE
8
BLACK
6
CONTINUOUS
10
202.863
20
-196.586
11
203.149
21
-196.586
0
LINE
8
BLACK
6
CONTINUOUS
10
203.149
20
-196.586
11
203.291
21
-196.514
0
LINE
8
BLACK
6
CONTINUOUS
10
203.291
20
-196.514
11
203.363
21
-196.443
0
LINE
8
BLACK
6
CONTINUOUS
10
203.363
20
-196.443
11
203.434
21
-196.3
0
LINE
8
BLACK
6
CONTINUOUS
10
203.434
20
-196.3
11
203.434
21
-195.943
0
LINE
8
BLACK
6
CONTINUOUS
10
203.434
20
-195.943
11
203.363
21
-195.8
0
LINE
8
BLACK
6
CONTINUOUS
10
203.363
20
-195.8
11
203.291
21
-195.729
0
LINE
8
BLACK
6
CONTINUOUS
10
203.291
20
-195.729
11
203.149
21
-195.657
0
LINE
8
BLACK
6
CONTINUOUS
10
203.149
20
-195.657
11
202.863
21
-195.657
0
LINE
8
BLACK
6
CONTINUOUS
10
202.863
20
-195.657
11
202.72
21
-195.729
0
LINE
8
BLACK
6
CONTINUOUS
10
202.72
20
-195.729
11
202.649
21
-195.8
0
LINE
8
BLACK
6
CONTINUOUS
10
202.649
20
-195.8
11
202.577
21
-195.943
0
LINE
8
BLACK
6
CONTINUOUS
10
204.077
20
-196.443
11
204.149
21
-196.514
0
LINE
8
BLACK
6
CONTINUOUS
10
204.149
20
-196.514
11
204.077
21
-196.586
0
LINE
8
BLACK
6
CONTINUOUS
10
204.077
20
-196.586
11
204.006
21
-196.514
0
LINE
8
BLACK
6
CONTINUOUS
10
204.006
20
-196.514
11
204.077
21
-196.443
0
LINE
8
BLACK
6
CONTINUOUS
10
204.077
20
-196.443
11
204.077
21
-196.586
0
LINE
8
BLACK
6
CONTINUOUS
10
205.077
20
-195.086
11
205.22
21
-195.086
0
LINE
8
BLACK
6
CONTINUOUS
10
205.22
20
-195.086
11
205.363
21
-195.157
0
LINE
8
BLACK
6
CONTINUOUS
10
205.363
20
-195.157
11
205.434
21
-195.229
0
LINE
8
BLACK
6
CONTINUOUS
10
205.434
20
-195.229
11
205.506
21
-195.371
0
LINE
8
BLACK
6
CONTINUOUS
10
205.506
20
-195.371
11
205.577
21
-195.657
0
LINE
8
BLACK
6
CONTINUOUS
10
205.577
20
-195.657
11
205.577
21
-196.014
0
LINE
8
BLACK
6
CONTINUOUS
10
205.577
20
-196.014
11
205.506
21
-196.3
0
LINE
8
BLACK
6
CONTINUOUS
10
205.506
20
-196.3
11
205.434
21
-196.443
0
LINE
8
BLACK
6
CONTINUOUS
10
205.434
20
-196.443
11
205.363
21
-196.514
0
LINE
8
BLACK
6
CONTINUOUS
10
205.363
20
-196.514
11
205.22
21
-196.586
0
LINE
8
BLACK
6
CONTINUOUS
10
205.22
20
-196.586
11
205.077
21
-196.586
0
LINE
8
BLACK
6
CONTINUOUS
10
205.077
20
-196.586
11
204.934
21
-196.514
0
LINE
8
BLACK
6
CONTINUOUS
10
204.934
20
-196.514
11
204.863
21
-196.443
0
LINE
8
BLACK
6
CONTINUOUS
10
204.863
20
-196.443
11
204.791
21
-196.3
0
LINE
8
BLACK
6
CONTINUOUS
10
204.791
20
-196.3
11
204.72
21
-196.014
0
LINE
8
BLACK
6
CONTINUOUS
10
204.72
20
-196.014
11
204.72
21
-195.657
0
LINE
8
BLACK
6
CONTINUOUS
10
204.72
20
-195.657
11
204.791
21
-195.371
0
LINE
8
BLACK
6
CONTINUOUS
10
204.791
20
-195.371
11
204.863
21
-195.229
0
LINE
8
BLACK
6
CONTINUOUS
10
204.863
20
-195.229
11
204.934
21
-195.157
0
LINE
8
BLACK
6
CONTINUOUS
10
204.934
20
-195.157
11
205.077
21
-195.086
0
LINE
8
BLACK
6
CONTINUOUS
10
206.22
20
-196.443
11
206.291
21
-196.514
0
LINE
8
BLACK
6
CONTINUOUS
10
206.291
20
-196.514
11
206.22
21
-196.586
0
LINE
8
BLACK
6
CONTINUOUS
10
206.22
20
-196.586
11
206.149
21
-196.514
0
LINE
8
BLACK
6
CONTINUOUS
10
206.149
20
-196.514
11
206.22
21
-196.443
0
LINE
8
BLACK
6
CONTINUOUS
10
206.22
20
-196.443
11
206.22
21
-196.586
0
LINE
8
BLACK
6
CONTINUOUS
10
207.577
20
-195.586
11
207.577
21
-196.586
0
LINE
8
BLACK
6
CONTINUOUS
10
207.22
20
-195.014
11
206.863
21
-196.086
0
LINE
8
BLACK
6
CONTINUOUS
10
206.863
20
-196.086
11
207.791
21
-196.086
0
LINE
8
BLACK
6
CONTINUOUS
10
208.22
20
-197.157
11
208.291
21
-197.086
0
LINE
8
BLACK
6
CONTINUOUS
10
208.291
20
-197.086
11
208.434
21
-196.871
0
LINE
8
BLACK
6
CONTINUOUS
10
208.434
20
-196.871
11
208.506
21
-196.729
0
LINE
8
BLACK
6
CONTINUOUS
10
208.506
20
-196.729
11
208.577
21
-196.514
0
LINE
8
BLACK
6
CONTINUOUS
10
208.577
20
-196.514
11
208.649
21
-196.157
0
LINE
8
BLACK
6
CONTINUOUS
10
208.649
20
-196.157
11
208.649
21
-195.871
0
LINE
8
BLACK
6
CONTINUOUS
10
208.649
20
-195.871
11
208.577
21
-195.514
0
LINE
8
BLACK
6
CONTINUOUS
10
208.577
20
-195.514
11
208.506
21
-195.3
0
LINE
8
BLACK
6
CONTINUOUS
10
208.506
20
-195.3
11
208.434
21
-195.157
0
LINE
8
BLACK
6
CONTINUOUS
10
208.434
20
-195.157
11
208.291
21
-194.943
0
LINE
8
BLACK
6
CONTINUOUS
10
208.291
20
-194.943
11
208.22
21
-194.871
0
LINE
8
BLACK
6
CONTINUOUS
10
177.002
20
-191.507
11
285.002
21
-191.507
0
LINE
8
BLACK
6
CONTINUOUS
10
264.411
20
-193.786
11
263.911
21
-193.071
0
LINE
8
BLACK
6
CONTINUOUS
10
263.554
20
-193.786
11
263.554
21
-192.286
0
LINE
8
BLACK
6
CONTINUOUS
10
263.554
20
-192.286
11
264.126
21
-192.286
0
LINE
8
BLACK
6
CONTINUOUS
10
264.126
20
-192.286
11
264.269
21
-192.357
0
LINE
8
BLACK
6
CONTINUOUS
10
264.269
20
-192.357
11
264.34
21
-192.429
0
LINE
8
BLACK
6
CONTINUOUS
10
264.34
20
-192.429
11
264.411
21
-192.571
0
LINE
8
BLACK
6
CONTINUOUS
10
264.411
20
-192.571
11
264.411
21
-192.786
0
LINE
8
BLACK
6
CONTINUOUS
10
264.411
20
-192.786
11
264.34
21
-192.929
0
LINE
8
BLACK
6
CONTINUOUS
10
264.34
20
-192.929
11
264.269
21
-193
0
LINE
8
BLACK
6
CONTINUOUS
10
264.269
20
-193
11
264.126
21
-193.071
0
LINE
8
BLACK
6
CONTINUOUS
10
264.126
20
-193.071
11
263.554
21
-193.071
0
LINE
8
BLACK
6
CONTINUOUS
10
265.626
20
-193.714
11
265.483
21
-193.786
0
LINE
8
BLACK
6
CONTINUOUS
10
265.483
20
-193.786
11
265.197
21
-193.786
0
LINE
8
BLACK
6
CONTINUOUS
10
265.197
20
-193.786
11
265.054
21
-193.714
0
LINE
8
BLACK
6
CONTINUOUS
10
265.054
20
-193.714
11
264.983
21
-193.571
0
LINE
8
BLACK
6
CONTINUOUS
10
264.983
20
-193.571
11
264.983
21
-193
0
LINE
8
BLACK
6
CONTINUOUS
10
264.983
20
-193
11
265.054
21
-192.857
0
LINE
8
BLACK
6
CONTINUOUS
10
265.054
20
-192.857
11
265.197
21
-192.786
0
LINE
8
BLACK
6
CONTINUOUS
10
265.197
20
-192.786
11
265.483
21
-192.786
0
LINE
8
BLACK
6
CONTINUOUS
10
265.483
20
-192.786
11
265.626
21
-192.857
0
LINE
8
BLACK
6
CONTINUOUS
10
265.626
20
-192.857
11
265.697
21
-193
0
LINE
8
BLACK
6
CONTINUOUS
10
265.697
20
-193
11
265.697
21
-193.143
0
LINE
8
BLACK
6
CONTINUOUS
10
265.697
20
-193.143
11
264.983
21
-193.286
0
LINE
8
BLACK
6
CONTINUOUS
10
266.197
20
-192.786
11
266.554
21
-193.786
0
LINE
8
BLACK
6
CONTINUOUS
10
266.554
20
-193.786
11
266.911
21
-192.786
0
LINE
8
BLACK
6
CONTINUOUS
10
267.483
20
-193.643
11
267.554
21
-193.714
0
LINE
8
BLACK
6
CONTINUOUS
10
267.554
20
-193.714
11
267.483
21
-193.786
0
LINE
8
BLACK
6
CONTINUOUS
10
267.483
20
-193.786
11
267.411
21
-193.714
0
LINE
8
BLACK
6
CONTINUOUS
10
267.411
20
-193.714
11
267.483
21
-193.643
0
LINE
8
BLACK
6
CONTINUOUS
10
267.483
20
-193.643
11
267.483
21
-193.786
0
LINE
8
BLACK
6
CONTINUOUS
10
267.483
20
-192.857
11
267.554
21
-192.929
0
LINE
8
BLACK
6
CONTINUOUS
10
267.554
20
-192.929
11
267.483
21
-193
0
LINE
8
BLACK
6
CONTINUOUS
10
267.483
20
-193
11
267.411
21
-192.929
0
LINE
8
BLACK
6
CONTINUOUS
10
267.411
20
-192.929
11
267.483
21
-192.857
0
LINE
8
BLACK
6
CONTINUOUS
10
267.483
20
-192.857
11
267.483
21
-193
0
LINE
8
BLACK
6
CONTINUOUS
10
269.626
20
-192.286
11
269.769
21
-192.286
0
LINE
8
BLACK
6
CONTINUOUS
10
269.769
20
-192.286
11
269.911
21
-192.357
0
LINE
8
BLACK
6
CONTINUOUS
10
269.911
20
-192.357
11
269.983
21
-192.429
0
LINE
8
BLACK
6
CONTINUOUS
10
269.983
20
-192.429
11
270.054
21
-192.571
0
LINE
8
BLACK
6
CONTINUOUS
10
270.054
20
-192.571
11
270.126
21
-192.857
0
LINE
8
BLACK
6
CONTINUOUS
10
270.126
20
-192.857
11
270.126
21
-193.214
0
LINE
8
BLACK
6
CONTINUOUS
10
270.126
20
-193.214
11
270.054
21
-193.5
0
LINE
8
BLACK
6
CONTINUOUS
10
270.054
20
-193.5
11
269.983
21
-193.643
0
LINE
8
BLACK
6
CONTINUOUS
10
269.983
20
-193.643
11
269.911
21
-193.714
0
LINE
8
BLACK
6
CONTINUOUS
10
269.911
20
-193.714
11
269.769
21
-193.786
0
LINE
8
BLACK
6
CONTINUOUS
10
269.769
20
-193.786
11
269.626
21
-193.786
0
LINE
8
BLACK
6
CONTINUOUS
10
269.626
20
-193.786
11
269.483
21
-193.714
0
LINE
8
BLACK
6
CONTINUOUS
10
269.483
20
-193.714
11
269.411
21
-193.643
0
LINE
8
BLACK
6
CONTINUOUS
10
269.411
20
-193.643
11
269.34
21
-193.5
0
LINE
8
BLACK
6
CONTINUOUS
10
269.34
20
-193.5
11
269.269
21
-193.214
0
LINE
8
BLACK
6
CONTINUOUS
10
269.269
20
-193.214
11
269.269
21
-192.857
0
LINE
8
BLACK
6
CONTINUOUS
10
269.269
20
-192.857
11
269.34
21
-192.571
0
LINE
8
BLACK
6
CONTINUOUS
10
269.34
20
-192.571
11
269.411
21
-192.429
0
LINE
8
BLACK
6
CONTINUOUS
10
269.411
20
-192.429
11
269.483
21
-192.357
0
LINE
8
BLACK
6
CONTINUOUS
10
269.483
20
-192.357
11
269.626
21
-192.286
0
LINE
8
BLACK
6
CONTINUOUS
10
270.769
20
-193.643
11
270.84
21
-193.714
0
LINE
8
BLACK
6
CONTINUOUS
10
270.84
20
-193.714
11
270.769
21
-193.786
0
LINE
8
BLACK
6
CONTINUOUS
10
270.769
20
-193.786
11
270.697
21
-193.714
0
LINE
8
BLACK
6
CONTINUOUS
10
270.697
20
-193.714
11
270.769
21
-193.643
0
LINE
8
BLACK
6
CONTINUOUS
10
270.769
20
-193.643
11
270.769
21
-193.786
0
LINE
8
BLACK
6
CONTINUOUS
10
271.411
20
-192.429
11
271.483
21
-192.357
0
LINE
8
BLACK
6
CONTINUOUS
10
271.483
20
-192.357
11
271.626
21
-192.286
0
LINE
8
BLACK
6
CONTINUOUS
10
271.626
20
-192.286
11
271.983
21
-192.286
0
LINE
8
BLACK
6
CONTINUOUS
10
271.983
20
-192.286
11
272.126
21
-192.357
0
LINE
8
BLACK
6
CONTINUOUS
10
272.126
20
-192.357
11
272.197
21
-192.429
0
LINE
8
BLACK
6
CONTINUOUS
10
272.197
20
-192.429
11
272.269
21
-192.571
0
LINE
8
BLACK
6
CONTINUOUS
10
272.269
20
-192.571
11
272.269
21
-192.714
0
LINE
8
BLACK
6
CONTINUOUS
10
272.269
20
-192.714
11
272.197
21
-192.929
0
LINE
8
BLACK
6
CONTINUOUS
10
272.197
20
-192.929
11
271.34
21
-193.786
0
LINE
8
BLACK
6
CONTINUOUS
10
271.34
20
-193.786
11
272.269
21
-193.786
0
LINE
8
BLACK
6
CONTINUOUS
10
178.363
20
-193.714
11
178.577
21
-193.786
0
LINE
8
BLACK
6
CONTINUOUS
10
178.577
20
-193.786
11
178.934
21
-193.786
0
LINE
8
BLACK
6
CONTINUOUS
10
178.934
20
-193.786
11
179.077
21
-193.714
0
LINE
8
BLACK
6
CONTINUOUS
10
179.077
20
-193.714
11
179.149
21
-193.643
0
LINE
8
BLACK
6
CONTINUOUS
10
179.149
20
-193.643
11
179.22
21
-193.5
0
LINE
8
BLACK
6
CONTINUOUS
10
179.22
20
-193.5
11
179.22
21
-193.357
0
LINE
8
BLACK
6
CONTINUOUS
10
179.22
20
-193.357
11
179.149
21
-193.214
0
LINE
8
BLACK
6
CONTINUOUS
10
179.149
20
-193.214
11
179.077
21
-193.143
0
LINE
8
BLACK
6
CONTINUOUS
10
179.077
20
-193.143
11
178.934
21
-193.071
0
LINE
8
BLACK
6
CONTINUOUS
10
178.934
20
-193.071
11
178.649
21
-193
0
LINE
8
BLACK
6
CONTINUOUS
10
178.649
20
-193
11
178.506
21
-192.929
0
LINE
8
BLACK
6
CONTINUOUS
10
178.506
20
-192.929
11
178.434
21
-192.857
0
LINE
8
BLACK
6
CONTINUOUS
10
178.434
20
-192.857
11
178.363
21
-192.714
0
LINE
8
BLACK
6
CONTINUOUS
10
178.363
20
-192.714
11
178.363
21
-192.571
0
LINE
8
BLACK
6
CONTINUOUS
10
178.363
20
-192.571
11
178.434
21
-192.429
0
LINE
8
BLACK
6
CONTINUOUS
10
178.434
20
-192.429
11
178.506
21
-192.357
0
LINE
8
BLACK
6
CONTINUOUS
10
178.506
20
-192.357
11
178.649
21
-192.286
0
LINE
8
BLACK
6
CONTINUOUS
10
178.649
20
-192.286
11
179.006
21
-192.286
0
LINE
8
BLACK
6
CONTINUOUS
10
179.006
20
-192.286
11
179.22
21
-192.357
0
LINE
8
BLACK
6
CONTINUOUS
10
179.863
20
-193.786
11
179.863
21
-192.786
0
LINE
8
BLACK
6
CONTINUOUS
10
179.863
20
-192.286
11
179.791
21
-192.357
0
LINE
8
BLACK
6
CONTINUOUS
10
179.791
20
-192.357
11
179.863
21
-192.429
0
LINE
8
BLACK
6
CONTINUOUS
10
179.863
20
-192.429
11
179.934
21
-192.357
0
LINE
8
BLACK
6
CONTINUOUS
10
179.934
20
-192.357
11
179.863
21
-192.286
0
LINE
8
BLACK
6
CONTINUOUS
10
179.863
20
-192.286
11
179.863
21
-192.429
0
LINE
8
BLACK
6
CONTINUOUS
10
180.434
20
-192.786
11
181.22
21
-192.786
0
LINE
8
BLACK
6
CONTINUOUS
10
181.22
20
-192.786
11
180.434
21
-193.786
0
LINE
8
BLACK
6
CONTINUOUS
10
180.434
20
-193.786
11
181.22
21
-193.786
0
LINE
8
BLACK
6
CONTINUOUS
10
182.363
20
-193.714
11
182.22
21
-193.786
0
LINE
8
BLACK
6
CONTINUOUS
10
182.22
20
-193.786
11
181.934
21
-193.786
0
LINE
8
BLACK
6
CONTINUOUS
10
181.934
20
-193.786
11
181.791
21
-193.714
0
LINE
8
BLACK
6
CONTINUOUS
10
181.791
20
-193.714
11
181.72
21
-193.571
0
LINE
8
BLACK
6
CONTINUOUS
10
181.72
20
-193.571
11
181.72
21
-193
0
LINE
8
BLACK
6
CONTINUOUS
10
181.72
20
-193
11
181.791
21
-192.857
0
LINE
8
BLACK
6
CONTINUOUS
10
181.791
20
-192.857
11
181.934
21
-192.786
0
LINE
8
BLACK
6
CONTINUOUS
10
181.934
20
-192.786
11
182.22
21
-192.786
0
LINE
8
BLACK
6
CONTINUOUS
10
182.22
20
-192.786
11
182.363
21
-192.857
0
LINE
8
BLACK
6
CONTINUOUS
10
182.363
20
-192.857
11
182.434
21
-193
0
LINE
8
BLACK
6
CONTINUOUS
10
182.434
20
-193
11
182.434
21
-193.143
0
LINE
8
BLACK
6
CONTINUOUS
10
182.434
20
-193.143
11
181.72
21
-193.286
0
LINE
8
BLACK
6
CONTINUOUS
10
183.077
20
-193.643
11
183.149
21
-193.714
0
LINE
8
BLACK
6
CONTINUOUS
10
183.149
20
-193.714
11
183.077
21
-193.786
0
LINE
8
BLACK
6
CONTINUOUS
10
183.077
20
-193.786
11
183.006
21
-193.714
0
LINE
8
BLACK
6
CONTINUOUS
10
183.006
20
-193.714
11
183.077
21
-193.643
0
LINE
8
BLACK
6
CONTINUOUS
10
183.077
20
-193.643
11
183.077
21
-193.786
0
LINE
8
BLACK
6
CONTINUOUS
10
183.077
20
-192.857
11
183.149
21
-192.929
0
LINE
8
BLACK
6
CONTINUOUS
10
183.149
20
-192.929
11
183.077
21
-193
0
LINE
8
BLACK
6
CONTINUOUS
10
183.077
20
-193
11
183.006
21
-192.929
0
LINE
8
BLACK
6
CONTINUOUS
10
183.006
20
-192.929
11
183.077
21
-192.857
0
LINE
8
BLACK
6
CONTINUOUS
10
183.077
20
-192.857
11
183.077
21
-193
0
LINE
8
BLACK
6
CONTINUOUS
10
184.863
20
-193.357
11
185.577
21
-193.357
0
LINE
8
BLACK
6
CONTINUOUS
10
184.72
20
-193.786
11
185.22
21
-192.286
0
LINE
8
BLACK
6
CONTINUOUS
10
185.22
20
-192.286
11
185.72
21
-193.786
0
LINE
8
BLACK
6
CONTINUOUS
10
186.863
20
-192.786
11
186.863
21
-193.786
0
LINE
8
BLACK
6
CONTINUOUS
10
186.506
20
-192.214
11
186.149
21
-193.286
0
LINE
8
BLACK
6
CONTINUOUS
10
186.149
20
-193.286
11
187.077
21
-193.286
0
LINE
8
BLACK
6
CONTINUOUS
10
263.434
20
-196.586
11
263.434
21
-195.086
0
LINE
8
BLACK
6
CONTINUOUS
10
264.791
20
-196.586
11
264.791
21
-195.086
0
LINE
8
BLACK
6
CONTINUOUS
10
264.791
20
-196.514
11
264.649
21
-196.586
0
LINE
8
BLACK
6
CONTINUOUS
10
264.649
20
-196.586
11
264.363
21
-196.586
0
LINE
8
BLACK
6
CONTINUOUS
10
264.363
20
-196.586
11
264.22
21
-196.514
0
LINE
8
BLACK
6
CONTINUOUS
10
264.22
20
-196.514
11
264.149
21
-196.443
0
LINE
8
BLACK
6
CONTINUOUS
10
264.149
20
-196.443
11
264.077
21
-196.3
0
LINE
8
BLACK
6
CONTINUOUS
10
264.077
20
-196.3
11
264.077
21
-195.871
0
LINE
8
BLACK
6
CONTINUOUS
10
264.077
20
-195.871
11
264.149
21
-195.729
0
LINE
8
BLACK
6
CONTINUOUS
10
264.149
20
-195.729
11
264.22
21
-195.657
0
LINE
8
BLACK
6
CONTINUOUS
10
264.22
20
-195.657
11
264.363
21
-195.586
0
LINE
8
BLACK
6
CONTINUOUS
10
264.363
20
-195.586
11
264.649
21
-195.586
0
LINE
8
BLACK
6
CONTINUOUS
10
264.649
20
-195.586
11
264.791
21
-195.657
0
LINE
8
BLACK
6
CONTINUOUS
10
265.506
20
-196.443
11
265.577
21
-196.514
0
LINE
8
BLACK
6
CONTINUOUS
10
265.577
20
-196.514
11
265.506
21
-196.586
0
LINE
8
BLACK
6
CONTINUOUS
10
265.506
20
-196.586
11
265.434
21
-196.514
0
LINE
8
BLACK
6
CONTINUOUS
10
265.434
20
-196.514
11
265.506
21
-196.443
0
LINE
8
BLACK
6
CONTINUOUS
10
265.506
20
-196.443
11
265.506
21
-196.586
0
LINE
8
BLACK
6
CONTINUOUS
10
265.506
20
-195.657
11
265.577
21
-195.729
0
LINE
8
BLACK
6
CONTINUOUS
10
265.577
20
-195.729
11
265.506
21
-195.8
0
LINE
8
BLACK
6
CONTINUOUS
10
265.506
20
-195.8
11
265.434
21
-195.729
0
LINE
8
BLACK
6
CONTINUOUS
10
265.434
20
-195.729
11
265.506
21
-195.657
0
LINE
8
BLACK
6
CONTINUOUS
10
265.506
20
-195.657
11
265.506
21
-195.8
0
LINE
8
BLACK
6
CONTINUOUS
10
268.149
20
-196.586
11
267.291
21
-196.586
0
LINE
8
BLACK
6
CONTINUOUS
10
267.72
20
-196.586
11
267.72
21
-195.086
0
LINE
8
BLACK
6
CONTINUOUS
10
267.72
20
-195.086
11
267.577
21
-195.3
0
LINE
8
BLACK
6
CONTINUOUS
10
267.577
20
-195.3
11
267.434
21
-195.443
0
LINE
8
BLACK
6
CONTINUOUS
10
267.434
20
-195.443
11
267.291
21
-195.514
0
LINE
8
BLACK
6
CONTINUOUS
10
269.863
20
-195.014
11
268.577
21
-196.943
0
LINE
8
BLACK
6
CONTINUOUS
10
271.149
20
-196.586
11
270.291
21
-196.586
0
LINE
8
BLACK
6
CONTINUOUS
10
270.72
20
-196.586
11
270.72
21
-195.086
0
LINE
8
BLACK
6
CONTINUOUS
10
270.72
20
-195.086
11
270.577
21
-195.3
0
LINE
8
BLACK
6
CONTINUOUS
10
270.577
20
-195.3
11
270.434
21
-195.443
0
LINE
8
BLACK
6
CONTINUOUS
10
270.434
20
-195.443
11
270.291
21
-195.514
0
LINE
8
BLACK
6
CONTINUOUS
10
177.002
20
-187.507
11
285.002
21
-187.507
0
LINE
8
BLACK
6
CONTINUOUS
10
178.715
20
-188.212
11
179.857
21
-188.212
0
LINE
8
BLACK
6
CONTINUOUS
10
179.036
20
-190.212
11
179.286
21
-188.212
0
LINE
8
BLACK
6
CONTINUOUS
10
180.274
20
-190.212
11
180.441
21
-188.879
0
LINE
8
BLACK
6
CONTINUOUS
10
180.524
20
-188.212
11
180.417
21
-188.307
0
LINE
8
BLACK
6
CONTINUOUS
10
180.417
20
-188.307
11
180.5
21
-188.402
0
LINE
8
BLACK
6
CONTINUOUS
10
180.5
20
-188.402
11
180.607
21
-188.307
0
LINE
8
BLACK
6
CONTINUOUS
10
180.607
20
-188.307
11
180.524
21
-188.212
0
LINE
8
BLACK
6
CONTINUOUS
10
180.524
20
-188.212
11
180.5
21
-188.402
0
LINE
8
BLACK
6
CONTINUOUS
10
181.107
20
-188.879
11
181.869
21
-188.879
0
LINE
8
BLACK
6
CONTINUOUS
10
181.476
20
-188.212
11
181.262
21
-189.926
0
LINE
8
BLACK
6
CONTINUOUS
10
181.262
20
-189.926
11
181.334
21
-190.117
0
LINE
8
BLACK
6
CONTINUOUS
10
181.334
20
-190.117
11
181.512
21
-190.212
0
LINE
8
BLACK
6
CONTINUOUS
10
181.512
20
-190.212
11
181.703
21
-190.212
0
LINE
8
BLACK
6
CONTINUOUS
10
182.655
20
-190.212
11
182.476
21
-190.117
0
LINE
8
BLACK
6
CONTINUOUS
10
182.476
20
-190.117
11
182.405
21
-189.926
0
LINE
8
BLACK
6
CONTINUOUS
10
182.405
20
-189.926
11
182.619
21
-188.212
0
LINE
8
BLACK
6
CONTINUOUS
10
184.191
20
-190.117
11
183.988
21
-190.212
0
LINE
8
BLACK
6
CONTINUOUS
10
183.988
20
-190.212
11
183.607
21
-190.212
0
LINE
8
BLACK
6
CONTINUOUS
10
183.607
20
-190.212
11
183.429
21
-190.117
0
LINE
8
BLACK
6
CONTINUOUS
10
183.429
20
-190.117
11
183.357
21
-189.926
0
LINE
8
BLACK
6
CONTINUOUS
10
183.357
20
-189.926
11
183.453
21
-189.164
0
LINE
8
BLACK
6
CONTINUOUS
10
183.453
20
-189.164
11
183.572
21
-188.974
0
LINE
8
BLACK
6
CONTINUOUS
10
183.572
20
-188.974
11
183.774
21
-188.879
0
LINE
8
BLACK
6
CONTINUOUS
10
183.774
20
-188.879
11
184.155
21
-188.879
0
LINE
8
BLACK
6
CONTINUOUS
10
184.155
20
-188.879
11
184.334
21
-188.974
0
LINE
8
BLACK
6
CONTINUOUS
10
184.334
20
-188.974
11
184.405
21
-189.164
0
LINE
8
BLACK
6
CONTINUOUS
10
184.405
20
-189.164
11
184.381
21
-189.355
0
LINE
8
BLACK
6
CONTINUOUS
10
184.381
20
-189.355
11
183.405
21
-189.545
0
LINE
8
BLACK
6
CONTINUOUS
10
185.155
20
-190.021
11
185.238
21
-190.117
0
LINE
8
BLACK
6
CONTINUOUS
10
185.238
20
-190.117
11
185.131
21
-190.212
0
LINE
8
BLACK
6
CONTINUOUS
10
185.131
20
-190.212
11
185.048
21
-190.117
0
LINE
8
BLACK
6
CONTINUOUS
10
185.048
20
-190.117
11
185.155
21
-190.021
0
LINE
8
BLACK
6
CONTINUOUS
10
185.155
20
-190.021
11
185.131
21
-190.212
0
LINE
8
BLACK
6
CONTINUOUS
10
185.286
20
-188.974
11
185.369
21
-189.069
0
LINE
8
BLACK
6
CONTINUOUS
10
185.369
20
-189.069
11
185.262
21
-189.164
0
LINE
8
BLACK
6
CONTINUOUS
10
185.262
20
-189.164
11
185.179
21
-189.069
0
LINE
8
BLACK
6
CONTINUOUS
10
185.179
20
-189.069
11
185.286
21
-188.974
0
LINE
8
BLACK
6
CONTINUOUS
10
185.286
20
-188.974
11
185.262
21
-189.164
0
LINE
8
BLACK
6
CONTINUOUS
10
187.524
20
-190.117
11
187.798
21
-190.212
0
LINE
8
BLACK
6
CONTINUOUS
10
187.798
20
-190.212
11
188.274
21
-190.212
0
LINE
8
BLACK
6
CONTINUOUS
10
188.274
20
-190.212
11
188.476
21
-190.117
0
LINE
8
BLACK
6
CONTINUOUS
10
188.476
20
-190.117
11
188.584
21
-190.021
0
LINE
8
BLACK
6
CONTINUOUS
10
188.584
20
-190.021
11
188.703
21
-189.831
0
LINE
8
BLACK
6
CONTINUOUS
10
188.703
20
-189.831
11
188.726
21
-189.641
0
LINE
8
BLACK
6
CONTINUOUS
10
188.726
20
-189.641
11
188.655
21
-189.45
0
LINE
8
BLACK
6
CONTINUOUS
10
188.655
20
-189.45
11
188.572
21
-189.355
0
LINE
8
BLACK
6
CONTINUOUS
10
188.572
20
-189.355
11
188.393
21
-189.26
0
LINE
8
BLACK
6
CONTINUOUS
10
188.393
20
-189.26
11
188.024
21
-189.164
0
LINE
8
BLACK
6
CONTINUOUS
10
188.024
20
-189.164
11
187.846
21
-189.069
0
LINE
8
BLACK
6
CONTINUOUS
10
187.846
20
-189.069
11
187.762
21
-188.974
0
LINE
8
BLACK
6
CONTINUOUS
10
187.762
20
-188.974
11
187.691
21
-188.783
0
LINE
8
BLACK
6
CONTINUOUS
10
187.691
20
-188.783
11
187.715
21
-188.593
0
LINE
8
BLACK
6
CONTINUOUS
10
187.715
20
-188.593
11
187.834
21
-188.402
0
LINE
8
BLACK
6
CONTINUOUS
10
187.834
20
-188.402
11
187.941
21
-188.307
0
LINE
8
BLACK
6
CONTINUOUS
10
187.941
20
-188.307
11
188.143
21
-188.212
0
LINE
8
BLACK
6
CONTINUOUS
10
188.143
20
-188.212
11
188.619
21
-188.212
0
LINE
8
BLACK
6
CONTINUOUS
10
188.619
20
-188.212
11
188.893
21
-188.307
0
LINE
8
BLACK
6
CONTINUOUS
10
189.572
20
-188.212
11
189.798
21
-190.212
0
LINE
8
BLACK
6
CONTINUOUS
10
189.798
20
-190.212
11
190.357
21
-188.783
0
LINE
8
BLACK
6
CONTINUOUS
10
190.357
20
-188.783
11
190.56
21
-190.212
0
LINE
8
BLACK
6
CONTINUOUS
10
190.56
20
-190.212
11
191.286
21
-188.212
0
LINE
8
BLACK
6
CONTINUOUS
10
191.893
20
-189.45
11
193.417
21
-189.45
0
LINE
8
BLACK
6
CONTINUOUS
10
194.274
20
-190.212
11
194.524
21
-188.212
0
LINE
8
BLACK
6
CONTINUOUS
10
194.524
20
-188.212
11
195.012
21
-189.641
0
LINE
8
BLACK
6
CONTINUOUS
10
195.012
20
-189.641
11
195.857
21
-188.212
0
LINE
8
BLACK
6
CONTINUOUS
10
195.857
20
-188.212
11
195.607
21
-190.212
0
LINE
8
BLACK
6
CONTINUOUS
10
197.334
20
-190.117
11
197.131
21
-190.212
0
LINE
8
BLACK
6
CONTINUOUS
10
197.131
20
-190.212
11
196.75
21
-190.212
0
LINE
8
BLACK
6
CONTINUOUS
10
196.75
20
-190.212
11
196.572
21
-190.117
0
LINE
8
BLACK
6
CONTINUOUS
10
196.572
20
-190.117
11
196.5
21
-189.926
0
LINE
8
BLACK
6
CONTINUOUS
10
196.5
20
-189.926
11
196.596
21
-189.164
0
LINE
8
BLACK
6
CONTINUOUS
10
196.596
20
-189.164
11
196.715
21
-188.974
0
LINE
8
BLACK
6
CONTINUOUS
10
196.715
20
-188.974
11
196.917
21
-188.879
0
LINE
8
BLACK
6
CONTINUOUS
10
196.917
20
-188.879
11
197.298
21
-188.879
0
LINE
8
BLACK
6
CONTINUOUS
10
197.298
20
-188.879
11
197.476
21
-188.974
0
LINE
8
BLACK
6
CONTINUOUS
10
197.476
20
-188.974
11
197.548
21
-189.164
0
LINE
8
BLACK
6
CONTINUOUS
10
197.548
20
-189.164
11
197.524
21
-189.355
0
LINE
8
BLACK
6
CONTINUOUS
10
197.524
20
-189.355
11
196.548
21
-189.545
0
LINE
8
BLACK
6
CONTINUOUS
10
198.155
20
-188.879
11
198.917
21
-188.879
0
LINE
8
BLACK
6
CONTINUOUS
10
198.524
20
-188.212
11
198.31
21
-189.926
0
LINE
8
BLACK
6
CONTINUOUS
10
198.31
20
-189.926
11
198.381
21
-190.117
0
LINE
8
BLACK
6
CONTINUOUS
10
198.381
20
-190.117
11
198.56
21
-190.212
0
LINE
8
BLACK
6
CONTINUOUS
10
198.56
20
-190.212
11
198.75
21
-190.212
0
LINE
8
BLACK
6
CONTINUOUS
10
200.191
20
-190.117
11
199.988
21
-190.212
0
LINE
8
BLACK
6
CONTINUOUS
10
199.988
20
-190.212
11
199.607
21
-190.212
0
LINE
8
BLACK
6
CONTINUOUS
10
199.607
20
-190.212
11
199.429
21
-190.117
0
LINE
8
BLACK
6
CONTINUOUS
10
199.429
20
-190.117
11
199.357
21
-189.926
0
LINE
8
BLACK
6
CONTINUOUS
10
199.357
20
-189.926
11
199.453
21
-189.164
0
LINE
8
BLACK
6
CONTINUOUS
10
199.453
20
-189.164
11
199.572
21
-188.974
0
LINE
8
BLACK
6
CONTINUOUS
10
199.572
20
-188.974
11
199.774
21
-188.879
0
LINE
8
BLACK
6
CONTINUOUS
10
199.774
20
-188.879
11
200.155
21
-188.879
0
LINE
8
BLACK
6
CONTINUOUS
10
200.155
20
-188.879
11
200.334
21
-188.974
0
LINE
8
BLACK
6
CONTINUOUS
10
200.334
20
-188.974
11
200.405
21
-189.164
0
LINE
8
BLACK
6
CONTINUOUS
10
200.405
20
-189.164
11
200.381
21
-189.355
0
LINE
8
BLACK
6
CONTINUOUS
10
200.381
20
-189.355
11
199.405
21
-189.545
0
LINE
8
BLACK
6
CONTINUOUS
10
201.131
20
-190.212
11
201.298
21
-188.879
0
LINE
8
BLACK
6
CONTINUOUS
10
201.25
20
-189.26
11
201.369
21
-189.069
0
LINE
8
BLACK
6
CONTINUOUS
10
201.369
20
-189.069
11
201.476
21
-188.974
0
LINE
8
BLACK
6
CONTINUOUS
10
201.476
20
-188.974
11
201.679
21
-188.879
0
LINE
8
BLACK
6
CONTINUOUS
10
201.679
20
-188.879
11
201.869
21
-188.879
0
LINE
8
BLACK
6
CONTINUOUS
10
178.934
20
-185.6
11
178.434
21
-185.6
0
LINE
8
BLACK
6
CONTINUOUS
10
178.434
20
-186.386
11
178.434
21
-184.886
0
LINE
8
BLACK
6
CONTINUOUS
10
178.434
20
-184.886
11
179.149
21
-184.886
0
LINE
8
BLACK
6
CONTINUOUS
10
179.72
20
-186.386
11
179.72
21
-185.386
0
LINE
8
BLACK
6
CONTINUOUS
10
179.72
20
-184.886
11
179.649
21
-184.957
0
LINE
8
BLACK
6
CONTINUOUS
10
179.649
20
-184.957
11
179.72
21
-185.029
0
LINE
8
BLACK
6
CONTINUOUS
10
179.72
20
-185.029
11
179.791
21
-184.957
0
LINE
8
BLACK
6
CONTINUOUS
10
179.791
20
-184.957
11
179.72
21
-184.886
0
LINE
8
BLACK
6
CONTINUOUS
10
179.72
20
-184.886
11
179.72
21
-185.029
0
LINE
8
BLACK
6
CONTINUOUS
10
180.649
20
-186.386
11
180.506
21
-186.314
0
LINE
8
BLACK
6
CONTINUOUS
10
180.506
20
-186.314
11
180.434
21
-186.171
0
LINE
8
BLACK
6
CONTINUOUS
10
180.434
20
-186.171
11
180.434
21
-184.886
0
LINE
8
BLACK
6
CONTINUOUS
10
181.791
20
-186.314
11
181.649
21
-186.386
0
LINE
8
BLACK
6
CONTINUOUS
10
181.649
20
-186.386
11
181.363
21
-186.386
0
LINE
8
BLACK
6
CONTINUOUS
10
181.363
20
-186.386
11
181.22
21
-186.314
0
LINE
8
BLACK
6
CONTINUOUS
10
181.22
20
-186.314
11
181.149
21
-186.171
0
LINE
8
BLACK
6
CONTINUOUS
10
181.149
20
-186.171
11
181.149
21
-185.6
0
LINE
8
BLACK
6
CONTINUOUS
10
181.149
20
-185.6
11
181.22
21
-185.457
0
LINE
8
BLACK
6
CONTINUOUS
10
181.22
20
-185.457
11
181.363
21
-185.386
0
LINE
8
BLACK
6
CONTINUOUS
10
181.363
20
-185.386
11
181.649
21
-185.386
0
LINE
8
BLACK
6
CONTINUOUS
10
181.649
20
-185.386
11
181.791
21
-185.457
0
LINE
8
BLACK
6
CONTINUOUS
10
181.791
20
-185.457
11
181.863
21
-185.6
0
LINE
8
BLACK
6
CONTINUOUS
10
181.863
20
-185.6
11
181.863
21
-185.743
0
LINE
8
BLACK
6
CONTINUOUS
10
181.863
20
-185.743
11
181.149
21
-185.886
0
LINE
8
BLACK
6
CONTINUOUS
10
182.506
20
-186.243
11
182.577
21
-186.314
0
LINE
8
BLACK
6
CONTINUOUS
10
182.577
20
-186.314
11
182.506
21
-186.386
0
LINE
8
BLACK
6
CONTINUOUS
10
182.506
20
-186.386
11
182.434
21
-186.314
0
LINE
8
BLACK
6
CONTINUOUS
10
182.434
20
-186.314
11
182.506
21
-186.243
0
LINE
8
BLACK
6
CONTINUOUS
10
182.506
20
-186.243
11
182.506
21
-186.386
0
LINE
8
BLACK
6
CONTINUOUS
10
182.506
20
-185.457
11
182.577
21
-185.529
0
LINE
8
BLACK
6
CONTINUOUS
10
182.577
20
-185.529
11
182.506
21
-185.6
0
LINE
8
BLACK
6
CONTINUOUS
10
182.506
20
-185.6
11
182.434
21
-185.529
0
LINE
8
BLACK
6
CONTINUOUS
10
182.434
20
-185.529
11
182.506
21
-185.457
0
LINE
8
BLACK
6
CONTINUOUS
10
182.506
20
-185.457
11
182.506
21
-185.6
0
LINE
8
BLACK
6
CONTINUOUS
10
184.291
20
-186.314
11
184.434
21
-186.386
0
LINE
8
BLACK
6
CONTINUOUS
10
184.434
20
-186.386
11
184.72
21
-186.386
0
LINE
8
BLACK
6
CONTINUOUS
10
184.72
20
-186.386
11
184.863
21
-186.314
0
LINE
8
BLACK
6
CONTINUOUS
10
184.863
20
-186.314
11
184.934
21
-186.171
0
LINE
8
BLACK
6
CONTINUOUS
10
184.934
20
-186.171
11
184.934
21
-186.1
0
LINE
8
BLACK
6
CONTINUOUS
10
184.934
20
-186.1
11
184.863
21
-185.957
0
LINE
8
BLACK
6
CONTINUOUS
10
184.863
20
-185.957
11
184.72
21
-185.886
0
LINE
8
BLACK
6
CONTINUOUS
10
184.72
20
-185.886
11
184.506
21
-185.886
0
LINE
8
BLACK
6
CONTINUOUS
10
184.506
20
-185.886
11
184.363
21
-185.814
0
LINE
8
BLACK
6
CONTINUOUS
10
184.363
20
-185.814
11
184.291
21
-185.671
0
LINE
8
BLACK
6
CONTINUOUS
10
184.291
20
-185.671
11
184.291
21
-185.6
0
LINE
8
BLACK
6
CONTINUOUS
10
184.291
20
-185.6
11
184.363
21
-185.457
0
LINE
8
BLACK
6
CONTINUOUS
10
184.363
20
-185.457
11
184.506
21
-185.386
0
LINE
8
BLACK
6
CONTINUOUS
10
184.506
20
-185.386
11
184.72
21
-185.386
0
LINE
8
BLACK
6
CONTINUOUS
10
184.72
20
-185.386
11
184.863
21
-185.457
0
LINE
8
BLACK
6
CONTINUOUS
10
185.434
20
-185.386
11
185.72
21
-186.386
0
LINE
8
BLACK
6
CONTINUOUS
10
185.72
20
-186.386
11
186.006
21
-185.671
0
LINE
8
BLACK
6
CONTINUOUS
10
186.006
20
-185.671
11
186.291
21
-186.386
0
LINE
8
BLACK
6
CONTINUOUS
10
186.291
20
-186.386
11
186.577
21
-185.386
0
LINE
8
BLACK
6
CONTINUOUS
10
187.149
20
-186.386
11
187.149
21
-185.386
0
LINE
8
BLACK
6
CONTINUOUS
10
187.149
20
-185.529
11
187.22
21
-185.457
0
LINE
8
BLACK
6
CONTINUOUS
10
187.22
20
-185.457
11
187.363
21
-185.386
0
LINE
8
BLACK
6
CONTINUOUS
10
187.363
20
-185.386
11
187.577
21
-185.386
0
LINE
8
BLACK
6
CONTINUOUS
10
187.577
20
-185.386
11
187.72
21
-185.457
0
LINE
8
BLACK
6
CONTINUOUS
10
187.72
20
-185.457
11
187.791
21
-185.6
0
LINE
8
BLACK
6
CONTINUOUS
10
187.791
20
-185.6
11
187.791
21
-186.386
0
LINE
8
BLACK
6
CONTINUOUS
10
187.791
20
-185.6
11
187.863
21
-185.457
0
LINE
8
BLACK
6
CONTINUOUS
10
187.863
20
-185.457
11
188.006
21
-185.386
0
LINE
8
BLACK
6
CONTINUOUS
10
188.006
20
-185.386
11
188.22
21
-185.386
0
LINE
8
BLACK
6
CONTINUOUS
10
188.22
20
-185.386
11
188.363
21
-185.457
0
LINE
8
BLACK
6
CONTINUOUS
10
188.363
20
-185.457
11
188.434
21
-185.6
0
LINE
8
BLACK
6
CONTINUOUS
10
188.434
20
-185.6
11
188.434
21
-186.386
0
LINE
8
BLACK
6
CONTINUOUS
10
189.72
20
-186.314
11
189.577
21
-186.386
0
LINE
8
BLACK
6
CONTINUOUS
10
189.577
20
-186.386
11
189.291
21
-186.386
0
LINE
8
BLACK
6
CONTINUOUS
10
189.291
20
-186.386
11
189.149
21
-186.314
0
LINE
8
BLACK
6
CONTINUOUS
10
189.149
20
-186.314
11
189.077
21
-186.171
0
LINE
8
BLACK
6
CONTINUOUS
10
189.077
20
-186.171
11
189.077
21
-185.6
0
LINE
8
BLACK
6
CONTINUOUS
10
189.077
20
-185.6
11
189.149
21
-185.457
0
LINE
8
BLACK
6
CONTINUOUS
10
189.149
20
-185.457
11
189.291
21
-185.386
0
LINE
8
BLACK
6
CONTINUOUS
10
189.291
20
-185.386
11
189.577
21
-185.386
0
LINE
8
BLACK
6
CONTINUOUS
10
189.577
20
-185.386
11
189.72
21
-185.457
0
LINE
8
BLACK
6
CONTINUOUS
10
189.72
20
-185.457
11
189.791
21
-185.6
0
LINE
8
BLACK
6
CONTINUOUS
10
189.791
20
-185.6
11
189.791
21
-185.743
0
LINE
8
BLACK
6
CONTINUOUS
10
189.791
20
-185.743
11
189.077
21
-185.886
0
LINE
8
BLACK
6
CONTINUOUS
10
190.22
20
-185.386
11
190.791
21
-185.386
0
LINE
8
BLACK
6
CONTINUOUS
10
190.434
20
-184.886
11
190.434
21
-186.171
0
LINE
8
BLACK
6
CONTINUOUS
10
190.434
20
-186.171
11
190.506
21
-186.314
0
LINE
8
BLACK
6
CONTINUOUS
10
190.506
20
-186.314
11
190.649
21
-186.386
0
LINE
8
BLACK
6
CONTINUOUS
10
190.649
20
-186.386
11
190.791
21
-186.386
0
LINE
8
BLACK
6
CONTINUOUS
10
191.863
20
-186.314
11
191.72
21
-186.386
0
LINE
8
BLACK
6
CONTINUOUS
10
191.72
20
-186.386
11
191.434
21
-186.386
0
LINE
8
BLACK
6
CONTINUOUS
10
191.434
20
-186.386
11
191.291
21
-186.314
0
LINE
8
BLACK
6
CONTINUOUS
10
191.291
20
-186.314
11
191.22
21
-186.171
0
LINE
8
BLACK
6
CONTINUOUS
10
191.22
20
-186.171
11
191.22
21
-185.6
0
LINE
8
BLACK
6
CONTINUOUS
10
191.22
20
-185.6
11
191.291
21
-185.457
0
LINE
8
BLACK
6
CONTINUOUS
10
191.291
20
-185.457
11
191.434
21
-185.386
0
LINE
8
BLACK
6
CONTINUOUS
10
191.434
20
-185.386
11
191.72
21
-185.386
0
LINE
8
BLACK
6
CONTINUOUS
10
191.72
20
-185.386
11
191.863
21
-185.457
0
LINE
8
BLACK
6
CONTINUOUS
10
191.863
20
-185.457
11
191.934
21
-185.6
0
LINE
8
BLACK
6
CONTINUOUS
10
191.934
20
-185.6
11
191.934
21
-185.743
0
LINE
8
BLACK
6
CONTINUOUS
10
191.934
20
-185.743
11
191.22
21
-185.886
0
LINE
8
BLACK
6
CONTINUOUS
10
192.577
20
-186.386
11
192.577
21
-185.386
0
LINE
8
BLACK
6
CONTINUOUS
10
192.577
20
-185.671
11
192.649
21
-185.529
0
LINE
8
BLACK
6
CONTINUOUS
10
192.649
20
-185.529
11
192.72
21
-185.457
0
LINE
8
BLACK
6
CONTINUOUS
10
192.72
20
-185.457
11
192.863
21
-185.386
0
LINE
8
BLACK
6
CONTINUOUS
10
192.863
20
-185.386
11
193.006
21
-185.386
0
LINE
8
BLACK
6
CONTINUOUS
10
193.506
20
-186.243
11
193.577
21
-186.314
0
LINE
8
BLACK
6
CONTINUOUS
10
193.577
20
-186.314
11
193.506
21
-186.386
0
LINE
8
BLACK
6
CONTINUOUS
10
193.506
20
-186.386
11
193.434
21
-186.314
0
LINE
8
BLACK
6
CONTINUOUS
10
193.434
20
-186.314
11
193.506
21
-186.243
0
LINE
8
BLACK
6
CONTINUOUS
10
193.506
20
-186.243
11
193.506
21
-186.386
0
LINE
8
BLACK
6
CONTINUOUS
10
194.22
20
-186.386
11
194.22
21
-184.886
0
LINE
8
BLACK
6
CONTINUOUS
10
194.363
20
-185.814
11
194.791
21
-186.386
0
LINE
8
BLACK
6
CONTINUOUS
10
194.791
20
-185.386
11
194.22
21
-185.957
0
LINE
8
BLACK
6
CONTINUOUS
10
195.434
20
-186.386
11
195.434
21
-185.386
0
LINE
8
BLACK
6
CONTINUOUS
10
195.434
20
-184.886
11
195.363
21
-184.957
0
LINE
8
BLACK
6
CONTINUOUS
10
195.363
20
-184.957
11
195.434
21
-185.029
0
LINE
8
BLACK
6
CONTINUOUS
10
195.434
20
-185.029
11
195.506
21
-184.957
0
LINE
8
BLACK
6
CONTINUOUS
10
195.506
20
-184.957
11
195.434
21
-184.886
0
LINE
8
BLACK
6
CONTINUOUS
10
195.434
20
-184.886
11
195.434
21
-185.029
0
LINE
8
BLACK
6
CONTINUOUS
10
196.791
20
-186.314
11
196.649
21
-186.386
0
LINE
8
BLACK
6
CONTINUOUS
10
196.649
20
-186.386
11
196.363
21
-186.386
0
LINE
8
BLACK
6
CONTINUOUS
10
196.363
20
-186.386
11
196.22
21
-186.314
0
LINE
8
BLACK
6
CONTINUOUS
10
196.22
20
-186.314
11
196.149
21
-186.243
0
LINE
8
BLACK
6
CONTINUOUS
10
196.149
20
-186.243
11
196.077
21
-186.1
0
LINE
8
BLACK
6
CONTINUOUS
10
196.077
20
-186.1
11
196.077
21
-185.671
0
LINE
8
BLACK
6
CONTINUOUS
10
196.077
20
-185.671
11
196.149
21
-185.529
0
LINE
8
BLACK
6
CONTINUOUS
10
196.149
20
-185.529
11
196.22
21
-185.457
0
LINE
8
BLACK
6
CONTINUOUS
10
196.22
20
-185.457
11
196.363
21
-185.386
0
LINE
8
BLACK
6
CONTINUOUS
10
196.363
20
-185.386
11
196.649
21
-185.386
0
LINE
8
BLACK
6
CONTINUOUS
10
196.649
20
-185.386
11
196.791
21
-185.457
0
LINE
8
BLACK
6
CONTINUOUS
10
198.077
20
-186.386
11
198.077
21
-185.6
0
LINE
8
BLACK
6
CONTINUOUS
10
198.077
20
-185.6
11
198.006
21
-185.457
0
LINE
8
BLACK
6
CONTINUOUS
10
198.006
20
-185.457
11
197.863
21
-185.386
0
LINE
8
BLACK
6
CONTINUOUS
10
197.863
20
-185.386
11
197.577
21
-185.386
0
LINE
8
BLACK
6
CONTINUOUS
10
197.577
20
-185.386
11
197.434
21
-185.457
0
LINE
8
BLACK
6
CONTINUOUS
10
198.077
20
-186.314
11
197.934
21
-186.386
0
LINE
8
BLACK
6
CONTINUOUS
10
197.934
20
-186.386
11
197.577
21
-186.386
0
LINE
8
BLACK
6
CONTINUOUS
10
197.577
20
-186.386
11
197.434
21
-186.314
0
LINE
8
BLACK
6
CONTINUOUS
10
197.434
20
-186.314
11
197.363
21
-186.171
0
LINE
8
BLACK
6
CONTINUOUS
10
197.363
20
-186.171
11
197.363
21
-186.029
0
LINE
8
BLACK
6
CONTINUOUS
10
197.363
20
-186.029
11
197.434
21
-185.886
0
LINE
8
BLACK
6
CONTINUOUS
10
197.434
20
-185.886
11
197.577
21
-185.814
0
LINE
8
BLACK
6
CONTINUOUS
10
197.577
20
-185.814
11
197.934
21
-185.814
0
LINE
8
BLACK
6
CONTINUOUS
10
197.934
20
-185.814
11
198.077
21
-185.743
0
LINE
8
BLACK
6
CONTINUOUS
10
199.434
20
-186.386
11
199.434
21
-184.886
0
LINE
8
BLACK
6
CONTINUOUS
10
199.434
20
-186.314
11
199.291
21
-186.386
0
LINE
8
BLACK
6
CONTINUOUS
10
199.291
20
-186.386
11
199.006
21
-186.386
0
LINE
8
BLACK
6
CONTINUOUS
10
199.006
20
-186.386
11
198.863
21
-186.314
0
LINE
8
BLACK
6
CONTINUOUS
10
198.863
20
-186.314
11
198.791
21
-186.243
0
LINE
8
BLACK
6
CONTINUOUS
10
198.791
20
-186.243
11
198.72
21
-186.1
0
LINE
8
BLACK
6
CONTINUOUS
10
198.72
20
-186.1
11
198.72
21
-185.671
0
LINE
8
BLACK
6
CONTINUOUS
10
198.72
20
-185.671
11
198.791
21
-185.529
0
LINE
8
BLACK
6
CONTINUOUS
10
198.791
20
-185.529
11
198.863
21
-185.457
0
LINE
8
BLACK
6
CONTINUOUS
10
198.863
20
-185.457
11
199.006
21
-185.386
0
LINE
8
BLACK
6
CONTINUOUS
10
199.006
20
-185.386
11
199.291
21
-185.386
0
LINE
8
BLACK
6
CONTINUOUS
10
199.291
20
-185.386
11
199.434
21
-185.457
0
LINE
8
BLACK
6
CONTINUOUS
10
199.791
20
-186.529
11
200.934
21
-186.529
0
LINE
8
BLACK
6
CONTINUOUS
10
201.291
20
-185.386
11
201.291
21
-186.886
0
LINE
8
BLACK
6
CONTINUOUS
10
201.291
20
-185.457
11
201.434
21
-185.386
0
LINE
8
BLACK
6
CONTINUOUS
10
201.434
20
-185.386
11
201.72
21
-185.386
0
LINE
8
BLACK
6
CONTINUOUS
10
201.72
20
-185.386
11
201.863
21
-185.457
0
LINE
8
BLACK
6
CONTINUOUS
10
201.863
20
-185.457
11
201.934
21
-185.529
0
LINE
8
BLACK
6
CONTINUOUS
10
201.934
20
-185.529
11
202.006
21
-185.671
0
LINE
8
BLACK
6
CONTINUOUS
10
202.006
20
-185.671
11
202.006
21
-186.1
0
LINE
8
BLACK
6
CONTINUOUS
10
202.006
20
-186.1
11
201.934
21
-186.243
0
LINE
8
BLACK
6
CONTINUOUS
10
201.934
20
-186.243
11
201.863
21
-186.314
0
LINE
8
BLACK
6
CONTINUOUS
10
201.863
20
-186.314
11
201.72
21
-186.386
0
LINE
8
BLACK
6
CONTINUOUS
10
201.72
20
-186.386
11
201.434
21
-186.386
0
LINE
8
BLACK
6
CONTINUOUS
10
201.434
20
-186.386
11
201.291
21
-186.314
0
LINE
8
BLACK
6
CONTINUOUS
10
203.291
20
-186.314
11
203.149
21
-186.386
0
LINE
8
BLACK
6
CONTINUOUS
10
203.149
20
-186.386
11
202.863
21
-186.386
0
LINE
8
BLACK
6
CONTINUOUS
10
202.863
20
-186.386
11
202.72
21
-186.314
0
LINE
8
BLACK
6
CONTINUOUS
10
202.72
20
-186.314
11
202.649
21
-186.243
0
LINE
8
BLACK
6
CONTINUOUS
10
202.649
20
-186.243
11
202.577
21
-186.1
0
LINE
8
BLACK
6
CONTINUOUS
10
202.577
20
-186.1
11
202.577
21
-185.671
0
LINE
8
BLACK
6
CONTINUOUS
10
202.577
20
-185.671
11
202.649
21
-185.529
0
LINE
8
BLACK
6
CONTINUOUS
10
202.649
20
-185.529
11
202.72
21
-185.457
0
LINE
8
BLACK
6
CONTINUOUS
10
202.72
20
-185.457
11
202.863
21
-185.386
0
LINE
8
BLACK
6
CONTINUOUS
10
202.863
20
-185.386
11
203.149
21
-185.386
0
LINE
8
BLACK
6
CONTINUOUS
10
203.149
20
-185.386
11
203.291
21
-185.457
0
LINE
8
BLACK
6
CONTINUOUS
10
203.934
20
-186.386
11
203.934
21
-184.886
0
LINE
8
BLACK
6
CONTINUOUS
10
203.934
20
-185.457
11
204.077
21
-185.386
0
LINE
8
BLACK
6
CONTINUOUS
10
204.077
20
-185.386
11
204.363
21
-185.386
0
LINE
8
BLACK
6
CONTINUOUS
10
204.363
20
-185.386
11
204.506
21
-185.457
0
LINE
8
BLACK
6
CONTINUOUS
10
204.506
20
-185.457
11
204.577
21
-185.529
0
LINE
8
BLACK
6
CONTINUOUS
10
204.577
20
-185.529
11
204.649
21
-185.671
0
LINE
8
BLACK
6
CONTINUOUS
10
204.649
20
-185.671
11
204.649
21
-186.1
0
LINE
8
BLACK
6
CONTINUOUS
10
204.649
20
-186.1
11
204.577
21
-186.243
0
LINE
8
BLACK
6
CONTINUOUS
10
204.577
20
-186.243
11
204.506
21
-186.314
0
LINE
8
BLACK
6
CONTINUOUS
10
204.506
20
-186.314
11
204.363
21
-186.386
0
LINE
8
BLACK
6
CONTINUOUS
10
204.363
20
-186.386
11
204.077
21
-186.386
0
LINE
8
BLACK
6
CONTINUOUS
10
204.077
20
-186.386
11
203.934
21
-186.314
0
LINE
8
BLACK
6
CONTINUOUS
10
177.002
20
-181.507
11
285.002
21
-181.507
0
LINE
8
BLACK
6
CONTINUOUS
10
178.363
20
-183.614
11
178.577
21
-183.686
0
LINE
8
BLACK
6
CONTINUOUS
10
178.577
20
-183.686
11
178.934
21
-183.686
0
LINE
8
BLACK
6
CONTINUOUS
10
178.934
20
-183.686
11
179.077
21
-183.614
0
LINE
8
BLACK
6
CONTINUOUS
10
179.077
20
-183.614
11
179.149
21
-183.543
0
LINE
8
BLACK
6
CONTINUOUS
10
179.149
20
-183.543
11
179.22
21
-183.4
0
LINE
8
BLACK
6
CONTINUOUS
10
179.22
20
-183.4
11
179.22
21
-183.257
0
LINE
8
BLACK
6
CONTINUOUS
10
179.22
20
-183.257
11
179.149
21
-183.114
0
LINE
8
BLACK
6
CONTINUOUS
10
179.149
20
-183.114
11
179.077
21
-183.043
0
LINE
8
BLACK
6
CONTINUOUS
10
179.077
20
-183.043
11
178.934
21
-182.971
0
LINE
8
BLACK
6
CONTINUOUS
10
178.934
20
-182.971
11
178.649
21
-182.9
0
LINE
8
BLACK
6
CONTINUOUS
10
178.649
20
-182.9
11
178.506
21
-182.829
0
LINE
8
BLACK
6
CONTINUOUS
10
178.506
20
-182.829
11
178.434
21
-182.757
0
LINE
8
BLACK
6
CONTINUOUS
10
178.434
20
-182.757
11
178.363
21
-182.614
0
LINE
8
BLACK
6
CONTINUOUS
10
178.363
20
-182.614
11
178.363
21
-182.471
0
LINE
8
BLACK
6
CONTINUOUS
10
178.363
20
-182.471
11
178.434
21
-182.329
0
LINE
8
BLACK
6
CONTINUOUS
10
178.434
20
-182.329
11
178.506
21
-182.257
0
LINE
8
BLACK
6
CONTINUOUS
10
178.506
20
-182.257
11
178.649
21
-182.186
0
LINE
8
BLACK
6
CONTINUOUS
10
178.649
20
-182.186
11
179.006
21
-182.186
0
LINE
8
BLACK
6
CONTINUOUS
10
179.006
20
-182.186
11
179.22
21
-182.257
0
LINE
8
BLACK
6
CONTINUOUS
10
179.863
20
-183.686
11
179.863
21
-182.186
0
LINE
8
BLACK
6
CONTINUOUS
10
180.506
20
-183.686
11
180.506
21
-182.9
0
LINE
8
BLACK
6
CONTINUOUS
10
180.506
20
-182.9
11
180.434
21
-182.757
0
LINE
8
BLACK
6
CONTINUOUS
10
180.434
20
-182.757
11
180.291
21
-182.686
0
LINE
8
BLACK
6
CONTINUOUS
10
180.291
20
-182.686
11
180.077
21
-182.686
0
LINE
8
BLACK
6
CONTINUOUS
10
180.077
20
-182.686
11
179.934
21
-182.757
0
LINE
8
BLACK
6
CONTINUOUS
10
179.934
20
-182.757
11
179.863
21
-182.829
0
LINE
8
BLACK
6
CONTINUOUS
10
181.791
20
-183.614
11
181.649
21
-183.686
0
LINE
8
BLACK
6
CONTINUOUS
10
181.649
20
-183.686
11
181.363
21
-183.686
0
LINE
8
BLACK
6
CONTINUOUS
10
181.363
20
-183.686
11
181.22
21
-183.614
0
LINE
8
BLACK
6
CONTINUOUS
10
181.22
20
-183.614
11
181.149
21
-183.471
0
LINE
8
BLACK
6
CONTINUOUS
10
181.149
20
-183.471
11
181.149
21
-182.9
0
LINE
8
BLACK
6
CONTINUOUS
10
181.149
20
-182.9
11
181.22
21
-182.757
0
LINE
8
BLACK
6
CONTINUOUS
10
181.22
20
-182.757
11
181.363
21
-182.686
0
LINE
8
BLACK
6
CONTINUOUS
10
181.363
20
-182.686
11
181.649
21
-182.686
0
LINE
8
BLACK
6
CONTINUOUS
10
181.649
20
-182.686
11
181.791
21
-182.757
0
LINE
8
BLACK
6
CONTINUOUS
10
181.791
20
-182.757
11
181.863
21
-182.9
0
LINE
8
BLACK
6
CONTINUOUS
10
181.863
20
-182.9
11
181.863
21
-183.043
0
LINE
8
BLACK
6
CONTINUOUS
10
181.863
20
-183.043
11
181.149
21
-183.186
0
LINE
8
BLACK
6
CONTINUOUS
10
183.077
20
-183.614
11
182.934
21
-183.686
0
LINE
8
BLACK
6
CONTINUOUS
10
182.934
20
-183.686
11
182.649
21
-183.686
0
LINE
8
BLACK
6
CONTINUOUS
10
182.649
20
-183.686
11
182.506
21
-183.614
0
LINE
8
BLACK
6
CONTINUOUS
10
182.506
20
-183.614
11
182.434
21
-183.471
0
LINE
8
BLACK
6
CONTINUOUS
10
182.434
20
-183.471
11
182.434
21
-182.9
0
LINE
8
BLACK
6
CONTINUOUS
10
182.434
20
-182.9
11
182.506
21
-182.757
0
LINE
8
BLACK
6
CONTINUOUS
10
182.506
20
-182.757
11
182.649
21
-182.686
0
LINE
8
BLACK
6
CONTINUOUS
10
182.649
20
-182.686
11
182.934
21
-182.686
0
LINE
8
BLACK
6
CONTINUOUS
10
182.934
20
-182.686
11
183.077
21
-182.757
0
LINE
8
BLACK
6
CONTINUOUS
10
183.077
20
-182.757
11
183.149
21
-182.9
0
LINE
8
BLACK
6
CONTINUOUS
10
183.149
20
-182.9
11
183.149
21
-183.043
0
LINE
8
BLACK
6
CONTINUOUS
10
183.149
20
-183.043
11
182.434
21
-183.186
0
LINE
8
BLACK
6
CONTINUOUS
10
183.577
20
-182.686
11
184.149
21
-182.686
0
LINE
8
BLACK
6
CONTINUOUS
10
183.791
20
-182.186
11
183.791
21
-183.471
0
LINE
8
BLACK
6
CONTINUOUS
10
183.791
20
-183.471
11
183.863
21
-183.614
0
LINE
8
BLACK
6
CONTINUOUS
10
183.863
20
-183.614
11
184.006
21
-183.686
0
LINE
8
BLACK
6
CONTINUOUS
10
184.006
20
-183.686
11
184.149
21
-183.686
0
LINE
8
BLACK
6
CONTINUOUS
10
184.649
20
-183.543
11
184.72
21
-183.614
0
LINE
8
BLACK
6
CONTINUOUS
10
184.72
20
-183.614
11
184.649
21
-183.686
0
LINE
8
BLACK
6
CONTINUOUS
10
184.649
20
-183.686
11
184.577
21
-183.614
0
LINE
8
BLACK
6
CONTINUOUS
10
184.577
20
-183.614
11
184.649
21
-183.543
0
LINE
8
BLACK
6
CONTINUOUS
10
184.649
20
-183.543
11
184.649
21
-183.686
0
LINE
8
BLACK
6
CONTINUOUS
10
184.649
20
-182.757
11
184.72
21
-182.829
0
LINE
8
BLACK
6
CONTINUOUS
10
184.72
20
-182.829
11
184.649
21
-182.9
0
LINE
8
BLACK
6
CONTINUOUS
10
184.649
20
-182.9
11
184.577
21
-182.829
0
LINE
8
BLACK
6
CONTINUOUS
10
184.577
20
-182.829
11
184.649
21
-182.757
0
LINE
8
BLACK
6
CONTINUOUS
10
184.649
20
-182.757
11
184.649
21
-182.9
0
LINE
8
BLACK
6
CONTINUOUS
10
179.769
20
-179.543
11
179.626
21
-179.471
0
LINE
8
BLACK
6
CONTINUOUS
10
179.626
20
-179.471
11
179.34
21
-179.471
0
LINE
8
BLACK
6
CONTINUOUS
10
179.34
20
-179.471
11
179.197
21
-179.543
0
LINE
8
BLACK
6
CONTINUOUS
10
179.197
20
-179.543
11
179.054
21
-179.686
0
LINE
8
BLACK
6
CONTINUOUS
10
179.054
20
-179.686
11
178.983
21
-179.829
0
LINE
8
BLACK
6
CONTINUOUS
10
178.983
20
-179.829
11
178.983
21
-180.114
0
LINE
8
BLACK
6
CONTINUOUS
10
178.983
20
-180.114
11
179.054
21
-180.257
0
LINE
8
BLACK
6
CONTINUOUS
10
179.054
20
-180.257
11
179.197
21
-180.4
0
LINE
8
BLACK
6
CONTINUOUS
10
179.197
20
-180.4
11
179.34
21
-180.471
0
LINE
8
BLACK
6
CONTINUOUS
10
179.34
20
-180.471
11
179.626
21
-180.471
0
LINE
8
BLACK
6
CONTINUOUS
10
179.626
20
-180.471
11
179.769
21
-180.4
0
LINE
8
BLACK
6
CONTINUOUS
10
179.483
20
-178.971
11
179.126
21
-179.043
0
LINE
8
BLACK
6
CONTINUOUS
10
179.126
20
-179.043
11
178.769
21
-179.257
0
LINE
8
BLACK
6
CONTINUOUS
10
178.769
20
-179.257
11
178.554
21
-179.614
0
LINE
8
BLACK
6
CONTINUOUS
10
178.554
20
-179.614
11
178.483
21
-179.971
0
LINE
8
BLACK
6
CONTINUOUS
10
178.483
20
-179.971
11
178.554
21
-180.329
0
LINE
8
BLACK
6
CONTINUOUS
10
178.554
20
-180.329
11
178.769
21
-180.686
0
LINE
8
BLACK
6
CONTINUOUS
10
178.769
20
-180.686
11
179.126
21
-180.9
0
LINE
8
BLACK
6
CONTINUOUS
10
179.126
20
-180.9
11
179.483
21
-180.971
0
LINE
8
BLACK
6
CONTINUOUS
10
179.483
20
-180.971
11
179.84
21
-180.9
0
LINE
8
BLACK
6
CONTINUOUS
10
179.84
20
-180.9
11
180.197
21
-180.686
0
LINE
8
BLACK
6
CONTINUOUS
10
180.197
20
-180.686
11
180.411
21
-180.329
0
LINE
8
BLACK
6
CONTINUOUS
10
180.411
20
-180.329
11
180.483
21
-179.971
0
LINE
8
BLACK
6
CONTINUOUS
10
180.483
20
-179.971
11
180.411
21
-179.614
0
LINE
8
BLACK
6
CONTINUOUS
10
180.411
20
-179.614
11
180.197
21
-179.257
0
LINE
8
BLACK
6
CONTINUOUS
10
180.197
20
-179.257
11
179.84
21
-179.043
0
LINE
8
BLACK
6
CONTINUOUS
10
179.84
20
-179.043
11
179.483
21
-178.971
0
LINE
8
BLACK
6
CONTINUOUS
10
182.126
20
-179.186
11
182.483
21
-180.686
0
LINE
8
BLACK
6
CONTINUOUS
10
182.483
20
-180.686
11
182.769
21
-179.614
0
LINE
8
BLACK
6
CONTINUOUS
10
182.769
20
-179.614
11
183.054
21
-180.686
0
LINE
8
BLACK
6
CONTINUOUS
10
183.054
20
-180.686
11
183.411
21
-179.186
0
LINE
8
BLACK
6
CONTINUOUS
10
184.197
20
-180.686
11
184.054
21
-180.614
0
LINE
8
BLACK
6
CONTINUOUS
10
184.054
20
-180.614
11
183.983
21
-180.543
0
LINE
8
BLACK
6
CONTINUOUS
10
183.983
20
-180.543
11
183.911
21
-180.4
0
LINE
8
BLACK
6
CONTINUOUS
10
183.911
20
-180.4
11
183.911
21
-179.971
0
LINE
8
BLACK
6
CONTINUOUS
10
183.911
20
-179.971
11
183.983
21
-179.829
0
LINE
8
BLACK
6
CONTINUOUS
10
183.983
20
-179.829
11
184.054
21
-179.757
0
LINE
8
BLACK
6
CONTINUOUS
10
184.054
20
-179.757
11
184.197
21
-179.686
0
LINE
8
BLACK
6
CONTINUOUS
10
184.197
20
-179.686
11
184.411
21
-179.686
0
LINE
8
BLACK
6
CONTINUOUS
10
184.411
20
-179.686
11
184.554
21
-179.757
0
LINE
8
BLACK
6
CONTINUOUS
10
184.554
20
-179.757
11
184.626
21
-179.829
0
LINE
8
BLACK
6
CONTINUOUS
10
184.626
20
-179.829
11
184.697
21
-179.971
0
LINE
8
BLACK
6
CONTINUOUS
10
184.697
20
-179.971
11
184.697
21
-180.4
0
LINE
8
BLACK
6
CONTINUOUS
10
184.697
20
-180.4
11
184.626
21
-180.543
0
LINE
8
BLACK
6
CONTINUOUS
10
184.626
20
-180.543
11
184.554
21
-180.614
0
LINE
8
BLACK
6
CONTINUOUS
10
184.554
20
-180.614
11
184.411
21
-180.686
0
LINE
8
BLACK
6
CONTINUOUS
10
184.411
20
-180.686
11
184.197
21
-180.686
0
LINE
8
BLACK
6
CONTINUOUS
10
185.983
20
-180.686
11
185.983
21
-179.186
0
LINE
8
BLACK
6
CONTINUOUS
10
185.983
20
-180.614
11
185.84
21
-180.686
0
LINE
8
BLACK
6
CONTINUOUS
10
185.84
20
-180.686
11
185.554
21
-180.686
0
LINE
8
BLACK
6
CONTINUOUS
10
185.554
20
-180.686
11
185.411
21
-180.614
0
LINE
8
BLACK
6
CONTINUOUS
10
185.411
20
-180.614
11
185.34
21
-180.543
0
LINE
8
BLACK
6
CONTINUOUS
10
185.34
20
-180.543
11
185.269
21
-180.4
0
LINE
8
BLACK
6
CONTINUOUS
10
185.269
20
-180.4
11
185.269
21
-179.971
0
LINE
8
BLACK
6
CONTINUOUS
10
185.269
20
-179.971
11
185.34
21
-179.829
0
LINE
8
BLACK
6
CONTINUOUS
10
185.34
20
-179.829
11
185.411
21
-179.757
0
LINE
8
BLACK
6
CONTINUOUS
10
185.411
20
-179.757
11
185.554
21
-179.686
0
LINE
8
BLACK
6
CONTINUOUS
10
185.554
20
-179.686
11
185.84
21
-179.686
0
LINE
8
BLACK
6
CONTINUOUS
10
185.84
20
-179.686
11
185.983
21
-179.757
0
LINE
8
BLACK
6
CONTINUOUS
10
186.911
20
-180.686
11
186.769
21
-180.614
0
LINE
8
BLACK
6
CONTINUOUS
10
186.769
20
-180.614
11
186.697
21
-180.543
0
LINE
8
BLACK
6
CONTINUOUS
10
186.697
20
-180.543
11
186.626
21
-180.4
0
LINE
8
BLACK
6
CONTINUOUS
10
186.626
20
-180.4
11
186.626
21
-179.971
0
LINE
8
BLACK
6
CONTINUOUS
10
186.626
20
-179.971
11
186.697
21
-179.829
0
LINE
8
BLACK
6
CONTINUOUS
10
186.697
20
-179.829
11
186.769
21
-179.757
0
LINE
8
BLACK
6
CONTINUOUS
10
186.769
20
-179.757
11
186.911
21
-179.686
0
LINE
8
BLACK
6
CONTINUOUS
10
186.911
20
-179.686
11
187.126
21
-179.686
0
LINE
8
BLACK
6
CONTINUOUS
10
187.126
20
-179.686
11
187.269
21
-179.757
0
LINE
8
BLACK
6
CONTINUOUS
10
187.269
20
-179.757
11
187.34
21
-179.829
0
LINE
8
BLACK
6
CONTINUOUS
10
187.34
20
-179.829
11
187.411
21
-179.971
0
LINE
8
BLACK
6
CONTINUOUS
10
187.411
20
-179.971
11
187.411
21
-180.4
0
LINE
8
BLACK
6
CONTINUOUS
10
187.411
20
-180.4
11
187.34
21
-180.543
0
LINE
8
BLACK
6
CONTINUOUS
10
187.34
20
-180.543
11
187.269
21
-180.614
0
LINE
8
BLACK
6
CONTINUOUS
10
187.269
20
-180.614
11
187.126
21
-180.686
0
LINE
8
BLACK
6
CONTINUOUS
10
187.126
20
-180.686
11
186.911
21
-180.686
0
LINE
8
BLACK
6
CONTINUOUS
10
187.911
20
-179.186
11
188.269
21
-180.686
0
LINE
8
BLACK
6
CONTINUOUS
10
188.269
20
-180.686
11
188.554
21
-179.614
0
LINE
8
BLACK
6
CONTINUOUS
10
188.554
20
-179.614
11
188.84
21
-180.686
0
LINE
8
BLACK
6
CONTINUOUS
10
188.84
20
-180.686
11
189.197
21
-179.186
0
LINE
8
BLACK
6
CONTINUOUS
10
189.769
20
-180.686
11
189.769
21
-179.686
0
LINE
8
BLACK
6
CONTINUOUS
10
189.769
20
-179.186
11
189.697
21
-179.257
0
LINE
8
BLACK
6
CONTINUOUS
10
189.697
20
-179.257
11
189.769
21
-179.329
0
LINE
8
BLACK
6
CONTINUOUS
10
189.769
20
-179.329
11
189.84
21
-179.257
0
LINE
8
BLACK
6
CONTINUOUS
10
189.84
20
-179.257
11
189.769
21
-179.186
0
LINE
8
BLACK
6
CONTINUOUS
10
189.769
20
-179.186
11
189.769
21
-179.329
0
LINE
8
BLACK
6
CONTINUOUS
10
191.054
20
-180.614
11
190.911
21
-180.686
0
LINE
8
BLACK
6
CONTINUOUS
10
190.911
20
-180.686
11
190.626
21
-180.686
0
LINE
8
BLACK
6
CONTINUOUS
10
190.626
20
-180.686
11
190.483
21
-180.614
0
LINE
8
BLACK
6
CONTINUOUS
10
190.483
20
-180.614
11
190.411
21
-180.471
0
LINE
8
BLACK
6
CONTINUOUS
10
190.411
20
-180.471
11
190.411
21
-179.9
0
LINE
8
BLACK
6
CONTINUOUS
10
190.411
20
-179.9
11
190.483
21
-179.757
0
LINE
8
BLACK
6
CONTINUOUS
10
190.483
20
-179.757
11
190.626
21
-179.686
0
LINE
8
BLACK
6
CONTINUOUS
10
190.626
20
-179.686
11
190.911
21
-179.686
0
LINE
8
BLACK
6
CONTINUOUS
10
190.911
20
-179.686
11
191.054
21
-179.757
0
LINE
8
BLACK
6
CONTINUOUS
10
191.054
20
-179.757
11
191.126
21
-179.9
0
LINE
8
BLACK
6
CONTINUOUS
10
191.126
20
-179.9
11
191.126
21
-180.043
0
LINE
8
BLACK
6
CONTINUOUS
10
191.126
20
-180.043
11
190.411
21
-180.186
0
LINE
8
BLACK
6
CONTINUOUS
10
191.697
20
-180.614
11
191.84
21
-180.686
0
LINE
8
BLACK
6
CONTINUOUS
10
191.84
20
-180.686
11
192.126
21
-180.686
0
LINE
8
BLACK
6
CONTINUOUS
10
192.126
20
-180.686
11
192.269
21
-180.614
0
LINE
8
BLACK
6
CONTINUOUS
10
192.269
20
-180.614
11
192.34
21
-180.471
0
LINE
8
BLACK
6
CONTINUOUS
10
192.34
20
-180.471
11
192.34
21
-180.4
0
LINE
8
BLACK
6
CONTINUOUS
10
192.34
20
-180.4
11
192.269
21
-180.257
0
LINE
8
BLACK
6
CONTINUOUS
10
192.269
20
-180.257
11
192.126
21
-180.186
0
LINE
8
BLACK
6
CONTINUOUS
10
192.126
20
-180.186
11
191.911
21
-180.186
0
LINE
8
BLACK
6
CONTINUOUS
10
191.911
20
-180.186
11
191.769
21
-180.114
0
LINE
8
BLACK
6
CONTINUOUS
10
191.769
20
-180.114
11
191.697
21
-179.971
0
LINE
8
BLACK
6
CONTINUOUS
10
191.697
20
-179.971
11
191.697
21
-179.9
0
LINE
8
BLACK
6
CONTINUOUS
10
191.697
20
-179.9
11
191.769
21
-179.757
0
LINE
8
BLACK
6
CONTINUOUS
10
191.769
20
-179.757
11
191.911
21
-179.686
0
LINE
8
BLACK
6
CONTINUOUS
10
191.911
20
-179.686
11
192.126
21
-179.686
0
LINE
8
BLACK
6
CONTINUOUS
10
192.126
20
-179.686
11
192.269
21
-179.757
0
LINE
8
BLACK
6
CONTINUOUS
10
193.554
20
-180.614
11
193.411
21
-180.686
0
LINE
8
BLACK
6
CONTINUOUS
10
193.411
20
-180.686
11
193.126
21
-180.686
0
LINE
8
BLACK
6
CONTINUOUS
10
193.126
20
-180.686
11
192.983
21
-180.614
0
LINE
8
BLACK
6
CONTINUOUS
10
192.983
20
-180.614
11
192.911
21
-180.471
0
LINE
8
BLACK
6
CONTINUOUS
10
192.911
20
-180.471
11
192.911
21
-179.9
0
LINE
8
BLACK
6
CONTINUOUS
10
192.911
20
-179.9
11
192.983
21
-179.757
0
LINE
8
BLACK
6
CONTINUOUS
10
192.983
20
-179.757
11
193.126
21
-179.686
0
LINE
8
BLACK
6
CONTINUOUS
10
193.126
20
-179.686
11
193.411
21
-179.686
0
LINE
8
BLACK
6
CONTINUOUS
10
193.411
20
-179.686
11
193.554
21
-179.757
0
LINE
8
BLACK
6
CONTINUOUS
10
193.554
20
-179.757
11
193.626
21
-179.9
0
LINE
8
BLACK
6
CONTINUOUS
10
193.626
20
-179.9
11
193.626
21
-180.043
0
LINE
8
BLACK
6
CONTINUOUS
10
193.626
20
-180.043
11
192.911
21
-180.186
0
LINE
8
BLACK
6
CONTINUOUS
10
194.483
20
-180.686
11
194.34
21
-180.614
0
LINE
8
BLACK
6
CONTINUOUS
10
194.34
20
-180.614
11
194.269
21
-180.471
0
LINE
8
BLACK
6
CONTINUOUS
10
194.269
20
-180.471
11
194.269
21
-179.186
0
LINE
8
BLACK
6
CONTINUOUS
10
178.363
20
-177.614
11
178.577
21
-177.686
0
LINE
8
BLACK
6
CONTINUOUS
10
178.577
20
-177.686
11
178.934
21
-177.686
0
LINE
8
BLACK
6
CONTINUOUS
10
178.934
20
-177.686
11
179.077
21
-177.614
0
LINE
8
BLACK
6
CONTINUOUS
10
179.077
20
-177.614
11
179.149
21
-177.543
0
LINE
8
BLACK
6
CONTINUOUS
10
179.149
20
-177.543
11
179.22
21
-177.4
0
LINE
8
BLACK
6
CONTINUOUS
10
179.22
20
-177.4
11
179.22
21
-177.257
0
LINE
8
BLACK
6
CONTINUOUS
10
179.22
20
-177.257
11
179.149
21
-177.114
0
LINE
8
BLACK
6
CONTINUOUS
10
179.149
20
-177.114
11
179.077
21
-177.043
0
LINE
8
BLACK
6
CONTINUOUS
10
179.077
20
-177.043
11
178.934
21
-176.971
0
LINE
8
BLACK
6
CONTINUOUS
10
178.934
20
-176.971
11
178.649
21
-176.9
0
LINE
8
BLACK
6
CONTINUOUS
10
178.649
20
-176.9
11
178.506
21
-176.829
0
LINE
8
BLACK
6
CONTINUOUS
10
178.506
20
-176.829
11
178.434
21
-176.757
0
LINE
8
BLACK
6
CONTINUOUS
10
178.434
20
-176.757
11
178.363
21
-176.614
0
LINE
8
BLACK
6
CONTINUOUS
10
178.363
20
-176.614
11
178.363
21
-176.471
0
LINE
8
BLACK
6
CONTINUOUS
10
178.363
20
-176.471
11
178.434
21
-176.329
0
LINE
8
BLACK
6
CONTINUOUS
10
178.434
20
-176.329
11
178.506
21
-176.257
0
LINE
8
BLACK
6
CONTINUOUS
10
178.506
20
-176.257
11
178.649
21
-176.186
0
LINE
8
BLACK
6
CONTINUOUS
10
178.649
20
-176.186
11
179.006
21
-176.186
0
LINE
8
BLACK
6
CONTINUOUS
10
179.006
20
-176.186
11
179.22
21
-176.257
0
LINE
8
BLACK
6
CONTINUOUS
10
179.72
20
-176.186
11
180.077
21
-177.686
0
LINE
8
BLACK
6
CONTINUOUS
10
180.077
20
-177.686
11
180.363
21
-176.614
0
LINE
8
BLACK
6
CONTINUOUS
10
180.363
20
-176.614
11
180.649
21
-177.686
0
LINE
8
BLACK
6
CONTINUOUS
10
180.649
20
-177.686
11
181.006
21
-176.186
0
LINE
8
BLACK
6
CONTINUOUS
10
181.577
20
-177.114
11
182.72
21
-177.114
0
LINE
8
BLACK
6
CONTINUOUS
10
183.434
20
-177.686
11
183.434
21
-176.186
0
LINE
8
BLACK
6
CONTINUOUS
10
183.434
20
-176.186
11
183.934
21
-177.257
0
LINE
8
BLACK
6
CONTINUOUS
10
183.934
20
-177.257
11
184.434
21
-176.186
0
LINE
8
BLACK
6
CONTINUOUS
10
184.434
20
-176.186
11
184.434
21
-177.686
0
LINE
8
BLACK
6
CONTINUOUS
10
185.72
20
-177.614
11
185.577
21
-177.686
0
LINE
8
BLACK
6
CONTINUOUS
10
185.577
20
-177.686
11
185.291
21
-177.686
0
LINE
8
BLACK
6
CONTINUOUS
10
185.291
20
-177.686
11
185.149
21
-177.614
0
LINE
8
BLACK
6
CONTINUOUS
10
185.149
20
-177.614
11
185.077
21
-177.471
0
LINE
8
BLACK
6
CONTINUOUS
10
185.077
20
-177.471
11
185.077
21
-176.9
0
LINE
8
BLACK
6
CONTINUOUS
10
185.077
20
-176.9
11
185.149
21
-176.757
0
LINE
8
BLACK
6
CONTINUOUS
10
185.149
20
-176.757
11
185.291
21
-176.686
0
LINE
8
BLACK
6
CONTINUOUS
10
185.291
20
-176.686
11
185.577
21
-176.686
0
LINE
8
BLACK
6
CONTINUOUS
10
185.577
20
-176.686
11
185.72
21
-176.757
0
LINE
8
BLACK
6
CONTINUOUS
10
185.72
20
-176.757
11
185.791
21
-176.9
0
LINE
8
BLACK
6
CONTINUOUS
10
185.791
20
-176.9
11
185.791
21
-177.043
0
LINE
8
BLACK
6
CONTINUOUS
10
185.791
20
-177.043
11
185.077
21
-177.186
0
LINE
8
BLACK
6
CONTINUOUS
10
186.22
20
-176.686
11
186.791
21
-176.686
0
LINE
8
BLACK
6
CONTINUOUS
10
186.434
20
-176.186
11
186.434
21
-177.471
0
LINE
8
BLACK
6
CONTINUOUS
10
186.434
20
-177.471
11
186.506
21
-177.614
0
LINE
8
BLACK
6
CONTINUOUS
10
186.506
20
-177.614
11
186.649
21
-177.686
0
LINE
8
BLACK
6
CONTINUOUS
10
186.649
20
-177.686
11
186.791
21
-177.686
0
LINE
8
BLACK
6
CONTINUOUS
10
187.863
20
-177.614
11
187.72
21
-177.686
0
LINE
8
BLACK
6
CONTINUOUS
10
187.72
20
-177.686
11
187.434
21
-177.686
0
LINE
8
BLACK
6
CONTINUOUS
10
187.434
20
-177.686
11
187.291
21
-177.614
0
LINE
8
BLACK
6
CONTINUOUS
10
187.291
20
-177.614
11
187.22
21
-177.471
0
LINE
8
BLACK
6
CONTINUOUS
10
187.22
20
-177.471
11
187.22
21
-176.9
0
LINE
8
BLACK
6
CONTINUOUS
10
187.22
20
-176.9
11
187.291
21
-176.757
0
LINE
8
BLACK
6
CONTINUOUS
10
187.291
20
-176.757
11
187.434
21
-176.686
0
LINE
8
BLACK
6
CONTINUOUS
10
187.434
20
-176.686
11
187.72
21
-176.686
0
LINE
8
BLACK
6
CONTINUOUS
10
187.72
20
-176.686
11
187.863
21
-176.757
0
LINE
8
BLACK
6
CONTINUOUS
10
187.863
20
-176.757
11
187.934
21
-176.9
0
LINE
8
BLACK
6
CONTINUOUS
10
187.934
20
-176.9
11
187.934
21
-177.043
0
LINE
8
BLACK
6
CONTINUOUS
10
187.934
20
-177.043
11
187.22
21
-177.186
0
LINE
8
BLACK
6
CONTINUOUS
10
188.577
20
-177.686
11
188.577
21
-176.686
0
LINE
8
BLACK
6
CONTINUOUS
10
188.577
20
-176.971
11
188.649
21
-176.829
0
LINE
8
BLACK
6
CONTINUOUS
10
188.649
20
-176.829
11
188.72
21
-176.757
0
LINE
8
BLACK
6
CONTINUOUS
10
188.72
20
-176.757
11
188.863
21
-176.686
0
LINE
8
BLACK
6
CONTINUOUS
10
188.863
20
-176.686
11
189.006
21
-176.686
0
LINE
8
BLACK
6
CONTINUOUS
10
197.002
20
-191.507
11
197.002
21
-194.507
0
LINE
8
BLACK
6
CONTINUOUS
10
261.002
20
-191.507
11
261.002
21
-198.007
0
LINE
8
BLACK
6
CONTINUOUS
10
98.1196
20
-125.22
11
98.105
21
-125.185
0
LINE
8
BLACK
6
CONTINUOUS
10
98.105
20
-125.185
11
98.105
21
-55.235
0
LINE
8
BLACK
6
CONTINUOUS
10
98.105
20
-55.235
11
98.1196
21
-55.1996
0
LINE
8
BLACK
6
CONTINUOUS
10
98.1196
20
-55.1996
11
98.155
21
-55.185
0
LINE
8
BLACK
6
CONTINUOUS
10
98.155
20
-55.185
11
177.79
21
-55.185
0
LINE
8
BLACK
6
CONTINUOUS
10
177.79
20
-55.185
11
177.825
21
-55.1996
0
LINE
8
BLACK
6
CONTINUOUS
10
177.825
20
-55.1996
11
177.84
21
-55.235
0
LINE
8
BLACK
6
CONTINUOUS
10
177.84
20
-55.235
11
177.84
21
-125.185
0
LINE
8
BLACK
6
CONTINUOUS
10
177.84
20
-125.185
11
177.825
21
-125.22
0
LINE
8
BLACK
6
CONTINUOUS
10
177.825
20
-125.22
11
177.79
21
-125.235
0
LINE
8
BLACK
6
CONTINUOUS
10
177.79
20
-125.235
11
98.155
21
-125.235
0
LINE
8
BLACK
6
CONTINUOUS
10
98.155
20
-125.235
11
98.1196
21
-125.22
0
LINE
8
BLACK
6
CONTINUOUS
10
98.205
20
-55.285
11
98.205
21
-125.135
0
LINE
8
BLACK
6
CONTINUOUS
10
98.205
20
-125.135
11
177.74
21
-125.135
0
LINE
8
BLACK
6
CONTINUOUS
10
177.74
20
-125.135
11
177.74
21
-55.285
0
LINE
8
BLACK
6
CONTINUOUS
10
177.74
20
-55.285
11
98.205
21
-55.285
0
LINE
8
BLACK
6
CONTINUOUS
10
157.989
20
-79.8407
11
157.993
21
-79.8404
0
LINE
8
BLACK
6
CONTINUOUS
10
157.993
20
-79.8404
11
158.011
21
-79.8533
0
LINE
8
BLACK
6
CONTINUOUS
10
158.011
20
-79.8533
11
158.03
21
-79.8642
0
LINE
8
BLACK
6
CONTINUOUS
10
158.03
20
-79.8642
11
158.031
21
-79.8682
0
LINE
8
BLACK
6
CONTINUOUS
10
158.031
20
-79.8682
11
158.035
21
-79.8708
0
LINE
8
BLACK
6
CONTINUOUS
10
158.035
20
-79.8708
11
158.126
21
-80.0075
0
LINE
8
BLACK
6
CONTINUOUS
10
158.126
20
-80.0075
11
158.207
21
-80.0888
0
LINE
8
BLACK
6
CONTINUOUS
10
158.207
20
-80.0888
11
158.291
21
-80.131
0
LINE
8
BLACK
6
CONTINUOUS
10
158.291
20
-80.131
11
158.312
21
-80.1465
0
LINE
8
BLACK
6
CONTINUOUS
10
158.312
20
-80.1465
11
158.333
21
-80.1936
0
LINE
8
BLACK
6
CONTINUOUS
10
158.333
20
-80.1936
11
158.318
21
-80.2428
0
LINE
8
BLACK
6
CONTINUOUS
10
158.318
20
-80.2428
11
158.275
21
-80.271
0
LINE
8
BLACK
6
CONTINUOUS
10
158.275
20
-80.271
11
158.224
21
-80.2652
0
LINE
8
BLACK
6
CONTINUOUS
10
158.224
20
-80.2652
11
158.129
21
-80.2176
0
LINE
8
BLACK
6
CONTINUOUS
10
158.129
20
-80.2176
11
158.111
21
-80.2042
0
LINE
8
BLACK
6
CONTINUOUS
10
158.111
20
-80.2042
11
158.11
21
-80.2035
0
LINE
8
BLACK
6
CONTINUOUS
10
158.11
20
-80.2035
11
158.047
21
-80.1411
0
LINE
8
BLACK
6
CONTINUOUS
10
158.047
20
-80.1411
11
158.047
21
-80.8374
0
LINE
8
BLACK
6
CONTINUOUS
10
158.047
20
-80.8374
11
158.258
21
-80.8374
0
LINE
8
BLACK
6
CONTINUOUS
10
158.258
20
-80.8374
11
158.284
21
-80.8419
0
LINE
8
BLACK
6
CONTINUOUS
10
158.284
20
-80.8419
11
158.323
21
-80.8749
0
LINE
8
BLACK
6
CONTINUOUS
10
158.323
20
-80.8749
11
158.332
21
-80.9254
0
LINE
8
BLACK
6
CONTINUOUS
10
158.332
20
-80.9254
11
158.306
21
-80.9698
0
LINE
8
BLACK
6
CONTINUOUS
10
158.306
20
-80.9698
11
158.258
21
-80.9874
0
LINE
8
BLACK
6
CONTINUOUS
10
158.258
20
-80.9874
11
157.686
21
-80.9874
0
LINE
8
BLACK
6
CONTINUOUS
10
157.686
20
-80.9874
11
157.661
21
-80.9829
0
LINE
8
BLACK
6
CONTINUOUS
10
157.661
20
-80.9829
11
157.622
21
-80.9499
0
LINE
8
BLACK
6
CONTINUOUS
10
157.622
20
-80.9499
11
157.613
21
-80.8994
0
LINE
8
BLACK
6
CONTINUOUS
10
157.613
20
-80.8994
11
157.638
21
-80.8549
0
LINE
8
BLACK
6
CONTINUOUS
10
157.638
20
-80.8549
11
157.686
21
-80.8374
0
LINE
8
BLACK
6
CONTINUOUS
10
157.686
20
-80.8374
11
157.897
21
-80.8374
0
LINE
8
BLACK
6
CONTINUOUS
10
157.897
20
-80.8374
11
157.897
21
-79.9124
0
LINE
8
BLACK
6
CONTINUOUS
10
157.897
20
-79.9124
11
157.902
21
-79.8867
0
LINE
8
BLACK
6
CONTINUOUS
10
157.902
20
-79.8867
11
157.904
21
-79.8834
0
LINE
8
BLACK
6
CONTINUOUS
10
157.904
20
-79.8834
11
157.905
21
-79.8791
0
LINE
8
BLACK
6
CONTINUOUS
10
157.905
20
-79.8791
11
157.921
21
-79.8641
0
LINE
8
BLACK
6
CONTINUOUS
10
157.921
20
-79.8641
11
157.935
21
-79.8474
0
LINE
8
BLACK
6
CONTINUOUS
10
157.935
20
-79.8474
11
157.939
21
-79.8467
0
LINE
8
BLACK
6
CONTINUOUS
10
157.939
20
-79.8467
11
157.942
21
-79.8437
0
LINE
8
BLACK
6
CONTINUOUS
10
157.942
20
-79.8437
11
157.964
21
-79.8423
0
LINE
8
BLACK
6
CONTINUOUS
10
157.964
20
-79.8423
11
157.985
21
-79.8385
0
LINE
8
BLACK
6
CONTINUOUS
10
157.985
20
-79.8385
11
157.989
21
-79.8407
0
LINE
8
BLACK
6
CONTINUOUS
10
159.315
20
-79.8642
11
159.333
21
-79.9124
0
LINE
8
BLACK
6
CONTINUOUS
10
159.333
20
-79.9124
11
159.333
21
-80.7219
0
LINE
8
BLACK
6
CONTINUOUS
10
159.333
20
-80.7219
11
159.328
21
-80.7476
0
LINE
8
BLACK
6
CONTINUOUS
10
159.328
20
-80.7476
11
159.325
21
-80.751
0
LINE
8
BLACK
6
CONTINUOUS
10
159.325
20
-80.751
11
159.325
21
-80.7554
0
LINE
8
BLACK
6
CONTINUOUS
10
159.325
20
-80.7554
11
159.277
21
-80.8507
0
LINE
8
BLACK
6
CONTINUOUS
10
159.277
20
-80.8507
11
159.264
21
-80.8687
0
LINE
8
BLACK
6
CONTINUOUS
10
159.264
20
-80.8687
11
159.263
21
-80.8702
0
LINE
8
BLACK
6
CONTINUOUS
10
159.263
20
-80.8702
11
159.216
21
-80.9178
0
LINE
8
BLACK
6
CONTINUOUS
10
159.216
20
-80.9178
11
159.197
21
-80.9307
0
LINE
8
BLACK
6
CONTINUOUS
10
159.197
20
-80.9307
11
159.196
21
-80.9318
0
LINE
8
BLACK
6
CONTINUOUS
10
159.196
20
-80.9318
11
159.101
21
-80.9795
0
LINE
8
BLACK
6
CONTINUOUS
10
159.101
20
-80.9795
11
159.076
21
-80.9869
0
LINE
8
BLACK
6
CONTINUOUS
10
159.076
20
-80.9869
11
159.072
21
-80.9858
0
LINE
8
BLACK
6
CONTINUOUS
10
159.072
20
-80.9858
11
159.067
21
-80.9874
0
LINE
8
BLACK
6
CONTINUOUS
10
159.067
20
-80.9874
11
158.877
21
-80.9874
0
LINE
8
BLACK
6
CONTINUOUS
10
158.877
20
-80.9874
11
158.851
21
-80.9829
0
LINE
8
BLACK
6
CONTINUOUS
10
158.851
20
-80.9829
11
158.848
21
-80.98
0
LINE
8
BLACK
6
CONTINUOUS
10
158.848
20
-80.98
11
158.843
21
-80.9795
0
LINE
8
BLACK
6
CONTINUOUS
10
158.843
20
-80.9795
11
158.748
21
-80.9318
0
LINE
8
BLACK
6
CONTINUOUS
10
158.748
20
-80.9318
11
158.73
21
-80.9185
0
LINE
8
BLACK
6
CONTINUOUS
10
158.73
20
-80.9185
11
158.729
21
-80.9178
0
LINE
8
BLACK
6
CONTINUOUS
10
158.729
20
-80.9178
11
158.681
21
-80.8702
0
LINE
8
BLACK
6
CONTINUOUS
10
158.681
20
-80.8702
11
158.668
21
-80.8518
0
LINE
8
BLACK
6
CONTINUOUS
10
158.668
20
-80.8518
11
158.667
21
-80.8507
0
LINE
8
BLACK
6
CONTINUOUS
10
158.667
20
-80.8507
11
158.619
21
-80.7554
0
LINE
8
BLACK
6
CONTINUOUS
10
158.619
20
-80.7554
11
158.612
21
-80.7305
0
LINE
8
BLACK
6
CONTINUOUS
10
158.612
20
-80.7305
11
158.613
21
-80.7261
0
LINE
8
BLACK
6
CONTINUOUS
10
158.613
20
-80.7261
11
158.611
21
-80.7219
0
LINE
8
BLACK
6
CONTINUOUS
10
158.611
20
-80.7219
11
158.611
21
-79.9124
0
LINE
8
BLACK
6
CONTINUOUS
10
158.611
20
-79.9124
11
158.616
21
-79.8867
0
LINE
8
BLACK
6
CONTINUOUS
10
158.616
20
-79.8867
11
158.649
21
-79.8474
0
LINE
8
BLACK
6
CONTINUOUS
10
158.649
20
-79.8474
11
158.7
21
-79.8385
0
LINE
8
BLACK
6
CONTINUOUS
10
158.7
20
-79.8385
11
158.744
21
-79.8642
0
LINE
8
BLACK
6
CONTINUOUS
10
158.744
20
-79.8642
11
158.761
21
-79.9124
0
LINE
8
BLACK
6
CONTINUOUS
10
158.761
20
-79.9124
11
158.761
21
-80.7042
0
LINE
8
BLACK
6
CONTINUOUS
10
158.761
20
-80.7042
11
158.796
21
-80.7727
0
LINE
8
BLACK
6
CONTINUOUS
10
158.796
20
-80.7727
11
158.826
21
-80.8031
0
LINE
8
BLACK
6
CONTINUOUS
10
158.826
20
-80.8031
11
158.895
21
-80.8374
0
LINE
8
BLACK
6
CONTINUOUS
10
158.895
20
-80.8374
11
159.05
21
-80.8374
0
LINE
8
BLACK
6
CONTINUOUS
10
159.05
20
-80.8374
11
159.118
21
-80.8031
0
LINE
8
BLACK
6
CONTINUOUS
10
159.118
20
-80.8031
11
159.149
21
-80.7727
0
LINE
8
BLACK
6
CONTINUOUS
10
159.149
20
-80.7727
11
159.183
21
-80.7042
0
LINE
8
BLACK
6
CONTINUOUS
10
159.183
20
-80.7042
11
159.183
21
-79.9124
0
LINE
8
BLACK
6
CONTINUOUS
10
159.183
20
-79.9124
11
159.187
21
-79.8867
0
LINE
8
BLACK
6
CONTINUOUS
10
159.187
20
-79.8867
11
159.22
21
-79.8474
0
LINE
8
BLACK
6
CONTINUOUS
10
159.22
20
-79.8474
11
159.271
21
-79.8385
0
LINE
8
BLACK
6
CONTINUOUS
10
159.271
20
-79.8385
11
159.315
21
-79.8642
0
LINE
8
BLACK
6
CONTINUOUS
10
118.252
20
-69.401
11
118.284
21
-69.4405
0
LINE
8
BLACK
6
CONTINUOUS
10
118.284
20
-69.4405
11
118.452
21
-69.9094
0
LINE
8
BLACK
6
CONTINUOUS
10
118.452
20
-69.9094
11
118.619
21
-69.4405
0
LINE
8
BLACK
6
CONTINUOUS
10
118.619
20
-69.4405
11
118.632
21
-69.4179
0
LINE
8
BLACK
6
CONTINUOUS
10
118.632
20
-69.4179
11
118.677
21
-69.3919
0
LINE
8
BLACK
6
CONTINUOUS
10
118.677
20
-69.3919
11
118.727
21
-69.4005
0
LINE
8
BLACK
6
CONTINUOUS
10
118.727
20
-69.4005
11
118.76
21
-69.4396
0
LINE
8
BLACK
6
CONTINUOUS
10
118.76
20
-69.4396
11
118.761
21
-69.4909
0
LINE
8
BLACK
6
CONTINUOUS
10
118.761
20
-69.4909
11
118.523
21
-70.1576
0
LINE
8
BLACK
6
CONTINUOUS
10
118.523
20
-70.1576
11
118.522
21
-70.1593
0
LINE
8
BLACK
6
CONTINUOUS
10
118.522
20
-70.1593
11
118.522
21
-70.1602
0
LINE
8
BLACK
6
CONTINUOUS
10
118.522
20
-70.1602
11
118.426
21
-70.3983
0
LINE
8
BLACK
6
CONTINUOUS
10
118.426
20
-70.3983
11
118.413
21
-70.4205
0
LINE
8
BLACK
6
CONTINUOUS
10
118.413
20
-70.4205
11
118.411
21
-70.4215
0
LINE
8
BLACK
6
CONTINUOUS
10
118.411
20
-70.4215
11
118.41
21
-70.4235
0
LINE
8
BLACK
6
CONTINUOUS
10
118.41
20
-70.4235
11
118.362
21
-70.4711
0
LINE
8
BLACK
6
CONTINUOUS
10
118.362
20
-70.4711
11
118.344
21
-70.484
0
LINE
8
BLACK
6
CONTINUOUS
10
118.344
20
-70.484
11
118.343
21
-70.4852
0
LINE
8
BLACK
6
CONTINUOUS
10
118.343
20
-70.4852
11
118.247
21
-70.5328
0
LINE
8
BLACK
6
CONTINUOUS
10
118.247
20
-70.5328
11
118.222
21
-70.5402
0
LINE
8
BLACK
6
CONTINUOUS
10
118.222
20
-70.5402
11
118.172
21
-70.5283
0
LINE
8
BLACK
6
CONTINUOUS
10
118.172
20
-70.5283
11
118.142
21
-70.4871
0
LINE
8
BLACK
6
CONTINUOUS
10
118.142
20
-70.4871
11
118.145
21
-70.4359
0
LINE
8
BLACK
6
CONTINUOUS
10
118.145
20
-70.4359
11
118.18
21
-70.3986
0
LINE
8
BLACK
6
CONTINUOUS
10
118.18
20
-70.3986
11
118.265
21
-70.3565
0
LINE
8
BLACK
6
CONTINUOUS
10
118.265
20
-70.3565
11
118.293
21
-70.3283
0
LINE
8
BLACK
6
CONTINUOUS
10
118.293
20
-70.3283
11
118.372
21
-70.1309
0
LINE
8
BLACK
6
CONTINUOUS
10
118.372
20
-70.1309
11
118.143
21
-69.4909
0
LINE
8
BLACK
6
CONTINUOUS
10
118.143
20
-69.4909
11
118.139
21
-69.4653
0
LINE
8
BLACK
6
CONTINUOUS
10
118.139
20
-69.4653
11
118.157
21
-69.4172
0
LINE
8
BLACK
6
CONTINUOUS
10
118.157
20
-69.4172
11
118.201
21
-69.3918
0
LINE
8
BLACK
6
CONTINUOUS
10
118.201
20
-69.3918
11
118.252
21
-69.401
0
LINE
8
BLACK
6
CONTINUOUS
10
115.747
20
-69.0842
11
115.765
21
-69.1324
0
LINE
8
BLACK
6
CONTINUOUS
10
115.765
20
-69.1324
11
115.765
21
-69.3907
0
LINE
8
BLACK
6
CONTINUOUS
10
115.765
20
-69.3907
11
115.928
21
-69.3907
0
LINE
8
BLACK
6
CONTINUOUS
10
115.928
20
-69.3907
11
115.954
21
-69.3952
0
LINE
8
BLACK
6
CONTINUOUS
10
115.954
20
-69.3952
11
115.993
21
-69.4282
0
LINE
8
BLACK
6
CONTINUOUS
10
115.993
20
-69.4282
11
116.002
21
-69.4787
0
LINE
8
BLACK
6
CONTINUOUS
10
116.002
20
-69.4787
11
115.976
21
-69.5232
0
LINE
8
BLACK
6
CONTINUOUS
10
115.976
20
-69.5232
11
115.928
21
-69.5407
0
LINE
8
BLACK
6
CONTINUOUS
10
115.928
20
-69.5407
11
115.765
21
-69.5407
0
LINE
8
BLACK
6
CONTINUOUS
10
115.765
20
-69.5407
11
115.765
21
-69.9718
0
LINE
8
BLACK
6
CONTINUOUS
10
115.765
20
-69.9718
11
115.794
21
-70.0289
0
LINE
8
BLACK
6
CONTINUOUS
10
115.794
20
-70.0289
11
115.851
21
-70.0574
0
LINE
8
BLACK
6
CONTINUOUS
10
115.851
20
-70.0574
11
115.928
21
-70.0574
0
LINE
8
BLACK
6
CONTINUOUS
10
115.928
20
-70.0574
11
115.954
21
-70.0619
0
LINE
8
BLACK
6
CONTINUOUS
10
115.954
20
-70.0619
11
115.993
21
-70.0949
0
LINE
8
BLACK
6
CONTINUOUS
10
115.993
20
-70.0949
11
116.002
21
-70.1454
0
LINE
8
BLACK
6
CONTINUOUS
10
116.002
20
-70.1454
11
115.976
21
-70.1898
0
LINE
8
BLACK
6
CONTINUOUS
10
115.976
20
-70.1898
11
115.928
21
-70.2074
0
LINE
8
BLACK
6
CONTINUOUS
10
115.928
20
-70.2074
11
115.833
21
-70.2074
0
LINE
8
BLACK
6
CONTINUOUS
10
115.833
20
-70.2074
11
115.807
21
-70.2029
0
LINE
8
BLACK
6
CONTINUOUS
10
115.807
20
-70.2029
11
115.804
21
-70.2
0
LINE
8
BLACK
6
CONTINUOUS
10
115.804
20
-70.2
11
115.799
21
-70.1995
0
LINE
8
BLACK
6
CONTINUOUS
10
115.799
20
-70.1995
11
115.704
21
-70.1518
0
LINE
8
BLACK
6
CONTINUOUS
10
115.704
20
-70.1518
11
115.683
21
-70.1363
0
LINE
8
BLACK
6
CONTINUOUS
10
115.683
20
-70.1363
11
115.679
21
-70.126
0
LINE
8
BLACK
6
CONTINUOUS
10
115.679
20
-70.126
11
115.671
21
-70.1183
0
LINE
8
BLACK
6
CONTINUOUS
10
115.671
20
-70.1183
11
115.623
21
-70.0231
0
LINE
8
BLACK
6
CONTINUOUS
10
115.623
20
-70.0231
11
115.615
21
-69.9981
0
LINE
8
BLACK
6
CONTINUOUS
10
115.615
20
-69.9981
11
115.617
21
-69.9937
0
LINE
8
BLACK
6
CONTINUOUS
10
115.617
20
-69.9937
11
115.615
21
-69.9895
0
LINE
8
BLACK
6
CONTINUOUS
10
115.615
20
-69.9895
11
115.615
21
-69.5407
0
LINE
8
BLACK
6
CONTINUOUS
10
115.615
20
-69.5407
11
115.547
21
-69.5407
0
LINE
8
BLACK
6
CONTINUOUS
10
115.547
20
-69.5407
11
115.521
21
-69.5362
0
LINE
8
BLACK
6
CONTINUOUS
10
115.521
20
-69.5362
11
115.482
21
-69.5032
0
LINE
8
BLACK
6
CONTINUOUS
10
115.482
20
-69.5032
11
115.473
21
-69.4527
0
LINE
8
BLACK
6
CONTINUOUS
10
115.473
20
-69.4527
11
115.499
21
-69.4083
0
LINE
8
BLACK
6
CONTINUOUS
10
115.499
20
-69.4083
11
115.547
21
-69.3907
0
LINE
8
BLACK
6
CONTINUOUS
10
115.547
20
-69.3907
11
115.615
21
-69.3907
0
LINE
8
BLACK
6
CONTINUOUS
10
115.615
20
-69.3907
11
115.615
21
-69.1324
0
LINE
8
BLACK
6
CONTINUOUS
10
115.615
20
-69.1324
11
115.62
21
-69.1067
0
LINE
8
BLACK
6
CONTINUOUS
10
115.62
20
-69.1067
11
115.652
21
-69.0674
0
LINE
8
BLACK
6
CONTINUOUS
10
115.652
20
-69.0674
11
115.703
21
-69.0585
0
LINE
8
BLACK
6
CONTINUOUS
10
115.703
20
-69.0585
11
115.747
21
-69.0842
0
LINE
8
BLACK
6
CONTINUOUS
10
114.144
20
-69.0619
11
114.148
21
-69.0648
0
LINE
8
BLACK
6
CONTINUOUS
10
114.148
20
-69.0648
11
114.152
21
-69.0653
0
LINE
8
BLACK
6
CONTINUOUS
10
114.152
20
-69.0653
11
114.247
21
-69.1129
0
LINE
8
BLACK
6
CONTINUOUS
10
114.247
20
-69.1129
11
114.265
21
-69.1263
0
LINE
8
BLACK
6
CONTINUOUS
10
114.265
20
-69.1263
11
114.267
21
-69.127
0
LINE
8
BLACK
6
CONTINUOUS
10
114.267
20
-69.127
11
114.314
21
-69.1746
0
LINE
8
BLACK
6
CONTINUOUS
10
114.314
20
-69.1746
11
114.327
21
-69.193
0
LINE
8
BLACK
6
CONTINUOUS
10
114.327
20
-69.193
11
114.329
21
-69.1941
0
LINE
8
BLACK
6
CONTINUOUS
10
114.329
20
-69.1941
11
114.376
21
-69.2893
0
LINE
8
BLACK
6
CONTINUOUS
10
114.376
20
-69.2893
11
114.384
21
-69.3143
0
LINE
8
BLACK
6
CONTINUOUS
10
114.384
20
-69.3143
11
114.383
21
-69.3186
0
LINE
8
BLACK
6
CONTINUOUS
10
114.383
20
-69.3186
11
114.384
21
-69.3229
0
LINE
8
BLACK
6
CONTINUOUS
10
114.384
20
-69.3229
11
114.384
21
-69.4181
0
LINE
8
BLACK
6
CONTINUOUS
10
114.384
20
-69.4181
11
114.38
21
-69.4437
0
LINE
8
BLACK
6
CONTINUOUS
10
114.38
20
-69.4437
11
114.377
21
-69.4472
0
LINE
8
BLACK
6
CONTINUOUS
10
114.377
20
-69.4472
11
114.376
21
-69.4516
0
LINE
8
BLACK
6
CONTINUOUS
10
114.376
20
-69.4516
11
114.329
21
-69.5469
0
LINE
8
BLACK
6
CONTINUOUS
10
114.329
20
-69.5469
11
114.315
21
-69.5649
0
LINE
8
BLACK
6
CONTINUOUS
10
114.315
20
-69.5649
11
114.314
21
-69.5664
0
LINE
8
BLACK
6
CONTINUOUS
10
114.314
20
-69.5664
11
114.292
21
-69.5888
0
LINE
8
BLACK
6
CONTINUOUS
10
114.292
20
-69.5888
11
114.308
21
-69.5974
0
LINE
8
BLACK
6
CONTINUOUS
10
114.308
20
-69.5974
11
114.31
21
-69.6013
0
LINE
8
BLACK
6
CONTINUOUS
10
114.31
20
-69.6013
11
114.314
21
-69.6032
0
LINE
8
BLACK
6
CONTINUOUS
10
114.314
20
-69.6032
11
114.362
21
-69.6508
0
LINE
8
BLACK
6
CONTINUOUS
10
114.362
20
-69.6508
11
114.375
21
-69.6691
0
LINE
8
BLACK
6
CONTINUOUS
10
114.375
20
-69.6691
11
114.376
21
-69.6703
0
LINE
8
BLACK
6
CONTINUOUS
10
114.376
20
-69.6703
11
114.424
21
-69.7655
0
LINE
8
BLACK
6
CONTINUOUS
10
114.424
20
-69.7655
11
114.431
21
-69.7905
0
LINE
8
BLACK
6
CONTINUOUS
10
114.431
20
-69.7905
11
114.43
21
-69.7948
0
LINE
8
BLACK
6
CONTINUOUS
10
114.43
20
-69.7948
11
114.432
21
-69.799
0
LINE
8
BLACK
6
CONTINUOUS
10
114.432
20
-69.799
11
114.432
21
-69.9419
0
LINE
8
BLACK
6
CONTINUOUS
10
114.432
20
-69.9419
11
114.427
21
-69.9676
0
LINE
8
BLACK
6
CONTINUOUS
10
114.427
20
-69.9676
11
114.424
21
-69.971
0
LINE
8
BLACK
6
CONTINUOUS
10
114.424
20
-69.971
11
114.424
21
-69.9754
0
LINE
8
BLACK
6
CONTINUOUS
10
114.424
20
-69.9754
11
114.376
21
-70.0707
0
LINE
8
BLACK
6
CONTINUOUS
10
114.376
20
-70.0707
11
114.363
21
-70.0887
0
LINE
8
BLACK
6
CONTINUOUS
10
114.363
20
-70.0887
11
114.362
21
-70.0902
0
LINE
8
BLACK
6
CONTINUOUS
10
114.362
20
-70.0902
11
114.314
21
-70.1378
0
LINE
8
BLACK
6
CONTINUOUS
10
114.314
20
-70.1378
11
114.296
21
-70.1507
0
LINE
8
BLACK
6
CONTINUOUS
10
114.296
20
-70.1507
11
114.295
21
-70.1518
0
LINE
8
BLACK
6
CONTINUOUS
10
114.295
20
-70.1518
11
114.2
21
-70.1995
0
LINE
8
BLACK
6
CONTINUOUS
10
114.2
20
-70.1995
11
114.175
21
-70.2069
0
LINE
8
BLACK
6
CONTINUOUS
10
114.175
20
-70.2069
11
114.17
21
-70.2058
0
LINE
8
BLACK
6
CONTINUOUS
10
114.17
20
-70.2058
11
114.166
21
-70.2074
0
LINE
8
BLACK
6
CONTINUOUS
10
114.166
20
-70.2074
11
113.785
21
-70.2074
0
LINE
8
BLACK
6
CONTINUOUS
10
113.785
20
-70.2074
11
113.775
21
-70.2057
0
LINE
8
BLACK
6
CONTINUOUS
10
113.775
20
-70.2057
11
113.772
21
-70.2062
0
LINE
8
BLACK
6
CONTINUOUS
10
113.772
20
-70.2062
11
113.769
21
-70.2046
0
LINE
8
BLACK
6
CONTINUOUS
10
113.769
20
-70.2046
11
113.76
21
-70.2029
0
LINE
8
BLACK
6
CONTINUOUS
10
113.76
20
-70.2029
11
113.745
21
-70.1903
0
LINE
8
BLACK
6
CONTINUOUS
10
113.745
20
-70.1903
11
113.728
21
-70.1806
0
LINE
8
BLACK
6
CONTINUOUS
10
113.728
20
-70.1806
11
113.725
21
-70.1742
0
LINE
8
BLACK
6
CONTINUOUS
10
113.725
20
-70.1742
11
113.72
21
-70.1699
0
LINE
8
BLACK
6
CONTINUOUS
10
113.72
20
-70.1699
11
113.717
21
-70.1507
0
LINE
8
BLACK
6
CONTINUOUS
10
113.717
20
-70.1507
11
113.71
21
-70.1324
0
LINE
8
BLACK
6
CONTINUOUS
10
113.71
20
-70.1324
11
113.71
21
-69.1324
0
LINE
8
BLACK
6
CONTINUOUS
10
113.71
20
-69.1324
11
113.712
21
-69.1226
0
LINE
8
BLACK
6
CONTINUOUS
10
113.712
20
-69.1226
11
113.711
21
-69.1194
0
LINE
8
BLACK
6
CONTINUOUS
10
113.711
20
-69.1194
11
113.713
21
-69.1165
0
LINE
8
BLACK
6
CONTINUOUS
10
113.713
20
-69.1165
11
113.715
21
-69.1067
0
LINE
8
BLACK
6
CONTINUOUS
10
113.715
20
-69.1067
11
113.727
21
-69.0918
0
LINE
8
BLACK
6
CONTINUOUS
10
113.727
20
-69.0918
11
113.737
21
-69.0749
0
LINE
8
BLACK
6
CONTINUOUS
10
113.737
20
-69.0749
11
113.743
21
-69.0726
0
LINE
8
BLACK
6
CONTINUOUS
10
113.743
20
-69.0726
11
113.748
21
-69.0674
0
LINE
8
BLACK
6
CONTINUOUS
10
113.748
20
-69.0674
11
113.767
21
-69.064
0
LINE
8
BLACK
6
CONTINUOUS
10
113.767
20
-69.064
11
113.785
21
-69.0574
0
LINE
8
BLACK
6
CONTINUOUS
10
113.785
20
-69.0574
11
114.119
21
-69.0574
0
LINE
8
BLACK
6
CONTINUOUS
10
114.119
20
-69.0574
11
114.144
21
-69.0619
0
LINE
8
BLACK
6
CONTINUOUS
10
113.86
20
-69.6836
11
113.86
21
-70.0574
0
LINE
8
BLACK
6
CONTINUOUS
10
113.86
20
-70.0574
11
114.148
21
-70.0574
0
LINE
8
BLACK
6
CONTINUOUS
10
114.148
20
-70.0574
11
114.217
21
-70.0231
0
LINE
8
BLACK
6
CONTINUOUS
10
114.217
20
-70.0231
11
114.247
21
-69.9927
0
LINE
8
BLACK
6
CONTINUOUS
10
114.247
20
-69.9927
11
114.282
21
-69.9242
0
LINE
8
BLACK
6
CONTINUOUS
10
114.282
20
-69.9242
11
114.282
21
-69.8168
0
LINE
8
BLACK
6
CONTINUOUS
10
114.282
20
-69.8168
11
114.247
21
-69.7482
0
LINE
8
BLACK
6
CONTINUOUS
10
114.247
20
-69.7482
11
114.221
21
-69.7217
0
LINE
8
BLACK
6
CONTINUOUS
10
114.221
20
-69.7217
11
114.106
21
-69.6836
0
LINE
8
BLACK
6
CONTINUOUS
10
114.106
20
-69.6836
11
113.86
21
-69.6836
0
LINE
8
BLACK
6
CONTINUOUS
10
113.86
20
-69.2074
11
113.86
21
-69.5336
0
LINE
8
BLACK
6
CONTINUOUS
10
113.86
20
-69.5336
11
114.101
21
-69.5336
0
LINE
8
BLACK
6
CONTINUOUS
10
114.101
20
-69.5336
11
114.169
21
-69.4993
0
LINE
8
BLACK
6
CONTINUOUS
10
114.169
20
-69.4993
11
114.2
21
-69.4689
0
LINE
8
BLACK
6
CONTINUOUS
10
114.2
20
-69.4689
11
114.234
21
-69.4004
0
LINE
8
BLACK
6
CONTINUOUS
10
114.234
20
-69.4004
11
114.234
21
-69.3406
0
LINE
8
BLACK
6
CONTINUOUS
10
114.234
20
-69.3406
11
114.2
21
-69.272
0
LINE
8
BLACK
6
CONTINUOUS
10
114.2
20
-69.272
11
114.169
21
-69.2416
0
LINE
8
BLACK
6
CONTINUOUS
10
114.169
20
-69.2416
11
114.101
21
-69.2074
0
LINE
8
BLACK
6
CONTINUOUS
10
114.101
20
-69.2074
11
113.86
21
-69.2074
0
LINE
8
BLACK
6
CONTINUOUS
10
115.097
20
-69.3952
11
115.1
21
-69.3981
0
LINE
8
BLACK
6
CONTINUOUS
10
115.1
20
-69.3981
11
115.104
21
-69.3986
0
LINE
8
BLACK
6
CONTINUOUS
10
115.104
20
-69.3986
11
115.2
21
-69.4463
0
LINE
8
BLACK
6
CONTINUOUS
10
115.2
20
-69.4463
11
115.221
21
-69.4618
0
LINE
8
BLACK
6
CONTINUOUS
10
115.221
20
-69.4618
11
115.225
21
-69.4721
0
LINE
8
BLACK
6
CONTINUOUS
10
115.225
20
-69.4721
11
115.233
21
-69.4798
0
LINE
8
BLACK
6
CONTINUOUS
10
115.233
20
-69.4798
11
115.281
21
-69.575
0
LINE
8
BLACK
6
CONTINUOUS
10
115.281
20
-69.575
11
115.288
21
-69.6
0
LINE
8
BLACK
6
CONTINUOUS
10
115.288
20
-69.6
11
115.287
21
-69.6044
0
LINE
8
BLACK
6
CONTINUOUS
10
115.287
20
-69.6044
11
115.289
21
-69.6086
0
LINE
8
BLACK
6
CONTINUOUS
10
115.289
20
-69.6086
11
115.289
21
-70.1324
0
LINE
8
BLACK
6
CONTINUOUS
10
115.289
20
-70.1324
11
115.284
21
-70.158
0
LINE
8
BLACK
6
CONTINUOUS
10
115.284
20
-70.158
11
115.251
21
-70.1973
0
LINE
8
BLACK
6
CONTINUOUS
10
115.251
20
-70.1973
11
115.201
21
-70.2062
0
LINE
8
BLACK
6
CONTINUOUS
10
115.201
20
-70.2062
11
115.172
21
-70.1896
0
LINE
8
BLACK
6
CONTINUOUS
10
115.172
20
-70.1896
11
115.152
21
-70.1995
0
LINE
8
BLACK
6
CONTINUOUS
10
115.152
20
-70.1995
11
115.127
21
-70.2069
0
LINE
8
BLACK
6
CONTINUOUS
10
115.127
20
-70.2069
11
115.123
21
-70.2058
0
LINE
8
BLACK
6
CONTINUOUS
10
115.123
20
-70.2058
11
115.119
21
-70.2074
0
LINE
8
BLACK
6
CONTINUOUS
10
115.119
20
-70.2074
11
114.88
21
-70.2074
0
LINE
8
BLACK
6
CONTINUOUS
10
114.88
20
-70.2074
11
114.855
21
-70.2029
0
LINE
8
BLACK
6
CONTINUOUS
10
114.855
20
-70.2029
11
114.851
21
-70.2
0
LINE
8
BLACK
6
CONTINUOUS
10
114.851
20
-70.2
11
114.847
21
-70.1995
0
LINE
8
BLACK
6
CONTINUOUS
10
114.847
20
-70.1995
11
114.752
21
-70.1518
0
LINE
8
BLACK
6
CONTINUOUS
10
114.752
20
-70.1518
11
114.731
21
-70.1363
0
LINE
8
BLACK
6
CONTINUOUS
10
114.731
20
-70.1363
11
114.726
21
-70.126
0
LINE
8
BLACK
6
CONTINUOUS
10
114.726
20
-70.126
11
114.718
21
-70.1183
0
LINE
8
BLACK
6
CONTINUOUS
10
114.718
20
-70.1183
11
114.671
21
-70.0231
0
LINE
8
BLACK
6
CONTINUOUS
10
114.671
20
-70.0231
11
114.663
21
-69.9981
0
LINE
8
BLACK
6
CONTINUOUS
10
114.663
20
-69.9981
11
114.664
21
-69.9937
0
LINE
8
BLACK
6
CONTINUOUS
10
114.664
20
-69.9937
11
114.663
21
-69.9895
0
LINE
8
BLACK
6
CONTINUOUS
10
114.663
20
-69.9895
11
114.663
21
-69.8943
0
LINE
8
BLACK
6
CONTINUOUS
10
114.663
20
-69.8943
11
114.667
21
-69.8686
0
LINE
8
BLACK
6
CONTINUOUS
10
114.667
20
-69.8686
11
114.67
21
-69.8652
0
LINE
8
BLACK
6
CONTINUOUS
10
114.67
20
-69.8652
11
114.671
21
-69.8607
0
LINE
8
BLACK
6
CONTINUOUS
10
114.671
20
-69.8607
11
114.718
21
-69.7655
0
LINE
8
BLACK
6
CONTINUOUS
10
114.718
20
-69.7655
11
114.734
21
-69.7446
0
LINE
8
BLACK
6
CONTINUOUS
10
114.734
20
-69.7446
11
114.744
21
-69.7401
0
LINE
8
BLACK
6
CONTINUOUS
10
114.744
20
-69.7401
11
114.752
21
-69.732
0
LINE
8
BLACK
6
CONTINUOUS
10
114.752
20
-69.732
11
114.847
21
-69.6843
0
LINE
8
BLACK
6
CONTINUOUS
10
114.847
20
-69.6843
11
114.872
21
-69.6769
0
LINE
8
BLACK
6
CONTINUOUS
10
114.872
20
-69.6769
11
114.876
21
-69.678
0
LINE
8
BLACK
6
CONTINUOUS
10
114.876
20
-69.678
11
114.88
21
-69.6764
0
LINE
8
BLACK
6
CONTINUOUS
10
114.88
20
-69.6764
11
115.101
21
-69.6764
0
LINE
8
BLACK
6
CONTINUOUS
10
115.101
20
-69.6764
11
115.139
21
-69.6575
0
LINE
8
BLACK
6
CONTINUOUS
10
115.139
20
-69.6575
11
115.139
21
-69.6263
0
LINE
8
BLACK
6
CONTINUOUS
10
115.139
20
-69.6263
11
115.11
21
-69.5692
0
LINE
8
BLACK
6
CONTINUOUS
10
115.11
20
-69.5692
11
115.053
21
-69.5407
0
LINE
8
BLACK
6
CONTINUOUS
10
115.053
20
-69.5407
11
114.898
21
-69.5407
0
LINE
8
BLACK
6
CONTINUOUS
10
114.898
20
-69.5407
11
114.819
21
-69.5804
0
LINE
8
BLACK
6
CONTINUOUS
10
114.819
20
-69.5804
11
114.794
21
-69.5878
0
LINE
8
BLACK
6
CONTINUOUS
10
114.794
20
-69.5878
11
114.744
21
-69.5759
0
LINE
8
BLACK
6
CONTINUOUS
10
114.744
20
-69.5759
11
114.713
21
-69.5347
0
LINE
8
BLACK
6
CONTINUOUS
10
114.713
20
-69.5347
11
114.716
21
-69.4835
0
LINE
8
BLACK
6
CONTINUOUS
10
114.716
20
-69.4835
11
114.752
21
-69.4463
0
LINE
8
BLACK
6
CONTINUOUS
10
114.752
20
-69.4463
11
114.847
21
-69.3986
0
LINE
8
BLACK
6
CONTINUOUS
10
114.847
20
-69.3986
11
114.872
21
-69.3912
0
LINE
8
BLACK
6
CONTINUOUS
10
114.872
20
-69.3912
11
114.876
21
-69.3922
0
LINE
8
BLACK
6
CONTINUOUS
10
114.876
20
-69.3922
11
114.88
21
-69.3907
0
LINE
8
BLACK
6
CONTINUOUS
10
114.88
20
-69.3907
11
115.071
21
-69.3907
0
LINE
8
BLACK
6
CONTINUOUS
10
115.071
20
-69.3907
11
115.097
21
-69.3952
0
LINE
8
BLACK
6
CONTINUOUS
10
115.127
20
-69.8259
11
115.123
21
-69.8249
0
LINE
8
BLACK
6
CONTINUOUS
10
115.123
20
-69.8249
11
115.119
21
-69.8264
0
LINE
8
BLACK
6
CONTINUOUS
10
115.119
20
-69.8264
11
114.898
21
-69.8264
0
LINE
8
BLACK
6
CONTINUOUS
10
114.898
20
-69.8264
11
114.841
21
-69.8549
0
LINE
8
BLACK
6
CONTINUOUS
10
114.841
20
-69.8549
11
114.813
21
-69.912
0
LINE
8
BLACK
6
CONTINUOUS
10
114.813
20
-69.912
11
114.813
21
-69.9718
0
LINE
8
BLACK
6
CONTINUOUS
10
114.813
20
-69.9718
11
114.841
21
-70.0289
0
LINE
8
BLACK
6
CONTINUOUS
10
114.841
20
-70.0289
11
114.898
21
-70.0574
0
LINE
8
BLACK
6
CONTINUOUS
10
114.898
20
-70.0574
11
115.101
21
-70.0574
0
LINE
8
BLACK
6
CONTINUOUS
10
115.101
20
-70.0574
11
115.139
21
-70.0384
0
LINE
8
BLACK
6
CONTINUOUS
10
115.139
20
-70.0384
11
115.139
21
-69.8225
0
LINE
8
BLACK
6
CONTINUOUS
10
115.139
20
-69.8225
11
115.127
21
-69.8259
0
LINE
8
BLACK
6
CONTINUOUS
10
117.144
20
-69.3952
11
117.148
21
-69.3981
0
LINE
8
BLACK
6
CONTINUOUS
10
117.148
20
-69.3981
11
117.152
21
-69.3986
0
LINE
8
BLACK
6
CONTINUOUS
10
117.152
20
-69.3986
11
117.247
21
-69.4463
0
LINE
8
BLACK
6
CONTINUOUS
10
117.247
20
-69.4463
11
117.268
21
-69.4618
0
LINE
8
BLACK
6
CONTINUOUS
10
117.268
20
-69.4618
11
117.273
21
-69.4721
0
LINE
8
BLACK
6
CONTINUOUS
10
117.273
20
-69.4721
11
117.281
21
-69.4798
0
LINE
8
BLACK
6
CONTINUOUS
10
117.281
20
-69.4798
11
117.329
21
-69.575
0
LINE
8
BLACK
6
CONTINUOUS
10
117.329
20
-69.575
11
117.336
21
-69.6
0
LINE
8
BLACK
6
CONTINUOUS
10
117.336
20
-69.6
11
117.335
21
-69.6044
0
LINE
8
BLACK
6
CONTINUOUS
10
117.335
20
-69.6044
11
117.336
21
-69.6086
0
LINE
8
BLACK
6
CONTINUOUS
10
117.336
20
-69.6086
11
117.336
21
-69.7038
0
LINE
8
BLACK
6
CONTINUOUS
10
117.336
20
-69.7038
11
117.332
21
-69.7295
0
LINE
8
BLACK
6
CONTINUOUS
10
117.332
20
-69.7295
11
117.324
21
-69.739
0
LINE
8
BLACK
6
CONTINUOUS
10
117.324
20
-69.739
11
117.32
21
-69.7507
0
LINE
8
BLACK
6
CONTINUOUS
10
117.32
20
-69.7507
11
117.308
21
-69.758
0
LINE
8
BLACK
6
CONTINUOUS
10
117.308
20
-69.758
11
117.299
21
-69.7688
0
LINE
8
BLACK
6
CONTINUOUS
10
117.299
20
-69.7688
11
117.287
21
-69.7709
0
LINE
8
BLACK
6
CONTINUOUS
10
117.287
20
-69.7709
11
117.276
21
-69.7774
0
LINE
8
BLACK
6
CONTINUOUS
10
117.276
20
-69.7774
11
116.86
21
-69.8605
0
LINE
8
BLACK
6
CONTINUOUS
10
116.86
20
-69.8605
11
116.86
21
-69.9718
0
LINE
8
BLACK
6
CONTINUOUS
10
116.86
20
-69.9718
11
116.889
21
-70.0289
0
LINE
8
BLACK
6
CONTINUOUS
10
116.889
20
-70.0289
11
116.946
21
-70.0574
0
LINE
8
BLACK
6
CONTINUOUS
10
116.946
20
-70.0574
11
117.101
21
-70.0574
0
LINE
8
BLACK
6
CONTINUOUS
10
117.101
20
-70.0574
11
117.18
21
-70.0177
0
LINE
8
BLACK
6
CONTINUOUS
10
117.18
20
-70.0177
11
117.205
21
-70.0103
0
LINE
8
BLACK
6
CONTINUOUS
10
117.205
20
-70.0103
11
117.255
21
-70.0222
0
LINE
8
BLACK
6
CONTINUOUS
10
117.255
20
-70.0222
11
117.286
21
-70.0634
0
LINE
8
BLACK
6
CONTINUOUS
10
117.286
20
-70.0634
11
117.283
21
-70.1146
0
LINE
8
BLACK
6
CONTINUOUS
10
117.283
20
-70.1146
11
117.247
21
-70.1518
0
LINE
8
BLACK
6
CONTINUOUS
10
117.247
20
-70.1518
11
117.152
21
-70.1995
0
LINE
8
BLACK
6
CONTINUOUS
10
117.152
20
-70.1995
11
117.127
21
-70.2069
0
LINE
8
BLACK
6
CONTINUOUS
10
117.127
20
-70.2069
11
117.123
21
-70.2058
0
LINE
8
BLACK
6
CONTINUOUS
10
117.123
20
-70.2058
11
117.119
21
-70.2074
0
LINE
8
BLACK
6
CONTINUOUS
10
117.119
20
-70.2074
11
116.928
21
-70.2074
0
LINE
8
BLACK
6
CONTINUOUS
10
116.928
20
-70.2074
11
116.902
21
-70.2029
0
LINE
8
BLACK
6
CONTINUOUS
10
116.902
20
-70.2029
11
116.899
21
-70.2
0
LINE
8
BLACK
6
CONTINUOUS
10
116.899
20
-70.2
11
116.895
21
-70.1995
0
LINE
8
BLACK
6
CONTINUOUS
10
116.895
20
-70.1995
11
116.799
21
-70.1518
0
LINE
8
BLACK
6
CONTINUOUS
10
116.799
20
-70.1518
11
116.778
21
-70.1363
0
LINE
8
BLACK
6
CONTINUOUS
10
116.778
20
-70.1363
11
116.774
21
-70.126
0
LINE
8
BLACK
6
CONTINUOUS
10
116.774
20
-70.126
11
116.766
21
-70.1183
0
LINE
8
BLACK
6
CONTINUOUS
10
116.766
20
-70.1183
11
116.718
21
-70.0231
0
LINE
8
BLACK
6
CONTINUOUS
10
116.718
20
-70.0231
11
116.711
21
-69.9981
0
LINE
8
BLACK
6
CONTINUOUS
10
116.711
20
-69.9981
11
116.712
21
-69.9937
0
LINE
8
BLACK
6
CONTINUOUS
10
116.712
20
-69.9937
11
116.71
21
-69.9895
0
LINE
8
BLACK
6
CONTINUOUS
10
116.71
20
-69.9895
11
116.71
21
-69.6086
0
LINE
8
BLACK
6
CONTINUOUS
10
116.71
20
-69.6086
11
116.715
21
-69.5829
0
LINE
8
BLACK
6
CONTINUOUS
10
116.715
20
-69.5829
11
116.718
21
-69.5795
0
LINE
8
BLACK
6
CONTINUOUS
10
116.718
20
-69.5795
11
116.718
21
-69.575
0
LINE
8
BLACK
6
CONTINUOUS
10
116.718
20
-69.575
11
116.766
21
-69.4798
0
LINE
8
BLACK
6
CONTINUOUS
10
116.766
20
-69.4798
11
116.781
21
-69.4589
0
LINE
8
BLACK
6
CONTINUOUS
10
116.781
20
-69.4589
11
116.792
21
-69.4544
0
LINE
8
BLACK
6
CONTINUOUS
10
116.792
20
-69.4544
11
116.799
21
-69.4463
0
LINE
8
BLACK
6
CONTINUOUS
10
116.799
20
-69.4463
11
116.895
21
-69.3986
0
LINE
8
BLACK
6
CONTINUOUS
10
116.895
20
-69.3986
11
116.92
21
-69.3912
0
LINE
8
BLACK
6
CONTINUOUS
10
116.92
20
-69.3912
11
116.924
21
-69.3922
0
LINE
8
BLACK
6
CONTINUOUS
10
116.924
20
-69.3922
11
116.928
21
-69.3907
0
LINE
8
BLACK
6
CONTINUOUS
10
116.928
20
-69.3907
11
117.119
21
-69.3907
0
LINE
8
BLACK
6
CONTINUOUS
10
117.119
20
-69.3907
11
117.144
21
-69.3952
0
LINE
8
BLACK
6
CONTINUOUS
10
116.946
20
-69.5407
11
116.889
21
-69.5692
0
LINE
8
BLACK
6
CONTINUOUS
10
116.889
20
-69.5692
11
116.86
21
-69.6263
0
LINE
8
BLACK
6
CONTINUOUS
10
116.86
20
-69.6263
11
116.86
21
-69.7076
0
LINE
8
BLACK
6
CONTINUOUS
10
116.86
20
-69.7076
11
117.186
21
-69.6423
0
LINE
8
BLACK
6
CONTINUOUS
10
117.186
20
-69.6423
11
117.186
21
-69.6263
0
LINE
8
BLACK
6
CONTINUOUS
10
117.186
20
-69.6263
11
117.158
21
-69.5692
0
LINE
8
BLACK
6
CONTINUOUS
10
117.158
20
-69.5692
11
117.101
21
-69.5407
0
LINE
8
BLACK
6
CONTINUOUS
10
117.101
20
-69.5407
11
116.946
21
-69.5407
0
LINE
8
BLACK
6
CONTINUOUS
10
116.319
20
-69.0842
11
116.336
21
-69.1324
0
LINE
8
BLACK
6
CONTINUOUS
10
116.336
20
-69.1324
11
116.336
21
-69.3907
0
LINE
8
BLACK
6
CONTINUOUS
10
116.336
20
-69.3907
11
116.5
21
-69.3907
0
LINE
8
BLACK
6
CONTINUOUS
10
116.5
20
-69.3907
11
116.525
21
-69.3952
0
LINE
8
BLACK
6
CONTINUOUS
10
116.525
20
-69.3952
11
116.564
21
-69.4282
0
LINE
8
BLACK
6
CONTINUOUS
10
116.564
20
-69.4282
11
116.573
21
-69.4787
0
LINE
8
BLACK
6
CONTINUOUS
10
116.573
20
-69.4787
11
116.548
21
-69.5232
0
LINE
8
BLACK
6
CONTINUOUS
10
116.548
20
-69.5232
11
116.5
21
-69.5407
0
LINE
8
BLACK
6
CONTINUOUS
10
116.5
20
-69.5407
11
116.336
21
-69.5407
0
LINE
8
BLACK
6
CONTINUOUS
10
116.336
20
-69.5407
11
116.336
21
-69.9718
0
LINE
8
BLACK
6
CONTINUOUS
10
116.336
20
-69.9718
11
116.365
21
-70.0289
0
LINE
8
BLACK
6
CONTINUOUS
10
116.365
20
-70.0289
11
116.422
21
-70.0574
0
LINE
8
BLACK
6
CONTINUOUS
10
116.422
20
-70.0574
11
116.5
21
-70.0574
0
LINE
8
BLACK
6
CONTINUOUS
10
116.5
20
-70.0574
11
116.525
21
-70.0619
0
LINE
8
BLACK
6
CONTINUOUS
10
116.525
20
-70.0619
11
116.564
21
-70.0949
0
LINE
8
BLACK
6
CONTINUOUS
10
116.564
20
-70.0949
11
116.573
21
-70.1454
0
LINE
8
BLACK
6
CONTINUOUS
10
116.573
20
-70.1454
11
116.548
21
-70.1898
0
LINE
8
BLACK
6
CONTINUOUS
10
116.548
20
-70.1898
11
116.5
21
-70.2074
0
LINE
8
BLACK
6
CONTINUOUS
10
116.5
20
-70.2074
11
116.404
21
-70.2074
0
LINE
8
BLACK
6
CONTINUOUS
10
116.404
20
-70.2074
11
116.379
21
-70.2029
0
LINE
8
BLACK
6
CONTINUOUS
10
116.379
20
-70.2029
11
116.375
21
-70.2
0
LINE
8
BLACK
6
CONTINUOUS
10
116.375
20
-70.2
11
116.371
21
-70.1995
0
LINE
8
BLACK
6
CONTINUOUS
10
116.371
20
-70.1995
11
116.276
21
-70.1518
0
LINE
8
BLACK
6
CONTINUOUS
10
116.276
20
-70.1518
11
116.255
21
-70.1363
0
LINE
8
BLACK
6
CONTINUOUS
10
116.255
20
-70.1363
11
116.25
21
-70.126
0
LINE
8
BLACK
6
CONTINUOUS
10
116.25
20
-70.126
11
116.242
21
-70.1183
0
LINE
8
BLACK
6
CONTINUOUS
10
116.242
20
-70.1183
11
116.194
21
-70.0231
0
LINE
8
BLACK
6
CONTINUOUS
10
116.194
20
-70.0231
11
116.187
21
-69.9981
0
LINE
8
BLACK
6
CONTINUOUS
10
116.187
20
-69.9981
11
116.188
21
-69.9937
0
LINE
8
BLACK
6
CONTINUOUS
10
116.188
20
-69.9937
11
116.186
21
-69.9895
0
LINE
8
BLACK
6
CONTINUOUS
10
116.186
20
-69.9895
11
116.186
21
-69.5407
0
LINE
8
BLACK
6
CONTINUOUS
10
116.186
20
-69.5407
11
116.119
21
-69.5407
0
LINE
8
BLACK
6
CONTINUOUS
10
116.119
20
-69.5407
11
116.093
21
-69.5362
0
LINE
8
BLACK
6
CONTINUOUS
10
116.093
20
-69.5362
11
116.054
21
-69.5032
0
LINE
8
BLACK
6
CONTINUOUS
10
116.054
20
-69.5032
11
116.045
21
-69.4527
0
LINE
8
BLACK
6
CONTINUOUS
10
116.045
20
-69.4527
11
116.07
21
-69.4083
0
LINE
8
BLACK
6
CONTINUOUS
10
116.07
20
-69.4083
11
116.119
21
-69.3907
0
LINE
8
BLACK
6
CONTINUOUS
10
116.119
20
-69.3907
11
116.186
21
-69.3907
0
LINE
8
BLACK
6
CONTINUOUS
10
116.186
20
-69.3907
11
116.186
21
-69.1324
0
LINE
8
BLACK
6
CONTINUOUS
10
116.186
20
-69.1324
11
116.191
21
-69.1067
0
LINE
8
BLACK
6
CONTINUOUS
10
116.191
20
-69.1067
11
116.224
21
-69.0674
0
LINE
8
BLACK
6
CONTINUOUS
10
116.224
20
-69.0674
11
116.274
21
-69.0585
0
LINE
8
BLACK
6
CONTINUOUS
10
116.274
20
-69.0585
11
116.319
21
-69.0842
0
LINE
8
BLACK
6
CONTINUOUS
10
118.001
20
-69.3952
11
118.041
21
-69.4282
0
LINE
8
BLACK
6
CONTINUOUS
10
118.041
20
-69.4282
11
118.05
21
-69.4787
0
LINE
8
BLACK
6
CONTINUOUS
10
118.05
20
-69.4787
11
118.024
21
-69.5232
0
LINE
8
BLACK
6
CONTINUOUS
10
118.024
20
-69.5232
11
117.976
21
-69.5407
0
LINE
8
BLACK
6
CONTINUOUS
10
117.976
20
-69.5407
11
117.898
21
-69.5407
0
LINE
8
BLACK
6
CONTINUOUS
10
117.898
20
-69.5407
11
117.83
21
-69.575
0
LINE
8
BLACK
6
CONTINUOUS
10
117.83
20
-69.575
11
117.799
21
-69.6054
0
LINE
8
BLACK
6
CONTINUOUS
10
117.799
20
-69.6054
11
117.765
21
-69.6739
0
LINE
8
BLACK
6
CONTINUOUS
10
117.765
20
-69.6739
11
117.765
21
-70.1324
0
LINE
8
BLACK
6
CONTINUOUS
10
117.765
20
-70.1324
11
117.76
21
-70.158
0
LINE
8
BLACK
6
CONTINUOUS
10
117.76
20
-70.158
11
117.727
21
-70.1973
0
LINE
8
BLACK
6
CONTINUOUS
10
117.727
20
-70.1973
11
117.677
21
-70.2062
0
LINE
8
BLACK
6
CONTINUOUS
10
117.677
20
-70.2062
11
117.633
21
-70.1806
0
LINE
8
BLACK
6
CONTINUOUS
10
117.633
20
-70.1806
11
117.615
21
-70.1324
0
LINE
8
BLACK
6
CONTINUOUS
10
117.615
20
-70.1324
11
117.615
21
-69.4657
0
LINE
8
BLACK
6
CONTINUOUS
10
117.615
20
-69.4657
11
117.62
21
-69.4401
0
LINE
8
BLACK
6
CONTINUOUS
10
117.62
20
-69.4401
11
117.652
21
-69.4008
0
LINE
8
BLACK
6
CONTINUOUS
10
117.652
20
-69.4008
11
117.703
21
-69.3919
0
LINE
8
BLACK
6
CONTINUOUS
10
117.703
20
-69.3919
11
117.747
21
-69.4175
0
LINE
8
BLACK
6
CONTINUOUS
10
117.747
20
-69.4175
11
117.757
21
-69.4436
0
LINE
8
BLACK
6
CONTINUOUS
10
117.757
20
-69.4436
11
117.847
21
-69.3986
0
LINE
8
BLACK
6
CONTINUOUS
10
117.847
20
-69.3986
11
117.872
21
-69.3912
0
LINE
8
BLACK
6
CONTINUOUS
10
117.872
20
-69.3912
11
117.876
21
-69.3922
0
LINE
8
BLACK
6
CONTINUOUS
10
117.876
20
-69.3922
11
117.88
21
-69.3907
0
LINE
8
BLACK
6
CONTINUOUS
10
117.88
20
-69.3907
11
117.976
21
-69.3907
0
LINE
8
BLACK
6
CONTINUOUS
10
117.976
20
-69.3907
11
118.001
21
-69.3952
  0
ENDSEC
  0
EOF
