M48
; DRILL file {KiCad (6.0.4)} date Mon Nov  7 20:33:36 2022
; FORMAT={-:-/ absolute / metric / decimal}
; #@! TF.CreationDate,2022-11-07T20:33:36+01:00
; #@! TF.GenerationSoftware,Kicad,Pcbnew,(6.0.4)
; #@! TF.FileFunction,MixedPlating,1,2
FMAT,2
METRIC
; #@! TA.AperFunction,Plated,PTH,ViaDrill
T1C0.400
; #@! TA.AperFunction,Plated,PTH,ComponentDrill
T2C0.500
; #@! TA.AperFunction,Plated,PTH,ComponentDrill
T3C0.650
; #@! TA.AperFunction,Plated,PTH,ComponentDrill
T4C0.800
; #@! TA.AperFunction,Plated,PTH,ComponentDrill
T5C0.900
; #@! TA.AperFunction,Plated,PTH,ComponentDrill
T6C1.000
; #@! TA.AperFunction,Plated,PTH,ComponentDrill
T7C1.100
; #@! TA.AperFunction,Plated,PTH,ComponentDrill
T8C1.200
; #@! TA.AperFunction,Plated,PTH,ComponentDrill
T9C1.500
; #@! TA.AperFunction,Plated,PTH,ComponentDrill
T10C2.400
; #@! TA.AperFunction,Plated,PTH,ComponentDrill
T11C3.200
; #@! TA.AperFunction,NonPlated,NPTH,ComponentDrill
T12C1.100
; #@! TA.AperFunction,NonPlated,NPTH,ComponentDrill
T13C2.600
%
G90
G05
T1
X1.16Y2.65
X1.53Y34.41
X2.6Y68.89
X20.89Y34.77
X36.455Y58.375
X39.498Y38.0
X39.54Y29.6
X40.71Y56.63
X43.29Y36.22
X43.61Y30.72
X43.91Y68.63
X45.1Y1.16
X45.7Y45.37
X45.98Y57.71
X46.61Y13.136
X49.658Y55.046
X49.658Y48.442
X52.198Y37.774
X52.9Y23.48
X57.024Y46.156
X57.41Y22.51
X57.67Y34.24
X59.818Y45.902
X62.14Y28.19
X65.47Y28.21
X69.43Y53.275
X72.06Y48.53
X78.23Y34.825
X78.56Y2.52
X78.65Y67.33
T2
X36.29Y21.97
X36.993Y23.667
X36.993Y20.273
X38.69Y24.37
X38.69Y19.57
X40.387Y23.667
X40.387Y20.273
X41.09Y21.97
T3
X54.795Y49.19
X56.065Y49.19
X57.335Y49.19
T4
X28.912Y65.225
X36.532Y65.225
X36.705Y52.575
X36.705Y50.035
X44.325Y52.575
X44.325Y50.035
X44.48Y20.72
X45.52Y40.55
X46.835Y27.535
X46.865Y34.625
X49.375Y27.535
X49.405Y34.625
X51.915Y27.535
X51.945Y34.625
X53.14Y40.55
X54.64Y20.72
X60.14Y42.03
X60.14Y39.49
X60.14Y36.95
X60.14Y34.41
X60.14Y31.87
X60.14Y29.33
X60.14Y26.79
X60.14Y24.25
X60.14Y21.71
X63.12Y49.418
X63.12Y46.918
X67.76Y42.03
X67.76Y39.49
X67.76Y36.95
X67.76Y34.41
X67.76Y31.87
X67.76Y29.33
X67.76Y26.79
X67.76Y24.25
X67.76Y21.71
T5
X42.18Y63.325
X46.18Y63.325
X50.18Y63.325
X73.56Y35.095
X73.56Y30.52
X73.56Y25.97
X73.585Y44.22
X73.585Y21.42
X73.61Y39.645
X73.61Y16.82
X73.635Y12.22
X73.66Y7.62
X73.71Y2.97
X76.1Y35.095
X76.1Y30.52
X76.1Y25.97
X76.125Y44.22
X76.125Y21.42
X76.15Y39.645
X76.15Y16.82
X76.175Y12.22
X76.2Y7.62
X76.25Y2.97
T7
X61.63Y61.55
T8
X40.18Y67.575
X40.18Y61.575
X52.18Y67.575
X52.18Y61.575
T9
X56.605Y66.575
X56.605Y56.525
X66.655Y66.575
X66.655Y56.525
T10
X12.38Y55.85
X25.08Y55.85
T11
X38.69Y21.97
T12
X71.255Y59.75
X76.255Y59.75
T13
X7.63Y44.95
X7.63Y16.95
X29.83Y31.7
T4
G00X71.455Y56.0
M15
G01X71.455Y55.5
M16
G05
G00X76.055Y56.0
M15
G01X76.055Y55.5
M16
G05
T6
G00X71.005Y63.4
M15
G01X71.005Y63.1
M16
G05
G00X76.505Y63.4
M15
G01X76.505Y63.1
M16
G05
T0
M30
