  0
SECTION
  2
HEADER
  9
$ANGBASE
  50
0.0
  9
$ANGDIR
  70
1
  9
$MEASUREMENT
  70
1
  0
ENDSEC
  0
SECTION
  2
TABLES
  0
TABLE
  2
LTYPE
  70
4
  0
LTYPE
  5
40F
  2
CONTINUOUS
  70
0
  3
Solid line
  72
65
  73
0
  40
0.0
  0
LTYPE
  5
410
  2
DASHDOT
 70
0
  3
Dash Dot ____ _ ____ _
 72
65
 73
4
 40
2.0
 49
1.25
 49
-0.25
 49
0.25
 49
-0.25
  0
LTYPE
  5
411
  2
DASHED
 70
0
  3
Dashed __ __ __ __ __
 72
65
 73
2
 40
0.75
 49
0.5
 49
-0.25
  0
LTYPE
  5
43B
  2
DOTTED
 70
0
  3
Dotted .  .  .  .
 72
65
 73
2
 40
0.2
 49
0.0
 49
-0.2
  0
ENDTAB
  0
TABLE
  2
STYLE
  70
4
  0
STYLE
  2
KICAD
  70
0
  40
0
  41
1
  42
1
  50
0
  71
0
  3
isocp.shx
  0
STYLE
  2
KICADB
  70
0
  40
0
  41
1
  42
1
  50
0
  71
0
  3
isocp.shx
  0
STYLE
  2
KICADI
  70
0
  40
0
  41
1
  42
1
  50
15
  71
0
  3
isocp.shx
  0
STYLE
  2
KICADBI
  70
0
  40
0
  41
1
  42
1
  50
15
  71
0
  3
isocp.shx
  0
ENDTAB
  0
TABLE
  2
LAYER
  70
1
  0
LAYER
  2
BLACK
  70
0
  62
7
  6
CONTINUOUS
  0
ENDTAB
  0
ENDSEC
  0
SECTION
  2
ENTITIES
0
LINE
8
BLACK
6
CONTINUOUS
10
74.61
20
2.07
11
72.81
21
2.07
0
LINE
8
BLACK
6
CONTINUOUS
10
72.81
20
2.07
11
72.81
21
3.87
0
LINE
8
BLACK
6
CONTINUOUS
10
72.81
20
3.87
11
74.61
21
3.87
0
LINE
8
BLACK
6
CONTINUOUS
10
74.61
20
3.87
11
74.61
21
2.07
0
LINE
8
BLACK
6
CONTINUOUS
10
76.5281
20
3.82595
11
76.7
21
3.74942
0
LINE
8
BLACK
6
CONTINUOUS
10
76.7
20
3.74942
11
76.8522
21
3.63883
0
LINE
8
BLACK
6
CONTINUOUS
10
76.8522
20
3.63883
11
76.9781
21
3.49901
0
LINE
8
BLACK
6
CONTINUOUS
10
76.9781
20
3.49901
11
77.0722
21
3.33606
0
LINE
8
BLACK
6
CONTINUOUS
10
77.0722
20
3.33606
11
77.1303
21
3.15712
0
LINE
8
BLACK
6
CONTINUOUS
10
77.1303
20
3.15712
11
77.15
21
2.97
0
LINE
8
BLACK
6
CONTINUOUS
10
77.15
20
2.97
11
77.1303
21
2.78288
0
LINE
8
BLACK
6
CONTINUOUS
10
77.1303
20
2.78288
11
77.0722
21
2.60394
0
LINE
8
BLACK
6
CONTINUOUS
10
77.0722
20
2.60394
11
76.9781
21
2.44099
0
LINE
8
BLACK
6
CONTINUOUS
10
76.9781
20
2.44099
11
76.8522
21
2.30117
0
LINE
8
BLACK
6
CONTINUOUS
10
76.8522
20
2.30117
11
76.7
21
2.19058
0
LINE
8
BLACK
6
CONTINUOUS
10
76.7
20
2.19058
11
76.5281
21
2.11405
0
LINE
8
BLACK
6
CONTINUOUS
10
76.5281
20
2.11405
11
76.3441
21
2.07493
0
LINE
8
BLACK
6
CONTINUOUS
10
76.3441
20
2.07493
11
76.1559
21
2.07493
0
LINE
8
BLACK
6
CONTINUOUS
10
76.1559
20
2.07493
11
75.9719
21
2.11405
0
LINE
8
BLACK
6
CONTINUOUS
10
75.9719
20
2.11405
11
75.8
21
2.19058
0
LINE
8
BLACK
6
CONTINUOUS
10
75.8
20
2.19058
11
75.6478
21
2.30117
0
LINE
8
BLACK
6
CONTINUOUS
10
75.6478
20
2.30117
11
75.5219
21
2.44099
0
LINE
8
BLACK
6
CONTINUOUS
10
75.5219
20
2.44099
11
75.4278
21
2.60394
0
LINE
8
BLACK
6
CONTINUOUS
10
75.4278
20
2.60394
11
75.3697
21
2.78288
0
LINE
8
BLACK
6
CONTINUOUS
10
75.3697
20
2.78288
11
75.35
21
2.97
0
LINE
8
BLACK
6
CONTINUOUS
10
75.35
20
2.97
11
75.3697
21
3.15712
0
LINE
8
BLACK
6
CONTINUOUS
10
75.3697
20
3.15712
11
75.4278
21
3.33606
0
LINE
8
BLACK
6
CONTINUOUS
10
75.4278
20
3.33606
11
75.5219
21
3.49901
0
LINE
8
BLACK
6
CONTINUOUS
10
75.5219
20
3.49901
11
75.6478
21
3.63883
0
LINE
8
BLACK
6
CONTINUOUS
10
75.6478
20
3.63883
11
75.8
21
3.74942
0
LINE
8
BLACK
6
CONTINUOUS
10
75.8
20
3.74942
11
75.9719
21
3.82595
0
LINE
8
BLACK
6
CONTINUOUS
10
75.9719
20
3.82595
11
76.1559
21
3.86507
0
LINE
8
BLACK
6
CONTINUOUS
10
76.1559
20
3.86507
11
76.3441
21
3.86507
0
LINE
8
BLACK
6
CONTINUOUS
10
76.3441
20
3.86507
11
76.5281
21
3.82595
0
LINE
8
BLACK
6
CONTINUOUS
10
74.56
20
6.72
11
72.76
21
6.72
0
LINE
8
BLACK
6
CONTINUOUS
10
72.76
20
6.72
11
72.76
21
8.52
0
LINE
8
BLACK
6
CONTINUOUS
10
72.76
20
8.52
11
74.56
21
8.52
0
LINE
8
BLACK
6
CONTINUOUS
10
74.56
20
8.52
11
74.56
21
6.72
0
LINE
8
BLACK
6
CONTINUOUS
10
76.4781
20
8.47595
11
76.65
21
8.39942
0
LINE
8
BLACK
6
CONTINUOUS
10
76.65
20
8.39942
11
76.8022
21
8.28883
0
LINE
8
BLACK
6
CONTINUOUS
10
76.8022
20
8.28883
11
76.9281
21
8.14901
0
LINE
8
BLACK
6
CONTINUOUS
10
76.9281
20
8.14901
11
77.0222
21
7.98606
0
LINE
8
BLACK
6
CONTINUOUS
10
77.0222
20
7.98606
11
77.0803
21
7.80712
0
LINE
8
BLACK
6
CONTINUOUS
10
77.0803
20
7.80712
11
77.1
21
7.62
0
LINE
8
BLACK
6
CONTINUOUS
10
77.1
20
7.62
11
77.0803
21
7.43288
0
LINE
8
BLACK
6
CONTINUOUS
10
77.0803
20
7.43288
11
77.0222
21
7.25394
0
LINE
8
BLACK
6
CONTINUOUS
10
77.0222
20
7.25394
11
76.9281
21
7.09099
0
LINE
8
BLACK
6
CONTINUOUS
10
76.9281
20
7.09099
11
76.8022
21
6.95117
0
LINE
8
BLACK
6
CONTINUOUS
10
76.8022
20
6.95117
11
76.65
21
6.84058
0
LINE
8
BLACK
6
CONTINUOUS
10
76.65
20
6.84058
11
76.4781
21
6.76405
0
LINE
8
BLACK
6
CONTINUOUS
10
76.4781
20
6.76405
11
76.2941
21
6.72493
0
LINE
8
BLACK
6
CONTINUOUS
10
76.2941
20
6.72493
11
76.1059
21
6.72493
0
LINE
8
BLACK
6
CONTINUOUS
10
76.1059
20
6.72493
11
75.9219
21
6.76405
0
LINE
8
BLACK
6
CONTINUOUS
10
75.9219
20
6.76405
11
75.75
21
6.84058
0
LINE
8
BLACK
6
CONTINUOUS
10
75.75
20
6.84058
11
75.5978
21
6.95117
0
LINE
8
BLACK
6
CONTINUOUS
10
75.5978
20
6.95117
11
75.4719
21
7.09099
0
LINE
8
BLACK
6
CONTINUOUS
10
75.4719
20
7.09099
11
75.3778
21
7.25394
0
LINE
8
BLACK
6
CONTINUOUS
10
75.3778
20
7.25394
11
75.3197
21
7.43288
0
LINE
8
BLACK
6
CONTINUOUS
10
75.3197
20
7.43288
11
75.3
21
7.62
0
LINE
8
BLACK
6
CONTINUOUS
10
75.3
20
7.62
11
75.3197
21
7.80712
0
LINE
8
BLACK
6
CONTINUOUS
10
75.3197
20
7.80712
11
75.3778
21
7.98606
0
LINE
8
BLACK
6
CONTINUOUS
10
75.3778
20
7.98606
11
75.4719
21
8.14901
0
LINE
8
BLACK
6
CONTINUOUS
10
75.4719
20
8.14901
11
75.5978
21
8.28883
0
LINE
8
BLACK
6
CONTINUOUS
10
75.5978
20
8.28883
11
75.75
21
8.39942
0
LINE
8
BLACK
6
CONTINUOUS
10
75.75
20
8.39942
11
75.9219
21
8.47595
0
LINE
8
BLACK
6
CONTINUOUS
10
75.9219
20
8.47595
11
76.1059
21
8.51507
0
LINE
8
BLACK
6
CONTINUOUS
10
76.1059
20
8.51507
11
76.2941
21
8.51507
0
LINE
8
BLACK
6
CONTINUOUS
10
76.2941
20
8.51507
11
76.4781
21
8.47595
0
LINE
8
BLACK
6
CONTINUOUS
10
74.535
20
11.32
11
72.735
21
11.32
0
LINE
8
BLACK
6
CONTINUOUS
10
72.735
20
11.32
11
72.735
21
13.12
0
LINE
8
BLACK
6
CONTINUOUS
10
72.735
20
13.12
11
74.535
21
13.12
0
LINE
8
BLACK
6
CONTINUOUS
10
74.535
20
13.12
11
74.535
21
11.32
0
LINE
8
BLACK
6
CONTINUOUS
10
76.4531
20
13.076
11
76.625
21
12.9994
0
LINE
8
BLACK
6
CONTINUOUS
10
76.625
20
12.9994
11
76.7772
21
12.8888
0
LINE
8
BLACK
6
CONTINUOUS
10
76.7772
20
12.8888
11
76.9031
21
12.749
0
LINE
8
BLACK
6
CONTINUOUS
10
76.9031
20
12.749
11
76.9972
21
12.5861
0
LINE
8
BLACK
6
CONTINUOUS
10
76.9972
20
12.5861
11
77.0553
21
12.4071
0
LINE
8
BLACK
6
CONTINUOUS
10
77.0553
20
12.4071
11
77.075
21
12.22
0
LINE
8
BLACK
6
CONTINUOUS
10
77.075
20
12.22
11
77.0553
21
12.0329
0
LINE
8
BLACK
6
CONTINUOUS
10
77.0553
20
12.0329
11
76.9972
21
11.8539
0
LINE
8
BLACK
6
CONTINUOUS
10
76.9972
20
11.8539
11
76.9031
21
11.691
0
LINE
8
BLACK
6
CONTINUOUS
10
76.9031
20
11.691
11
76.7772
21
11.5512
0
LINE
8
BLACK
6
CONTINUOUS
10
76.7772
20
11.5512
11
76.625
21
11.4406
0
LINE
8
BLACK
6
CONTINUOUS
10
76.625
20
11.4406
11
76.4531
21
11.364
0
LINE
8
BLACK
6
CONTINUOUS
10
76.4531
20
11.364
11
76.2691
21
11.3249
0
LINE
8
BLACK
6
CONTINUOUS
10
76.2691
20
11.3249
11
76.0809
21
11.3249
0
LINE
8
BLACK
6
CONTINUOUS
10
76.0809
20
11.3249
11
75.8969
21
11.364
0
LINE
8
BLACK
6
CONTINUOUS
10
75.8969
20
11.364
11
75.725
21
11.4406
0
LINE
8
BLACK
6
CONTINUOUS
10
75.725
20
11.4406
11
75.5728
21
11.5512
0
LINE
8
BLACK
6
CONTINUOUS
10
75.5728
20
11.5512
11
75.4469
21
11.691
0
LINE
8
BLACK
6
CONTINUOUS
10
75.4469
20
11.691
11
75.3528
21
11.8539
0
LINE
8
BLACK
6
CONTINUOUS
10
75.3528
20
11.8539
11
75.2947
21
12.0329
0
LINE
8
BLACK
6
CONTINUOUS
10
75.2947
20
12.0329
11
75.275
21
12.22
0
LINE
8
BLACK
6
CONTINUOUS
10
75.275
20
12.22
11
75.2947
21
12.4071
0
LINE
8
BLACK
6
CONTINUOUS
10
75.2947
20
12.4071
11
75.3528
21
12.5861
0
LINE
8
BLACK
6
CONTINUOUS
10
75.3528
20
12.5861
11
75.4469
21
12.749
0
LINE
8
BLACK
6
CONTINUOUS
10
75.4469
20
12.749
11
75.5728
21
12.8888
0
LINE
8
BLACK
6
CONTINUOUS
10
75.5728
20
12.8888
11
75.725
21
12.9994
0
LINE
8
BLACK
6
CONTINUOUS
10
75.725
20
12.9994
11
75.8969
21
13.076
0
LINE
8
BLACK
6
CONTINUOUS
10
75.8969
20
13.076
11
76.0809
21
13.1151
0
LINE
8
BLACK
6
CONTINUOUS
10
76.0809
20
13.1151
11
76.2691
21
13.1151
0
LINE
8
BLACK
6
CONTINUOUS
10
76.2691
20
13.1151
11
76.4531
21
13.076
0
LINE
8
BLACK
6
CONTINUOUS
10
7.85574
20
18.2302
11
8.07463
21
18.1716
0
LINE
8
BLACK
6
CONTINUOUS
10
8.07463
20
18.1716
11
8.28
21
18.0758
0
LINE
8
BLACK
6
CONTINUOUS
10
8.28
20
18.0758
11
8.46562
21
17.9459
0
LINE
8
BLACK
6
CONTINUOUS
10
8.46562
20
17.9459
11
8.62586
21
17.7856
0
LINE
8
BLACK
6
CONTINUOUS
10
8.62586
20
17.7856
11
8.75583
21
17.6
0
LINE
8
BLACK
6
CONTINUOUS
10
8.75583
20
17.6
11
8.8516
21
17.3946
0
LINE
8
BLACK
6
CONTINUOUS
10
8.8516
20
17.3946
11
8.91025
21
17.1757
0
LINE
8
BLACK
6
CONTINUOUS
10
8.91025
20
17.1757
11
8.93
21
16.95
0
LINE
8
BLACK
6
CONTINUOUS
10
8.93
20
16.95
11
8.91025
21
16.7243
0
LINE
8
BLACK
6
CONTINUOUS
10
8.91025
20
16.7243
11
8.8516
21
16.5054
0
LINE
8
BLACK
6
CONTINUOUS
10
8.8516
20
16.5054
11
8.75583
21
16.3
0
LINE
8
BLACK
6
CONTINUOUS
10
8.75583
20
16.3
11
8.62586
21
16.1144
0
LINE
8
BLACK
6
CONTINUOUS
10
8.62586
20
16.1144
11
8.46562
21
15.9541
0
LINE
8
BLACK
6
CONTINUOUS
10
8.46562
20
15.9541
11
8.28
21
15.8242
0
LINE
8
BLACK
6
CONTINUOUS
10
8.28
20
15.8242
11
8.07463
21
15.7284
0
LINE
8
BLACK
6
CONTINUOUS
10
8.07463
20
15.7284
11
7.85574
21
15.6697
0
LINE
8
BLACK
6
CONTINUOUS
10
7.85574
20
15.6697
11
7.63
21
15.65
0
LINE
8
BLACK
6
CONTINUOUS
10
7.63
20
15.65
11
7.40426
21
15.6697
0
LINE
8
BLACK
6
CONTINUOUS
10
7.40426
20
15.6697
11
7.18537
21
15.7284
0
LINE
8
BLACK
6
CONTINUOUS
10
7.18537
20
15.7284
11
6.98
21
15.8242
0
LINE
8
BLACK
6
CONTINUOUS
10
6.98
20
15.8242
11
6.79438
21
15.9541
0
LINE
8
BLACK
6
CONTINUOUS
10
6.79438
20
15.9541
11
6.63414
21
16.1144
0
LINE
8
BLACK
6
CONTINUOUS
10
6.63414
20
16.1144
11
6.50417
21
16.3
0
LINE
8
BLACK
6
CONTINUOUS
10
6.50417
20
16.3
11
6.4084
21
16.5054
0
LINE
8
BLACK
6
CONTINUOUS
10
6.4084
20
16.5054
11
6.34975
21
16.7243
0
LINE
8
BLACK
6
CONTINUOUS
10
6.34975
20
16.7243
11
6.33
21
16.95
0
LINE
8
BLACK
6
CONTINUOUS
10
6.33
20
16.95
11
6.34975
21
17.1757
0
LINE
8
BLACK
6
CONTINUOUS
10
6.34975
20
17.1757
11
6.4084
21
17.3946
0
LINE
8
BLACK
6
CONTINUOUS
10
6.4084
20
17.3946
11
6.50417
21
17.6
0
LINE
8
BLACK
6
CONTINUOUS
10
6.50417
20
17.6
11
6.63414
21
17.7856
0
LINE
8
BLACK
6
CONTINUOUS
10
6.63414
20
17.7856
11
6.79438
21
17.9459
0
LINE
8
BLACK
6
CONTINUOUS
10
6.79438
20
17.9459
11
6.98
21
18.0758
0
LINE
8
BLACK
6
CONTINUOUS
10
6.98
20
18.0758
11
7.18537
21
18.1716
0
LINE
8
BLACK
6
CONTINUOUS
10
7.18537
20
18.1716
11
7.40426
21
18.2302
0
LINE
8
BLACK
6
CONTINUOUS
10
7.40426
20
18.2302
11
7.63
21
18.25
0
LINE
8
BLACK
6
CONTINUOUS
10
7.63
20
18.25
11
7.85574
21
18.2302
0
LINE
8
BLACK
6
CONTINUOUS
10
74.51
20
15.92
11
72.71
21
15.92
0
LINE
8
BLACK
6
CONTINUOUS
10
72.71
20
15.92
11
72.71
21
17.72
0
LINE
8
BLACK
6
CONTINUOUS
10
72.71
20
17.72
11
74.51
21
17.72
0
LINE
8
BLACK
6
CONTINUOUS
10
74.51
20
17.72
11
74.51
21
15.92
0
LINE
8
BLACK
6
CONTINUOUS
10
76.4281
20
17.676
11
76.6
21
17.5994
0
LINE
8
BLACK
6
CONTINUOUS
10
76.6
20
17.5994
11
76.7522
21
17.4888
0
LINE
8
BLACK
6
CONTINUOUS
10
76.7522
20
17.4888
11
76.8781
21
17.349
0
LINE
8
BLACK
6
CONTINUOUS
10
76.8781
20
17.349
11
76.9722
21
17.1861
0
LINE
8
BLACK
6
CONTINUOUS
10
76.9722
20
17.1861
11
77.0303
21
17.0071
0
LINE
8
BLACK
6
CONTINUOUS
10
77.0303
20
17.0071
11
77.05
21
16.82
0
LINE
8
BLACK
6
CONTINUOUS
10
77.05
20
16.82
11
77.0303
21
16.6329
0
LINE
8
BLACK
6
CONTINUOUS
10
77.0303
20
16.6329
11
76.9722
21
16.4539
0
LINE
8
BLACK
6
CONTINUOUS
10
76.9722
20
16.4539
11
76.8781
21
16.291
0
LINE
8
BLACK
6
CONTINUOUS
10
76.8781
20
16.291
11
76.7522
21
16.1512
0
LINE
8
BLACK
6
CONTINUOUS
10
76.7522
20
16.1512
11
76.6
21
16.0406
0
LINE
8
BLACK
6
CONTINUOUS
10
76.6
20
16.0406
11
76.4281
21
15.964
0
LINE
8
BLACK
6
CONTINUOUS
10
76.4281
20
15.964
11
76.2441
21
15.9249
0
LINE
8
BLACK
6
CONTINUOUS
10
76.2441
20
15.9249
11
76.0559
21
15.9249
0
LINE
8
BLACK
6
CONTINUOUS
10
76.0559
20
15.9249
11
75.8719
21
15.964
0
LINE
8
BLACK
6
CONTINUOUS
10
75.8719
20
15.964
11
75.7
21
16.0406
0
LINE
8
BLACK
6
CONTINUOUS
10
75.7
20
16.0406
11
75.5478
21
16.1512
0
LINE
8
BLACK
6
CONTINUOUS
10
75.5478
20
16.1512
11
75.4219
21
16.291
0
LINE
8
BLACK
6
CONTINUOUS
10
75.4219
20
16.291
11
75.3278
21
16.4539
0
LINE
8
BLACK
6
CONTINUOUS
10
75.3278
20
16.4539
11
75.2697
21
16.6329
0
LINE
8
BLACK
6
CONTINUOUS
10
75.2697
20
16.6329
11
75.25
21
16.82
0
LINE
8
BLACK
6
CONTINUOUS
10
75.25
20
16.82
11
75.2697
21
17.0071
0
LINE
8
BLACK
6
CONTINUOUS
10
75.2697
20
17.0071
11
75.3278
21
17.1861
0
LINE
8
BLACK
6
CONTINUOUS
10
75.3278
20
17.1861
11
75.4219
21
17.349
0
LINE
8
BLACK
6
CONTINUOUS
10
75.4219
20
17.349
11
75.5478
21
17.4888
0
LINE
8
BLACK
6
CONTINUOUS
10
75.5478
20
17.4888
11
75.7
21
17.5994
0
LINE
8
BLACK
6
CONTINUOUS
10
75.7
20
17.5994
11
75.8719
21
17.676
0
LINE
8
BLACK
6
CONTINUOUS
10
75.8719
20
17.676
11
76.0559
21
17.7151
0
LINE
8
BLACK
6
CONTINUOUS
10
76.0559
20
17.7151
11
76.2441
21
17.7151
0
LINE
8
BLACK
6
CONTINUOUS
10
76.2441
20
17.7151
11
76.4281
21
17.676
0
LINE
8
BLACK
6
CONTINUOUS
10
39.0689
20
25.1475
11
39.4207
21
25.0855
0
LINE
8
BLACK
6
CONTINUOUS
10
39.4207
20
25.0855
11
39.7634
21
24.9846
0
LINE
8
BLACK
6
CONTINUOUS
10
39.7634
20
24.9846
11
40.0928
21
24.8461
0
LINE
8
BLACK
6
CONTINUOUS
10
40.0928
20
24.8461
11
40.4046
21
24.6718
0
LINE
8
BLACK
6
CONTINUOUS
10
40.4046
20
24.6718
11
40.6951
21
24.4639
0
LINE
8
BLACK
6
CONTINUOUS
10
40.6951
20
24.4639
11
40.9606
21
24.2248
0
LINE
8
BLACK
6
CONTINUOUS
10
40.9606
20
24.2248
11
41.1978
21
23.9577
0
LINE
8
BLACK
6
CONTINUOUS
10
41.1978
20
23.9577
11
41.4038
21
23.6657
0
LINE
8
BLACK
6
CONTINUOUS
10
41.4038
20
23.6657
11
41.5759
21
23.3527
0
LINE
8
BLACK
6
CONTINUOUS
10
41.5759
20
23.3527
11
41.712
21
23.0224
0
LINE
8
BLACK
6
CONTINUOUS
10
41.712
20
23.0224
11
41.8105
21
22.679
0
LINE
8
BLACK
6
CONTINUOUS
10
41.8105
20
22.679
11
41.8701
21
22.3267
0
LINE
8
BLACK
6
CONTINUOUS
10
41.8701
20
22.3267
11
41.89
21
21.97
0
LINE
8
BLACK
6
CONTINUOUS
10
41.89
20
21.97
11
41.8888
21
21.8807
0
LINE
8
BLACK
6
CONTINUOUS
10
41.8888
20
21.8807
11
41.8589
21
21.5246
0
LINE
8
BLACK
6
CONTINUOUS
10
41.8589
20
21.5246
11
41.7895
21
21.1742
0
LINE
8
BLACK
6
CONTINUOUS
10
41.7895
20
21.1742
11
41.6814
21
20.8337
0
LINE
8
BLACK
6
CONTINUOUS
10
41.6814
20
20.8337
11
41.5361
21
20.5073
0
LINE
8
BLACK
6
CONTINUOUS
10
41.5361
20
20.5073
11
41.3553
21
20.1991
0
LINE
8
BLACK
6
CONTINUOUS
10
41.3553
20
20.1991
11
41.1413
21
19.9131
0
LINE
8
BLACK
6
CONTINUOUS
10
41.1413
20
19.9131
11
40.8968
21
19.6526
0
LINE
8
BLACK
6
CONTINUOUS
10
40.8968
20
19.6526
11
40.6247
21
19.4211
0
LINE
8
BLACK
6
CONTINUOUS
10
40.6247
20
19.4211
11
40.3285
21
19.2213
0
LINE
8
BLACK
6
CONTINUOUS
10
40.3285
20
19.2213
11
40.0119
21
19.0558
0
LINE
8
BLACK
6
CONTINUOUS
10
40.0119
20
19.0558
11
39.6789
21
18.9266
0
LINE
8
BLACK
6
CONTINUOUS
10
39.6789
20
18.9266
11
39.3334
21
18.8354
0
LINE
8
BLACK
6
CONTINUOUS
10
39.3334
20
18.8354
11
38.98
21
18.7832
0
LINE
8
BLACK
6
CONTINUOUS
10
38.98
20
18.7832
11
38.623
21
18.7707
0
LINE
8
BLACK
6
CONTINUOUS
10
38.623
20
18.7707
11
38.2668
21
18.7981
0
LINE
8
BLACK
6
CONTINUOUS
10
38.2668
20
18.7981
11
37.9158
21
18.8651
0
LINE
8
BLACK
6
CONTINUOUS
10
37.9158
20
18.8651
11
37.5746
21
18.9707
0
LINE
8
BLACK
6
CONTINUOUS
10
37.5746
20
18.9707
11
37.2472
21
19.1137
0
LINE
8
BLACK
6
CONTINUOUS
10
37.2472
20
19.1137
11
36.9378
21
19.2924
0
LINE
8
BLACK
6
CONTINUOUS
10
36.9378
20
19.2924
11
36.6502
21
19.5044
0
LINE
8
BLACK
6
CONTINUOUS
10
36.6502
20
19.5044
11
36.3881
21
19.7471
0
LINE
8
BLACK
6
CONTINUOUS
10
36.3881
20
19.7471
11
36.1547
21
20.0175
0
LINE
8
BLACK
6
CONTINUOUS
10
36.1547
20
20.0175
11
35.9528
21
20.3123
0
LINE
8
BLACK
6
CONTINUOUS
10
35.9528
20
20.3123
11
35.7851
21
20.6278
0
LINE
8
BLACK
6
CONTINUOUS
10
35.7851
20
20.6278
11
35.6536
21
20.9599
0
LINE
8
BLACK
6
CONTINUOUS
10
35.6536
20
20.9599
11
35.5599
21
21.3047
0
LINE
8
BLACK
6
CONTINUOUS
10
35.5599
20
21.3047
11
35.5053
21
21.6577
0
LINE
8
BLACK
6
CONTINUOUS
10
35.5053
20
21.6577
11
35.4903
21
22.0147
0
LINE
8
BLACK
6
CONTINUOUS
10
35.4903
20
22.0147
11
35.5152
21
22.3711
0
LINE
8
BLACK
6
CONTINUOUS
10
35.5152
20
22.3711
11
35.5797
21
22.7225
0
LINE
8
BLACK
6
CONTINUOUS
10
35.5797
20
22.7225
11
35.683
21
23.0645
0
LINE
8
BLACK
6
CONTINUOUS
10
35.683
20
23.0645
11
35.8237
21
23.3928
0
LINE
8
BLACK
6
CONTINUOUS
10
35.8237
20
23.3928
11
36.0002
21
23.7035
0
LINE
8
BLACK
6
CONTINUOUS
10
36.0002
20
23.7035
11
36.2102
21
23.9925
0
LINE
8
BLACK
6
CONTINUOUS
10
36.2102
20
23.9925
11
36.4511
21
24.2563
0
LINE
8
BLACK
6
CONTINUOUS
10
36.4511
20
24.2563
11
36.7199
21
24.4916
0
LINE
8
BLACK
6
CONTINUOUS
10
36.7199
20
24.4916
11
37.0132
21
24.6955
0
LINE
8
BLACK
6
CONTINUOUS
10
37.0132
20
24.6955
11
37.3275
21
24.8654
0
LINE
8
BLACK
6
CONTINUOUS
10
37.3275
20
24.8654
11
37.6587
21
24.9993
0
LINE
8
BLACK
6
CONTINUOUS
10
37.6587
20
24.9993
11
38.0028
21
25.0954
0
LINE
8
BLACK
6
CONTINUOUS
10
38.0028
20
25.0954
11
38.3555
21
25.1525
0
LINE
8
BLACK
6
CONTINUOUS
10
38.3555
20
25.1525
11
38.7123
21
25.1699
0
LINE
8
BLACK
6
CONTINUOUS
10
38.7123
20
25.1699
11
39.0689
21
25.1475
0
LINE
8
BLACK
6
CONTINUOUS
10
54.8227
20
21.4989
11
54.9907
21
21.439
0
LINE
8
BLACK
6
CONTINUOUS
10
54.9907
20
21.439
11
55.1413
21
21.3435
0
LINE
8
BLACK
6
CONTINUOUS
10
55.1413
20
21.3435
11
55.267
21
21.2169
0
LINE
8
BLACK
6
CONTINUOUS
10
55.267
20
21.2169
11
55.3615
21
21.0657
0
LINE
8
BLACK
6
CONTINUOUS
10
55.3615
20
21.0657
11
55.4201
21
20.8972
0
LINE
8
BLACK
6
CONTINUOUS
10
55.4201
20
20.8972
11
55.44
21
20.72
0
LINE
8
BLACK
6
CONTINUOUS
10
55.44
20
20.72
11
55.4397
21
20.6977
0
LINE
8
BLACK
6
CONTINUOUS
10
55.4397
20
20.6977
11
55.4149
21
20.521
0
LINE
8
BLACK
6
CONTINUOUS
10
55.4149
20
20.521
11
55.3515
21
20.3543
0
LINE
8
BLACK
6
CONTINUOUS
10
55.3515
20
20.3543
11
55.2528
21
20.2058
0
LINE
8
BLACK
6
CONTINUOUS
10
55.2528
20
20.2058
11
55.1237
21
20.0828
0
LINE
8
BLACK
6
CONTINUOUS
10
55.1237
20
20.0828
11
54.9705
21
19.9915
0
LINE
8
BLACK
6
CONTINUOUS
10
54.9705
20
19.9915
11
54.8009
21
19.9363
0
LINE
8
BLACK
6
CONTINUOUS
10
54.8009
20
19.9363
11
54.6232
21
19.9202
0
LINE
8
BLACK
6
CONTINUOUS
10
54.6232
20
19.9202
11
54.4465
21
19.9438
0
LINE
8
BLACK
6
CONTINUOUS
10
54.4465
20
19.9438
11
54.2793
21
20.0059
0
LINE
8
BLACK
6
CONTINUOUS
10
54.2793
20
20.0059
11
54.1301
21
20.1036
0
LINE
8
BLACK
6
CONTINUOUS
10
54.1301
20
20.1036
11
54.0062
21
20.2319
0
LINE
8
BLACK
6
CONTINUOUS
10
54.0062
20
20.2319
11
53.9138
21
20.3844
0
LINE
8
BLACK
6
CONTINUOUS
10
53.9138
20
20.3844
11
53.8575
21
20.5537
0
LINE
8
BLACK
6
CONTINUOUS
10
53.8575
20
20.5537
11
53.8401
21
20.7312
0
LINE
8
BLACK
6
CONTINUOUS
10
53.8401
20
20.7312
11
53.8624
21
20.9081
0
LINE
8
BLACK
6
CONTINUOUS
10
53.8624
20
20.9081
11
53.9234
21
21.0757
0
LINE
8
BLACK
6
CONTINUOUS
10
53.9234
20
21.0757
11
54.02
21
21.2256
0
LINE
8
BLACK
6
CONTINUOUS
10
54.02
20
21.2256
11
54.1475
21
21.3504
0
LINE
8
BLACK
6
CONTINUOUS
10
54.1475
20
21.3504
11
54.2994
21
21.4439
0
LINE
8
BLACK
6
CONTINUOUS
10
54.2994
20
21.4439
11
54.4682
21
21.5013
0
LINE
8
BLACK
6
CONTINUOUS
10
54.4682
20
21.5013
11
54.6456
21
21.52
0
LINE
8
BLACK
6
CONTINUOUS
10
54.6456
20
21.52
11
54.8227
21
21.4989
0
LINE
8
BLACK
6
CONTINUOUS
10
44.6627
20
21.4989
11
44.8307
21
21.439
0
LINE
8
BLACK
6
CONTINUOUS
10
44.8307
20
21.439
11
44.9813
21
21.3435
0
LINE
8
BLACK
6
CONTINUOUS
10
44.9813
20
21.3435
11
45.107
21
21.2169
0
LINE
8
BLACK
6
CONTINUOUS
10
45.107
20
21.2169
11
45.2015
21
21.0657
0
LINE
8
BLACK
6
CONTINUOUS
10
45.2015
20
21.0657
11
45.2601
21
20.8972
0
LINE
8
BLACK
6
CONTINUOUS
10
45.2601
20
20.8972
11
45.28
21
20.72
0
LINE
8
BLACK
6
CONTINUOUS
10
45.28
20
20.72
11
45.2797
21
20.6977
0
LINE
8
BLACK
6
CONTINUOUS
10
45.2797
20
20.6977
11
45.2549
21
20.521
0
LINE
8
BLACK
6
CONTINUOUS
10
45.2549
20
20.521
11
45.1915
21
20.3543
0
LINE
8
BLACK
6
CONTINUOUS
10
45.1915
20
20.3543
11
45.0928
21
20.2058
0
LINE
8
BLACK
6
CONTINUOUS
10
45.0928
20
20.2058
11
44.9637
21
20.0828
0
LINE
8
BLACK
6
CONTINUOUS
10
44.9637
20
20.0828
11
44.8105
21
19.9915
0
LINE
8
BLACK
6
CONTINUOUS
10
44.8105
20
19.9915
11
44.6409
21
19.9363
0
LINE
8
BLACK
6
CONTINUOUS
10
44.6409
20
19.9363
11
44.4632
21
19.9202
0
LINE
8
BLACK
6
CONTINUOUS
10
44.4632
20
19.9202
11
44.2865
21
19.9438
0
LINE
8
BLACK
6
CONTINUOUS
10
44.2865
20
19.9438
11
44.1193
21
20.0059
0
LINE
8
BLACK
6
CONTINUOUS
10
44.1193
20
20.0059
11
43.9701
21
20.1036
0
LINE
8
BLACK
6
CONTINUOUS
10
43.9701
20
20.1036
11
43.8462
21
20.2319
0
LINE
8
BLACK
6
CONTINUOUS
10
43.8462
20
20.2319
11
43.7538
21
20.3844
0
LINE
8
BLACK
6
CONTINUOUS
10
43.7538
20
20.3844
11
43.6975
21
20.5537
0
LINE
8
BLACK
6
CONTINUOUS
10
43.6975
20
20.5537
11
43.6801
21
20.7312
0
LINE
8
BLACK
6
CONTINUOUS
10
43.6801
20
20.7312
11
43.7024
21
20.9081
0
LINE
8
BLACK
6
CONTINUOUS
10
43.7024
20
20.9081
11
43.7634
21
21.0757
0
LINE
8
BLACK
6
CONTINUOUS
10
43.7634
20
21.0757
11
43.86
21
21.2256
0
LINE
8
BLACK
6
CONTINUOUS
10
43.86
20
21.2256
11
43.9875
21
21.3504
0
LINE
8
BLACK
6
CONTINUOUS
10
43.9875
20
21.3504
11
44.1394
21
21.4439
0
LINE
8
BLACK
6
CONTINUOUS
10
44.1394
20
21.4439
11
44.3082
21
21.5013
0
LINE
8
BLACK
6
CONTINUOUS
10
44.3082
20
21.5013
11
44.4856
21
21.52
0
LINE
8
BLACK
6
CONTINUOUS
10
44.4856
20
21.52
11
44.6627
21
21.4989
0
LINE
8
BLACK
6
CONTINUOUS
10
74.485
20
20.52
11
72.685
21
20.52
0
LINE
8
BLACK
6
CONTINUOUS
10
72.685
20
20.52
11
72.685
21
22.32
0
LINE
8
BLACK
6
CONTINUOUS
10
72.685
20
22.32
11
74.485
21
22.32
0
LINE
8
BLACK
6
CONTINUOUS
10
74.485
20
22.32
11
74.485
21
20.52
0
LINE
8
BLACK
6
CONTINUOUS
10
76.4031
20
22.276
11
76.575
21
22.1994
0
LINE
8
BLACK
6
CONTINUOUS
10
76.575
20
22.1994
11
76.7272
21
22.0888
0
LINE
8
BLACK
6
CONTINUOUS
10
76.7272
20
22.0888
11
76.8531
21
21.949
0
LINE
8
BLACK
6
CONTINUOUS
10
76.8531
20
21.949
11
76.9472
21
21.7861
0
LINE
8
BLACK
6
CONTINUOUS
10
76.9472
20
21.7861
11
77.0053
21
21.6071
0
LINE
8
BLACK
6
CONTINUOUS
10
77.0053
20
21.6071
11
77.025
21
21.42
0
LINE
8
BLACK
6
CONTINUOUS
10
77.025
20
21.42
11
77.0053
21
21.2329
0
LINE
8
BLACK
6
CONTINUOUS
10
77.0053
20
21.2329
11
76.9472
21
21.0539
0
LINE
8
BLACK
6
CONTINUOUS
10
76.9472
20
21.0539
11
76.8531
21
20.891
0
LINE
8
BLACK
6
CONTINUOUS
10
76.8531
20
20.891
11
76.7272
21
20.7512
0
LINE
8
BLACK
6
CONTINUOUS
10
76.7272
20
20.7512
11
76.575
21
20.6406
0
LINE
8
BLACK
6
CONTINUOUS
10
76.575
20
20.6406
11
76.4031
21
20.564
0
LINE
8
BLACK
6
CONTINUOUS
10
76.4031
20
20.564
11
76.2191
21
20.5249
0
LINE
8
BLACK
6
CONTINUOUS
10
76.2191
20
20.5249
11
76.0309
21
20.5249
0
LINE
8
BLACK
6
CONTINUOUS
10
76.0309
20
20.5249
11
75.8469
21
20.564
0
LINE
8
BLACK
6
CONTINUOUS
10
75.8469
20
20.564
11
75.675
21
20.6406
0
LINE
8
BLACK
6
CONTINUOUS
10
75.675
20
20.6406
11
75.5228
21
20.7512
0
LINE
8
BLACK
6
CONTINUOUS
10
75.5228
20
20.7512
11
75.3969
21
20.891
0
LINE
8
BLACK
6
CONTINUOUS
10
75.3969
20
20.891
11
75.3028
21
21.0539
0
LINE
8
BLACK
6
CONTINUOUS
10
75.3028
20
21.0539
11
75.2447
21
21.2329
0
LINE
8
BLACK
6
CONTINUOUS
10
75.2447
20
21.2329
11
75.225
21
21.42
0
LINE
8
BLACK
6
CONTINUOUS
10
75.225
20
21.42
11
75.2447
21
21.6071
0
LINE
8
BLACK
6
CONTINUOUS
10
75.2447
20
21.6071
11
75.3028
21
21.7861
0
LINE
8
BLACK
6
CONTINUOUS
10
75.3028
20
21.7861
11
75.3969
21
21.949
0
LINE
8
BLACK
6
CONTINUOUS
10
75.3969
20
21.949
11
75.5228
21
22.0888
0
LINE
8
BLACK
6
CONTINUOUS
10
75.5228
20
22.0888
11
75.675
21
22.1994
0
LINE
8
BLACK
6
CONTINUOUS
10
75.675
20
22.1994
11
75.8469
21
22.276
0
LINE
8
BLACK
6
CONTINUOUS
10
75.8469
20
22.276
11
76.0309
21
22.3151
0
LINE
8
BLACK
6
CONTINUOUS
10
76.0309
20
22.3151
11
76.2191
21
22.3151
0
LINE
8
BLACK
6
CONTINUOUS
10
76.2191
20
22.3151
11
76.4031
21
22.276
0
LINE
8
BLACK
6
CONTINUOUS
10
60.3227
20
22.4889
11
60.4907
21
22.429
0
LINE
8
BLACK
6
CONTINUOUS
10
60.4907
20
22.429
11
60.6413
21
22.3335
0
LINE
8
BLACK
6
CONTINUOUS
10
60.6413
20
22.3335
11
60.767
21
22.2069
0
LINE
8
BLACK
6
CONTINUOUS
10
60.767
20
22.2069
11
60.8615
21
22.0557
0
LINE
8
BLACK
6
CONTINUOUS
10
60.8615
20
22.0557
11
60.9201
21
21.8872
0
LINE
8
BLACK
6
CONTINUOUS
10
60.9201
20
21.8872
11
60.94
21
21.71
0
LINE
8
BLACK
6
CONTINUOUS
10
60.94
20
21.71
11
60.9397
21
21.6877
0
LINE
8
BLACK
6
CONTINUOUS
10
60.9397
20
21.6877
11
60.9149
21
21.511
0
LINE
8
BLACK
6
CONTINUOUS
10
60.9149
20
21.511
11
60.8515
21
21.3443
0
LINE
8
BLACK
6
CONTINUOUS
10
60.8515
20
21.3443
11
60.7528
21
21.1958
0
LINE
8
BLACK
6
CONTINUOUS
10
60.7528
20
21.1958
11
60.6237
21
21.0728
0
LINE
8
BLACK
6
CONTINUOUS
10
60.6237
20
21.0728
11
60.4705
21
20.9815
0
LINE
8
BLACK
6
CONTINUOUS
10
60.4705
20
20.9815
11
60.3009
21
20.9263
0
LINE
8
BLACK
6
CONTINUOUS
10
60.3009
20
20.9263
11
60.1232
21
20.9102
0
LINE
8
BLACK
6
CONTINUOUS
10
60.1232
20
20.9102
11
59.9465
21
20.9338
0
LINE
8
BLACK
6
CONTINUOUS
10
59.9465
20
20.9338
11
59.7793
21
20.9959
0
LINE
8
BLACK
6
CONTINUOUS
10
59.7793
20
20.9959
11
59.6301
21
21.0936
0
LINE
8
BLACK
6
CONTINUOUS
10
59.6301
20
21.0936
11
59.5062
21
21.2219
0
LINE
8
BLACK
6
CONTINUOUS
10
59.5062
20
21.2219
11
59.4138
21
21.3744
0
LINE
8
BLACK
6
CONTINUOUS
10
59.4138
20
21.3744
11
59.3575
21
21.5437
0
LINE
8
BLACK
6
CONTINUOUS
10
59.3575
20
21.5437
11
59.3401
21
21.7212
0
LINE
8
BLACK
6
CONTINUOUS
10
59.3401
20
21.7212
11
59.3624
21
21.8981
0
LINE
8
BLACK
6
CONTINUOUS
10
59.3624
20
21.8981
11
59.4234
21
22.0657
0
LINE
8
BLACK
6
CONTINUOUS
10
59.4234
20
22.0657
11
59.52
21
22.2156
0
LINE
8
BLACK
6
CONTINUOUS
10
59.52
20
22.2156
11
59.6475
21
22.3404
0
LINE
8
BLACK
6
CONTINUOUS
10
59.6475
20
22.3404
11
59.7994
21
22.4339
0
LINE
8
BLACK
6
CONTINUOUS
10
59.7994
20
22.4339
11
59.9682
21
22.4913
0
LINE
8
BLACK
6
CONTINUOUS
10
59.9682
20
22.4913
11
60.1456
21
22.51
0
LINE
8
BLACK
6
CONTINUOUS
10
60.1456
20
22.51
11
60.3227
21
22.4889
0
LINE
8
BLACK
6
CONTINUOUS
10
67.9427
20
22.4889
11
68.1107
21
22.429
0
LINE
8
BLACK
6
CONTINUOUS
10
68.1107
20
22.429
11
68.2613
21
22.3335
0
LINE
8
BLACK
6
CONTINUOUS
10
68.2613
20
22.3335
11
68.387
21
22.2069
0
LINE
8
BLACK
6
CONTINUOUS
10
68.387
20
22.2069
11
68.4815
21
22.0557
0
LINE
8
BLACK
6
CONTINUOUS
10
68.4815
20
22.0557
11
68.5401
21
21.8872
0
LINE
8
BLACK
6
CONTINUOUS
10
68.5401
20
21.8872
11
68.56
21
21.71
0
LINE
8
BLACK
6
CONTINUOUS
10
68.56
20
21.71
11
68.5597
21
21.6877
0
LINE
8
BLACK
6
CONTINUOUS
10
68.5597
20
21.6877
11
68.5349
21
21.511
0
LINE
8
BLACK
6
CONTINUOUS
10
68.5349
20
21.511
11
68.4715
21
21.3443
0
LINE
8
BLACK
6
CONTINUOUS
10
68.4715
20
21.3443
11
68.3728
21
21.1958
0
LINE
8
BLACK
6
CONTINUOUS
10
68.3728
20
21.1958
11
68.2437
21
21.0728
0
LINE
8
BLACK
6
CONTINUOUS
10
68.2437
20
21.0728
11
68.0905
21
20.9815
0
LINE
8
BLACK
6
CONTINUOUS
10
68.0905
20
20.9815
11
67.9209
21
20.9263
0
LINE
8
BLACK
6
CONTINUOUS
10
67.9209
20
20.9263
11
67.7432
21
20.9102
0
LINE
8
BLACK
6
CONTINUOUS
10
67.7432
20
20.9102
11
67.5665
21
20.9338
0
LINE
8
BLACK
6
CONTINUOUS
10
67.5665
20
20.9338
11
67.3993
21
20.9959
0
LINE
8
BLACK
6
CONTINUOUS
10
67.3993
20
20.9959
11
67.2501
21
21.0936
0
LINE
8
BLACK
6
CONTINUOUS
10
67.2501
20
21.0936
11
67.1262
21
21.2219
0
LINE
8
BLACK
6
CONTINUOUS
10
67.1262
20
21.2219
11
67.0338
21
21.3744
0
LINE
8
BLACK
6
CONTINUOUS
10
67.0338
20
21.3744
11
66.9775
21
21.5437
0
LINE
8
BLACK
6
CONTINUOUS
10
66.9775
20
21.5437
11
66.9601
21
21.7212
0
LINE
8
BLACK
6
CONTINUOUS
10
66.9601
20
21.7212
11
66.9824
21
21.8981
0
LINE
8
BLACK
6
CONTINUOUS
10
66.9824
20
21.8981
11
67.0434
21
22.0657
0
LINE
8
BLACK
6
CONTINUOUS
10
67.0434
20
22.0657
11
67.14
21
22.2156
0
LINE
8
BLACK
6
CONTINUOUS
10
67.14
20
22.2156
11
67.2675
21
22.3404
0
LINE
8
BLACK
6
CONTINUOUS
10
67.2675
20
22.3404
11
67.4194
21
22.4339
0
LINE
8
BLACK
6
CONTINUOUS
10
67.4194
20
22.4339
11
67.5882
21
22.4913
0
LINE
8
BLACK
6
CONTINUOUS
10
67.5882
20
22.4913
11
67.7656
21
22.51
0
LINE
8
BLACK
6
CONTINUOUS
10
67.7656
20
22.51
11
67.9427
21
22.4889
0
LINE
8
BLACK
6
CONTINUOUS
10
60.3227
20
25.0289
11
60.4907
21
24.969
0
LINE
8
BLACK
6
CONTINUOUS
10
60.4907
20
24.969
11
60.6413
21
24.8735
0
LINE
8
BLACK
6
CONTINUOUS
10
60.6413
20
24.8735
11
60.767
21
24.7469
0
LINE
8
BLACK
6
CONTINUOUS
10
60.767
20
24.7469
11
60.8615
21
24.5957
0
LINE
8
BLACK
6
CONTINUOUS
10
60.8615
20
24.5957
11
60.9201
21
24.4272
0
LINE
8
BLACK
6
CONTINUOUS
10
60.9201
20
24.4272
11
60.94
21
24.25
0
LINE
8
BLACK
6
CONTINUOUS
10
60.94
20
24.25
11
60.9397
21
24.2277
0
LINE
8
BLACK
6
CONTINUOUS
10
60.9397
20
24.2277
11
60.9149
21
24.051
0
LINE
8
BLACK
6
CONTINUOUS
10
60.9149
20
24.051
11
60.8515
21
23.8843
0
LINE
8
BLACK
6
CONTINUOUS
10
60.8515
20
23.8843
11
60.7528
21
23.7358
0
LINE
8
BLACK
6
CONTINUOUS
10
60.7528
20
23.7358
11
60.6237
21
23.6128
0
LINE
8
BLACK
6
CONTINUOUS
10
60.6237
20
23.6128
11
60.4705
21
23.5215
0
LINE
8
BLACK
6
CONTINUOUS
10
60.4705
20
23.5215
11
60.3009
21
23.4663
0
LINE
8
BLACK
6
CONTINUOUS
10
60.3009
20
23.4663
11
60.1232
21
23.4502
0
LINE
8
BLACK
6
CONTINUOUS
10
60.1232
20
23.4502
11
59.9465
21
23.4738
0
LINE
8
BLACK
6
CONTINUOUS
10
59.9465
20
23.4738
11
59.7793
21
23.5359
0
LINE
8
BLACK
6
CONTINUOUS
10
59.7793
20
23.5359
11
59.6301
21
23.6336
0
LINE
8
BLACK
6
CONTINUOUS
10
59.6301
20
23.6336
11
59.5062
21
23.7619
0
LINE
8
BLACK
6
CONTINUOUS
10
59.5062
20
23.7619
11
59.4138
21
23.9144
0
LINE
8
BLACK
6
CONTINUOUS
10
59.4138
20
23.9144
11
59.3575
21
24.0837
0
LINE
8
BLACK
6
CONTINUOUS
10
59.3575
20
24.0837
11
59.3401
21
24.2612
0
LINE
8
BLACK
6
CONTINUOUS
10
59.3401
20
24.2612
11
59.3624
21
24.4381
0
LINE
8
BLACK
6
CONTINUOUS
10
59.3624
20
24.4381
11
59.4234
21
24.6057
0
LINE
8
BLACK
6
CONTINUOUS
10
59.4234
20
24.6057
11
59.52
21
24.7556
0
LINE
8
BLACK
6
CONTINUOUS
10
59.52
20
24.7556
11
59.6475
21
24.8804
0
LINE
8
BLACK
6
CONTINUOUS
10
59.6475
20
24.8804
11
59.7994
21
24.9739
0
LINE
8
BLACK
6
CONTINUOUS
10
59.7994
20
24.9739
11
59.9682
21
25.0313
0
LINE
8
BLACK
6
CONTINUOUS
10
59.9682
20
25.0313
11
60.1456
21
25.05
0
LINE
8
BLACK
6
CONTINUOUS
10
60.1456
20
25.05
11
60.3227
21
25.0289
0
LINE
8
BLACK
6
CONTINUOUS
10
67.9427
20
25.0289
11
68.1107
21
24.969
0
LINE
8
BLACK
6
CONTINUOUS
10
68.1107
20
24.969
11
68.2613
21
24.8735
0
LINE
8
BLACK
6
CONTINUOUS
10
68.2613
20
24.8735
11
68.387
21
24.7469
0
LINE
8
BLACK
6
CONTINUOUS
10
68.387
20
24.7469
11
68.4815
21
24.5957
0
LINE
8
BLACK
6
CONTINUOUS
10
68.4815
20
24.5957
11
68.5401
21
24.4272
0
LINE
8
BLACK
6
CONTINUOUS
10
68.5401
20
24.4272
11
68.56
21
24.25
0
LINE
8
BLACK
6
CONTINUOUS
10
68.56
20
24.25
11
68.5597
21
24.2277
0
LINE
8
BLACK
6
CONTINUOUS
10
68.5597
20
24.2277
11
68.5349
21
24.051
0
LINE
8
BLACK
6
CONTINUOUS
10
68.5349
20
24.051
11
68.4715
21
23.8843
0
LINE
8
BLACK
6
CONTINUOUS
10
68.4715
20
23.8843
11
68.3728
21
23.7358
0
LINE
8
BLACK
6
CONTINUOUS
10
68.3728
20
23.7358
11
68.2437
21
23.6128
0
LINE
8
BLACK
6
CONTINUOUS
10
68.2437
20
23.6128
11
68.0905
21
23.5215
0
LINE
8
BLACK
6
CONTINUOUS
10
68.0905
20
23.5215
11
67.9209
21
23.4663
0
LINE
8
BLACK
6
CONTINUOUS
10
67.9209
20
23.4663
11
67.7432
21
23.4502
0
LINE
8
BLACK
6
CONTINUOUS
10
67.7432
20
23.4502
11
67.5665
21
23.4738
0
LINE
8
BLACK
6
CONTINUOUS
10
67.5665
20
23.4738
11
67.3993
21
23.5359
0
LINE
8
BLACK
6
CONTINUOUS
10
67.3993
20
23.5359
11
67.2501
21
23.6336
0
LINE
8
BLACK
6
CONTINUOUS
10
67.2501
20
23.6336
11
67.1262
21
23.7619
0
LINE
8
BLACK
6
CONTINUOUS
10
67.1262
20
23.7619
11
67.0338
21
23.9144
0
LINE
8
BLACK
6
CONTINUOUS
10
67.0338
20
23.9144
11
66.9775
21
24.0837
0
LINE
8
BLACK
6
CONTINUOUS
10
66.9775
20
24.0837
11
66.9601
21
24.2612
0
LINE
8
BLACK
6
CONTINUOUS
10
66.9601
20
24.2612
11
66.9824
21
24.4381
0
LINE
8
BLACK
6
CONTINUOUS
10
66.9824
20
24.4381
11
67.0434
21
24.6057
0
LINE
8
BLACK
6
CONTINUOUS
10
67.0434
20
24.6057
11
67.14
21
24.7556
0
LINE
8
BLACK
6
CONTINUOUS
10
67.14
20
24.7556
11
67.2675
21
24.8804
0
LINE
8
BLACK
6
CONTINUOUS
10
67.2675
20
24.8804
11
67.4194
21
24.9739
0
LINE
8
BLACK
6
CONTINUOUS
10
67.4194
20
24.9739
11
67.5882
21
25.0313
0
LINE
8
BLACK
6
CONTINUOUS
10
67.5882
20
25.0313
11
67.7656
21
25.05
0
LINE
8
BLACK
6
CONTINUOUS
10
67.7656
20
25.05
11
67.9427
21
25.0289
0
LINE
8
BLACK
6
CONTINUOUS
10
74.46
20
25.07
11
72.66
21
25.07
0
LINE
8
BLACK
6
CONTINUOUS
10
72.66
20
25.07
11
72.66
21
26.87
0
LINE
8
BLACK
6
CONTINUOUS
10
72.66
20
26.87
11
74.46
21
26.87
0
LINE
8
BLACK
6
CONTINUOUS
10
74.46
20
26.87
11
74.46
21
25.07
0
LINE
8
BLACK
6
CONTINUOUS
10
76.3781
20
26.826
11
76.55
21
26.7494
0
LINE
8
BLACK
6
CONTINUOUS
10
76.55
20
26.7494
11
76.7022
21
26.6388
0
LINE
8
BLACK
6
CONTINUOUS
10
76.7022
20
26.6388
11
76.8281
21
26.499
0
LINE
8
BLACK
6
CONTINUOUS
10
76.8281
20
26.499
11
76.9222
21
26.3361
0
LINE
8
BLACK
6
CONTINUOUS
10
76.9222
20
26.3361
11
76.9803
21
26.1571
0
LINE
8
BLACK
6
CONTINUOUS
10
76.9803
20
26.1571
11
77
21
25.97
0
LINE
8
BLACK
6
CONTINUOUS
10
77
20
25.97
11
76.9803
21
25.7829
0
LINE
8
BLACK
6
CONTINUOUS
10
76.9803
20
25.7829
11
76.9222
21
25.6039
0
LINE
8
BLACK
6
CONTINUOUS
10
76.9222
20
25.6039
11
76.8281
21
25.441
0
LINE
8
BLACK
6
CONTINUOUS
10
76.8281
20
25.441
11
76.7022
21
25.3012
0
LINE
8
BLACK
6
CONTINUOUS
10
76.7022
20
25.3012
11
76.55
21
25.1906
0
LINE
8
BLACK
6
CONTINUOUS
10
76.55
20
25.1906
11
76.3781
21
25.114
0
LINE
8
BLACK
6
CONTINUOUS
10
76.3781
20
25.114
11
76.1941
21
25.0749
0
LINE
8
BLACK
6
CONTINUOUS
10
76.1941
20
25.0749
11
76.0059
21
25.0749
0
LINE
8
BLACK
6
CONTINUOUS
10
76.0059
20
25.0749
11
75.8219
21
25.114
0
LINE
8
BLACK
6
CONTINUOUS
10
75.8219
20
25.114
11
75.65
21
25.1906
0
LINE
8
BLACK
6
CONTINUOUS
10
75.65
20
25.1906
11
75.4978
21
25.3012
0
LINE
8
BLACK
6
CONTINUOUS
10
75.4978
20
25.3012
11
75.3719
21
25.441
0
LINE
8
BLACK
6
CONTINUOUS
10
75.3719
20
25.441
11
75.2778
21
25.6039
0
LINE
8
BLACK
6
CONTINUOUS
10
75.2778
20
25.6039
11
75.2197
21
25.7829
0
LINE
8
BLACK
6
CONTINUOUS
10
75.2197
20
25.7829
11
75.2
21
25.97
0
LINE
8
BLACK
6
CONTINUOUS
10
75.2
20
25.97
11
75.2197
21
26.1571
0
LINE
8
BLACK
6
CONTINUOUS
10
75.2197
20
26.1571
11
75.2778
21
26.3361
0
LINE
8
BLACK
6
CONTINUOUS
10
75.2778
20
26.3361
11
75.3719
21
26.499
0
LINE
8
BLACK
6
CONTINUOUS
10
75.3719
20
26.499
11
75.4978
21
26.6388
0
LINE
8
BLACK
6
CONTINUOUS
10
75.4978
20
26.6388
11
75.65
21
26.7494
0
LINE
8
BLACK
6
CONTINUOUS
10
75.65
20
26.7494
11
75.8219
21
26.826
0
LINE
8
BLACK
6
CONTINUOUS
10
75.8219
20
26.826
11
76.0059
21
26.8651
0
LINE
8
BLACK
6
CONTINUOUS
10
76.0059
20
26.8651
11
76.1941
21
26.8651
0
LINE
8
BLACK
6
CONTINUOUS
10
76.1941
20
26.8651
11
76.3781
21
26.826
0
LINE
8
BLACK
6
CONTINUOUS
10
60.3227
20
27.5689
11
60.4907
21
27.509
0
LINE
8
BLACK
6
CONTINUOUS
10
60.4907
20
27.509
11
60.6413
21
27.4135
0
LINE
8
BLACK
6
CONTINUOUS
10
60.6413
20
27.4135
11
60.767
21
27.2869
0
LINE
8
BLACK
6
CONTINUOUS
10
60.767
20
27.2869
11
60.8615
21
27.1357
0
LINE
8
BLACK
6
CONTINUOUS
10
60.8615
20
27.1357
11
60.9201
21
26.9672
0
LINE
8
BLACK
6
CONTINUOUS
10
60.9201
20
26.9672
11
60.94
21
26.79
0
LINE
8
BLACK
6
CONTINUOUS
10
60.94
20
26.79
11
60.9397
21
26.7677
0
LINE
8
BLACK
6
CONTINUOUS
10
60.9397
20
26.7677
11
60.9149
21
26.591
0
LINE
8
BLACK
6
CONTINUOUS
10
60.9149
20
26.591
11
60.8515
21
26.4243
0
LINE
8
BLACK
6
CONTINUOUS
10
60.8515
20
26.4243
11
60.7528
21
26.2758
0
LINE
8
BLACK
6
CONTINUOUS
10
60.7528
20
26.2758
11
60.6237
21
26.1528
0
LINE
8
BLACK
6
CONTINUOUS
10
60.6237
20
26.1528
11
60.4705
21
26.0615
0
LINE
8
BLACK
6
CONTINUOUS
10
60.4705
20
26.0615
11
60.3009
21
26.0063
0
LINE
8
BLACK
6
CONTINUOUS
10
60.3009
20
26.0063
11
60.1232
21
25.9902
0
LINE
8
BLACK
6
CONTINUOUS
10
60.1232
20
25.9902
11
59.9465
21
26.0138
0
LINE
8
BLACK
6
CONTINUOUS
10
59.9465
20
26.0138
11
59.7793
21
26.0759
0
LINE
8
BLACK
6
CONTINUOUS
10
59.7793
20
26.0759
11
59.6301
21
26.1736
0
LINE
8
BLACK
6
CONTINUOUS
10
59.6301
20
26.1736
11
59.5062
21
26.3019
0
LINE
8
BLACK
6
CONTINUOUS
10
59.5062
20
26.3019
11
59.4138
21
26.4544
0
LINE
8
BLACK
6
CONTINUOUS
10
59.4138
20
26.4544
11
59.3575
21
26.6237
0
LINE
8
BLACK
6
CONTINUOUS
10
59.3575
20
26.6237
11
59.3401
21
26.8012
0
LINE
8
BLACK
6
CONTINUOUS
10
59.3401
20
26.8012
11
59.3624
21
26.9781
0
LINE
8
BLACK
6
CONTINUOUS
10
59.3624
20
26.9781
11
59.4234
21
27.1457
0
LINE
8
BLACK
6
CONTINUOUS
10
59.4234
20
27.1457
11
59.52
21
27.2956
0
LINE
8
BLACK
6
CONTINUOUS
10
59.52
20
27.2956
11
59.6475
21
27.4204
0
LINE
8
BLACK
6
CONTINUOUS
10
59.6475
20
27.4204
11
59.7994
21
27.5139
0
LINE
8
BLACK
6
CONTINUOUS
10
59.7994
20
27.5139
11
59.9682
21
27.5713
0
LINE
8
BLACK
6
CONTINUOUS
10
59.9682
20
27.5713
11
60.1456
21
27.59
0
LINE
8
BLACK
6
CONTINUOUS
10
60.1456
20
27.59
11
60.3227
21
27.5689
0
LINE
8
BLACK
6
CONTINUOUS
10
67.9427
20
27.5689
11
68.1107
21
27.509
0
LINE
8
BLACK
6
CONTINUOUS
10
68.1107
20
27.509
11
68.2613
21
27.4135
0
LINE
8
BLACK
6
CONTINUOUS
10
68.2613
20
27.4135
11
68.387
21
27.2869
0
LINE
8
BLACK
6
CONTINUOUS
10
68.387
20
27.2869
11
68.4815
21
27.1357
0
LINE
8
BLACK
6
CONTINUOUS
10
68.4815
20
27.1357
11
68.5401
21
26.9672
0
LINE
8
BLACK
6
CONTINUOUS
10
68.5401
20
26.9672
11
68.56
21
26.79
0
LINE
8
BLACK
6
CONTINUOUS
10
68.56
20
26.79
11
68.5597
21
26.7677
0
LINE
8
BLACK
6
CONTINUOUS
10
68.5597
20
26.7677
11
68.5349
21
26.591
0
LINE
8
BLACK
6
CONTINUOUS
10
68.5349
20
26.591
11
68.4715
21
26.4243
0
LINE
8
BLACK
6
CONTINUOUS
10
68.4715
20
26.4243
11
68.3728
21
26.2758
0
LINE
8
BLACK
6
CONTINUOUS
10
68.3728
20
26.2758
11
68.2437
21
26.1528
0
LINE
8
BLACK
6
CONTINUOUS
10
68.2437
20
26.1528
11
68.0905
21
26.0615
0
LINE
8
BLACK
6
CONTINUOUS
10
68.0905
20
26.0615
11
67.9209
21
26.0063
0
LINE
8
BLACK
6
CONTINUOUS
10
67.9209
20
26.0063
11
67.7432
21
25.9902
0
LINE
8
BLACK
6
CONTINUOUS
10
67.7432
20
25.9902
11
67.5665
21
26.0138
0
LINE
8
BLACK
6
CONTINUOUS
10
67.5665
20
26.0138
11
67.3993
21
26.0759
0
LINE
8
BLACK
6
CONTINUOUS
10
67.3993
20
26.0759
11
67.2501
21
26.1736
0
LINE
8
BLACK
6
CONTINUOUS
10
67.2501
20
26.1736
11
67.1262
21
26.3019
0
LINE
8
BLACK
6
CONTINUOUS
10
67.1262
20
26.3019
11
67.0338
21
26.4544
0
LINE
8
BLACK
6
CONTINUOUS
10
67.0338
20
26.4544
11
66.9775
21
26.6237
0
LINE
8
BLACK
6
CONTINUOUS
10
66.9775
20
26.6237
11
66.9601
21
26.8012
0
LINE
8
BLACK
6
CONTINUOUS
10
66.9601
20
26.8012
11
66.9824
21
26.9781
0
LINE
8
BLACK
6
CONTINUOUS
10
66.9824
20
26.9781
11
67.0434
21
27.1457
0
LINE
8
BLACK
6
CONTINUOUS
10
67.0434
20
27.1457
11
67.14
21
27.2956
0
LINE
8
BLACK
6
CONTINUOUS
10
67.14
20
27.2956
11
67.2675
21
27.4204
0
LINE
8
BLACK
6
CONTINUOUS
10
67.2675
20
27.4204
11
67.4194
21
27.5139
0
LINE
8
BLACK
6
CONTINUOUS
10
67.4194
20
27.5139
11
67.5882
21
27.5713
0
LINE
8
BLACK
6
CONTINUOUS
10
67.5882
20
27.5713
11
67.7656
21
27.59
0
LINE
8
BLACK
6
CONTINUOUS
10
67.7656
20
27.59
11
67.9427
21
27.5689
0
LINE
8
BLACK
6
CONTINUOUS
10
46.9994
20
28.236
11
47.1506
21
28.1821
0
LINE
8
BLACK
6
CONTINUOUS
10
47.1506
20
28.1821
11
47.2862
21
28.0961
0
LINE
8
BLACK
6
CONTINUOUS
10
47.2862
20
28.0961
11
47.3993
21
27.9822
0
LINE
8
BLACK
6
CONTINUOUS
10
47.3993
20
27.9822
11
47.4843
21
27.8461
0
LINE
8
BLACK
6
CONTINUOUS
10
47.4843
20
27.8461
11
47.5371
21
27.6945
0
LINE
8
BLACK
6
CONTINUOUS
10
47.5371
20
27.6945
11
47.555
21
27.535
0
LINE
8
BLACK
6
CONTINUOUS
10
47.555
20
27.535
11
47.5547
21
27.5149
0
LINE
8
BLACK
6
CONTINUOUS
10
47.5547
20
27.5149
11
47.5324
21
27.3559
0
LINE
8
BLACK
6
CONTINUOUS
10
47.5324
20
27.3559
11
47.4754
21
27.2059
0
LINE
8
BLACK
6
CONTINUOUS
10
47.4754
20
27.2059
11
47.3866
21
27.0722
0
LINE
8
BLACK
6
CONTINUOUS
10
47.3866
20
27.0722
11
47.2703
21
26.9615
0
LINE
8
BLACK
6
CONTINUOUS
10
47.2703
20
26.9615
11
47.1324
21
26.8793
0
LINE
8
BLACK
6
CONTINUOUS
10
47.1324
20
26.8793
11
46.9798
21
26.8297
0
LINE
8
BLACK
6
CONTINUOUS
10
46.9798
20
26.8297
11
46.8199
21
26.8152
0
LINE
8
BLACK
6
CONTINUOUS
10
46.8199
20
26.8152
11
46.6608
21
26.8364
0
LINE
8
BLACK
6
CONTINUOUS
10
46.6608
20
26.8364
11
46.5104
21
26.8923
0
LINE
8
BLACK
6
CONTINUOUS
10
46.5104
20
26.8923
11
46.3761
21
26.9802
0
LINE
8
BLACK
6
CONTINUOUS
10
46.3761
20
26.9802
11
46.2646
21
27.0957
0
LINE
8
BLACK
6
CONTINUOUS
10
46.2646
20
27.0957
11
46.1814
21
27.233
0
LINE
8
BLACK
6
CONTINUOUS
10
46.1814
20
27.233
11
46.1307
21
27.3853
0
LINE
8
BLACK
6
CONTINUOUS
10
46.1307
20
27.3853
11
46.1151
21
27.5451
0
LINE
8
BLACK
6
CONTINUOUS
10
46.1151
20
27.5451
11
46.1352
21
27.7043
0
LINE
8
BLACK
6
CONTINUOUS
10
46.1352
20
27.7043
11
46.1901
21
27.8551
0
LINE
8
BLACK
6
CONTINUOUS
10
46.1901
20
27.8551
11
46.277
21
27.9901
0
LINE
8
BLACK
6
CONTINUOUS
10
46.277
20
27.9901
11
46.3917
21
28.1024
0
LINE
8
BLACK
6
CONTINUOUS
10
46.3917
20
28.1024
11
46.5284
21
28.1865
0
LINE
8
BLACK
6
CONTINUOUS
10
46.5284
20
28.1865
11
46.6804
21
28.2382
0
LINE
8
BLACK
6
CONTINUOUS
10
46.6804
20
28.2382
11
46.84
21
28.255
0
LINE
8
BLACK
6
CONTINUOUS
10
46.84
20
28.255
11
46.9994
21
28.236
0
LINE
8
BLACK
6
CONTINUOUS
10
49.5394
20
28.236
11
49.6906
21
28.1821
0
LINE
8
BLACK
6
CONTINUOUS
10
49.6906
20
28.1821
11
49.8262
21
28.0961
0
LINE
8
BLACK
6
CONTINUOUS
10
49.8262
20
28.0961
11
49.9393
21
27.9822
0
LINE
8
BLACK
6
CONTINUOUS
10
49.9393
20
27.9822
11
50.0243
21
27.8461
0
LINE
8
BLACK
6
CONTINUOUS
10
50.0243
20
27.8461
11
50.0771
21
27.6945
0
LINE
8
BLACK
6
CONTINUOUS
10
50.0771
20
27.6945
11
50.095
21
27.535
0
LINE
8
BLACK
6
CONTINUOUS
10
50.095
20
27.535
11
50.0947
21
27.5149
0
LINE
8
BLACK
6
CONTINUOUS
10
50.0947
20
27.5149
11
50.0724
21
27.3559
0
LINE
8
BLACK
6
CONTINUOUS
10
50.0724
20
27.3559
11
50.0154
21
27.2059
0
LINE
8
BLACK
6
CONTINUOUS
10
50.0154
20
27.2059
11
49.9266
21
27.0722
0
LINE
8
BLACK
6
CONTINUOUS
10
49.9266
20
27.0722
11
49.8103
21
26.9615
0
LINE
8
BLACK
6
CONTINUOUS
10
49.8103
20
26.9615
11
49.6724
21
26.8793
0
LINE
8
BLACK
6
CONTINUOUS
10
49.6724
20
26.8793
11
49.5198
21
26.8297
0
LINE
8
BLACK
6
CONTINUOUS
10
49.5198
20
26.8297
11
49.3599
21
26.8152
0
LINE
8
BLACK
6
CONTINUOUS
10
49.3599
20
26.8152
11
49.2008
21
26.8364
0
LINE
8
BLACK
6
CONTINUOUS
10
49.2008
20
26.8364
11
49.0504
21
26.8923
0
LINE
8
BLACK
6
CONTINUOUS
10
49.0504
20
26.8923
11
48.9161
21
26.9802
0
LINE
8
BLACK
6
CONTINUOUS
10
48.9161
20
26.9802
11
48.8046
21
27.0957
0
LINE
8
BLACK
6
CONTINUOUS
10
48.8046
20
27.0957
11
48.7214
21
27.233
0
LINE
8
BLACK
6
CONTINUOUS
10
48.7214
20
27.233
11
48.6707
21
27.3853
0
LINE
8
BLACK
6
CONTINUOUS
10
48.6707
20
27.3853
11
48.6551
21
27.5451
0
LINE
8
BLACK
6
CONTINUOUS
10
48.6551
20
27.5451
11
48.6752
21
27.7043
0
LINE
8
BLACK
6
CONTINUOUS
10
48.6752
20
27.7043
11
48.7301
21
27.8551
0
LINE
8
BLACK
6
CONTINUOUS
10
48.7301
20
27.8551
11
48.817
21
27.9901
0
LINE
8
BLACK
6
CONTINUOUS
10
48.817
20
27.9901
11
48.9317
21
28.1024
0
LINE
8
BLACK
6
CONTINUOUS
10
48.9317
20
28.1024
11
49.0684
21
28.1865
0
LINE
8
BLACK
6
CONTINUOUS
10
49.0684
20
28.1865
11
49.2204
21
28.2382
0
LINE
8
BLACK
6
CONTINUOUS
10
49.2204
20
28.2382
11
49.38
21
28.255
0
LINE
8
BLACK
6
CONTINUOUS
10
49.38
20
28.255
11
49.5394
21
28.236
0
LINE
8
BLACK
6
CONTINUOUS
10
52.0794
20
28.236
11
52.2306
21
28.1821
0
LINE
8
BLACK
6
CONTINUOUS
10
52.2306
20
28.1821
11
52.3662
21
28.0961
0
LINE
8
BLACK
6
CONTINUOUS
10
52.3662
20
28.0961
11
52.4793
21
27.9822
0
LINE
8
BLACK
6
CONTINUOUS
10
52.4793
20
27.9822
11
52.5643
21
27.8461
0
LINE
8
BLACK
6
CONTINUOUS
10
52.5643
20
27.8461
11
52.6171
21
27.6945
0
LINE
8
BLACK
6
CONTINUOUS
10
52.6171
20
27.6945
11
52.635
21
27.535
0
LINE
8
BLACK
6
CONTINUOUS
10
52.635
20
27.535
11
52.6347
21
27.5149
0
LINE
8
BLACK
6
CONTINUOUS
10
52.6347
20
27.5149
11
52.6124
21
27.3559
0
LINE
8
BLACK
6
CONTINUOUS
10
52.6124
20
27.3559
11
52.5554
21
27.2059
0
LINE
8
BLACK
6
CONTINUOUS
10
52.5554
20
27.2059
11
52.4666
21
27.0722
0
LINE
8
BLACK
6
CONTINUOUS
10
52.4666
20
27.0722
11
52.3503
21
26.9615
0
LINE
8
BLACK
6
CONTINUOUS
10
52.3503
20
26.9615
11
52.2124
21
26.8793
0
LINE
8
BLACK
6
CONTINUOUS
10
52.2124
20
26.8793
11
52.0598
21
26.8297
0
LINE
8
BLACK
6
CONTINUOUS
10
52.0598
20
26.8297
11
51.8999
21
26.8152
0
LINE
8
BLACK
6
CONTINUOUS
10
51.8999
20
26.8152
11
51.7408
21
26.8364
0
LINE
8
BLACK
6
CONTINUOUS
10
51.7408
20
26.8364
11
51.5904
21
26.8923
0
LINE
8
BLACK
6
CONTINUOUS
10
51.5904
20
26.8923
11
51.4561
21
26.9802
0
LINE
8
BLACK
6
CONTINUOUS
10
51.4561
20
26.9802
11
51.3446
21
27.0957
0
LINE
8
BLACK
6
CONTINUOUS
10
51.3446
20
27.0957
11
51.2614
21
27.233
0
LINE
8
BLACK
6
CONTINUOUS
10
51.2614
20
27.233
11
51.2107
21
27.3853
0
LINE
8
BLACK
6
CONTINUOUS
10
51.2107
20
27.3853
11
51.1951
21
27.5451
0
LINE
8
BLACK
6
CONTINUOUS
10
51.1951
20
27.5451
11
51.2152
21
27.7043
0
LINE
8
BLACK
6
CONTINUOUS
10
51.2152
20
27.7043
11
51.2701
21
27.8551
0
LINE
8
BLACK
6
CONTINUOUS
10
51.2701
20
27.8551
11
51.357
21
27.9901
0
LINE
8
BLACK
6
CONTINUOUS
10
51.357
20
27.9901
11
51.4717
21
28.1024
0
LINE
8
BLACK
6
CONTINUOUS
10
51.4717
20
28.1024
11
51.6084
21
28.1865
0
LINE
8
BLACK
6
CONTINUOUS
10
51.6084
20
28.1865
11
51.7604
21
28.2382
0
LINE
8
BLACK
6
CONTINUOUS
10
51.7604
20
28.2382
11
51.92
21
28.255
0
LINE
8
BLACK
6
CONTINUOUS
10
51.92
20
28.255
11
52.0794
21
28.236
0
LINE
8
BLACK
6
CONTINUOUS
10
67.9427
20
30.1089
11
68.1107
21
30.049
0
LINE
8
BLACK
6
CONTINUOUS
10
68.1107
20
30.049
11
68.2613
21
29.9535
0
LINE
8
BLACK
6
CONTINUOUS
10
68.2613
20
29.9535
11
68.387
21
29.8269
0
LINE
8
BLACK
6
CONTINUOUS
10
68.387
20
29.8269
11
68.4815
21
29.6757
0
LINE
8
BLACK
6
CONTINUOUS
10
68.4815
20
29.6757
11
68.5401
21
29.5072
0
LINE
8
BLACK
6
CONTINUOUS
10
68.5401
20
29.5072
11
68.56
21
29.33
0
LINE
8
BLACK
6
CONTINUOUS
10
68.56
20
29.33
11
68.5597
21
29.3077
0
LINE
8
BLACK
6
CONTINUOUS
10
68.5597
20
29.3077
11
68.5349
21
29.131
0
LINE
8
BLACK
6
CONTINUOUS
10
68.5349
20
29.131
11
68.4715
21
28.9643
0
LINE
8
BLACK
6
CONTINUOUS
10
68.4715
20
28.9643
11
68.3728
21
28.8158
0
LINE
8
BLACK
6
CONTINUOUS
10
68.3728
20
28.8158
11
68.2437
21
28.6928
0
LINE
8
BLACK
6
CONTINUOUS
10
68.2437
20
28.6928
11
68.0905
21
28.6015
0
LINE
8
BLACK
6
CONTINUOUS
10
68.0905
20
28.6015
11
67.9209
21
28.5463
0
LINE
8
BLACK
6
CONTINUOUS
10
67.9209
20
28.5463
11
67.7432
21
28.5302
0
LINE
8
BLACK
6
CONTINUOUS
10
67.7432
20
28.5302
11
67.5665
21
28.5538
0
LINE
8
BLACK
6
CONTINUOUS
10
67.5665
20
28.5538
11
67.3993
21
28.6159
0
LINE
8
BLACK
6
CONTINUOUS
10
67.3993
20
28.6159
11
67.2501
21
28.7136
0
LINE
8
BLACK
6
CONTINUOUS
10
67.2501
20
28.7136
11
67.1262
21
28.8419
0
LINE
8
BLACK
6
CONTINUOUS
10
67.1262
20
28.8419
11
67.0338
21
28.9944
0
LINE
8
BLACK
6
CONTINUOUS
10
67.0338
20
28.9944
11
66.9775
21
29.1637
0
LINE
8
BLACK
6
CONTINUOUS
10
66.9775
20
29.1637
11
66.9601
21
29.3412
0
LINE
8
BLACK
6
CONTINUOUS
10
66.9601
20
29.3412
11
66.9824
21
29.5181
0
LINE
8
BLACK
6
CONTINUOUS
10
66.9824
20
29.5181
11
67.0434
21
29.6857
0
LINE
8
BLACK
6
CONTINUOUS
10
67.0434
20
29.6857
11
67.14
21
29.8356
0
LINE
8
BLACK
6
CONTINUOUS
10
67.14
20
29.8356
11
67.2675
21
29.9604
0
LINE
8
BLACK
6
CONTINUOUS
10
67.2675
20
29.9604
11
67.4194
21
30.0539
0
LINE
8
BLACK
6
CONTINUOUS
10
67.4194
20
30.0539
11
67.5882
21
30.1113
0
LINE
8
BLACK
6
CONTINUOUS
10
67.5882
20
30.1113
11
67.7656
21
30.13
0
LINE
8
BLACK
6
CONTINUOUS
10
67.7656
20
30.13
11
67.9427
21
30.1089
0
LINE
8
BLACK
6
CONTINUOUS
10
60.3227
20
30.1089
11
60.4907
21
30.049
0
LINE
8
BLACK
6
CONTINUOUS
10
60.4907
20
30.049
11
60.6413
21
29.9535
0
LINE
8
BLACK
6
CONTINUOUS
10
60.6413
20
29.9535
11
60.767
21
29.8269
0
LINE
8
BLACK
6
CONTINUOUS
10
60.767
20
29.8269
11
60.8615
21
29.6757
0
LINE
8
BLACK
6
CONTINUOUS
10
60.8615
20
29.6757
11
60.9201
21
29.5072
0
LINE
8
BLACK
6
CONTINUOUS
10
60.9201
20
29.5072
11
60.94
21
29.33
0
LINE
8
BLACK
6
CONTINUOUS
10
60.94
20
29.33
11
60.9397
21
29.3077
0
LINE
8
BLACK
6
CONTINUOUS
10
60.9397
20
29.3077
11
60.9149
21
29.131
0
LINE
8
BLACK
6
CONTINUOUS
10
60.9149
20
29.131
11
60.8515
21
28.9643
0
LINE
8
BLACK
6
CONTINUOUS
10
60.8515
20
28.9643
11
60.7528
21
28.8158
0
LINE
8
BLACK
6
CONTINUOUS
10
60.7528
20
28.8158
11
60.6237
21
28.6928
0
LINE
8
BLACK
6
CONTINUOUS
10
60.6237
20
28.6928
11
60.4705
21
28.6015
0
LINE
8
BLACK
6
CONTINUOUS
10
60.4705
20
28.6015
11
60.3009
21
28.5463
0
LINE
8
BLACK
6
CONTINUOUS
10
60.3009
20
28.5463
11
60.1232
21
28.5302
0
LINE
8
BLACK
6
CONTINUOUS
10
60.1232
20
28.5302
11
59.9465
21
28.5538
0
LINE
8
BLACK
6
CONTINUOUS
10
59.9465
20
28.5538
11
59.7793
21
28.6159
0
LINE
8
BLACK
6
CONTINUOUS
10
59.7793
20
28.6159
11
59.6301
21
28.7136
0
LINE
8
BLACK
6
CONTINUOUS
10
59.6301
20
28.7136
11
59.5062
21
28.8419
0
LINE
8
BLACK
6
CONTINUOUS
10
59.5062
20
28.8419
11
59.4138
21
28.9944
0
LINE
8
BLACK
6
CONTINUOUS
10
59.4138
20
28.9944
11
59.3575
21
29.1637
0
LINE
8
BLACK
6
CONTINUOUS
10
59.3575
20
29.1637
11
59.3401
21
29.3412
0
LINE
8
BLACK
6
CONTINUOUS
10
59.3401
20
29.3412
11
59.3624
21
29.5181
0
LINE
8
BLACK
6
CONTINUOUS
10
59.3624
20
29.5181
11
59.4234
21
29.6857
0
LINE
8
BLACK
6
CONTINUOUS
10
59.4234
20
29.6857
11
59.52
21
29.8356
0
LINE
8
BLACK
6
CONTINUOUS
10
59.52
20
29.8356
11
59.6475
21
29.9604
0
LINE
8
BLACK
6
CONTINUOUS
10
59.6475
20
29.9604
11
59.7994
21
30.0539
0
LINE
8
BLACK
6
CONTINUOUS
10
59.7994
20
30.0539
11
59.9682
21
30.1113
0
LINE
8
BLACK
6
CONTINUOUS
10
59.9682
20
30.1113
11
60.1456
21
30.13
0
LINE
8
BLACK
6
CONTINUOUS
10
60.1456
20
30.13
11
60.3227
21
30.1089
0
LINE
8
BLACK
6
CONTINUOUS
10
74.46
20
29.62
11
72.66
21
29.62
0
LINE
8
BLACK
6
CONTINUOUS
10
72.66
20
29.62
11
72.66
21
31.42
0
LINE
8
BLACK
6
CONTINUOUS
10
72.66
20
31.42
11
74.46
21
31.42
0
LINE
8
BLACK
6
CONTINUOUS
10
74.46
20
31.42
11
74.46
21
29.62
0
LINE
8
BLACK
6
CONTINUOUS
10
76.3781
20
31.376
11
76.55
21
31.2994
0
LINE
8
BLACK
6
CONTINUOUS
10
76.55
20
31.2994
11
76.7022
21
31.1888
0
LINE
8
BLACK
6
CONTINUOUS
10
76.7022
20
31.1888
11
76.8281
21
31.049
0
LINE
8
BLACK
6
CONTINUOUS
10
76.8281
20
31.049
11
76.9222
21
30.8861
0
LINE
8
BLACK
6
CONTINUOUS
10
76.9222
20
30.8861
11
76.9803
21
30.7071
0
LINE
8
BLACK
6
CONTINUOUS
10
76.9803
20
30.7071
11
77
21
30.52
0
LINE
8
BLACK
6
CONTINUOUS
10
77
20
30.52
11
76.9803
21
30.3329
0
LINE
8
BLACK
6
CONTINUOUS
10
76.9803
20
30.3329
11
76.9222
21
30.1539
0
LINE
8
BLACK
6
CONTINUOUS
10
76.9222
20
30.1539
11
76.8281
21
29.991
0
LINE
8
BLACK
6
CONTINUOUS
10
76.8281
20
29.991
11
76.7022
21
29.8512
0
LINE
8
BLACK
6
CONTINUOUS
10
76.7022
20
29.8512
11
76.55
21
29.7406
0
LINE
8
BLACK
6
CONTINUOUS
10
76.55
20
29.7406
11
76.3781
21
29.664
0
LINE
8
BLACK
6
CONTINUOUS
10
76.3781
20
29.664
11
76.1941
21
29.6249
0
LINE
8
BLACK
6
CONTINUOUS
10
76.1941
20
29.6249
11
76.0059
21
29.6249
0
LINE
8
BLACK
6
CONTINUOUS
10
76.0059
20
29.6249
11
75.8219
21
29.664
0
LINE
8
BLACK
6
CONTINUOUS
10
75.8219
20
29.664
11
75.65
21
29.7406
0
LINE
8
BLACK
6
CONTINUOUS
10
75.65
20
29.7406
11
75.4978
21
29.8512
0
LINE
8
BLACK
6
CONTINUOUS
10
75.4978
20
29.8512
11
75.3719
21
29.991
0
LINE
8
BLACK
6
CONTINUOUS
10
75.3719
20
29.991
11
75.2778
21
30.1539
0
LINE
8
BLACK
6
CONTINUOUS
10
75.2778
20
30.1539
11
75.2197
21
30.3329
0
LINE
8
BLACK
6
CONTINUOUS
10
75.2197
20
30.3329
11
75.2
21
30.52
0
LINE
8
BLACK
6
CONTINUOUS
10
75.2
20
30.52
11
75.2197
21
30.7071
0
LINE
8
BLACK
6
CONTINUOUS
10
75.2197
20
30.7071
11
75.2778
21
30.8861
0
LINE
8
BLACK
6
CONTINUOUS
10
75.2778
20
30.8861
11
75.3719
21
31.049
0
LINE
8
BLACK
6
CONTINUOUS
10
75.3719
20
31.049
11
75.4978
21
31.1888
0
LINE
8
BLACK
6
CONTINUOUS
10
75.4978
20
31.1888
11
75.65
21
31.2994
0
LINE
8
BLACK
6
CONTINUOUS
10
75.65
20
31.2994
11
75.8219
21
31.376
0
LINE
8
BLACK
6
CONTINUOUS
10
75.8219
20
31.376
11
76.0059
21
31.4151
0
LINE
8
BLACK
6
CONTINUOUS
10
76.0059
20
31.4151
11
76.1941
21
31.4151
0
LINE
8
BLACK
6
CONTINUOUS
10
76.1941
20
31.4151
11
76.3781
21
31.376
0
LINE
8
BLACK
6
CONTINUOUS
10
30.0557
20
32.9802
11
30.2746
21
32.9216
0
LINE
8
BLACK
6
CONTINUOUS
10
30.2746
20
32.9216
11
30.48
21
32.8258
0
LINE
8
BLACK
6
CONTINUOUS
10
30.48
20
32.8258
11
30.6656
21
32.6959
0
LINE
8
BLACK
6
CONTINUOUS
10
30.6656
20
32.6959
11
30.8259
21
32.5356
0
LINE
8
BLACK
6
CONTINUOUS
10
30.8259
20
32.5356
11
30.9558
21
32.35
0
LINE
8
BLACK
6
CONTINUOUS
10
30.9558
20
32.35
11
31.0516
21
32.1446
0
LINE
8
BLACK
6
CONTINUOUS
10
31.0516
20
32.1446
11
31.1102
21
31.9257
0
LINE
8
BLACK
6
CONTINUOUS
10
31.1102
20
31.9257
11
31.13
21
31.7
0
LINE
8
BLACK
6
CONTINUOUS
10
31.13
20
31.7
11
31.1102
21
31.4743
0
LINE
8
BLACK
6
CONTINUOUS
10
31.1102
20
31.4743
11
31.0516
21
31.2554
0
LINE
8
BLACK
6
CONTINUOUS
10
31.0516
20
31.2554
11
30.9558
21
31.05
0
LINE
8
BLACK
6
CONTINUOUS
10
30.9558
20
31.05
11
30.8259
21
30.8644
0
LINE
8
BLACK
6
CONTINUOUS
10
30.8259
20
30.8644
11
30.6656
21
30.7041
0
LINE
8
BLACK
6
CONTINUOUS
10
30.6656
20
30.7041
11
30.48
21
30.5742
0
LINE
8
BLACK
6
CONTINUOUS
10
30.48
20
30.5742
11
30.2746
21
30.4784
0
LINE
8
BLACK
6
CONTINUOUS
10
30.2746
20
30.4784
11
30.0557
21
30.4197
0
LINE
8
BLACK
6
CONTINUOUS
10
30.0557
20
30.4197
11
29.83
21
30.4
0
LINE
8
BLACK
6
CONTINUOUS
10
29.83
20
30.4
11
29.6043
21
30.4197
0
LINE
8
BLACK
6
CONTINUOUS
10
29.6043
20
30.4197
11
29.3854
21
30.4784
0
LINE
8
BLACK
6
CONTINUOUS
10
29.3854
20
30.4784
11
29.18
21
30.5742
0
LINE
8
BLACK
6
CONTINUOUS
10
29.18
20
30.5742
11
28.9944
21
30.7041
0
LINE
8
BLACK
6
CONTINUOUS
10
28.9944
20
30.7041
11
28.8341
21
30.8644
0
LINE
8
BLACK
6
CONTINUOUS
10
28.8341
20
30.8644
11
28.7042
21
31.05
0
LINE
8
BLACK
6
CONTINUOUS
10
28.7042
20
31.05
11
28.6084
21
31.2554
0
LINE
8
BLACK
6
CONTINUOUS
10
28.6084
20
31.2554
11
28.5497
21
31.4743
0
LINE
8
BLACK
6
CONTINUOUS
10
28.5497
20
31.4743
11
28.53
21
31.7
0
LINE
8
BLACK
6
CONTINUOUS
10
28.53
20
31.7
11
28.5497
21
31.9257
0
LINE
8
BLACK
6
CONTINUOUS
10
28.5497
20
31.9257
11
28.6084
21
32.1446
0
LINE
8
BLACK
6
CONTINUOUS
10
28.6084
20
32.1446
11
28.7042
21
32.35
0
LINE
8
BLACK
6
CONTINUOUS
10
28.7042
20
32.35
11
28.8341
21
32.5356
0
LINE
8
BLACK
6
CONTINUOUS
10
28.8341
20
32.5356
11
28.9944
21
32.6959
0
LINE
8
BLACK
6
CONTINUOUS
10
28.9944
20
32.6959
11
29.18
21
32.8258
0
LINE
8
BLACK
6
CONTINUOUS
10
29.18
20
32.8258
11
29.3854
21
32.9216
0
LINE
8
BLACK
6
CONTINUOUS
10
29.3854
20
32.9216
11
29.6043
21
32.9802
0
LINE
8
BLACK
6
CONTINUOUS
10
29.6043
20
32.9802
11
29.83
21
33
0
LINE
8
BLACK
6
CONTINUOUS
10
29.83
20
33
11
30.0557
21
32.9802
0
LINE
8
BLACK
6
CONTINUOUS
10
60.3227
20
32.6489
11
60.4907
21
32.589
0
LINE
8
BLACK
6
CONTINUOUS
10
60.4907
20
32.589
11
60.6413
21
32.4935
0
LINE
8
BLACK
6
CONTINUOUS
10
60.6413
20
32.4935
11
60.767
21
32.3669
0
LINE
8
BLACK
6
CONTINUOUS
10
60.767
20
32.3669
11
60.8615
21
32.2157
0
LINE
8
BLACK
6
CONTINUOUS
10
60.8615
20
32.2157
11
60.9201
21
32.0472
0
LINE
8
BLACK
6
CONTINUOUS
10
60.9201
20
32.0472
11
60.94
21
31.87
0
LINE
8
BLACK
6
CONTINUOUS
10
60.94
20
31.87
11
60.9397
21
31.8477
0
LINE
8
BLACK
6
CONTINUOUS
10
60.9397
20
31.8477
11
60.9149
21
31.671
0
LINE
8
BLACK
6
CONTINUOUS
10
60.9149
20
31.671
11
60.8515
21
31.5043
0
LINE
8
BLACK
6
CONTINUOUS
10
60.8515
20
31.5043
11
60.7528
21
31.3558
0
LINE
8
BLACK
6
CONTINUOUS
10
60.7528
20
31.3558
11
60.6237
21
31.2328
0
LINE
8
BLACK
6
CONTINUOUS
10
60.6237
20
31.2328
11
60.4705
21
31.1415
0
LINE
8
BLACK
6
CONTINUOUS
10
60.4705
20
31.1415
11
60.3009
21
31.0863
0
LINE
8
BLACK
6
CONTINUOUS
10
60.3009
20
31.0863
11
60.1232
21
31.0702
0
LINE
8
BLACK
6
CONTINUOUS
10
60.1232
20
31.0702
11
59.9465
21
31.0938
0
LINE
8
BLACK
6
CONTINUOUS
10
59.9465
20
31.0938
11
59.7793
21
31.1559
0
LINE
8
BLACK
6
CONTINUOUS
10
59.7793
20
31.1559
11
59.6301
21
31.2536
0
LINE
8
BLACK
6
CONTINUOUS
10
59.6301
20
31.2536
11
59.5062
21
31.3819
0
LINE
8
BLACK
6
CONTINUOUS
10
59.5062
20
31.3819
11
59.4138
21
31.5344
0
LINE
8
BLACK
6
CONTINUOUS
10
59.4138
20
31.5344
11
59.3575
21
31.7037
0
LINE
8
BLACK
6
CONTINUOUS
10
59.3575
20
31.7037
11
59.3401
21
31.8812
0
LINE
8
BLACK
6
CONTINUOUS
10
59.3401
20
31.8812
11
59.3624
21
32.0581
0
LINE
8
BLACK
6
CONTINUOUS
10
59.3624
20
32.0581
11
59.4234
21
32.2257
0
LINE
8
BLACK
6
CONTINUOUS
10
59.4234
20
32.2257
11
59.52
21
32.3756
0
LINE
8
BLACK
6
CONTINUOUS
10
59.52
20
32.3756
11
59.6475
21
32.5004
0
LINE
8
BLACK
6
CONTINUOUS
10
59.6475
20
32.5004
11
59.7994
21
32.5939
0
LINE
8
BLACK
6
CONTINUOUS
10
59.7994
20
32.5939
11
59.9682
21
32.6513
0
LINE
8
BLACK
6
CONTINUOUS
10
59.9682
20
32.6513
11
60.1456
21
32.67
0
LINE
8
BLACK
6
CONTINUOUS
10
60.1456
20
32.67
11
60.3227
21
32.6489
0
LINE
8
BLACK
6
CONTINUOUS
10
67.9427
20
32.6489
11
68.1107
21
32.589
0
LINE
8
BLACK
6
CONTINUOUS
10
68.1107
20
32.589
11
68.2613
21
32.4935
0
LINE
8
BLACK
6
CONTINUOUS
10
68.2613
20
32.4935
11
68.387
21
32.3669
0
LINE
8
BLACK
6
CONTINUOUS
10
68.387
20
32.3669
11
68.4815
21
32.2157
0
LINE
8
BLACK
6
CONTINUOUS
10
68.4815
20
32.2157
11
68.5401
21
32.0472
0
LINE
8
BLACK
6
CONTINUOUS
10
68.5401
20
32.0472
11
68.56
21
31.87
0
LINE
8
BLACK
6
CONTINUOUS
10
68.56
20
31.87
11
68.5597
21
31.8477
0
LINE
8
BLACK
6
CONTINUOUS
10
68.5597
20
31.8477
11
68.5349
21
31.671
0
LINE
8
BLACK
6
CONTINUOUS
10
68.5349
20
31.671
11
68.4715
21
31.5043
0
LINE
8
BLACK
6
CONTINUOUS
10
68.4715
20
31.5043
11
68.3728
21
31.3558
0
LINE
8
BLACK
6
CONTINUOUS
10
68.3728
20
31.3558
11
68.2437
21
31.2328
0
LINE
8
BLACK
6
CONTINUOUS
10
68.2437
20
31.2328
11
68.0905
21
31.1415
0
LINE
8
BLACK
6
CONTINUOUS
10
68.0905
20
31.1415
11
67.9209
21
31.0863
0
LINE
8
BLACK
6
CONTINUOUS
10
67.9209
20
31.0863
11
67.7432
21
31.0702
0
LINE
8
BLACK
6
CONTINUOUS
10
67.7432
20
31.0702
11
67.5665
21
31.0938
0
LINE
8
BLACK
6
CONTINUOUS
10
67.5665
20
31.0938
11
67.3993
21
31.1559
0
LINE
8
BLACK
6
CONTINUOUS
10
67.3993
20
31.1559
11
67.2501
21
31.2536
0
LINE
8
BLACK
6
CONTINUOUS
10
67.2501
20
31.2536
11
67.1262
21
31.3819
0
LINE
8
BLACK
6
CONTINUOUS
10
67.1262
20
31.3819
11
67.0338
21
31.5344
0
LINE
8
BLACK
6
CONTINUOUS
10
67.0338
20
31.5344
11
66.9775
21
31.7037
0
LINE
8
BLACK
6
CONTINUOUS
10
66.9775
20
31.7037
11
66.9601
21
31.8812
0
LINE
8
BLACK
6
CONTINUOUS
10
66.9601
20
31.8812
11
66.9824
21
32.0581
0
LINE
8
BLACK
6
CONTINUOUS
10
66.9824
20
32.0581
11
67.0434
21
32.2257
0
LINE
8
BLACK
6
CONTINUOUS
10
67.0434
20
32.2257
11
67.14
21
32.3756
0
LINE
8
BLACK
6
CONTINUOUS
10
67.14
20
32.3756
11
67.2675
21
32.5004
0
LINE
8
BLACK
6
CONTINUOUS
10
67.2675
20
32.5004
11
67.4194
21
32.5939
0
LINE
8
BLACK
6
CONTINUOUS
10
67.4194
20
32.5939
11
67.5882
21
32.6513
0
LINE
8
BLACK
6
CONTINUOUS
10
67.5882
20
32.6513
11
67.7656
21
32.67
0
LINE
8
BLACK
6
CONTINUOUS
10
67.7656
20
32.67
11
67.9427
21
32.6489
0
LINE
8
BLACK
6
CONTINUOUS
10
67.9427
20
35.1889
11
68.1107
21
35.129
0
LINE
8
BLACK
6
CONTINUOUS
10
68.1107
20
35.129
11
68.2613
21
35.0335
0
LINE
8
BLACK
6
CONTINUOUS
10
68.2613
20
35.0335
11
68.387
21
34.9069
0
LINE
8
BLACK
6
CONTINUOUS
10
68.387
20
34.9069
11
68.4815
21
34.7557
0
LINE
8
BLACK
6
CONTINUOUS
10
68.4815
20
34.7557
11
68.5401
21
34.5872
0
LINE
8
BLACK
6
CONTINUOUS
10
68.5401
20
34.5872
11
68.56
21
34.41
0
LINE
8
BLACK
6
CONTINUOUS
10
68.56
20
34.41
11
68.5597
21
34.3877
0
LINE
8
BLACK
6
CONTINUOUS
10
68.5597
20
34.3877
11
68.5349
21
34.211
0
LINE
8
BLACK
6
CONTINUOUS
10
68.5349
20
34.211
11
68.4715
21
34.0443
0
LINE
8
BLACK
6
CONTINUOUS
10
68.4715
20
34.0443
11
68.3728
21
33.8958
0
LINE
8
BLACK
6
CONTINUOUS
10
68.3728
20
33.8958
11
68.2437
21
33.7728
0
LINE
8
BLACK
6
CONTINUOUS
10
68.2437
20
33.7728
11
68.0905
21
33.6815
0
LINE
8
BLACK
6
CONTINUOUS
10
68.0905
20
33.6815
11
67.9209
21
33.6263
0
LINE
8
BLACK
6
CONTINUOUS
10
67.9209
20
33.6263
11
67.7432
21
33.6102
0
LINE
8
BLACK
6
CONTINUOUS
10
67.7432
20
33.6102
11
67.5665
21
33.6338
0
LINE
8
BLACK
6
CONTINUOUS
10
67.5665
20
33.6338
11
67.3993
21
33.6959
0
LINE
8
BLACK
6
CONTINUOUS
10
67.3993
20
33.6959
11
67.2501
21
33.7936
0
LINE
8
BLACK
6
CONTINUOUS
10
67.2501
20
33.7936
11
67.1262
21
33.9219
0
LINE
8
BLACK
6
CONTINUOUS
10
67.1262
20
33.9219
11
67.0338
21
34.0744
0
LINE
8
BLACK
6
CONTINUOUS
10
67.0338
20
34.0744
11
66.9775
21
34.2437
0
LINE
8
BLACK
6
CONTINUOUS
10
66.9775
20
34.2437
11
66.9601
21
34.4212
0
LINE
8
BLACK
6
CONTINUOUS
10
66.9601
20
34.4212
11
66.9824
21
34.5981
0
LINE
8
BLACK
6
CONTINUOUS
10
66.9824
20
34.5981
11
67.0434
21
34.7657
0
LINE
8
BLACK
6
CONTINUOUS
10
67.0434
20
34.7657
11
67.14
21
34.9156
0
LINE
8
BLACK
6
CONTINUOUS
10
67.14
20
34.9156
11
67.2675
21
35.0404
0
LINE
8
BLACK
6
CONTINUOUS
10
67.2675
20
35.0404
11
67.4194
21
35.1339
0
LINE
8
BLACK
6
CONTINUOUS
10
67.4194
20
35.1339
11
67.5882
21
35.1913
0
LINE
8
BLACK
6
CONTINUOUS
10
67.5882
20
35.1913
11
67.7656
21
35.21
0
LINE
8
BLACK
6
CONTINUOUS
10
67.7656
20
35.21
11
67.9427
21
35.1889
0
LINE
8
BLACK
6
CONTINUOUS
10
60.3227
20
35.1889
11
60.4907
21
35.129
0
LINE
8
BLACK
6
CONTINUOUS
10
60.4907
20
35.129
11
60.6413
21
35.0335
0
LINE
8
BLACK
6
CONTINUOUS
10
60.6413
20
35.0335
11
60.767
21
34.9069
0
LINE
8
BLACK
6
CONTINUOUS
10
60.767
20
34.9069
11
60.8615
21
34.7557
0
LINE
8
BLACK
6
CONTINUOUS
10
60.8615
20
34.7557
11
60.9201
21
34.5872
0
LINE
8
BLACK
6
CONTINUOUS
10
60.9201
20
34.5872
11
60.94
21
34.41
0
LINE
8
BLACK
6
CONTINUOUS
10
60.94
20
34.41
11
60.9397
21
34.3877
0
LINE
8
BLACK
6
CONTINUOUS
10
60.9397
20
34.3877
11
60.9149
21
34.211
0
LINE
8
BLACK
6
CONTINUOUS
10
60.9149
20
34.211
11
60.8515
21
34.0443
0
LINE
8
BLACK
6
CONTINUOUS
10
60.8515
20
34.0443
11
60.7528
21
33.8958
0
LINE
8
BLACK
6
CONTINUOUS
10
60.7528
20
33.8958
11
60.6237
21
33.7728
0
LINE
8
BLACK
6
CONTINUOUS
10
60.6237
20
33.7728
11
60.4705
21
33.6815
0
LINE
8
BLACK
6
CONTINUOUS
10
60.4705
20
33.6815
11
60.3009
21
33.6263
0
LINE
8
BLACK
6
CONTINUOUS
10
60.3009
20
33.6263
11
60.1232
21
33.6102
0
LINE
8
BLACK
6
CONTINUOUS
10
60.1232
20
33.6102
11
59.9465
21
33.6338
0
LINE
8
BLACK
6
CONTINUOUS
10
59.9465
20
33.6338
11
59.7793
21
33.6959
0
LINE
8
BLACK
6
CONTINUOUS
10
59.7793
20
33.6959
11
59.6301
21
33.7936
0
LINE
8
BLACK
6
CONTINUOUS
10
59.6301
20
33.7936
11
59.5062
21
33.9219
0
LINE
8
BLACK
6
CONTINUOUS
10
59.5062
20
33.9219
11
59.4138
21
34.0744
0
LINE
8
BLACK
6
CONTINUOUS
10
59.4138
20
34.0744
11
59.3575
21
34.2437
0
LINE
8
BLACK
6
CONTINUOUS
10
59.3575
20
34.2437
11
59.3401
21
34.4212
0
LINE
8
BLACK
6
CONTINUOUS
10
59.3401
20
34.4212
11
59.3624
21
34.5981
0
LINE
8
BLACK
6
CONTINUOUS
10
59.3624
20
34.5981
11
59.4234
21
34.7657
0
LINE
8
BLACK
6
CONTINUOUS
10
59.4234
20
34.7657
11
59.52
21
34.9156
0
LINE
8
BLACK
6
CONTINUOUS
10
59.52
20
34.9156
11
59.6475
21
35.0404
0
LINE
8
BLACK
6
CONTINUOUS
10
59.6475
20
35.0404
11
59.7994
21
35.1339
0
LINE
8
BLACK
6
CONTINUOUS
10
59.7994
20
35.1339
11
59.9682
21
35.1913
0
LINE
8
BLACK
6
CONTINUOUS
10
59.9682
20
35.1913
11
60.1456
21
35.21
0
LINE
8
BLACK
6
CONTINUOUS
10
60.1456
20
35.21
11
60.3227
21
35.1889
0
LINE
8
BLACK
6
CONTINUOUS
10
49.5694
20
35.326
11
49.7206
21
35.2721
0
LINE
8
BLACK
6
CONTINUOUS
10
49.7206
20
35.2721
11
49.8562
21
35.1861
0
LINE
8
BLACK
6
CONTINUOUS
10
49.8562
20
35.1861
11
49.9693
21
35.0722
0
LINE
8
BLACK
6
CONTINUOUS
10
49.9693
20
35.0722
11
50.0543
21
34.9361
0
LINE
8
BLACK
6
CONTINUOUS
10
50.0543
20
34.9361
11
50.1071
21
34.7845
0
LINE
8
BLACK
6
CONTINUOUS
10
50.1071
20
34.7845
11
50.125
21
34.625
0
LINE
8
BLACK
6
CONTINUOUS
10
50.125
20
34.625
11
50.1247
21
34.6049
0
LINE
8
BLACK
6
CONTINUOUS
10
50.1247
20
34.6049
11
50.1024
21
34.4459
0
LINE
8
BLACK
6
CONTINUOUS
10
50.1024
20
34.4459
11
50.0454
21
34.2959
0
LINE
8
BLACK
6
CONTINUOUS
10
50.0454
20
34.2959
11
49.9566
21
34.1622
0
LINE
8
BLACK
6
CONTINUOUS
10
49.9566
20
34.1622
11
49.8403
21
34.0515
0
LINE
8
BLACK
6
CONTINUOUS
10
49.8403
20
34.0515
11
49.7024
21
33.9693
0
LINE
8
BLACK
6
CONTINUOUS
10
49.7024
20
33.9693
11
49.5498
21
33.9197
0
LINE
8
BLACK
6
CONTINUOUS
10
49.5498
20
33.9197
11
49.3899
21
33.9052
0
LINE
8
BLACK
6
CONTINUOUS
10
49.3899
20
33.9052
11
49.2308
21
33.9264
0
LINE
8
BLACK
6
CONTINUOUS
10
49.2308
20
33.9264
11
49.0804
21
33.9823
0
LINE
8
BLACK
6
CONTINUOUS
10
49.0804
20
33.9823
11
48.9461
21
34.0702
0
LINE
8
BLACK
6
CONTINUOUS
10
48.9461
20
34.0702
11
48.8346
21
34.1857
0
LINE
8
BLACK
6
CONTINUOUS
10
48.8346
20
34.1857
11
48.7514
21
34.323
0
LINE
8
BLACK
6
CONTINUOUS
10
48.7514
20
34.323
11
48.7007
21
34.4753
0
LINE
8
BLACK
6
CONTINUOUS
10
48.7007
20
34.4753
11
48.6851
21
34.6351
0
LINE
8
BLACK
6
CONTINUOUS
10
48.6851
20
34.6351
11
48.7052
21
34.7943
0
LINE
8
BLACK
6
CONTINUOUS
10
48.7052
20
34.7943
11
48.7601
21
34.9451
0
LINE
8
BLACK
6
CONTINUOUS
10
48.7601
20
34.9451
11
48.847
21
35.0801
0
LINE
8
BLACK
6
CONTINUOUS
10
48.847
20
35.0801
11
48.9617
21
35.1924
0
LINE
8
BLACK
6
CONTINUOUS
10
48.9617
20
35.1924
11
49.0984
21
35.2765
0
LINE
8
BLACK
6
CONTINUOUS
10
49.0984
20
35.2765
11
49.2504
21
35.3282
0
LINE
8
BLACK
6
CONTINUOUS
10
49.2504
20
35.3282
11
49.41
21
35.345
0
LINE
8
BLACK
6
CONTINUOUS
10
49.41
20
35.345
11
49.5694
21
35.326
0
LINE
8
BLACK
6
CONTINUOUS
10
52.1094
20
35.326
11
52.2606
21
35.2721
0
LINE
8
BLACK
6
CONTINUOUS
10
52.2606
20
35.2721
11
52.3962
21
35.1861
0
LINE
8
BLACK
6
CONTINUOUS
10
52.3962
20
35.1861
11
52.5093
21
35.0722
0
LINE
8
BLACK
6
CONTINUOUS
10
52.5093
20
35.0722
11
52.5943
21
34.9361
0
LINE
8
BLACK
6
CONTINUOUS
10
52.5943
20
34.9361
11
52.6471
21
34.7845
0
LINE
8
BLACK
6
CONTINUOUS
10
52.6471
20
34.7845
11
52.665
21
34.625
0
LINE
8
BLACK
6
CONTINUOUS
10
52.665
20
34.625
11
52.6647
21
34.6049
0
LINE
8
BLACK
6
CONTINUOUS
10
52.6647
20
34.6049
11
52.6424
21
34.4459
0
LINE
8
BLACK
6
CONTINUOUS
10
52.6424
20
34.4459
11
52.5854
21
34.2959
0
LINE
8
BLACK
6
CONTINUOUS
10
52.5854
20
34.2959
11
52.4966
21
34.1622
0
LINE
8
BLACK
6
CONTINUOUS
10
52.4966
20
34.1622
11
52.3803
21
34.0515
0
LINE
8
BLACK
6
CONTINUOUS
10
52.3803
20
34.0515
11
52.2424
21
33.9693
0
LINE
8
BLACK
6
CONTINUOUS
10
52.2424
20
33.9693
11
52.0898
21
33.9197
0
LINE
8
BLACK
6
CONTINUOUS
10
52.0898
20
33.9197
11
51.9299
21
33.9052
0
LINE
8
BLACK
6
CONTINUOUS
10
51.9299
20
33.9052
11
51.7708
21
33.9264
0
LINE
8
BLACK
6
CONTINUOUS
10
51.7708
20
33.9264
11
51.6204
21
33.9823
0
LINE
8
BLACK
6
CONTINUOUS
10
51.6204
20
33.9823
11
51.4861
21
34.0702
0
LINE
8
BLACK
6
CONTINUOUS
10
51.4861
20
34.0702
11
51.3746
21
34.1857
0
LINE
8
BLACK
6
CONTINUOUS
10
51.3746
20
34.1857
11
51.2914
21
34.323
0
LINE
8
BLACK
6
CONTINUOUS
10
51.2914
20
34.323
11
51.2407
21
34.4753
0
LINE
8
BLACK
6
CONTINUOUS
10
51.2407
20
34.4753
11
51.2251
21
34.6351
0
LINE
8
BLACK
6
CONTINUOUS
10
51.2251
20
34.6351
11
51.2452
21
34.7943
0
LINE
8
BLACK
6
CONTINUOUS
10
51.2452
20
34.7943
11
51.3001
21
34.9451
0
LINE
8
BLACK
6
CONTINUOUS
10
51.3001
20
34.9451
11
51.387
21
35.0801
0
LINE
8
BLACK
6
CONTINUOUS
10
51.387
20
35.0801
11
51.5017
21
35.1924
0
LINE
8
BLACK
6
CONTINUOUS
10
51.5017
20
35.1924
11
51.6384
21
35.2765
0
LINE
8
BLACK
6
CONTINUOUS
10
51.6384
20
35.2765
11
51.7904
21
35.3282
0
LINE
8
BLACK
6
CONTINUOUS
10
51.7904
20
35.3282
11
51.95
21
35.345
0
LINE
8
BLACK
6
CONTINUOUS
10
51.95
20
35.345
11
52.1094
21
35.326
0
LINE
8
BLACK
6
CONTINUOUS
10
47.0294
20
35.326
11
47.1806
21
35.2721
0
LINE
8
BLACK
6
CONTINUOUS
10
47.1806
20
35.2721
11
47.3162
21
35.1861
0
LINE
8
BLACK
6
CONTINUOUS
10
47.3162
20
35.1861
11
47.4293
21
35.0722
0
LINE
8
BLACK
6
CONTINUOUS
10
47.4293
20
35.0722
11
47.5143
21
34.9361
0
LINE
8
BLACK
6
CONTINUOUS
10
47.5143
20
34.9361
11
47.5671
21
34.7845
0
LINE
8
BLACK
6
CONTINUOUS
10
47.5671
20
34.7845
11
47.585
21
34.625
0
LINE
8
BLACK
6
CONTINUOUS
10
47.585
20
34.625
11
47.5847
21
34.6049
0
LINE
8
BLACK
6
CONTINUOUS
10
47.5847
20
34.6049
11
47.5624
21
34.4459
0
LINE
8
BLACK
6
CONTINUOUS
10
47.5624
20
34.4459
11
47.5054
21
34.2959
0
LINE
8
BLACK
6
CONTINUOUS
10
47.5054
20
34.2959
11
47.4166
21
34.1622
0
LINE
8
BLACK
6
CONTINUOUS
10
47.4166
20
34.1622
11
47.3003
21
34.0515
0
LINE
8
BLACK
6
CONTINUOUS
10
47.3003
20
34.0515
11
47.1624
21
33.9693
0
LINE
8
BLACK
6
CONTINUOUS
10
47.1624
20
33.9693
11
47.0098
21
33.9197
0
LINE
8
BLACK
6
CONTINUOUS
10
47.0098
20
33.9197
11
46.8499
21
33.9052
0
LINE
8
BLACK
6
CONTINUOUS
10
46.8499
20
33.9052
11
46.6908
21
33.9264
0
LINE
8
BLACK
6
CONTINUOUS
10
46.6908
20
33.9264
11
46.5404
21
33.9823
0
LINE
8
BLACK
6
CONTINUOUS
10
46.5404
20
33.9823
11
46.4061
21
34.0702
0
LINE
8
BLACK
6
CONTINUOUS
10
46.4061
20
34.0702
11
46.2946
21
34.1857
0
LINE
8
BLACK
6
CONTINUOUS
10
46.2946
20
34.1857
11
46.2114
21
34.323
0
LINE
8
BLACK
6
CONTINUOUS
10
46.2114
20
34.323
11
46.1607
21
34.4753
0
LINE
8
BLACK
6
CONTINUOUS
10
46.1607
20
34.4753
11
46.1451
21
34.6351
0
LINE
8
BLACK
6
CONTINUOUS
10
46.1451
20
34.6351
11
46.1652
21
34.7943
0
LINE
8
BLACK
6
CONTINUOUS
10
46.1652
20
34.7943
11
46.2201
21
34.9451
0
LINE
8
BLACK
6
CONTINUOUS
10
46.2201
20
34.9451
11
46.307
21
35.0801
0
LINE
8
BLACK
6
CONTINUOUS
10
46.307
20
35.0801
11
46.4217
21
35.1924
0
LINE
8
BLACK
6
CONTINUOUS
10
46.4217
20
35.1924
11
46.5584
21
35.2765
0
LINE
8
BLACK
6
CONTINUOUS
10
46.5584
20
35.2765
11
46.7104
21
35.3282
0
LINE
8
BLACK
6
CONTINUOUS
10
46.7104
20
35.3282
11
46.87
21
35.345
0
LINE
8
BLACK
6
CONTINUOUS
10
46.87
20
35.345
11
47.0294
21
35.326
0
LINE
8
BLACK
6
CONTINUOUS
10
74.46
20
34.195
11
72.66
21
34.195
0
LINE
8
BLACK
6
CONTINUOUS
10
72.66
20
34.195
11
72.66
21
35.995
0
LINE
8
BLACK
6
CONTINUOUS
10
72.66
20
35.995
11
74.46
21
35.995
0
LINE
8
BLACK
6
CONTINUOUS
10
74.46
20
35.995
11
74.46
21
34.195
0
LINE
8
BLACK
6
CONTINUOUS
10
76.3781
20
35.951
11
76.55
21
35.8744
0
LINE
8
BLACK
6
CONTINUOUS
10
76.55
20
35.8744
11
76.7022
21
35.7638
0
LINE
8
BLACK
6
CONTINUOUS
10
76.7022
20
35.7638
11
76.8281
21
35.624
0
LINE
8
BLACK
6
CONTINUOUS
10
76.8281
20
35.624
11
76.9222
21
35.4611
0
LINE
8
BLACK
6
CONTINUOUS
10
76.9222
20
35.4611
11
76.9803
21
35.2821
0
LINE
8
BLACK
6
CONTINUOUS
10
76.9803
20
35.2821
11
77
21
35.095
0
LINE
8
BLACK
6
CONTINUOUS
10
77
20
35.095
11
76.9803
21
34.9079
0
LINE
8
BLACK
6
CONTINUOUS
10
76.9803
20
34.9079
11
76.9222
21
34.7289
0
LINE
8
BLACK
6
CONTINUOUS
10
76.9222
20
34.7289
11
76.8281
21
34.566
0
LINE
8
BLACK
6
CONTINUOUS
10
76.8281
20
34.566
11
76.7022
21
34.4262
0
LINE
8
BLACK
6
CONTINUOUS
10
76.7022
20
34.4262
11
76.55
21
34.3156
0
LINE
8
BLACK
6
CONTINUOUS
10
76.55
20
34.3156
11
76.3781
21
34.239
0
LINE
8
BLACK
6
CONTINUOUS
10
76.3781
20
34.239
11
76.1941
21
34.1999
0
LINE
8
BLACK
6
CONTINUOUS
10
76.1941
20
34.1999
11
76.0059
21
34.1999
0
LINE
8
BLACK
6
CONTINUOUS
10
76.0059
20
34.1999
11
75.8219
21
34.239
0
LINE
8
BLACK
6
CONTINUOUS
10
75.8219
20
34.239
11
75.65
21
34.3156
0
LINE
8
BLACK
6
CONTINUOUS
10
75.65
20
34.3156
11
75.4978
21
34.4262
0
LINE
8
BLACK
6
CONTINUOUS
10
75.4978
20
34.4262
11
75.3719
21
34.566
0
LINE
8
BLACK
6
CONTINUOUS
10
75.3719
20
34.566
11
75.2778
21
34.7289
0
LINE
8
BLACK
6
CONTINUOUS
10
75.2778
20
34.7289
11
75.2197
21
34.9079
0
LINE
8
BLACK
6
CONTINUOUS
10
75.2197
20
34.9079
11
75.2
21
35.095
0
LINE
8
BLACK
6
CONTINUOUS
10
75.2
20
35.095
11
75.2197
21
35.2821
0
LINE
8
BLACK
6
CONTINUOUS
10
75.2197
20
35.2821
11
75.2778
21
35.4611
0
LINE
8
BLACK
6
CONTINUOUS
10
75.2778
20
35.4611
11
75.3719
21
35.624
0
LINE
8
BLACK
6
CONTINUOUS
10
75.3719
20
35.624
11
75.4978
21
35.7638
0
LINE
8
BLACK
6
CONTINUOUS
10
75.4978
20
35.7638
11
75.65
21
35.8744
0
LINE
8
BLACK
6
CONTINUOUS
10
75.65
20
35.8744
11
75.8219
21
35.951
0
LINE
8
BLACK
6
CONTINUOUS
10
75.8219
20
35.951
11
76.0059
21
35.9901
0
LINE
8
BLACK
6
CONTINUOUS
10
76.0059
20
35.9901
11
76.1941
21
35.9901
0
LINE
8
BLACK
6
CONTINUOUS
10
76.1941
20
35.9901
11
76.3781
21
35.951
0
LINE
8
BLACK
6
CONTINUOUS
10
67.9427
20
37.7289
11
68.1107
21
37.669
0
LINE
8
BLACK
6
CONTINUOUS
10
68.1107
20
37.669
11
68.2613
21
37.5735
0
LINE
8
BLACK
6
CONTINUOUS
10
68.2613
20
37.5735
11
68.387
21
37.4469
0
LINE
8
BLACK
6
CONTINUOUS
10
68.387
20
37.4469
11
68.4815
21
37.2957
0
LINE
8
BLACK
6
CONTINUOUS
10
68.4815
20
37.2957
11
68.5401
21
37.1272
0
LINE
8
BLACK
6
CONTINUOUS
10
68.5401
20
37.1272
11
68.56
21
36.95
0
LINE
8
BLACK
6
CONTINUOUS
10
68.56
20
36.95
11
68.5597
21
36.9277
0
LINE
8
BLACK
6
CONTINUOUS
10
68.5597
20
36.9277
11
68.5349
21
36.751
0
LINE
8
BLACK
6
CONTINUOUS
10
68.5349
20
36.751
11
68.4715
21
36.5843
0
LINE
8
BLACK
6
CONTINUOUS
10
68.4715
20
36.5843
11
68.3728
21
36.4358
0
LINE
8
BLACK
6
CONTINUOUS
10
68.3728
20
36.4358
11
68.2437
21
36.3128
0
LINE
8
BLACK
6
CONTINUOUS
10
68.2437
20
36.3128
11
68.0905
21
36.2215
0
LINE
8
BLACK
6
CONTINUOUS
10
68.0905
20
36.2215
11
67.9209
21
36.1663
0
LINE
8
BLACK
6
CONTINUOUS
10
67.9209
20
36.1663
11
67.7432
21
36.1502
0
LINE
8
BLACK
6
CONTINUOUS
10
67.7432
20
36.1502
11
67.5665
21
36.1738
0
LINE
8
BLACK
6
CONTINUOUS
10
67.5665
20
36.1738
11
67.3993
21
36.2359
0
LINE
8
BLACK
6
CONTINUOUS
10
67.3993
20
36.2359
11
67.2501
21
36.3336
0
LINE
8
BLACK
6
CONTINUOUS
10
67.2501
20
36.3336
11
67.1262
21
36.4619
0
LINE
8
BLACK
6
CONTINUOUS
10
67.1262
20
36.4619
11
67.0338
21
36.6144
0
LINE
8
BLACK
6
CONTINUOUS
10
67.0338
20
36.6144
11
66.9775
21
36.7837
0
LINE
8
BLACK
6
CONTINUOUS
10
66.9775
20
36.7837
11
66.9601
21
36.9612
0
LINE
8
BLACK
6
CONTINUOUS
10
66.9601
20
36.9612
11
66.9824
21
37.1381
0
LINE
8
BLACK
6
CONTINUOUS
10
66.9824
20
37.1381
11
67.0434
21
37.3057
0
LINE
8
BLACK
6
CONTINUOUS
10
67.0434
20
37.3057
11
67.14
21
37.4556
0
LINE
8
BLACK
6
CONTINUOUS
10
67.14
20
37.4556
11
67.2675
21
37.5804
0
LINE
8
BLACK
6
CONTINUOUS
10
67.2675
20
37.5804
11
67.4194
21
37.6739
0
LINE
8
BLACK
6
CONTINUOUS
10
67.4194
20
37.6739
11
67.5882
21
37.7313
0
LINE
8
BLACK
6
CONTINUOUS
10
67.5882
20
37.7313
11
67.7656
21
37.75
0
LINE
8
BLACK
6
CONTINUOUS
10
67.7656
20
37.75
11
67.9427
21
37.7289
0
LINE
8
BLACK
6
CONTINUOUS
10
60.3227
20
37.7289
11
60.4907
21
37.669
0
LINE
8
BLACK
6
CONTINUOUS
10
60.4907
20
37.669
11
60.6413
21
37.5735
0
LINE
8
BLACK
6
CONTINUOUS
10
60.6413
20
37.5735
11
60.767
21
37.4469
0
LINE
8
BLACK
6
CONTINUOUS
10
60.767
20
37.4469
11
60.8615
21
37.2957
0
LINE
8
BLACK
6
CONTINUOUS
10
60.8615
20
37.2957
11
60.9201
21
37.1272
0
LINE
8
BLACK
6
CONTINUOUS
10
60.9201
20
37.1272
11
60.94
21
36.95
0
LINE
8
BLACK
6
CONTINUOUS
10
60.94
20
36.95
11
60.9397
21
36.9277
0
LINE
8
BLACK
6
CONTINUOUS
10
60.9397
20
36.9277
11
60.9149
21
36.751
0
LINE
8
BLACK
6
CONTINUOUS
10
60.9149
20
36.751
11
60.8515
21
36.5843
0
LINE
8
BLACK
6
CONTINUOUS
10
60.8515
20
36.5843
11
60.7528
21
36.4358
0
LINE
8
BLACK
6
CONTINUOUS
10
60.7528
20
36.4358
11
60.6237
21
36.3128
0
LINE
8
BLACK
6
CONTINUOUS
10
60.6237
20
36.3128
11
60.4705
21
36.2215
0
LINE
8
BLACK
6
CONTINUOUS
10
60.4705
20
36.2215
11
60.3009
21
36.1663
0
LINE
8
BLACK
6
CONTINUOUS
10
60.3009
20
36.1663
11
60.1232
21
36.1502
0
LINE
8
BLACK
6
CONTINUOUS
10
60.1232
20
36.1502
11
59.9465
21
36.1738
0
LINE
8
BLACK
6
CONTINUOUS
10
59.9465
20
36.1738
11
59.7793
21
36.2359
0
LINE
8
BLACK
6
CONTINUOUS
10
59.7793
20
36.2359
11
59.6301
21
36.3336
0
LINE
8
BLACK
6
CONTINUOUS
10
59.6301
20
36.3336
11
59.5062
21
36.4619
0
LINE
8
BLACK
6
CONTINUOUS
10
59.5062
20
36.4619
11
59.4138
21
36.6144
0
LINE
8
BLACK
6
CONTINUOUS
10
59.4138
20
36.6144
11
59.3575
21
36.7837
0
LINE
8
BLACK
6
CONTINUOUS
10
59.3575
20
36.7837
11
59.3401
21
36.9612
0
LINE
8
BLACK
6
CONTINUOUS
10
59.3401
20
36.9612
11
59.3624
21
37.1381
0
LINE
8
BLACK
6
CONTINUOUS
10
59.3624
20
37.1381
11
59.4234
21
37.3057
0
LINE
8
BLACK
6
CONTINUOUS
10
59.4234
20
37.3057
11
59.52
21
37.4556
0
LINE
8
BLACK
6
CONTINUOUS
10
59.52
20
37.4556
11
59.6475
21
37.5804
0
LINE
8
BLACK
6
CONTINUOUS
10
59.6475
20
37.5804
11
59.7994
21
37.6739
0
LINE
8
BLACK
6
CONTINUOUS
10
59.7994
20
37.6739
11
59.9682
21
37.7313
0
LINE
8
BLACK
6
CONTINUOUS
10
59.9682
20
37.7313
11
60.1456
21
37.75
0
LINE
8
BLACK
6
CONTINUOUS
10
60.1456
20
37.75
11
60.3227
21
37.7289
0
LINE
8
BLACK
6
CONTINUOUS
10
67.9427
20
40.2689
11
68.1107
21
40.209
0
LINE
8
BLACK
6
CONTINUOUS
10
68.1107
20
40.209
11
68.2613
21
40.1135
0
LINE
8
BLACK
6
CONTINUOUS
10
68.2613
20
40.1135
11
68.387
21
39.9869
0
LINE
8
BLACK
6
CONTINUOUS
10
68.387
20
39.9869
11
68.4815
21
39.8357
0
LINE
8
BLACK
6
CONTINUOUS
10
68.4815
20
39.8357
11
68.5401
21
39.6672
0
LINE
8
BLACK
6
CONTINUOUS
10
68.5401
20
39.6672
11
68.56
21
39.49
0
LINE
8
BLACK
6
CONTINUOUS
10
68.56
20
39.49
11
68.5597
21
39.4677
0
LINE
8
BLACK
6
CONTINUOUS
10
68.5597
20
39.4677
11
68.5349
21
39.291
0
LINE
8
BLACK
6
CONTINUOUS
10
68.5349
20
39.291
11
68.4715
21
39.1243
0
LINE
8
BLACK
6
CONTINUOUS
10
68.4715
20
39.1243
11
68.3728
21
38.9758
0
LINE
8
BLACK
6
CONTINUOUS
10
68.3728
20
38.9758
11
68.2437
21
38.8528
0
LINE
8
BLACK
6
CONTINUOUS
10
68.2437
20
38.8528
11
68.0905
21
38.7615
0
LINE
8
BLACK
6
CONTINUOUS
10
68.0905
20
38.7615
11
67.9209
21
38.7063
0
LINE
8
BLACK
6
CONTINUOUS
10
67.9209
20
38.7063
11
67.7432
21
38.6902
0
LINE
8
BLACK
6
CONTINUOUS
10
67.7432
20
38.6902
11
67.5665
21
38.7138
0
LINE
8
BLACK
6
CONTINUOUS
10
67.5665
20
38.7138
11
67.3993
21
38.7759
0
LINE
8
BLACK
6
CONTINUOUS
10
67.3993
20
38.7759
11
67.2501
21
38.8736
0
LINE
8
BLACK
6
CONTINUOUS
10
67.2501
20
38.8736
11
67.1262
21
39.0019
0
LINE
8
BLACK
6
CONTINUOUS
10
67.1262
20
39.0019
11
67.0338
21
39.1544
0
LINE
8
BLACK
6
CONTINUOUS
10
67.0338
20
39.1544
11
66.9775
21
39.3237
0
LINE
8
BLACK
6
CONTINUOUS
10
66.9775
20
39.3237
11
66.9601
21
39.5012
0
LINE
8
BLACK
6
CONTINUOUS
10
66.9601
20
39.5012
11
66.9824
21
39.6781
0
LINE
8
BLACK
6
CONTINUOUS
10
66.9824
20
39.6781
11
67.0434
21
39.8457
0
LINE
8
BLACK
6
CONTINUOUS
10
67.0434
20
39.8457
11
67.14
21
39.9956
0
LINE
8
BLACK
6
CONTINUOUS
10
67.14
20
39.9956
11
67.2675
21
40.1204
0
LINE
8
BLACK
6
CONTINUOUS
10
67.2675
20
40.1204
11
67.4194
21
40.2139
0
LINE
8
BLACK
6
CONTINUOUS
10
67.4194
20
40.2139
11
67.5882
21
40.2713
0
LINE
8
BLACK
6
CONTINUOUS
10
67.5882
20
40.2713
11
67.7656
21
40.29
0
LINE
8
BLACK
6
CONTINUOUS
10
67.7656
20
40.29
11
67.9427
21
40.2689
0
LINE
8
BLACK
6
CONTINUOUS
10
60.3227
20
40.2689
11
60.4907
21
40.209
0
LINE
8
BLACK
6
CONTINUOUS
10
60.4907
20
40.209
11
60.6413
21
40.1135
0
LINE
8
BLACK
6
CONTINUOUS
10
60.6413
20
40.1135
11
60.767
21
39.9869
0
LINE
8
BLACK
6
CONTINUOUS
10
60.767
20
39.9869
11
60.8615
21
39.8357
0
LINE
8
BLACK
6
CONTINUOUS
10
60.8615
20
39.8357
11
60.9201
21
39.6672
0
LINE
8
BLACK
6
CONTINUOUS
10
60.9201
20
39.6672
11
60.94
21
39.49
0
LINE
8
BLACK
6
CONTINUOUS
10
60.94
20
39.49
11
60.9397
21
39.4677
0
LINE
8
BLACK
6
CONTINUOUS
10
60.9397
20
39.4677
11
60.9149
21
39.291
0
LINE
8
BLACK
6
CONTINUOUS
10
60.9149
20
39.291
11
60.8515
21
39.1243
0
LINE
8
BLACK
6
CONTINUOUS
10
60.8515
20
39.1243
11
60.7528
21
38.9758
0
LINE
8
BLACK
6
CONTINUOUS
10
60.7528
20
38.9758
11
60.6237
21
38.8528
0
LINE
8
BLACK
6
CONTINUOUS
10
60.6237
20
38.8528
11
60.4705
21
38.7615
0
LINE
8
BLACK
6
CONTINUOUS
10
60.4705
20
38.7615
11
60.3009
21
38.7063
0
LINE
8
BLACK
6
CONTINUOUS
10
60.3009
20
38.7063
11
60.1232
21
38.6902
0
LINE
8
BLACK
6
CONTINUOUS
10
60.1232
20
38.6902
11
59.9465
21
38.7138
0
LINE
8
BLACK
6
CONTINUOUS
10
59.9465
20
38.7138
11
59.7793
21
38.7759
0
LINE
8
BLACK
6
CONTINUOUS
10
59.7793
20
38.7759
11
59.6301
21
38.8736
0
LINE
8
BLACK
6
CONTINUOUS
10
59.6301
20
38.8736
11
59.5062
21
39.0019
0
LINE
8
BLACK
6
CONTINUOUS
10
59.5062
20
39.0019
11
59.4138
21
39.1544
0
LINE
8
BLACK
6
CONTINUOUS
10
59.4138
20
39.1544
11
59.3575
21
39.3237
0
LINE
8
BLACK
6
CONTINUOUS
10
59.3575
20
39.3237
11
59.3401
21
39.5012
0
LINE
8
BLACK
6
CONTINUOUS
10
59.3401
20
39.5012
11
59.3624
21
39.6781
0
LINE
8
BLACK
6
CONTINUOUS
10
59.3624
20
39.6781
11
59.4234
21
39.8457
0
LINE
8
BLACK
6
CONTINUOUS
10
59.4234
20
39.8457
11
59.52
21
39.9956
0
LINE
8
BLACK
6
CONTINUOUS
10
59.52
20
39.9956
11
59.6475
21
40.1204
0
LINE
8
BLACK
6
CONTINUOUS
10
59.6475
20
40.1204
11
59.7994
21
40.2139
0
LINE
8
BLACK
6
CONTINUOUS
10
59.7994
20
40.2139
11
59.9682
21
40.2713
0
LINE
8
BLACK
6
CONTINUOUS
10
59.9682
20
40.2713
11
60.1456
21
40.29
0
LINE
8
BLACK
6
CONTINUOUS
10
60.1456
20
40.29
11
60.3227
21
40.2689
0
LINE
8
BLACK
6
CONTINUOUS
10
74.51
20
38.745
11
72.71
21
38.745
0
LINE
8
BLACK
6
CONTINUOUS
10
72.71
20
38.745
11
72.71
21
40.545
0
LINE
8
BLACK
6
CONTINUOUS
10
72.71
20
40.545
11
74.51
21
40.545
0
LINE
8
BLACK
6
CONTINUOUS
10
74.51
20
40.545
11
74.51
21
38.745
0
LINE
8
BLACK
6
CONTINUOUS
10
76.4281
20
40.501
11
76.6
21
40.4244
0
LINE
8
BLACK
6
CONTINUOUS
10
76.6
20
40.4244
11
76.7522
21
40.3138
0
LINE
8
BLACK
6
CONTINUOUS
10
76.7522
20
40.3138
11
76.8781
21
40.174
0
LINE
8
BLACK
6
CONTINUOUS
10
76.8781
20
40.174
11
76.9722
21
40.0111
0
LINE
8
BLACK
6
CONTINUOUS
10
76.9722
20
40.0111
11
77.0303
21
39.8321
0
LINE
8
BLACK
6
CONTINUOUS
10
77.0303
20
39.8321
11
77.05
21
39.645
0
LINE
8
BLACK
6
CONTINUOUS
10
77.05
20
39.645
11
77.0303
21
39.4579
0
LINE
8
BLACK
6
CONTINUOUS
10
77.0303
20
39.4579
11
76.9722
21
39.2789
0
LINE
8
BLACK
6
CONTINUOUS
10
76.9722
20
39.2789
11
76.8781
21
39.116
0
LINE
8
BLACK
6
CONTINUOUS
10
76.8781
20
39.116
11
76.7522
21
38.9762
0
LINE
8
BLACK
6
CONTINUOUS
10
76.7522
20
38.9762
11
76.6
21
38.8656
0
LINE
8
BLACK
6
CONTINUOUS
10
76.6
20
38.8656
11
76.4281
21
38.789
0
LINE
8
BLACK
6
CONTINUOUS
10
76.4281
20
38.789
11
76.2441
21
38.7499
0
LINE
8
BLACK
6
CONTINUOUS
10
76.2441
20
38.7499
11
76.0559
21
38.7499
0
LINE
8
BLACK
6
CONTINUOUS
10
76.0559
20
38.7499
11
75.8719
21
38.789
0
LINE
8
BLACK
6
CONTINUOUS
10
75.8719
20
38.789
11
75.7
21
38.8656
0
LINE
8
BLACK
6
CONTINUOUS
10
75.7
20
38.8656
11
75.5478
21
38.9762
0
LINE
8
BLACK
6
CONTINUOUS
10
75.5478
20
38.9762
11
75.4219
21
39.116
0
LINE
8
BLACK
6
CONTINUOUS
10
75.4219
20
39.116
11
75.3278
21
39.2789
0
LINE
8
BLACK
6
CONTINUOUS
10
75.3278
20
39.2789
11
75.2697
21
39.4579
0
LINE
8
BLACK
6
CONTINUOUS
10
75.2697
20
39.4579
11
75.25
21
39.645
0
LINE
8
BLACK
6
CONTINUOUS
10
75.25
20
39.645
11
75.2697
21
39.8321
0
LINE
8
BLACK
6
CONTINUOUS
10
75.2697
20
39.8321
11
75.3278
21
40.0111
0
LINE
8
BLACK
6
CONTINUOUS
10
75.3278
20
40.0111
11
75.4219
21
40.174
0
LINE
8
BLACK
6
CONTINUOUS
10
75.4219
20
40.174
11
75.5478
21
40.3138
0
LINE
8
BLACK
6
CONTINUOUS
10
75.5478
20
40.3138
11
75.7
21
40.4244
0
LINE
8
BLACK
6
CONTINUOUS
10
75.7
20
40.4244
11
75.8719
21
40.501
0
LINE
8
BLACK
6
CONTINUOUS
10
75.8719
20
40.501
11
76.0559
21
40.5401
0
LINE
8
BLACK
6
CONTINUOUS
10
76.0559
20
40.5401
11
76.2441
21
40.5401
0
LINE
8
BLACK
6
CONTINUOUS
10
76.2441
20
40.5401
11
76.4281
21
40.501
0
LINE
8
BLACK
6
CONTINUOUS
10
53.94
20
39.75
11
52.34
21
39.75
0
LINE
8
BLACK
6
CONTINUOUS
10
52.34
20
39.75
11
52.34
21
41.35
0
LINE
8
BLACK
6
CONTINUOUS
10
52.34
20
41.35
11
53.94
21
41.35
0
LINE
8
BLACK
6
CONTINUOUS
10
53.94
20
41.35
11
53.94
21
39.75
0
LINE
8
BLACK
6
CONTINUOUS
10
45.7027
20
41.3289
11
45.8707
21
41.269
0
LINE
8
BLACK
6
CONTINUOUS
10
45.8707
20
41.269
11
46.0213
21
41.1735
0
LINE
8
BLACK
6
CONTINUOUS
10
46.0213
20
41.1735
11
46.147
21
41.0469
0
LINE
8
BLACK
6
CONTINUOUS
10
46.147
20
41.0469
11
46.2415
21
40.8957
0
LINE
8
BLACK
6
CONTINUOUS
10
46.2415
20
40.8957
11
46.3001
21
40.7272
0
LINE
8
BLACK
6
CONTINUOUS
10
46.3001
20
40.7272
11
46.32
21
40.55
0
LINE
8
BLACK
6
CONTINUOUS
10
46.32
20
40.55
11
46.3197
21
40.5277
0
LINE
8
BLACK
6
CONTINUOUS
10
46.3197
20
40.5277
11
46.2949
21
40.351
0
LINE
8
BLACK
6
CONTINUOUS
10
46.2949
20
40.351
11
46.2315
21
40.1843
0
LINE
8
BLACK
6
CONTINUOUS
10
46.2315
20
40.1843
11
46.1328
21
40.0358
0
LINE
8
BLACK
6
CONTINUOUS
10
46.1328
20
40.0358
11
46.0037
21
39.9128
0
LINE
8
BLACK
6
CONTINUOUS
10
46.0037
20
39.9128
11
45.8505
21
39.8215
0
LINE
8
BLACK
6
CONTINUOUS
10
45.8505
20
39.8215
11
45.6809
21
39.7663
0
LINE
8
BLACK
6
CONTINUOUS
10
45.6809
20
39.7663
11
45.5032
21
39.7502
0
LINE
8
BLACK
6
CONTINUOUS
10
45.5032
20
39.7502
11
45.3265
21
39.7738
0
LINE
8
BLACK
6
CONTINUOUS
10
45.3265
20
39.7738
11
45.1593
21
39.8359
0
LINE
8
BLACK
6
CONTINUOUS
10
45.1593
20
39.8359
11
45.0101
21
39.9336
0
LINE
8
BLACK
6
CONTINUOUS
10
45.0101
20
39.9336
11
44.8862
21
40.0619
0
LINE
8
BLACK
6
CONTINUOUS
10
44.8862
20
40.0619
11
44.7938
21
40.2144
0
LINE
8
BLACK
6
CONTINUOUS
10
44.7938
20
40.2144
11
44.7375
21
40.3837
0
LINE
8
BLACK
6
CONTINUOUS
10
44.7375
20
40.3837
11
44.7201
21
40.5612
0
LINE
8
BLACK
6
CONTINUOUS
10
44.7201
20
40.5612
11
44.7424
21
40.7381
0
LINE
8
BLACK
6
CONTINUOUS
10
44.7424
20
40.7381
11
44.8034
21
40.9057
0
LINE
8
BLACK
6
CONTINUOUS
10
44.8034
20
40.9057
11
44.9
21
41.0556
0
LINE
8
BLACK
6
CONTINUOUS
10
44.9
20
41.0556
11
45.0275
21
41.1804
0
LINE
8
BLACK
6
CONTINUOUS
10
45.0275
20
41.1804
11
45.1794
21
41.2739
0
LINE
8
BLACK
6
CONTINUOUS
10
45.1794
20
41.2739
11
45.3482
21
41.3313
0
LINE
8
BLACK
6
CONTINUOUS
10
45.3482
20
41.3313
11
45.5256
21
41.35
0
LINE
8
BLACK
6
CONTINUOUS
10
45.5256
20
41.35
11
45.7027
21
41.3289
0
LINE
8
BLACK
6
CONTINUOUS
10
60.94
20
41.23
11
59.34
21
41.23
0
LINE
8
BLACK
6
CONTINUOUS
10
59.34
20
41.23
11
59.34
21
42.83
0
LINE
8
BLACK
6
CONTINUOUS
10
59.34
20
42.83
11
60.94
21
42.83
0
LINE
8
BLACK
6
CONTINUOUS
10
60.94
20
42.83
11
60.94
21
41.23
0
LINE
8
BLACK
6
CONTINUOUS
10
67.9427
20
42.8089
11
68.1107
21
42.749
0
LINE
8
BLACK
6
CONTINUOUS
10
68.1107
20
42.749
11
68.2613
21
42.6535
0
LINE
8
BLACK
6
CONTINUOUS
10
68.2613
20
42.6535
11
68.387
21
42.5269
0
LINE
8
BLACK
6
CONTINUOUS
10
68.387
20
42.5269
11
68.4815
21
42.3757
0
LINE
8
BLACK
6
CONTINUOUS
10
68.4815
20
42.3757
11
68.5401
21
42.2072
0
LINE
8
BLACK
6
CONTINUOUS
10
68.5401
20
42.2072
11
68.56
21
42.03
0
LINE
8
BLACK
6
CONTINUOUS
10
68.56
20
42.03
11
68.5597
21
42.0077
0
LINE
8
BLACK
6
CONTINUOUS
10
68.5597
20
42.0077
11
68.5349
21
41.831
0
LINE
8
BLACK
6
CONTINUOUS
10
68.5349
20
41.831
11
68.4715
21
41.6643
0
LINE
8
BLACK
6
CONTINUOUS
10
68.4715
20
41.6643
11
68.3728
21
41.5158
0
LINE
8
BLACK
6
CONTINUOUS
10
68.3728
20
41.5158
11
68.2437
21
41.3928
0
LINE
8
BLACK
6
CONTINUOUS
10
68.2437
20
41.3928
11
68.0905
21
41.3015
0
LINE
8
BLACK
6
CONTINUOUS
10
68.0905
20
41.3015
11
67.9209
21
41.2463
0
LINE
8
BLACK
6
CONTINUOUS
10
67.9209
20
41.2463
11
67.7432
21
41.2302
0
LINE
8
BLACK
6
CONTINUOUS
10
67.7432
20
41.2302
11
67.5665
21
41.2538
0
LINE
8
BLACK
6
CONTINUOUS
10
67.5665
20
41.2538
11
67.3993
21
41.3159
0
LINE
8
BLACK
6
CONTINUOUS
10
67.3993
20
41.3159
11
67.2501
21
41.4136
0
LINE
8
BLACK
6
CONTINUOUS
10
67.2501
20
41.4136
11
67.1262
21
41.5419
0
LINE
8
BLACK
6
CONTINUOUS
10
67.1262
20
41.5419
11
67.0338
21
41.6944
0
LINE
8
BLACK
6
CONTINUOUS
10
67.0338
20
41.6944
11
66.9775
21
41.8637
0
LINE
8
BLACK
6
CONTINUOUS
10
66.9775
20
41.8637
11
66.9601
21
42.0412
0
LINE
8
BLACK
6
CONTINUOUS
10
66.9601
20
42.0412
11
66.9824
21
42.2181
0
LINE
8
BLACK
6
CONTINUOUS
10
66.9824
20
42.2181
11
67.0434
21
42.3857
0
LINE
8
BLACK
6
CONTINUOUS
10
67.0434
20
42.3857
11
67.14
21
42.5356
0
LINE
8
BLACK
6
CONTINUOUS
10
67.14
20
42.5356
11
67.2675
21
42.6604
0
LINE
8
BLACK
6
CONTINUOUS
10
67.2675
20
42.6604
11
67.4194
21
42.7539
0
LINE
8
BLACK
6
CONTINUOUS
10
67.4194
20
42.7539
11
67.5882
21
42.8113
0
LINE
8
BLACK
6
CONTINUOUS
10
67.5882
20
42.8113
11
67.7656
21
42.83
0
LINE
8
BLACK
6
CONTINUOUS
10
67.7656
20
42.83
11
67.9427
21
42.8089
0
LINE
8
BLACK
6
CONTINUOUS
10
74.485
20
43.32
11
72.685
21
43.32
0
LINE
8
BLACK
6
CONTINUOUS
10
72.685
20
43.32
11
72.685
21
45.12
0
LINE
8
BLACK
6
CONTINUOUS
10
72.685
20
45.12
11
74.485
21
45.12
0
LINE
8
BLACK
6
CONTINUOUS
10
74.485
20
45.12
11
74.485
21
43.32
0
LINE
8
BLACK
6
CONTINUOUS
10
76.4031
20
45.076
11
76.575
21
44.9994
0
LINE
8
BLACK
6
CONTINUOUS
10
76.575
20
44.9994
11
76.7272
21
44.8888
0
LINE
8
BLACK
6
CONTINUOUS
10
76.7272
20
44.8888
11
76.8531
21
44.749
0
LINE
8
BLACK
6
CONTINUOUS
10
76.8531
20
44.749
11
76.9472
21
44.5861
0
LINE
8
BLACK
6
CONTINUOUS
10
76.9472
20
44.5861
11
77.0053
21
44.4071
0
LINE
8
BLACK
6
CONTINUOUS
10
77.0053
20
44.4071
11
77.025
21
44.22
0
LINE
8
BLACK
6
CONTINUOUS
10
77.025
20
44.22
11
77.0053
21
44.0329
0
LINE
8
BLACK
6
CONTINUOUS
10
77.0053
20
44.0329
11
76.9472
21
43.8539
0
LINE
8
BLACK
6
CONTINUOUS
10
76.9472
20
43.8539
11
76.8531
21
43.691
0
LINE
8
BLACK
6
CONTINUOUS
10
76.8531
20
43.691
11
76.7272
21
43.5512
0
LINE
8
BLACK
6
CONTINUOUS
10
76.7272
20
43.5512
11
76.575
21
43.4406
0
LINE
8
BLACK
6
CONTINUOUS
10
76.575
20
43.4406
11
76.4031
21
43.364
0
LINE
8
BLACK
6
CONTINUOUS
10
76.4031
20
43.364
11
76.2191
21
43.3249
0
LINE
8
BLACK
6
CONTINUOUS
10
76.2191
20
43.3249
11
76.0309
21
43.3249
0
LINE
8
BLACK
6
CONTINUOUS
10
76.0309
20
43.3249
11
75.8469
21
43.364
0
LINE
8
BLACK
6
CONTINUOUS
10
75.8469
20
43.364
11
75.675
21
43.4406
0
LINE
8
BLACK
6
CONTINUOUS
10
75.675
20
43.4406
11
75.5228
21
43.5512
0
LINE
8
BLACK
6
CONTINUOUS
10
75.5228
20
43.5512
11
75.3969
21
43.691
0
LINE
8
BLACK
6
CONTINUOUS
10
75.3969
20
43.691
11
75.3028
21
43.8539
0
LINE
8
BLACK
6
CONTINUOUS
10
75.3028
20
43.8539
11
75.2447
21
44.0329
0
LINE
8
BLACK
6
CONTINUOUS
10
75.2447
20
44.0329
11
75.225
21
44.22
0
LINE
8
BLACK
6
CONTINUOUS
10
75.225
20
44.22
11
75.2447
21
44.4071
0
LINE
8
BLACK
6
CONTINUOUS
10
75.2447
20
44.4071
11
75.3028
21
44.5861
0
LINE
8
BLACK
6
CONTINUOUS
10
75.3028
20
44.5861
11
75.3969
21
44.749
0
LINE
8
BLACK
6
CONTINUOUS
10
75.3969
20
44.749
11
75.5228
21
44.8888
0
LINE
8
BLACK
6
CONTINUOUS
10
75.5228
20
44.8888
11
75.675
21
44.9994
0
LINE
8
BLACK
6
CONTINUOUS
10
75.675
20
44.9994
11
75.8469
21
45.076
0
LINE
8
BLACK
6
CONTINUOUS
10
75.8469
20
45.076
11
76.0309
21
45.1151
0
LINE
8
BLACK
6
CONTINUOUS
10
76.0309
20
45.1151
11
76.2191
21
45.1151
0
LINE
8
BLACK
6
CONTINUOUS
10
76.2191
20
45.1151
11
76.4031
21
45.076
0
LINE
8
BLACK
6
CONTINUOUS
10
7.85574
20
46.2302
11
8.07463
21
46.1716
0
LINE
8
BLACK
6
CONTINUOUS
10
8.07463
20
46.1716
11
8.28
21
46.0758
0
LINE
8
BLACK
6
CONTINUOUS
10
8.28
20
46.0758
11
8.46562
21
45.9459
0
LINE
8
BLACK
6
CONTINUOUS
10
8.46562
20
45.9459
11
8.62586
21
45.7856
0
LINE
8
BLACK
6
CONTINUOUS
10
8.62586
20
45.7856
11
8.75583
21
45.6
0
LINE
8
BLACK
6
CONTINUOUS
10
8.75583
20
45.6
11
8.8516
21
45.3946
0
LINE
8
BLACK
6
CONTINUOUS
10
8.8516
20
45.3946
11
8.91025
21
45.1757
0
LINE
8
BLACK
6
CONTINUOUS
10
8.91025
20
45.1757
11
8.93
21
44.95
0
LINE
8
BLACK
6
CONTINUOUS
10
8.93
20
44.95
11
8.91025
21
44.7243
0
LINE
8
BLACK
6
CONTINUOUS
10
8.91025
20
44.7243
11
8.8516
21
44.5054
0
LINE
8
BLACK
6
CONTINUOUS
10
8.8516
20
44.5054
11
8.75583
21
44.3
0
LINE
8
BLACK
6
CONTINUOUS
10
8.75583
20
44.3
11
8.62586
21
44.1144
0
LINE
8
BLACK
6
CONTINUOUS
10
8.62586
20
44.1144
11
8.46562
21
43.9541
0
LINE
8
BLACK
6
CONTINUOUS
10
8.46562
20
43.9541
11
8.28
21
43.8242
0
LINE
8
BLACK
6
CONTINUOUS
10
8.28
20
43.8242
11
8.07463
21
43.7284
0
LINE
8
BLACK
6
CONTINUOUS
10
8.07463
20
43.7284
11
7.85574
21
43.6698
0
LINE
8
BLACK
6
CONTINUOUS
10
7.85574
20
43.6698
11
7.63
21
43.65
0
LINE
8
BLACK
6
CONTINUOUS
10
7.63
20
43.65
11
7.40426
21
43.6698
0
LINE
8
BLACK
6
CONTINUOUS
10
7.40426
20
43.6698
11
7.18537
21
43.7284
0
LINE
8
BLACK
6
CONTINUOUS
10
7.18537
20
43.7284
11
6.98
21
43.8242
0
LINE
8
BLACK
6
CONTINUOUS
10
6.98
20
43.8242
11
6.79438
21
43.9541
0
LINE
8
BLACK
6
CONTINUOUS
10
6.79438
20
43.9541
11
6.63414
21
44.1144
0
LINE
8
BLACK
6
CONTINUOUS
10
6.63414
20
44.1144
11
6.50417
21
44.3
0
LINE
8
BLACK
6
CONTINUOUS
10
6.50417
20
44.3
11
6.4084
21
44.5054
0
LINE
8
BLACK
6
CONTINUOUS
10
6.4084
20
44.5054
11
6.34975
21
44.7243
0
LINE
8
BLACK
6
CONTINUOUS
10
6.34975
20
44.7243
11
6.33
21
44.95
0
LINE
8
BLACK
6
CONTINUOUS
10
6.33
20
44.95
11
6.34975
21
45.1757
0
LINE
8
BLACK
6
CONTINUOUS
10
6.34975
20
45.1757
11
6.4084
21
45.3946
0
LINE
8
BLACK
6
CONTINUOUS
10
6.4084
20
45.3946
11
6.50417
21
45.6
0
LINE
8
BLACK
6
CONTINUOUS
10
6.50417
20
45.6
11
6.63414
21
45.7856
0
LINE
8
BLACK
6
CONTINUOUS
10
6.63414
20
45.7856
11
6.79438
21
45.9459
0
LINE
8
BLACK
6
CONTINUOUS
10
6.79438
20
45.9459
11
6.98
21
46.0758
0
LINE
8
BLACK
6
CONTINUOUS
10
6.98
20
46.0758
11
7.18537
21
46.1716
0
LINE
8
BLACK
6
CONTINUOUS
10
7.18537
20
46.1716
11
7.40426
21
46.2302
0
LINE
8
BLACK
6
CONTINUOUS
10
7.40426
20
46.2302
11
7.63
21
46.25
0
LINE
8
BLACK
6
CONTINUOUS
10
7.63
20
46.25
11
7.85574
21
46.2302
0
LINE
8
BLACK
6
CONTINUOUS
10
59.3
20
48.45
11
58.3
21
48.45
0
LINE
8
BLACK
6
CONTINUOUS
10
58.3
20
48.45
11
58.3
21
49.45
0
LINE
8
BLACK
6
CONTINUOUS
10
58.3
20
49.45
11
59.3
21
49.45
0
LINE
8
BLACK
6
CONTINUOUS
10
59.3
20
49.45
11
59.3
21
48.45
0
LINE
8
BLACK
6
CONTINUOUS
10
61.4139
20
49.4445
11
61.5497
21
49.4039
0
LINE
8
BLACK
6
CONTINUOUS
10
61.5497
20
49.4039
11
61.6687
21
49.3268
0
LINE
8
BLACK
6
CONTINUOUS
10
61.6687
20
49.3268
11
61.7612
21
49.2194
0
LINE
8
BLACK
6
CONTINUOUS
10
61.7612
20
49.2194
11
61.8199
21
49.0903
0
LINE
8
BLACK
6
CONTINUOUS
10
61.8199
20
49.0903
11
61.84
21
48.95
0
LINE
8
BLACK
6
CONTINUOUS
10
61.84
20
48.95
11
61.8399
21
48.9378
0
LINE
8
BLACK
6
CONTINUOUS
10
61.8399
20
48.9378
11
61.8163
21
48.798
0
LINE
8
BLACK
6
CONTINUOUS
10
61.8163
20
48.798
11
61.7545
21
48.6704
0
LINE
8
BLACK
6
CONTINUOUS
10
61.7545
20
48.6704
11
61.6594
21
48.5653
0
LINE
8
BLACK
6
CONTINUOUS
10
61.6594
20
48.5653
11
61.5386
21
48.4911
0
LINE
8
BLACK
6
CONTINUOUS
10
61.5386
20
48.4911
11
61.4018
21
48.4538
0
LINE
8
BLACK
6
CONTINUOUS
10
61.4018
20
48.4538
11
61.2601
21
48.4564
0
LINE
8
BLACK
6
CONTINUOUS
10
61.2601
20
48.4564
11
61.1247
21
48.4987
0
LINE
8
BLACK
6
CONTINUOUS
10
61.1247
20
48.4987
11
61.0067
21
48.5773
0
LINE
8
BLACK
6
CONTINUOUS
10
61.0067
20
48.5773
11
60.9155
21
48.6858
0
LINE
8
BLACK
6
CONTINUOUS
10
60.9155
20
48.6858
11
60.8584
21
48.8155
0
LINE
8
BLACK
6
CONTINUOUS
10
60.8584
20
48.8155
11
60.84
21
48.9561
0
LINE
8
BLACK
6
CONTINUOUS
10
60.84
20
48.9561
11
60.8618
21
49.0962
0
LINE
8
BLACK
6
CONTINUOUS
10
60.8618
20
49.0962
11
60.9221
21
49.2245
0
LINE
8
BLACK
6
CONTINUOUS
10
60.9221
20
49.2245
11
61.0159
21
49.3308
0
LINE
8
BLACK
6
CONTINUOUS
10
61.0159
20
49.3308
11
61.1358
21
49.4064
0
LINE
8
BLACK
6
CONTINUOUS
10
61.1358
20
49.4064
11
61.2721
21
49.4454
0
LINE
8
BLACK
6
CONTINUOUS
10
61.2721
20
49.4454
11
61.4139
21
49.4445
0
LINE
8
BLACK
6
CONTINUOUS
10
60.1439
20
49.4445
11
60.2797
21
49.4039
0
LINE
8
BLACK
6
CONTINUOUS
10
60.2797
20
49.4039
11
60.3987
21
49.3268
0
LINE
8
BLACK
6
CONTINUOUS
10
60.3987
20
49.3268
11
60.4912
21
49.2194
0
LINE
8
BLACK
6
CONTINUOUS
10
60.4912
20
49.2194
11
60.5499
21
49.0903
0
LINE
8
BLACK
6
CONTINUOUS
10
60.5499
20
49.0903
11
60.57
21
48.95
0
LINE
8
BLACK
6
CONTINUOUS
10
60.57
20
48.95
11
60.5699
21
48.9378
0
LINE
8
BLACK
6
CONTINUOUS
10
60.5699
20
48.9378
11
60.5463
21
48.798
0
LINE
8
BLACK
6
CONTINUOUS
10
60.5463
20
48.798
11
60.4845
21
48.6704
0
LINE
8
BLACK
6
CONTINUOUS
10
60.4845
20
48.6704
11
60.3894
21
48.5653
0
LINE
8
BLACK
6
CONTINUOUS
10
60.3894
20
48.5653
11
60.2686
21
48.4911
0
LINE
8
BLACK
6
CONTINUOUS
10
60.2686
20
48.4911
11
60.1318
21
48.4538
0
LINE
8
BLACK
6
CONTINUOUS
10
60.1318
20
48.4538
11
59.9901
21
48.4564
0
LINE
8
BLACK
6
CONTINUOUS
10
59.9901
20
48.4564
11
59.8547
21
48.4987
0
LINE
8
BLACK
6
CONTINUOUS
10
59.8547
20
48.4987
11
59.7367
21
48.5773
0
LINE
8
BLACK
6
CONTINUOUS
10
59.7367
20
48.5773
11
59.6455
21
48.6858
0
LINE
8
BLACK
6
CONTINUOUS
10
59.6455
20
48.6858
11
59.5884
21
48.8155
0
LINE
8
BLACK
6
CONTINUOUS
10
59.5884
20
48.8155
11
59.57
21
48.9561
0
LINE
8
BLACK
6
CONTINUOUS
10
59.57
20
48.9561
11
59.5918
21
49.0962
0
LINE
8
BLACK
6
CONTINUOUS
10
59.5918
20
49.0962
11
59.6521
21
49.2245
0
LINE
8
BLACK
6
CONTINUOUS
10
59.6521
20
49.2245
11
59.7459
21
49.3308
0
LINE
8
BLACK
6
CONTINUOUS
10
59.7459
20
49.3308
11
59.8658
21
49.4064
0
LINE
8
BLACK
6
CONTINUOUS
10
59.8658
20
49.4064
11
60.0021
21
49.4454
0
LINE
8
BLACK
6
CONTINUOUS
10
60.0021
20
49.4454
11
60.1439
21
49.4445
0
LINE
8
BLACK
6
CONTINUOUS
10
44.5077
20
50.8139
11
44.6757
21
50.754
0
LINE
8
BLACK
6
CONTINUOUS
10
44.6757
20
50.754
11
44.8263
21
50.6585
0
LINE
8
BLACK
6
CONTINUOUS
10
44.8263
20
50.6585
11
44.952
21
50.5319
0
LINE
8
BLACK
6
CONTINUOUS
10
44.952
20
50.5319
11
45.0465
21
50.3807
0
LINE
8
BLACK
6
CONTINUOUS
10
45.0465
20
50.3807
11
45.1051
21
50.2122
0
LINE
8
BLACK
6
CONTINUOUS
10
45.1051
20
50.2122
11
45.125
21
50.035
0
LINE
8
BLACK
6
CONTINUOUS
10
45.125
20
50.035
11
45.1247
21
50.0127
0
LINE
8
BLACK
6
CONTINUOUS
10
45.1247
20
50.0127
11
45.0999
21
49.836
0
LINE
8
BLACK
6
CONTINUOUS
10
45.0999
20
49.836
11
45.0365
21
49.6693
0
LINE
8
BLACK
6
CONTINUOUS
10
45.0365
20
49.6693
11
44.9378
21
49.5208
0
LINE
8
BLACK
6
CONTINUOUS
10
44.9378
20
49.5208
11
44.8087
21
49.3978
0
LINE
8
BLACK
6
CONTINUOUS
10
44.8087
20
49.3978
11
44.6555
21
49.3065
0
LINE
8
BLACK
6
CONTINUOUS
10
44.6555
20
49.3065
11
44.4859
21
49.2513
0
LINE
8
BLACK
6
CONTINUOUS
10
44.4859
20
49.2513
11
44.3082
21
49.2352
0
LINE
8
BLACK
6
CONTINUOUS
10
44.3082
20
49.2352
11
44.1315
21
49.2588
0
LINE
8
BLACK
6
CONTINUOUS
10
44.1315
20
49.2588
11
43.9643
21
49.3209
0
LINE
8
BLACK
6
CONTINUOUS
10
43.9643
20
49.3209
11
43.8151
21
49.4186
0
LINE
8
BLACK
6
CONTINUOUS
10
43.8151
20
49.4186
11
43.6912
21
49.5469
0
LINE
8
BLACK
6
CONTINUOUS
10
43.6912
20
49.5469
11
43.5988
21
49.6994
0
LINE
8
BLACK
6
CONTINUOUS
10
43.5988
20
49.6994
11
43.5425
21
49.8687
0
LINE
8
BLACK
6
CONTINUOUS
10
43.5425
20
49.8687
11
43.5251
21
50.0462
0
LINE
8
BLACK
6
CONTINUOUS
10
43.5251
20
50.0462
11
43.5474
21
50.2231
0
LINE
8
BLACK
6
CONTINUOUS
10
43.5474
20
50.2231
11
43.6084
21
50.3907
0
LINE
8
BLACK
6
CONTINUOUS
10
43.6084
20
50.3907
11
43.705
21
50.5406
0
LINE
8
BLACK
6
CONTINUOUS
10
43.705
20
50.5406
11
43.8325
21
50.6654
0
LINE
8
BLACK
6
CONTINUOUS
10
43.8325
20
50.6654
11
43.9844
21
50.7589
0
LINE
8
BLACK
6
CONTINUOUS
10
43.9844
20
50.7589
11
44.1532
21
50.8163
0
LINE
8
BLACK
6
CONTINUOUS
10
44.1532
20
50.8163
11
44.3306
21
50.835
0
LINE
8
BLACK
6
CONTINUOUS
10
44.3306
20
50.835
11
44.5077
21
50.8139
0
LINE
8
BLACK
6
CONTINUOUS
10
36.8877
20
50.8139
11
37.0557
21
50.754
0
LINE
8
BLACK
6
CONTINUOUS
10
37.0557
20
50.754
11
37.2063
21
50.6585
0
LINE
8
BLACK
6
CONTINUOUS
10
37.2063
20
50.6585
11
37.332
21
50.5319
0
LINE
8
BLACK
6
CONTINUOUS
10
37.332
20
50.5319
11
37.4265
21
50.3807
0
LINE
8
BLACK
6
CONTINUOUS
10
37.4265
20
50.3807
11
37.4851
21
50.2122
0
LINE
8
BLACK
6
CONTINUOUS
10
37.4851
20
50.2122
11
37.505
21
50.035
0
LINE
8
BLACK
6
CONTINUOUS
10
37.505
20
50.035
11
37.5047
21
50.0127
0
LINE
8
BLACK
6
CONTINUOUS
10
37.5047
20
50.0127
11
37.4799
21
49.836
0
LINE
8
BLACK
6
CONTINUOUS
10
37.4799
20
49.836
11
37.4165
21
49.6693
0
LINE
8
BLACK
6
CONTINUOUS
10
37.4165
20
49.6693
11
37.3178
21
49.5208
0
LINE
8
BLACK
6
CONTINUOUS
10
37.3178
20
49.5208
11
37.1887
21
49.3978
0
LINE
8
BLACK
6
CONTINUOUS
10
37.1887
20
49.3978
11
37.0355
21
49.3065
0
LINE
8
BLACK
6
CONTINUOUS
10
37.0355
20
49.3065
11
36.8659
21
49.2513
0
LINE
8
BLACK
6
CONTINUOUS
10
36.8659
20
49.2513
11
36.6882
21
49.2352
0
LINE
8
BLACK
6
CONTINUOUS
10
36.6882
20
49.2352
11
36.5115
21
49.2588
0
LINE
8
BLACK
6
CONTINUOUS
10
36.5115
20
49.2588
11
36.3443
21
49.3209
0
LINE
8
BLACK
6
CONTINUOUS
10
36.3443
20
49.3209
11
36.1951
21
49.4186
0
LINE
8
BLACK
6
CONTINUOUS
10
36.1951
20
49.4186
11
36.0712
21
49.5469
0
LINE
8
BLACK
6
CONTINUOUS
10
36.0712
20
49.5469
11
35.9788
21
49.6994
0
LINE
8
BLACK
6
CONTINUOUS
10
35.9788
20
49.6994
11
35.9225
21
49.8687
0
LINE
8
BLACK
6
CONTINUOUS
10
35.9225
20
49.8687
11
35.9051
21
50.0462
0
LINE
8
BLACK
6
CONTINUOUS
10
35.9051
20
50.0462
11
35.9274
21
50.2231
0
LINE
8
BLACK
6
CONTINUOUS
10
35.9274
20
50.2231
11
35.9884
21
50.3907
0
LINE
8
BLACK
6
CONTINUOUS
10
35.9884
20
50.3907
11
36.085
21
50.5406
0
LINE
8
BLACK
6
CONTINUOUS
10
36.085
20
50.5406
11
36.2125
21
50.6654
0
LINE
8
BLACK
6
CONTINUOUS
10
36.2125
20
50.6654
11
36.3644
21
50.7589
0
LINE
8
BLACK
6
CONTINUOUS
10
36.3644
20
50.7589
11
36.5332
21
50.8163
0
LINE
8
BLACK
6
CONTINUOUS
10
36.5332
20
50.8163
11
36.7106
21
50.835
0
LINE
8
BLACK
6
CONTINUOUS
10
36.7106
20
50.835
11
36.8877
21
50.8139
0
LINE
8
BLACK
6
CONTINUOUS
10
37.505
20
51.775
11
35.905
21
51.775
0
LINE
8
BLACK
6
CONTINUOUS
10
35.905
20
51.775
11
35.905
21
53.375
0
LINE
8
BLACK
6
CONTINUOUS
10
35.905
20
53.375
11
37.505
21
53.375
0
LINE
8
BLACK
6
CONTINUOUS
10
37.505
20
53.375
11
37.505
21
51.775
0
LINE
8
BLACK
6
CONTINUOUS
10
44.5077
20
53.3539
11
44.6757
21
53.294
0
LINE
8
BLACK
6
CONTINUOUS
10
44.6757
20
53.294
11
44.8263
21
53.1985
0
LINE
8
BLACK
6
CONTINUOUS
10
44.8263
20
53.1985
11
44.952
21
53.0719
0
LINE
8
BLACK
6
CONTINUOUS
10
44.952
20
53.0719
11
45.0465
21
52.9207
0
LINE
8
BLACK
6
CONTINUOUS
10
45.0465
20
52.9207
11
45.1051
21
52.7522
0
LINE
8
BLACK
6
CONTINUOUS
10
45.1051
20
52.7522
11
45.125
21
52.575
0
LINE
8
BLACK
6
CONTINUOUS
10
45.125
20
52.575
11
45.1247
21
52.5527
0
LINE
8
BLACK
6
CONTINUOUS
10
45.1247
20
52.5527
11
45.0999
21
52.376
0
LINE
8
BLACK
6
CONTINUOUS
10
45.0999
20
52.376
11
45.0365
21
52.2093
0
LINE
8
BLACK
6
CONTINUOUS
10
45.0365
20
52.2093
11
44.9378
21
52.0608
0
LINE
8
BLACK
6
CONTINUOUS
10
44.9378
20
52.0608
11
44.8087
21
51.9378
0
LINE
8
BLACK
6
CONTINUOUS
10
44.8087
20
51.9378
11
44.6555
21
51.8465
0
LINE
8
BLACK
6
CONTINUOUS
10
44.6555
20
51.8465
11
44.4859
21
51.7913
0
LINE
8
BLACK
6
CONTINUOUS
10
44.4859
20
51.7913
11
44.3082
21
51.7752
0
LINE
8
BLACK
6
CONTINUOUS
10
44.3082
20
51.7752
11
44.1315
21
51.7988
0
LINE
8
BLACK
6
CONTINUOUS
10
44.1315
20
51.7988
11
43.9643
21
51.8609
0
LINE
8
BLACK
6
CONTINUOUS
10
43.9643
20
51.8609
11
43.8151
21
51.9586
0
LINE
8
BLACK
6
CONTINUOUS
10
43.8151
20
51.9586
11
43.6912
21
52.0869
0
LINE
8
BLACK
6
CONTINUOUS
10
43.6912
20
52.0869
11
43.5988
21
52.2394
0
LINE
8
BLACK
6
CONTINUOUS
10
43.5988
20
52.2394
11
43.5425
21
52.4087
0
LINE
8
BLACK
6
CONTINUOUS
10
43.5425
20
52.4087
11
43.5251
21
52.5862
0
LINE
8
BLACK
6
CONTINUOUS
10
43.5251
20
52.5862
11
43.5474
21
52.7631
0
LINE
8
BLACK
6
CONTINUOUS
10
43.5474
20
52.7631
11
43.6084
21
52.9307
0
LINE
8
BLACK
6
CONTINUOUS
10
43.6084
20
52.9307
11
43.705
21
53.0806
0
LINE
8
BLACK
6
CONTINUOUS
10
43.705
20
53.0806
11
43.8325
21
53.2054
0
LINE
8
BLACK
6
CONTINUOUS
10
43.8325
20
53.2054
11
43.9844
21
53.2989
0
LINE
8
BLACK
6
CONTINUOUS
10
43.9844
20
53.2989
11
44.1532
21
53.3563
0
LINE
8
BLACK
6
CONTINUOUS
10
44.1532
20
53.3563
11
44.3306
21
53.375
0
LINE
8
BLACK
6
CONTINUOUS
10
44.3306
20
53.375
11
44.5077
21
53.3539
0
LINE
8
BLACK
6
CONTINUOUS
10
26.58
20
54.35
11
23.58
21
54.35
0
LINE
8
BLACK
6
CONTINUOUS
10
23.58
20
54.35
11
23.58
21
57.35
0
LINE
8
BLACK
6
CONTINUOUS
10
23.58
20
57.35
11
26.58
21
57.35
0
LINE
8
BLACK
6
CONTINUOUS
10
26.58
20
57.35
11
26.58
21
54.35
0
LINE
8
BLACK
6
CONTINUOUS
10
12.5212
20
57.3433
11
12.7632
21
57.3002
0
LINE
8
BLACK
6
CONTINUOUS
10
12.7632
20
57.3002
11
12.9949
21
57.2182
0
LINE
8
BLACK
6
CONTINUOUS
10
12.9949
20
57.2182
11
13.2101
21
57.0994
0
LINE
8
BLACK
6
CONTINUOUS
10
13.2101
20
57.0994
11
13.403
21
56.947
0
LINE
8
BLACK
6
CONTINUOUS
10
13.403
20
56.947
11
13.5684
21
56.7652
0
LINE
8
BLACK
6
CONTINUOUS
10
13.5684
20
56.7652
11
13.702
21
56.5588
0
LINE
8
BLACK
6
CONTINUOUS
10
13.702
20
56.5588
11
13.8
21
56.3334
0
LINE
8
BLACK
6
CONTINUOUS
10
13.8
20
56.3334
11
13.8599
21
56.095
0
LINE
8
BLACK
6
CONTINUOUS
10
13.8599
20
56.095
11
13.88
21
55.85
0
LINE
8
BLACK
6
CONTINUOUS
10
13.88
20
55.85
11
13.8782
21
55.7767
0
LINE
8
BLACK
6
CONTINUOUS
10
13.8782
20
55.7767
11
13.8461
21
55.533
0
LINE
8
BLACK
6
CONTINUOUS
10
13.8461
20
55.533
11
13.7747
21
55.2978
0
LINE
8
BLACK
6
CONTINUOUS
10
13.7747
20
55.2978
11
13.6658
21
55.0774
0
LINE
8
BLACK
6
CONTINUOUS
10
13.6658
20
55.0774
11
13.5223
21
54.8778
0
LINE
8
BLACK
6
CONTINUOUS
10
13.5223
20
54.8778
11
13.3482
21
54.7043
0
LINE
8
BLACK
6
CONTINUOUS
10
13.3482
20
54.7043
11
13.1481
21
54.5616
0
LINE
8
BLACK
6
CONTINUOUS
10
13.1481
20
54.5616
11
12.9273
21
54.4534
0
LINE
8
BLACK
6
CONTINUOUS
10
12.9273
20
54.4534
11
12.6919
21
54.3828
0
LINE
8
BLACK
6
CONTINUOUS
10
12.6919
20
54.3828
11
12.448
21
54.3515
0
LINE
8
BLACK
6
CONTINUOUS
10
12.448
20
54.3515
11
12.2024
21
54.3606
0
LINE
8
BLACK
6
CONTINUOUS
10
12.2024
20
54.3606
11
11.9615
21
54.4096
0
LINE
8
BLACK
6
CONTINUOUS
10
11.9615
20
54.4096
11
11.7319
21
54.4973
0
LINE
8
BLACK
6
CONTINUOUS
10
11.7319
20
54.4973
11
11.5196
21
54.6213
0
LINE
8
BLACK
6
CONTINUOUS
10
11.5196
20
54.6213
11
11.3305
21
54.7783
0
LINE
8
BLACK
6
CONTINUOUS
10
11.3305
20
54.7783
11
11.1696
21
54.9641
0
LINE
8
BLACK
6
CONTINUOUS
10
11.1696
20
54.9641
11
11.0411
21
55.1737
0
LINE
8
BLACK
6
CONTINUOUS
10
11.0411
20
55.1737
11
10.9486
21
55.4014
0
LINE
8
BLACK
6
CONTINUOUS
10
10.9486
20
55.4014
11
10.8946
21
55.6412
0
LINE
8
BLACK
6
CONTINUOUS
10
10.8946
20
55.6412
11
10.8804
21
55.8866
0
LINE
8
BLACK
6
CONTINUOUS
10
10.8804
20
55.8866
11
10.9066
21
56.1311
0
LINE
8
BLACK
6
CONTINUOUS
10
10.9066
20
56.1311
11
10.9723
21
56.3679
0
LINE
8
BLACK
6
CONTINUOUS
10
10.9723
20
56.3679
11
11.0758
21
56.5909
0
LINE
8
BLACK
6
CONTINUOUS
10
11.0758
20
56.5909
11
11.2143
21
56.794
0
LINE
8
BLACK
6
CONTINUOUS
10
11.2143
20
56.794
11
11.3841
21
56.9717
0
LINE
8
BLACK
6
CONTINUOUS
10
11.3841
20
56.9717
11
11.5807
21
57.1193
0
LINE
8
BLACK
6
CONTINUOUS
10
11.5807
20
57.1193
11
11.7987
21
57.2328
0
LINE
8
BLACK
6
CONTINUOUS
10
11.7987
20
57.2328
11
12.0324
21
57.3092
0
LINE
8
BLACK
6
CONTINUOUS
10
12.0324
20
57.3092
11
12.2754
21
57.3463
0
LINE
8
BLACK
6
CONTINUOUS
10
12.2754
20
57.3463
11
12.5212
21
57.3433
0
LINE
8
BLACK
6
CONTINUOUS
10
66.9679
20
58.5004
11
67.2431
21
58.4366
0
LINE
8
BLACK
6
CONTINUOUS
10
67.2431
20
58.4366
11
67.5066
21
58.3347
0
LINE
8
BLACK
6
CONTINUOUS
10
67.5066
20
58.3347
11
67.753
21
58.1966
0
LINE
8
BLACK
6
CONTINUOUS
10
67.753
20
58.1966
11
67.9776
21
58.0252
0
LINE
8
BLACK
6
CONTINUOUS
10
67.9776
20
58.0252
11
68.1758
21
57.8239
0
LINE
8
BLACK
6
CONTINUOUS
10
68.1758
20
57.8239
11
68.3437
21
57.5967
0
LINE
8
BLACK
6
CONTINUOUS
10
68.3437
20
57.5967
11
68.4778
21
57.348
0
LINE
8
BLACK
6
CONTINUOUS
10
68.4778
20
57.348
11
68.5756
21
57.083
0
LINE
8
BLACK
6
CONTINUOUS
10
68.5756
20
57.083
11
68.635
21
56.8068
0
LINE
8
BLACK
6
CONTINUOUS
10
68.635
20
56.8068
11
68.655
21
56.525
0
LINE
8
BLACK
6
CONTINUOUS
10
68.655
20
56.525
11
68.6511
21
56.3994
0
LINE
8
BLACK
6
CONTINUOUS
10
68.6511
20
56.3994
11
68.6134
21
56.1194
0
LINE
8
BLACK
6
CONTINUOUS
10
68.6134
20
56.1194
11
68.5368
21
55.8475
0
LINE
8
BLACK
6
CONTINUOUS
10
68.5368
20
55.8475
11
68.4225
21
55.5891
0
LINE
8
BLACK
6
CONTINUOUS
10
68.4225
20
55.5891
11
68.273
21
55.3494
0
LINE
8
BLACK
6
CONTINUOUS
10
68.273
20
55.3494
11
68.0913
21
55.1332
0
LINE
8
BLACK
6
CONTINUOUS
10
68.0913
20
55.1332
11
67.8808
21
54.9447
0
LINE
8
BLACK
6
CONTINUOUS
10
67.8808
20
54.9447
11
67.6459
21
54.7877
0
LINE
8
BLACK
6
CONTINUOUS
10
67.6459
20
54.7877
11
67.3912
21
54.6654
0
LINE
8
BLACK
6
CONTINUOUS
10
67.3912
20
54.6654
11
67.1219
21
54.5803
0
LINE
8
BLACK
6
CONTINUOUS
10
67.1219
20
54.5803
11
66.8432
21
54.5339
0
LINE
8
BLACK
6
CONTINUOUS
10
66.8432
20
54.5339
11
66.5608
21
54.5272
0
LINE
8
BLACK
6
CONTINUOUS
10
66.5608
20
54.5272
11
66.2802
21
54.5604
0
LINE
8
BLACK
6
CONTINUOUS
10
66.2802
20
54.5604
11
66.0072
21
54.6328
0
LINE
8
BLACK
6
CONTINUOUS
10
66.0072
20
54.6328
11
65.747
21
54.743
0
LINE
8
BLACK
6
CONTINUOUS
10
65.747
20
54.743
11
65.505
21
54.8887
0
LINE
8
BLACK
6
CONTINUOUS
10
65.505
20
54.8887
11
65.2859
21
55.0671
0
LINE
8
BLACK
6
CONTINUOUS
10
65.2859
20
55.0671
11
65.0941
21
55.2745
0
LINE
8
BLACK
6
CONTINUOUS
10
65.0941
20
55.2745
11
64.9335
21
55.5069
0
LINE
8
BLACK
6
CONTINUOUS
10
64.9335
20
55.5069
11
64.8072
21
55.7596
0
LINE
8
BLACK
6
CONTINUOUS
10
64.8072
20
55.7596
11
64.7178
21
56.0276
0
LINE
8
BLACK
6
CONTINUOUS
10
64.7178
20
56.0276
11
64.6671
21
56.3055
0
LINE
8
BLACK
6
CONTINUOUS
10
64.6671
20
56.3055
11
64.656
21
56.5878
0
LINE
8
BLACK
6
CONTINUOUS
10
64.656
20
56.5878
11
64.6848
21
56.8689
0
LINE
8
BLACK
6
CONTINUOUS
10
64.6848
20
56.8689
11
64.7529
21
57.143
0
LINE
8
BLACK
6
CONTINUOUS
10
64.7529
20
57.143
11
64.8589
21
57.4049
0
LINE
8
BLACK
6
CONTINUOUS
10
64.8589
20
57.4049
11
65.0008
21
57.6492
0
LINE
8
BLACK
6
CONTINUOUS
10
65.0008
20
57.6492
11
65.1757
21
57.871
0
LINE
8
BLACK
6
CONTINUOUS
10
65.1757
20
57.871
11
65.3802
21
58.066
0
LINE
8
BLACK
6
CONTINUOUS
10
65.3802
20
58.066
11
65.61
21
58.2303
0
LINE
8
BLACK
6
CONTINUOUS
10
65.61
20
58.2303
11
65.8607
21
58.3605
0
LINE
8
BLACK
6
CONTINUOUS
10
65.8607
20
58.3605
11
66.1273
21
58.4541
0
LINE
8
BLACK
6
CONTINUOUS
10
66.1273
20
58.4541
11
66.4043
21
58.5092
0
LINE
8
BLACK
6
CONTINUOUS
10
66.4043
20
58.5092
11
66.6864
21
58.5248
0
LINE
8
BLACK
6
CONTINUOUS
10
66.6864
20
58.5248
11
66.9679
21
58.5004
0
LINE
8
BLACK
6
CONTINUOUS
10
56.9179
20
58.5004
11
57.1931
21
58.4366
0
LINE
8
BLACK
6
CONTINUOUS
10
57.1931
20
58.4366
11
57.4566
21
58.3347
0
LINE
8
BLACK
6
CONTINUOUS
10
57.4566
20
58.3347
11
57.703
21
58.1966
0
LINE
8
BLACK
6
CONTINUOUS
10
57.703
20
58.1966
11
57.9276
21
58.0252
0
LINE
8
BLACK
6
CONTINUOUS
10
57.9276
20
58.0252
11
58.1258
21
57.8239
0
LINE
8
BLACK
6
CONTINUOUS
10
58.1258
20
57.8239
11
58.2937
21
57.5967
0
LINE
8
BLACK
6
CONTINUOUS
10
58.2937
20
57.5967
11
58.4278
21
57.348
0
LINE
8
BLACK
6
CONTINUOUS
10
58.4278
20
57.348
11
58.5256
21
57.083
0
LINE
8
BLACK
6
CONTINUOUS
10
58.5256
20
57.083
11
58.585
21
56.8068
0
LINE
8
BLACK
6
CONTINUOUS
10
58.585
20
56.8068
11
58.605
21
56.525
0
LINE
8
BLACK
6
CONTINUOUS
10
58.605
20
56.525
11
58.6011
21
56.3994
0
LINE
8
BLACK
6
CONTINUOUS
10
58.6011
20
56.3994
11
58.5634
21
56.1194
0
LINE
8
BLACK
6
CONTINUOUS
10
58.5634
20
56.1194
11
58.4868
21
55.8475
0
LINE
8
BLACK
6
CONTINUOUS
10
58.4868
20
55.8475
11
58.3725
21
55.5891
0
LINE
8
BLACK
6
CONTINUOUS
10
58.3725
20
55.5891
11
58.223
21
55.3494
0
LINE
8
BLACK
6
CONTINUOUS
10
58.223
20
55.3494
11
58.0413
21
55.1332
0
LINE
8
BLACK
6
CONTINUOUS
10
58.0413
20
55.1332
11
57.8308
21
54.9447
0
LINE
8
BLACK
6
CONTINUOUS
10
57.8308
20
54.9447
11
57.5959
21
54.7877
0
LINE
8
BLACK
6
CONTINUOUS
10
57.5959
20
54.7877
11
57.3412
21
54.6654
0
LINE
8
BLACK
6
CONTINUOUS
10
57.3412
20
54.6654
11
57.0719
21
54.5803
0
LINE
8
BLACK
6
CONTINUOUS
10
57.0719
20
54.5803
11
56.7932
21
54.5339
0
LINE
8
BLACK
6
CONTINUOUS
10
56.7932
20
54.5339
11
56.5108
21
54.5272
0
LINE
8
BLACK
6
CONTINUOUS
10
56.5108
20
54.5272
11
56.2302
21
54.5604
0
LINE
8
BLACK
6
CONTINUOUS
10
56.2302
20
54.5604
11
55.9572
21
54.6328
0
LINE
8
BLACK
6
CONTINUOUS
10
55.9572
20
54.6328
11
55.697
21
54.743
0
LINE
8
BLACK
6
CONTINUOUS
10
55.697
20
54.743
11
55.455
21
54.8887
0
LINE
8
BLACK
6
CONTINUOUS
10
55.455
20
54.8887
11
55.2359
21
55.0671
0
LINE
8
BLACK
6
CONTINUOUS
10
55.2359
20
55.0671
11
55.0441
21
55.2745
0
LINE
8
BLACK
6
CONTINUOUS
10
55.0441
20
55.2745
11
54.8835
21
55.5069
0
LINE
8
BLACK
6
CONTINUOUS
10
54.8835
20
55.5069
11
54.7572
21
55.7596
0
LINE
8
BLACK
6
CONTINUOUS
10
54.7572
20
55.7596
11
54.6678
21
56.0276
0
LINE
8
BLACK
6
CONTINUOUS
10
54.6678
20
56.0276
11
54.6171
21
56.3055
0
LINE
8
BLACK
6
CONTINUOUS
10
54.6171
20
56.3055
11
54.606
21
56.5878
0
LINE
8
BLACK
6
CONTINUOUS
10
54.606
20
56.5878
11
54.6348
21
56.8689
0
LINE
8
BLACK
6
CONTINUOUS
10
54.6348
20
56.8689
11
54.7029
21
57.143
0
LINE
8
BLACK
6
CONTINUOUS
10
54.7029
20
57.143
11
54.8089
21
57.4049
0
LINE
8
BLACK
6
CONTINUOUS
10
54.8089
20
57.4049
11
54.9508
21
57.6492
0
LINE
8
BLACK
6
CONTINUOUS
10
54.9508
20
57.6492
11
55.1257
21
57.871
0
LINE
8
BLACK
6
CONTINUOUS
10
55.1257
20
57.871
11
55.3302
21
58.066
0
LINE
8
BLACK
6
CONTINUOUS
10
55.3302
20
58.066
11
55.56
21
58.2303
0
LINE
8
BLACK
6
CONTINUOUS
10
55.56
20
58.2303
11
55.8107
21
58.3605
0
LINE
8
BLACK
6
CONTINUOUS
10
55.8107
20
58.3605
11
56.0773
21
58.4541
0
LINE
8
BLACK
6
CONTINUOUS
10
56.0773
20
58.4541
11
56.3543
21
58.5092
0
LINE
8
BLACK
6
CONTINUOUS
10
56.3543
20
58.5092
11
56.6364
21
58.5248
0
LINE
8
BLACK
6
CONTINUOUS
10
56.6364
20
58.5248
11
56.9179
21
58.5004
0
LINE
8
BLACK
6
CONTINUOUS
10
71.7331
20
56.856
11
71.905
21
56.7794
0
LINE
8
BLACK
6
CONTINUOUS
10
71.905
20
56.7794
11
72.0572
21
56.6688
0
LINE
8
BLACK
6
CONTINUOUS
10
72.0572
20
56.6688
11
72.1831
21
56.529
0
LINE
8
BLACK
6
CONTINUOUS
10
72.1831
20
56.529
11
72.2772
21
56.3661
0
LINE
8
BLACK
6
CONTINUOUS
10
72.2772
20
56.3661
11
72.3353
21
56.1871
0
LINE
8
BLACK
6
CONTINUOUS
10
72.3353
20
56.1871
11
72.355
21
56
0
LINE
8
BLACK
6
CONTINUOUS
10
72.355
20
56
11
72.355
21
55.5
0
LINE
8
BLACK
6
CONTINUOUS
10
72.355
20
55.5
11
72.3353
21
55.3129
0
LINE
8
BLACK
6
CONTINUOUS
10
72.3353
20
55.3129
11
72.2772
21
55.1339
0
LINE
8
BLACK
6
CONTINUOUS
10
72.2772
20
55.1339
11
72.1831
21
54.971
0
LINE
8
BLACK
6
CONTINUOUS
10
72.1831
20
54.971
11
72.0572
21
54.8312
0
LINE
8
BLACK
6
CONTINUOUS
10
72.0572
20
54.8312
11
71.905
21
54.7206
0
LINE
8
BLACK
6
CONTINUOUS
10
71.905
20
54.7206
11
71.7331
21
54.644
0
LINE
8
BLACK
6
CONTINUOUS
10
71.7331
20
54.644
11
71.5491
21
54.6049
0
LINE
8
BLACK
6
CONTINUOUS
10
71.5491
20
54.6049
11
71.3609
21
54.6049
0
LINE
8
BLACK
6
CONTINUOUS
10
71.3609
20
54.6049
11
71.1769
21
54.644
0
LINE
8
BLACK
6
CONTINUOUS
10
71.1769
20
54.644
11
71.005
21
54.7206
0
LINE
8
BLACK
6
CONTINUOUS
10
71.005
20
54.7206
11
70.8528
21
54.8312
0
LINE
8
BLACK
6
CONTINUOUS
10
70.8528
20
54.8312
11
70.7269
21
54.971
0
LINE
8
BLACK
6
CONTINUOUS
10
70.7269
20
54.971
11
70.6328
21
55.1339
0
LINE
8
BLACK
6
CONTINUOUS
10
70.6328
20
55.1339
11
70.5747
21
55.3129
0
LINE
8
BLACK
6
CONTINUOUS
10
70.5747
20
55.3129
11
70.555
21
55.5
0
LINE
8
BLACK
6
CONTINUOUS
10
70.555
20
55.5
11
70.555
21
56
0
LINE
8
BLACK
6
CONTINUOUS
10
70.555
20
56
11
70.5747
21
56.1871
0
LINE
8
BLACK
6
CONTINUOUS
10
70.5747
20
56.1871
11
70.6328
21
56.3661
0
LINE
8
BLACK
6
CONTINUOUS
10
70.6328
20
56.3661
11
70.7269
21
56.529
0
LINE
8
BLACK
6
CONTINUOUS
10
70.7269
20
56.529
11
70.8528
21
56.6688
0
LINE
8
BLACK
6
CONTINUOUS
10
70.8528
20
56.6688
11
71.005
21
56.7794
0
LINE
8
BLACK
6
CONTINUOUS
10
71.005
20
56.7794
11
71.1769
21
56.856
0
LINE
8
BLACK
6
CONTINUOUS
10
71.1769
20
56.856
11
71.3609
21
56.8951
0
LINE
8
BLACK
6
CONTINUOUS
10
71.3609
20
56.8951
11
71.5491
21
56.8951
0
LINE
8
BLACK
6
CONTINUOUS
10
71.5491
20
56.8951
11
71.7331
21
56.856
0
LINE
8
BLACK
6
CONTINUOUS
10
76.3331
20
56.856
11
76.505
21
56.7794
0
LINE
8
BLACK
6
CONTINUOUS
10
76.505
20
56.7794
11
76.6572
21
56.6688
0
LINE
8
BLACK
6
CONTINUOUS
10
76.6572
20
56.6688
11
76.7831
21
56.529
0
LINE
8
BLACK
6
CONTINUOUS
10
76.7831
20
56.529
11
76.8772
21
56.3661
0
LINE
8
BLACK
6
CONTINUOUS
10
76.8772
20
56.3661
11
76.9353
21
56.1871
0
LINE
8
BLACK
6
CONTINUOUS
10
76.9353
20
56.1871
11
76.955
21
56
0
LINE
8
BLACK
6
CONTINUOUS
10
76.955
20
56
11
76.955
21
55.5
0
LINE
8
BLACK
6
CONTINUOUS
10
76.955
20
55.5
11
76.9353
21
55.3129
0
LINE
8
BLACK
6
CONTINUOUS
10
76.9353
20
55.3129
11
76.8772
21
55.1339
0
LINE
8
BLACK
6
CONTINUOUS
10
76.8772
20
55.1339
11
76.7831
21
54.971
0
LINE
8
BLACK
6
CONTINUOUS
10
76.7831
20
54.971
11
76.6572
21
54.8312
0
LINE
8
BLACK
6
CONTINUOUS
10
76.6572
20
54.8312
11
76.505
21
54.7206
0
LINE
8
BLACK
6
CONTINUOUS
10
76.505
20
54.7206
11
76.3331
21
54.644
0
LINE
8
BLACK
6
CONTINUOUS
10
76.3331
20
54.644
11
76.1491
21
54.6049
0
LINE
8
BLACK
6
CONTINUOUS
10
76.1491
20
54.6049
11
75.9609
21
54.6049
0
LINE
8
BLACK
6
CONTINUOUS
10
75.9609
20
54.6049
11
75.7769
21
54.644
0
LINE
8
BLACK
6
CONTINUOUS
10
75.7769
20
54.644
11
75.605
21
54.7206
0
LINE
8
BLACK
6
CONTINUOUS
10
75.605
20
54.7206
11
75.4528
21
54.8312
0
LINE
8
BLACK
6
CONTINUOUS
10
75.4528
20
54.8312
11
75.3269
21
54.971
0
LINE
8
BLACK
6
CONTINUOUS
10
75.3269
20
54.971
11
75.2328
21
55.1339
0
LINE
8
BLACK
6
CONTINUOUS
10
75.2328
20
55.1339
11
75.1747
21
55.3129
0
LINE
8
BLACK
6
CONTINUOUS
10
75.1747
20
55.3129
11
75.155
21
55.5
0
LINE
8
BLACK
6
CONTINUOUS
10
75.155
20
55.5
11
75.155
21
56
0
LINE
8
BLACK
6
CONTINUOUS
10
75.155
20
56
11
75.1747
21
56.1871
0
LINE
8
BLACK
6
CONTINUOUS
10
75.1747
20
56.1871
11
75.2328
21
56.3661
0
LINE
8
BLACK
6
CONTINUOUS
10
75.2328
20
56.3661
11
75.3269
21
56.529
0
LINE
8
BLACK
6
CONTINUOUS
10
75.3269
20
56.529
11
75.4528
21
56.6688
0
LINE
8
BLACK
6
CONTINUOUS
10
75.4528
20
56.6688
11
75.605
21
56.7794
0
LINE
8
BLACK
6
CONTINUOUS
10
75.605
20
56.7794
11
75.7769
21
56.856
0
LINE
8
BLACK
6
CONTINUOUS
10
75.7769
20
56.856
11
75.9609
21
56.8951
0
LINE
8
BLACK
6
CONTINUOUS
10
75.9609
20
56.8951
11
76.1491
21
56.8951
0
LINE
8
BLACK
6
CONTINUOUS
10
76.1491
20
56.8951
11
76.3331
21
56.856
0
LINE
8
BLACK
6
CONTINUOUS
10
71.3974
20
60.2813
11
71.53
21
60.2263
0
LINE
8
BLACK
6
CONTINUOUS
10
71.53
20
60.2263
11
71.6439
21
60.1389
0
LINE
8
BLACK
6
CONTINUOUS
10
71.6439
20
60.1389
11
71.7313
21
60.025
0
LINE
8
BLACK
6
CONTINUOUS
10
71.7313
20
60.025
11
71.7863
21
59.8924
0
LINE
8
BLACK
6
CONTINUOUS
10
71.7863
20
59.8924
11
71.805
21
59.75
0
LINE
8
BLACK
6
CONTINUOUS
10
71.805
20
59.75
11
71.7863
21
59.6076
0
LINE
8
BLACK
6
CONTINUOUS
10
71.7863
20
59.6076
11
71.7313
21
59.475
0
LINE
8
BLACK
6
CONTINUOUS
10
71.7313
20
59.475
11
71.6439
21
59.3611
0
LINE
8
BLACK
6
CONTINUOUS
10
71.6439
20
59.3611
11
71.53
21
59.2737
0
LINE
8
BLACK
6
CONTINUOUS
10
71.53
20
59.2737
11
71.3974
21
59.2187
0
LINE
8
BLACK
6
CONTINUOUS
10
71.3974
20
59.2187
11
71.255
21
59.2
0
LINE
8
BLACK
6
CONTINUOUS
10
71.255
20
59.2
11
71.1127
21
59.2187
0
LINE
8
BLACK
6
CONTINUOUS
10
71.1127
20
59.2187
11
70.98
21
59.2737
0
LINE
8
BLACK
6
CONTINUOUS
10
70.98
20
59.2737
11
70.8661
21
59.3611
0
LINE
8
BLACK
6
CONTINUOUS
10
70.8661
20
59.3611
11
70.7787
21
59.475
0
LINE
8
BLACK
6
CONTINUOUS
10
70.7787
20
59.475
11
70.7237
21
59.6076
0
LINE
8
BLACK
6
CONTINUOUS
10
70.7237
20
59.6076
11
70.705
21
59.75
0
LINE
8
BLACK
6
CONTINUOUS
10
70.705
20
59.75
11
70.7237
21
59.8924
0
LINE
8
BLACK
6
CONTINUOUS
10
70.7237
20
59.8924
11
70.7787
21
60.025
0
LINE
8
BLACK
6
CONTINUOUS
10
70.7787
20
60.025
11
70.8661
21
60.1389
0
LINE
8
BLACK
6
CONTINUOUS
10
70.8661
20
60.1389
11
70.98
21
60.2263
0
LINE
8
BLACK
6
CONTINUOUS
10
70.98
20
60.2263
11
71.1127
21
60.2813
0
LINE
8
BLACK
6
CONTINUOUS
10
71.1127
20
60.2813
11
71.255
21
60.3
0
LINE
8
BLACK
6
CONTINUOUS
10
71.255
20
60.3
11
71.3974
21
60.2813
0
LINE
8
BLACK
6
CONTINUOUS
10
76.3974
20
60.2813
11
76.53
21
60.2263
0
LINE
8
BLACK
6
CONTINUOUS
10
76.53
20
60.2263
11
76.6439
21
60.1389
0
LINE
8
BLACK
6
CONTINUOUS
10
76.6439
20
60.1389
11
76.7313
21
60.025
0
LINE
8
BLACK
6
CONTINUOUS
10
76.7313
20
60.025
11
76.7863
21
59.8924
0
LINE
8
BLACK
6
CONTINUOUS
10
76.7863
20
59.8924
11
76.805
21
59.75
0
LINE
8
BLACK
6
CONTINUOUS
10
76.805
20
59.75
11
76.7863
21
59.6076
0
LINE
8
BLACK
6
CONTINUOUS
10
76.7863
20
59.6076
11
76.7313
21
59.475
0
LINE
8
BLACK
6
CONTINUOUS
10
76.7313
20
59.475
11
76.6439
21
59.3611
0
LINE
8
BLACK
6
CONTINUOUS
10
76.6439
20
59.3611
11
76.53
21
59.2737
0
LINE
8
BLACK
6
CONTINUOUS
10
76.53
20
59.2737
11
76.3974
21
59.2187
0
LINE
8
BLACK
6
CONTINUOUS
10
76.3974
20
59.2187
11
76.255
21
59.2
0
LINE
8
BLACK
6
CONTINUOUS
10
76.255
20
59.2
11
76.1127
21
59.2187
0
LINE
8
BLACK
6
CONTINUOUS
10
76.1127
20
59.2187
11
75.98
21
59.2737
0
LINE
8
BLACK
6
CONTINUOUS
10
75.98
20
59.2737
11
75.8661
21
59.3611
0
LINE
8
BLACK
6
CONTINUOUS
10
75.8661
20
59.3611
11
75.7787
21
59.475
0
LINE
8
BLACK
6
CONTINUOUS
10
75.7787
20
59.475
11
75.7237
21
59.6076
0
LINE
8
BLACK
6
CONTINUOUS
10
75.7237
20
59.6076
11
75.705
21
59.75
0
LINE
8
BLACK
6
CONTINUOUS
10
75.705
20
59.75
11
75.7237
21
59.8924
0
LINE
8
BLACK
6
CONTINUOUS
10
75.7237
20
59.8924
11
75.7787
21
60.025
0
LINE
8
BLACK
6
CONTINUOUS
10
75.7787
20
60.025
11
75.8661
21
60.1389
0
LINE
8
BLACK
6
CONTINUOUS
10
75.8661
20
60.1389
11
75.98
21
60.2263
0
LINE
8
BLACK
6
CONTINUOUS
10
75.98
20
60.2263
11
76.1127
21
60.2813
0
LINE
8
BLACK
6
CONTINUOUS
10
76.1127
20
60.2813
11
76.255
21
60.3
0
LINE
8
BLACK
6
CONTINUOUS
10
76.255
20
60.3
11
76.3974
21
60.2813
0
LINE
8
BLACK
6
CONTINUOUS
10
63.38
20
59.8
11
59.88
21
59.8
0
LINE
8
BLACK
6
CONTINUOUS
10
59.88
20
59.8
11
59.88
21
63.3
0
LINE
8
BLACK
6
CONTINUOUS
10
59.88
20
63.3
11
63.38
21
63.3
0
LINE
8
BLACK
6
CONTINUOUS
10
63.38
20
63.3
11
63.38
21
59.8
0
LINE
8
BLACK
6
CONTINUOUS
10
40.3811
20
62.5546
11
40.5675
21
62.4969
0
LINE
8
BLACK
6
CONTINUOUS
10
40.5675
20
62.4969
11
40.7392
21
62.404
0
LINE
8
BLACK
6
CONTINUOUS
10
40.7392
20
62.404
11
40.8896
21
62.2796
0
LINE
8
BLACK
6
CONTINUOUS
10
40.8896
20
62.2796
11
41.0129
21
62.1284
0
LINE
8
BLACK
6
CONTINUOUS
10
41.0129
20
62.1284
11
41.1045
21
61.9561
0
LINE
8
BLACK
6
CONTINUOUS
10
41.1045
20
61.9561
11
41.161
21
61.7692
0
LINE
8
BLACK
6
CONTINUOUS
10
41.161
20
61.7692
11
41.18
21
61.575
0
LINE
8
BLACK
6
CONTINUOUS
10
41.18
20
61.575
11
41.1796
21
61.5471
0
LINE
8
BLACK
6
CONTINUOUS
10
41.1796
20
61.5471
11
41.1551
21
61.3535
0
LINE
8
BLACK
6
CONTINUOUS
10
41.1551
20
61.3535
11
41.0935
21
61.1683
0
LINE
8
BLACK
6
CONTINUOUS
10
41.0935
20
61.1683
11
40.9971
21
60.9986
0
LINE
8
BLACK
6
CONTINUOUS
10
40.9971
20
60.9986
11
40.8696
21
60.8508
0
LINE
8
BLACK
6
CONTINUOUS
10
40.8696
20
60.8508
11
40.7158
21
60.7307
0
LINE
8
BLACK
6
CONTINUOUS
10
40.7158
20
60.7307
11
40.5416
21
60.6427
0
LINE
8
BLACK
6
CONTINUOUS
10
40.5416
20
60.6427
11
40.3536
21
60.5902
0
LINE
8
BLACK
6
CONTINUOUS
10
40.3536
20
60.5902
11
40.1591
21
60.5752
0
LINE
8
BLACK
6
CONTINUOUS
10
40.1591
20
60.5752
11
39.9653
21
60.5983
0
LINE
8
BLACK
6
CONTINUOUS
10
39.9653
20
60.5983
11
39.7797
21
60.6586
0
LINE
8
BLACK
6
CONTINUOUS
10
39.7797
20
60.6586
11
39.6093
21
60.7539
0
LINE
8
BLACK
6
CONTINUOUS
10
39.6093
20
60.7539
11
39.4607
21
60.8803
0
LINE
8
BLACK
6
CONTINUOUS
10
39.4607
20
60.8803
11
39.3394
21
61.0333
0
LINE
8
BLACK
6
CONTINUOUS
10
39.3394
20
61.0333
11
39.2502
21
61.2069
0
LINE
8
BLACK
6
CONTINUOUS
10
39.2502
20
61.2069
11
39.1964
21
61.3945
0
LINE
8
BLACK
6
CONTINUOUS
10
39.1964
20
61.3945
11
39.1801
21
61.589
0
LINE
8
BLACK
6
CONTINUOUS
10
39.1801
20
61.589
11
39.2019
21
61.7829
0
LINE
8
BLACK
6
CONTINUOUS
10
39.2019
20
61.7829
11
39.2609
21
61.9689
0
LINE
8
BLACK
6
CONTINUOUS
10
39.2609
20
61.9689
11
39.3549
21
62.14
0
LINE
8
BLACK
6
CONTINUOUS
10
39.3549
20
62.14
11
39.4803
21
62.2895
0
LINE
8
BLACK
6
CONTINUOUS
10
39.4803
20
62.2895
11
39.6324
21
62.4118
0
LINE
8
BLACK
6
CONTINUOUS
10
39.6324
20
62.4118
11
39.8054
21
62.5022
0
LINE
8
BLACK
6
CONTINUOUS
10
39.8054
20
62.5022
11
39.9926
21
62.5573
0
LINE
8
BLACK
6
CONTINUOUS
10
39.9926
20
62.5573
11
40.187
21
62.575
0
LINE
8
BLACK
6
CONTINUOUS
10
40.187
20
62.575
11
40.3811
21
62.5546
0
LINE
8
BLACK
6
CONTINUOUS
10
52.3811
20
62.5546
11
52.5675
21
62.4969
0
LINE
8
BLACK
6
CONTINUOUS
10
52.5675
20
62.4969
11
52.7392
21
62.404
0
LINE
8
BLACK
6
CONTINUOUS
10
52.7392
20
62.404
11
52.8896
21
62.2796
0
LINE
8
BLACK
6
CONTINUOUS
10
52.8896
20
62.2796
11
53.0129
21
62.1284
0
LINE
8
BLACK
6
CONTINUOUS
10
53.0129
20
62.1284
11
53.1045
21
61.9561
0
LINE
8
BLACK
6
CONTINUOUS
10
53.1045
20
61.9561
11
53.161
21
61.7692
0
LINE
8
BLACK
6
CONTINUOUS
10
53.161
20
61.7692
11
53.18
21
61.575
0
LINE
8
BLACK
6
CONTINUOUS
10
53.18
20
61.575
11
53.1796
21
61.5471
0
LINE
8
BLACK
6
CONTINUOUS
10
53.1796
20
61.5471
11
53.1551
21
61.3535
0
LINE
8
BLACK
6
CONTINUOUS
10
53.1551
20
61.3535
11
53.0935
21
61.1683
0
LINE
8
BLACK
6
CONTINUOUS
10
53.0935
20
61.1683
11
52.9971
21
60.9986
0
LINE
8
BLACK
6
CONTINUOUS
10
52.9971
20
60.9986
11
52.8696
21
60.8508
0
LINE
8
BLACK
6
CONTINUOUS
10
52.8696
20
60.8508
11
52.7158
21
60.7307
0
LINE
8
BLACK
6
CONTINUOUS
10
52.7158
20
60.7307
11
52.5416
21
60.6427
0
LINE
8
BLACK
6
CONTINUOUS
10
52.5416
20
60.6427
11
52.3536
21
60.5902
0
LINE
8
BLACK
6
CONTINUOUS
10
52.3536
20
60.5902
11
52.1591
21
60.5752
0
LINE
8
BLACK
6
CONTINUOUS
10
52.1591
20
60.5752
11
51.9653
21
60.5983
0
LINE
8
BLACK
6
CONTINUOUS
10
51.9653
20
60.5983
11
51.7797
21
60.6586
0
LINE
8
BLACK
6
CONTINUOUS
10
51.7797
20
60.6586
11
51.6093
21
60.7539
0
LINE
8
BLACK
6
CONTINUOUS
10
51.6093
20
60.7539
11
51.4607
21
60.8803
0
LINE
8
BLACK
6
CONTINUOUS
10
51.4607
20
60.8803
11
51.3394
21
61.0333
0
LINE
8
BLACK
6
CONTINUOUS
10
51.3394
20
61.0333
11
51.2502
21
61.2069
0
LINE
8
BLACK
6
CONTINUOUS
10
51.2502
20
61.2069
11
51.1964
21
61.3945
0
LINE
8
BLACK
6
CONTINUOUS
10
51.1964
20
61.3945
11
51.1801
21
61.589
0
LINE
8
BLACK
6
CONTINUOUS
10
51.1801
20
61.589
11
51.2019
21
61.7829
0
LINE
8
BLACK
6
CONTINUOUS
10
51.2019
20
61.7829
11
51.2609
21
61.9689
0
LINE
8
BLACK
6
CONTINUOUS
10
51.2609
20
61.9689
11
51.3549
21
62.14
0
LINE
8
BLACK
6
CONTINUOUS
10
51.3549
20
62.14
11
51.4803
21
62.2895
0
LINE
8
BLACK
6
CONTINUOUS
10
51.4803
20
62.2895
11
51.6324
21
62.4118
0
LINE
8
BLACK
6
CONTINUOUS
10
51.6324
20
62.4118
11
51.8054
21
62.5022
0
LINE
8
BLACK
6
CONTINUOUS
10
51.8054
20
62.5022
11
51.9926
21
62.5573
0
LINE
8
BLACK
6
CONTINUOUS
10
51.9926
20
62.5573
11
52.187
21
62.575
0
LINE
8
BLACK
6
CONTINUOUS
10
52.187
20
62.575
11
52.3811
21
62.5546
0
LINE
8
BLACK
6
CONTINUOUS
10
71.158
20
64.3882
11
71.3536
21
64.3373
0
LINE
8
BLACK
6
CONTINUOUS
10
71.3536
20
64.3373
11
71.5349
21
64.248
0
LINE
8
BLACK
6
CONTINUOUS
10
71.5349
20
64.248
11
71.6946
21
64.1242
0
LINE
8
BLACK
6
CONTINUOUS
10
71.6946
20
64.1242
11
71.8261
21
63.9707
0
LINE
8
BLACK
6
CONTINUOUS
10
71.8261
20
63.9707
11
71.9241
21
63.7939
0
LINE
8
BLACK
6
CONTINUOUS
10
71.9241
20
63.7939
11
71.9846
21
63.6011
0
LINE
8
BLACK
6
CONTINUOUS
10
71.9846
20
63.6011
11
72.005
21
63.4
0
LINE
8
BLACK
6
CONTINUOUS
10
72.005
20
63.4
11
72.005
21
63.1
0
LINE
8
BLACK
6
CONTINUOUS
10
72.005
20
63.1
11
71.9995
21
62.9955
0
LINE
8
BLACK
6
CONTINUOUS
10
71.9995
20
62.9955
11
71.9582
21
62.7976
0
LINE
8
BLACK
6
CONTINUOUS
10
71.9582
20
62.7976
11
71.8779
21
62.6121
0
LINE
8
BLACK
6
CONTINUOUS
10
71.8779
20
62.6121
11
71.762
21
62.4466
0
LINE
8
BLACK
6
CONTINUOUS
10
71.762
20
62.4466
11
71.6151
21
62.3077
0
LINE
8
BLACK
6
CONTINUOUS
10
71.6151
20
62.3077
11
71.4434
21
62.2012
0
LINE
8
BLACK
6
CONTINUOUS
10
71.4434
20
62.2012
11
71.2537
21
62.1314
0
LINE
8
BLACK
6
CONTINUOUS
10
71.2537
20
62.1314
11
71.0538
21
62.1012
0
LINE
8
BLACK
6
CONTINUOUS
10
71.0538
20
62.1012
11
70.852
21
62.1118
0
LINE
8
BLACK
6
CONTINUOUS
10
70.852
20
62.1118
11
70.6564
21
62.1627
0
LINE
8
BLACK
6
CONTINUOUS
10
70.6564
20
62.1627
11
70.4751
21
62.252
0
LINE
8
BLACK
6
CONTINUOUS
10
70.4751
20
62.252
11
70.3154
21
62.3758
0
LINE
8
BLACK
6
CONTINUOUS
10
70.3154
20
62.3758
11
70.1839
21
62.5293
0
LINE
8
BLACK
6
CONTINUOUS
10
70.1839
20
62.5293
11
70.0859
21
62.7061
0
LINE
8
BLACK
6
CONTINUOUS
10
70.0859
20
62.7061
11
70.0254
21
62.8989
0
LINE
8
BLACK
6
CONTINUOUS
10
70.0254
20
62.8989
11
70.005
21
63.1
0
LINE
8
BLACK
6
CONTINUOUS
10
70.005
20
63.1
11
70.005
21
63.4
0
LINE
8
BLACK
6
CONTINUOUS
10
70.005
20
63.4
11
70.0105
21
63.5045
0
LINE
8
BLACK
6
CONTINUOUS
10
70.0105
20
63.5045
11
70.0518
21
63.7024
0
LINE
8
BLACK
6
CONTINUOUS
10
70.0518
20
63.7024
11
70.1321
21
63.8879
0
LINE
8
BLACK
6
CONTINUOUS
10
70.1321
20
63.8879
11
70.248
21
64.0534
0
LINE
8
BLACK
6
CONTINUOUS
10
70.248
20
64.0534
11
70.3949
21
64.1923
0
LINE
8
BLACK
6
CONTINUOUS
10
70.3949
20
64.1923
11
70.5666
21
64.2988
0
LINE
8
BLACK
6
CONTINUOUS
10
70.5666
20
64.2988
11
70.7563
21
64.3686
0
LINE
8
BLACK
6
CONTINUOUS
10
70.7563
20
64.3686
11
70.9561
21
64.3988
0
LINE
8
BLACK
6
CONTINUOUS
10
70.9561
20
64.3988
11
71.158
21
64.3882
0
LINE
8
BLACK
6
CONTINUOUS
10
76.658
20
64.3882
11
76.8536
21
64.3373
0
LINE
8
BLACK
6
CONTINUOUS
10
76.8536
20
64.3373
11
77.0349
21
64.248
0
LINE
8
BLACK
6
CONTINUOUS
10
77.0349
20
64.248
11
77.1946
21
64.1242
0
LINE
8
BLACK
6
CONTINUOUS
10
77.1946
20
64.1242
11
77.3261
21
63.9707
0
LINE
8
BLACK
6
CONTINUOUS
10
77.3261
20
63.9707
11
77.4241
21
63.7939
0
LINE
8
BLACK
6
CONTINUOUS
10
77.4241
20
63.7939
11
77.4846
21
63.6011
0
LINE
8
BLACK
6
CONTINUOUS
10
77.4846
20
63.6011
11
77.505
21
63.4
0
LINE
8
BLACK
6
CONTINUOUS
10
77.505
20
63.4
11
77.505
21
63.1
0
LINE
8
BLACK
6
CONTINUOUS
10
77.505
20
63.1
11
77.4995
21
62.9955
0
LINE
8
BLACK
6
CONTINUOUS
10
77.4995
20
62.9955
11
77.4582
21
62.7976
0
LINE
8
BLACK
6
CONTINUOUS
10
77.4582
20
62.7976
11
77.3779
21
62.6121
0
LINE
8
BLACK
6
CONTINUOUS
10
77.3779
20
62.6121
11
77.262
21
62.4466
0
LINE
8
BLACK
6
CONTINUOUS
10
77.262
20
62.4466
11
77.1151
21
62.3077
0
LINE
8
BLACK
6
CONTINUOUS
10
77.1151
20
62.3077
11
76.9434
21
62.2012
0
LINE
8
BLACK
6
CONTINUOUS
10
76.9434
20
62.2012
11
76.7537
21
62.1314
0
LINE
8
BLACK
6
CONTINUOUS
10
76.7537
20
62.1314
11
76.5538
21
62.1012
0
LINE
8
BLACK
6
CONTINUOUS
10
76.5538
20
62.1012
11
76.352
21
62.1118
0
LINE
8
BLACK
6
CONTINUOUS
10
76.352
20
62.1118
11
76.1564
21
62.1627
0
LINE
8
BLACK
6
CONTINUOUS
10
76.1564
20
62.1627
11
75.9751
21
62.252
0
LINE
8
BLACK
6
CONTINUOUS
10
75.9751
20
62.252
11
75.8154
21
62.3758
0
LINE
8
BLACK
6
CONTINUOUS
10
75.8154
20
62.3758
11
75.6839
21
62.5293
0
LINE
8
BLACK
6
CONTINUOUS
10
75.6839
20
62.5293
11
75.5859
21
62.7061
0
LINE
8
BLACK
6
CONTINUOUS
10
75.5859
20
62.7061
11
75.5254
21
62.8989
0
LINE
8
BLACK
6
CONTINUOUS
10
75.5254
20
62.8989
11
75.505
21
63.1
0
LINE
8
BLACK
6
CONTINUOUS
10
75.505
20
63.1
11
75.505
21
63.4
0
LINE
8
BLACK
6
CONTINUOUS
10
75.505
20
63.4
11
75.5105
21
63.5045
0
LINE
8
BLACK
6
CONTINUOUS
10
75.5105
20
63.5045
11
75.5518
21
63.7024
0
LINE
8
BLACK
6
CONTINUOUS
10
75.5518
20
63.7024
11
75.6321
21
63.8879
0
LINE
8
BLACK
6
CONTINUOUS
10
75.6321
20
63.8879
11
75.748
21
64.0534
0
LINE
8
BLACK
6
CONTINUOUS
10
75.748
20
64.0534
11
75.8949
21
64.1923
0
LINE
8
BLACK
6
CONTINUOUS
10
75.8949
20
64.1923
11
76.0666
21
64.2988
0
LINE
8
BLACK
6
CONTINUOUS
10
76.0666
20
64.2988
11
76.2563
21
64.3686
0
LINE
8
BLACK
6
CONTINUOUS
10
76.2563
20
64.3686
11
76.4561
21
64.3988
0
LINE
8
BLACK
6
CONTINUOUS
10
76.4561
20
64.3988
11
76.658
21
64.3882
0
LINE
8
BLACK
6
CONTINUOUS
10
50.4427
20
64.1334
11
50.605
21
64.0611
0
LINE
8
BLACK
6
CONTINUOUS
10
50.605
20
64.0611
11
50.7488
21
63.9567
0
LINE
8
BLACK
6
CONTINUOUS
10
50.7488
20
63.9567
11
50.8677
21
63.8246
0
LINE
8
BLACK
6
CONTINUOUS
10
50.8677
20
63.8246
11
50.9565
21
63.6707
0
LINE
8
BLACK
6
CONTINUOUS
10
50.9565
20
63.6707
11
51.0114
21
63.5017
0
LINE
8
BLACK
6
CONTINUOUS
10
51.0114
20
63.5017
11
51.03
21
63.325
0
LINE
8
BLACK
6
CONTINUOUS
10
51.03
20
63.325
11
51.0114
21
63.1483
0
LINE
8
BLACK
6
CONTINUOUS
10
51.0114
20
63.1483
11
50.9565
21
62.9793
0
LINE
8
BLACK
6
CONTINUOUS
10
50.9565
20
62.9793
11
50.8677
21
62.8254
0
LINE
8
BLACK
6
CONTINUOUS
10
50.8677
20
62.8254
11
50.7488
21
62.6933
0
LINE
8
BLACK
6
CONTINUOUS
10
50.7488
20
62.6933
11
50.605
21
62.5889
0
LINE
8
BLACK
6
CONTINUOUS
10
50.605
20
62.5889
11
50.4427
21
62.5166
0
LINE
8
BLACK
6
CONTINUOUS
10
50.4427
20
62.5166
11
50.2688
21
62.4797
0
LINE
8
BLACK
6
CONTINUOUS
10
50.2688
20
62.4797
11
50.0912
21
62.4797
0
LINE
8
BLACK
6
CONTINUOUS
10
50.0912
20
62.4797
11
49.9173
21
62.5166
0
LINE
8
BLACK
6
CONTINUOUS
10
49.9173
20
62.5166
11
49.755
21
62.5889
0
LINE
8
BLACK
6
CONTINUOUS
10
49.755
20
62.5889
11
49.6112
21
62.6933
0
LINE
8
BLACK
6
CONTINUOUS
10
49.6112
20
62.6933
11
49.4923
21
62.8254
0
LINE
8
BLACK
6
CONTINUOUS
10
49.4923
20
62.8254
11
49.4035
21
62.9793
0
LINE
8
BLACK
6
CONTINUOUS
10
49.4035
20
62.9793
11
49.3486
21
63.1483
0
LINE
8
BLACK
6
CONTINUOUS
10
49.3486
20
63.1483
11
49.33
21
63.325
0
LINE
8
BLACK
6
CONTINUOUS
10
49.33
20
63.325
11
49.3486
21
63.5017
0
LINE
8
BLACK
6
CONTINUOUS
10
49.3486
20
63.5017
11
49.4035
21
63.6707
0
LINE
8
BLACK
6
CONTINUOUS
10
49.4035
20
63.6707
11
49.4923
21
63.8246
0
LINE
8
BLACK
6
CONTINUOUS
10
49.4923
20
63.8246
11
49.6112
21
63.9567
0
LINE
8
BLACK
6
CONTINUOUS
10
49.6112
20
63.9567
11
49.755
21
64.0611
0
LINE
8
BLACK
6
CONTINUOUS
10
49.755
20
64.0611
11
49.9173
21
64.1334
0
LINE
8
BLACK
6
CONTINUOUS
10
49.9173
20
64.1334
11
50.0912
21
64.1703
0
LINE
8
BLACK
6
CONTINUOUS
10
50.0912
20
64.1703
11
50.2688
21
64.1703
0
LINE
8
BLACK
6
CONTINUOUS
10
50.2688
20
64.1703
11
50.4427
21
64.1334
0
LINE
8
BLACK
6
CONTINUOUS
10
42.4427
20
64.1334
11
42.605
21
64.0611
0
LINE
8
BLACK
6
CONTINUOUS
10
42.605
20
64.0611
11
42.7488
21
63.9567
0
LINE
8
BLACK
6
CONTINUOUS
10
42.7488
20
63.9567
11
42.8677
21
63.8246
0
LINE
8
BLACK
6
CONTINUOUS
10
42.8677
20
63.8246
11
42.9565
21
63.6707
0
LINE
8
BLACK
6
CONTINUOUS
10
42.9565
20
63.6707
11
43.0114
21
63.5017
0
LINE
8
BLACK
6
CONTINUOUS
10
43.0114
20
63.5017
11
43.03
21
63.325
0
LINE
8
BLACK
6
CONTINUOUS
10
43.03
20
63.325
11
43.0114
21
63.1483
0
LINE
8
BLACK
6
CONTINUOUS
10
43.0114
20
63.1483
11
42.9565
21
62.9793
0
LINE
8
BLACK
6
CONTINUOUS
10
42.9565
20
62.9793
11
42.8677
21
62.8254
0
LINE
8
BLACK
6
CONTINUOUS
10
42.8677
20
62.8254
11
42.7488
21
62.6933
0
LINE
8
BLACK
6
CONTINUOUS
10
42.7488
20
62.6933
11
42.605
21
62.5889
0
LINE
8
BLACK
6
CONTINUOUS
10
42.605
20
62.5889
11
42.4427
21
62.5166
0
LINE
8
BLACK
6
CONTINUOUS
10
42.4427
20
62.5166
11
42.2688
21
62.4797
0
LINE
8
BLACK
6
CONTINUOUS
10
42.2688
20
62.4797
11
42.0912
21
62.4797
0
LINE
8
BLACK
6
CONTINUOUS
10
42.0912
20
62.4797
11
41.9173
21
62.5166
0
LINE
8
BLACK
6
CONTINUOUS
10
41.9173
20
62.5166
11
41.755
21
62.5889
0
LINE
8
BLACK
6
CONTINUOUS
10
41.755
20
62.5889
11
41.6112
21
62.6933
0
LINE
8
BLACK
6
CONTINUOUS
10
41.6112
20
62.6933
11
41.4923
21
62.8254
0
LINE
8
BLACK
6
CONTINUOUS
10
41.4923
20
62.8254
11
41.4035
21
62.9793
0
LINE
8
BLACK
6
CONTINUOUS
10
41.4035
20
62.9793
11
41.3486
21
63.1483
0
LINE
8
BLACK
6
CONTINUOUS
10
41.3486
20
63.1483
11
41.33
21
63.325
0
LINE
8
BLACK
6
CONTINUOUS
10
41.33
20
63.325
11
41.3486
21
63.5017
0
LINE
8
BLACK
6
CONTINUOUS
10
41.3486
20
63.5017
11
41.4035
21
63.6707
0
LINE
8
BLACK
6
CONTINUOUS
10
41.4035
20
63.6707
11
41.4923
21
63.8246
0
LINE
8
BLACK
6
CONTINUOUS
10
41.4923
20
63.8246
11
41.6112
21
63.9567
0
LINE
8
BLACK
6
CONTINUOUS
10
41.6112
20
63.9567
11
41.755
21
64.0611
0
LINE
8
BLACK
6
CONTINUOUS
10
41.755
20
64.0611
11
41.9173
21
64.1334
0
LINE
8
BLACK
6
CONTINUOUS
10
41.9173
20
64.1334
11
42.0912
21
64.1703
0
LINE
8
BLACK
6
CONTINUOUS
10
42.0912
20
64.1703
11
42.2688
21
64.1703
0
LINE
8
BLACK
6
CONTINUOUS
10
42.2688
20
64.1703
11
42.4427
21
64.1334
0
LINE
8
BLACK
6
CONTINUOUS
10
46.4427
20
64.1334
11
46.605
21
64.0611
0
LINE
8
BLACK
6
CONTINUOUS
10
46.605
20
64.0611
11
46.7488
21
63.9567
0
LINE
8
BLACK
6
CONTINUOUS
10
46.7488
20
63.9567
11
46.8677
21
63.8246
0
LINE
8
BLACK
6
CONTINUOUS
10
46.8677
20
63.8246
11
46.9565
21
63.6707
0
LINE
8
BLACK
6
CONTINUOUS
10
46.9565
20
63.6707
11
47.0114
21
63.5017
0
LINE
8
BLACK
6
CONTINUOUS
10
47.0114
20
63.5017
11
47.03
21
63.325
0
LINE
8
BLACK
6
CONTINUOUS
10
47.03
20
63.325
11
47.0114
21
63.1483
0
LINE
8
BLACK
6
CONTINUOUS
10
47.0114
20
63.1483
11
46.9565
21
62.9793
0
LINE
8
BLACK
6
CONTINUOUS
10
46.9565
20
62.9793
11
46.8677
21
62.8254
0
LINE
8
BLACK
6
CONTINUOUS
10
46.8677
20
62.8254
11
46.7488
21
62.6933
0
LINE
8
BLACK
6
CONTINUOUS
10
46.7488
20
62.6933
11
46.605
21
62.5889
0
LINE
8
BLACK
6
CONTINUOUS
10
46.605
20
62.5889
11
46.4427
21
62.5166
0
LINE
8
BLACK
6
CONTINUOUS
10
46.4427
20
62.5166
11
46.2688
21
62.4797
0
LINE
8
BLACK
6
CONTINUOUS
10
46.2688
20
62.4797
11
46.0912
21
62.4797
0
LINE
8
BLACK
6
CONTINUOUS
10
46.0912
20
62.4797
11
45.9173
21
62.5166
0
LINE
8
BLACK
6
CONTINUOUS
10
45.9173
20
62.5166
11
45.755
21
62.5889
0
LINE
8
BLACK
6
CONTINUOUS
10
45.755
20
62.5889
11
45.6112
21
62.6933
0
LINE
8
BLACK
6
CONTINUOUS
10
45.6112
20
62.6933
11
45.4923
21
62.8254
0
LINE
8
BLACK
6
CONTINUOUS
10
45.4923
20
62.8254
11
45.4035
21
62.9793
0
LINE
8
BLACK
6
CONTINUOUS
10
45.4035
20
62.9793
11
45.3486
21
63.1483
0
LINE
8
BLACK
6
CONTINUOUS
10
45.3486
20
63.1483
11
45.33
21
63.325
0
LINE
8
BLACK
6
CONTINUOUS
10
45.33
20
63.325
11
45.3486
21
63.5017
0
LINE
8
BLACK
6
CONTINUOUS
10
45.3486
20
63.5017
11
45.4035
21
63.6707
0
LINE
8
BLACK
6
CONTINUOUS
10
45.4035
20
63.6707
11
45.4923
21
63.8246
0
LINE
8
BLACK
6
CONTINUOUS
10
45.4923
20
63.8246
11
45.6112
21
63.9567
0
LINE
8
BLACK
6
CONTINUOUS
10
45.6112
20
63.9567
11
45.755
21
64.0611
0
LINE
8
BLACK
6
CONTINUOUS
10
45.755
20
64.0611
11
45.9173
21
64.1334
0
LINE
8
BLACK
6
CONTINUOUS
10
45.9173
20
64.1334
11
46.0912
21
64.1703
0
LINE
8
BLACK
6
CONTINUOUS
10
46.0912
20
64.1703
11
46.2688
21
64.1703
0
LINE
8
BLACK
6
CONTINUOUS
10
46.2688
20
64.1703
11
46.4427
21
64.1334
0
LINE
8
BLACK
6
CONTINUOUS
10
29.7125
20
64.425
11
28.1125
21
64.425
0
LINE
8
BLACK
6
CONTINUOUS
10
28.1125
20
64.425
11
28.1125
21
66.025
0
LINE
8
BLACK
6
CONTINUOUS
10
28.1125
20
66.025
11
29.7125
21
66.025
0
LINE
8
BLACK
6
CONTINUOUS
10
29.7125
20
66.025
11
29.7125
21
64.425
0
LINE
8
BLACK
6
CONTINUOUS
10
36.7152
20
66.0039
11
36.8832
21
65.944
0
LINE
8
BLACK
6
CONTINUOUS
10
36.8832
20
65.944
11
37.0338
21
65.8485
0
LINE
8
BLACK
6
CONTINUOUS
10
37.0338
20
65.8485
11
37.1595
21
65.7219
0
LINE
8
BLACK
6
CONTINUOUS
10
37.1595
20
65.7219
11
37.254
21
65.5707
0
LINE
8
BLACK
6
CONTINUOUS
10
37.254
20
65.5707
11
37.3126
21
65.4022
0
LINE
8
BLACK
6
CONTINUOUS
10
37.3126
20
65.4022
11
37.3325
21
65.225
0
LINE
8
BLACK
6
CONTINUOUS
10
37.3325
20
65.225
11
37.3322
21
65.2027
0
LINE
8
BLACK
6
CONTINUOUS
10
37.3322
20
65.2027
11
37.3074
21
65.026
0
LINE
8
BLACK
6
CONTINUOUS
10
37.3074
20
65.026
11
37.244
21
64.8593
0
LINE
8
BLACK
6
CONTINUOUS
10
37.244
20
64.8593
11
37.1453
21
64.7108
0
LINE
8
BLACK
6
CONTINUOUS
10
37.1453
20
64.7108
11
37.0162
21
64.5878
0
LINE
8
BLACK
6
CONTINUOUS
10
37.0162
20
64.5878
11
36.863
21
64.4965
0
LINE
8
BLACK
6
CONTINUOUS
10
36.863
20
64.4965
11
36.6934
21
64.4413
0
LINE
8
BLACK
6
CONTINUOUS
10
36.6934
20
64.4413
11
36.5157
21
64.4252
0
LINE
8
BLACK
6
CONTINUOUS
10
36.5157
20
64.4252
11
36.339
21
64.4488
0
LINE
8
BLACK
6
CONTINUOUS
10
36.339
20
64.4488
11
36.1718
21
64.5109
0
LINE
8
BLACK
6
CONTINUOUS
10
36.1718
20
64.5109
11
36.0226
21
64.6086
0
LINE
8
BLACK
6
CONTINUOUS
10
36.0226
20
64.6086
11
35.8987
21
64.7369
0
LINE
8
BLACK
6
CONTINUOUS
10
35.8987
20
64.7369
11
35.8063
21
64.8894
0
LINE
8
BLACK
6
CONTINUOUS
10
35.8063
20
64.8894
11
35.75
21
65.0587
0
LINE
8
BLACK
6
CONTINUOUS
10
35.75
20
65.0587
11
35.7326
21
65.2362
0
LINE
8
BLACK
6
CONTINUOUS
10
35.7326
20
65.2362
11
35.7549
21
65.4131
0
LINE
8
BLACK
6
CONTINUOUS
10
35.7549
20
65.4131
11
35.8159
21
65.5807
0
LINE
8
BLACK
6
CONTINUOUS
10
35.8159
20
65.5807
11
35.9125
21
65.7306
0
LINE
8
BLACK
6
CONTINUOUS
10
35.9125
20
65.7306
11
36.04
21
65.8554
0
LINE
8
BLACK
6
CONTINUOUS
10
36.04
20
65.8554
11
36.1919
21
65.9489
0
LINE
8
BLACK
6
CONTINUOUS
10
36.1919
20
65.9489
11
36.3607
21
66.0063
0
LINE
8
BLACK
6
CONTINUOUS
10
36.3607
20
66.0063
11
36.5381
21
66.025
0
LINE
8
BLACK
6
CONTINUOUS
10
36.5381
20
66.025
11
36.7152
21
66.0039
0
LINE
8
BLACK
6
CONTINUOUS
10
66.9679
20
68.5504
11
67.2431
21
68.4866
0
LINE
8
BLACK
6
CONTINUOUS
10
67.2431
20
68.4866
11
67.5066
21
68.3847
0
LINE
8
BLACK
6
CONTINUOUS
10
67.5066
20
68.3847
11
67.753
21
68.2466
0
LINE
8
BLACK
6
CONTINUOUS
10
67.753
20
68.2466
11
67.9776
21
68.0752
0
LINE
8
BLACK
6
CONTINUOUS
10
67.9776
20
68.0752
11
68.1758
21
67.8739
0
LINE
8
BLACK
6
CONTINUOUS
10
68.1758
20
67.8739
11
68.3437
21
67.6467
0
LINE
8
BLACK
6
CONTINUOUS
10
68.3437
20
67.6467
11
68.4778
21
67.398
0
LINE
8
BLACK
6
CONTINUOUS
10
68.4778
20
67.398
11
68.5756
21
67.133
0
LINE
8
BLACK
6
CONTINUOUS
10
68.5756
20
67.133
11
68.635
21
66.8568
0
LINE
8
BLACK
6
CONTINUOUS
10
68.635
20
66.8568
11
68.655
21
66.575
0
LINE
8
BLACK
6
CONTINUOUS
10
68.655
20
66.575
11
68.6511
21
66.4494
0
LINE
8
BLACK
6
CONTINUOUS
10
68.6511
20
66.4494
11
68.6134
21
66.1694
0
LINE
8
BLACK
6
CONTINUOUS
10
68.6134
20
66.1694
11
68.5368
21
65.8975
0
LINE
8
BLACK
6
CONTINUOUS
10
68.5368
20
65.8975
11
68.4225
21
65.6391
0
LINE
8
BLACK
6
CONTINUOUS
10
68.4225
20
65.6391
11
68.273
21
65.3994
0
LINE
8
BLACK
6
CONTINUOUS
10
68.273
20
65.3994
11
68.0913
21
65.1832
0
LINE
8
BLACK
6
CONTINUOUS
10
68.0913
20
65.1832
11
67.8808
21
64.9947
0
LINE
8
BLACK
6
CONTINUOUS
10
67.8808
20
64.9947
11
67.6459
21
64.8377
0
LINE
8
BLACK
6
CONTINUOUS
10
67.6459
20
64.8377
11
67.3912
21
64.7154
0
LINE
8
BLACK
6
CONTINUOUS
10
67.3912
20
64.7154
11
67.1219
21
64.6303
0
LINE
8
BLACK
6
CONTINUOUS
10
67.1219
20
64.6303
11
66.8432
21
64.5839
0
LINE
8
BLACK
6
CONTINUOUS
10
66.8432
20
64.5839
11
66.5608
21
64.5772
0
LINE
8
BLACK
6
CONTINUOUS
10
66.5608
20
64.5772
11
66.2802
21
64.6104
0
LINE
8
BLACK
6
CONTINUOUS
10
66.2802
20
64.6104
11
66.0072
21
64.6828
0
LINE
8
BLACK
6
CONTINUOUS
10
66.0072
20
64.6828
11
65.747
21
64.793
0
LINE
8
BLACK
6
CONTINUOUS
10
65.747
20
64.793
11
65.505
21
64.9387
0
LINE
8
BLACK
6
CONTINUOUS
10
65.505
20
64.9387
11
65.2859
21
65.1171
0
LINE
8
BLACK
6
CONTINUOUS
10
65.2859
20
65.1171
11
65.0941
21
65.3245
0
LINE
8
BLACK
6
CONTINUOUS
10
65.0941
20
65.3245
11
64.9335
21
65.5569
0
LINE
8
BLACK
6
CONTINUOUS
10
64.9335
20
65.5569
11
64.8072
21
65.8096
0
LINE
8
BLACK
6
CONTINUOUS
10
64.8072
20
65.8096
11
64.7178
21
66.0776
0
LINE
8
BLACK
6
CONTINUOUS
10
64.7178
20
66.0776
11
64.6671
21
66.3555
0
LINE
8
BLACK
6
CONTINUOUS
10
64.6671
20
66.3555
11
64.656
21
66.6378
0
LINE
8
BLACK
6
CONTINUOUS
10
64.656
20
66.6378
11
64.6848
21
66.9189
0
LINE
8
BLACK
6
CONTINUOUS
10
64.6848
20
66.9189
11
64.7529
21
67.193
0
LINE
8
BLACK
6
CONTINUOUS
10
64.7529
20
67.193
11
64.8589
21
67.4549
0
LINE
8
BLACK
6
CONTINUOUS
10
64.8589
20
67.4549
11
65.0008
21
67.6992
0
LINE
8
BLACK
6
CONTINUOUS
10
65.0008
20
67.6992
11
65.1757
21
67.921
0
LINE
8
BLACK
6
CONTINUOUS
10
65.1757
20
67.921
11
65.3802
21
68.116
0
LINE
8
BLACK
6
CONTINUOUS
10
65.3802
20
68.116
11
65.61
21
68.2803
0
LINE
8
BLACK
6
CONTINUOUS
10
65.61
20
68.2803
11
65.8607
21
68.4105
0
LINE
8
BLACK
6
CONTINUOUS
10
65.8607
20
68.4105
11
66.1273
21
68.5041
0
LINE
8
BLACK
6
CONTINUOUS
10
66.1273
20
68.5041
11
66.4043
21
68.5592
0
LINE
8
BLACK
6
CONTINUOUS
10
66.4043
20
68.5592
11
66.6864
21
68.5748
0
LINE
8
BLACK
6
CONTINUOUS
10
66.6864
20
68.5748
11
66.9679
21
68.5504
0
LINE
8
BLACK
6
CONTINUOUS
10
56.9179
20
68.5504
11
57.1931
21
68.4866
0
LINE
8
BLACK
6
CONTINUOUS
10
57.1931
20
68.4866
11
57.4566
21
68.3847
0
LINE
8
BLACK
6
CONTINUOUS
10
57.4566
20
68.3847
11
57.703
21
68.2466
0
LINE
8
BLACK
6
CONTINUOUS
10
57.703
20
68.2466
11
57.9276
21
68.0752
0
LINE
8
BLACK
6
CONTINUOUS
10
57.9276
20
68.0752
11
58.1258
21
67.8739
0
LINE
8
BLACK
6
CONTINUOUS
10
58.1258
20
67.8739
11
58.2937
21
67.6467
0
LINE
8
BLACK
6
CONTINUOUS
10
58.2937
20
67.6467
11
58.4278
21
67.398
0
LINE
8
BLACK
6
CONTINUOUS
10
58.4278
20
67.398
11
58.5256
21
67.133
0
LINE
8
BLACK
6
CONTINUOUS
10
58.5256
20
67.133
11
58.585
21
66.8568
0
LINE
8
BLACK
6
CONTINUOUS
10
58.585
20
66.8568
11
58.605
21
66.575
0
LINE
8
BLACK
6
CONTINUOUS
10
58.605
20
66.575
11
58.6011
21
66.4494
0
LINE
8
BLACK
6
CONTINUOUS
10
58.6011
20
66.4494
11
58.5634
21
66.1694
0
LINE
8
BLACK
6
CONTINUOUS
10
58.5634
20
66.1694
11
58.4868
21
65.8975
0
LINE
8
BLACK
6
CONTINUOUS
10
58.4868
20
65.8975
11
58.3725
21
65.6391
0
LINE
8
BLACK
6
CONTINUOUS
10
58.3725
20
65.6391
11
58.223
21
65.3994
0
LINE
8
BLACK
6
CONTINUOUS
10
58.223
20
65.3994
11
58.0413
21
65.1832
0
LINE
8
BLACK
6
CONTINUOUS
10
58.0413
20
65.1832
11
57.8308
21
64.9947
0
LINE
8
BLACK
6
CONTINUOUS
10
57.8308
20
64.9947
11
57.5959
21
64.8377
0
LINE
8
BLACK
6
CONTINUOUS
10
57.5959
20
64.8377
11
57.3412
21
64.7154
0
LINE
8
BLACK
6
CONTINUOUS
10
57.3412
20
64.7154
11
57.0719
21
64.6303
0
LINE
8
BLACK
6
CONTINUOUS
10
57.0719
20
64.6303
11
56.7932
21
64.5839
0
LINE
8
BLACK
6
CONTINUOUS
10
56.7932
20
64.5839
11
56.5108
21
64.5772
0
LINE
8
BLACK
6
CONTINUOUS
10
56.5108
20
64.5772
11
56.2302
21
64.6104
0
LINE
8
BLACK
6
CONTINUOUS
10
56.2302
20
64.6104
11
55.9572
21
64.6828
0
LINE
8
BLACK
6
CONTINUOUS
10
55.9572
20
64.6828
11
55.697
21
64.793
0
LINE
8
BLACK
6
CONTINUOUS
10
55.697
20
64.793
11
55.455
21
64.9387
0
LINE
8
BLACK
6
CONTINUOUS
10
55.455
20
64.9387
11
55.2359
21
65.1171
0
LINE
8
BLACK
6
CONTINUOUS
10
55.2359
20
65.1171
11
55.0441
21
65.3245
0
LINE
8
BLACK
6
CONTINUOUS
10
55.0441
20
65.3245
11
54.8835
21
65.5569
0
LINE
8
BLACK
6
CONTINUOUS
10
54.8835
20
65.5569
11
54.7572
21
65.8096
0
LINE
8
BLACK
6
CONTINUOUS
10
54.7572
20
65.8096
11
54.6678
21
66.0776
0
LINE
8
BLACK
6
CONTINUOUS
10
54.6678
20
66.0776
11
54.6171
21
66.3555
0
LINE
8
BLACK
6
CONTINUOUS
10
54.6171
20
66.3555
11
54.606
21
66.6378
0
LINE
8
BLACK
6
CONTINUOUS
10
54.606
20
66.6378
11
54.6348
21
66.9189
0
LINE
8
BLACK
6
CONTINUOUS
10
54.6348
20
66.9189
11
54.7029
21
67.193
0
LINE
8
BLACK
6
CONTINUOUS
10
54.7029
20
67.193
11
54.8089
21
67.4549
0
LINE
8
BLACK
6
CONTINUOUS
10
54.8089
20
67.4549
11
54.9508
21
67.6992
0
LINE
8
BLACK
6
CONTINUOUS
10
54.9508
20
67.6992
11
55.1257
21
67.921
0
LINE
8
BLACK
6
CONTINUOUS
10
55.1257
20
67.921
11
55.3302
21
68.116
0
LINE
8
BLACK
6
CONTINUOUS
10
55.3302
20
68.116
11
55.56
21
68.2803
0
LINE
8
BLACK
6
CONTINUOUS
10
55.56
20
68.2803
11
55.8107
21
68.4105
0
LINE
8
BLACK
6
CONTINUOUS
10
55.8107
20
68.4105
11
56.0773
21
68.5041
0
LINE
8
BLACK
6
CONTINUOUS
10
56.0773
20
68.5041
11
56.3543
21
68.5592
0
LINE
8
BLACK
6
CONTINUOUS
10
56.3543
20
68.5592
11
56.6364
21
68.5748
0
LINE
8
BLACK
6
CONTINUOUS
10
56.6364
20
68.5748
11
56.9179
21
68.5504
0
LINE
8
BLACK
6
CONTINUOUS
10
40.3811
20
68.5546
11
40.5675
21
68.4969
0
LINE
8
BLACK
6
CONTINUOUS
10
40.5675
20
68.4969
11
40.7392
21
68.404
0
LINE
8
BLACK
6
CONTINUOUS
10
40.7392
20
68.404
11
40.8896
21
68.2796
0
LINE
8
BLACK
6
CONTINUOUS
10
40.8896
20
68.2796
11
41.0129
21
68.1284
0
LINE
8
BLACK
6
CONTINUOUS
10
41.0129
20
68.1284
11
41.1045
21
67.9561
0
LINE
8
BLACK
6
CONTINUOUS
10
41.1045
20
67.9561
11
41.161
21
67.7692
0
LINE
8
BLACK
6
CONTINUOUS
10
41.161
20
67.7692
11
41.18
21
67.575
0
LINE
8
BLACK
6
CONTINUOUS
10
41.18
20
67.575
11
41.1796
21
67.5471
0
LINE
8
BLACK
6
CONTINUOUS
10
41.1796
20
67.5471
11
41.1551
21
67.3535
0
LINE
8
BLACK
6
CONTINUOUS
10
41.1551
20
67.3535
11
41.0935
21
67.1683
0
LINE
8
BLACK
6
CONTINUOUS
10
41.0935
20
67.1683
11
40.9971
21
66.9986
0
LINE
8
BLACK
6
CONTINUOUS
10
40.9971
20
66.9986
11
40.8696
21
66.8508
0
LINE
8
BLACK
6
CONTINUOUS
10
40.8696
20
66.8508
11
40.7158
21
66.7307
0
LINE
8
BLACK
6
CONTINUOUS
10
40.7158
20
66.7307
11
40.5416
21
66.6427
0
LINE
8
BLACK
6
CONTINUOUS
10
40.5416
20
66.6427
11
40.3536
21
66.5902
0
LINE
8
BLACK
6
CONTINUOUS
10
40.3536
20
66.5902
11
40.1591
21
66.5752
0
LINE
8
BLACK
6
CONTINUOUS
10
40.1591
20
66.5752
11
39.9653
21
66.5983
0
LINE
8
BLACK
6
CONTINUOUS
10
39.9653
20
66.5983
11
39.7797
21
66.6586
0
LINE
8
BLACK
6
CONTINUOUS
10
39.7797
20
66.6586
11
39.6093
21
66.7539
0
LINE
8
BLACK
6
CONTINUOUS
10
39.6093
20
66.7539
11
39.4607
21
66.8803
0
LINE
8
BLACK
6
CONTINUOUS
10
39.4607
20
66.8803
11
39.3394
21
67.0333
0
LINE
8
BLACK
6
CONTINUOUS
10
39.3394
20
67.0333
11
39.2502
21
67.2069
0
LINE
8
BLACK
6
CONTINUOUS
10
39.2502
20
67.2069
11
39.1964
21
67.3945
0
LINE
8
BLACK
6
CONTINUOUS
10
39.1964
20
67.3945
11
39.1801
21
67.589
0
LINE
8
BLACK
6
CONTINUOUS
10
39.1801
20
67.589
11
39.2019
21
67.7829
0
LINE
8
BLACK
6
CONTINUOUS
10
39.2019
20
67.7829
11
39.2609
21
67.9689
0
LINE
8
BLACK
6
CONTINUOUS
10
39.2609
20
67.9689
11
39.3549
21
68.14
0
LINE
8
BLACK
6
CONTINUOUS
10
39.3549
20
68.14
11
39.4803
21
68.2895
0
LINE
8
BLACK
6
CONTINUOUS
10
39.4803
20
68.2895
11
39.6324
21
68.4118
0
LINE
8
BLACK
6
CONTINUOUS
10
39.6324
20
68.4118
11
39.8054
21
68.5022
0
LINE
8
BLACK
6
CONTINUOUS
10
39.8054
20
68.5022
11
39.9926
21
68.5573
0
LINE
8
BLACK
6
CONTINUOUS
10
39.9926
20
68.5573
11
40.187
21
68.575
0
LINE
8
BLACK
6
CONTINUOUS
10
40.187
20
68.575
11
40.3811
21
68.5546
0
LINE
8
BLACK
6
CONTINUOUS
10
52.3811
20
68.5546
11
52.5675
21
68.4969
0
LINE
8
BLACK
6
CONTINUOUS
10
52.5675
20
68.4969
11
52.7392
21
68.404
0
LINE
8
BLACK
6
CONTINUOUS
10
52.7392
20
68.404
11
52.8896
21
68.2796
0
LINE
8
BLACK
6
CONTINUOUS
10
52.8896
20
68.2796
11
53.0129
21
68.1284
0
LINE
8
BLACK
6
CONTINUOUS
10
53.0129
20
68.1284
11
53.1045
21
67.9561
0
LINE
8
BLACK
6
CONTINUOUS
10
53.1045
20
67.9561
11
53.161
21
67.7692
0
LINE
8
BLACK
6
CONTINUOUS
10
53.161
20
67.7692
11
53.18
21
67.575
0
LINE
8
BLACK
6
CONTINUOUS
10
53.18
20
67.575
11
53.1796
21
67.5471
0
LINE
8
BLACK
6
CONTINUOUS
10
53.1796
20
67.5471
11
53.1551
21
67.3535
0
LINE
8
BLACK
6
CONTINUOUS
10
53.1551
20
67.3535
11
53.0935
21
67.1683
0
LINE
8
BLACK
6
CONTINUOUS
10
53.0935
20
67.1683
11
52.9971
21
66.9986
0
LINE
8
BLACK
6
CONTINUOUS
10
52.9971
20
66.9986
11
52.8696
21
66.8508
0
LINE
8
BLACK
6
CONTINUOUS
10
52.8696
20
66.8508
11
52.7158
21
66.7307
0
LINE
8
BLACK
6
CONTINUOUS
10
52.7158
20
66.7307
11
52.5416
21
66.6427
0
LINE
8
BLACK
6
CONTINUOUS
10
52.5416
20
66.6427
11
52.3536
21
66.5902
0
LINE
8
BLACK
6
CONTINUOUS
10
52.3536
20
66.5902
11
52.1591
21
66.5752
0
LINE
8
BLACK
6
CONTINUOUS
10
52.1591
20
66.5752
11
51.9653
21
66.5983
0
LINE
8
BLACK
6
CONTINUOUS
10
51.9653
20
66.5983
11
51.7797
21
66.6586
0
LINE
8
BLACK
6
CONTINUOUS
10
51.7797
20
66.6586
11
51.6093
21
66.7539
0
LINE
8
BLACK
6
CONTINUOUS
10
51.6093
20
66.7539
11
51.4607
21
66.8803
0
LINE
8
BLACK
6
CONTINUOUS
10
51.4607
20
66.8803
11
51.3394
21
67.0333
0
LINE
8
BLACK
6
CONTINUOUS
10
51.3394
20
67.0333
11
51.2502
21
67.2069
0
LINE
8
BLACK
6
CONTINUOUS
10
51.2502
20
67.2069
11
51.1964
21
67.3945
0
LINE
8
BLACK
6
CONTINUOUS
10
51.1964
20
67.3945
11
51.1801
21
67.589
0
LINE
8
BLACK
6
CONTINUOUS
10
51.1801
20
67.589
11
51.2019
21
67.7829
0
LINE
8
BLACK
6
CONTINUOUS
10
51.2019
20
67.7829
11
51.2609
21
67.9689
0
LINE
8
BLACK
6
CONTINUOUS
10
51.2609
20
67.9689
11
51.3549
21
68.14
0
LINE
8
BLACK
6
CONTINUOUS
10
51.3549
20
68.14
11
51.4803
21
68.2895
0
LINE
8
BLACK
6
CONTINUOUS
10
51.4803
20
68.2895
11
51.6324
21
68.4118
0
LINE
8
BLACK
6
CONTINUOUS
10
51.6324
20
68.4118
11
51.8054
21
68.5022
0
LINE
8
BLACK
6
CONTINUOUS
10
51.8054
20
68.5022
11
51.9926
21
68.5573
0
LINE
8
BLACK
6
CONTINUOUS
10
51.9926
20
68.5573
11
52.187
21
68.575
0
LINE
8
BLACK
6
CONTINUOUS
10
52.187
20
68.575
11
52.3811
21
68.5546
0
LINE
8
BLACK
6
CONTINUOUS
10
-0.050355
20
-0.070355
11
-0.065
21
-0.035
0
LINE
8
BLACK
6
CONTINUOUS
10
-0.065
20
-0.035
11
-0.065
21
69.915
0
LINE
8
BLACK
6
CONTINUOUS
10
-0.065
20
69.915
11
-0.050355
21
69.9504
0
LINE
8
BLACK
6
CONTINUOUS
10
-0.050355
20
69.9504
11
-0.015
21
69.965
0
LINE
8
BLACK
6
CONTINUOUS
10
-0.015
20
69.965
11
79.62
21
69.965
0
LINE
8
BLACK
6
CONTINUOUS
10
79.62
20
69.965
11
79.6554
21
69.9504
0
LINE
8
BLACK
6
CONTINUOUS
10
79.6554
20
69.9504
11
79.67
21
69.915
0
LINE
8
BLACK
6
CONTINUOUS
10
79.67
20
69.915
11
79.67
21
-0.035
0
LINE
8
BLACK
6
CONTINUOUS
10
79.67
20
-0.035
11
79.6554
21
-0.070355
0
LINE
8
BLACK
6
CONTINUOUS
10
79.6554
20
-0.070355
11
79.62
21
-0.085
0
LINE
8
BLACK
6
CONTINUOUS
10
79.62
20
-0.085
11
-0.015
21
-0.085
0
LINE
8
BLACK
6
CONTINUOUS
10
-0.015
20
-0.085
11
-0.050355
21
-0.070355
0
LINE
8
BLACK
6
CONTINUOUS
10
0.035
20
69.865
11
0.035
21
0.015
0
LINE
8
BLACK
6
CONTINUOUS
10
0.035
20
0.015
11
79.57
21
0.015
0
LINE
8
BLACK
6
CONTINUOUS
10
79.57
20
0.015
11
79.57
21
69.865
0
LINE
8
BLACK
6
CONTINUOUS
10
79.57
20
69.865
11
0.035
21
69.865
  0
ENDSEC
  0
EOF
