  0
SECTION
  2
HEADER
  9
$ANGBASE
  50
0.0
  9
$ANGDIR
  70
1
  9
$MEASUREMENT
  70
1
  0
ENDSEC
  0
SECTION
  2
TABLES
  0
TABLE
  2
LTYPE
  70
4
  0
LTYPE
  5
40F
  2
CONTINUOUS
  70
0
  3
Solid line
  72
65
  73
0
  40
0.0
  0
LTYPE
  5
410
  2
DASHDOT
 70
0
  3
Dash Dot ____ _ ____ _
 72
65
 73
4
 40
2.0
 49
1.25
 49
-0.25
 49
0.25
 49
-0.25
  0
LTYPE
  5
411
  2
DASHED
 70
0
  3
Dashed __ __ __ __ __
 72
65
 73
2
 40
0.75
 49
0.5
 49
-0.25
  0
LTYPE
  5
43B
  2
DOTTED
 70
0
  3
Dotted .  .  .  .
 72
65
 73
2
 40
0.2
 49
0.0
 49
-0.2
  0
ENDTAB
  0
TABLE
  2
STYLE
  70
4
  0
STYLE
  2
KICAD
  70
0
  40
0
  41
1
  42
1
  50
0
  71
0
  3
isocp.shx
  0
STYLE
  2
KICADB
  70
0
  40
0
  41
1
  42
1
  50
0
  71
0
  3
isocp.shx
  0
STYLE
  2
KICADI
  70
0
  40
0
  41
1
  42
1
  50
15
  71
0
  3
isocp.shx
  0
STYLE
  2
KICADBI
  70
0
  40
0
  41
1
  42
1
  50
15
  71
0
  3
isocp.shx
  0
ENDTAB
  0
TABLE
  2
LAYER
  70
1
  0
LAYER
  2
BLACK
  70
0
  62
7
  6
CONTINUOUS
  0
ENDTAB
  0
ENDSEC
  0
SECTION
  2
ENTITIES
0
LINE
8
BLACK
6
CONTINUOUS
10
-0.050355
20
-0.070355
11
-0.065
21
-0.035
0
LINE
8
BLACK
6
CONTINUOUS
10
-0.065
20
-0.035
11
-0.065
21
69.915
0
LINE
8
BLACK
6
CONTINUOUS
10
-0.065
20
69.915
11
-0.050355
21
69.9504
0
LINE
8
BLACK
6
CONTINUOUS
10
-0.050355
20
69.9504
11
-0.015
21
69.965
0
LINE
8
BLACK
6
CONTINUOUS
10
-0.015
20
69.965
11
79.62
21
69.965
0
LINE
8
BLACK
6
CONTINUOUS
10
79.62
20
69.965
11
79.6554
21
69.9504
0
LINE
8
BLACK
6
CONTINUOUS
10
79.6554
20
69.9504
11
79.67
21
69.915
0
LINE
8
BLACK
6
CONTINUOUS
10
79.67
20
69.915
11
79.67
21
-0.035
0
LINE
8
BLACK
6
CONTINUOUS
10
79.67
20
-0.035
11
79.6554
21
-0.070355
0
LINE
8
BLACK
6
CONTINUOUS
10
79.6554
20
-0.070355
11
79.62
21
-0.085
0
LINE
8
BLACK
6
CONTINUOUS
10
79.62
20
-0.085
11
-0.015
21
-0.085
0
LINE
8
BLACK
6
CONTINUOUS
10
-0.015
20
-0.085
11
-0.050355
21
-0.070355
0
LINE
8
BLACK
6
CONTINUOUS
10
0.035
20
69.865
11
0.035
21
0.015
0
LINE
8
BLACK
6
CONTINUOUS
10
0.035
20
0.015
11
79.57
21
0.015
0
LINE
8
BLACK
6
CONTINUOUS
10
79.57
20
0.015
11
79.57
21
69.865
0
LINE
8
BLACK
6
CONTINUOUS
10
79.57
20
69.865
11
0.035
21
69.865
0
LINE
8
BLACK
6
CONTINUOUS
10
75.3535
20
4.8839
11
75.6129
21
4.81444
0
LINE
8
BLACK
6
CONTINUOUS
10
75.6129
20
4.81444
11
75.8603
21
4.70999
0
LINE
8
BLACK
6
CONTINUOUS
10
75.8603
20
4.70999
11
76.091
21
4.57254
0
LINE
8
BLACK
6
CONTINUOUS
10
76.091
20
4.57254
11
76.3007
21
4.40469
0
LINE
8
BLACK
6
CONTINUOUS
10
76.3007
20
4.40469
11
76.4853
21
4.20963
0
LINE
8
BLACK
6
CONTINUOUS
10
76.4853
20
4.20963
11
76.6413
21
3.99105
0
LINE
8
BLACK
6
CONTINUOUS
10
76.6413
20
3.99105
11
76.7658
21
3.75311
0
LINE
8
BLACK
6
CONTINUOUS
10
76.7658
20
3.75311
11
76.8565
21
3.50032
0
LINE
8
BLACK
6
CONTINUOUS
10
76.8565
20
3.50032
11
76.9116
21
3.23746
0
LINE
8
BLACK
6
CONTINUOUS
10
76.9116
20
3.23746
11
76.93
21
2.96954
0
LINE
8
BLACK
6
CONTINUOUS
10
76.93
20
2.96954
11
76.9114
21
2.70162
0
LINE
8
BLACK
6
CONTINUOUS
10
76.9114
20
2.70162
11
76.8562
21
2.43879
0
LINE
8
BLACK
6
CONTINUOUS
10
76.8562
20
2.43879
11
76.7655
21
2.18604
0
LINE
8
BLACK
6
CONTINUOUS
10
76.7655
20
2.18604
11
76.6408
21
1.94815
0
LINE
8
BLACK
6
CONTINUOUS
10
76.6408
20
1.94815
11
76.4847
21
1.72965
0
LINE
8
BLACK
6
CONTINUOUS
10
76.4847
20
1.72965
11
76.3
21
1.53468
0
LINE
8
BLACK
6
CONTINUOUS
10
76.3
20
1.53468
11
76.0903
21
1.36693
0
LINE
8
BLACK
6
CONTINUOUS
10
76.0903
20
1.36693
11
75.8595
21
1.22959
0
LINE
8
BLACK
6
CONTINUOUS
10
75.8595
20
1.22959
11
75.612
21
1.12526
0
LINE
8
BLACK
6
CONTINUOUS
10
75.612
20
1.12526
11
75.3525
21
1.05592
0
LINE
8
BLACK
6
CONTINUOUS
10
75.3525
20
1.05592
11
75.086
21
1.02289
0
LINE
8
BLACK
6
CONTINUOUS
10
75.086
20
1.02289
11
74.8175
21
1.02678
0
LINE
8
BLACK
6
CONTINUOUS
10
74.8175
20
1.02678
11
74.552
21
1.06754
0
LINE
8
BLACK
6
CONTINUOUS
10
74.552
20
1.06754
11
74.2947
21
1.14438
0
LINE
8
BLACK
6
CONTINUOUS
10
74.2947
20
1.14438
11
74.0504
21
1.25585
0
LINE
8
BLACK
6
CONTINUOUS
10
74.0504
20
1.25585
11
73.8237
21
1.39984
0
LINE
8
BLACK
6
CONTINUOUS
10
73.8237
20
1.39984
11
73.6189
21
1.5736
0
LINE
8
BLACK
6
CONTINUOUS
10
73.6189
20
1.5736
11
73.4449
21
1.76836
0
LINE
8
BLACK
6
CONTINUOUS
10
73.4449
20
1.76836
11
73.4446
21
1.76845
0
LINE
8
BLACK
6
CONTINUOUS
10
73.4446
20
1.76845
11
73.4445
21
1.76874
0
LINE
8
BLACK
6
CONTINUOUS
10
73.4445
20
1.76874
11
73.44
21
1.77385
0
LINE
8
BLACK
6
CONTINUOUS
10
73.44
20
1.77385
11
73.4352
21
1.79137
0
LINE
8
BLACK
6
CONTINUOUS
10
73.4352
20
1.79137
11
73.43
21
1.80381
0
LINE
8
BLACK
6
CONTINUOUS
10
73.43
20
1.80381
11
73.43
21
1.81016
0
LINE
8
BLACK
6
CONTINUOUS
10
73.43
20
1.81016
11
73.4298
21
1.81076
0
LINE
8
BLACK
6
CONTINUOUS
10
73.4298
20
1.81076
11
73.43
21
1.81105
0
LINE
8
BLACK
6
CONTINUOUS
10
73.43
20
1.81105
11
73.43
21
4.13619
0
LINE
8
BLACK
6
CONTINUOUS
10
73.43
20
4.13619
11
73.4362
21
4.15121
0
LINE
8
BLACK
6
CONTINUOUS
10
73.4362
20
4.15121
11
73.4405
21
4.16688
0
LINE
8
BLACK
6
CONTINUOUS
10
73.4405
20
4.16688
11
73.4405
21
4.16688
0
LINE
8
BLACK
6
CONTINUOUS
10
73.4405
20
4.16688
11
73.4446
21
4.17143
0
LINE
8
BLACK
6
CONTINUOUS
10
73.4446
20
4.17143
11
73.4446
21
4.17155
0
LINE
8
BLACK
6
CONTINUOUS
10
73.4446
20
4.17155
11
73.4447
21
4.17158
0
LINE
8
BLACK
6
CONTINUOUS
10
73.4447
20
4.17158
11
73.6196
21
4.36705
0
LINE
8
BLACK
6
CONTINUOUS
10
73.6196
20
4.36705
11
73.8244
21
4.54071
0
LINE
8
BLACK
6
CONTINUOUS
10
73.8244
20
4.54071
11
74.0512
21
4.68459
0
LINE
8
BLACK
6
CONTINUOUS
10
74.0512
20
4.68459
11
74.2956
21
4.79594
0
LINE
8
BLACK
6
CONTINUOUS
10
74.2956
20
4.79594
11
74.553
21
4.87266
0
LINE
8
BLACK
6
CONTINUOUS
10
74.553
20
4.87266
11
74.8184
21
4.91329
0
LINE
8
BLACK
6
CONTINUOUS
10
74.8184
20
4.91329
11
75.087
21
4.91706
0
LINE
8
BLACK
6
CONTINUOUS
10
75.087
20
4.91706
11
75.3535
21
4.8839
0
LINE
8
BLACK
6
CONTINUOUS
10
74.6095
20
4.78735
11
74.3565
21
4.71677
0
LINE
8
BLACK
6
CONTINUOUS
10
74.3565
20
4.71677
11
74.1159
21
4.61114
0
LINE
8
BLACK
6
CONTINUOUS
10
74.1159
20
4.61114
11
73.8927
21
4.47258
0
LINE
8
BLACK
6
CONTINUOUS
10
73.8927
20
4.47258
11
73.6913
21
4.30387
0
LINE
8
BLACK
6
CONTINUOUS
10
73.6913
20
4.30387
11
73.53
21
4.12428
0
LINE
8
BLACK
6
CONTINUOUS
10
73.53
20
4.12428
11
73.53
21
3.50725
0
LINE
8
BLACK
6
CONTINUOUS
10
73.53
20
3.50725
11
73.5989
21
3.67368
0
LINE
8
BLACK
6
CONTINUOUS
10
73.5989
20
3.67368
11
73.726
21
3.88107
0
LINE
8
BLACK
6
CONTINUOUS
10
73.726
20
3.88107
11
73.884
21
4.06602
0
LINE
8
BLACK
6
CONTINUOUS
10
73.884
20
4.06602
11
74.0689
21
4.22398
0
LINE
8
BLACK
6
CONTINUOUS
10
74.0689
20
4.22398
11
74.2763
21
4.35106
0
LINE
8
BLACK
6
CONTINUOUS
10
74.2763
20
4.35106
11
74.501
21
4.44414
0
LINE
8
BLACK
6
CONTINUOUS
10
74.501
20
4.44414
11
74.7375
21
4.50092
0
LINE
8
BLACK
6
CONTINUOUS
10
74.7375
20
4.50092
11
74.98
21
4.52
0
LINE
8
BLACK
6
CONTINUOUS
10
74.98
20
4.52
11
75.2225
21
4.50092
0
LINE
8
BLACK
6
CONTINUOUS
10
75.2225
20
4.50092
11
75.459
21
4.44414
0
LINE
8
BLACK
6
CONTINUOUS
10
75.459
20
4.44414
11
75.6837
21
4.35106
0
LINE
8
BLACK
6
CONTINUOUS
10
75.6837
20
4.35106
11
75.8911
21
4.22398
0
LINE
8
BLACK
6
CONTINUOUS
10
75.8911
20
4.22398
11
76.076
21
4.06602
0
LINE
8
BLACK
6
CONTINUOUS
10
76.076
20
4.06602
11
76.234
21
3.88107
0
LINE
8
BLACK
6
CONTINUOUS
10
76.234
20
3.88107
11
76.3611
21
3.67368
0
LINE
8
BLACK
6
CONTINUOUS
10
76.3611
20
3.67368
11
76.4541
21
3.44898
0
LINE
8
BLACK
6
CONTINUOUS
10
76.4541
20
3.44898
11
76.5109
21
3.21247
0
LINE
8
BLACK
6
CONTINUOUS
10
76.5109
20
3.21247
11
76.53
21
2.97
0
LINE
8
BLACK
6
CONTINUOUS
10
76.53
20
2.97
11
76.5109
21
2.72753
0
LINE
8
BLACK
6
CONTINUOUS
10
76.5109
20
2.72753
11
76.4541
21
2.49102
0
LINE
8
BLACK
6
CONTINUOUS
10
76.4541
20
2.49102
11
76.3611
21
2.26632
0
LINE
8
BLACK
6
CONTINUOUS
10
76.3611
20
2.26632
11
76.234
21
2.05893
0
LINE
8
BLACK
6
CONTINUOUS
10
76.234
20
2.05893
11
76.076
21
1.87398
0
LINE
8
BLACK
6
CONTINUOUS
10
76.076
20
1.87398
11
75.8911
21
1.71602
0
LINE
8
BLACK
6
CONTINUOUS
10
75.8911
20
1.71602
11
75.6837
21
1.58894
0
LINE
8
BLACK
6
CONTINUOUS
10
75.6837
20
1.58894
11
75.459
21
1.49586
0
LINE
8
BLACK
6
CONTINUOUS
10
75.459
20
1.49586
11
75.2225
21
1.43908
0
LINE
8
BLACK
6
CONTINUOUS
10
75.2225
20
1.43908
11
74.98
21
1.42
0
LINE
8
BLACK
6
CONTINUOUS
10
74.98
20
1.42
11
74.7375
21
1.43908
0
LINE
8
BLACK
6
CONTINUOUS
10
74.7375
20
1.43908
11
74.501
21
1.49586
0
LINE
8
BLACK
6
CONTINUOUS
10
74.501
20
1.49586
11
74.2763
21
1.58894
0
LINE
8
BLACK
6
CONTINUOUS
10
74.2763
20
1.58894
11
74.0689
21
1.71602
0
LINE
8
BLACK
6
CONTINUOUS
10
74.0689
20
1.71602
11
73.884
21
1.87398
0
LINE
8
BLACK
6
CONTINUOUS
10
73.884
20
1.87398
11
73.726
21
2.05893
0
LINE
8
BLACK
6
CONTINUOUS
10
73.726
20
2.05893
11
73.5989
21
2.26632
0
LINE
8
BLACK
6
CONTINUOUS
10
73.5989
20
2.26632
11
73.53
21
2.43275
0
LINE
8
BLACK
6
CONTINUOUS
10
73.53
20
2.43275
11
73.53
21
1.8158
0
LINE
8
BLACK
6
CONTINUOUS
10
73.53
20
1.8158
11
73.6907
21
1.63674
0
LINE
8
BLACK
6
CONTINUOUS
10
73.6907
20
1.63674
11
73.892
21
1.46794
0
LINE
8
BLACK
6
CONTINUOUS
10
73.892
20
1.46794
11
74.1151
21
1.32927
0
LINE
8
BLACK
6
CONTINUOUS
10
74.1151
20
1.32927
11
74.3556
21
1.22353
0
LINE
8
BLACK
6
CONTINUOUS
10
74.3556
20
1.22353
11
74.6087
21
1.15283
0
LINE
8
BLACK
6
CONTINUOUS
10
74.6087
20
1.15283
11
74.8691
21
1.11859
0
LINE
8
BLACK
6
CONTINUOUS
10
74.8691
20
1.11859
11
75.1319
21
1.1215
0
LINE
8
BLACK
6
CONTINUOUS
10
75.1319
20
1.1215
11
75.3915
21
1.1615
0
LINE
8
BLACK
6
CONTINUOUS
10
75.3915
20
1.1615
11
75.6429
21
1.23779
0
LINE
8
BLACK
6
CONTINUOUS
10
75.6429
20
1.23779
11
75.881
21
1.34884
0
LINE
8
BLACK
6
CONTINUOUS
10
75.881
20
1.34884
11
76.1011
21
1.49242
0
LINE
8
BLACK
6
CONTINUOUS
10
76.1011
20
1.49242
11
76.2986
21
1.66564
0
LINE
8
BLACK
6
CONTINUOUS
10
76.2986
20
1.66564
11
76.4697
21
1.86504
0
LINE
8
BLACK
6
CONTINUOUS
10
76.4697
20
1.86504
11
76.6108
21
2.08661
0
LINE
8
BLACK
6
CONTINUOUS
10
76.6108
20
2.08661
11
76.7193
21
2.3259
0
LINE
8
BLACK
6
CONTINUOUS
10
76.7193
20
2.3259
11
76.7929
21
2.57812
0
LINE
8
BLACK
6
CONTINUOUS
10
76.7929
20
2.57812
11
76.83
21
2.8382
0
LINE
8
BLACK
6
CONTINUOUS
10
76.83
20
2.8382
11
76.8301
21
3.10092
0
LINE
8
BLACK
6
CONTINUOUS
10
76.8301
20
3.10092
11
76.793
21
3.36102
0
LINE
8
BLACK
6
CONTINUOUS
10
76.793
20
3.36102
11
76.7196
21
3.61327
0
LINE
8
BLACK
6
CONTINUOUS
10
76.7196
20
3.61327
11
76.6113
21
3.85262
0
LINE
8
BLACK
6
CONTINUOUS
10
76.6113
20
3.85262
11
76.4702
21
4.07425
0
LINE
8
BLACK
6
CONTINUOUS
10
76.4702
20
4.07425
11
76.2992
21
4.27373
0
LINE
8
BLACK
6
CONTINUOUS
10
76.2992
20
4.27373
11
76.1018
21
4.44705
0
LINE
8
BLACK
6
CONTINUOUS
10
76.1018
20
4.44705
11
75.8818
21
4.59073
0
LINE
8
BLACK
6
CONTINUOUS
10
75.8818
20
4.59073
11
75.6437
21
4.70189
0
LINE
8
BLACK
6
CONTINUOUS
10
75.6437
20
4.70189
11
75.3924
21
4.7783
0
LINE
8
BLACK
6
CONTINUOUS
10
75.3924
20
4.7783
11
75.1327
21
4.81842
0
LINE
8
BLACK
6
CONTINUOUS
10
75.1327
20
4.81842
11
74.87
21
4.82146
0
LINE
8
BLACK
6
CONTINUOUS
10
74.87
20
4.82146
11
74.6095
21
4.78735
0
LINE
8
BLACK
6
CONTINUOUS
10
74.6428
20
4.38536
11
74.4162
21
4.31128
0
LINE
8
BLACK
6
CONTINUOUS
10
74.4162
20
4.31128
11
74.2047
21
4.20118
0
LINE
8
BLACK
6
CONTINUOUS
10
74.2047
20
4.20118
11
74.014
21
4.05802
0
LINE
8
BLACK
6
CONTINUOUS
10
74.014
20
4.05802
11
73.8493
21
3.88564
0
LINE
8
BLACK
6
CONTINUOUS
10
73.8493
20
3.88564
11
73.7149
21
3.68867
0
LINE
8
BLACK
6
CONTINUOUS
10
73.7149
20
3.68867
11
73.6145
21
3.4724
0
LINE
8
BLACK
6
CONTINUOUS
10
73.6145
20
3.4724
11
73.5508
21
3.24263
0
LINE
8
BLACK
6
CONTINUOUS
10
73.5508
20
3.24263
11
73.53
21
3.04798
0
LINE
8
BLACK
6
CONTINUOUS
10
73.53
20
3.04798
11
73.53
21
2.9269
0
LINE
8
BLACK
6
CONTINUOUS
10
73.53
20
2.9269
11
73.5392
21
2.76751
0
LINE
8
BLACK
6
CONTINUOUS
10
73.5392
20
2.76751
11
73.5916
21
2.5349
0
LINE
8
BLACK
6
CONTINUOUS
10
73.5916
20
2.5349
11
73.6813
21
2.31399
0
LINE
8
BLACK
6
CONTINUOUS
10
73.6813
20
2.31399
11
73.8059
21
2.11069
0
LINE
8
BLACK
6
CONTINUOUS
10
73.8059
20
2.11069
11
73.962
21
1.93046
0
LINE
8
BLACK
6
CONTINUOUS
10
73.962
20
1.93046
11
74.1455
21
1.77816
0
LINE
8
BLACK
6
CONTINUOUS
10
74.1455
20
1.77816
11
74.3513
21
1.65786
0
LINE
8
BLACK
6
CONTINUOUS
10
74.3513
20
1.65786
11
74.5741
21
1.5728
0
LINE
8
BLACK
6
CONTINUOUS
10
74.5741
20
1.5728
11
74.8077
21
1.52527
0
LINE
8
BLACK
6
CONTINUOUS
10
74.8077
20
1.52527
11
75.046
21
1.51653
0
LINE
8
BLACK
6
CONTINUOUS
10
75.046
20
1.51653
11
75.2825
21
1.54683
0
LINE
8
BLACK
6
CONTINUOUS
10
75.2825
20
1.54683
11
75.5109
21
1.61534
0
LINE
8
BLACK
6
CONTINUOUS
10
75.5109
20
1.61534
11
75.725
21
1.72024
0
LINE
8
BLACK
6
CONTINUOUS
10
75.725
20
1.72024
11
75.9191
21
1.8587
0
LINE
8
BLACK
6
CONTINUOUS
10
75.9191
20
1.8587
11
76.088
21
2.02701
0
LINE
8
BLACK
6
CONTINUOUS
10
76.088
20
2.02701
11
76.2272
21
2.22064
0
LINE
8
BLACK
6
CONTINUOUS
10
76.2272
20
2.22064
11
76.3328
21
2.43439
0
LINE
8
BLACK
6
CONTINUOUS
10
76.3328
20
2.43439
11
76.4021
21
2.66253
0
LINE
8
BLACK
6
CONTINUOUS
10
76.4021
20
2.66253
11
76.4332
21
2.89892
0
LINE
8
BLACK
6
CONTINUOUS
10
76.4332
20
2.89892
11
76.435
21
2.97
0
LINE
8
BLACK
6
CONTINUOUS
10
76.435
20
2.97
11
76.4154
21
3.20763
0
LINE
8
BLACK
6
CONTINUOUS
10
76.4154
20
3.20763
11
76.3573
21
3.43889
0
LINE
8
BLACK
6
CONTINUOUS
10
76.3573
20
3.43889
11
76.2623
21
3.65755
0
LINE
8
BLACK
6
CONTINUOUS
10
76.2623
20
3.65755
11
76.1328
21
3.85774
0
LINE
8
BLACK
6
CONTINUOUS
10
76.1328
20
3.85774
11
75.9723
21
4.0341
0
LINE
8
BLACK
6
CONTINUOUS
10
75.9723
20
4.0341
11
75.7852
21
4.18187
0
LINE
8
BLACK
6
CONTINUOUS
10
75.7852
20
4.18187
11
75.5764
21
4.29711
0
LINE
8
BLACK
6
CONTINUOUS
10
75.5764
20
4.29711
11
75.3517
21
4.3767
0
LINE
8
BLACK
6
CONTINUOUS
10
75.3517
20
4.3767
11
75.1169
21
4.41851
0
LINE
8
BLACK
6
CONTINUOUS
10
75.1169
20
4.41851
11
74.8785
21
4.42143
0
LINE
8
BLACK
6
CONTINUOUS
10
74.8785
20
4.42143
11
74.6428
21
4.38536
0
LINE
8
BLACK
6
CONTINUOUS
10
3.59464
20
4.41465
11
3.58
21
4.45
0
LINE
8
BLACK
6
CONTINUOUS
10
3.58
20
4.45
11
3.58
21
58.95
0
LINE
8
BLACK
6
CONTINUOUS
10
3.58
20
58.95
11
3.59464
21
58.9854
0
LINE
8
BLACK
6
CONTINUOUS
10
3.59464
20
58.9854
11
3.63
21
59
0
LINE
8
BLACK
6
CONTINUOUS
10
3.63
20
59
11
33.83
21
59
0
LINE
8
BLACK
6
CONTINUOUS
10
33.83
20
59
11
33.8654
21
58.9854
0
LINE
8
BLACK
6
CONTINUOUS
10
33.8654
20
58.9854
11
33.88
21
58.95
0
LINE
8
BLACK
6
CONTINUOUS
10
33.88
20
58.95
11
33.88
21
4.45
0
LINE
8
BLACK
6
CONTINUOUS
10
33.88
20
4.45
11
33.8654
21
4.41465
0
LINE
8
BLACK
6
CONTINUOUS
10
33.8654
20
4.41465
11
33.83
21
4.4
0
LINE
8
BLACK
6
CONTINUOUS
10
33.83
20
4.4
11
3.63
21
4.4
0
LINE
8
BLACK
6
CONTINUOUS
10
3.63
20
4.4
11
3.59464
21
4.41465
0
LINE
8
BLACK
6
CONTINUOUS
10
22.4946
20
51.8146
11
22.48
21
51.85
0
LINE
8
BLACK
6
CONTINUOUS
10
22.48
20
51.85
11
22.48
21
53.8
0
LINE
8
BLACK
6
CONTINUOUS
10
22.48
20
53.8
11
14.48
21
53.8
0
LINE
8
BLACK
6
CONTINUOUS
10
14.48
20
53.8
11
14.48
21
51.85
0
LINE
8
BLACK
6
CONTINUOUS
10
14.48
20
51.85
11
14.4654
21
51.8146
0
LINE
8
BLACK
6
CONTINUOUS
10
14.4654
20
51.8146
11
14.43
21
51.8
0
LINE
8
BLACK
6
CONTINUOUS
10
14.43
20
51.8
11
10.33
21
51.8
0
LINE
8
BLACK
6
CONTINUOUS
10
10.33
20
51.8
11
10.2946
21
51.8146
0
LINE
8
BLACK
6
CONTINUOUS
10
10.2946
20
51.8146
11
10.28
21
51.85
0
LINE
8
BLACK
6
CONTINUOUS
10
10.28
20
51.85
11
10.28
21
53.8
0
LINE
8
BLACK
6
CONTINUOUS
10
10.28
20
53.8
11
5.78
21
53.8
0
LINE
8
BLACK
6
CONTINUOUS
10
5.78
20
53.8
11
5.78
21
28.85
0
LINE
8
BLACK
6
CONTINUOUS
10
5.78
20
28.85
11
5.76535
21
28.8146
0
LINE
8
BLACK
6
CONTINUOUS
10
5.76535
20
28.8146
11
5.73
21
28.8
0
LINE
8
BLACK
6
CONTINUOUS
10
5.73
20
28.8
11
3.68
21
28.8
0
LINE
8
BLACK
6
CONTINUOUS
10
3.68
20
28.8
11
3.68
21
4.5
0
LINE
8
BLACK
6
CONTINUOUS
10
3.68
20
4.5
11
9.68
21
4.5
0
LINE
8
BLACK
6
CONTINUOUS
10
9.68
20
4.5
11
9.68
21
8.85
0
LINE
8
BLACK
6
CONTINUOUS
10
9.68
20
8.85
11
9.69464
21
8.88535
0
LINE
8
BLACK
6
CONTINUOUS
10
9.69464
20
8.88535
11
9.73
21
8.9
0
LINE
8
BLACK
6
CONTINUOUS
10
9.73
20
8.9
11
27.73
21
8.9
0
LINE
8
BLACK
6
CONTINUOUS
10
27.73
20
8.9
11
27.7654
21
8.88535
0
LINE
8
BLACK
6
CONTINUOUS
10
27.7654
20
8.88535
11
27.78
21
8.85
0
LINE
8
BLACK
6
CONTINUOUS
10
27.78
20
8.85
11
27.78
21
4.5
0
LINE
8
BLACK
6
CONTINUOUS
10
27.78
20
4.5
11
33.78
21
4.5
0
LINE
8
BLACK
6
CONTINUOUS
10
33.78
20
4.5
11
33.78
21
28.8
0
LINE
8
BLACK
6
CONTINUOUS
10
33.78
20
28.8
11
31.73
21
28.8
0
LINE
8
BLACK
6
CONTINUOUS
10
31.73
20
28.8
11
31.6946
21
28.8146
0
LINE
8
BLACK
6
CONTINUOUS
10
31.6946
20
28.8146
11
31.68
21
28.85
0
LINE
8
BLACK
6
CONTINUOUS
10
31.68
20
28.85
11
31.68
21
53.8
0
LINE
8
BLACK
6
CONTINUOUS
10
31.68
20
53.8
11
27.68
21
53.8
0
LINE
8
BLACK
6
CONTINUOUS
10
27.68
20
53.8
11
27.68
21
51.85
0
LINE
8
BLACK
6
CONTINUOUS
10
27.68
20
51.85
11
27.6654
21
51.8146
0
LINE
8
BLACK
6
CONTINUOUS
10
27.6654
20
51.8146
11
27.63
21
51.8
0
LINE
8
BLACK
6
CONTINUOUS
10
27.63
20
51.8
11
22.53
21
51.8
0
LINE
8
BLACK
6
CONTINUOUS
10
22.53
20
51.8
11
22.4946
21
51.8146
0
LINE
8
BLACK
6
CONTINUOUS
10
9.78
20
5.8
11
9.78
21
4.5
0
LINE
8
BLACK
6
CONTINUOUS
10
9.78
20
4.5
11
27.68
21
4.5
0
LINE
8
BLACK
6
CONTINUOUS
10
27.68
20
4.5
11
27.68
21
5.8
0
LINE
8
BLACK
6
CONTINUOUS
10
27.68
20
5.8
11
9.78
21
5.8
0
LINE
8
BLACK
6
CONTINUOUS
10
9.78
20
6.8
11
9.78
21
5.9
0
LINE
8
BLACK
6
CONTINUOUS
10
9.78
20
5.9
11
27.68
21
5.9
0
LINE
8
BLACK
6
CONTINUOUS
10
27.68
20
5.9
11
27.68
21
6.8
0
LINE
8
BLACK
6
CONTINUOUS
10
27.68
20
6.8
11
9.78
21
6.8
0
LINE
8
BLACK
6
CONTINUOUS
10
9.78
20
7.8
11
9.78
21
6.9
0
LINE
8
BLACK
6
CONTINUOUS
10
9.78
20
6.9
11
27.68
21
6.9
0
LINE
8
BLACK
6
CONTINUOUS
10
27.68
20
6.9
11
27.68
21
7.8
0
LINE
8
BLACK
6
CONTINUOUS
10
27.68
20
7.8
11
9.78
21
7.8
0
LINE
8
BLACK
6
CONTINUOUS
10
9.78
20
8.8
11
9.78
21
7.9
0
LINE
8
BLACK
6
CONTINUOUS
10
9.78
20
7.9
11
27.68
21
7.9
0
LINE
8
BLACK
6
CONTINUOUS
10
27.68
20
7.9
11
27.68
21
8.8
0
LINE
8
BLACK
6
CONTINUOUS
10
27.68
20
8.8
11
9.78
21
8.8
0
LINE
8
BLACK
6
CONTINUOUS
10
31.78
20
53.8
11
31.78
21
28.9
0
LINE
8
BLACK
6
CONTINUOUS
10
31.78
20
28.9
11
33.78
21
28.9
0
LINE
8
BLACK
6
CONTINUOUS
10
33.78
20
28.9
11
33.78
21
53.8
0
LINE
8
BLACK
6
CONTINUOUS
10
33.78
20
53.8
11
31.78
21
53.8
0
LINE
8
BLACK
6
CONTINUOUS
10
3.68
20
53.8
11
3.68
21
28.9
0
LINE
8
BLACK
6
CONTINUOUS
10
3.68
20
28.9
11
5.68
21
28.9
0
LINE
8
BLACK
6
CONTINUOUS
10
5.68
20
28.9
11
5.68
21
53.8
0
LINE
8
BLACK
6
CONTINUOUS
10
5.68
20
53.8
11
3.68
21
53.8
0
LINE
8
BLACK
6
CONTINUOUS
10
22.58
20
53.8
11
22.58
21
51.9
0
LINE
8
BLACK
6
CONTINUOUS
10
22.58
20
51.9
11
22.98
21
51.9
0
LINE
8
BLACK
6
CONTINUOUS
10
22.98
20
51.9
11
22.98
21
53.8
0
LINE
8
BLACK
6
CONTINUOUS
10
22.98
20
53.8
11
22.58
21
53.8
0
LINE
8
BLACK
6
CONTINUOUS
10
23.08
20
53.8
11
23.08
21
51.9
0
LINE
8
BLACK
6
CONTINUOUS
10
23.08
20
51.9
11
24.78
21
51.9
0
LINE
8
BLACK
6
CONTINUOUS
10
24.78
20
51.9
11
24.78
21
53.8
0
LINE
8
BLACK
6
CONTINUOUS
10
24.78
20
53.8
11
23.08
21
53.8
0
LINE
8
BLACK
6
CONTINUOUS
10
24.88
20
53.8
11
24.88
21
51.9
0
LINE
8
BLACK
6
CONTINUOUS
10
24.88
20
51.9
11
25.28
21
51.9
0
LINE
8
BLACK
6
CONTINUOUS
10
25.28
20
51.9
11
25.28
21
53.8
0
LINE
8
BLACK
6
CONTINUOUS
10
25.28
20
53.8
11
24.88
21
53.8
0
LINE
8
BLACK
6
CONTINUOUS
10
25.38
20
53.8
11
25.38
21
51.9
0
LINE
8
BLACK
6
CONTINUOUS
10
25.38
20
51.9
11
27.08
21
51.9
0
LINE
8
BLACK
6
CONTINUOUS
10
27.08
20
51.9
11
27.08
21
53.8
0
LINE
8
BLACK
6
CONTINUOUS
10
27.08
20
53.8
11
25.38
21
53.8
0
LINE
8
BLACK
6
CONTINUOUS
10
27.18
20
53.8
11
27.18
21
51.9
0
LINE
8
BLACK
6
CONTINUOUS
10
27.18
20
51.9
11
27.58
21
51.9
0
LINE
8
BLACK
6
CONTINUOUS
10
27.58
20
51.9
11
27.58
21
53.8
0
LINE
8
BLACK
6
CONTINUOUS
10
27.58
20
53.8
11
27.18
21
53.8
0
LINE
8
BLACK
6
CONTINUOUS
10
10.38
20
53.8
11
10.38
21
51.9
0
LINE
8
BLACK
6
CONTINUOUS
10
10.38
20
51.9
11
14.38
21
51.9
0
LINE
8
BLACK
6
CONTINUOUS
10
14.38
20
51.9
11
14.38
21
53.8
0
LINE
8
BLACK
6
CONTINUOUS
10
14.38
20
53.8
11
10.38
21
53.8
0
LINE
8
BLACK
6
CONTINUOUS
10
3.68
20
57.65
11
3.68
21
53.9
0
LINE
8
BLACK
6
CONTINUOUS
10
3.68
20
53.9
11
33.78
21
53.9
0
LINE
8
BLACK
6
CONTINUOUS
10
33.78
20
53.9
11
33.78
21
57.65
0
LINE
8
BLACK
6
CONTINUOUS
10
33.78
20
57.65
11
3.68
21
57.65
0
LINE
8
BLACK
6
CONTINUOUS
10
3.68
20
58.9
11
3.68
21
57.75
0
LINE
8
BLACK
6
CONTINUOUS
10
3.68
20
57.75
11
33.78
21
57.75
0
LINE
8
BLACK
6
CONTINUOUS
10
33.78
20
57.75
11
33.78
21
58.9
0
LINE
8
BLACK
6
CONTINUOUS
10
33.78
20
58.9
11
3.68
21
58.9
0
LINE
8
BLACK
6
CONTINUOUS
10
75.3035
20
9.5339
11
75.5629
21
9.46444
0
LINE
8
BLACK
6
CONTINUOUS
10
75.5629
20
9.46444
11
75.8103
21
9.35999
0
LINE
8
BLACK
6
CONTINUOUS
10
75.8103
20
9.35999
11
76.041
21
9.22254
0
LINE
8
BLACK
6
CONTINUOUS
10
76.041
20
9.22254
11
76.2507
21
9.05469
0
LINE
8
BLACK
6
CONTINUOUS
10
76.2507
20
9.05469
11
76.4353
21
8.85963
0
LINE
8
BLACK
6
CONTINUOUS
10
76.4353
20
8.85963
11
76.5913
21
8.64105
0
LINE
8
BLACK
6
CONTINUOUS
10
76.5913
20
8.64105
11
76.7158
21
8.40311
0
LINE
8
BLACK
6
CONTINUOUS
10
76.7158
20
8.40311
11
76.8065
21
8.15032
0
LINE
8
BLACK
6
CONTINUOUS
10
76.8065
20
8.15032
11
76.8616
21
7.88746
0
LINE
8
BLACK
6
CONTINUOUS
10
76.8616
20
7.88746
11
76.88
21
7.61954
0
LINE
8
BLACK
6
CONTINUOUS
10
76.88
20
7.61954
11
76.8614
21
7.35162
0
LINE
8
BLACK
6
CONTINUOUS
10
76.8614
20
7.35162
11
76.8062
21
7.08879
0
LINE
8
BLACK
6
CONTINUOUS
10
76.8062
20
7.08879
11
76.7155
21
6.83604
0
LINE
8
BLACK
6
CONTINUOUS
10
76.7155
20
6.83604
11
76.5908
21
6.59815
0
LINE
8
BLACK
6
CONTINUOUS
10
76.5908
20
6.59815
11
76.4347
21
6.37965
0
LINE
8
BLACK
6
CONTINUOUS
10
76.4347
20
6.37965
11
76.25
21
6.18468
0
LINE
8
BLACK
6
CONTINUOUS
10
76.25
20
6.18468
11
76.0403
21
6.01693
0
LINE
8
BLACK
6
CONTINUOUS
10
76.0403
20
6.01693
11
75.8095
21
5.87959
0
LINE
8
BLACK
6
CONTINUOUS
10
75.8095
20
5.87959
11
75.562
21
5.77526
0
LINE
8
BLACK
6
CONTINUOUS
10
75.562
20
5.77526
11
75.3025
21
5.70592
0
LINE
8
BLACK
6
CONTINUOUS
10
75.3025
20
5.70592
11
75.036
21
5.67289
0
LINE
8
BLACK
6
CONTINUOUS
10
75.036
20
5.67289
11
74.7675
21
5.67678
0
LINE
8
BLACK
6
CONTINUOUS
10
74.7675
20
5.67678
11
74.502
21
5.71754
0
LINE
8
BLACK
6
CONTINUOUS
10
74.502
20
5.71754
11
74.2447
21
5.79438
0
LINE
8
BLACK
6
CONTINUOUS
10
74.2447
20
5.79438
11
74.0004
21
5.90585
0
LINE
8
BLACK
6
CONTINUOUS
10
74.0004
20
5.90585
11
73.7737
21
6.04984
0
LINE
8
BLACK
6
CONTINUOUS
10
73.7737
20
6.04984
11
73.5689
21
6.2236
0
LINE
8
BLACK
6
CONTINUOUS
10
73.5689
20
6.2236
11
73.3949
21
6.41836
0
LINE
8
BLACK
6
CONTINUOUS
10
73.3949
20
6.41836
11
73.3946
21
6.41845
0
LINE
8
BLACK
6
CONTINUOUS
10
73.3946
20
6.41845
11
73.3945
21
6.41874
0
LINE
8
BLACK
6
CONTINUOUS
10
73.3945
20
6.41874
11
73.39
21
6.42385
0
LINE
8
BLACK
6
CONTINUOUS
10
73.39
20
6.42385
11
73.3852
21
6.44137
0
LINE
8
BLACK
6
CONTINUOUS
10
73.3852
20
6.44137
11
73.38
21
6.45381
0
LINE
8
BLACK
6
CONTINUOUS
10
73.38
20
6.45381
11
73.38
21
6.46016
0
LINE
8
BLACK
6
CONTINUOUS
10
73.38
20
6.46016
11
73.3798
21
6.46076
0
LINE
8
BLACK
6
CONTINUOUS
10
73.3798
20
6.46076
11
73.38
21
6.46105
0
LINE
8
BLACK
6
CONTINUOUS
10
73.38
20
6.46105
11
73.38
21
8.78619
0
LINE
8
BLACK
6
CONTINUOUS
10
73.38
20
8.78619
11
73.3862
21
8.80121
0
LINE
8
BLACK
6
CONTINUOUS
10
73.3862
20
8.80121
11
73.3905
21
8.81688
0
LINE
8
BLACK
6
CONTINUOUS
10
73.3905
20
8.81688
11
73.3905
21
8.81688
0
LINE
8
BLACK
6
CONTINUOUS
10
73.3905
20
8.81688
11
73.3946
21
8.82143
0
LINE
8
BLACK
6
CONTINUOUS
10
73.3946
20
8.82143
11
73.3946
21
8.82155
0
LINE
8
BLACK
6
CONTINUOUS
10
73.3946
20
8.82155
11
73.3947
21
8.82158
0
LINE
8
BLACK
6
CONTINUOUS
10
73.3947
20
8.82158
11
73.5696
21
9.01705
0
LINE
8
BLACK
6
CONTINUOUS
10
73.5696
20
9.01705
11
73.7744
21
9.19071
0
LINE
8
BLACK
6
CONTINUOUS
10
73.7744
20
9.19071
11
74.0012
21
9.33459
0
LINE
8
BLACK
6
CONTINUOUS
10
74.0012
20
9.33459
11
74.2456
21
9.44594
0
LINE
8
BLACK
6
CONTINUOUS
10
74.2456
20
9.44594
11
74.503
21
9.52266
0
LINE
8
BLACK
6
CONTINUOUS
10
74.503
20
9.52266
11
74.7684
21
9.56329
0
LINE
8
BLACK
6
CONTINUOUS
10
74.7684
20
9.56329
11
75.037
21
9.56706
0
LINE
8
BLACK
6
CONTINUOUS
10
75.037
20
9.56706
11
75.3035
21
9.5339
0
LINE
8
BLACK
6
CONTINUOUS
10
74.5595
20
9.43735
11
74.3065
21
9.36677
0
LINE
8
BLACK
6
CONTINUOUS
10
74.3065
20
9.36677
11
74.0659
21
9.26114
0
LINE
8
BLACK
6
CONTINUOUS
10
74.0659
20
9.26114
11
73.8427
21
9.12258
0
LINE
8
BLACK
6
CONTINUOUS
10
73.8427
20
9.12258
11
73.6413
21
8.95387
0
LINE
8
BLACK
6
CONTINUOUS
10
73.6413
20
8.95387
11
73.48
21
8.77428
0
LINE
8
BLACK
6
CONTINUOUS
10
73.48
20
8.77428
11
73.48
21
8.15725
0
LINE
8
BLACK
6
CONTINUOUS
10
73.48
20
8.15725
11
73.5489
21
8.32368
0
LINE
8
BLACK
6
CONTINUOUS
10
73.5489
20
8.32368
11
73.676
21
8.53107
0
LINE
8
BLACK
6
CONTINUOUS
10
73.676
20
8.53107
11
73.834
21
8.71602
0
LINE
8
BLACK
6
CONTINUOUS
10
73.834
20
8.71602
11
74.0189
21
8.87398
0
LINE
8
BLACK
6
CONTINUOUS
10
74.0189
20
8.87398
11
74.2263
21
9.00106
0
LINE
8
BLACK
6
CONTINUOUS
10
74.2263
20
9.00106
11
74.451
21
9.09414
0
LINE
8
BLACK
6
CONTINUOUS
10
74.451
20
9.09414
11
74.6875
21
9.15092
0
LINE
8
BLACK
6
CONTINUOUS
10
74.6875
20
9.15092
11
74.93
21
9.17
0
LINE
8
BLACK
6
CONTINUOUS
10
74.93
20
9.17
11
75.1725
21
9.15092
0
LINE
8
BLACK
6
CONTINUOUS
10
75.1725
20
9.15092
11
75.409
21
9.09414
0
LINE
8
BLACK
6
CONTINUOUS
10
75.409
20
9.09414
11
75.6337
21
9.00106
0
LINE
8
BLACK
6
CONTINUOUS
10
75.6337
20
9.00106
11
75.8411
21
8.87398
0
LINE
8
BLACK
6
CONTINUOUS
10
75.8411
20
8.87398
11
76.026
21
8.71602
0
LINE
8
BLACK
6
CONTINUOUS
10
76.026
20
8.71602
11
76.184
21
8.53107
0
LINE
8
BLACK
6
CONTINUOUS
10
76.184
20
8.53107
11
76.3111
21
8.32368
0
LINE
8
BLACK
6
CONTINUOUS
10
76.3111
20
8.32368
11
76.4041
21
8.09898
0
LINE
8
BLACK
6
CONTINUOUS
10
76.4041
20
8.09898
11
76.4609
21
7.86247
0
LINE
8
BLACK
6
CONTINUOUS
10
76.4609
20
7.86247
11
76.48
21
7.62
0
LINE
8
BLACK
6
CONTINUOUS
10
76.48
20
7.62
11
76.4609
21
7.37753
0
LINE
8
BLACK
6
CONTINUOUS
10
76.4609
20
7.37753
11
76.4041
21
7.14102
0
LINE
8
BLACK
6
CONTINUOUS
10
76.4041
20
7.14102
11
76.3111
21
6.91631
0
LINE
8
BLACK
6
CONTINUOUS
10
76.3111
20
6.91631
11
76.184
21
6.70893
0
LINE
8
BLACK
6
CONTINUOUS
10
76.184
20
6.70893
11
76.026
21
6.52398
0
LINE
8
BLACK
6
CONTINUOUS
10
76.026
20
6.52398
11
75.8411
21
6.36602
0
LINE
8
BLACK
6
CONTINUOUS
10
75.8411
20
6.36602
11
75.6337
21
6.23894
0
LINE
8
BLACK
6
CONTINUOUS
10
75.6337
20
6.23894
11
75.409
21
6.14586
0
LINE
8
BLACK
6
CONTINUOUS
10
75.409
20
6.14586
11
75.1725
21
6.08908
0
LINE
8
BLACK
6
CONTINUOUS
10
75.1725
20
6.08908
11
74.93
21
6.07
0
LINE
8
BLACK
6
CONTINUOUS
10
74.93
20
6.07
11
74.6875
21
6.08908
0
LINE
8
BLACK
6
CONTINUOUS
10
74.6875
20
6.08908
11
74.451
21
6.14586
0
LINE
8
BLACK
6
CONTINUOUS
10
74.451
20
6.14586
11
74.2263
21
6.23894
0
LINE
8
BLACK
6
CONTINUOUS
10
74.2263
20
6.23894
11
74.0189
21
6.36602
0
LINE
8
BLACK
6
CONTINUOUS
10
74.0189
20
6.36602
11
73.834
21
6.52398
0
LINE
8
BLACK
6
CONTINUOUS
10
73.834
20
6.52398
11
73.676
21
6.70893
0
LINE
8
BLACK
6
CONTINUOUS
10
73.676
20
6.70893
11
73.5489
21
6.91631
0
LINE
8
BLACK
6
CONTINUOUS
10
73.5489
20
6.91631
11
73.48
21
7.08275
0
LINE
8
BLACK
6
CONTINUOUS
10
73.48
20
7.08275
11
73.48
21
6.4658
0
LINE
8
BLACK
6
CONTINUOUS
10
73.48
20
6.4658
11
73.6407
21
6.28674
0
LINE
8
BLACK
6
CONTINUOUS
10
73.6407
20
6.28674
11
73.842
21
6.11794
0
LINE
8
BLACK
6
CONTINUOUS
10
73.842
20
6.11794
11
74.0651
21
5.97927
0
LINE
8
BLACK
6
CONTINUOUS
10
74.0651
20
5.97927
11
74.3056
21
5.87353
0
LINE
8
BLACK
6
CONTINUOUS
10
74.3056
20
5.87353
11
74.5587
21
5.80283
0
LINE
8
BLACK
6
CONTINUOUS
10
74.5587
20
5.80283
11
74.8191
21
5.76859
0
LINE
8
BLACK
6
CONTINUOUS
10
74.8191
20
5.76859
11
75.0819
21
5.7715
0
LINE
8
BLACK
6
CONTINUOUS
10
75.0819
20
5.7715
11
75.3415
21
5.8115
0
LINE
8
BLACK
6
CONTINUOUS
10
75.3415
20
5.8115
11
75.5929
21
5.88779
0
LINE
8
BLACK
6
CONTINUOUS
10
75.5929
20
5.88779
11
75.831
21
5.99884
0
LINE
8
BLACK
6
CONTINUOUS
10
75.831
20
5.99884
11
76.0511
21
6.14242
0
LINE
8
BLACK
6
CONTINUOUS
10
76.0511
20
6.14242
11
76.2486
21
6.31564
0
LINE
8
BLACK
6
CONTINUOUS
10
76.2486
20
6.31564
11
76.4197
21
6.51504
0
LINE
8
BLACK
6
CONTINUOUS
10
76.4197
20
6.51504
11
76.5608
21
6.73661
0
LINE
8
BLACK
6
CONTINUOUS
10
76.5608
20
6.73661
11
76.6693
21
6.9759
0
LINE
8
BLACK
6
CONTINUOUS
10
76.6693
20
6.9759
11
76.7429
21
7.22812
0
LINE
8
BLACK
6
CONTINUOUS
10
76.7429
20
7.22812
11
76.78
21
7.4882
0
LINE
8
BLACK
6
CONTINUOUS
10
76.78
20
7.4882
11
76.7801
21
7.75092
0
LINE
8
BLACK
6
CONTINUOUS
10
76.7801
20
7.75092
11
76.743
21
8.01102
0
LINE
8
BLACK
6
CONTINUOUS
10
76.743
20
8.01102
11
76.6696
21
8.26327
0
LINE
8
BLACK
6
CONTINUOUS
10
76.6696
20
8.26327
11
76.5613
21
8.50262
0
LINE
8
BLACK
6
CONTINUOUS
10
76.5613
20
8.50262
11
76.4202
21
8.72425
0
LINE
8
BLACK
6
CONTINUOUS
10
76.4202
20
8.72425
11
76.2492
21
8.92373
0
LINE
8
BLACK
6
CONTINUOUS
10
76.2492
20
8.92373
11
76.0518
21
9.09705
0
LINE
8
BLACK
6
CONTINUOUS
10
76.0518
20
9.09705
11
75.8318
21
9.24073
0
LINE
8
BLACK
6
CONTINUOUS
10
75.8318
20
9.24073
11
75.5937
21
9.35189
0
LINE
8
BLACK
6
CONTINUOUS
10
75.5937
20
9.35189
11
75.3424
21
9.4283
0
LINE
8
BLACK
6
CONTINUOUS
10
75.3424
20
9.4283
11
75.0827
21
9.46842
0
LINE
8
BLACK
6
CONTINUOUS
10
75.0827
20
9.46842
11
74.82
21
9.47146
0
LINE
8
BLACK
6
CONTINUOUS
10
74.82
20
9.47146
11
74.5595
21
9.43735
0
LINE
8
BLACK
6
CONTINUOUS
10
74.5928
20
9.03536
11
74.3662
21
8.96128
0
LINE
8
BLACK
6
CONTINUOUS
10
74.3662
20
8.96128
11
74.1547
21
8.85118
0
LINE
8
BLACK
6
CONTINUOUS
10
74.1547
20
8.85118
11
73.964
21
8.70802
0
LINE
8
BLACK
6
CONTINUOUS
10
73.964
20
8.70802
11
73.7993
21
8.53564
0
LINE
8
BLACK
6
CONTINUOUS
10
73.7993
20
8.53564
11
73.6649
21
8.33867
0
LINE
8
BLACK
6
CONTINUOUS
10
73.6649
20
8.33867
11
73.5645
21
8.1224
0
LINE
8
BLACK
6
CONTINUOUS
10
73.5645
20
8.1224
11
73.5008
21
7.89263
0
LINE
8
BLACK
6
CONTINUOUS
10
73.5008
20
7.89263
11
73.48
21
7.69798
0
LINE
8
BLACK
6
CONTINUOUS
10
73.48
20
7.69798
11
73.48
21
7.5769
0
LINE
8
BLACK
6
CONTINUOUS
10
73.48
20
7.5769
11
73.4892
21
7.41751
0
LINE
8
BLACK
6
CONTINUOUS
10
73.4892
20
7.41751
11
73.5416
21
7.1849
0
LINE
8
BLACK
6
CONTINUOUS
10
73.5416
20
7.1849
11
73.6313
21
6.96399
0
LINE
8
BLACK
6
CONTINUOUS
10
73.6313
20
6.96399
11
73.7559
21
6.76069
0
LINE
8
BLACK
6
CONTINUOUS
10
73.7559
20
6.76069
11
73.912
21
6.58046
0
LINE
8
BLACK
6
CONTINUOUS
10
73.912
20
6.58046
11
74.0955
21
6.42816
0
LINE
8
BLACK
6
CONTINUOUS
10
74.0955
20
6.42816
11
74.3013
21
6.30786
0
LINE
8
BLACK
6
CONTINUOUS
10
74.3013
20
6.30786
11
74.5241
21
6.2228
0
LINE
8
BLACK
6
CONTINUOUS
10
74.5241
20
6.2228
11
74.7577
21
6.17527
0
LINE
8
BLACK
6
CONTINUOUS
10
74.7577
20
6.17527
11
74.996
21
6.16653
0
LINE
8
BLACK
6
CONTINUOUS
10
74.996
20
6.16653
11
75.2325
21
6.19683
0
LINE
8
BLACK
6
CONTINUOUS
10
75.2325
20
6.19683
11
75.4609
21
6.26534
0
LINE
8
BLACK
6
CONTINUOUS
10
75.4609
20
6.26534
11
75.675
21
6.37024
0
LINE
8
BLACK
6
CONTINUOUS
10
75.675
20
6.37024
11
75.8691
21
6.5087
0
LINE
8
BLACK
6
CONTINUOUS
10
75.8691
20
6.5087
11
76.038
21
6.67701
0
LINE
8
BLACK
6
CONTINUOUS
10
76.038
20
6.67701
11
76.1772
21
6.87064
0
LINE
8
BLACK
6
CONTINUOUS
10
76.1772
20
6.87064
11
76.2828
21
7.08439
0
LINE
8
BLACK
6
CONTINUOUS
10
76.2828
20
7.08439
11
76.3521
21
7.31253
0
LINE
8
BLACK
6
CONTINUOUS
10
76.3521
20
7.31253
11
76.3832
21
7.54892
0
LINE
8
BLACK
6
CONTINUOUS
10
76.3832
20
7.54892
11
76.385
21
7.62
0
LINE
8
BLACK
6
CONTINUOUS
10
76.385
20
7.62
11
76.3654
21
7.85763
0
LINE
8
BLACK
6
CONTINUOUS
10
76.3654
20
7.85763
11
76.3073
21
8.08889
0
LINE
8
BLACK
6
CONTINUOUS
10
76.3073
20
8.08889
11
76.2123
21
8.30755
0
LINE
8
BLACK
6
CONTINUOUS
10
76.2123
20
8.30755
11
76.0828
21
8.50774
0
LINE
8
BLACK
6
CONTINUOUS
10
76.0828
20
8.50774
11
75.9223
21
8.6841
0
LINE
8
BLACK
6
CONTINUOUS
10
75.9223
20
8.6841
11
75.7352
21
8.83188
0
LINE
8
BLACK
6
CONTINUOUS
10
75.7352
20
8.83188
11
75.5264
21
8.94711
0
LINE
8
BLACK
6
CONTINUOUS
10
75.5264
20
8.94711
11
75.3017
21
9.0267
0
LINE
8
BLACK
6
CONTINUOUS
10
75.3017
20
9.0267
11
75.0669
21
9.06851
0
LINE
8
BLACK
6
CONTINUOUS
10
75.0669
20
9.06851
11
74.8285
21
9.07142
0
LINE
8
BLACK
6
CONTINUOUS
10
74.8285
20
9.07142
11
74.5928
21
9.03536
0
LINE
8
BLACK
6
CONTINUOUS
10
75.2785
20
14.1339
11
75.5379
21
14.0644
0
LINE
8
BLACK
6
CONTINUOUS
10
75.5379
20
14.0644
11
75.7853
21
13.96
0
LINE
8
BLACK
6
CONTINUOUS
10
75.7853
20
13.96
11
76.016
21
13.8225
0
LINE
8
BLACK
6
CONTINUOUS
10
76.016
20
13.8225
11
76.2257
21
13.6547
0
LINE
8
BLACK
6
CONTINUOUS
10
76.2257
20
13.6547
11
76.4103
21
13.4596
0
LINE
8
BLACK
6
CONTINUOUS
10
76.4103
20
13.4596
11
76.5663
21
13.2411
0
LINE
8
BLACK
6
CONTINUOUS
10
76.5663
20
13.2411
11
76.6908
21
13.0031
0
LINE
8
BLACK
6
CONTINUOUS
10
76.6908
20
13.0031
11
76.7815
21
12.7503
0
LINE
8
BLACK
6
CONTINUOUS
10
76.7815
20
12.7503
11
76.8366
21
12.4875
0
LINE
8
BLACK
6
CONTINUOUS
10
76.8366
20
12.4875
11
76.855
21
12.2195
0
LINE
8
BLACK
6
CONTINUOUS
10
76.855
20
12.2195
11
76.8364
21
11.9516
0
LINE
8
BLACK
6
CONTINUOUS
10
76.8364
20
11.9516
11
76.7812
21
11.6888
0
LINE
8
BLACK
6
CONTINUOUS
10
76.7812
20
11.6888
11
76.6905
21
11.436
0
LINE
8
BLACK
6
CONTINUOUS
10
76.6905
20
11.436
11
76.5658
21
11.1982
0
LINE
8
BLACK
6
CONTINUOUS
10
76.5658
20
11.1982
11
76.4097
21
10.9797
0
LINE
8
BLACK
6
CONTINUOUS
10
76.4097
20
10.9797
11
76.225
21
10.7847
0
LINE
8
BLACK
6
CONTINUOUS
10
76.225
20
10.7847
11
76.0153
21
10.6169
0
LINE
8
BLACK
6
CONTINUOUS
10
76.0153
20
10.6169
11
75.7845
21
10.4796
0
LINE
8
BLACK
6
CONTINUOUS
10
75.7845
20
10.4796
11
75.537
21
10.3753
0
LINE
8
BLACK
6
CONTINUOUS
10
75.537
20
10.3753
11
75.2775
21
10.3059
0
LINE
8
BLACK
6
CONTINUOUS
10
75.2775
20
10.3059
11
75.011
21
10.2729
0
LINE
8
BLACK
6
CONTINUOUS
10
75.011
20
10.2729
11
74.7425
21
10.2768
0
LINE
8
BLACK
6
CONTINUOUS
10
74.7425
20
10.2768
11
74.477
21
10.3175
0
LINE
8
BLACK
6
CONTINUOUS
10
74.477
20
10.3175
11
74.2197
21
10.3944
0
LINE
8
BLACK
6
CONTINUOUS
10
74.2197
20
10.3944
11
73.9754
21
10.5059
0
LINE
8
BLACK
6
CONTINUOUS
10
73.9754
20
10.5059
11
73.7487
21
10.6498
0
LINE
8
BLACK
6
CONTINUOUS
10
73.7487
20
10.6498
11
73.5439
21
10.8236
0
LINE
8
BLACK
6
CONTINUOUS
10
73.5439
20
10.8236
11
73.3699
21
11.0184
0
LINE
8
BLACK
6
CONTINUOUS
10
73.3699
20
11.0184
11
73.3696
21
11.0185
0
LINE
8
BLACK
6
CONTINUOUS
10
73.3696
20
11.0185
11
73.3695
21
11.0187
0
LINE
8
BLACK
6
CONTINUOUS
10
73.3695
20
11.0187
11
73.365
21
11.0239
0
LINE
8
BLACK
6
CONTINUOUS
10
73.365
20
11.0239
11
73.3602
21
11.0414
0
LINE
8
BLACK
6
CONTINUOUS
10
73.3602
20
11.0414
11
73.355
21
11.0538
0
LINE
8
BLACK
6
CONTINUOUS
10
73.355
20
11.0538
11
73.355
21
11.0602
0
LINE
8
BLACK
6
CONTINUOUS
10
73.355
20
11.0602
11
73.3548
21
11.0608
0
LINE
8
BLACK
6
CONTINUOUS
10
73.3548
20
11.0608
11
73.355
21
11.061
0
LINE
8
BLACK
6
CONTINUOUS
10
73.355
20
11.061
11
73.355
21
13.3862
0
LINE
8
BLACK
6
CONTINUOUS
10
73.355
20
13.3862
11
73.3612
21
13.4012
0
LINE
8
BLACK
6
CONTINUOUS
10
73.3612
20
13.4012
11
73.3655
21
13.4169
0
LINE
8
BLACK
6
CONTINUOUS
10
73.3655
20
13.4169
11
73.3655
21
13.4169
0
LINE
8
BLACK
6
CONTINUOUS
10
73.3655
20
13.4169
11
73.3696
21
13.4214
0
LINE
8
BLACK
6
CONTINUOUS
10
73.3696
20
13.4214
11
73.3696
21
13.4215
0
LINE
8
BLACK
6
CONTINUOUS
10
73.3696
20
13.4215
11
73.3697
21
13.4216
0
LINE
8
BLACK
6
CONTINUOUS
10
73.3697
20
13.4216
11
73.5446
21
13.617
0
LINE
8
BLACK
6
CONTINUOUS
10
73.5446
20
13.617
11
73.7494
21
13.7907
0
LINE
8
BLACK
6
CONTINUOUS
10
73.7494
20
13.7907
11
73.9762
21
13.9346
0
LINE
8
BLACK
6
CONTINUOUS
10
73.9762
20
13.9346
11
74.2206
21
14.0459
0
LINE
8
BLACK
6
CONTINUOUS
10
74.2206
20
14.0459
11
74.478
21
14.1227
0
LINE
8
BLACK
6
CONTINUOUS
10
74.478
20
14.1227
11
74.7434
21
14.1633
0
LINE
8
BLACK
6
CONTINUOUS
10
74.7434
20
14.1633
11
75.012
21
14.1671
0
LINE
8
BLACK
6
CONTINUOUS
10
75.012
20
14.1671
11
75.2785
21
14.1339
0
LINE
8
BLACK
6
CONTINUOUS
10
74.5345
20
14.0373
11
74.2815
21
13.9668
0
LINE
8
BLACK
6
CONTINUOUS
10
74.2815
20
13.9668
11
74.0409
21
13.8611
0
LINE
8
BLACK
6
CONTINUOUS
10
74.0409
20
13.8611
11
73.8177
21
13.7226
0
LINE
8
BLACK
6
CONTINUOUS
10
73.8177
20
13.7226
11
73.6163
21
13.5539
0
LINE
8
BLACK
6
CONTINUOUS
10
73.6163
20
13.5539
11
73.455
21
13.3743
0
LINE
8
BLACK
6
CONTINUOUS
10
73.455
20
13.3743
11
73.455
21
12.7572
0
LINE
8
BLACK
6
CONTINUOUS
10
73.455
20
12.7572
11
73.5239
21
12.9237
0
LINE
8
BLACK
6
CONTINUOUS
10
73.5239
20
12.9237
11
73.651
21
13.1311
0
LINE
8
BLACK
6
CONTINUOUS
10
73.651
20
13.1311
11
73.809
21
13.316
0
LINE
8
BLACK
6
CONTINUOUS
10
73.809
20
13.316
11
73.9939
21
13.474
0
LINE
8
BLACK
6
CONTINUOUS
10
73.9939
20
13.474
11
74.2013
21
13.6011
0
LINE
8
BLACK
6
CONTINUOUS
10
74.2013
20
13.6011
11
74.426
21
13.6941
0
LINE
8
BLACK
6
CONTINUOUS
10
74.426
20
13.6941
11
74.6625
21
13.7509
0
LINE
8
BLACK
6
CONTINUOUS
10
74.6625
20
13.7509
11
74.905
21
13.77
0
LINE
8
BLACK
6
CONTINUOUS
10
74.905
20
13.77
11
75.1475
21
13.7509
0
LINE
8
BLACK
6
CONTINUOUS
10
75.1475
20
13.7509
11
75.384
21
13.6941
0
LINE
8
BLACK
6
CONTINUOUS
10
75.384
20
13.6941
11
75.6087
21
13.6011
0
LINE
8
BLACK
6
CONTINUOUS
10
75.6087
20
13.6011
11
75.8161
21
13.474
0
LINE
8
BLACK
6
CONTINUOUS
10
75.8161
20
13.474
11
76.001
21
13.316
0
LINE
8
BLACK
6
CONTINUOUS
10
76.001
20
13.316
11
76.159
21
13.1311
0
LINE
8
BLACK
6
CONTINUOUS
10
76.159
20
13.1311
11
76.2861
21
12.9237
0
LINE
8
BLACK
6
CONTINUOUS
10
76.2861
20
12.9237
11
76.3791
21
12.699
0
LINE
8
BLACK
6
CONTINUOUS
10
76.3791
20
12.699
11
76.4359
21
12.4625
0
LINE
8
BLACK
6
CONTINUOUS
10
76.4359
20
12.4625
11
76.455
21
12.22
0
LINE
8
BLACK
6
CONTINUOUS
10
76.455
20
12.22
11
76.4359
21
11.9775
0
LINE
8
BLACK
6
CONTINUOUS
10
76.4359
20
11.9775
11
76.3791
21
11.741
0
LINE
8
BLACK
6
CONTINUOUS
10
76.3791
20
11.741
11
76.2861
21
11.5163
0
LINE
8
BLACK
6
CONTINUOUS
10
76.2861
20
11.5163
11
76.159
21
11.3089
0
LINE
8
BLACK
6
CONTINUOUS
10
76.159
20
11.3089
11
76.001
21
11.124
0
LINE
8
BLACK
6
CONTINUOUS
10
76.001
20
11.124
11
75.8161
21
10.966
0
LINE
8
BLACK
6
CONTINUOUS
10
75.8161
20
10.966
11
75.6087
21
10.8389
0
LINE
8
BLACK
6
CONTINUOUS
10
75.6087
20
10.8389
11
75.384
21
10.7459
0
LINE
8
BLACK
6
CONTINUOUS
10
75.384
20
10.7459
11
75.1475
21
10.6891
0
LINE
8
BLACK
6
CONTINUOUS
10
75.1475
20
10.6891
11
74.905
21
10.67
0
LINE
8
BLACK
6
CONTINUOUS
10
74.905
20
10.67
11
74.6625
21
10.6891
0
LINE
8
BLACK
6
CONTINUOUS
10
74.6625
20
10.6891
11
74.426
21
10.7459
0
LINE
8
BLACK
6
CONTINUOUS
10
74.426
20
10.7459
11
74.2013
21
10.8389
0
LINE
8
BLACK
6
CONTINUOUS
10
74.2013
20
10.8389
11
73.9939
21
10.966
0
LINE
8
BLACK
6
CONTINUOUS
10
73.9939
20
10.966
11
73.809
21
11.124
0
LINE
8
BLACK
6
CONTINUOUS
10
73.809
20
11.124
11
73.651
21
11.3089
0
LINE
8
BLACK
6
CONTINUOUS
10
73.651
20
11.3089
11
73.5239
21
11.5163
0
LINE
8
BLACK
6
CONTINUOUS
10
73.5239
20
11.5163
11
73.455
21
11.6827
0
LINE
8
BLACK
6
CONTINUOUS
10
73.455
20
11.6827
11
73.455
21
11.0658
0
LINE
8
BLACK
6
CONTINUOUS
10
73.455
20
11.0658
11
73.6157
21
10.8867
0
LINE
8
BLACK
6
CONTINUOUS
10
73.6157
20
10.8867
11
73.817
21
10.7179
0
LINE
8
BLACK
6
CONTINUOUS
10
73.817
20
10.7179
11
74.0401
21
10.5793
0
LINE
8
BLACK
6
CONTINUOUS
10
74.0401
20
10.5793
11
74.2806
21
10.4735
0
LINE
8
BLACK
6
CONTINUOUS
10
74.2806
20
10.4735
11
74.5337
21
10.4028
0
LINE
8
BLACK
6
CONTINUOUS
10
74.5337
20
10.4028
11
74.7941
21
10.3686
0
LINE
8
BLACK
6
CONTINUOUS
10
74.7941
20
10.3686
11
75.0569
21
10.3715
0
LINE
8
BLACK
6
CONTINUOUS
10
75.0569
20
10.3715
11
75.3165
21
10.4115
0
LINE
8
BLACK
6
CONTINUOUS
10
75.3165
20
10.4115
11
75.5679
21
10.4878
0
LINE
8
BLACK
6
CONTINUOUS
10
75.5679
20
10.4878
11
75.806
21
10.5988
0
LINE
8
BLACK
6
CONTINUOUS
10
75.806
20
10.5988
11
76.026
21
10.7424
0
LINE
8
BLACK
6
CONTINUOUS
10
76.026
20
10.7424
11
76.2236
21
10.9156
0
LINE
8
BLACK
6
CONTINUOUS
10
76.2236
20
10.9156
11
76.3947
21
11.115
0
LINE
8
BLACK
6
CONTINUOUS
10
76.3947
20
11.115
11
76.5358
21
11.3366
0
LINE
8
BLACK
6
CONTINUOUS
10
76.5358
20
11.3366
11
76.6443
21
11.5759
0
LINE
8
BLACK
6
CONTINUOUS
10
76.6443
20
11.5759
11
76.7179
21
11.8281
0
LINE
8
BLACK
6
CONTINUOUS
10
76.7179
20
11.8281
11
76.755
21
12.0882
0
LINE
8
BLACK
6
CONTINUOUS
10
76.755
20
12.0882
11
76.7551
21
12.3509
0
LINE
8
BLACK
6
CONTINUOUS
10
76.7551
20
12.3509
11
76.718
21
12.611
0
LINE
8
BLACK
6
CONTINUOUS
10
76.718
20
12.611
11
76.6446
21
12.8633
0
LINE
8
BLACK
6
CONTINUOUS
10
76.6446
20
12.8633
11
76.5363
21
13.1026
0
LINE
8
BLACK
6
CONTINUOUS
10
76.5363
20
13.1026
11
76.3952
21
13.3243
0
LINE
8
BLACK
6
CONTINUOUS
10
76.3952
20
13.3243
11
76.2242
21
13.5237
0
LINE
8
BLACK
6
CONTINUOUS
10
76.2242
20
13.5237
11
76.0268
21
13.697
0
LINE
8
BLACK
6
CONTINUOUS
10
76.0268
20
13.697
11
75.8068
21
13.8407
0
LINE
8
BLACK
6
CONTINUOUS
10
75.8068
20
13.8407
11
75.5687
21
13.9519
0
LINE
8
BLACK
6
CONTINUOUS
10
75.5687
20
13.9519
11
75.3174
21
14.0283
0
LINE
8
BLACK
6
CONTINUOUS
10
75.3174
20
14.0283
11
75.0577
21
14.0684
0
LINE
8
BLACK
6
CONTINUOUS
10
75.0577
20
14.0684
11
74.795
21
14.0715
0
LINE
8
BLACK
6
CONTINUOUS
10
74.795
20
14.0715
11
74.5345
21
14.0373
0
LINE
8
BLACK
6
CONTINUOUS
10
74.5678
20
13.6354
11
74.3412
21
13.5613
0
LINE
8
BLACK
6
CONTINUOUS
10
74.3412
20
13.5613
11
74.1297
21
13.4512
0
LINE
8
BLACK
6
CONTINUOUS
10
74.1297
20
13.4512
11
73.939
21
13.308
0
LINE
8
BLACK
6
CONTINUOUS
10
73.939
20
13.308
11
73.7743
21
13.1356
0
LINE
8
BLACK
6
CONTINUOUS
10
73.7743
20
13.1356
11
73.6399
21
12.9387
0
LINE
8
BLACK
6
CONTINUOUS
10
73.6399
20
12.9387
11
73.5395
21
12.7224
0
LINE
8
BLACK
6
CONTINUOUS
10
73.5395
20
12.7224
11
73.4758
21
12.4926
0
LINE
8
BLACK
6
CONTINUOUS
10
73.4758
20
12.4926
11
73.455
21
12.298
0
LINE
8
BLACK
6
CONTINUOUS
10
73.455
20
12.298
11
73.455
21
12.1769
0
LINE
8
BLACK
6
CONTINUOUS
10
73.455
20
12.1769
11
73.4642
21
12.0175
0
LINE
8
BLACK
6
CONTINUOUS
10
73.4642
20
12.0175
11
73.5166
21
11.7849
0
LINE
8
BLACK
6
CONTINUOUS
10
73.5166
20
11.7849
11
73.6063
21
11.564
0
LINE
8
BLACK
6
CONTINUOUS
10
73.6063
20
11.564
11
73.7309
21
11.3607
0
LINE
8
BLACK
6
CONTINUOUS
10
73.7309
20
11.3607
11
73.887
21
11.1805
0
LINE
8
BLACK
6
CONTINUOUS
10
73.887
20
11.1805
11
74.0705
21
11.0282
0
LINE
8
BLACK
6
CONTINUOUS
10
74.0705
20
11.0282
11
74.2763
21
10.9079
0
LINE
8
BLACK
6
CONTINUOUS
10
74.2763
20
10.9079
11
74.4991
21
10.8228
0
LINE
8
BLACK
6
CONTINUOUS
10
74.4991
20
10.8228
11
74.7327
21
10.7753
0
LINE
8
BLACK
6
CONTINUOUS
10
74.7327
20
10.7753
11
74.971
21
10.7665
0
LINE
8
BLACK
6
CONTINUOUS
10
74.971
20
10.7665
11
75.2075
21
10.7968
0
LINE
8
BLACK
6
CONTINUOUS
10
75.2075
20
10.7968
11
75.4359
21
10.8653
0
LINE
8
BLACK
6
CONTINUOUS
10
75.4359
20
10.8653
11
75.65
21
10.9702
0
LINE
8
BLACK
6
CONTINUOUS
10
75.65
20
10.9702
11
75.8441
21
11.1087
0
LINE
8
BLACK
6
CONTINUOUS
10
75.8441
20
11.1087
11
76.013
21
11.277
0
LINE
8
BLACK
6
CONTINUOUS
10
76.013
20
11.277
11
76.1522
21
11.4706
0
LINE
8
BLACK
6
CONTINUOUS
10
76.1522
20
11.4706
11
76.2578
21
11.6844
0
LINE
8
BLACK
6
CONTINUOUS
10
76.2578
20
11.6844
11
76.3271
21
11.9125
0
LINE
8
BLACK
6
CONTINUOUS
10
76.3271
20
11.9125
11
76.3582
21
12.1489
0
LINE
8
BLACK
6
CONTINUOUS
10
76.3582
20
12.1489
11
76.36
21
12.22
0
LINE
8
BLACK
6
CONTINUOUS
10
76.36
20
12.22
11
76.3404
21
12.4576
0
LINE
8
BLACK
6
CONTINUOUS
10
76.3404
20
12.4576
11
76.2823
21
12.6889
0
LINE
8
BLACK
6
CONTINUOUS
10
76.2823
20
12.6889
11
76.1873
21
12.9075
0
LINE
8
BLACK
6
CONTINUOUS
10
76.1873
20
12.9075
11
76.0578
21
13.1077
0
LINE
8
BLACK
6
CONTINUOUS
10
76.0578
20
13.1077
11
75.8973
21
13.2841
0
LINE
8
BLACK
6
CONTINUOUS
10
75.8973
20
13.2841
11
75.7102
21
13.4319
0
LINE
8
BLACK
6
CONTINUOUS
10
75.7102
20
13.4319
11
75.5014
21
13.5471
0
LINE
8
BLACK
6
CONTINUOUS
10
75.5014
20
13.5471
11
75.2767
21
13.6267
0
LINE
8
BLACK
6
CONTINUOUS
10
75.2767
20
13.6267
11
75.0419
21
13.6685
0
LINE
8
BLACK
6
CONTINUOUS
10
75.0419
20
13.6685
11
74.8035
21
13.6714
0
LINE
8
BLACK
6
CONTINUOUS
10
74.8035
20
13.6714
11
74.5678
21
13.6354
0
LINE
8
BLACK
6
CONTINUOUS
10
75.2535
20
18.7339
11
75.5129
21
18.6644
0
LINE
8
BLACK
6
CONTINUOUS
10
75.5129
20
18.6644
11
75.7603
21
18.56
0
LINE
8
BLACK
6
CONTINUOUS
10
75.7603
20
18.56
11
75.991
21
18.4225
0
LINE
8
BLACK
6
CONTINUOUS
10
75.991
20
18.4225
11
76.2007
21
18.2547
0
LINE
8
BLACK
6
CONTINUOUS
10
76.2007
20
18.2547
11
76.3853
21
18.0596
0
LINE
8
BLACK
6
CONTINUOUS
10
76.3853
20
18.0596
11
76.5413
21
17.8411
0
LINE
8
BLACK
6
CONTINUOUS
10
76.5413
20
17.8411
11
76.6658
21
17.6031
0
LINE
8
BLACK
6
CONTINUOUS
10
76.6658
20
17.6031
11
76.7565
21
17.3503
0
LINE
8
BLACK
6
CONTINUOUS
10
76.7565
20
17.3503
11
76.8116
21
17.0875
0
LINE
8
BLACK
6
CONTINUOUS
10
76.8116
20
17.0875
11
76.83
21
16.8195
0
LINE
8
BLACK
6
CONTINUOUS
10
76.83
20
16.8195
11
76.8114
21
16.5516
0
LINE
8
BLACK
6
CONTINUOUS
10
76.8114
20
16.5516
11
76.7562
21
16.2888
0
LINE
8
BLACK
6
CONTINUOUS
10
76.7562
20
16.2888
11
76.6655
21
16.036
0
LINE
8
BLACK
6
CONTINUOUS
10
76.6655
20
16.036
11
76.5408
21
15.7982
0
LINE
8
BLACK
6
CONTINUOUS
10
76.5408
20
15.7982
11
76.3847
21
15.5797
0
LINE
8
BLACK
6
CONTINUOUS
10
76.3847
20
15.5797
11
76.2
21
15.3847
0
LINE
8
BLACK
6
CONTINUOUS
10
76.2
20
15.3847
11
75.9903
21
15.2169
0
LINE
8
BLACK
6
CONTINUOUS
10
75.9903
20
15.2169
11
75.7595
21
15.0796
0
LINE
8
BLACK
6
CONTINUOUS
10
75.7595
20
15.0796
11
75.512
21
14.9753
0
LINE
8
BLACK
6
CONTINUOUS
10
75.512
20
14.9753
11
75.2525
21
14.9059
0
LINE
8
BLACK
6
CONTINUOUS
10
75.2525
20
14.9059
11
74.986
21
14.8729
0
LINE
8
BLACK
6
CONTINUOUS
10
74.986
20
14.8729
11
74.7175
21
14.8768
0
LINE
8
BLACK
6
CONTINUOUS
10
74.7175
20
14.8768
11
74.452
21
14.9175
0
LINE
8
BLACK
6
CONTINUOUS
10
74.452
20
14.9175
11
74.1947
21
14.9944
0
LINE
8
BLACK
6
CONTINUOUS
10
74.1947
20
14.9944
11
73.9504
21
15.1059
0
LINE
8
BLACK
6
CONTINUOUS
10
73.9504
20
15.1059
11
73.7237
21
15.2498
0
LINE
8
BLACK
6
CONTINUOUS
10
73.7237
20
15.2498
11
73.5189
21
15.4236
0
LINE
8
BLACK
6
CONTINUOUS
10
73.5189
20
15.4236
11
73.3449
21
15.6184
0
LINE
8
BLACK
6
CONTINUOUS
10
73.3449
20
15.6184
11
73.3446
21
15.6185
0
LINE
8
BLACK
6
CONTINUOUS
10
73.3446
20
15.6185
11
73.3445
21
15.6187
0
LINE
8
BLACK
6
CONTINUOUS
10
73.3445
20
15.6187
11
73.34
21
15.6239
0
LINE
8
BLACK
6
CONTINUOUS
10
73.34
20
15.6239
11
73.3352
21
15.6414
0
LINE
8
BLACK
6
CONTINUOUS
10
73.3352
20
15.6414
11
73.33
21
15.6538
0
LINE
8
BLACK
6
CONTINUOUS
10
73.33
20
15.6538
11
73.33
21
15.6602
0
LINE
8
BLACK
6
CONTINUOUS
10
73.33
20
15.6602
11
73.3298
21
15.6608
0
LINE
8
BLACK
6
CONTINUOUS
10
73.3298
20
15.6608
11
73.33
21
15.661
0
LINE
8
BLACK
6
CONTINUOUS
10
73.33
20
15.661
11
73.33
21
17.9862
0
LINE
8
BLACK
6
CONTINUOUS
10
73.33
20
17.9862
11
73.3362
21
18.0012
0
LINE
8
BLACK
6
CONTINUOUS
10
73.3362
20
18.0012
11
73.3405
21
18.0169
0
LINE
8
BLACK
6
CONTINUOUS
10
73.3405
20
18.0169
11
73.3405
21
18.0169
0
LINE
8
BLACK
6
CONTINUOUS
10
73.3405
20
18.0169
11
73.3446
21
18.0214
0
LINE
8
BLACK
6
CONTINUOUS
10
73.3446
20
18.0214
11
73.3446
21
18.0215
0
LINE
8
BLACK
6
CONTINUOUS
10
73.3446
20
18.0215
11
73.3447
21
18.0216
0
LINE
8
BLACK
6
CONTINUOUS
10
73.3447
20
18.0216
11
73.5196
21
18.217
0
LINE
8
BLACK
6
CONTINUOUS
10
73.5196
20
18.217
11
73.7244
21
18.3907
0
LINE
8
BLACK
6
CONTINUOUS
10
73.7244
20
18.3907
11
73.9512
21
18.5346
0
LINE
8
BLACK
6
CONTINUOUS
10
73.9512
20
18.5346
11
74.1956
21
18.6459
0
LINE
8
BLACK
6
CONTINUOUS
10
74.1956
20
18.6459
11
74.453
21
18.7227
0
LINE
8
BLACK
6
CONTINUOUS
10
74.453
20
18.7227
11
74.7184
21
18.7633
0
LINE
8
BLACK
6
CONTINUOUS
10
74.7184
20
18.7633
11
74.987
21
18.7671
0
LINE
8
BLACK
6
CONTINUOUS
10
74.987
20
18.7671
11
75.2535
21
18.7339
0
LINE
8
BLACK
6
CONTINUOUS
10
74.5095
20
18.6373
11
74.2565
21
18.5668
0
LINE
8
BLACK
6
CONTINUOUS
10
74.2565
20
18.5668
11
74.0159
21
18.4611
0
LINE
8
BLACK
6
CONTINUOUS
10
74.0159
20
18.4611
11
73.7927
21
18.3226
0
LINE
8
BLACK
6
CONTINUOUS
10
73.7927
20
18.3226
11
73.5913
21
18.1539
0
LINE
8
BLACK
6
CONTINUOUS
10
73.5913
20
18.1539
11
73.43
21
17.9743
0
LINE
8
BLACK
6
CONTINUOUS
10
73.43
20
17.9743
11
73.43
21
17.3573
0
LINE
8
BLACK
6
CONTINUOUS
10
73.43
20
17.3573
11
73.4989
21
17.5237
0
LINE
8
BLACK
6
CONTINUOUS
10
73.4989
20
17.5237
11
73.626
21
17.7311
0
LINE
8
BLACK
6
CONTINUOUS
10
73.626
20
17.7311
11
73.784
21
17.916
0
LINE
8
BLACK
6
CONTINUOUS
10
73.784
20
17.916
11
73.9689
21
18.074
0
LINE
8
BLACK
6
CONTINUOUS
10
73.9689
20
18.074
11
74.1763
21
18.2011
0
LINE
8
BLACK
6
CONTINUOUS
10
74.1763
20
18.2011
11
74.401
21
18.2941
0
LINE
8
BLACK
6
CONTINUOUS
10
74.401
20
18.2941
11
74.6375
21
18.3509
0
LINE
8
BLACK
6
CONTINUOUS
10
74.6375
20
18.3509
11
74.88
21
18.37
0
LINE
8
BLACK
6
CONTINUOUS
10
74.88
20
18.37
11
75.1225
21
18.3509
0
LINE
8
BLACK
6
CONTINUOUS
10
75.1225
20
18.3509
11
75.359
21
18.2941
0
LINE
8
BLACK
6
CONTINUOUS
10
75.359
20
18.2941
11
75.5837
21
18.2011
0
LINE
8
BLACK
6
CONTINUOUS
10
75.5837
20
18.2011
11
75.7911
21
18.074
0
LINE
8
BLACK
6
CONTINUOUS
10
75.7911
20
18.074
11
75.976
21
17.916
0
LINE
8
BLACK
6
CONTINUOUS
10
75.976
20
17.916
11
76.134
21
17.7311
0
LINE
8
BLACK
6
CONTINUOUS
10
76.134
20
17.7311
11
76.2611
21
17.5237
0
LINE
8
BLACK
6
CONTINUOUS
10
76.2611
20
17.5237
11
76.3541
21
17.299
0
LINE
8
BLACK
6
CONTINUOUS
10
76.3541
20
17.299
11
76.4109
21
17.0625
0
LINE
8
BLACK
6
CONTINUOUS
10
76.4109
20
17.0625
11
76.43
21
16.82
0
LINE
8
BLACK
6
CONTINUOUS
10
76.43
20
16.82
11
76.4109
21
16.5775
0
LINE
8
BLACK
6
CONTINUOUS
10
76.4109
20
16.5775
11
76.3541
21
16.341
0
LINE
8
BLACK
6
CONTINUOUS
10
76.3541
20
16.341
11
76.2611
21
16.1163
0
LINE
8
BLACK
6
CONTINUOUS
10
76.2611
20
16.1163
11
76.134
21
15.9089
0
LINE
8
BLACK
6
CONTINUOUS
10
76.134
20
15.9089
11
75.976
21
15.724
0
LINE
8
BLACK
6
CONTINUOUS
10
75.976
20
15.724
11
75.7911
21
15.566
0
LINE
8
BLACK
6
CONTINUOUS
10
75.7911
20
15.566
11
75.5837
21
15.4389
0
LINE
8
BLACK
6
CONTINUOUS
10
75.5837
20
15.4389
11
75.359
21
15.3459
0
LINE
8
BLACK
6
CONTINUOUS
10
75.359
20
15.3459
11
75.1225
21
15.2891
0
LINE
8
BLACK
6
CONTINUOUS
10
75.1225
20
15.2891
11
74.88
21
15.27
0
LINE
8
BLACK
6
CONTINUOUS
10
74.88
20
15.27
11
74.6375
21
15.2891
0
LINE
8
BLACK
6
CONTINUOUS
10
74.6375
20
15.2891
11
74.401
21
15.3459
0
LINE
8
BLACK
6
CONTINUOUS
10
74.401
20
15.3459
11
74.1763
21
15.4389
0
LINE
8
BLACK
6
CONTINUOUS
10
74.1763
20
15.4389
11
73.9689
21
15.566
0
LINE
8
BLACK
6
CONTINUOUS
10
73.9689
20
15.566
11
73.784
21
15.724
0
LINE
8
BLACK
6
CONTINUOUS
10
73.784
20
15.724
11
73.626
21
15.9089
0
LINE
8
BLACK
6
CONTINUOUS
10
73.626
20
15.9089
11
73.4989
21
16.1163
0
LINE
8
BLACK
6
CONTINUOUS
10
73.4989
20
16.1163
11
73.43
21
16.2828
0
LINE
8
BLACK
6
CONTINUOUS
10
73.43
20
16.2828
11
73.43
21
15.6658
0
LINE
8
BLACK
6
CONTINUOUS
10
73.43
20
15.6658
11
73.5907
21
15.4867
0
LINE
8
BLACK
6
CONTINUOUS
10
73.5907
20
15.4867
11
73.792
21
15.3179
0
LINE
8
BLACK
6
CONTINUOUS
10
73.792
20
15.3179
11
74.0151
21
15.1793
0
LINE
8
BLACK
6
CONTINUOUS
10
74.0151
20
15.1793
11
74.2556
21
15.0735
0
LINE
8
BLACK
6
CONTINUOUS
10
74.2556
20
15.0735
11
74.5087
21
15.0028
0
LINE
8
BLACK
6
CONTINUOUS
10
74.5087
20
15.0028
11
74.7691
21
14.9686
0
LINE
8
BLACK
6
CONTINUOUS
10
74.7691
20
14.9686
11
75.0319
21
14.9715
0
LINE
8
BLACK
6
CONTINUOUS
10
75.0319
20
14.9715
11
75.2915
21
15.0115
0
LINE
8
BLACK
6
CONTINUOUS
10
75.2915
20
15.0115
11
75.5429
21
15.0878
0
LINE
8
BLACK
6
CONTINUOUS
10
75.5429
20
15.0878
11
75.781
21
15.1988
0
LINE
8
BLACK
6
CONTINUOUS
10
75.781
20
15.1988
11
76.001
21
15.3424
0
LINE
8
BLACK
6
CONTINUOUS
10
76.001
20
15.3424
11
76.1986
21
15.5156
0
LINE
8
BLACK
6
CONTINUOUS
10
76.1986
20
15.5156
11
76.3697
21
15.715
0
LINE
8
BLACK
6
CONTINUOUS
10
76.3697
20
15.715
11
76.5108
21
15.9366
0
LINE
8
BLACK
6
CONTINUOUS
10
76.5108
20
15.9366
11
76.6193
21
16.1759
0
LINE
8
BLACK
6
CONTINUOUS
10
76.6193
20
16.1759
11
76.6929
21
16.4281
0
LINE
8
BLACK
6
CONTINUOUS
10
76.6929
20
16.4281
11
76.73
21
16.6882
0
LINE
8
BLACK
6
CONTINUOUS
10
76.73
20
16.6882
11
76.7301
21
16.9509
0
LINE
8
BLACK
6
CONTINUOUS
10
76.7301
20
16.9509
11
76.693
21
17.211
0
LINE
8
BLACK
6
CONTINUOUS
10
76.693
20
17.211
11
76.6196
21
17.4633
0
LINE
8
BLACK
6
CONTINUOUS
10
76.6196
20
17.4633
11
76.5113
21
17.7026
0
LINE
8
BLACK
6
CONTINUOUS
10
76.5113
20
17.7026
11
76.3702
21
17.9243
0
LINE
8
BLACK
6
CONTINUOUS
10
76.3702
20
17.9243
11
76.1992
21
18.1237
0
LINE
8
BLACK
6
CONTINUOUS
10
76.1992
20
18.1237
11
76.0018
21
18.297
0
LINE
8
BLACK
6
CONTINUOUS
10
76.0018
20
18.297
11
75.7818
21
18.4407
0
LINE
8
BLACK
6
CONTINUOUS
10
75.7818
20
18.4407
11
75.5437
21
18.5519
0
LINE
8
BLACK
6
CONTINUOUS
10
75.5437
20
18.5519
11
75.2924
21
18.6283
0
LINE
8
BLACK
6
CONTINUOUS
10
75.2924
20
18.6283
11
75.0327
21
18.6684
0
LINE
8
BLACK
6
CONTINUOUS
10
75.0327
20
18.6684
11
74.77
21
18.6715
0
LINE
8
BLACK
6
CONTINUOUS
10
74.77
20
18.6715
11
74.5095
21
18.6373
0
LINE
8
BLACK
6
CONTINUOUS
10
74.5428
20
18.2354
11
74.3162
21
18.1613
0
LINE
8
BLACK
6
CONTINUOUS
10
74.3162
20
18.1613
11
74.1047
21
18.0512
0
LINE
8
BLACK
6
CONTINUOUS
10
74.1047
20
18.0512
11
73.914
21
17.908
0
LINE
8
BLACK
6
CONTINUOUS
10
73.914
20
17.908
11
73.7493
21
17.7356
0
LINE
8
BLACK
6
CONTINUOUS
10
73.7493
20
17.7356
11
73.6149
21
17.5387
0
LINE
8
BLACK
6
CONTINUOUS
10
73.6149
20
17.5387
11
73.5145
21
17.3224
0
LINE
8
BLACK
6
CONTINUOUS
10
73.5145
20
17.3224
11
73.4508
21
17.0926
0
LINE
8
BLACK
6
CONTINUOUS
10
73.4508
20
17.0926
11
73.43
21
16.898
0
LINE
8
BLACK
6
CONTINUOUS
10
73.43
20
16.898
11
73.43
21
16.7769
0
LINE
8
BLACK
6
CONTINUOUS
10
73.43
20
16.7769
11
73.4392
21
16.6175
0
LINE
8
BLACK
6
CONTINUOUS
10
73.4392
20
16.6175
11
73.4916
21
16.3849
0
LINE
8
BLACK
6
CONTINUOUS
10
73.4916
20
16.3849
11
73.5813
21
16.164
0
LINE
8
BLACK
6
CONTINUOUS
10
73.5813
20
16.164
11
73.7059
21
15.9607
0
LINE
8
BLACK
6
CONTINUOUS
10
73.7059
20
15.9607
11
73.862
21
15.7805
0
LINE
8
BLACK
6
CONTINUOUS
10
73.862
20
15.7805
11
74.0455
21
15.6282
0
LINE
8
BLACK
6
CONTINUOUS
10
74.0455
20
15.6282
11
74.2513
21
15.5079
0
LINE
8
BLACK
6
CONTINUOUS
10
74.2513
20
15.5079
11
74.4741
21
15.4228
0
LINE
8
BLACK
6
CONTINUOUS
10
74.4741
20
15.4228
11
74.7077
21
15.3753
0
LINE
8
BLACK
6
CONTINUOUS
10
74.7077
20
15.3753
11
74.946
21
15.3665
0
LINE
8
BLACK
6
CONTINUOUS
10
74.946
20
15.3665
11
75.1825
21
15.3968
0
LINE
8
BLACK
6
CONTINUOUS
10
75.1825
20
15.3968
11
75.4109
21
15.4653
0
LINE
8
BLACK
6
CONTINUOUS
10
75.4109
20
15.4653
11
75.625
21
15.5702
0
LINE
8
BLACK
6
CONTINUOUS
10
75.625
20
15.5702
11
75.8191
21
15.7087
0
LINE
8
BLACK
6
CONTINUOUS
10
75.8191
20
15.7087
11
75.988
21
15.877
0
LINE
8
BLACK
6
CONTINUOUS
10
75.988
20
15.877
11
76.1272
21
16.0706
0
LINE
8
BLACK
6
CONTINUOUS
10
76.1272
20
16.0706
11
76.2328
21
16.2844
0
LINE
8
BLACK
6
CONTINUOUS
10
76.2328
20
16.2844
11
76.3021
21
16.5125
0
LINE
8
BLACK
6
CONTINUOUS
10
76.3021
20
16.5125
11
76.3332
21
16.7489
0
LINE
8
BLACK
6
CONTINUOUS
10
76.3332
20
16.7489
11
76.335
21
16.82
0
LINE
8
BLACK
6
CONTINUOUS
10
76.335
20
16.82
11
76.3154
21
17.0576
0
LINE
8
BLACK
6
CONTINUOUS
10
76.3154
20
17.0576
11
76.2573
21
17.2889
0
LINE
8
BLACK
6
CONTINUOUS
10
76.2573
20
17.2889
11
76.1623
21
17.5075
0
LINE
8
BLACK
6
CONTINUOUS
10
76.1623
20
17.5075
11
76.0328
21
17.7077
0
LINE
8
BLACK
6
CONTINUOUS
10
76.0328
20
17.7077
11
75.8723
21
17.8841
0
LINE
8
BLACK
6
CONTINUOUS
10
75.8723
20
17.8841
11
75.6852
21
18.0319
0
LINE
8
BLACK
6
CONTINUOUS
10
75.6852
20
18.0319
11
75.4764
21
18.1471
0
LINE
8
BLACK
6
CONTINUOUS
10
75.4764
20
18.1471
11
75.2517
21
18.2267
0
LINE
8
BLACK
6
CONTINUOUS
10
75.2517
20
18.2267
11
75.0169
21
18.2685
0
LINE
8
BLACK
6
CONTINUOUS
10
75.0169
20
18.2685
11
74.7785
21
18.2714
0
LINE
8
BLACK
6
CONTINUOUS
10
74.7785
20
18.2714
11
74.5428
21
18.2354
0
LINE
8
BLACK
6
CONTINUOUS
10
46.3746
20
19.4346
11
46.36
21
19.47
0
LINE
8
BLACK
6
CONTINUOUS
10
46.36
20
19.47
11
46.36
21
20.67
0
LINE
8
BLACK
6
CONTINUOUS
10
46.36
20
20.67
11
44.48
21
20.67
0
LINE
8
BLACK
6
CONTINUOUS
10
44.48
20
20.67
11
44.4446
21
20.6846
0
LINE
8
BLACK
6
CONTINUOUS
10
44.4446
20
20.6846
11
44.43
21
20.72
0
LINE
8
BLACK
6
CONTINUOUS
10
44.43
20
20.72
11
44.4446
21
20.7554
0
LINE
8
BLACK
6
CONTINUOUS
10
44.4446
20
20.7554
11
44.48
21
20.77
0
LINE
8
BLACK
6
CONTINUOUS
10
44.48
20
20.77
11
46.36
21
20.77
0
LINE
8
BLACK
6
CONTINUOUS
10
46.36
20
20.77
11
46.36
21
21.97
0
LINE
8
BLACK
6
CONTINUOUS
10
46.36
20
21.97
11
46.3746
21
22.0054
0
LINE
8
BLACK
6
CONTINUOUS
10
46.3746
20
22.0054
11
46.41
21
22.02
0
LINE
8
BLACK
6
CONTINUOUS
10
46.41
20
22.02
11
52.71
21
22.02
0
LINE
8
BLACK
6
CONTINUOUS
10
52.71
20
22.02
11
52.7454
21
22.0054
0
LINE
8
BLACK
6
CONTINUOUS
10
52.7454
20
22.0054
11
52.76
21
21.97
0
LINE
8
BLACK
6
CONTINUOUS
10
52.76
20
21.97
11
52.76
21
20.77
0
LINE
8
BLACK
6
CONTINUOUS
10
52.76
20
20.77
11
54.64
21
20.77
0
LINE
8
BLACK
6
CONTINUOUS
10
54.64
20
20.77
11
54.6754
21
20.7554
0
LINE
8
BLACK
6
CONTINUOUS
10
54.6754
20
20.7554
11
54.69
21
20.72
0
LINE
8
BLACK
6
CONTINUOUS
10
54.69
20
20.72
11
54.6754
21
20.6846
0
LINE
8
BLACK
6
CONTINUOUS
10
54.6754
20
20.6846
11
54.64
21
20.67
0
LINE
8
BLACK
6
CONTINUOUS
10
54.64
20
20.67
11
52.76
21
20.67
0
LINE
8
BLACK
6
CONTINUOUS
10
52.76
20
20.67
11
52.76
21
19.47
0
LINE
8
BLACK
6
CONTINUOUS
10
52.76
20
19.47
11
52.7454
21
19.4346
0
LINE
8
BLACK
6
CONTINUOUS
10
52.7454
20
19.4346
11
52.71
21
19.42
0
LINE
8
BLACK
6
CONTINUOUS
10
52.71
20
19.42
11
46.41
21
19.42
0
LINE
8
BLACK
6
CONTINUOUS
10
46.41
20
19.42
11
46.3746
21
19.4346
0
LINE
8
BLACK
6
CONTINUOUS
10
46.46
20
21.92
11
46.46
21
19.52
0
LINE
8
BLACK
6
CONTINUOUS
10
46.46
20
19.52
11
52.66
21
19.52
0
LINE
8
BLACK
6
CONTINUOUS
10
52.66
20
19.52
11
52.66
21
21.92
0
LINE
8
BLACK
6
CONTINUOUS
10
52.66
20
21.92
11
46.46
21
21.92
0
LINE
8
BLACK
6
CONTINUOUS
10
75.2285
20
23.3339
11
75.4879
21
23.2644
0
LINE
8
BLACK
6
CONTINUOUS
10
75.4879
20
23.2644
11
75.7353
21
23.16
0
LINE
8
BLACK
6
CONTINUOUS
10
75.7353
20
23.16
11
75.966
21
23.0225
0
LINE
8
BLACK
6
CONTINUOUS
10
75.966
20
23.0225
11
76.1757
21
22.8547
0
LINE
8
BLACK
6
CONTINUOUS
10
76.1757
20
22.8547
11
76.3603
21
22.6596
0
LINE
8
BLACK
6
CONTINUOUS
10
76.3603
20
22.6596
11
76.5163
21
22.4411
0
LINE
8
BLACK
6
CONTINUOUS
10
76.5163
20
22.4411
11
76.6408
21
22.2031
0
LINE
8
BLACK
6
CONTINUOUS
10
76.6408
20
22.2031
11
76.7315
21
21.9503
0
LINE
8
BLACK
6
CONTINUOUS
10
76.7315
20
21.9503
11
76.7866
21
21.6875
0
LINE
8
BLACK
6
CONTINUOUS
10
76.7866
20
21.6875
11
76.805
21
21.4195
0
LINE
8
BLACK
6
CONTINUOUS
10
76.805
20
21.4195
11
76.7864
21
21.1516
0
LINE
8
BLACK
6
CONTINUOUS
10
76.7864
20
21.1516
11
76.7312
21
20.8888
0
LINE
8
BLACK
6
CONTINUOUS
10
76.7312
20
20.8888
11
76.6405
21
20.636
0
LINE
8
BLACK
6
CONTINUOUS
10
76.6405
20
20.636
11
76.5158
21
20.3982
0
LINE
8
BLACK
6
CONTINUOUS
10
76.5158
20
20.3982
11
76.3597
21
20.1797
0
LINE
8
BLACK
6
CONTINUOUS
10
76.3597
20
20.1797
11
76.175
21
19.9847
0
LINE
8
BLACK
6
CONTINUOUS
10
76.175
20
19.9847
11
75.9653
21
19.8169
0
LINE
8
BLACK
6
CONTINUOUS
10
75.9653
20
19.8169
11
75.7345
21
19.6796
0
LINE
8
BLACK
6
CONTINUOUS
10
75.7345
20
19.6796
11
75.487
21
19.5753
0
LINE
8
BLACK
6
CONTINUOUS
10
75.487
20
19.5753
11
75.2275
21
19.5059
0
LINE
8
BLACK
6
CONTINUOUS
10
75.2275
20
19.5059
11
74.961
21
19.4729
0
LINE
8
BLACK
6
CONTINUOUS
10
74.961
20
19.4729
11
74.6925
21
19.4768
0
LINE
8
BLACK
6
CONTINUOUS
10
74.6925
20
19.4768
11
74.427
21
19.5175
0
LINE
8
BLACK
6
CONTINUOUS
10
74.427
20
19.5175
11
74.1697
21
19.5944
0
LINE
8
BLACK
6
CONTINUOUS
10
74.1697
20
19.5944
11
73.9254
21
19.7059
0
LINE
8
BLACK
6
CONTINUOUS
10
73.9254
20
19.7059
11
73.6987
21
19.8498
0
LINE
8
BLACK
6
CONTINUOUS
10
73.6987
20
19.8498
11
73.4939
21
20.0236
0
LINE
8
BLACK
6
CONTINUOUS
10
73.4939
20
20.0236
11
73.3199
21
20.2184
0
LINE
8
BLACK
6
CONTINUOUS
10
73.3199
20
20.2184
11
73.3196
21
20.2185
0
LINE
8
BLACK
6
CONTINUOUS
10
73.3196
20
20.2185
11
73.3195
21
20.2187
0
LINE
8
BLACK
6
CONTINUOUS
10
73.3195
20
20.2187
11
73.315
21
20.2239
0
LINE
8
BLACK
6
CONTINUOUS
10
73.315
20
20.2239
11
73.3102
21
20.2414
0
LINE
8
BLACK
6
CONTINUOUS
10
73.3102
20
20.2414
11
73.305
21
20.2538
0
LINE
8
BLACK
6
CONTINUOUS
10
73.305
20
20.2538
11
73.305
21
20.2602
0
LINE
8
BLACK
6
CONTINUOUS
10
73.305
20
20.2602
11
73.3048
21
20.2608
0
LINE
8
BLACK
6
CONTINUOUS
10
73.3048
20
20.2608
11
73.305
21
20.261
0
LINE
8
BLACK
6
CONTINUOUS
10
73.305
20
20.261
11
73.305
21
22.5862
0
LINE
8
BLACK
6
CONTINUOUS
10
73.305
20
22.5862
11
73.3112
21
22.6012
0
LINE
8
BLACK
6
CONTINUOUS
10
73.3112
20
22.6012
11
73.3155
21
22.6169
0
LINE
8
BLACK
6
CONTINUOUS
10
73.3155
20
22.6169
11
73.3155
21
22.6169
0
LINE
8
BLACK
6
CONTINUOUS
10
73.3155
20
22.6169
11
73.3196
21
22.6214
0
LINE
8
BLACK
6
CONTINUOUS
10
73.3196
20
22.6214
11
73.3196
21
22.6215
0
LINE
8
BLACK
6
CONTINUOUS
10
73.3196
20
22.6215
11
73.3197
21
22.6216
0
LINE
8
BLACK
6
CONTINUOUS
10
73.3197
20
22.6216
11
73.4946
21
22.817
0
LINE
8
BLACK
6
CONTINUOUS
10
73.4946
20
22.817
11
73.6994
21
22.9907
0
LINE
8
BLACK
6
CONTINUOUS
10
73.6994
20
22.9907
11
73.9262
21
23.1346
0
LINE
8
BLACK
6
CONTINUOUS
10
73.9262
20
23.1346
11
74.1706
21
23.2459
0
LINE
8
BLACK
6
CONTINUOUS
10
74.1706
20
23.2459
11
74.428
21
23.3227
0
LINE
8
BLACK
6
CONTINUOUS
10
74.428
20
23.3227
11
74.6934
21
23.3633
0
LINE
8
BLACK
6
CONTINUOUS
10
74.6934
20
23.3633
11
74.962
21
23.3671
0
LINE
8
BLACK
6
CONTINUOUS
10
74.962
20
23.3671
11
75.2285
21
23.3339
0
LINE
8
BLACK
6
CONTINUOUS
10
74.4845
20
23.2373
11
74.2315
21
23.1668
0
LINE
8
BLACK
6
CONTINUOUS
10
74.2315
20
23.1668
11
73.9909
21
23.0611
0
LINE
8
BLACK
6
CONTINUOUS
10
73.9909
20
23.0611
11
73.7677
21
22.9226
0
LINE
8
BLACK
6
CONTINUOUS
10
73.7677
20
22.9226
11
73.5663
21
22.7539
0
LINE
8
BLACK
6
CONTINUOUS
10
73.5663
20
22.7539
11
73.405
21
22.5743
0
LINE
8
BLACK
6
CONTINUOUS
10
73.405
20
22.5743
11
73.405
21
21.9572
0
LINE
8
BLACK
6
CONTINUOUS
10
73.405
20
21.9572
11
73.4739
21
22.1237
0
LINE
8
BLACK
6
CONTINUOUS
10
73.4739
20
22.1237
11
73.601
21
22.3311
0
LINE
8
BLACK
6
CONTINUOUS
10
73.601
20
22.3311
11
73.759
21
22.516
0
LINE
8
BLACK
6
CONTINUOUS
10
73.759
20
22.516
11
73.9439
21
22.674
0
LINE
8
BLACK
6
CONTINUOUS
10
73.9439
20
22.674
11
74.1513
21
22.8011
0
LINE
8
BLACK
6
CONTINUOUS
10
74.1513
20
22.8011
11
74.376
21
22.8941
0
LINE
8
BLACK
6
CONTINUOUS
10
74.376
20
22.8941
11
74.6125
21
22.9509
0
LINE
8
BLACK
6
CONTINUOUS
10
74.6125
20
22.9509
11
74.855
21
22.97
0
LINE
8
BLACK
6
CONTINUOUS
10
74.855
20
22.97
11
75.0975
21
22.9509
0
LINE
8
BLACK
6
CONTINUOUS
10
75.0975
20
22.9509
11
75.334
21
22.8941
0
LINE
8
BLACK
6
CONTINUOUS
10
75.334
20
22.8941
11
75.5587
21
22.8011
0
LINE
8
BLACK
6
CONTINUOUS
10
75.5587
20
22.8011
11
75.7661
21
22.674
0
LINE
8
BLACK
6
CONTINUOUS
10
75.7661
20
22.674
11
75.951
21
22.516
0
LINE
8
BLACK
6
CONTINUOUS
10
75.951
20
22.516
11
76.109
21
22.3311
0
LINE
8
BLACK
6
CONTINUOUS
10
76.109
20
22.3311
11
76.2361
21
22.1237
0
LINE
8
BLACK
6
CONTINUOUS
10
76.2361
20
22.1237
11
76.3291
21
21.899
0
LINE
8
BLACK
6
CONTINUOUS
10
76.3291
20
21.899
11
76.3859
21
21.6625
0
LINE
8
BLACK
6
CONTINUOUS
10
76.3859
20
21.6625
11
76.405
21
21.42
0
LINE
8
BLACK
6
CONTINUOUS
10
76.405
20
21.42
11
76.3859
21
21.1775
0
LINE
8
BLACK
6
CONTINUOUS
10
76.3859
20
21.1775
11
76.3291
21
20.941
0
LINE
8
BLACK
6
CONTINUOUS
10
76.3291
20
20.941
11
76.2361
21
20.7163
0
LINE
8
BLACK
6
CONTINUOUS
10
76.2361
20
20.7163
11
76.109
21
20.5089
0
LINE
8
BLACK
6
CONTINUOUS
10
76.109
20
20.5089
11
75.951
21
20.324
0
LINE
8
BLACK
6
CONTINUOUS
10
75.951
20
20.324
11
75.7661
21
20.166
0
LINE
8
BLACK
6
CONTINUOUS
10
75.7661
20
20.166
11
75.5587
21
20.0389
0
LINE
8
BLACK
6
CONTINUOUS
10
75.5587
20
20.0389
11
75.334
21
19.9459
0
LINE
8
BLACK
6
CONTINUOUS
10
75.334
20
19.9459
11
75.0975
21
19.8891
0
LINE
8
BLACK
6
CONTINUOUS
10
75.0975
20
19.8891
11
74.855
21
19.87
0
LINE
8
BLACK
6
CONTINUOUS
10
74.855
20
19.87
11
74.6125
21
19.8891
0
LINE
8
BLACK
6
CONTINUOUS
10
74.6125
20
19.8891
11
74.376
21
19.9459
0
LINE
8
BLACK
6
CONTINUOUS
10
74.376
20
19.9459
11
74.1513
21
20.0389
0
LINE
8
BLACK
6
CONTINUOUS
10
74.1513
20
20.0389
11
73.9439
21
20.166
0
LINE
8
BLACK
6
CONTINUOUS
10
73.9439
20
20.166
11
73.759
21
20.324
0
LINE
8
BLACK
6
CONTINUOUS
10
73.759
20
20.324
11
73.601
21
20.5089
0
LINE
8
BLACK
6
CONTINUOUS
10
73.601
20
20.5089
11
73.4739
21
20.7163
0
LINE
8
BLACK
6
CONTINUOUS
10
73.4739
20
20.7163
11
73.405
21
20.8827
0
LINE
8
BLACK
6
CONTINUOUS
10
73.405
20
20.8827
11
73.405
21
20.2658
0
LINE
8
BLACK
6
CONTINUOUS
10
73.405
20
20.2658
11
73.5657
21
20.0867
0
LINE
8
BLACK
6
CONTINUOUS
10
73.5657
20
20.0867
11
73.767
21
19.9179
0
LINE
8
BLACK
6
CONTINUOUS
10
73.767
20
19.9179
11
73.9901
21
19.7793
0
LINE
8
BLACK
6
CONTINUOUS
10
73.9901
20
19.7793
11
74.2306
21
19.6735
0
LINE
8
BLACK
6
CONTINUOUS
10
74.2306
20
19.6735
11
74.4837
21
19.6028
0
LINE
8
BLACK
6
CONTINUOUS
10
74.4837
20
19.6028
11
74.7441
21
19.5686
0
LINE
8
BLACK
6
CONTINUOUS
10
74.7441
20
19.5686
11
75.0069
21
19.5715
0
LINE
8
BLACK
6
CONTINUOUS
10
75.0069
20
19.5715
11
75.2665
21
19.6115
0
LINE
8
BLACK
6
CONTINUOUS
10
75.2665
20
19.6115
11
75.5179
21
19.6878
0
LINE
8
BLACK
6
CONTINUOUS
10
75.5179
20
19.6878
11
75.756
21
19.7988
0
LINE
8
BLACK
6
CONTINUOUS
10
75.756
20
19.7988
11
75.9761
21
19.9424
0
LINE
8
BLACK
6
CONTINUOUS
10
75.9761
20
19.9424
11
76.1736
21
20.1156
0
LINE
8
BLACK
6
CONTINUOUS
10
76.1736
20
20.1156
11
76.3447
21
20.315
0
LINE
8
BLACK
6
CONTINUOUS
10
76.3447
20
20.315
11
76.4858
21
20.5366
0
LINE
8
BLACK
6
CONTINUOUS
10
76.4858
20
20.5366
11
76.5943
21
20.7759
0
LINE
8
BLACK
6
CONTINUOUS
10
76.5943
20
20.7759
11
76.6679
21
21.0281
0
LINE
8
BLACK
6
CONTINUOUS
10
76.6679
20
21.0281
11
76.705
21
21.2882
0
LINE
8
BLACK
6
CONTINUOUS
10
76.705
20
21.2882
11
76.7051
21
21.5509
0
LINE
8
BLACK
6
CONTINUOUS
10
76.7051
20
21.5509
11
76.668
21
21.811
0
LINE
8
BLACK
6
CONTINUOUS
10
76.668
20
21.811
11
76.5946
21
22.0633
0
LINE
8
BLACK
6
CONTINUOUS
10
76.5946
20
22.0633
11
76.4863
21
22.3026
0
LINE
8
BLACK
6
CONTINUOUS
10
76.4863
20
22.3026
11
76.3452
21
22.5243
0
LINE
8
BLACK
6
CONTINUOUS
10
76.3452
20
22.5243
11
76.1742
21
22.7237
0
LINE
8
BLACK
6
CONTINUOUS
10
76.1742
20
22.7237
11
75.9768
21
22.897
0
LINE
8
BLACK
6
CONTINUOUS
10
75.9768
20
22.897
11
75.7568
21
23.0407
0
LINE
8
BLACK
6
CONTINUOUS
10
75.7568
20
23.0407
11
75.5187
21
23.1519
0
LINE
8
BLACK
6
CONTINUOUS
10
75.5187
20
23.1519
11
75.2674
21
23.2283
0
LINE
8
BLACK
6
CONTINUOUS
10
75.2674
20
23.2283
11
75.0077
21
23.2684
0
LINE
8
BLACK
6
CONTINUOUS
10
75.0077
20
23.2684
11
74.745
21
23.2715
0
LINE
8
BLACK
6
CONTINUOUS
10
74.745
20
23.2715
11
74.4845
21
23.2373
0
LINE
8
BLACK
6
CONTINUOUS
10
74.5178
20
22.8354
11
74.2912
21
22.7613
0
LINE
8
BLACK
6
CONTINUOUS
10
74.2912
20
22.7613
11
74.0797
21
22.6512
0
LINE
8
BLACK
6
CONTINUOUS
10
74.0797
20
22.6512
11
73.889
21
22.508
0
LINE
8
BLACK
6
CONTINUOUS
10
73.889
20
22.508
11
73.7243
21
22.3356
0
LINE
8
BLACK
6
CONTINUOUS
10
73.7243
20
22.3356
11
73.5899
21
22.1387
0
LINE
8
BLACK
6
CONTINUOUS
10
73.5899
20
22.1387
11
73.4895
21
21.9224
0
LINE
8
BLACK
6
CONTINUOUS
10
73.4895
20
21.9224
11
73.4258
21
21.6926
0
LINE
8
BLACK
6
CONTINUOUS
10
73.4258
20
21.6926
11
73.405
21
21.498
0
LINE
8
BLACK
6
CONTINUOUS
10
73.405
20
21.498
11
73.405
21
21.3769
0
LINE
8
BLACK
6
CONTINUOUS
10
73.405
20
21.3769
11
73.4142
21
21.2175
0
LINE
8
BLACK
6
CONTINUOUS
10
73.4142
20
21.2175
11
73.4666
21
20.9849
0
LINE
8
BLACK
6
CONTINUOUS
10
73.4666
20
20.9849
11
73.5563
21
20.764
0
LINE
8
BLACK
6
CONTINUOUS
10
73.5563
20
20.764
11
73.6809
21
20.5607
0
LINE
8
BLACK
6
CONTINUOUS
10
73.6809
20
20.5607
11
73.837
21
20.3805
0
LINE
8
BLACK
6
CONTINUOUS
10
73.837
20
20.3805
11
74.0205
21
20.2282
0
LINE
8
BLACK
6
CONTINUOUS
10
74.0205
20
20.2282
11
74.2263
21
20.1079
0
LINE
8
BLACK
6
CONTINUOUS
10
74.2263
20
20.1079
11
74.4491
21
20.0228
0
LINE
8
BLACK
6
CONTINUOUS
10
74.4491
20
20.0228
11
74.6827
21
19.9753
0
LINE
8
BLACK
6
CONTINUOUS
10
74.6827
20
19.9753
11
74.921
21
19.9665
0
LINE
8
BLACK
6
CONTINUOUS
10
74.921
20
19.9665
11
75.1575
21
19.9968
0
LINE
8
BLACK
6
CONTINUOUS
10
75.1575
20
19.9968
11
75.3859
21
20.0653
0
LINE
8
BLACK
6
CONTINUOUS
10
75.3859
20
20.0653
11
75.6
21
20.1702
0
LINE
8
BLACK
6
CONTINUOUS
10
75.6
20
20.1702
11
75.7941
21
20.3087
0
LINE
8
BLACK
6
CONTINUOUS
10
75.7941
20
20.3087
11
75.963
21
20.477
0
LINE
8
BLACK
6
CONTINUOUS
10
75.963
20
20.477
11
76.1022
21
20.6706
0
LINE
8
BLACK
6
CONTINUOUS
10
76.1022
20
20.6706
11
76.2078
21
20.8844
0
LINE
8
BLACK
6
CONTINUOUS
10
76.2078
20
20.8844
11
76.2771
21
21.1125
0
LINE
8
BLACK
6
CONTINUOUS
10
76.2771
20
21.1125
11
76.3082
21
21.3489
0
LINE
8
BLACK
6
CONTINUOUS
10
76.3082
20
21.3489
11
76.31
21
21.42
0
LINE
8
BLACK
6
CONTINUOUS
10
76.31
20
21.42
11
76.2904
21
21.6576
0
LINE
8
BLACK
6
CONTINUOUS
10
76.2904
20
21.6576
11
76.2323
21
21.8889
0
LINE
8
BLACK
6
CONTINUOUS
10
76.2323
20
21.8889
11
76.1373
21
22.1075
0
LINE
8
BLACK
6
CONTINUOUS
10
76.1373
20
22.1075
11
76.0078
21
22.3077
0
LINE
8
BLACK
6
CONTINUOUS
10
76.0078
20
22.3077
11
75.8473
21
22.4841
0
LINE
8
BLACK
6
CONTINUOUS
10
75.8473
20
22.4841
11
75.6602
21
22.6319
0
LINE
8
BLACK
6
CONTINUOUS
10
75.6602
20
22.6319
11
75.4514
21
22.7471
0
LINE
8
BLACK
6
CONTINUOUS
10
75.4514
20
22.7471
11
75.2267
21
22.8267
0
LINE
8
BLACK
6
CONTINUOUS
10
75.2267
20
22.8267
11
74.9919
21
22.8685
0
LINE
8
BLACK
6
CONTINUOUS
10
74.9919
20
22.8685
11
74.7535
21
22.8714
0
LINE
8
BLACK
6
CONTINUOUS
10
74.7535
20
22.8714
11
74.5178
21
22.8354
0
LINE
8
BLACK
6
CONTINUOUS
10
58.8346
20
20.3446
11
58.82
21
20.38
0
LINE
8
BLACK
6
CONTINUOUS
10
58.82
20
20.38
11
58.82
21
43.36
0
LINE
8
BLACK
6
CONTINUOUS
10
58.82
20
43.36
11
58.8346
21
43.3954
0
LINE
8
BLACK
6
CONTINUOUS
10
58.8346
20
43.3954
11
58.87
21
43.41
0
LINE
8
BLACK
6
CONTINUOUS
10
58.87
20
43.41
11
69.03
21
43.41
0
LINE
8
BLACK
6
CONTINUOUS
10
69.03
20
43.41
11
69.0654
21
43.3954
0
LINE
8
BLACK
6
CONTINUOUS
10
69.0654
20
43.3954
11
69.08
21
43.36
0
LINE
8
BLACK
6
CONTINUOUS
10
69.08
20
43.36
11
69.08
21
20.38
0
LINE
8
BLACK
6
CONTINUOUS
10
69.08
20
20.38
11
69.0654
21
20.3446
0
LINE
8
BLACK
6
CONTINUOUS
10
69.0654
20
20.3446
11
69.03
21
20.33
0
LINE
8
BLACK
6
CONTINUOUS
10
69.03
20
20.33
11
58.87
21
20.33
0
LINE
8
BLACK
6
CONTINUOUS
10
58.87
20
20.33
11
58.8346
21
20.3446
0
LINE
8
BLACK
6
CONTINUOUS
10
58.92
20
43.31
11
58.92
21
20.43
0
LINE
8
BLACK
6
CONTINUOUS
10
58.92
20
20.43
11
60.7291
21
20.43
0
LINE
8
BLACK
6
CONTINUOUS
10
60.7291
20
20.43
11
60.725
21
20.44
0
LINE
8
BLACK
6
CONTINUOUS
10
60.725
20
20.44
11
60.725
21
42.3
0
LINE
8
BLACK
6
CONTINUOUS
10
60.725
20
42.3
11
60.7396
21
42.3354
0
LINE
8
BLACK
6
CONTINUOUS
10
60.7396
20
42.3354
11
61.7143
21
43.31
0
LINE
8
BLACK
6
CONTINUOUS
10
61.7143
20
43.31
11
58.92
21
43.31
0
LINE
8
BLACK
6
CONTINUOUS
10
67.1709
20
43.31
11
67.175
21
43.3
0
LINE
8
BLACK
6
CONTINUOUS
10
67.175
20
43.3
11
67.175
21
20.44
0
LINE
8
BLACK
6
CONTINUOUS
10
67.175
20
20.44
11
67.1709
21
20.43
0
LINE
8
BLACK
6
CONTINUOUS
10
67.1709
20
20.43
11
68.98
21
20.43
0
LINE
8
BLACK
6
CONTINUOUS
10
68.98
20
20.43
11
68.98
21
43.31
0
LINE
8
BLACK
6
CONTINUOUS
10
68.98
20
43.31
11
67.1709
21
43.31
0
LINE
8
BLACK
6
CONTINUOUS
10
61.7957
20
43.25
11
60.825
21
42.2793
0
LINE
8
BLACK
6
CONTINUOUS
10
60.825
20
42.2793
11
60.825
21
20.49
0
LINE
8
BLACK
6
CONTINUOUS
10
60.825
20
20.49
11
67.075
21
20.49
0
LINE
8
BLACK
6
CONTINUOUS
10
67.075
20
20.49
11
67.075
21
43.25
0
LINE
8
BLACK
6
CONTINUOUS
10
67.075
20
43.25
11
61.7957
21
43.25
0
LINE
8
BLACK
6
CONTINUOUS
10
40.0797
20
22.5907
11
40.084
21
22.5915
0
LINE
8
BLACK
6
CONTINUOUS
10
40.084
20
22.5915
11
40.1028
21
22.5806
0
LINE
8
BLACK
6
CONTINUOUS
10
40.1028
20
22.5806
11
40.1228
21
22.5719
0
LINE
8
BLACK
6
CONTINUOUS
10
40.1228
20
22.5719
11
40.1247
21
22.568
0
LINE
8
BLACK
6
CONTINUOUS
10
40.1247
20
22.568
11
40.1284
21
22.5658
0
LINE
8
BLACK
6
CONTINUOUS
10
40.1284
20
22.5658
11
40.1358
21
22.5454
0
LINE
8
BLACK
6
CONTINUOUS
10
40.1358
20
22.5454
11
40.1455
21
22.5259
0
LINE
8
BLACK
6
CONTINUOUS
10
40.1455
20
22.5259
11
40.1445
21
22.5217
0
LINE
8
BLACK
6
CONTINUOUS
10
40.1445
20
22.5217
11
40.146
21
22.5176
0
LINE
8
BLACK
6
CONTINUOUS
10
40.146
20
22.5176
11
40.146
21
21.5926
0
LINE
8
BLACK
6
CONTINUOUS
10
40.146
20
21.5926
11
40.3567
21
21.5926
0
LINE
8
BLACK
6
CONTINUOUS
10
40.3567
20
21.5926
11
40.3823
21
21.5881
0
LINE
8
BLACK
6
CONTINUOUS
10
40.3823
20
21.5881
11
40.4216
21
21.5551
0
LINE
8
BLACK
6
CONTINUOUS
10
40.4216
20
21.5551
11
40.4305
21
21.5046
0
LINE
8
BLACK
6
CONTINUOUS
10
40.4305
20
21.5046
11
40.4049
21
21.4602
0
LINE
8
BLACK
6
CONTINUOUS
10
40.4049
20
21.4602
11
40.3567
21
21.4426
0
LINE
8
BLACK
6
CONTINUOUS
10
40.3567
20
21.4426
11
39.7852
21
21.4426
0
LINE
8
BLACK
6
CONTINUOUS
10
39.7852
20
21.4426
11
39.7596
21
21.4471
0
LINE
8
BLACK
6
CONTINUOUS
10
39.7596
20
21.4471
11
39.7203
21
21.4801
0
LINE
8
BLACK
6
CONTINUOUS
10
39.7203
20
21.4801
11
39.7114
21
21.5306
0
LINE
8
BLACK
6
CONTINUOUS
10
39.7114
20
21.5306
11
39.737
21
21.5751
0
LINE
8
BLACK
6
CONTINUOUS
10
39.737
20
21.5751
11
39.7852
21
21.5926
0
LINE
8
BLACK
6
CONTINUOUS
10
39.7852
20
21.5926
11
39.996
21
21.5926
0
LINE
8
BLACK
6
CONTINUOUS
10
39.996
20
21.5926
11
39.996
21
22.2889
0
LINE
8
BLACK
6
CONTINUOUS
10
39.996
20
22.2889
11
39.9335
21
22.2265
0
LINE
8
BLACK
6
CONTINUOUS
10
39.9335
20
22.2265
11
39.9151
21
22.2136
0
LINE
8
BLACK
6
CONTINUOUS
10
39.9151
20
22.2136
11
39.914
21
22.2124
0
LINE
8
BLACK
6
CONTINUOUS
10
39.914
20
22.2124
11
39.8188
21
22.1648
0
LINE
8
BLACK
6
CONTINUOUS
10
39.8188
20
22.1648
11
39.7938
21
22.1574
0
LINE
8
BLACK
6
CONTINUOUS
10
39.7938
20
22.1574
11
39.7439
21
22.1693
0
LINE
8
BLACK
6
CONTINUOUS
10
39.7439
20
22.1693
11
39.7133
21
22.2105
0
LINE
8
BLACK
6
CONTINUOUS
10
39.7133
20
22.2105
11
39.7164
21
22.2617
0
LINE
8
BLACK
6
CONTINUOUS
10
39.7164
20
22.2617
11
39.7517
21
22.299
0
LINE
8
BLACK
6
CONTINUOUS
10
39.7517
20
22.299
11
39.836
21
22.3412
0
LINE
8
BLACK
6
CONTINUOUS
10
39.836
20
22.3412
11
39.9174
21
22.4225
0
LINE
8
BLACK
6
CONTINUOUS
10
39.9174
20
22.4225
11
40.0085
21
22.5592
0
LINE
8
BLACK
6
CONTINUOUS
10
40.0085
20
22.5592
11
40.0265
21
22.5781
0
LINE
8
BLACK
6
CONTINUOUS
10
40.0265
20
22.5781
11
40.0307
21
22.5793
0
LINE
8
BLACK
6
CONTINUOUS
10
40.0307
20
22.5793
11
40.0335
21
22.5826
0
LINE
8
BLACK
6
CONTINUOUS
10
40.0335
20
22.5826
11
40.0549
21
22.5864
0
LINE
8
BLACK
6
CONTINUOUS
10
40.0549
20
22.5864
11
40.0758
21
22.5925
0
LINE
8
BLACK
6
CONTINUOUS
10
40.0758
20
22.5925
11
40.0797
21
22.5907
0
LINE
8
BLACK
6
CONTINUOUS
10
38.5728
20
22.5881
11
38.6121
21
22.5551
0
LINE
8
BLACK
6
CONTINUOUS
10
38.6121
20
22.5551
11
38.621
21
22.5046
0
LINE
8
BLACK
6
CONTINUOUS
10
38.621
20
22.5046
11
38.5954
21
22.4602
0
LINE
8
BLACK
6
CONTINUOUS
10
38.5954
20
22.4602
11
38.5471
21
22.4426
0
LINE
8
BLACK
6
CONTINUOUS
10
38.5471
20
22.4426
11
38.146
21
22.4426
0
LINE
8
BLACK
6
CONTINUOUS
10
38.146
20
22.4426
11
38.146
21
22.1164
0
LINE
8
BLACK
6
CONTINUOUS
10
38.146
20
22.1164
11
38.4043
21
22.1164
0
LINE
8
BLACK
6
CONTINUOUS
10
38.4043
20
22.1164
11
38.4299
21
22.1119
0
LINE
8
BLACK
6
CONTINUOUS
10
38.4299
20
22.1119
11
38.4692
21
22.0789
0
LINE
8
BLACK
6
CONTINUOUS
10
38.4692
20
22.0789
11
38.4781
21
22.0284
0
LINE
8
BLACK
6
CONTINUOUS
10
38.4781
20
22.0284
11
38.4525
21
21.984
0
LINE
8
BLACK
6
CONTINUOUS
10
38.4525
20
21.984
11
38.4043
21
21.9664
0
LINE
8
BLACK
6
CONTINUOUS
10
38.4043
20
21.9664
11
38.146
21
21.9664
0
LINE
8
BLACK
6
CONTINUOUS
10
38.146
20
21.9664
11
38.146
21
21.5926
0
LINE
8
BLACK
6
CONTINUOUS
10
38.146
20
21.5926
11
38.5471
21
21.5926
0
LINE
8
BLACK
6
CONTINUOUS
10
38.5471
20
21.5926
11
38.5728
21
21.5881
0
LINE
8
BLACK
6
CONTINUOUS
10
38.5728
20
21.5881
11
38.6121
21
21.5551
0
LINE
8
BLACK
6
CONTINUOUS
10
38.6121
20
21.5551
11
38.621
21
21.5046
0
LINE
8
BLACK
6
CONTINUOUS
10
38.621
20
21.5046
11
38.5954
21
21.4602
0
LINE
8
BLACK
6
CONTINUOUS
10
38.5954
20
21.4602
11
38.5471
21
21.4426
0
LINE
8
BLACK
6
CONTINUOUS
10
38.5471
20
21.4426
11
38.071
21
21.4426
0
LINE
8
BLACK
6
CONTINUOUS
10
38.071
20
21.4426
11
38.0612
21
21.4443
0
LINE
8
BLACK
6
CONTINUOUS
10
38.0612
20
21.4443
11
38.0579
21
21.4438
0
LINE
8
BLACK
6
CONTINUOUS
10
38.0579
20
21.4438
11
38.055
21
21.4454
0
LINE
8
BLACK
6
CONTINUOUS
10
38.055
20
21.4454
11
38.0453
21
21.4471
0
LINE
8
BLACK
6
CONTINUOUS
10
38.0453
20
21.4471
11
38.0304
21
21.4597
0
LINE
8
BLACK
6
CONTINUOUS
10
38.0304
20
21.4597
11
38.0135
21
21.4694
0
LINE
8
BLACK
6
CONTINUOUS
10
38.0135
20
21.4694
11
38.0112
21
21.4758
0
LINE
8
BLACK
6
CONTINUOUS
10
38.0112
20
21.4758
11
38.006
21
21.4801
0
LINE
8
BLACK
6
CONTINUOUS
10
38.006
20
21.4801
11
38.0026
21
21.4993
0
LINE
8
BLACK
6
CONTINUOUS
10
38.0026
20
21.4993
11
37.996
21
21.5176
0
LINE
8
BLACK
6
CONTINUOUS
10
37.996
20
21.5176
11
37.996
21
22.5176
0
LINE
8
BLACK
6
CONTINUOUS
10
37.996
20
22.5176
11
37.9977
21
22.5274
0
LINE
8
BLACK
6
CONTINUOUS
10
37.9977
20
22.5274
11
37.9971
21
22.5306
0
LINE
8
BLACK
6
CONTINUOUS
10
37.9971
20
22.5306
11
37.9988
21
22.5335
0
LINE
8
BLACK
6
CONTINUOUS
10
37.9988
20
22.5335
11
38.0005
21
22.5433
0
LINE
8
BLACK
6
CONTINUOUS
10
38.0005
20
22.5433
11
38.013
21
22.5582
0
LINE
8
BLACK
6
CONTINUOUS
10
38.013
20
22.5582
11
38.0227
21
22.5751
0
LINE
8
BLACK
6
CONTINUOUS
10
38.0227
20
22.5751
11
38.0291
21
22.5774
0
LINE
8
BLACK
6
CONTINUOUS
10
38.0291
20
22.5774
11
38.0335
21
22.5826
0
LINE
8
BLACK
6
CONTINUOUS
10
38.0335
20
22.5826
11
38.0526
21
22.586
0
LINE
8
BLACK
6
CONTINUOUS
10
38.0526
20
22.586
11
38.071
21
22.5926
0
LINE
8
BLACK
6
CONTINUOUS
10
38.071
20
22.5926
11
38.5471
21
22.5926
0
LINE
8
BLACK
6
CONTINUOUS
10
38.5471
20
22.5926
11
38.5728
21
22.5881
0
LINE
8
BLACK
6
CONTINUOUS
10
37.4776
20
22.5881
11
37.481
21
22.5852
0
LINE
8
BLACK
6
CONTINUOUS
10
37.481
20
22.5852
11
37.4854
21
22.5847
0
LINE
8
BLACK
6
CONTINUOUS
10
37.4854
20
22.5847
11
37.5807
21
22.5371
0
LINE
8
BLACK
6
CONTINUOUS
10
37.5807
20
22.5371
11
37.5987
21
22.5237
0
LINE
8
BLACK
6
CONTINUOUS
10
37.5987
20
22.5237
11
37.6002
21
22.523
0
LINE
8
BLACK
6
CONTINUOUS
10
37.6002
20
22.523
11
37.6478
21
22.4754
0
LINE
8
BLACK
6
CONTINUOUS
10
37.6478
20
22.4754
11
37.6607
21
22.457
0
LINE
8
BLACK
6
CONTINUOUS
10
37.6607
20
22.457
11
37.6618
21
22.4559
0
LINE
8
BLACK
6
CONTINUOUS
10
37.6618
20
22.4559
11
37.7095
21
22.3607
0
LINE
8
BLACK
6
CONTINUOUS
10
37.7095
20
22.3607
11
37.7169
21
22.3357
0
LINE
8
BLACK
6
CONTINUOUS
10
37.7169
20
22.3357
11
37.7158
21
22.3314
0
LINE
8
BLACK
6
CONTINUOUS
10
37.7158
20
22.3314
11
37.7174
21
22.3271
0
LINE
8
BLACK
6
CONTINUOUS
10
37.7174
20
22.3271
11
37.7174
21
22.1843
0
LINE
8
BLACK
6
CONTINUOUS
10
37.7174
20
22.1843
11
37.7129
21
22.1586
0
LINE
8
BLACK
6
CONTINUOUS
10
37.7129
20
22.1586
11
37.71
21
22.1552
0
LINE
8
BLACK
6
CONTINUOUS
10
37.71
20
22.1552
11
37.7095
21
22.1507
0
LINE
8
BLACK
6
CONTINUOUS
10
37.7095
20
22.1507
11
37.6618
21
22.0555
0
LINE
8
BLACK
6
CONTINUOUS
10
37.6618
20
22.0555
11
37.6485
21
22.0375
0
LINE
8
BLACK
6
CONTINUOUS
10
37.6485
20
22.0375
11
37.6478
21
22.036
0
LINE
8
BLACK
6
CONTINUOUS
10
37.6478
20
22.036
11
37.6002
21
21.9884
0
LINE
8
BLACK
6
CONTINUOUS
10
37.6002
20
21.9884
11
37.5818
21
21.9755
0
LINE
8
BLACK
6
CONTINUOUS
10
37.5818
20
21.9755
11
37.5807
21
21.9743
0
LINE
8
BLACK
6
CONTINUOUS
10
37.5807
20
21.9743
11
37.4854
21
21.9267
0
LINE
8
BLACK
6
CONTINUOUS
10
37.4854
20
21.9267
11
37.4605
21
21.9193
0
LINE
8
BLACK
6
CONTINUOUS
10
37.4605
20
21.9193
11
37.4561
21
21.9203
0
LINE
8
BLACK
6
CONTINUOUS
10
37.4561
20
21.9203
11
37.4529
21
21.9192
0
LINE
8
BLACK
6
CONTINUOUS
10
37.4529
20
21.9192
11
37.7038
21
21.5606
0
LINE
8
BLACK
6
CONTINUOUS
10
37.7038
20
21.5606
11
37.7148
21
21.537
0
LINE
8
BLACK
6
CONTINUOUS
10
37.7148
20
21.537
11
37.7103
21
21.4859
0
LINE
8
BLACK
6
CONTINUOUS
10
37.7103
20
21.4859
11
37.6741
21
21.4496
0
LINE
8
BLACK
6
CONTINUOUS
10
37.6741
20
21.4496
11
37.623
21
21.4452
0
LINE
8
BLACK
6
CONTINUOUS
10
37.623
20
21.4452
11
37.5809
21
21.4746
0
LINE
8
BLACK
6
CONTINUOUS
10
37.5809
20
21.4746
11
37.27
21
21.9188
0
LINE
8
BLACK
6
CONTINUOUS
10
37.27
20
21.9188
11
37.146
21
21.9188
0
LINE
8
BLACK
6
CONTINUOUS
10
37.146
20
21.9188
11
37.146
21
21.5176
0
LINE
8
BLACK
6
CONTINUOUS
10
37.146
20
21.5176
11
37.1414
21
21.492
0
LINE
8
BLACK
6
CONTINUOUS
10
37.1414
20
21.492
11
37.1085
21
21.4527
0
LINE
8
BLACK
6
CONTINUOUS
10
37.1085
20
21.4527
11
37.0579
21
21.4438
0
LINE
8
BLACK
6
CONTINUOUS
10
37.0579
20
21.4438
11
37.0135
21
21.4694
0
LINE
8
BLACK
6
CONTINUOUS
10
37.0135
20
21.4694
11
36.996
21
21.5176
0
LINE
8
BLACK
6
CONTINUOUS
10
36.996
20
21.5176
11
36.996
21
22.5176
0
LINE
8
BLACK
6
CONTINUOUS
10
36.996
20
22.5176
11
36.9977
21
22.5274
0
LINE
8
BLACK
6
CONTINUOUS
10
36.9977
20
22.5274
11
36.9971
21
22.5306
0
LINE
8
BLACK
6
CONTINUOUS
10
36.9971
20
22.5306
11
36.9988
21
22.5335
0
LINE
8
BLACK
6
CONTINUOUS
10
36.9988
20
22.5335
11
37.0005
21
22.5433
0
LINE
8
BLACK
6
CONTINUOUS
10
37.0005
20
22.5433
11
37.013
21
22.5582
0
LINE
8
BLACK
6
CONTINUOUS
10
37.013
20
22.5582
11
37.0227
21
22.5751
0
LINE
8
BLACK
6
CONTINUOUS
10
37.0227
20
22.5751
11
37.0291
21
22.5774
0
LINE
8
BLACK
6
CONTINUOUS
10
37.0291
20
22.5774
11
37.0335
21
22.5826
0
LINE
8
BLACK
6
CONTINUOUS
10
37.0335
20
22.5826
11
37.0526
21
22.586
0
LINE
8
BLACK
6
CONTINUOUS
10
37.0526
20
22.586
11
37.071
21
22.5926
0
LINE
8
BLACK
6
CONTINUOUS
10
37.071
20
22.5926
11
37.4519
21
22.5926
0
LINE
8
BLACK
6
CONTINUOUS
10
37.4519
20
22.5926
11
37.4776
21
22.5881
0
LINE
8
BLACK
6
CONTINUOUS
10
37.146
20
22.4426
11
37.146
21
22.0688
0
LINE
8
BLACK
6
CONTINUOUS
10
37.146
20
22.0688
11
37.4342
21
22.0688
0
LINE
8
BLACK
6
CONTINUOUS
10
37.4342
20
22.0688
11
37.5027
21
22.1031
0
LINE
8
BLACK
6
CONTINUOUS
10
37.5027
20
22.1031
11
37.5331
21
22.1335
0
LINE
8
BLACK
6
CONTINUOUS
10
37.5331
20
22.1335
11
37.5674
21
22.202
0
LINE
8
BLACK
6
CONTINUOUS
10
37.5674
20
22.202
11
37.5674
21
22.3094
0
LINE
8
BLACK
6
CONTINUOUS
10
37.5674
20
22.3094
11
37.5331
21
22.378
0
LINE
8
BLACK
6
CONTINUOUS
10
37.5331
20
22.378
11
37.5027
21
22.4084
0
LINE
8
BLACK
6
CONTINUOUS
10
37.5027
20
22.4084
11
37.4342
21
22.4426
0
LINE
8
BLACK
6
CONTINUOUS
10
37.4342
20
22.4426
11
37.146
21
22.4426
0
LINE
8
BLACK
6
CONTINUOUS
10
39.4776
20
22.5881
11
39.5169
21
22.5551
0
LINE
8
BLACK
6
CONTINUOUS
10
39.5169
20
22.5551
11
39.5258
21
22.5046
0
LINE
8
BLACK
6
CONTINUOUS
10
39.5258
20
22.5046
11
39.5001
21
22.4602
0
LINE
8
BLACK
6
CONTINUOUS
10
39.5001
20
22.4602
11
39.4519
21
22.4426
0
LINE
8
BLACK
6
CONTINUOUS
10
39.4519
20
22.4426
11
39.0507
21
22.4426
0
LINE
8
BLACK
6
CONTINUOUS
10
39.0507
20
22.4426
11
39.0507
21
22.1164
0
LINE
8
BLACK
6
CONTINUOUS
10
39.0507
20
22.1164
11
39.309
21
22.1164
0
LINE
8
BLACK
6
CONTINUOUS
10
39.309
20
22.1164
11
39.3347
21
22.1119
0
LINE
8
BLACK
6
CONTINUOUS
10
39.3347
20
22.1119
11
39.374
21
22.0789
0
LINE
8
BLACK
6
CONTINUOUS
10
39.374
20
22.0789
11
39.3829
21
22.0284
0
LINE
8
BLACK
6
CONTINUOUS
10
39.3829
20
22.0284
11
39.3573
21
21.984
0
LINE
8
BLACK
6
CONTINUOUS
10
39.3573
20
21.984
11
39.309
21
21.9664
0
LINE
8
BLACK
6
CONTINUOUS
10
39.309
20
21.9664
11
39.0507
21
21.9664
0
LINE
8
BLACK
6
CONTINUOUS
10
39.0507
20
21.9664
11
39.0507
21
21.5176
0
LINE
8
BLACK
6
CONTINUOUS
10
39.0507
20
21.5176
11
39.0462
21
21.492
0
LINE
8
BLACK
6
CONTINUOUS
10
39.0462
20
21.492
11
39.0132
21
21.4527
0
LINE
8
BLACK
6
CONTINUOUS
10
39.0132
20
21.4527
11
38.9627
21
21.4438
0
LINE
8
BLACK
6
CONTINUOUS
10
38.9627
20
21.4438
11
38.9183
21
21.4694
0
LINE
8
BLACK
6
CONTINUOUS
10
38.9183
20
21.4694
11
38.9007
21
21.5176
0
LINE
8
BLACK
6
CONTINUOUS
10
38.9007
20
21.5176
11
38.9007
21
22.5176
0
LINE
8
BLACK
6
CONTINUOUS
10
38.9007
20
22.5176
11
38.9024
21
22.5274
0
LINE
8
BLACK
6
CONTINUOUS
10
38.9024
20
22.5274
11
38.9019
21
22.5306
0
LINE
8
BLACK
6
CONTINUOUS
10
38.9019
20
22.5306
11
38.9035
21
22.5335
0
LINE
8
BLACK
6
CONTINUOUS
10
38.9035
20
22.5335
11
38.9052
21
22.5433
0
LINE
8
BLACK
6
CONTINUOUS
10
38.9052
20
22.5433
11
38.9178
21
22.5582
0
LINE
8
BLACK
6
CONTINUOUS
10
38.9178
20
22.5582
11
38.9275
21
22.5751
0
LINE
8
BLACK
6
CONTINUOUS
10
38.9275
20
22.5751
11
38.9339
21
22.5774
0
LINE
8
BLACK
6
CONTINUOUS
10
38.9339
20
22.5774
11
38.9382
21
22.5826
0
LINE
8
BLACK
6
CONTINUOUS
10
38.9382
20
22.5826
11
38.9574
21
22.586
0
LINE
8
BLACK
6
CONTINUOUS
10
38.9574
20
22.586
11
38.9757
21
22.5926
0
LINE
8
BLACK
6
CONTINUOUS
10
38.9757
20
22.5926
11
39.4519
21
22.5926
0
LINE
8
BLACK
6
CONTINUOUS
10
39.4519
20
22.5926
11
39.4776
21
22.5881
0
LINE
8
BLACK
6
CONTINUOUS
10
75.2035
20
27.8839
11
75.4629
21
27.8144
0
LINE
8
BLACK
6
CONTINUOUS
10
75.4629
20
27.8144
11
75.7103
21
27.71
0
LINE
8
BLACK
6
CONTINUOUS
10
75.7103
20
27.71
11
75.941
21
27.5725
0
LINE
8
BLACK
6
CONTINUOUS
10
75.941
20
27.5725
11
76.1507
21
27.4047
0
LINE
8
BLACK
6
CONTINUOUS
10
76.1507
20
27.4047
11
76.3353
21
27.2096
0
LINE
8
BLACK
6
CONTINUOUS
10
76.3353
20
27.2096
11
76.4913
21
26.9911
0
LINE
8
BLACK
6
CONTINUOUS
10
76.4913
20
26.9911
11
76.6158
21
26.7531
0
LINE
8
BLACK
6
CONTINUOUS
10
76.6158
20
26.7531
11
76.7065
21
26.5003
0
LINE
8
BLACK
6
CONTINUOUS
10
76.7065
20
26.5003
11
76.7616
21
26.2375
0
LINE
8
BLACK
6
CONTINUOUS
10
76.7616
20
26.2375
11
76.78
21
25.9695
0
LINE
8
BLACK
6
CONTINUOUS
10
76.78
20
25.9695
11
76.7614
21
25.7016
0
LINE
8
BLACK
6
CONTINUOUS
10
76.7614
20
25.7016
11
76.7062
21
25.4388
0
LINE
8
BLACK
6
CONTINUOUS
10
76.7062
20
25.4388
11
76.6155
21
25.186
0
LINE
8
BLACK
6
CONTINUOUS
10
76.6155
20
25.186
11
76.4908
21
24.9482
0
LINE
8
BLACK
6
CONTINUOUS
10
76.4908
20
24.9482
11
76.3347
21
24.7297
0
LINE
8
BLACK
6
CONTINUOUS
10
76.3347
20
24.7297
11
76.15
21
24.5347
0
LINE
8
BLACK
6
CONTINUOUS
10
76.15
20
24.5347
11
75.9403
21
24.3669
0
LINE
8
BLACK
6
CONTINUOUS
10
75.9403
20
24.3669
11
75.7095
21
24.2296
0
LINE
8
BLACK
6
CONTINUOUS
10
75.7095
20
24.2296
11
75.462
21
24.1253
0
LINE
8
BLACK
6
CONTINUOUS
10
75.462
20
24.1253
11
75.2026
21
24.0559
0
LINE
8
BLACK
6
CONTINUOUS
10
75.2026
20
24.0559
11
74.936
21
24.0229
0
LINE
8
BLACK
6
CONTINUOUS
10
74.936
20
24.0229
11
74.6675
21
24.0268
0
LINE
8
BLACK
6
CONTINUOUS
10
74.6675
20
24.0268
11
74.402
21
24.0675
0
LINE
8
BLACK
6
CONTINUOUS
10
74.402
20
24.0675
11
74.1447
21
24.1444
0
LINE
8
BLACK
6
CONTINUOUS
10
74.1447
20
24.1444
11
73.9004
21
24.2559
0
LINE
8
BLACK
6
CONTINUOUS
10
73.9004
20
24.2559
11
73.6737
21
24.3998
0
LINE
8
BLACK
6
CONTINUOUS
10
73.6737
20
24.3998
11
73.4689
21
24.5736
0
LINE
8
BLACK
6
CONTINUOUS
10
73.4689
20
24.5736
11
73.2949
21
24.7684
0
LINE
8
BLACK
6
CONTINUOUS
10
73.2949
20
24.7684
11
73.2946
21
24.7685
0
LINE
8
BLACK
6
CONTINUOUS
10
73.2946
20
24.7685
11
73.2945
21
24.7687
0
LINE
8
BLACK
6
CONTINUOUS
10
73.2945
20
24.7687
11
73.29
21
24.7739
0
LINE
8
BLACK
6
CONTINUOUS
10
73.29
20
24.7739
11
73.2852
21
24.7914
0
LINE
8
BLACK
6
CONTINUOUS
10
73.2852
20
24.7914
11
73.28
21
24.8038
0
LINE
8
BLACK
6
CONTINUOUS
10
73.28
20
24.8038
11
73.28
21
24.8102
0
LINE
8
BLACK
6
CONTINUOUS
10
73.28
20
24.8102
11
73.2798
21
24.8108
0
LINE
8
BLACK
6
CONTINUOUS
10
73.2798
20
24.8108
11
73.28
21
24.811
0
LINE
8
BLACK
6
CONTINUOUS
10
73.28
20
24.811
11
73.28
21
27.1362
0
LINE
8
BLACK
6
CONTINUOUS
10
73.28
20
27.1362
11
73.2862
21
27.1512
0
LINE
8
BLACK
6
CONTINUOUS
10
73.2862
20
27.1512
11
73.2905
21
27.1669
0
LINE
8
BLACK
6
CONTINUOUS
10
73.2905
20
27.1669
11
73.2905
21
27.1669
0
LINE
8
BLACK
6
CONTINUOUS
10
73.2905
20
27.1669
11
73.2946
21
27.1714
0
LINE
8
BLACK
6
CONTINUOUS
10
73.2946
20
27.1714
11
73.2946
21
27.1715
0
LINE
8
BLACK
6
CONTINUOUS
10
73.2946
20
27.1715
11
73.2947
21
27.1716
0
LINE
8
BLACK
6
CONTINUOUS
10
73.2947
20
27.1716
11
73.4696
21
27.367
0
LINE
8
BLACK
6
CONTINUOUS
10
73.4696
20
27.367
11
73.6744
21
27.5407
0
LINE
8
BLACK
6
CONTINUOUS
10
73.6744
20
27.5407
11
73.9012
21
27.6846
0
LINE
8
BLACK
6
CONTINUOUS
10
73.9012
20
27.6846
11
74.1456
21
27.7959
0
LINE
8
BLACK
6
CONTINUOUS
10
74.1456
20
27.7959
11
74.403
21
27.8727
0
LINE
8
BLACK
6
CONTINUOUS
10
74.403
20
27.8727
11
74.6684
21
27.9133
0
LINE
8
BLACK
6
CONTINUOUS
10
74.6684
20
27.9133
11
74.937
21
27.9171
0
LINE
8
BLACK
6
CONTINUOUS
10
74.937
20
27.9171
11
75.2035
21
27.8839
0
LINE
8
BLACK
6
CONTINUOUS
10
74.4595
20
27.7873
11
74.2065
21
27.7168
0
LINE
8
BLACK
6
CONTINUOUS
10
74.2065
20
27.7168
11
73.9659
21
27.6111
0
LINE
8
BLACK
6
CONTINUOUS
10
73.9659
20
27.6111
11
73.7427
21
27.4726
0
LINE
8
BLACK
6
CONTINUOUS
10
73.7427
20
27.4726
11
73.5413
21
27.3039
0
LINE
8
BLACK
6
CONTINUOUS
10
73.5413
20
27.3039
11
73.38
21
27.1243
0
LINE
8
BLACK
6
CONTINUOUS
10
73.38
20
27.1243
11
73.38
21
26.5072
0
LINE
8
BLACK
6
CONTINUOUS
10
73.38
20
26.5072
11
73.4489
21
26.6737
0
LINE
8
BLACK
6
CONTINUOUS
10
73.4489
20
26.6737
11
73.576
21
26.8811
0
LINE
8
BLACK
6
CONTINUOUS
10
73.576
20
26.8811
11
73.734
21
27.066
0
LINE
8
BLACK
6
CONTINUOUS
10
73.734
20
27.066
11
73.9189
21
27.224
0
LINE
8
BLACK
6
CONTINUOUS
10
73.9189
20
27.224
11
74.1263
21
27.3511
0
LINE
8
BLACK
6
CONTINUOUS
10
74.1263
20
27.3511
11
74.351
21
27.4441
0
LINE
8
BLACK
6
CONTINUOUS
10
74.351
20
27.4441
11
74.5875
21
27.5009
0
LINE
8
BLACK
6
CONTINUOUS
10
74.5875
20
27.5009
11
74.83
21
27.52
0
LINE
8
BLACK
6
CONTINUOUS
10
74.83
20
27.52
11
75.0725
21
27.5009
0
LINE
8
BLACK
6
CONTINUOUS
10
75.0725
20
27.5009
11
75.309
21
27.4441
0
LINE
8
BLACK
6
CONTINUOUS
10
75.309
20
27.4441
11
75.5337
21
27.3511
0
LINE
8
BLACK
6
CONTINUOUS
10
75.5337
20
27.3511
11
75.7411
21
27.224
0
LINE
8
BLACK
6
CONTINUOUS
10
75.7411
20
27.224
11
75.926
21
27.066
0
LINE
8
BLACK
6
CONTINUOUS
10
75.926
20
27.066
11
76.084
21
26.8811
0
LINE
8
BLACK
6
CONTINUOUS
10
76.084
20
26.8811
11
76.2111
21
26.6737
0
LINE
8
BLACK
6
CONTINUOUS
10
76.2111
20
26.6737
11
76.3041
21
26.449
0
LINE
8
BLACK
6
CONTINUOUS
10
76.3041
20
26.449
11
76.3609
21
26.2125
0
LINE
8
BLACK
6
CONTINUOUS
10
76.3609
20
26.2125
11
76.38
21
25.97
0
LINE
8
BLACK
6
CONTINUOUS
10
76.38
20
25.97
11
76.3609
21
25.7275
0
LINE
8
BLACK
6
CONTINUOUS
10
76.3609
20
25.7275
11
76.3041
21
25.491
0
LINE
8
BLACK
6
CONTINUOUS
10
76.3041
20
25.491
11
76.2111
21
25.2663
0
LINE
8
BLACK
6
CONTINUOUS
10
76.2111
20
25.2663
11
76.084
21
25.0589
0
LINE
8
BLACK
6
CONTINUOUS
10
76.084
20
25.0589
11
75.926
21
24.874
0
LINE
8
BLACK
6
CONTINUOUS
10
75.926
20
24.874
11
75.7411
21
24.716
0
LINE
8
BLACK
6
CONTINUOUS
10
75.7411
20
24.716
11
75.5337
21
24.5889
0
LINE
8
BLACK
6
CONTINUOUS
10
75.5337
20
24.5889
11
75.309
21
24.4959
0
LINE
8
BLACK
6
CONTINUOUS
10
75.309
20
24.4959
11
75.0725
21
24.4391
0
LINE
8
BLACK
6
CONTINUOUS
10
75.0725
20
24.4391
11
74.83
21
24.42
0
LINE
8
BLACK
6
CONTINUOUS
10
74.83
20
24.42
11
74.5875
21
24.4391
0
LINE
8
BLACK
6
CONTINUOUS
10
74.5875
20
24.4391
11
74.351
21
24.4959
0
LINE
8
BLACK
6
CONTINUOUS
10
74.351
20
24.4959
11
74.1263
21
24.5889
0
LINE
8
BLACK
6
CONTINUOUS
10
74.1263
20
24.5889
11
73.9189
21
24.716
0
LINE
8
BLACK
6
CONTINUOUS
10
73.9189
20
24.716
11
73.734
21
24.874
0
LINE
8
BLACK
6
CONTINUOUS
10
73.734
20
24.874
11
73.576
21
25.0589
0
LINE
8
BLACK
6
CONTINUOUS
10
73.576
20
25.0589
11
73.4489
21
25.2663
0
LINE
8
BLACK
6
CONTINUOUS
10
73.4489
20
25.2663
11
73.38
21
25.4327
0
LINE
8
BLACK
6
CONTINUOUS
10
73.38
20
25.4327
11
73.38
21
24.8158
0
LINE
8
BLACK
6
CONTINUOUS
10
73.38
20
24.8158
11
73.5407
21
24.6367
0
LINE
8
BLACK
6
CONTINUOUS
10
73.5407
20
24.6367
11
73.742
21
24.4679
0
LINE
8
BLACK
6
CONTINUOUS
10
73.742
20
24.4679
11
73.9651
21
24.3293
0
LINE
8
BLACK
6
CONTINUOUS
10
73.9651
20
24.3293
11
74.2056
21
24.2235
0
LINE
8
BLACK
6
CONTINUOUS
10
74.2056
20
24.2235
11
74.4587
21
24.1528
0
LINE
8
BLACK
6
CONTINUOUS
10
74.4587
20
24.1528
11
74.7191
21
24.1186
0
LINE
8
BLACK
6
CONTINUOUS
10
74.7191
20
24.1186
11
74.9819
21
24.1215
0
LINE
8
BLACK
6
CONTINUOUS
10
74.9819
20
24.1215
11
75.2415
21
24.1615
0
LINE
8
BLACK
6
CONTINUOUS
10
75.2415
20
24.1615
11
75.4929
21
24.2378
0
LINE
8
BLACK
6
CONTINUOUS
10
75.4929
20
24.2378
11
75.731
21
24.3488
0
LINE
8
BLACK
6
CONTINUOUS
10
75.731
20
24.3488
11
75.951
21
24.4924
0
LINE
8
BLACK
6
CONTINUOUS
10
75.951
20
24.4924
11
76.1486
21
24.6656
0
LINE
8
BLACK
6
CONTINUOUS
10
76.1486
20
24.6656
11
76.3197
21
24.865
0
LINE
8
BLACK
6
CONTINUOUS
10
76.3197
20
24.865
11
76.4608
21
25.0866
0
LINE
8
BLACK
6
CONTINUOUS
10
76.4608
20
25.0866
11
76.5693
21
25.3259
0
LINE
8
BLACK
6
CONTINUOUS
10
76.5693
20
25.3259
11
76.6429
21
25.5781
0
LINE
8
BLACK
6
CONTINUOUS
10
76.6429
20
25.5781
11
76.68
21
25.8382
0
LINE
8
BLACK
6
CONTINUOUS
10
76.68
20
25.8382
11
76.6801
21
26.1009
0
LINE
8
BLACK
6
CONTINUOUS
10
76.6801
20
26.1009
11
76.643
21
26.361
0
LINE
8
BLACK
6
CONTINUOUS
10
76.643
20
26.361
11
76.5696
21
26.6133
0
LINE
8
BLACK
6
CONTINUOUS
10
76.5696
20
26.6133
11
76.4613
21
26.8526
0
LINE
8
BLACK
6
CONTINUOUS
10
76.4613
20
26.8526
11
76.3202
21
27.0743
0
LINE
8
BLACK
6
CONTINUOUS
10
76.3202
20
27.0743
11
76.1492
21
27.2737
0
LINE
8
BLACK
6
CONTINUOUS
10
76.1492
20
27.2737
11
75.9518
21
27.447
0
LINE
8
BLACK
6
CONTINUOUS
10
75.9518
20
27.447
11
75.7318
21
27.5907
0
LINE
8
BLACK
6
CONTINUOUS
10
75.7318
20
27.5907
11
75.4937
21
27.7019
0
LINE
8
BLACK
6
CONTINUOUS
10
75.4937
20
27.7019
11
75.2424
21
27.7783
0
LINE
8
BLACK
6
CONTINUOUS
10
75.2424
20
27.7783
11
74.9827
21
27.8184
0
LINE
8
BLACK
6
CONTINUOUS
10
74.9827
20
27.8184
11
74.72
21
27.8215
0
LINE
8
BLACK
6
CONTINUOUS
10
74.72
20
27.8215
11
74.4595
21
27.7873
0
LINE
8
BLACK
6
CONTINUOUS
10
74.4928
20
27.3854
11
74.2662
21
27.3113
0
LINE
8
BLACK
6
CONTINUOUS
10
74.2662
20
27.3113
11
74.0547
21
27.2012
0
LINE
8
BLACK
6
CONTINUOUS
10
74.0547
20
27.2012
11
73.864
21
27.058
0
LINE
8
BLACK
6
CONTINUOUS
10
73.864
20
27.058
11
73.6993
21
26.8856
0
LINE
8
BLACK
6
CONTINUOUS
10
73.6993
20
26.8856
11
73.5649
21
26.6887
0
LINE
8
BLACK
6
CONTINUOUS
10
73.5649
20
26.6887
11
73.4645
21
26.4724
0
LINE
8
BLACK
6
CONTINUOUS
10
73.4645
20
26.4724
11
73.4008
21
26.2426
0
LINE
8
BLACK
6
CONTINUOUS
10
73.4008
20
26.2426
11
73.38
21
26.048
0
LINE
8
BLACK
6
CONTINUOUS
10
73.38
20
26.048
11
73.38
21
25.9269
0
LINE
8
BLACK
6
CONTINUOUS
10
73.38
20
25.9269
11
73.3892
21
25.7675
0
LINE
8
BLACK
6
CONTINUOUS
10
73.3892
20
25.7675
11
73.4416
21
25.5349
0
LINE
8
BLACK
6
CONTINUOUS
10
73.4416
20
25.5349
11
73.5313
21
25.314
0
LINE
8
BLACK
6
CONTINUOUS
10
73.5313
20
25.314
11
73.6559
21
25.1107
0
LINE
8
BLACK
6
CONTINUOUS
10
73.6559
20
25.1107
11
73.812
21
24.9305
0
LINE
8
BLACK
6
CONTINUOUS
10
73.812
20
24.9305
11
73.9955
21
24.7782
0
LINE
8
BLACK
6
CONTINUOUS
10
73.9955
20
24.7782
11
74.2013
21
24.6579
0
LINE
8
BLACK
6
CONTINUOUS
10
74.2013
20
24.6579
11
74.4241
21
24.5728
0
LINE
8
BLACK
6
CONTINUOUS
10
74.4241
20
24.5728
11
74.6577
21
24.5253
0
LINE
8
BLACK
6
CONTINUOUS
10
74.6577
20
24.5253
11
74.896
21
24.5165
0
LINE
8
BLACK
6
CONTINUOUS
10
74.896
20
24.5165
11
75.1325
21
24.5468
0
LINE
8
BLACK
6
CONTINUOUS
10
75.1325
20
24.5468
11
75.3609
21
24.6153
0
LINE
8
BLACK
6
CONTINUOUS
10
75.3609
20
24.6153
11
75.575
21
24.7202
0
LINE
8
BLACK
6
CONTINUOUS
10
75.575
20
24.7202
11
75.7691
21
24.8587
0
LINE
8
BLACK
6
CONTINUOUS
10
75.7691
20
24.8587
11
75.938
21
25.027
0
LINE
8
BLACK
6
CONTINUOUS
10
75.938
20
25.027
11
76.0772
21
25.2206
0
LINE
8
BLACK
6
CONTINUOUS
10
76.0772
20
25.2206
11
76.1828
21
25.4344
0
LINE
8
BLACK
6
CONTINUOUS
10
76.1828
20
25.4344
11
76.2521
21
25.6625
0
LINE
8
BLACK
6
CONTINUOUS
10
76.2521
20
25.6625
11
76.2832
21
25.8989
0
LINE
8
BLACK
6
CONTINUOUS
10
76.2832
20
25.8989
11
76.285
21
25.97
0
LINE
8
BLACK
6
CONTINUOUS
10
76.285
20
25.97
11
76.2654
21
26.2076
0
LINE
8
BLACK
6
CONTINUOUS
10
76.2654
20
26.2076
11
76.2073
21
26.4389
0
LINE
8
BLACK
6
CONTINUOUS
10
76.2073
20
26.4389
11
76.1123
21
26.6575
0
LINE
8
BLACK
6
CONTINUOUS
10
76.1123
20
26.6575
11
75.9828
21
26.8577
0
LINE
8
BLACK
6
CONTINUOUS
10
75.9828
20
26.8577
11
75.8223
21
27.0341
0
LINE
8
BLACK
6
CONTINUOUS
10
75.8223
20
27.0341
11
75.6352
21
27.1819
0
LINE
8
BLACK
6
CONTINUOUS
10
75.6352
20
27.1819
11
75.4264
21
27.2971
0
LINE
8
BLACK
6
CONTINUOUS
10
75.4264
20
27.2971
11
75.2017
21
27.3767
0
LINE
8
BLACK
6
CONTINUOUS
10
75.2017
20
27.3767
11
74.9669
21
27.4185
0
LINE
8
BLACK
6
CONTINUOUS
10
74.9669
20
27.4185
11
74.7285
21
27.4214
0
LINE
8
BLACK
6
CONTINUOUS
10
74.7285
20
27.4214
11
74.4928
21
27.3854
0
LINE
8
BLACK
6
CONTINUOUS
10
45.9846
20
25.3396
11
45.97
21
25.375
0
LINE
8
BLACK
6
CONTINUOUS
10
45.97
20
25.375
11
45.97
21
29.875
0
LINE
8
BLACK
6
CONTINUOUS
10
45.97
20
29.875
11
45.9846
21
29.9104
0
LINE
8
BLACK
6
CONTINUOUS
10
45.9846
20
29.9104
11
46.02
21
29.925
0
LINE
8
BLACK
6
CONTINUOUS
10
46.02
20
29.925
11
52.73
21
29.925
0
LINE
8
BLACK
6
CONTINUOUS
10
52.73
20
29.925
11
52.7654
21
29.9104
0
LINE
8
BLACK
6
CONTINUOUS
10
52.7654
20
29.9104
11
52.78
21
29.875
0
LINE
8
BLACK
6
CONTINUOUS
10
52.78
20
29.875
11
52.78
21
25.375
0
LINE
8
BLACK
6
CONTINUOUS
10
52.78
20
25.375
11
52.7654
21
25.3396
0
LINE
8
BLACK
6
CONTINUOUS
10
52.7654
20
25.3396
11
52.73
21
25.325
0
LINE
8
BLACK
6
CONTINUOUS
10
52.73
20
25.325
11
46.02
21
25.325
0
LINE
8
BLACK
6
CONTINUOUS
10
46.02
20
25.325
11
45.9846
21
25.3396
0
LINE
8
BLACK
6
CONTINUOUS
10
46.07
20
29.825
11
46.07
21
25.425
0
LINE
8
BLACK
6
CONTINUOUS
10
46.07
20
25.425
11
52.68
21
25.425
0
LINE
8
BLACK
6
CONTINUOUS
10
52.68
20
25.425
11
52.68
21
29.825
0
LINE
8
BLACK
6
CONTINUOUS
10
52.68
20
29.825
11
46.07
21
29.825
0
LINE
8
BLACK
6
CONTINUOUS
10
46.3813
20
28.9873
11
46.4795
21
29.1575
0
LINE
8
BLACK
6
CONTINUOUS
10
46.4795
20
29.1575
11
46.611
21
29.3036
0
LINE
8
BLACK
6
CONTINUOUS
10
46.611
20
29.3036
11
46.77
21
29.4191
0
LINE
8
BLACK
6
CONTINUOUS
10
46.77
20
29.4191
11
46.9495
21
29.499
0
LINE
8
BLACK
6
CONTINUOUS
10
46.9495
20
29.499
11
47.1417
21
29.5399
0
LINE
8
BLACK
6
CONTINUOUS
10
47.1417
20
29.5399
11
47.3383
21
29.5399
0
LINE
8
BLACK
6
CONTINUOUS
10
47.3383
20
29.5399
11
47.5305
21
29.499
0
LINE
8
BLACK
6
CONTINUOUS
10
47.5305
20
29.499
11
47.71
21
29.4191
0
LINE
8
BLACK
6
CONTINUOUS
10
47.71
20
29.4191
11
47.869
21
29.3036
0
LINE
8
BLACK
6
CONTINUOUS
10
47.869
20
29.3036
11
48.0005
21
29.1575
0
LINE
8
BLACK
6
CONTINUOUS
10
48.0005
20
29.1575
11
48.0987
21
28.9873
0
LINE
8
BLACK
6
CONTINUOUS
10
48.0987
20
28.9873
11
48.1595
21
28.8004
0
LINE
8
BLACK
6
CONTINUOUS
10
48.1595
20
28.8004
11
48.18
21
28.605
0
LINE
8
BLACK
6
CONTINUOUS
10
48.18
20
28.605
11
48.1595
21
28.4096
0
LINE
8
BLACK
6
CONTINUOUS
10
48.1595
20
28.4096
11
48.0987
21
28.2227
0
LINE
8
BLACK
6
CONTINUOUS
10
48.0987
20
28.2227
11
48.0005
21
28.0525
0
LINE
8
BLACK
6
CONTINUOUS
10
48.0005
20
28.0525
11
47.869
21
27.9064
0
LINE
8
BLACK
6
CONTINUOUS
10
47.869
20
27.9064
11
47.71
21
27.7909
0
LINE
8
BLACK
6
CONTINUOUS
10
47.71
20
27.7909
11
47.5305
21
27.711
0
LINE
8
BLACK
6
CONTINUOUS
10
47.5305
20
27.711
11
47.3383
21
27.6701
0
LINE
8
BLACK
6
CONTINUOUS
10
47.3383
20
27.6701
11
47.1417
21
27.6701
0
LINE
8
BLACK
6
CONTINUOUS
10
47.1417
20
27.6701
11
46.9495
21
27.711
0
LINE
8
BLACK
6
CONTINUOUS
10
46.9495
20
27.711
11
46.77
21
27.7909
0
LINE
8
BLACK
6
CONTINUOUS
10
46.77
20
27.7909
11
46.611
21
27.9064
0
LINE
8
BLACK
6
CONTINUOUS
10
46.611
20
27.9064
11
46.4795
21
28.0525
0
LINE
8
BLACK
6
CONTINUOUS
10
46.4795
20
28.0525
11
46.3813
21
28.2227
0
LINE
8
BLACK
6
CONTINUOUS
10
46.3813
20
28.2227
11
46.3205
21
28.4096
0
LINE
8
BLACK
6
CONTINUOUS
10
46.3205
20
28.4096
11
46.3
21
28.605
0
LINE
8
BLACK
6
CONTINUOUS
10
46.3
20
28.605
11
46.3205
21
28.8004
0
LINE
8
BLACK
6
CONTINUOUS
10
46.3205
20
28.8004
11
46.3813
21
28.9873
0
LINE
8
BLACK
6
CONTINUOUS
10
46.4684
20
28.2615
11
46.5567
21
28.1085
0
LINE
8
BLACK
6
CONTINUOUS
10
46.5567
20
28.1085
11
46.6748
21
27.9773
0
LINE
8
BLACK
6
CONTINUOUS
10
46.6748
20
27.9773
11
46.8177
21
27.8735
0
LINE
8
BLACK
6
CONTINUOUS
10
46.8177
20
27.8735
11
46.979
21
27.8017
0
LINE
8
BLACK
6
CONTINUOUS
10
46.979
20
27.8017
11
47.1517
21
27.765
0
LINE
8
BLACK
6
CONTINUOUS
10
47.1517
20
27.765
11
47.189
21
27.765
0
LINE
8
BLACK
6
CONTINUOUS
10
47.189
20
27.765
11
47.19
21
29.445
0
LINE
8
BLACK
6
CONTINUOUS
10
47.19
20
29.445
11
47.1517
21
29.445
0
LINE
8
BLACK
6
CONTINUOUS
10
47.1517
20
29.445
11
46.979
21
29.4083
0
LINE
8
BLACK
6
CONTINUOUS
10
46.979
20
29.4083
11
46.8177
21
29.3365
0
LINE
8
BLACK
6
CONTINUOUS
10
46.8177
20
29.3365
11
46.6748
21
29.2327
0
LINE
8
BLACK
6
CONTINUOUS
10
46.6748
20
29.2327
11
46.5567
21
29.1015
0
LINE
8
BLACK
6
CONTINUOUS
10
46.5567
20
29.1015
11
46.4684
21
28.9485
0
LINE
8
BLACK
6
CONTINUOUS
10
46.4684
20
28.9485
11
46.4138
21
28.7806
0
LINE
8
BLACK
6
CONTINUOUS
10
46.4138
20
28.7806
11
46.3954
21
28.605
0
LINE
8
BLACK
6
CONTINUOUS
10
46.3954
20
28.605
11
46.4138
21
28.4294
0
LINE
8
BLACK
6
CONTINUOUS
10
46.4138
20
28.4294
11
46.4684
21
28.2615
0
LINE
8
BLACK
6
CONTINUOUS
10
47.29
20
29.445
11
47.289
21
27.765
0
LINE
8
BLACK
6
CONTINUOUS
10
47.289
20
27.765
11
47.3283
21
27.765
0
LINE
8
BLACK
6
CONTINUOUS
10
47.3283
20
27.765
11
47.501
21
27.8017
0
LINE
8
BLACK
6
CONTINUOUS
10
47.501
20
27.8017
11
47.6623
21
27.8735
0
LINE
8
BLACK
6
CONTINUOUS
10
47.6623
20
27.8735
11
47.8052
21
27.9773
0
LINE
8
BLACK
6
CONTINUOUS
10
47.8052
20
27.9773
11
47.9233
21
28.1085
0
LINE
8
BLACK
6
CONTINUOUS
10
47.9233
20
28.1085
11
48.0116
21
28.2615
0
LINE
8
BLACK
6
CONTINUOUS
10
48.0116
20
28.2615
11
48.0662
21
28.4294
0
LINE
8
BLACK
6
CONTINUOUS
10
48.0662
20
28.4294
11
48.0846
21
28.605
0
LINE
8
BLACK
6
CONTINUOUS
10
48.0846
20
28.605
11
48.0662
21
28.7806
0
LINE
8
BLACK
6
CONTINUOUS
10
48.0662
20
28.7806
11
48.0116
21
28.9485
0
LINE
8
BLACK
6
CONTINUOUS
10
48.0116
20
28.9485
11
47.9233
21
29.1015
0
LINE
8
BLACK
6
CONTINUOUS
10
47.9233
20
29.1015
11
47.8052
21
29.2327
0
LINE
8
BLACK
6
CONTINUOUS
10
47.8052
20
29.2327
11
47.6623
21
29.3365
0
LINE
8
BLACK
6
CONTINUOUS
10
47.6623
20
29.3365
11
47.501
21
29.4083
0
LINE
8
BLACK
6
CONTINUOUS
10
47.501
20
29.4083
11
47.3283
21
29.445
0
LINE
8
BLACK
6
CONTINUOUS
10
47.3283
20
29.445
11
47.29
21
29.445
0
LINE
8
BLACK
6
CONTINUOUS
10
75.2035
20
32.4339
11
75.4629
21
32.3644
0
LINE
8
BLACK
6
CONTINUOUS
10
75.4629
20
32.3644
11
75.7103
21
32.26
0
LINE
8
BLACK
6
CONTINUOUS
10
75.7103
20
32.26
11
75.941
21
32.1225
0
LINE
8
BLACK
6
CONTINUOUS
10
75.941
20
32.1225
11
76.1507
21
31.9547
0
LINE
8
BLACK
6
CONTINUOUS
10
76.1507
20
31.9547
11
76.3353
21
31.7596
0
LINE
8
BLACK
6
CONTINUOUS
10
76.3353
20
31.7596
11
76.4913
21
31.5411
0
LINE
8
BLACK
6
CONTINUOUS
10
76.4913
20
31.5411
11
76.6158
21
31.3031
0
LINE
8
BLACK
6
CONTINUOUS
10
76.6158
20
31.3031
11
76.7065
21
31.0503
0
LINE
8
BLACK
6
CONTINUOUS
10
76.7065
20
31.0503
11
76.7616
21
30.7875
0
LINE
8
BLACK
6
CONTINUOUS
10
76.7616
20
30.7875
11
76.78
21
30.5195
0
LINE
8
BLACK
6
CONTINUOUS
10
76.78
20
30.5195
11
76.7614
21
30.2516
0
LINE
8
BLACK
6
CONTINUOUS
10
76.7614
20
30.2516
11
76.7062
21
29.9888
0
LINE
8
BLACK
6
CONTINUOUS
10
76.7062
20
29.9888
11
76.6155
21
29.736
0
LINE
8
BLACK
6
CONTINUOUS
10
76.6155
20
29.736
11
76.4908
21
29.4982
0
LINE
8
BLACK
6
CONTINUOUS
10
76.4908
20
29.4982
11
76.3347
21
29.2797
0
LINE
8
BLACK
6
CONTINUOUS
10
76.3347
20
29.2797
11
76.15
21
29.0847
0
LINE
8
BLACK
6
CONTINUOUS
10
76.15
20
29.0847
11
75.9403
21
28.9169
0
LINE
8
BLACK
6
CONTINUOUS
10
75.9403
20
28.9169
11
75.7095
21
28.7796
0
LINE
8
BLACK
6
CONTINUOUS
10
75.7095
20
28.7796
11
75.462
21
28.6753
0
LINE
8
BLACK
6
CONTINUOUS
10
75.462
20
28.6753
11
75.2026
21
28.6059
0
LINE
8
BLACK
6
CONTINUOUS
10
75.2026
20
28.6059
11
74.936
21
28.5729
0
LINE
8
BLACK
6
CONTINUOUS
10
74.936
20
28.5729
11
74.6675
21
28.5768
0
LINE
8
BLACK
6
CONTINUOUS
10
74.6675
20
28.5768
11
74.402
21
28.6175
0
LINE
8
BLACK
6
CONTINUOUS
10
74.402
20
28.6175
11
74.1447
21
28.6944
0
LINE
8
BLACK
6
CONTINUOUS
10
74.1447
20
28.6944
11
73.9004
21
28.8059
0
LINE
8
BLACK
6
CONTINUOUS
10
73.9004
20
28.8059
11
73.6737
21
28.9498
0
LINE
8
BLACK
6
CONTINUOUS
10
73.6737
20
28.9498
11
73.4689
21
29.1236
0
LINE
8
BLACK
6
CONTINUOUS
10
73.4689
20
29.1236
11
73.2949
21
29.3184
0
LINE
8
BLACK
6
CONTINUOUS
10
73.2949
20
29.3184
11
73.2946
21
29.3185
0
LINE
8
BLACK
6
CONTINUOUS
10
73.2946
20
29.3185
11
73.2945
21
29.3187
0
LINE
8
BLACK
6
CONTINUOUS
10
73.2945
20
29.3187
11
73.29
21
29.3239
0
LINE
8
BLACK
6
CONTINUOUS
10
73.29
20
29.3239
11
73.2852
21
29.3414
0
LINE
8
BLACK
6
CONTINUOUS
10
73.2852
20
29.3414
11
73.28
21
29.3538
0
LINE
8
BLACK
6
CONTINUOUS
10
73.28
20
29.3538
11
73.28
21
29.3602
0
LINE
8
BLACK
6
CONTINUOUS
10
73.28
20
29.3602
11
73.2798
21
29.3608
0
LINE
8
BLACK
6
CONTINUOUS
10
73.2798
20
29.3608
11
73.28
21
29.361
0
LINE
8
BLACK
6
CONTINUOUS
10
73.28
20
29.361
11
73.28
21
31.6862
0
LINE
8
BLACK
6
CONTINUOUS
10
73.28
20
31.6862
11
73.2862
21
31.7012
0
LINE
8
BLACK
6
CONTINUOUS
10
73.2862
20
31.7012
11
73.2905
21
31.7169
0
LINE
8
BLACK
6
CONTINUOUS
10
73.2905
20
31.7169
11
73.2905
21
31.7169
0
LINE
8
BLACK
6
CONTINUOUS
10
73.2905
20
31.7169
11
73.2946
21
31.7214
0
LINE
8
BLACK
6
CONTINUOUS
10
73.2946
20
31.7214
11
73.2946
21
31.7215
0
LINE
8
BLACK
6
CONTINUOUS
10
73.2946
20
31.7215
11
73.2947
21
31.7216
0
LINE
8
BLACK
6
CONTINUOUS
10
73.2947
20
31.7216
11
73.4696
21
31.917
0
LINE
8
BLACK
6
CONTINUOUS
10
73.4696
20
31.917
11
73.6744
21
32.0907
0
LINE
8
BLACK
6
CONTINUOUS
10
73.6744
20
32.0907
11
73.9012
21
32.2346
0
LINE
8
BLACK
6
CONTINUOUS
10
73.9012
20
32.2346
11
74.1456
21
32.3459
0
LINE
8
BLACK
6
CONTINUOUS
10
74.1456
20
32.3459
11
74.403
21
32.4227
0
LINE
8
BLACK
6
CONTINUOUS
10
74.403
20
32.4227
11
74.6684
21
32.4633
0
LINE
8
BLACK
6
CONTINUOUS
10
74.6684
20
32.4633
11
74.937
21
32.4671
0
LINE
8
BLACK
6
CONTINUOUS
10
74.937
20
32.4671
11
75.2035
21
32.4339
0
LINE
8
BLACK
6
CONTINUOUS
10
74.4595
20
32.3373
11
74.2065
21
32.2668
0
LINE
8
BLACK
6
CONTINUOUS
10
74.2065
20
32.2668
11
73.9659
21
32.1611
0
LINE
8
BLACK
6
CONTINUOUS
10
73.9659
20
32.1611
11
73.7427
21
32.0226
0
LINE
8
BLACK
6
CONTINUOUS
10
73.7427
20
32.0226
11
73.5413
21
31.8539
0
LINE
8
BLACK
6
CONTINUOUS
10
73.5413
20
31.8539
11
73.38
21
31.6743
0
LINE
8
BLACK
6
CONTINUOUS
10
73.38
20
31.6743
11
73.38
21
31.0572
0
LINE
8
BLACK
6
CONTINUOUS
10
73.38
20
31.0572
11
73.4489
21
31.2237
0
LINE
8
BLACK
6
CONTINUOUS
10
73.4489
20
31.2237
11
73.576
21
31.4311
0
LINE
8
BLACK
6
CONTINUOUS
10
73.576
20
31.4311
11
73.734
21
31.616
0
LINE
8
BLACK
6
CONTINUOUS
10
73.734
20
31.616
11
73.9189
21
31.774
0
LINE
8
BLACK
6
CONTINUOUS
10
73.9189
20
31.774
11
74.1263
21
31.9011
0
LINE
8
BLACK
6
CONTINUOUS
10
74.1263
20
31.9011
11
74.351
21
31.9941
0
LINE
8
BLACK
6
CONTINUOUS
10
74.351
20
31.9941
11
74.5875
21
32.0509
0
LINE
8
BLACK
6
CONTINUOUS
10
74.5875
20
32.0509
11
74.83
21
32.07
0
LINE
8
BLACK
6
CONTINUOUS
10
74.83
20
32.07
11
75.0725
21
32.0509
0
LINE
8
BLACK
6
CONTINUOUS
10
75.0725
20
32.0509
11
75.309
21
31.9941
0
LINE
8
BLACK
6
CONTINUOUS
10
75.309
20
31.9941
11
75.5337
21
31.9011
0
LINE
8
BLACK
6
CONTINUOUS
10
75.5337
20
31.9011
11
75.7411
21
31.774
0
LINE
8
BLACK
6
CONTINUOUS
10
75.7411
20
31.774
11
75.926
21
31.616
0
LINE
8
BLACK
6
CONTINUOUS
10
75.926
20
31.616
11
76.084
21
31.4311
0
LINE
8
BLACK
6
CONTINUOUS
10
76.084
20
31.4311
11
76.2111
21
31.2237
0
LINE
8
BLACK
6
CONTINUOUS
10
76.2111
20
31.2237
11
76.3041
21
30.999
0
LINE
8
BLACK
6
CONTINUOUS
10
76.3041
20
30.999
11
76.3609
21
30.7625
0
LINE
8
BLACK
6
CONTINUOUS
10
76.3609
20
30.7625
11
76.38
21
30.52
0
LINE
8
BLACK
6
CONTINUOUS
10
76.38
20
30.52
11
76.3609
21
30.2775
0
LINE
8
BLACK
6
CONTINUOUS
10
76.3609
20
30.2775
11
76.3041
21
30.041
0
LINE
8
BLACK
6
CONTINUOUS
10
76.3041
20
30.041
11
76.2111
21
29.8163
0
LINE
8
BLACK
6
CONTINUOUS
10
76.2111
20
29.8163
11
76.084
21
29.6089
0
LINE
8
BLACK
6
CONTINUOUS
10
76.084
20
29.6089
11
75.926
21
29.424
0
LINE
8
BLACK
6
CONTINUOUS
10
75.926
20
29.424
11
75.7411
21
29.266
0
LINE
8
BLACK
6
CONTINUOUS
10
75.7411
20
29.266
11
75.5337
21
29.1389
0
LINE
8
BLACK
6
CONTINUOUS
10
75.5337
20
29.1389
11
75.309
21
29.0459
0
LINE
8
BLACK
6
CONTINUOUS
10
75.309
20
29.0459
11
75.0725
21
28.9891
0
LINE
8
BLACK
6
CONTINUOUS
10
75.0725
20
28.9891
11
74.83
21
28.97
0
LINE
8
BLACK
6
CONTINUOUS
10
74.83
20
28.97
11
74.5875
21
28.9891
0
LINE
8
BLACK
6
CONTINUOUS
10
74.5875
20
28.9891
11
74.351
21
29.0459
0
LINE
8
BLACK
6
CONTINUOUS
10
74.351
20
29.0459
11
74.1263
21
29.1389
0
LINE
8
BLACK
6
CONTINUOUS
10
74.1263
20
29.1389
11
73.9189
21
29.266
0
LINE
8
BLACK
6
CONTINUOUS
10
73.9189
20
29.266
11
73.734
21
29.424
0
LINE
8
BLACK
6
CONTINUOUS
10
73.734
20
29.424
11
73.576
21
29.6089
0
LINE
8
BLACK
6
CONTINUOUS
10
73.576
20
29.6089
11
73.4489
21
29.8163
0
LINE
8
BLACK
6
CONTINUOUS
10
73.4489
20
29.8163
11
73.38
21
29.9827
0
LINE
8
BLACK
6
CONTINUOUS
10
73.38
20
29.9827
11
73.38
21
29.3658
0
LINE
8
BLACK
6
CONTINUOUS
10
73.38
20
29.3658
11
73.5407
21
29.1867
0
LINE
8
BLACK
6
CONTINUOUS
10
73.5407
20
29.1867
11
73.742
21
29.0179
0
LINE
8
BLACK
6
CONTINUOUS
10
73.742
20
29.0179
11
73.9651
21
28.8793
0
LINE
8
BLACK
6
CONTINUOUS
10
73.9651
20
28.8793
11
74.2056
21
28.7735
0
LINE
8
BLACK
6
CONTINUOUS
10
74.2056
20
28.7735
11
74.4587
21
28.7028
0
LINE
8
BLACK
6
CONTINUOUS
10
74.4587
20
28.7028
11
74.7191
21
28.6686
0
LINE
8
BLACK
6
CONTINUOUS
10
74.7191
20
28.6686
11
74.9819
21
28.6715
0
LINE
8
BLACK
6
CONTINUOUS
10
74.9819
20
28.6715
11
75.2415
21
28.7115
0
LINE
8
BLACK
6
CONTINUOUS
10
75.2415
20
28.7115
11
75.4929
21
28.7878
0
LINE
8
BLACK
6
CONTINUOUS
10
75.4929
20
28.7878
11
75.731
21
28.8988
0
LINE
8
BLACK
6
CONTINUOUS
10
75.731
20
28.8988
11
75.951
21
29.0424
0
LINE
8
BLACK
6
CONTINUOUS
10
75.951
20
29.0424
11
76.1486
21
29.2156
0
LINE
8
BLACK
6
CONTINUOUS
10
76.1486
20
29.2156
11
76.3197
21
29.415
0
LINE
8
BLACK
6
CONTINUOUS
10
76.3197
20
29.415
11
76.4608
21
29.6366
0
LINE
8
BLACK
6
CONTINUOUS
10
76.4608
20
29.6366
11
76.5693
21
29.8759
0
LINE
8
BLACK
6
CONTINUOUS
10
76.5693
20
29.8759
11
76.6429
21
30.1281
0
LINE
8
BLACK
6
CONTINUOUS
10
76.6429
20
30.1281
11
76.68
21
30.3882
0
LINE
8
BLACK
6
CONTINUOUS
10
76.68
20
30.3882
11
76.6801
21
30.6509
0
LINE
8
BLACK
6
CONTINUOUS
10
76.6801
20
30.6509
11
76.643
21
30.911
0
LINE
8
BLACK
6
CONTINUOUS
10
76.643
20
30.911
11
76.5696
21
31.1633
0
LINE
8
BLACK
6
CONTINUOUS
10
76.5696
20
31.1633
11
76.4613
21
31.4026
0
LINE
8
BLACK
6
CONTINUOUS
10
76.4613
20
31.4026
11
76.3202
21
31.6243
0
LINE
8
BLACK
6
CONTINUOUS
10
76.3202
20
31.6243
11
76.1492
21
31.8237
0
LINE
8
BLACK
6
CONTINUOUS
10
76.1492
20
31.8237
11
75.9518
21
31.997
0
LINE
8
BLACK
6
CONTINUOUS
10
75.9518
20
31.997
11
75.7318
21
32.1407
0
LINE
8
BLACK
6
CONTINUOUS
10
75.7318
20
32.1407
11
75.4937
21
32.2519
0
LINE
8
BLACK
6
CONTINUOUS
10
75.4937
20
32.2519
11
75.2424
21
32.3283
0
LINE
8
BLACK
6
CONTINUOUS
10
75.2424
20
32.3283
11
74.9827
21
32.3684
0
LINE
8
BLACK
6
CONTINUOUS
10
74.9827
20
32.3684
11
74.72
21
32.3715
0
LINE
8
BLACK
6
CONTINUOUS
10
74.72
20
32.3715
11
74.4595
21
32.3373
0
LINE
8
BLACK
6
CONTINUOUS
10
74.4928
20
31.9354
11
74.2662
21
31.8613
0
LINE
8
BLACK
6
CONTINUOUS
10
74.2662
20
31.8613
11
74.0547
21
31.7512
0
LINE
8
BLACK
6
CONTINUOUS
10
74.0547
20
31.7512
11
73.864
21
31.608
0
LINE
8
BLACK
6
CONTINUOUS
10
73.864
20
31.608
11
73.6993
21
31.4356
0
LINE
8
BLACK
6
CONTINUOUS
10
73.6993
20
31.4356
11
73.5649
21
31.2387
0
LINE
8
BLACK
6
CONTINUOUS
10
73.5649
20
31.2387
11
73.4645
21
31.0224
0
LINE
8
BLACK
6
CONTINUOUS
10
73.4645
20
31.0224
11
73.4008
21
30.7926
0
LINE
8
BLACK
6
CONTINUOUS
10
73.4008
20
30.7926
11
73.38
21
30.598
0
LINE
8
BLACK
6
CONTINUOUS
10
73.38
20
30.598
11
73.38
21
30.4769
0
LINE
8
BLACK
6
CONTINUOUS
10
73.38
20
30.4769
11
73.3892
21
30.3175
0
LINE
8
BLACK
6
CONTINUOUS
10
73.3892
20
30.3175
11
73.4416
21
30.0849
0
LINE
8
BLACK
6
CONTINUOUS
10
73.4416
20
30.0849
11
73.5313
21
29.864
0
LINE
8
BLACK
6
CONTINUOUS
10
73.5313
20
29.864
11
73.6559
21
29.6607
0
LINE
8
BLACK
6
CONTINUOUS
10
73.6559
20
29.6607
11
73.812
21
29.4805
0
LINE
8
BLACK
6
CONTINUOUS
10
73.812
20
29.4805
11
73.9955
21
29.3282
0
LINE
8
BLACK
6
CONTINUOUS
10
73.9955
20
29.3282
11
74.2013
21
29.2079
0
LINE
8
BLACK
6
CONTINUOUS
10
74.2013
20
29.2079
11
74.4241
21
29.1228
0
LINE
8
BLACK
6
CONTINUOUS
10
74.4241
20
29.1228
11
74.6577
21
29.0753
0
LINE
8
BLACK
6
CONTINUOUS
10
74.6577
20
29.0753
11
74.896
21
29.0665
0
LINE
8
BLACK
6
CONTINUOUS
10
74.896
20
29.0665
11
75.1325
21
29.0968
0
LINE
8
BLACK
6
CONTINUOUS
10
75.1325
20
29.0968
11
75.3609
21
29.1653
0
LINE
8
BLACK
6
CONTINUOUS
10
75.3609
20
29.1653
11
75.575
21
29.2702
0
LINE
8
BLACK
6
CONTINUOUS
10
75.575
20
29.2702
11
75.7691
21
29.4087
0
LINE
8
BLACK
6
CONTINUOUS
10
75.7691
20
29.4087
11
75.938
21
29.577
0
LINE
8
BLACK
6
CONTINUOUS
10
75.938
20
29.577
11
76.0772
21
29.7706
0
LINE
8
BLACK
6
CONTINUOUS
10
76.0772
20
29.7706
11
76.1828
21
29.9844
0
LINE
8
BLACK
6
CONTINUOUS
10
76.1828
20
29.9844
11
76.2521
21
30.2125
0
LINE
8
BLACK
6
CONTINUOUS
10
76.2521
20
30.2125
11
76.2832
21
30.4489
0
LINE
8
BLACK
6
CONTINUOUS
10
76.2832
20
30.4489
11
76.285
21
30.52
0
LINE
8
BLACK
6
CONTINUOUS
10
76.285
20
30.52
11
76.2654
21
30.7576
0
LINE
8
BLACK
6
CONTINUOUS
10
76.2654
20
30.7576
11
76.2073
21
30.9889
0
LINE
8
BLACK
6
CONTINUOUS
10
76.2073
20
30.9889
11
76.1123
21
31.2075
0
LINE
8
BLACK
6
CONTINUOUS
10
76.1123
20
31.2075
11
75.9828
21
31.4077
0
LINE
8
BLACK
6
CONTINUOUS
10
75.9828
20
31.4077
11
75.8223
21
31.5841
0
LINE
8
BLACK
6
CONTINUOUS
10
75.8223
20
31.5841
11
75.6352
21
31.7319
0
LINE
8
BLACK
6
CONTINUOUS
10
75.6352
20
31.7319
11
75.4264
21
31.8471
0
LINE
8
BLACK
6
CONTINUOUS
10
75.4264
20
31.8471
11
75.2017
21
31.9267
0
LINE
8
BLACK
6
CONTINUOUS
10
75.2017
20
31.9267
11
74.9669
21
31.9685
0
LINE
8
BLACK
6
CONTINUOUS
10
74.9669
20
31.9685
11
74.7285
21
31.9714
0
LINE
8
BLACK
6
CONTINUOUS
10
74.7285
20
31.9714
11
74.4928
21
31.9354
0
LINE
8
BLACK
6
CONTINUOUS
10
46.0146
20
32.4296
11
46
21
32.465
0
LINE
8
BLACK
6
CONTINUOUS
10
46
20
32.465
11
46
21
36.965
0
LINE
8
BLACK
6
CONTINUOUS
10
46
20
36.965
11
46.0146
21
37.0004
0
LINE
8
BLACK
6
CONTINUOUS
10
46.0146
20
37.0004
11
46.05
21
37.015
0
LINE
8
BLACK
6
CONTINUOUS
10
46.05
20
37.015
11
52.76
21
37.015
0
LINE
8
BLACK
6
CONTINUOUS
10
52.76
20
37.015
11
52.7954
21
37.0004
0
LINE
8
BLACK
6
CONTINUOUS
10
52.7954
20
37.0004
11
52.81
21
36.965
0
LINE
8
BLACK
6
CONTINUOUS
10
52.81
20
36.965
11
52.81
21
32.465
0
LINE
8
BLACK
6
CONTINUOUS
10
52.81
20
32.465
11
52.7954
21
32.4296
0
LINE
8
BLACK
6
CONTINUOUS
10
52.7954
20
32.4296
11
52.76
21
32.415
0
LINE
8
BLACK
6
CONTINUOUS
10
52.76
20
32.415
11
46.05
21
32.415
0
LINE
8
BLACK
6
CONTINUOUS
10
46.05
20
32.415
11
46.0146
21
32.4296
0
LINE
8
BLACK
6
CONTINUOUS
10
46.1
20
36.915
11
46.1
21
32.515
0
LINE
8
BLACK
6
CONTINUOUS
10
46.1
20
32.515
11
52.71
21
32.515
0
LINE
8
BLACK
6
CONTINUOUS
10
52.71
20
32.515
11
52.71
21
36.915
0
LINE
8
BLACK
6
CONTINUOUS
10
52.71
20
36.915
11
46.1
21
36.915
0
LINE
8
BLACK
6
CONTINUOUS
10
46.4113
20
36.0773
11
46.5095
21
36.2475
0
LINE
8
BLACK
6
CONTINUOUS
10
46.5095
20
36.2475
11
46.641
21
36.3936
0
LINE
8
BLACK
6
CONTINUOUS
10
46.641
20
36.3936
11
46.8
21
36.5091
0
LINE
8
BLACK
6
CONTINUOUS
10
46.8
20
36.5091
11
46.9795
21
36.589
0
LINE
8
BLACK
6
CONTINUOUS
10
46.9795
20
36.589
11
47.1717
21
36.6299
0
LINE
8
BLACK
6
CONTINUOUS
10
47.1717
20
36.6299
11
47.3683
21
36.6299
0
LINE
8
BLACK
6
CONTINUOUS
10
47.3683
20
36.6299
11
47.5605
21
36.589
0
LINE
8
BLACK
6
CONTINUOUS
10
47.5605
20
36.589
11
47.74
21
36.5091
0
LINE
8
BLACK
6
CONTINUOUS
10
47.74
20
36.5091
11
47.899
21
36.3936
0
LINE
8
BLACK
6
CONTINUOUS
10
47.899
20
36.3936
11
48.0305
21
36.2475
0
LINE
8
BLACK
6
CONTINUOUS
10
48.0305
20
36.2475
11
48.1287
21
36.0773
0
LINE
8
BLACK
6
CONTINUOUS
10
48.1287
20
36.0773
11
48.1895
21
35.8904
0
LINE
8
BLACK
6
CONTINUOUS
10
48.1895
20
35.8904
11
48.21
21
35.695
0
LINE
8
BLACK
6
CONTINUOUS
10
48.21
20
35.695
11
48.1895
21
35.4996
0
LINE
8
BLACK
6
CONTINUOUS
10
48.1895
20
35.4996
11
48.1287
21
35.3127
0
LINE
8
BLACK
6
CONTINUOUS
10
48.1287
20
35.3127
11
48.0305
21
35.1425
0
LINE
8
BLACK
6
CONTINUOUS
10
48.0305
20
35.1425
11
47.899
21
34.9964
0
LINE
8
BLACK
6
CONTINUOUS
10
47.899
20
34.9964
11
47.74
21
34.8809
0
LINE
8
BLACK
6
CONTINUOUS
10
47.74
20
34.8809
11
47.5605
21
34.801
0
LINE
8
BLACK
6
CONTINUOUS
10
47.5605
20
34.801
11
47.3683
21
34.7601
0
LINE
8
BLACK
6
CONTINUOUS
10
47.3683
20
34.7601
11
47.1717
21
34.7601
0
LINE
8
BLACK
6
CONTINUOUS
10
47.1717
20
34.7601
11
46.9795
21
34.801
0
LINE
8
BLACK
6
CONTINUOUS
10
46.9795
20
34.801
11
46.8
21
34.8809
0
LINE
8
BLACK
6
CONTINUOUS
10
46.8
20
34.8809
11
46.641
21
34.9964
0
LINE
8
BLACK
6
CONTINUOUS
10
46.641
20
34.9964
11
46.5095
21
35.1425
0
LINE
8
BLACK
6
CONTINUOUS
10
46.5095
20
35.1425
11
46.4113
21
35.3127
0
LINE
8
BLACK
6
CONTINUOUS
10
46.4113
20
35.3127
11
46.3505
21
35.4996
0
LINE
8
BLACK
6
CONTINUOUS
10
46.3505
20
35.4996
11
46.33
21
35.695
0
LINE
8
BLACK
6
CONTINUOUS
10
46.33
20
35.695
11
46.3505
21
35.8904
0
LINE
8
BLACK
6
CONTINUOUS
10
46.3505
20
35.8904
11
46.4113
21
36.0773
0
LINE
8
BLACK
6
CONTINUOUS
10
46.4984
20
35.3515
11
46.5867
21
35.1985
0
LINE
8
BLACK
6
CONTINUOUS
10
46.5867
20
35.1985
11
46.7048
21
35.0673
0
LINE
8
BLACK
6
CONTINUOUS
10
46.7048
20
35.0673
11
46.8477
21
34.9635
0
LINE
8
BLACK
6
CONTINUOUS
10
46.8477
20
34.9635
11
47.009
21
34.8917
0
LINE
8
BLACK
6
CONTINUOUS
10
47.009
20
34.8917
11
47.1817
21
34.855
0
LINE
8
BLACK
6
CONTINUOUS
10
47.1817
20
34.855
11
47.219
21
34.855
0
LINE
8
BLACK
6
CONTINUOUS
10
47.219
20
34.855
11
47.22
21
36.535
0
LINE
8
BLACK
6
CONTINUOUS
10
47.22
20
36.535
11
47.1817
21
36.535
0
LINE
8
BLACK
6
CONTINUOUS
10
47.1817
20
36.535
11
47.009
21
36.4983
0
LINE
8
BLACK
6
CONTINUOUS
10
47.009
20
36.4983
11
46.8477
21
36.4265
0
LINE
8
BLACK
6
CONTINUOUS
10
46.8477
20
36.4265
11
46.7048
21
36.3227
0
LINE
8
BLACK
6
CONTINUOUS
10
46.7048
20
36.3227
11
46.5867
21
36.1915
0
LINE
8
BLACK
6
CONTINUOUS
10
46.5867
20
36.1915
11
46.4984
21
36.0385
0
LINE
8
BLACK
6
CONTINUOUS
10
46.4984
20
36.0385
11
46.4438
21
35.8706
0
LINE
8
BLACK
6
CONTINUOUS
10
46.4438
20
35.8706
11
46.4254
21
35.695
0
LINE
8
BLACK
6
CONTINUOUS
10
46.4254
20
35.695
11
46.4438
21
35.5194
0
LINE
8
BLACK
6
CONTINUOUS
10
46.4438
20
35.5194
11
46.4984
21
35.3515
0
LINE
8
BLACK
6
CONTINUOUS
10
47.32
20
36.535
11
47.319
21
34.855
0
LINE
8
BLACK
6
CONTINUOUS
10
47.319
20
34.855
11
47.3583
21
34.855
0
LINE
8
BLACK
6
CONTINUOUS
10
47.3583
20
34.855
11
47.531
21
34.8917
0
LINE
8
BLACK
6
CONTINUOUS
10
47.531
20
34.8917
11
47.6923
21
34.9635
0
LINE
8
BLACK
6
CONTINUOUS
10
47.6923
20
34.9635
11
47.8352
21
35.0673
0
LINE
8
BLACK
6
CONTINUOUS
10
47.8352
20
35.0673
11
47.9533
21
35.1985
0
LINE
8
BLACK
6
CONTINUOUS
10
47.9533
20
35.1985
11
48.0416
21
35.3515
0
LINE
8
BLACK
6
CONTINUOUS
10
48.0416
20
35.3515
11
48.0962
21
35.5194
0
LINE
8
BLACK
6
CONTINUOUS
10
48.0962
20
35.5194
11
48.1146
21
35.695
0
LINE
8
BLACK
6
CONTINUOUS
10
48.1146
20
35.695
11
48.0962
21
35.8706
0
LINE
8
BLACK
6
CONTINUOUS
10
48.0962
20
35.8706
11
48.0416
21
36.0385
0
LINE
8
BLACK
6
CONTINUOUS
10
48.0416
20
36.0385
11
47.9533
21
36.1915
0
LINE
8
BLACK
6
CONTINUOUS
10
47.9533
20
36.1915
11
47.8352
21
36.3227
0
LINE
8
BLACK
6
CONTINUOUS
10
47.8352
20
36.3227
11
47.6923
21
36.4265
0
LINE
8
BLACK
6
CONTINUOUS
10
47.6923
20
36.4265
11
47.531
21
36.4983
0
LINE
8
BLACK
6
CONTINUOUS
10
47.531
20
36.4983
11
47.3583
21
36.535
0
LINE
8
BLACK
6
CONTINUOUS
10
47.3583
20
36.535
11
47.32
21
36.535
0
LINE
8
BLACK
6
CONTINUOUS
10
75.2035
20
37.0089
11
75.4629
21
36.9394
0
LINE
8
BLACK
6
CONTINUOUS
10
75.4629
20
36.9394
11
75.7103
21
36.835
0
LINE
8
BLACK
6
CONTINUOUS
10
75.7103
20
36.835
11
75.941
21
36.6975
0
LINE
8
BLACK
6
CONTINUOUS
10
75.941
20
36.6975
11
76.1507
21
36.5297
0
LINE
8
BLACK
6
CONTINUOUS
10
76.1507
20
36.5297
11
76.3353
21
36.3346
0
LINE
8
BLACK
6
CONTINUOUS
10
76.3353
20
36.3346
11
76.4913
21
36.1161
0
LINE
8
BLACK
6
CONTINUOUS
10
76.4913
20
36.1161
11
76.6158
21
35.8781
0
LINE
8
BLACK
6
CONTINUOUS
10
76.6158
20
35.8781
11
76.7065
21
35.6253
0
LINE
8
BLACK
6
CONTINUOUS
10
76.7065
20
35.6253
11
76.7616
21
35.3625
0
LINE
8
BLACK
6
CONTINUOUS
10
76.7616
20
35.3625
11
76.78
21
35.0945
0
LINE
8
BLACK
6
CONTINUOUS
10
76.78
20
35.0945
11
76.7614
21
34.8266
0
LINE
8
BLACK
6
CONTINUOUS
10
76.7614
20
34.8266
11
76.7062
21
34.5638
0
LINE
8
BLACK
6
CONTINUOUS
10
76.7062
20
34.5638
11
76.6155
21
34.311
0
LINE
8
BLACK
6
CONTINUOUS
10
76.6155
20
34.311
11
76.4908
21
34.0732
0
LINE
8
BLACK
6
CONTINUOUS
10
76.4908
20
34.0732
11
76.3347
21
33.8547
0
LINE
8
BLACK
6
CONTINUOUS
10
76.3347
20
33.8547
11
76.15
21
33.6597
0
LINE
8
BLACK
6
CONTINUOUS
10
76.15
20
33.6597
11
75.9403
21
33.4919
0
LINE
8
BLACK
6
CONTINUOUS
10
75.9403
20
33.4919
11
75.7095
21
33.3546
0
LINE
8
BLACK
6
CONTINUOUS
10
75.7095
20
33.3546
11
75.462
21
33.2503
0
LINE
8
BLACK
6
CONTINUOUS
10
75.462
20
33.2503
11
75.2026
21
33.1809
0
LINE
8
BLACK
6
CONTINUOUS
10
75.2026
20
33.1809
11
74.936
21
33.1479
0
LINE
8
BLACK
6
CONTINUOUS
10
74.936
20
33.1479
11
74.6675
21
33.1518
0
LINE
8
BLACK
6
CONTINUOUS
10
74.6675
20
33.1518
11
74.402
21
33.1925
0
LINE
8
BLACK
6
CONTINUOUS
10
74.402
20
33.1925
11
74.1447
21
33.2694
0
LINE
8
BLACK
6
CONTINUOUS
10
74.1447
20
33.2694
11
73.9004
21
33.3809
0
LINE
8
BLACK
6
CONTINUOUS
10
73.9004
20
33.3809
11
73.6737
21
33.5248
0
LINE
8
BLACK
6
CONTINUOUS
10
73.6737
20
33.5248
11
73.4689
21
33.6986
0
LINE
8
BLACK
6
CONTINUOUS
10
73.4689
20
33.6986
11
73.2949
21
33.8934
0
LINE
8
BLACK
6
CONTINUOUS
10
73.2949
20
33.8934
11
73.2946
21
33.8935
0
LINE
8
BLACK
6
CONTINUOUS
10
73.2946
20
33.8935
11
73.2945
21
33.8937
0
LINE
8
BLACK
6
CONTINUOUS
10
73.2945
20
33.8937
11
73.29
21
33.8989
0
LINE
8
BLACK
6
CONTINUOUS
10
73.29
20
33.8989
11
73.2852
21
33.9164
0
LINE
8
BLACK
6
CONTINUOUS
10
73.2852
20
33.9164
11
73.28
21
33.9288
0
LINE
8
BLACK
6
CONTINUOUS
10
73.28
20
33.9288
11
73.28
21
33.9352
0
LINE
8
BLACK
6
CONTINUOUS
10
73.28
20
33.9352
11
73.2798
21
33.9358
0
LINE
8
BLACK
6
CONTINUOUS
10
73.2798
20
33.9358
11
73.28
21
33.936
0
LINE
8
BLACK
6
CONTINUOUS
10
73.28
20
33.936
11
73.28
21
36.2612
0
LINE
8
BLACK
6
CONTINUOUS
10
73.28
20
36.2612
11
73.2862
21
36.2762
0
LINE
8
BLACK
6
CONTINUOUS
10
73.2862
20
36.2762
11
73.2905
21
36.2919
0
LINE
8
BLACK
6
CONTINUOUS
10
73.2905
20
36.2919
11
73.2905
21
36.2919
0
LINE
8
BLACK
6
CONTINUOUS
10
73.2905
20
36.2919
11
73.2946
21
36.2964
0
LINE
8
BLACK
6
CONTINUOUS
10
73.2946
20
36.2964
11
73.2946
21
36.2965
0
LINE
8
BLACK
6
CONTINUOUS
10
73.2946
20
36.2965
11
73.2947
21
36.2966
0
LINE
8
BLACK
6
CONTINUOUS
10
73.2947
20
36.2966
11
73.4696
21
36.492
0
LINE
8
BLACK
6
CONTINUOUS
10
73.4696
20
36.492
11
73.6744
21
36.6657
0
LINE
8
BLACK
6
CONTINUOUS
10
73.6744
20
36.6657
11
73.9012
21
36.8096
0
LINE
8
BLACK
6
CONTINUOUS
10
73.9012
20
36.8096
11
74.1456
21
36.9209
0
LINE
8
BLACK
6
CONTINUOUS
10
74.1456
20
36.9209
11
74.403
21
36.9977
0
LINE
8
BLACK
6
CONTINUOUS
10
74.403
20
36.9977
11
74.6684
21
37.0383
0
LINE
8
BLACK
6
CONTINUOUS
10
74.6684
20
37.0383
11
74.937
21
37.0421
0
LINE
8
BLACK
6
CONTINUOUS
10
74.937
20
37.0421
11
75.2035
21
37.0089
0
LINE
8
BLACK
6
CONTINUOUS
10
74.4595
20
36.9123
11
74.2065
21
36.8418
0
LINE
8
BLACK
6
CONTINUOUS
10
74.2065
20
36.8418
11
73.9659
21
36.7361
0
LINE
8
BLACK
6
CONTINUOUS
10
73.9659
20
36.7361
11
73.7427
21
36.5976
0
LINE
8
BLACK
6
CONTINUOUS
10
73.7427
20
36.5976
11
73.5413
21
36.4289
0
LINE
8
BLACK
6
CONTINUOUS
10
73.5413
20
36.4289
11
73.38
21
36.2493
0
LINE
8
BLACK
6
CONTINUOUS
10
73.38
20
36.2493
11
73.38
21
35.6322
0
LINE
8
BLACK
6
CONTINUOUS
10
73.38
20
35.6322
11
73.4489
21
35.7987
0
LINE
8
BLACK
6
CONTINUOUS
10
73.4489
20
35.7987
11
73.576
21
36.0061
0
LINE
8
BLACK
6
CONTINUOUS
10
73.576
20
36.0061
11
73.734
21
36.191
0
LINE
8
BLACK
6
CONTINUOUS
10
73.734
20
36.191
11
73.9189
21
36.349
0
LINE
8
BLACK
6
CONTINUOUS
10
73.9189
20
36.349
11
74.1263
21
36.4761
0
LINE
8
BLACK
6
CONTINUOUS
10
74.1263
20
36.4761
11
74.351
21
36.5691
0
LINE
8
BLACK
6
CONTINUOUS
10
74.351
20
36.5691
11
74.5875
21
36.6259
0
LINE
8
BLACK
6
CONTINUOUS
10
74.5875
20
36.6259
11
74.83
21
36.645
0
LINE
8
BLACK
6
CONTINUOUS
10
74.83
20
36.645
11
75.0725
21
36.6259
0
LINE
8
BLACK
6
CONTINUOUS
10
75.0725
20
36.6259
11
75.309
21
36.5691
0
LINE
8
BLACK
6
CONTINUOUS
10
75.309
20
36.5691
11
75.5337
21
36.4761
0
LINE
8
BLACK
6
CONTINUOUS
10
75.5337
20
36.4761
11
75.7411
21
36.349
0
LINE
8
BLACK
6
CONTINUOUS
10
75.7411
20
36.349
11
75.926
21
36.191
0
LINE
8
BLACK
6
CONTINUOUS
10
75.926
20
36.191
11
76.084
21
36.0061
0
LINE
8
BLACK
6
CONTINUOUS
10
76.084
20
36.0061
11
76.2111
21
35.7987
0
LINE
8
BLACK
6
CONTINUOUS
10
76.2111
20
35.7987
11
76.3041
21
35.574
0
LINE
8
BLACK
6
CONTINUOUS
10
76.3041
20
35.574
11
76.3609
21
35.3375
0
LINE
8
BLACK
6
CONTINUOUS
10
76.3609
20
35.3375
11
76.38
21
35.095
0
LINE
8
BLACK
6
CONTINUOUS
10
76.38
20
35.095
11
76.3609
21
34.8525
0
LINE
8
BLACK
6
CONTINUOUS
10
76.3609
20
34.8525
11
76.3041
21
34.616
0
LINE
8
BLACK
6
CONTINUOUS
10
76.3041
20
34.616
11
76.2111
21
34.3913
0
LINE
8
BLACK
6
CONTINUOUS
10
76.2111
20
34.3913
11
76.084
21
34.1839
0
LINE
8
BLACK
6
CONTINUOUS
10
76.084
20
34.1839
11
75.926
21
33.999
0
LINE
8
BLACK
6
CONTINUOUS
10
75.926
20
33.999
11
75.7411
21
33.841
0
LINE
8
BLACK
6
CONTINUOUS
10
75.7411
20
33.841
11
75.5337
21
33.7139
0
LINE
8
BLACK
6
CONTINUOUS
10
75.5337
20
33.7139
11
75.309
21
33.6209
0
LINE
8
BLACK
6
CONTINUOUS
10
75.309
20
33.6209
11
75.0725
21
33.5641
0
LINE
8
BLACK
6
CONTINUOUS
10
75.0725
20
33.5641
11
74.83
21
33.545
0
LINE
8
BLACK
6
CONTINUOUS
10
74.83
20
33.545
11
74.5875
21
33.5641
0
LINE
8
BLACK
6
CONTINUOUS
10
74.5875
20
33.5641
11
74.351
21
33.6209
0
LINE
8
BLACK
6
CONTINUOUS
10
74.351
20
33.6209
11
74.1263
21
33.7139
0
LINE
8
BLACK
6
CONTINUOUS
10
74.1263
20
33.7139
11
73.9189
21
33.841
0
LINE
8
BLACK
6
CONTINUOUS
10
73.9189
20
33.841
11
73.734
21
33.999
0
LINE
8
BLACK
6
CONTINUOUS
10
73.734
20
33.999
11
73.576
21
34.1839
0
LINE
8
BLACK
6
CONTINUOUS
10
73.576
20
34.1839
11
73.4489
21
34.3913
0
LINE
8
BLACK
6
CONTINUOUS
10
73.4489
20
34.3913
11
73.38
21
34.5577
0
LINE
8
BLACK
6
CONTINUOUS
10
73.38
20
34.5577
11
73.38
21
33.9408
0
LINE
8
BLACK
6
CONTINUOUS
10
73.38
20
33.9408
11
73.5407
21
33.7617
0
LINE
8
BLACK
6
CONTINUOUS
10
73.5407
20
33.7617
11
73.742
21
33.5929
0
LINE
8
BLACK
6
CONTINUOUS
10
73.742
20
33.5929
11
73.9651
21
33.4543
0
LINE
8
BLACK
6
CONTINUOUS
10
73.9651
20
33.4543
11
74.2056
21
33.3485
0
LINE
8
BLACK
6
CONTINUOUS
10
74.2056
20
33.3485
11
74.4587
21
33.2778
0
LINE
8
BLACK
6
CONTINUOUS
10
74.4587
20
33.2778
11
74.7191
21
33.2436
0
LINE
8
BLACK
6
CONTINUOUS
10
74.7191
20
33.2436
11
74.9819
21
33.2465
0
LINE
8
BLACK
6
CONTINUOUS
10
74.9819
20
33.2465
11
75.2415
21
33.2865
0
LINE
8
BLACK
6
CONTINUOUS
10
75.2415
20
33.2865
11
75.4929
21
33.3628
0
LINE
8
BLACK
6
CONTINUOUS
10
75.4929
20
33.3628
11
75.731
21
33.4738
0
LINE
8
BLACK
6
CONTINUOUS
10
75.731
20
33.4738
11
75.951
21
33.6174
0
LINE
8
BLACK
6
CONTINUOUS
10
75.951
20
33.6174
11
76.1486
21
33.7906
0
LINE
8
BLACK
6
CONTINUOUS
10
76.1486
20
33.7906
11
76.3197
21
33.99
0
LINE
8
BLACK
6
CONTINUOUS
10
76.3197
20
33.99
11
76.4608
21
34.2116
0
LINE
8
BLACK
6
CONTINUOUS
10
76.4608
20
34.2116
11
76.5693
21
34.4509
0
LINE
8
BLACK
6
CONTINUOUS
10
76.5693
20
34.4509
11
76.6429
21
34.7031
0
LINE
8
BLACK
6
CONTINUOUS
10
76.6429
20
34.7031
11
76.68
21
34.9632
0
LINE
8
BLACK
6
CONTINUOUS
10
76.68
20
34.9632
11
76.6801
21
35.2259
0
LINE
8
BLACK
6
CONTINUOUS
10
76.6801
20
35.2259
11
76.643
21
35.486
0
LINE
8
BLACK
6
CONTINUOUS
10
76.643
20
35.486
11
76.5696
21
35.7383
0
LINE
8
BLACK
6
CONTINUOUS
10
76.5696
20
35.7383
11
76.4613
21
35.9776
0
LINE
8
BLACK
6
CONTINUOUS
10
76.4613
20
35.9776
11
76.3202
21
36.1993
0
LINE
8
BLACK
6
CONTINUOUS
10
76.3202
20
36.1993
11
76.1492
21
36.3987
0
LINE
8
BLACK
6
CONTINUOUS
10
76.1492
20
36.3987
11
75.9518
21
36.572
0
LINE
8
BLACK
6
CONTINUOUS
10
75.9518
20
36.572
11
75.7318
21
36.7157
0
LINE
8
BLACK
6
CONTINUOUS
10
75.7318
20
36.7157
11
75.4937
21
36.8269
0
LINE
8
BLACK
6
CONTINUOUS
10
75.4937
20
36.8269
11
75.2424
21
36.9033
0
LINE
8
BLACK
6
CONTINUOUS
10
75.2424
20
36.9033
11
74.9827
21
36.9434
0
LINE
8
BLACK
6
CONTINUOUS
10
74.9827
20
36.9434
11
74.72
21
36.9465
0
LINE
8
BLACK
6
CONTINUOUS
10
74.72
20
36.9465
11
74.4595
21
36.9123
0
LINE
8
BLACK
6
CONTINUOUS
10
74.4928
20
36.5104
11
74.2662
21
36.4363
0
LINE
8
BLACK
6
CONTINUOUS
10
74.2662
20
36.4363
11
74.0547
21
36.3262
0
LINE
8
BLACK
6
CONTINUOUS
10
74.0547
20
36.3262
11
73.864
21
36.183
0
LINE
8
BLACK
6
CONTINUOUS
10
73.864
20
36.183
11
73.6993
21
36.0106
0
LINE
8
BLACK
6
CONTINUOUS
10
73.6993
20
36.0106
11
73.5649
21
35.8137
0
LINE
8
BLACK
6
CONTINUOUS
10
73.5649
20
35.8137
11
73.4645
21
35.5974
0
LINE
8
BLACK
6
CONTINUOUS
10
73.4645
20
35.5974
11
73.4008
21
35.3676
0
LINE
8
BLACK
6
CONTINUOUS
10
73.4008
20
35.3676
11
73.38
21
35.173
0
LINE
8
BLACK
6
CONTINUOUS
10
73.38
20
35.173
11
73.38
21
35.0519
0
LINE
8
BLACK
6
CONTINUOUS
10
73.38
20
35.0519
11
73.3892
21
34.8925
0
LINE
8
BLACK
6
CONTINUOUS
10
73.3892
20
34.8925
11
73.4416
21
34.6599
0
LINE
8
BLACK
6
CONTINUOUS
10
73.4416
20
34.6599
11
73.5313
21
34.439
0
LINE
8
BLACK
6
CONTINUOUS
10
73.5313
20
34.439
11
73.6559
21
34.2357
0
LINE
8
BLACK
6
CONTINUOUS
10
73.6559
20
34.2357
11
73.812
21
34.0555
0
LINE
8
BLACK
6
CONTINUOUS
10
73.812
20
34.0555
11
73.9955
21
33.9032
0
LINE
8
BLACK
6
CONTINUOUS
10
73.9955
20
33.9032
11
74.2013
21
33.7829
0
LINE
8
BLACK
6
CONTINUOUS
10
74.2013
20
33.7829
11
74.4241
21
33.6978
0
LINE
8
BLACK
6
CONTINUOUS
10
74.4241
20
33.6978
11
74.6577
21
33.6503
0
LINE
8
BLACK
6
CONTINUOUS
10
74.6577
20
33.6503
11
74.896
21
33.6415
0
LINE
8
BLACK
6
CONTINUOUS
10
74.896
20
33.6415
11
75.1325
21
33.6718
0
LINE
8
BLACK
6
CONTINUOUS
10
75.1325
20
33.6718
11
75.3609
21
33.7403
0
LINE
8
BLACK
6
CONTINUOUS
10
75.3609
20
33.7403
11
75.575
21
33.8452
0
LINE
8
BLACK
6
CONTINUOUS
10
75.575
20
33.8452
11
75.7691
21
33.9837
0
LINE
8
BLACK
6
CONTINUOUS
10
75.7691
20
33.9837
11
75.938
21
34.152
0
LINE
8
BLACK
6
CONTINUOUS
10
75.938
20
34.152
11
76.0772
21
34.3456
0
LINE
8
BLACK
6
CONTINUOUS
10
76.0772
20
34.3456
11
76.1828
21
34.5594
0
LINE
8
BLACK
6
CONTINUOUS
10
76.1828
20
34.5594
11
76.2521
21
34.7875
0
LINE
8
BLACK
6
CONTINUOUS
10
76.2521
20
34.7875
11
76.2832
21
35.0239
0
LINE
8
BLACK
6
CONTINUOUS
10
76.2832
20
35.0239
11
76.285
21
35.095
0
LINE
8
BLACK
6
CONTINUOUS
10
76.285
20
35.095
11
76.2654
21
35.3326
0
LINE
8
BLACK
6
CONTINUOUS
10
76.2654
20
35.3326
11
76.2073
21
35.5639
0
LINE
8
BLACK
6
CONTINUOUS
10
76.2073
20
35.5639
11
76.1123
21
35.7825
0
LINE
8
BLACK
6
CONTINUOUS
10
76.1123
20
35.7825
11
75.9828
21
35.9827
0
LINE
8
BLACK
6
CONTINUOUS
10
75.9828
20
35.9827
11
75.8223
21
36.1591
0
LINE
8
BLACK
6
CONTINUOUS
10
75.8223
20
36.1591
11
75.6352
21
36.3069
0
LINE
8
BLACK
6
CONTINUOUS
10
75.6352
20
36.3069
11
75.4264
21
36.4221
0
LINE
8
BLACK
6
CONTINUOUS
10
75.4264
20
36.4221
11
75.2017
21
36.5017
0
LINE
8
BLACK
6
CONTINUOUS
10
75.2017
20
36.5017
11
74.9669
21
36.5435
0
LINE
8
BLACK
6
CONTINUOUS
10
74.9669
20
36.5435
11
74.7285
21
36.5464
0
LINE
8
BLACK
6
CONTINUOUS
10
74.7285
20
36.5464
11
74.4928
21
36.5104
0
LINE
8
BLACK
6
CONTINUOUS
10
75.2535
20
41.5589
11
75.5129
21
41.4894
0
LINE
8
BLACK
6
CONTINUOUS
10
75.5129
20
41.4894
11
75.7603
21
41.385
0
LINE
8
BLACK
6
CONTINUOUS
10
75.7603
20
41.385
11
75.991
21
41.2475
0
LINE
8
BLACK
6
CONTINUOUS
10
75.991
20
41.2475
11
76.2007
21
41.0797
0
LINE
8
BLACK
6
CONTINUOUS
10
76.2007
20
41.0797
11
76.3853
21
40.8846
0
LINE
8
BLACK
6
CONTINUOUS
10
76.3853
20
40.8846
11
76.5413
21
40.6661
0
LINE
8
BLACK
6
CONTINUOUS
10
76.5413
20
40.6661
11
76.6658
21
40.4281
0
LINE
8
BLACK
6
CONTINUOUS
10
76.6658
20
40.4281
11
76.7565
21
40.1753
0
LINE
8
BLACK
6
CONTINUOUS
10
76.7565
20
40.1753
11
76.8116
21
39.9125
0
LINE
8
BLACK
6
CONTINUOUS
10
76.8116
20
39.9125
11
76.83
21
39.6445
0
LINE
8
BLACK
6
CONTINUOUS
10
76.83
20
39.6445
11
76.8114
21
39.3766
0
LINE
8
BLACK
6
CONTINUOUS
10
76.8114
20
39.3766
11
76.7562
21
39.1138
0
LINE
8
BLACK
6
CONTINUOUS
10
76.7562
20
39.1138
11
76.6655
21
38.861
0
LINE
8
BLACK
6
CONTINUOUS
10
76.6655
20
38.861
11
76.5408
21
38.6232
0
LINE
8
BLACK
6
CONTINUOUS
10
76.5408
20
38.6232
11
76.3847
21
38.4047
0
LINE
8
BLACK
6
CONTINUOUS
10
76.3847
20
38.4047
11
76.2
21
38.2097
0
LINE
8
BLACK
6
CONTINUOUS
10
76.2
20
38.2097
11
75.9903
21
38.0419
0
LINE
8
BLACK
6
CONTINUOUS
10
75.9903
20
38.0419
11
75.7595
21
37.9046
0
LINE
8
BLACK
6
CONTINUOUS
10
75.7595
20
37.9046
11
75.512
21
37.8003
0
LINE
8
BLACK
6
CONTINUOUS
10
75.512
20
37.8003
11
75.2525
21
37.7309
0
LINE
8
BLACK
6
CONTINUOUS
10
75.2525
20
37.7309
11
74.986
21
37.6979
0
LINE
8
BLACK
6
CONTINUOUS
10
74.986
20
37.6979
11
74.7175
21
37.7018
0
LINE
8
BLACK
6
CONTINUOUS
10
74.7175
20
37.7018
11
74.452
21
37.7425
0
LINE
8
BLACK
6
CONTINUOUS
10
74.452
20
37.7425
11
74.1947
21
37.8194
0
LINE
8
BLACK
6
CONTINUOUS
10
74.1947
20
37.8194
11
73.9504
21
37.9309
0
LINE
8
BLACK
6
CONTINUOUS
10
73.9504
20
37.9309
11
73.7237
21
38.0748
0
LINE
8
BLACK
6
CONTINUOUS
10
73.7237
20
38.0748
11
73.5189
21
38.2486
0
LINE
8
BLACK
6
CONTINUOUS
10
73.5189
20
38.2486
11
73.3449
21
38.4434
0
LINE
8
BLACK
6
CONTINUOUS
10
73.3449
20
38.4434
11
73.3446
21
38.4435
0
LINE
8
BLACK
6
CONTINUOUS
10
73.3446
20
38.4435
11
73.3445
21
38.4437
0
LINE
8
BLACK
6
CONTINUOUS
10
73.3445
20
38.4437
11
73.34
21
38.4489
0
LINE
8
BLACK
6
CONTINUOUS
10
73.34
20
38.4489
11
73.3352
21
38.4664
0
LINE
8
BLACK
6
CONTINUOUS
10
73.3352
20
38.4664
11
73.33
21
38.4788
0
LINE
8
BLACK
6
CONTINUOUS
10
73.33
20
38.4788
11
73.33
21
38.4852
0
LINE
8
BLACK
6
CONTINUOUS
10
73.33
20
38.4852
11
73.3298
21
38.4858
0
LINE
8
BLACK
6
CONTINUOUS
10
73.3298
20
38.4858
11
73.33
21
38.486
0
LINE
8
BLACK
6
CONTINUOUS
10
73.33
20
38.486
11
73.33
21
40.8112
0
LINE
8
BLACK
6
CONTINUOUS
10
73.33
20
40.8112
11
73.3362
21
40.8262
0
LINE
8
BLACK
6
CONTINUOUS
10
73.3362
20
40.8262
11
73.3405
21
40.8419
0
LINE
8
BLACK
6
CONTINUOUS
10
73.3405
20
40.8419
11
73.3405
21
40.8419
0
LINE
8
BLACK
6
CONTINUOUS
10
73.3405
20
40.8419
11
73.3446
21
40.8464
0
LINE
8
BLACK
6
CONTINUOUS
10
73.3446
20
40.8464
11
73.3446
21
40.8465
0
LINE
8
BLACK
6
CONTINUOUS
10
73.3446
20
40.8465
11
73.3447
21
40.8466
0
LINE
8
BLACK
6
CONTINUOUS
10
73.3447
20
40.8466
11
73.5196
21
41.042
0
LINE
8
BLACK
6
CONTINUOUS
10
73.5196
20
41.042
11
73.7244
21
41.2157
0
LINE
8
BLACK
6
CONTINUOUS
10
73.7244
20
41.2157
11
73.9512
21
41.3596
0
LINE
8
BLACK
6
CONTINUOUS
10
73.9512
20
41.3596
11
74.1956
21
41.4709
0
LINE
8
BLACK
6
CONTINUOUS
10
74.1956
20
41.4709
11
74.453
21
41.5477
0
LINE
8
BLACK
6
CONTINUOUS
10
74.453
20
41.5477
11
74.7184
21
41.5883
0
LINE
8
BLACK
6
CONTINUOUS
10
74.7184
20
41.5883
11
74.987
21
41.5921
0
LINE
8
BLACK
6
CONTINUOUS
10
74.987
20
41.5921
11
75.2535
21
41.5589
0
LINE
8
BLACK
6
CONTINUOUS
10
74.5095
20
41.4623
11
74.2565
21
41.3918
0
LINE
8
BLACK
6
CONTINUOUS
10
74.2565
20
41.3918
11
74.0159
21
41.2861
0
LINE
8
BLACK
6
CONTINUOUS
10
74.0159
20
41.2861
11
73.7927
21
41.1476
0
LINE
8
BLACK
6
CONTINUOUS
10
73.7927
20
41.1476
11
73.5913
21
40.9789
0
LINE
8
BLACK
6
CONTINUOUS
10
73.5913
20
40.9789
11
73.43
21
40.7993
0
LINE
8
BLACK
6
CONTINUOUS
10
73.43
20
40.7993
11
73.43
21
40.1822
0
LINE
8
BLACK
6
CONTINUOUS
10
73.43
20
40.1822
11
73.4989
21
40.3487
0
LINE
8
BLACK
6
CONTINUOUS
10
73.4989
20
40.3487
11
73.626
21
40.5561
0
LINE
8
BLACK
6
CONTINUOUS
10
73.626
20
40.5561
11
73.784
21
40.741
0
LINE
8
BLACK
6
CONTINUOUS
10
73.784
20
40.741
11
73.9689
21
40.899
0
LINE
8
BLACK
6
CONTINUOUS
10
73.9689
20
40.899
11
74.1763
21
41.0261
0
LINE
8
BLACK
6
CONTINUOUS
10
74.1763
20
41.0261
11
74.401
21
41.1191
0
LINE
8
BLACK
6
CONTINUOUS
10
74.401
20
41.1191
11
74.6375
21
41.1759
0
LINE
8
BLACK
6
CONTINUOUS
10
74.6375
20
41.1759
11
74.88
21
41.195
0
LINE
8
BLACK
6
CONTINUOUS
10
74.88
20
41.195
11
75.1225
21
41.1759
0
LINE
8
BLACK
6
CONTINUOUS
10
75.1225
20
41.1759
11
75.359
21
41.1191
0
LINE
8
BLACK
6
CONTINUOUS
10
75.359
20
41.1191
11
75.5837
21
41.0261
0
LINE
8
BLACK
6
CONTINUOUS
10
75.5837
20
41.0261
11
75.7911
21
40.899
0
LINE
8
BLACK
6
CONTINUOUS
10
75.7911
20
40.899
11
75.976
21
40.741
0
LINE
8
BLACK
6
CONTINUOUS
10
75.976
20
40.741
11
76.134
21
40.5561
0
LINE
8
BLACK
6
CONTINUOUS
10
76.134
20
40.5561
11
76.2611
21
40.3487
0
LINE
8
BLACK
6
CONTINUOUS
10
76.2611
20
40.3487
11
76.3541
21
40.124
0
LINE
8
BLACK
6
CONTINUOUS
10
76.3541
20
40.124
11
76.4109
21
39.8875
0
LINE
8
BLACK
6
CONTINUOUS
10
76.4109
20
39.8875
11
76.43
21
39.645
0
LINE
8
BLACK
6
CONTINUOUS
10
76.43
20
39.645
11
76.4109
21
39.4025
0
LINE
8
BLACK
6
CONTINUOUS
10
76.4109
20
39.4025
11
76.3541
21
39.166
0
LINE
8
BLACK
6
CONTINUOUS
10
76.3541
20
39.166
11
76.2611
21
38.9413
0
LINE
8
BLACK
6
CONTINUOUS
10
76.2611
20
38.9413
11
76.134
21
38.7339
0
LINE
8
BLACK
6
CONTINUOUS
10
76.134
20
38.7339
11
75.976
21
38.549
0
LINE
8
BLACK
6
CONTINUOUS
10
75.976
20
38.549
11
75.7911
21
38.391
0
LINE
8
BLACK
6
CONTINUOUS
10
75.7911
20
38.391
11
75.5837
21
38.2639
0
LINE
8
BLACK
6
CONTINUOUS
10
75.5837
20
38.2639
11
75.359
21
38.1709
0
LINE
8
BLACK
6
CONTINUOUS
10
75.359
20
38.1709
11
75.1225
21
38.1141
0
LINE
8
BLACK
6
CONTINUOUS
10
75.1225
20
38.1141
11
74.88
21
38.095
0
LINE
8
BLACK
6
CONTINUOUS
10
74.88
20
38.095
11
74.6375
21
38.1141
0
LINE
8
BLACK
6
CONTINUOUS
10
74.6375
20
38.1141
11
74.401
21
38.1709
0
LINE
8
BLACK
6
CONTINUOUS
10
74.401
20
38.1709
11
74.1763
21
38.2639
0
LINE
8
BLACK
6
CONTINUOUS
10
74.1763
20
38.2639
11
73.9689
21
38.391
0
LINE
8
BLACK
6
CONTINUOUS
10
73.9689
20
38.391
11
73.784
21
38.549
0
LINE
8
BLACK
6
CONTINUOUS
10
73.784
20
38.549
11
73.626
21
38.7339
0
LINE
8
BLACK
6
CONTINUOUS
10
73.626
20
38.7339
11
73.4989
21
38.9413
0
LINE
8
BLACK
6
CONTINUOUS
10
73.4989
20
38.9413
11
73.43
21
39.1077
0
LINE
8
BLACK
6
CONTINUOUS
10
73.43
20
39.1077
11
73.43
21
38.4908
0
LINE
8
BLACK
6
CONTINUOUS
10
73.43
20
38.4908
11
73.5907
21
38.3117
0
LINE
8
BLACK
6
CONTINUOUS
10
73.5907
20
38.3117
11
73.792
21
38.1429
0
LINE
8
BLACK
6
CONTINUOUS
10
73.792
20
38.1429
11
74.0151
21
38.0043
0
LINE
8
BLACK
6
CONTINUOUS
10
74.0151
20
38.0043
11
74.2556
21
37.8985
0
LINE
8
BLACK
6
CONTINUOUS
10
74.2556
20
37.8985
11
74.5087
21
37.8278
0
LINE
8
BLACK
6
CONTINUOUS
10
74.5087
20
37.8278
11
74.7691
21
37.7936
0
LINE
8
BLACK
6
CONTINUOUS
10
74.7691
20
37.7936
11
75.0319
21
37.7965
0
LINE
8
BLACK
6
CONTINUOUS
10
75.0319
20
37.7965
11
75.2915
21
37.8365
0
LINE
8
BLACK
6
CONTINUOUS
10
75.2915
20
37.8365
11
75.5429
21
37.9128
0
LINE
8
BLACK
6
CONTINUOUS
10
75.5429
20
37.9128
11
75.781
21
38.0238
0
LINE
8
BLACK
6
CONTINUOUS
10
75.781
20
38.0238
11
76.001
21
38.1674
0
LINE
8
BLACK
6
CONTINUOUS
10
76.001
20
38.1674
11
76.1986
21
38.3406
0
LINE
8
BLACK
6
CONTINUOUS
10
76.1986
20
38.3406
11
76.3697
21
38.54
0
LINE
8
BLACK
6
CONTINUOUS
10
76.3697
20
38.54
11
76.5108
21
38.7616
0
LINE
8
BLACK
6
CONTINUOUS
10
76.5108
20
38.7616
11
76.6193
21
39.0009
0
LINE
8
BLACK
6
CONTINUOUS
10
76.6193
20
39.0009
11
76.6929
21
39.2531
0
LINE
8
BLACK
6
CONTINUOUS
10
76.6929
20
39.2531
11
76.73
21
39.5132
0
LINE
8
BLACK
6
CONTINUOUS
10
76.73
20
39.5132
11
76.7301
21
39.7759
0
LINE
8
BLACK
6
CONTINUOUS
10
76.7301
20
39.7759
11
76.693
21
40.036
0
LINE
8
BLACK
6
CONTINUOUS
10
76.693
20
40.036
11
76.6196
21
40.2883
0
LINE
8
BLACK
6
CONTINUOUS
10
76.6196
20
40.2883
11
76.5113
21
40.5276
0
LINE
8
BLACK
6
CONTINUOUS
10
76.5113
20
40.5276
11
76.3702
21
40.7493
0
LINE
8
BLACK
6
CONTINUOUS
10
76.3702
20
40.7493
11
76.1992
21
40.9487
0
LINE
8
BLACK
6
CONTINUOUS
10
76.1992
20
40.9487
11
76.0018
21
41.122
0
LINE
8
BLACK
6
CONTINUOUS
10
76.0018
20
41.122
11
75.7818
21
41.2657
0
LINE
8
BLACK
6
CONTINUOUS
10
75.7818
20
41.2657
11
75.5437
21
41.3769
0
LINE
8
BLACK
6
CONTINUOUS
10
75.5437
20
41.3769
11
75.2924
21
41.4533
0
LINE
8
BLACK
6
CONTINUOUS
10
75.2924
20
41.4533
11
75.0327
21
41.4934
0
LINE
8
BLACK
6
CONTINUOUS
10
75.0327
20
41.4934
11
74.77
21
41.4965
0
LINE
8
BLACK
6
CONTINUOUS
10
74.77
20
41.4965
11
74.5095
21
41.4623
0
LINE
8
BLACK
6
CONTINUOUS
10
74.5428
20
41.0604
11
74.3162
21
40.9863
0
LINE
8
BLACK
6
CONTINUOUS
10
74.3162
20
40.9863
11
74.1047
21
40.8762
0
LINE
8
BLACK
6
CONTINUOUS
10
74.1047
20
40.8762
11
73.914
21
40.733
0
LINE
8
BLACK
6
CONTINUOUS
10
73.914
20
40.733
11
73.7493
21
40.5606
0
LINE
8
BLACK
6
CONTINUOUS
10
73.7493
20
40.5606
11
73.6149
21
40.3637
0
LINE
8
BLACK
6
CONTINUOUS
10
73.6149
20
40.3637
11
73.5145
21
40.1474
0
LINE
8
BLACK
6
CONTINUOUS
10
73.5145
20
40.1474
11
73.4508
21
39.9176
0
LINE
8
BLACK
6
CONTINUOUS
10
73.4508
20
39.9176
11
73.43
21
39.723
0
LINE
8
BLACK
6
CONTINUOUS
10
73.43
20
39.723
11
73.43
21
39.6019
0
LINE
8
BLACK
6
CONTINUOUS
10
73.43
20
39.6019
11
73.4392
21
39.4425
0
LINE
8
BLACK
6
CONTINUOUS
10
73.4392
20
39.4425
11
73.4916
21
39.2099
0
LINE
8
BLACK
6
CONTINUOUS
10
73.4916
20
39.2099
11
73.5813
21
38.989
0
LINE
8
BLACK
6
CONTINUOUS
10
73.5813
20
38.989
11
73.7059
21
38.7857
0
LINE
8
BLACK
6
CONTINUOUS
10
73.7059
20
38.7857
11
73.862
21
38.6055
0
LINE
8
BLACK
6
CONTINUOUS
10
73.862
20
38.6055
11
74.0455
21
38.4532
0
LINE
8
BLACK
6
CONTINUOUS
10
74.0455
20
38.4532
11
74.2513
21
38.3329
0
LINE
8
BLACK
6
CONTINUOUS
10
74.2513
20
38.3329
11
74.4741
21
38.2478
0
LINE
8
BLACK
6
CONTINUOUS
10
74.4741
20
38.2478
11
74.7077
21
38.2003
0
LINE
8
BLACK
6
CONTINUOUS
10
74.7077
20
38.2003
11
74.946
21
38.1915
0
LINE
8
BLACK
6
CONTINUOUS
10
74.946
20
38.1915
11
75.1825
21
38.2218
0
LINE
8
BLACK
6
CONTINUOUS
10
75.1825
20
38.2218
11
75.4109
21
38.2903
0
LINE
8
BLACK
6
CONTINUOUS
10
75.4109
20
38.2903
11
75.625
21
38.3952
0
LINE
8
BLACK
6
CONTINUOUS
10
75.625
20
38.3952
11
75.8191
21
38.5337
0
LINE
8
BLACK
6
CONTINUOUS
10
75.8191
20
38.5337
11
75.988
21
38.702
0
LINE
8
BLACK
6
CONTINUOUS
10
75.988
20
38.702
11
76.1272
21
38.8956
0
LINE
8
BLACK
6
CONTINUOUS
10
76.1272
20
38.8956
11
76.2328
21
39.1094
0
LINE
8
BLACK
6
CONTINUOUS
10
76.2328
20
39.1094
11
76.3021
21
39.3375
0
LINE
8
BLACK
6
CONTINUOUS
10
76.3021
20
39.3375
11
76.3332
21
39.5739
0
LINE
8
BLACK
6
CONTINUOUS
10
76.3332
20
39.5739
11
76.335
21
39.645
0
LINE
8
BLACK
6
CONTINUOUS
10
76.335
20
39.645
11
76.3154
21
39.8826
0
LINE
8
BLACK
6
CONTINUOUS
10
76.3154
20
39.8826
11
76.2573
21
40.1139
0
LINE
8
BLACK
6
CONTINUOUS
10
76.2573
20
40.1139
11
76.1623
21
40.3325
0
LINE
8
BLACK
6
CONTINUOUS
10
76.1623
20
40.3325
11
76.0328
21
40.5327
0
LINE
8
BLACK
6
CONTINUOUS
10
76.0328
20
40.5327
11
75.8723
21
40.7091
0
LINE
8
BLACK
6
CONTINUOUS
10
75.8723
20
40.7091
11
75.6852
21
40.8569
0
LINE
8
BLACK
6
CONTINUOUS
10
75.6852
20
40.8569
11
75.4764
21
40.9721
0
LINE
8
BLACK
6
CONTINUOUS
10
75.4764
20
40.9721
11
75.2517
21
41.0517
0
LINE
8
BLACK
6
CONTINUOUS
10
75.2517
20
41.0517
11
75.0169
21
41.0935
0
LINE
8
BLACK
6
CONTINUOUS
10
75.0169
20
41.0935
11
74.7785
21
41.0964
0
LINE
8
BLACK
6
CONTINUOUS
10
74.7785
20
41.0964
11
74.5428
21
41.0604
0
LINE
8
BLACK
6
CONTINUOUS
10
47.2946
20
39.5146
11
47.28
21
39.55
0
LINE
8
BLACK
6
CONTINUOUS
10
47.28
20
39.55
11
47.28
21
40.5
0
LINE
8
BLACK
6
CONTINUOUS
10
47.28
20
40.5
11
45.52
21
40.5
0
LINE
8
BLACK
6
CONTINUOUS
10
45.52
20
40.5
11
45.4846
21
40.5146
0
LINE
8
BLACK
6
CONTINUOUS
10
45.4846
20
40.5146
11
45.47
21
40.55
0
LINE
8
BLACK
6
CONTINUOUS
10
45.47
20
40.55
11
45.4846
21
40.5854
0
LINE
8
BLACK
6
CONTINUOUS
10
45.4846
20
40.5854
11
45.52
21
40.6
0
LINE
8
BLACK
6
CONTINUOUS
10
45.52
20
40.6
11
47.28
21
40.6
0
LINE
8
BLACK
6
CONTINUOUS
10
47.28
20
40.6
11
47.28
21
41.55
0
LINE
8
BLACK
6
CONTINUOUS
10
47.28
20
41.55
11
47.2946
21
41.5854
0
LINE
8
BLACK
6
CONTINUOUS
10
47.2946
20
41.5854
11
47.33
21
41.6
0
LINE
8
BLACK
6
CONTINUOUS
10
47.33
20
41.6
11
51.33
21
41.6
0
LINE
8
BLACK
6
CONTINUOUS
10
51.33
20
41.6
11
51.3654
21
41.5854
0
LINE
8
BLACK
6
CONTINUOUS
10
51.3654
20
41.5854
11
51.38
21
41.55
0
LINE
8
BLACK
6
CONTINUOUS
10
51.38
20
41.55
11
51.38
21
40.6
0
LINE
8
BLACK
6
CONTINUOUS
10
51.38
20
40.6
11
53.14
21
40.6
0
LINE
8
BLACK
6
CONTINUOUS
10
53.14
20
40.6
11
53.1754
21
40.5854
0
LINE
8
BLACK
6
CONTINUOUS
10
53.1754
20
40.5854
11
53.19
21
40.55
0
LINE
8
BLACK
6
CONTINUOUS
10
53.19
20
40.55
11
53.1754
21
40.5146
0
LINE
8
BLACK
6
CONTINUOUS
10
53.1754
20
40.5146
11
53.14
21
40.5
0
LINE
8
BLACK
6
CONTINUOUS
10
53.14
20
40.5
11
51.38
21
40.5
0
LINE
8
BLACK
6
CONTINUOUS
10
51.38
20
40.5
11
51.38
21
39.55
0
LINE
8
BLACK
6
CONTINUOUS
10
51.38
20
39.55
11
51.3654
21
39.5146
0
LINE
8
BLACK
6
CONTINUOUS
10
51.3654
20
39.5146
11
51.33
21
39.5
0
LINE
8
BLACK
6
CONTINUOUS
10
51.33
20
39.5
11
47.33
21
39.5
0
LINE
8
BLACK
6
CONTINUOUS
10
47.33
20
39.5
11
47.2946
21
39.5146
0
LINE
8
BLACK
6
CONTINUOUS
10
47.38
20
41.5
11
47.38
21
39.6
0
LINE
8
BLACK
6
CONTINUOUS
10
47.38
20
39.6
11
50.58
21
39.6
0
LINE
8
BLACK
6
CONTINUOUS
10
50.58
20
39.6
11
50.58
21
41.5
0
LINE
8
BLACK
6
CONTINUOUS
10
50.58
20
41.5
11
47.38
21
41.5
0
LINE
8
BLACK
6
CONTINUOUS
10
50.88
20
41.5
11
50.88
21
39.6
0
LINE
8
BLACK
6
CONTINUOUS
10
50.88
20
39.6
11
51.28
21
39.6
0
LINE
8
BLACK
6
CONTINUOUS
10
51.28
20
39.6
11
51.28
21
41.5
0
LINE
8
BLACK
6
CONTINUOUS
10
51.28
20
41.5
11
50.88
21
41.5
0
LINE
8
BLACK
6
CONTINUOUS
10
75.2285
20
46.1339
11
75.4879
21
46.0644
0
LINE
8
BLACK
6
CONTINUOUS
10
75.4879
20
46.0644
11
75.7353
21
45.96
0
LINE
8
BLACK
6
CONTINUOUS
10
75.7353
20
45.96
11
75.966
21
45.8225
0
LINE
8
BLACK
6
CONTINUOUS
10
75.966
20
45.8225
11
76.1757
21
45.6547
0
LINE
8
BLACK
6
CONTINUOUS
10
76.1757
20
45.6547
11
76.3603
21
45.4596
0
LINE
8
BLACK
6
CONTINUOUS
10
76.3603
20
45.4596
11
76.5163
21
45.2411
0
LINE
8
BLACK
6
CONTINUOUS
10
76.5163
20
45.2411
11
76.6408
21
45.0031
0
LINE
8
BLACK
6
CONTINUOUS
10
76.6408
20
45.0031
11
76.7315
21
44.7503
0
LINE
8
BLACK
6
CONTINUOUS
10
76.7315
20
44.7503
11
76.7866
21
44.4875
0
LINE
8
BLACK
6
CONTINUOUS
10
76.7866
20
44.4875
11
76.805
21
44.2195
0
LINE
8
BLACK
6
CONTINUOUS
10
76.805
20
44.2195
11
76.7864
21
43.9516
0
LINE
8
BLACK
6
CONTINUOUS
10
76.7864
20
43.9516
11
76.7312
21
43.6888
0
LINE
8
BLACK
6
CONTINUOUS
10
76.7312
20
43.6888
11
76.6405
21
43.436
0
LINE
8
BLACK
6
CONTINUOUS
10
76.6405
20
43.436
11
76.5158
21
43.1982
0
LINE
8
BLACK
6
CONTINUOUS
10
76.5158
20
43.1982
11
76.3597
21
42.9797
0
LINE
8
BLACK
6
CONTINUOUS
10
76.3597
20
42.9797
11
76.175
21
42.7847
0
LINE
8
BLACK
6
CONTINUOUS
10
76.175
20
42.7847
11
75.9653
21
42.6169
0
LINE
8
BLACK
6
CONTINUOUS
10
75.9653
20
42.6169
11
75.7345
21
42.4796
0
LINE
8
BLACK
6
CONTINUOUS
10
75.7345
20
42.4796
11
75.487
21
42.3753
0
LINE
8
BLACK
6
CONTINUOUS
10
75.487
20
42.3753
11
75.2275
21
42.3059
0
LINE
8
BLACK
6
CONTINUOUS
10
75.2275
20
42.3059
11
74.961
21
42.2729
0
LINE
8
BLACK
6
CONTINUOUS
10
74.961
20
42.2729
11
74.6925
21
42.2768
0
LINE
8
BLACK
6
CONTINUOUS
10
74.6925
20
42.2768
11
74.427
21
42.3175
0
LINE
8
BLACK
6
CONTINUOUS
10
74.427
20
42.3175
11
74.1697
21
42.3944
0
LINE
8
BLACK
6
CONTINUOUS
10
74.1697
20
42.3944
11
73.9254
21
42.5059
0
LINE
8
BLACK
6
CONTINUOUS
10
73.9254
20
42.5059
11
73.6987
21
42.6498
0
LINE
8
BLACK
6
CONTINUOUS
10
73.6987
20
42.6498
11
73.4939
21
42.8236
0
LINE
8
BLACK
6
CONTINUOUS
10
73.4939
20
42.8236
11
73.3199
21
43.0184
0
LINE
8
BLACK
6
CONTINUOUS
10
73.3199
20
43.0184
11
73.3196
21
43.0185
0
LINE
8
BLACK
6
CONTINUOUS
10
73.3196
20
43.0185
11
73.3195
21
43.0187
0
LINE
8
BLACK
6
CONTINUOUS
10
73.3195
20
43.0187
11
73.315
21
43.0239
0
LINE
8
BLACK
6
CONTINUOUS
10
73.315
20
43.0239
11
73.3102
21
43.0414
0
LINE
8
BLACK
6
CONTINUOUS
10
73.3102
20
43.0414
11
73.305
21
43.0538
0
LINE
8
BLACK
6
CONTINUOUS
10
73.305
20
43.0538
11
73.305
21
43.0602
0
LINE
8
BLACK
6
CONTINUOUS
10
73.305
20
43.0602
11
73.3048
21
43.0608
0
LINE
8
BLACK
6
CONTINUOUS
10
73.3048
20
43.0608
11
73.305
21
43.061
0
LINE
8
BLACK
6
CONTINUOUS
10
73.305
20
43.061
11
73.305
21
45.3862
0
LINE
8
BLACK
6
CONTINUOUS
10
73.305
20
45.3862
11
73.3112
21
45.4012
0
LINE
8
BLACK
6
CONTINUOUS
10
73.3112
20
45.4012
11
73.3155
21
45.4169
0
LINE
8
BLACK
6
CONTINUOUS
10
73.3155
20
45.4169
11
73.3155
21
45.4169
0
LINE
8
BLACK
6
CONTINUOUS
10
73.3155
20
45.4169
11
73.3196
21
45.4214
0
LINE
8
BLACK
6
CONTINUOUS
10
73.3196
20
45.4214
11
73.3196
21
45.4215
0
LINE
8
BLACK
6
CONTINUOUS
10
73.3196
20
45.4215
11
73.3197
21
45.4216
0
LINE
8
BLACK
6
CONTINUOUS
10
73.3197
20
45.4216
11
73.4946
21
45.617
0
LINE
8
BLACK
6
CONTINUOUS
10
73.4946
20
45.617
11
73.6994
21
45.7907
0
LINE
8
BLACK
6
CONTINUOUS
10
73.6994
20
45.7907
11
73.9262
21
45.9346
0
LINE
8
BLACK
6
CONTINUOUS
10
73.9262
20
45.9346
11
74.1706
21
46.0459
0
LINE
8
BLACK
6
CONTINUOUS
10
74.1706
20
46.0459
11
74.428
21
46.1227
0
LINE
8
BLACK
6
CONTINUOUS
10
74.428
20
46.1227
11
74.6934
21
46.1633
0
LINE
8
BLACK
6
CONTINUOUS
10
74.6934
20
46.1633
11
74.962
21
46.1671
0
LINE
8
BLACK
6
CONTINUOUS
10
74.962
20
46.1671
11
75.2285
21
46.1339
0
LINE
8
BLACK
6
CONTINUOUS
10
74.4845
20
46.0373
11
74.2315
21
45.9668
0
LINE
8
BLACK
6
CONTINUOUS
10
74.2315
20
45.9668
11
73.9909
21
45.8611
0
LINE
8
BLACK
6
CONTINUOUS
10
73.9909
20
45.8611
11
73.7677
21
45.7226
0
LINE
8
BLACK
6
CONTINUOUS
10
73.7677
20
45.7226
11
73.5663
21
45.5539
0
LINE
8
BLACK
6
CONTINUOUS
10
73.5663
20
45.5539
11
73.405
21
45.3743
0
LINE
8
BLACK
6
CONTINUOUS
10
73.405
20
45.3743
11
73.405
21
44.7572
0
LINE
8
BLACK
6
CONTINUOUS
10
73.405
20
44.7572
11
73.4739
21
44.9237
0
LINE
8
BLACK
6
CONTINUOUS
10
73.4739
20
44.9237
11
73.601
21
45.1311
0
LINE
8
BLACK
6
CONTINUOUS
10
73.601
20
45.1311
11
73.759
21
45.316
0
LINE
8
BLACK
6
CONTINUOUS
10
73.759
20
45.316
11
73.9439
21
45.474
0
LINE
8
BLACK
6
CONTINUOUS
10
73.9439
20
45.474
11
74.1513
21
45.6011
0
LINE
8
BLACK
6
CONTINUOUS
10
74.1513
20
45.6011
11
74.376
21
45.6941
0
LINE
8
BLACK
6
CONTINUOUS
10
74.376
20
45.6941
11
74.6125
21
45.7509
0
LINE
8
BLACK
6
CONTINUOUS
10
74.6125
20
45.7509
11
74.855
21
45.77
0
LINE
8
BLACK
6
CONTINUOUS
10
74.855
20
45.77
11
75.0975
21
45.7509
0
LINE
8
BLACK
6
CONTINUOUS
10
75.0975
20
45.7509
11
75.334
21
45.6941
0
LINE
8
BLACK
6
CONTINUOUS
10
75.334
20
45.6941
11
75.5587
21
45.6011
0
LINE
8
BLACK
6
CONTINUOUS
10
75.5587
20
45.6011
11
75.7661
21
45.474
0
LINE
8
BLACK
6
CONTINUOUS
10
75.7661
20
45.474
11
75.951
21
45.316
0
LINE
8
BLACK
6
CONTINUOUS
10
75.951
20
45.316
11
76.109
21
45.1311
0
LINE
8
BLACK
6
CONTINUOUS
10
76.109
20
45.1311
11
76.2361
21
44.9237
0
LINE
8
BLACK
6
CONTINUOUS
10
76.2361
20
44.9237
11
76.3291
21
44.699
0
LINE
8
BLACK
6
CONTINUOUS
10
76.3291
20
44.699
11
76.3859
21
44.4625
0
LINE
8
BLACK
6
CONTINUOUS
10
76.3859
20
44.4625
11
76.405
21
44.22
0
LINE
8
BLACK
6
CONTINUOUS
10
76.405
20
44.22
11
76.3859
21
43.9775
0
LINE
8
BLACK
6
CONTINUOUS
10
76.3859
20
43.9775
11
76.3291
21
43.741
0
LINE
8
BLACK
6
CONTINUOUS
10
76.3291
20
43.741
11
76.2361
21
43.5163
0
LINE
8
BLACK
6
CONTINUOUS
10
76.2361
20
43.5163
11
76.109
21
43.3089
0
LINE
8
BLACK
6
CONTINUOUS
10
76.109
20
43.3089
11
75.951
21
43.124
0
LINE
8
BLACK
6
CONTINUOUS
10
75.951
20
43.124
11
75.7661
21
42.966
0
LINE
8
BLACK
6
CONTINUOUS
10
75.7661
20
42.966
11
75.5587
21
42.8389
0
LINE
8
BLACK
6
CONTINUOUS
10
75.5587
20
42.8389
11
75.334
21
42.7459
0
LINE
8
BLACK
6
CONTINUOUS
10
75.334
20
42.7459
11
75.0975
21
42.6891
0
LINE
8
BLACK
6
CONTINUOUS
10
75.0975
20
42.6891
11
74.855
21
42.67
0
LINE
8
BLACK
6
CONTINUOUS
10
74.855
20
42.67
11
74.6125
21
42.6891
0
LINE
8
BLACK
6
CONTINUOUS
10
74.6125
20
42.6891
11
74.376
21
42.7459
0
LINE
8
BLACK
6
CONTINUOUS
10
74.376
20
42.7459
11
74.1513
21
42.8389
0
LINE
8
BLACK
6
CONTINUOUS
10
74.1513
20
42.8389
11
73.9439
21
42.966
0
LINE
8
BLACK
6
CONTINUOUS
10
73.9439
20
42.966
11
73.759
21
43.124
0
LINE
8
BLACK
6
CONTINUOUS
10
73.759
20
43.124
11
73.601
21
43.3089
0
LINE
8
BLACK
6
CONTINUOUS
10
73.601
20
43.3089
11
73.4739
21
43.5163
0
LINE
8
BLACK
6
CONTINUOUS
10
73.4739
20
43.5163
11
73.405
21
43.6827
0
LINE
8
BLACK
6
CONTINUOUS
10
73.405
20
43.6827
11
73.405
21
43.0658
0
LINE
8
BLACK
6
CONTINUOUS
10
73.405
20
43.0658
11
73.5657
21
42.8867
0
LINE
8
BLACK
6
CONTINUOUS
10
73.5657
20
42.8867
11
73.767
21
42.7179
0
LINE
8
BLACK
6
CONTINUOUS
10
73.767
20
42.7179
11
73.9901
21
42.5793
0
LINE
8
BLACK
6
CONTINUOUS
10
73.9901
20
42.5793
11
74.2306
21
42.4735
0
LINE
8
BLACK
6
CONTINUOUS
10
74.2306
20
42.4735
11
74.4837
21
42.4028
0
LINE
8
BLACK
6
CONTINUOUS
10
74.4837
20
42.4028
11
74.7441
21
42.3686
0
LINE
8
BLACK
6
CONTINUOUS
10
74.7441
20
42.3686
11
75.0069
21
42.3715
0
LINE
8
BLACK
6
CONTINUOUS
10
75.0069
20
42.3715
11
75.2665
21
42.4115
0
LINE
8
BLACK
6
CONTINUOUS
10
75.2665
20
42.4115
11
75.5179
21
42.4878
0
LINE
8
BLACK
6
CONTINUOUS
10
75.5179
20
42.4878
11
75.756
21
42.5988
0
LINE
8
BLACK
6
CONTINUOUS
10
75.756
20
42.5988
11
75.9761
21
42.7424
0
LINE
8
BLACK
6
CONTINUOUS
10
75.9761
20
42.7424
11
76.1736
21
42.9156
0
LINE
8
BLACK
6
CONTINUOUS
10
76.1736
20
42.9156
11
76.3447
21
43.115
0
LINE
8
BLACK
6
CONTINUOUS
10
76.3447
20
43.115
11
76.4858
21
43.3366
0
LINE
8
BLACK
6
CONTINUOUS
10
76.4858
20
43.3366
11
76.5943
21
43.5759
0
LINE
8
BLACK
6
CONTINUOUS
10
76.5943
20
43.5759
11
76.6679
21
43.8281
0
LINE
8
BLACK
6
CONTINUOUS
10
76.6679
20
43.8281
11
76.705
21
44.0882
0
LINE
8
BLACK
6
CONTINUOUS
10
76.705
20
44.0882
11
76.7051
21
44.3509
0
LINE
8
BLACK
6
CONTINUOUS
10
76.7051
20
44.3509
11
76.668
21
44.611
0
LINE
8
BLACK
6
CONTINUOUS
10
76.668
20
44.611
11
76.5946
21
44.8633
0
LINE
8
BLACK
6
CONTINUOUS
10
76.5946
20
44.8633
11
76.4863
21
45.1026
0
LINE
8
BLACK
6
CONTINUOUS
10
76.4863
20
45.1026
11
76.3452
21
45.3243
0
LINE
8
BLACK
6
CONTINUOUS
10
76.3452
20
45.3243
11
76.1742
21
45.5237
0
LINE
8
BLACK
6
CONTINUOUS
10
76.1742
20
45.5237
11
75.9768
21
45.697
0
LINE
8
BLACK
6
CONTINUOUS
10
75.9768
20
45.697
11
75.7568
21
45.8407
0
LINE
8
BLACK
6
CONTINUOUS
10
75.7568
20
45.8407
11
75.5187
21
45.9519
0
LINE
8
BLACK
6
CONTINUOUS
10
75.5187
20
45.9519
11
75.2674
21
46.0283
0
LINE
8
BLACK
6
CONTINUOUS
10
75.2674
20
46.0283
11
75.0077
21
46.0684
0
LINE
8
BLACK
6
CONTINUOUS
10
75.0077
20
46.0684
11
74.745
21
46.0715
0
LINE
8
BLACK
6
CONTINUOUS
10
74.745
20
46.0715
11
74.4845
21
46.0373
0
LINE
8
BLACK
6
CONTINUOUS
10
74.5178
20
45.6354
11
74.2912
21
45.5613
0
LINE
8
BLACK
6
CONTINUOUS
10
74.2912
20
45.5613
11
74.0797
21
45.4512
0
LINE
8
BLACK
6
CONTINUOUS
10
74.0797
20
45.4512
11
73.889
21
45.308
0
LINE
8
BLACK
6
CONTINUOUS
10
73.889
20
45.308
11
73.7243
21
45.1356
0
LINE
8
BLACK
6
CONTINUOUS
10
73.7243
20
45.1356
11
73.5899
21
44.9387
0
LINE
8
BLACK
6
CONTINUOUS
10
73.5899
20
44.9387
11
73.4895
21
44.7224
0
LINE
8
BLACK
6
CONTINUOUS
10
73.4895
20
44.7224
11
73.4258
21
44.4926
0
LINE
8
BLACK
6
CONTINUOUS
10
73.4258
20
44.4926
11
73.405
21
44.298
0
LINE
8
BLACK
6
CONTINUOUS
10
73.405
20
44.298
11
73.405
21
44.1769
0
LINE
8
BLACK
6
CONTINUOUS
10
73.405
20
44.1769
11
73.4142
21
44.0175
0
LINE
8
BLACK
6
CONTINUOUS
10
73.4142
20
44.0175
11
73.4666
21
43.7849
0
LINE
8
BLACK
6
CONTINUOUS
10
73.4666
20
43.7849
11
73.5563
21
43.564
0
LINE
8
BLACK
6
CONTINUOUS
10
73.5563
20
43.564
11
73.6809
21
43.3607
0
LINE
8
BLACK
6
CONTINUOUS
10
73.6809
20
43.3607
11
73.837
21
43.1805
0
LINE
8
BLACK
6
CONTINUOUS
10
73.837
20
43.1805
11
74.0205
21
43.0282
0
LINE
8
BLACK
6
CONTINUOUS
10
74.0205
20
43.0282
11
74.2263
21
42.9079
0
LINE
8
BLACK
6
CONTINUOUS
10
74.2263
20
42.9079
11
74.4491
21
42.8228
0
LINE
8
BLACK
6
CONTINUOUS
10
74.4491
20
42.8228
11
74.6827
21
42.7753
0
LINE
8
BLACK
6
CONTINUOUS
10
74.6827
20
42.7753
11
74.921
21
42.7665
0
LINE
8
BLACK
6
CONTINUOUS
10
74.921
20
42.7665
11
75.1575
21
42.7968
0
LINE
8
BLACK
6
CONTINUOUS
10
75.1575
20
42.7968
11
75.3859
21
42.8653
0
LINE
8
BLACK
6
CONTINUOUS
10
75.3859
20
42.8653
11
75.6
21
42.9702
0
LINE
8
BLACK
6
CONTINUOUS
10
75.6
20
42.9702
11
75.7941
21
43.1087
0
LINE
8
BLACK
6
CONTINUOUS
10
75.7941
20
43.1087
11
75.963
21
43.277
0
LINE
8
BLACK
6
CONTINUOUS
10
75.963
20
43.277
11
76.1022
21
43.4706
0
LINE
8
BLACK
6
CONTINUOUS
10
76.1022
20
43.4706
11
76.2078
21
43.6844
0
LINE
8
BLACK
6
CONTINUOUS
10
76.2078
20
43.6844
11
76.2771
21
43.9125
0
LINE
8
BLACK
6
CONTINUOUS
10
76.2771
20
43.9125
11
76.3082
21
44.1489
0
LINE
8
BLACK
6
CONTINUOUS
10
76.3082
20
44.1489
11
76.31
21
44.22
0
LINE
8
BLACK
6
CONTINUOUS
10
76.31
20
44.22
11
76.2904
21
44.4576
0
LINE
8
BLACK
6
CONTINUOUS
10
76.2904
20
44.4576
11
76.2323
21
44.6889
0
LINE
8
BLACK
6
CONTINUOUS
10
76.2323
20
44.6889
11
76.1373
21
44.9075
0
LINE
8
BLACK
6
CONTINUOUS
10
76.1373
20
44.9075
11
76.0078
21
45.1077
0
LINE
8
BLACK
6
CONTINUOUS
10
76.0078
20
45.1077
11
75.8473
21
45.2841
0
LINE
8
BLACK
6
CONTINUOUS
10
75.8473
20
45.2841
11
75.6602
21
45.4319
0
LINE
8
BLACK
6
CONTINUOUS
10
75.6602
20
45.4319
11
75.4514
21
45.5471
0
LINE
8
BLACK
6
CONTINUOUS
10
75.4514
20
45.5471
11
75.2267
21
45.6267
0
LINE
8
BLACK
6
CONTINUOUS
10
75.2267
20
45.6267
11
74.9919
21
45.6685
0
LINE
8
BLACK
6
CONTINUOUS
10
74.9919
20
45.6685
11
74.7535
21
45.6714
0
LINE
8
BLACK
6
CONTINUOUS
10
74.7535
20
45.6714
11
74.5178
21
45.6354
0
LINE
8
BLACK
6
CONTINUOUS
10
58.6546
20
47.8646
11
58.1296
21
48.3896
0
LINE
8
BLACK
6
CONTINUOUS
10
58.1296
20
48.3896
11
58.115
21
48.425
0
LINE
8
BLACK
6
CONTINUOUS
10
58.115
20
48.425
11
58.115
21
50
0
LINE
8
BLACK
6
CONTINUOUS
10
58.115
20
50
11
58.1296
21
50.0354
0
LINE
8
BLACK
6
CONTINUOUS
10
58.1296
20
50.0354
11
58.165
21
50.05
0
LINE
8
BLACK
6
CONTINUOUS
10
58.165
20
50.05
11
61.975
21
50.05
0
LINE
8
BLACK
6
CONTINUOUS
10
61.975
20
50.05
11
62.0104
21
50.0354
0
LINE
8
BLACK
6
CONTINUOUS
10
62.0104
20
50.0354
11
62.025
21
50
0
LINE
8
BLACK
6
CONTINUOUS
10
62.025
20
50
11
62.025
21
47.9
0
LINE
8
BLACK
6
CONTINUOUS
10
62.025
20
47.9
11
62.0104
21
47.8646
0
LINE
8
BLACK
6
CONTINUOUS
10
62.0104
20
47.8646
11
61.975
21
47.85
0
LINE
8
BLACK
6
CONTINUOUS
10
61.975
20
47.85
11
58.69
21
47.85
0
LINE
8
BLACK
6
CONTINUOUS
10
58.69
20
47.85
11
58.6546
21
47.8646
0
LINE
8
BLACK
6
CONTINUOUS
10
58.215
20
49.95
11
58.215
21
48.4457
0
LINE
8
BLACK
6
CONTINUOUS
10
58.215
20
48.4457
11
58.7107
21
47.95
0
LINE
8
BLACK
6
CONTINUOUS
10
58.7107
20
47.95
11
61.925
21
47.95
0
LINE
8
BLACK
6
CONTINUOUS
10
61.925
20
47.95
11
61.925
21
49.95
0
LINE
8
BLACK
6
CONTINUOUS
10
61.925
20
49.95
11
58.215
21
49.95
0
LINE
8
BLACK
6
CONTINUOUS
10
37.1296
20
47.9496
11
37.115
21
47.985
0
LINE
8
BLACK
6
CONTINUOUS
10
37.115
20
47.985
11
37.115
21
53.625
0
LINE
8
BLACK
6
CONTINUOUS
10
37.115
20
53.625
11
37.1296
21
53.6604
0
LINE
8
BLACK
6
CONTINUOUS
10
37.1296
20
53.6604
11
38.1296
21
54.6604
0
LINE
8
BLACK
6
CONTINUOUS
10
38.1296
20
54.6604
11
38.165
21
54.675
0
LINE
8
BLACK
6
CONTINUOUS
10
38.165
20
54.675
11
43.865
21
54.675
0
LINE
8
BLACK
6
CONTINUOUS
10
43.865
20
54.675
11
43.9004
21
54.6604
0
LINE
8
BLACK
6
CONTINUOUS
10
43.9004
20
54.6604
11
43.915
21
54.625
0
LINE
8
BLACK
6
CONTINUOUS
10
43.915
20
54.625
11
43.915
21
47.985
0
LINE
8
BLACK
6
CONTINUOUS
10
43.915
20
47.985
11
43.9004
21
47.9496
0
LINE
8
BLACK
6
CONTINUOUS
10
43.9004
20
47.9496
11
43.865
21
47.935
0
LINE
8
BLACK
6
CONTINUOUS
10
43.865
20
47.935
11
37.165
21
47.935
0
LINE
8
BLACK
6
CONTINUOUS
10
37.165
20
47.935
11
37.1296
21
47.9496
0
LINE
8
BLACK
6
CONTINUOUS
10
38.1857
20
54.575
11
37.215
21
53.6043
0
LINE
8
BLACK
6
CONTINUOUS
10
37.215
20
53.6043
11
37.215
21
48.035
0
LINE
8
BLACK
6
CONTINUOUS
10
37.215
20
48.035
11
43.815
21
48.035
0
LINE
8
BLACK
6
CONTINUOUS
10
43.815
20
48.035
11
43.815
21
54.575
0
LINE
8
BLACK
6
CONTINUOUS
10
43.815
20
54.575
11
38.1857
21
54.575
0
LINE
8
BLACK
6
CONTINUOUS
10
38.6696
20
49.3646
11
38.655
21
49.4
0
LINE
8
BLACK
6
CONTINUOUS
10
38.655
20
49.4
11
38.655
21
50.67
0
LINE
8
BLACK
6
CONTINUOUS
10
38.655
20
50.67
11
38.6696
21
50.7054
0
LINE
8
BLACK
6
CONTINUOUS
10
38.6696
20
50.7054
11
38.705
21
50.72
0
LINE
8
BLACK
6
CONTINUOUS
10
38.705
20
50.72
11
42.325
21
50.72
0
LINE
8
BLACK
6
CONTINUOUS
10
42.325
20
50.72
11
42.3604
21
50.7054
0
LINE
8
BLACK
6
CONTINUOUS
10
42.3604
20
50.7054
11
42.375
21
50.67
0
LINE
8
BLACK
6
CONTINUOUS
10
42.375
20
50.67
11
42.375
21
49.4
0
LINE
8
BLACK
6
CONTINUOUS
10
42.375
20
49.4
11
42.3604
21
49.3646
0
LINE
8
BLACK
6
CONTINUOUS
10
42.3604
20
49.3646
11
42.325
21
49.35
0
LINE
8
BLACK
6
CONTINUOUS
10
42.325
20
49.35
11
38.705
21
49.35
0
LINE
8
BLACK
6
CONTINUOUS
10
38.705
20
49.35
11
38.6696
21
49.3646
0
LINE
8
BLACK
6
CONTINUOUS
10
39.9617
20
50.62
11
39.9617
21
49.45
0
LINE
8
BLACK
6
CONTINUOUS
10
39.9617
20
49.45
11
42.275
21
49.45
0
LINE
8
BLACK
6
CONTINUOUS
10
42.275
20
49.45
11
42.275
21
50.62
0
LINE
8
BLACK
6
CONTINUOUS
10
42.275
20
50.62
11
39.9617
21
50.62
0
LINE
8
BLACK
6
CONTINUOUS
10
38.6696
20
51.9046
11
38.655
21
51.94
0
LINE
8
BLACK
6
CONTINUOUS
10
38.655
20
51.94
11
38.655
21
53.21
0
LINE
8
BLACK
6
CONTINUOUS
10
38.655
20
53.21
11
38.6696
21
53.2454
0
LINE
8
BLACK
6
CONTINUOUS
10
38.6696
20
53.2454
11
38.705
21
53.26
0
LINE
8
BLACK
6
CONTINUOUS
10
38.705
20
53.26
11
42.325
21
53.26
0
LINE
8
BLACK
6
CONTINUOUS
10
42.325
20
53.26
11
42.3604
21
53.2454
0
LINE
8
BLACK
6
CONTINUOUS
10
42.3604
20
53.2454
11
42.375
21
53.21
0
LINE
8
BLACK
6
CONTINUOUS
10
42.375
20
53.21
11
42.375
21
51.94
0
LINE
8
BLACK
6
CONTINUOUS
10
42.375
20
51.94
11
42.3604
21
51.9046
0
LINE
8
BLACK
6
CONTINUOUS
10
42.3604
20
51.9046
11
42.325
21
51.89
0
LINE
8
BLACK
6
CONTINUOUS
10
42.325
20
51.89
11
38.705
21
51.89
0
LINE
8
BLACK
6
CONTINUOUS
10
38.705
20
51.89
11
38.6696
21
51.9046
0
LINE
8
BLACK
6
CONTINUOUS
10
39.9617
20
53.16
11
39.9617
21
51.99
0
LINE
8
BLACK
6
CONTINUOUS
10
39.9617
20
51.99
11
42.275
21
51.99
0
LINE
8
BLACK
6
CONTINUOUS
10
42.275
20
51.99
11
42.275
21
53.16
0
LINE
8
BLACK
6
CONTINUOUS
10
42.275
20
53.16
11
39.9617
21
53.16
0
LINE
8
BLACK
6
CONTINUOUS
10
77.055
20
66.75
11
77.055
21
55.25
0
LINE
8
BLACK
6
CONTINUOUS
10
77.055
20
55.25
11
77.0404
21
55.2146
0
LINE
8
BLACK
6
CONTINUOUS
10
77.0404
20
55.2146
11
77.005
21
55.2
0
LINE
8
BLACK
6
CONTINUOUS
10
77.005
20
55.2
11
70.505
21
55.2
0
LINE
8
BLACK
6
CONTINUOUS
10
70.505
20
55.2
11
70.4696
21
55.2146
0
LINE
8
BLACK
6
CONTINUOUS
10
70.4696
20
55.2146
11
70.455
21
55.25
0
LINE
8
BLACK
6
CONTINUOUS
10
70.455
20
55.25
11
70.455
21
66.75
0
LINE
8
BLACK
6
CONTINUOUS
10
70.455
20
66.75
11
70.4696
21
66.7854
0
LINE
8
BLACK
6
CONTINUOUS
10
70.4696
20
66.7854
11
70.505
21
66.8
0
LINE
8
BLACK
6
CONTINUOUS
10
70.505
20
66.8
11
71.205
21
66.8
0
LINE
8
BLACK
6
CONTINUOUS
10
71.205
20
66.8
11
71.205
21
69.25
0
LINE
8
BLACK
6
CONTINUOUS
10
71.205
20
69.25
11
71.2196
21
69.2854
0
LINE
8
BLACK
6
CONTINUOUS
10
71.2196
20
69.2854
11
71.255
21
69.3
0
LINE
8
BLACK
6
CONTINUOUS
10
71.255
20
69.3
11
76.255
21
69.3
0
LINE
8
BLACK
6
CONTINUOUS
10
76.255
20
69.3
11
76.2904
21
69.2854
0
LINE
8
BLACK
6
CONTINUOUS
10
76.2904
20
69.2854
11
76.305
21
69.25
0
LINE
8
BLACK
6
CONTINUOUS
10
76.305
20
69.25
11
76.305
21
66.8
0
LINE
8
BLACK
6
CONTINUOUS
10
76.305
20
66.8
11
77.005
21
66.8
0
LINE
8
BLACK
6
CONTINUOUS
10
77.005
20
66.8
11
77.0404
21
66.7854
0
LINE
8
BLACK
6
CONTINUOUS
10
77.0404
20
66.7854
11
77.055
21
66.75
0
LINE
8
BLACK
6
CONTINUOUS
10
70.555
20
55.3
11
76.955
21
55.3
0
LINE
8
BLACK
6
CONTINUOUS
10
76.955
20
55.3
11
76.955
21
66.7
0
LINE
8
BLACK
6
CONTINUOUS
10
76.955
20
66.7
11
76.255
21
66.7
0
LINE
8
BLACK
6
CONTINUOUS
10
76.255
20
66.7
11
76.2196
21
66.7146
0
LINE
8
BLACK
6
CONTINUOUS
10
76.2196
20
66.7146
11
76.205
21
66.75
0
LINE
8
BLACK
6
CONTINUOUS
10
76.205
20
66.75
11
76.205
21
69.2
0
LINE
8
BLACK
6
CONTINUOUS
10
76.205
20
69.2
11
71.305
21
69.2
0
LINE
8
BLACK
6
CONTINUOUS
10
71.305
20
69.2
11
71.305
21
66.75
0
LINE
8
BLACK
6
CONTINUOUS
10
71.305
20
66.75
11
71.2904
21
66.7146
0
LINE
8
BLACK
6
CONTINUOUS
10
71.2904
20
66.7146
11
71.255
21
66.7
0
LINE
8
BLACK
6
CONTINUOUS
10
71.255
20
66.7
11
70.555
21
66.7
0
LINE
8
BLACK
6
CONTINUOUS
10
70.555
20
66.7
11
70.555
21
55.3
0
LINE
8
BLACK
6
CONTINUOUS
10
67.18
20
67.05
11
67.18
21
56.05
0
LINE
8
BLACK
6
CONTINUOUS
10
67.18
20
56.05
11
67.1654
21
56.0146
0
LINE
8
BLACK
6
CONTINUOUS
10
67.1654
20
56.0146
11
67.13
21
56
0
LINE
8
BLACK
6
CONTINUOUS
10
67.13
20
56
11
56.13
21
56
0
LINE
8
BLACK
6
CONTINUOUS
10
56.13
20
56
11
56.0946
21
56.0146
0
LINE
8
BLACK
6
CONTINUOUS
10
56.0946
20
56.0146
11
56.08
21
56.05
0
LINE
8
BLACK
6
CONTINUOUS
10
56.08
20
56.05
11
56.08
21
67.05
0
LINE
8
BLACK
6
CONTINUOUS
10
56.08
20
67.05
11
56.0946
21
67.0854
0
LINE
8
BLACK
6
CONTINUOUS
10
56.0946
20
67.0854
11
56.13
21
67.1
0
LINE
8
BLACK
6
CONTINUOUS
10
56.13
20
67.1
11
56.78
21
67.1
0
LINE
8
BLACK
6
CONTINUOUS
10
56.78
20
67.1
11
56.78
21
78.45
0
LINE
8
BLACK
6
CONTINUOUS
10
56.78
20
78.45
11
56.7946
21
78.4854
0
LINE
8
BLACK
6
CONTINUOUS
10
56.7946
20
78.4854
11
56.83
21
78.5
0
LINE
8
BLACK
6
CONTINUOUS
10
56.83
20
78.5
11
66.43
21
78.5
0
LINE
8
BLACK
6
CONTINUOUS
10
66.43
20
78.5
11
66.4654
21
78.4854
0
LINE
8
BLACK
6
CONTINUOUS
10
66.4654
20
78.4854
11
66.48
21
78.45
0
LINE
8
BLACK
6
CONTINUOUS
10
66.48
20
78.45
11
66.48
21
67.1
0
LINE
8
BLACK
6
CONTINUOUS
10
66.48
20
67.1
11
67.13
21
67.1
0
LINE
8
BLACK
6
CONTINUOUS
10
67.13
20
67.1
11
67.1654
21
67.0854
0
LINE
8
BLACK
6
CONTINUOUS
10
67.1654
20
67.0854
11
67.18
21
67.05
0
LINE
8
BLACK
6
CONTINUOUS
10
56.18
20
56.1
11
67.08
21
56.1
0
LINE
8
BLACK
6
CONTINUOUS
10
67.08
20
56.1
11
67.08
21
67
0
LINE
8
BLACK
6
CONTINUOUS
10
67.08
20
67
11
56.18
21
67
0
LINE
8
BLACK
6
CONTINUOUS
10
56.18
20
67
11
56.18
21
56.1
0
LINE
8
BLACK
6
CONTINUOUS
10
56.88
20
78.4
11
56.88
21
67.1
0
LINE
8
BLACK
6
CONTINUOUS
10
56.88
20
67.1
11
66.38
21
67.1
0
LINE
8
BLACK
6
CONTINUOUS
10
66.38
20
67.1
11
66.38
21
78.4
0
LINE
8
BLACK
6
CONTINUOUS
10
66.38
20
78.4
11
56.88
21
78.4
0
LINE
8
BLACK
6
CONTINUOUS
10
60.6029
20
74.4683
11
60.6649
21
74.6636
0
LINE
8
BLACK
6
CONTINUOUS
10
60.6649
20
74.6636
11
60.7636
21
74.8432
0
LINE
8
BLACK
6
CONTINUOUS
10
60.7636
20
74.8432
11
60.8954
21
75.0002
0
LINE
8
BLACK
6
CONTINUOUS
10
60.8954
20
75.0002
11
61.0551
21
75.1286
0
LINE
8
BLACK
6
CONTINUOUS
10
61.0551
20
75.1286
11
61.2367
21
75.2235
0
LINE
8
BLACK
6
CONTINUOUS
10
61.2367
20
75.2235
11
61.4332
21
75.2814
0
LINE
8
BLACK
6
CONTINUOUS
10
61.4332
20
75.2814
11
61.6373
21
75.3
0
LINE
8
BLACK
6
CONTINUOUS
10
61.6373
20
75.3
11
61.8411
21
75.2786
0
LINE
8
BLACK
6
CONTINUOUS
10
61.8411
20
75.2786
11
62.0369
21
75.218
0
LINE
8
BLACK
6
CONTINUOUS
10
62.0369
20
75.218
11
62.2172
21
75.1205
0
LINE
8
BLACK
6
CONTINUOUS
10
62.2172
20
75.1205
11
62.375
21
74.9899
0
LINE
8
BLACK
6
CONTINUOUS
10
62.375
20
74.9899
11
62.5046
21
74.8311
0
LINE
8
BLACK
6
CONTINUOUS
10
62.5046
20
74.8311
11
62.6008
21
74.6501
0
LINE
8
BLACK
6
CONTINUOUS
10
62.6008
20
74.6501
11
62.66
21
74.4539
0
LINE
8
BLACK
6
CONTINUOUS
10
62.66
20
74.4539
11
62.68
21
74.25
0
LINE
8
BLACK
6
CONTINUOUS
10
62.68
20
74.25
11
62.6796
21
74.2207
0
LINE
8
BLACK
6
CONTINUOUS
10
62.6796
20
74.2207
11
62.6539
21
74.0174
0
LINE
8
BLACK
6
CONTINUOUS
10
62.6539
20
74.0174
11
62.5892
21
73.8229
0
LINE
8
BLACK
6
CONTINUOUS
10
62.5892
20
73.8229
11
62.488
21
73.6447
0
LINE
8
BLACK
6
CONTINUOUS
10
62.488
20
73.6447
11
62.3541
21
73.4896
0
LINE
8
BLACK
6
CONTINUOUS
10
62.3541
20
73.4896
11
62.1926
21
73.3635
0
LINE
8
BLACK
6
CONTINUOUS
10
62.1926
20
73.3635
11
62.0097
21
73.2711
0
LINE
8
BLACK
6
CONTINUOUS
10
62.0097
20
73.2711
11
61.8123
21
73.216
0
LINE
8
BLACK
6
CONTINUOUS
10
61.8123
20
73.216
11
61.608
21
73.2002
0
LINE
8
BLACK
6
CONTINUOUS
10
61.608
20
73.2002
11
61.4045
21
73.2245
0
LINE
8
BLACK
6
CONTINUOUS
10
61.4045
20
73.2245
11
61.2096
21
73.2878
0
LINE
8
BLACK
6
CONTINUOUS
10
61.2096
20
73.2878
11
61.0308
21
73.3878
0
LINE
8
BLACK
6
CONTINUOUS
10
61.0308
20
73.3878
11
60.8747
21
73.5206
0
LINE
8
BLACK
6
CONTINUOUS
10
60.8747
20
73.5206
11
60.7474
21
73.6812
0
LINE
8
BLACK
6
CONTINUOUS
10
60.7474
20
73.6812
11
60.6537
21
73.8635
0
LINE
8
BLACK
6
CONTINUOUS
10
60.6537
20
73.8635
11
60.5972
21
74.0605
0
LINE
8
BLACK
6
CONTINUOUS
10
60.5972
20
74.0605
11
60.5802
21
74.2633
0
LINE
8
BLACK
6
CONTINUOUS
10
60.5802
20
74.2633
11
60.5801
21
74.2647
0
LINE
8
BLACK
6
CONTINUOUS
10
60.5801
20
74.2647
11
60.6029
21
74.4683
0
LINE
8
BLACK
6
CONTINUOUS
10
60.7424
20
73.8986
11
60.8276
21
73.7329
0
LINE
8
BLACK
6
CONTINUOUS
10
60.8276
20
73.7329
11
60.9433
21
73.5869
0
LINE
8
BLACK
6
CONTINUOUS
10
60.9433
20
73.5869
11
61.0852
21
73.4661
0
LINE
8
BLACK
6
CONTINUOUS
10
61.0852
20
73.4661
11
61.2478
21
73.3752
0
LINE
8
BLACK
6
CONTINUOUS
10
61.2478
20
73.3752
11
61.425
21
73.3177
0
LINE
8
BLACK
6
CONTINUOUS
10
61.425
20
73.3177
11
61.61
21
73.2956
0
LINE
8
BLACK
6
CONTINUOUS
10
61.61
20
73.2956
11
61.7958
21
73.3099
0
LINE
8
BLACK
6
CONTINUOUS
10
61.7958
20
73.3099
11
61.9752
21
73.36
0
LINE
8
BLACK
6
CONTINUOUS
10
61.9752
20
73.36
11
62.1415
21
73.444
0
LINE
8
BLACK
6
CONTINUOUS
10
62.1415
20
73.444
11
62.2883
21
73.5587
0
LINE
8
BLACK
6
CONTINUOUS
10
62.2883
20
73.5587
11
62.41
21
73.6997
0
LINE
8
BLACK
6
CONTINUOUS
10
62.41
20
73.6997
11
62.5021
21
73.8617
0
LINE
8
BLACK
6
CONTINUOUS
10
62.5021
20
73.8617
11
62.5609
21
74.0385
0
LINE
8
BLACK
6
CONTINUOUS
10
62.5609
20
74.0385
11
62.5842
21
74.2233
0
LINE
8
BLACK
6
CONTINUOUS
10
62.5842
20
74.2233
11
62.5846
21
74.25
0
LINE
8
BLACK
6
CONTINUOUS
10
62.5846
20
74.25
11
62.5664
21
74.4354
0
LINE
8
BLACK
6
CONTINUOUS
10
62.5664
20
74.4354
11
62.5126
21
74.6138
0
LINE
8
BLACK
6
CONTINUOUS
10
62.5126
20
74.6138
11
62.4251
21
74.7783
0
LINE
8
BLACK
6
CONTINUOUS
10
62.4251
20
74.7783
11
62.3074
21
74.9226
0
LINE
8
BLACK
6
CONTINUOUS
10
62.3074
20
74.9226
11
62.1638
21
75.0414
0
LINE
8
BLACK
6
CONTINUOUS
10
62.1638
20
75.0414
11
61.9999
21
75.13
0
LINE
8
BLACK
6
CONTINUOUS
10
61.9999
20
75.13
11
61.8219
21
75.1851
0
LINE
8
BLACK
6
CONTINUOUS
10
61.8219
20
75.1851
11
61.6367
21
75.2046
0
LINE
8
BLACK
6
CONTINUOUS
10
61.6367
20
75.2046
11
61.4511
21
75.1877
0
LINE
8
BLACK
6
CONTINUOUS
10
61.4511
20
75.1877
11
61.2724
21
75.1351
0
LINE
8
BLACK
6
CONTINUOUS
10
61.2724
20
75.1351
11
61.1073
21
75.0488
0
LINE
8
BLACK
6
CONTINUOUS
10
61.1073
20
75.0488
11
60.9621
21
74.932
0
LINE
8
BLACK
6
CONTINUOUS
10
60.9621
20
74.932
11
60.8423
21
74.7893
0
LINE
8
BLACK
6
CONTINUOUS
10
60.8423
20
74.7893
11
60.7526
21
74.6261
0
LINE
8
BLACK
6
CONTINUOUS
10
60.7526
20
74.6261
11
60.6963
21
74.4485
0
LINE
8
BLACK
6
CONTINUOUS
10
60.6963
20
74.4485
11
60.6755
21
74.2633
0
LINE
8
BLACK
6
CONTINUOUS
10
60.6755
20
74.2633
11
60.6911
21
74.0777
0
LINE
8
BLACK
6
CONTINUOUS
10
60.6911
20
74.0777
11
60.7424
21
73.8986
0
LINE
8
BLACK
6
CONTINUOUS
10
53.13
20
67.825
11
53.13
21
62.325
0
LINE
8
BLACK
6
CONTINUOUS
10
53.13
20
62.325
11
53.1154
21
62.2896
0
LINE
8
BLACK
6
CONTINUOUS
10
53.1154
20
62.2896
11
52.1154
21
61.2896
0
LINE
8
BLACK
6
CONTINUOUS
10
52.1154
20
61.2896
11
52.08
21
61.275
0
LINE
8
BLACK
6
CONTINUOUS
10
52.08
20
61.275
11
39.28
21
61.275
0
LINE
8
BLACK
6
CONTINUOUS
10
39.28
20
61.275
11
39.2446
21
61.2896
0
LINE
8
BLACK
6
CONTINUOUS
10
39.2446
20
61.2896
11
39.23
21
61.325
0
LINE
8
BLACK
6
CONTINUOUS
10
39.23
20
61.325
11
39.23
21
67.825
0
LINE
8
BLACK
6
CONTINUOUS
10
39.23
20
67.825
11
39.2446
21
67.8604
0
LINE
8
BLACK
6
CONTINUOUS
10
39.2446
20
67.8604
11
39.28
21
67.875
0
LINE
8
BLACK
6
CONTINUOUS
10
39.28
20
67.875
11
45.63
21
67.875
0
LINE
8
BLACK
6
CONTINUOUS
10
45.63
20
67.875
11
45.63
21
76.825
0
LINE
8
BLACK
6
CONTINUOUS
10
45.63
20
76.825
11
45.6446
21
76.8604
0
LINE
8
BLACK
6
CONTINUOUS
10
45.6446
20
76.8604
11
45.68
21
76.875
0
LINE
8
BLACK
6
CONTINUOUS
10
45.68
20
76.875
11
50.68
21
76.875
0
LINE
8
BLACK
6
CONTINUOUS
10
50.68
20
76.875
11
50.7154
21
76.8604
0
LINE
8
BLACK
6
CONTINUOUS
10
50.7154
20
76.8604
11
50.73
21
76.825
0
LINE
8
BLACK
6
CONTINUOUS
10
50.73
20
76.825
11
50.73
21
67.875
0
LINE
8
BLACK
6
CONTINUOUS
10
50.73
20
67.875
11
53.08
21
67.875
0
LINE
8
BLACK
6
CONTINUOUS
10
53.08
20
67.875
11
53.1154
21
67.8604
0
LINE
8
BLACK
6
CONTINUOUS
10
53.1154
20
67.8604
11
53.13
21
67.825
0
LINE
8
BLACK
6
CONTINUOUS
10
39.33
20
61.375
11
52.0593
21
61.375
0
LINE
8
BLACK
6
CONTINUOUS
10
52.0593
20
61.375
11
53.03
21
62.3457
0
LINE
8
BLACK
6
CONTINUOUS
10
53.03
20
62.3457
11
53.03
21
67.775
0
LINE
8
BLACK
6
CONTINUOUS
10
53.03
20
67.775
11
39.33
21
67.775
0
LINE
8
BLACK
6
CONTINUOUS
10
39.33
20
67.775
11
39.33
21
61.375
0
LINE
8
BLACK
6
CONTINUOUS
10
45.73
20
76.775
11
45.73
21
67.875
0
LINE
8
BLACK
6
CONTINUOUS
10
45.73
20
67.875
11
50.63
21
67.875
0
LINE
8
BLACK
6
CONTINUOUS
10
50.63
20
67.875
11
50.63
21
76.775
0
LINE
8
BLACK
6
CONTINUOUS
10
50.63
20
76.775
11
45.73
21
76.775
0
LINE
8
BLACK
6
CONTINUOUS
10
27.7971
20
62.8296
11
27.7825
21
62.865
0
LINE
8
BLACK
6
CONTINUOUS
10
27.7825
20
62.865
11
27.7825
21
66.585
0
LINE
8
BLACK
6
CONTINUOUS
10
27.7825
20
66.585
11
27.7971
21
66.6204
0
LINE
8
BLACK
6
CONTINUOUS
10
27.7971
20
66.6204
11
28.7971
21
67.6204
0
LINE
8
BLACK
6
CONTINUOUS
10
28.7971
20
67.6204
11
28.8325
21
67.635
0
LINE
8
BLACK
6
CONTINUOUS
10
28.8325
20
67.635
11
37.6125
21
67.635
0
LINE
8
BLACK
6
CONTINUOUS
10
37.6125
20
67.635
11
37.6479
21
67.6204
0
LINE
8
BLACK
6
CONTINUOUS
10
37.6479
20
67.6204
11
37.6625
21
67.585
0
LINE
8
BLACK
6
CONTINUOUS
10
37.6625
20
67.585
11
37.6625
21
62.865
0
LINE
8
BLACK
6
CONTINUOUS
10
37.6625
20
62.865
11
37.6479
21
62.8296
0
LINE
8
BLACK
6
CONTINUOUS
10
37.6479
20
62.8296
11
37.6125
21
62.815
0
LINE
8
BLACK
6
CONTINUOUS
10
37.6125
20
62.815
11
27.8325
21
62.815
0
LINE
8
BLACK
6
CONTINUOUS
10
27.8325
20
62.815
11
27.7971
21
62.8296
0
LINE
8
BLACK
6
CONTINUOUS
10
28.8532
20
67.535
11
27.8825
21
66.5643
0
LINE
8
BLACK
6
CONTINUOUS
10
27.8825
20
66.5643
11
27.8825
21
62.915
0
LINE
8
BLACK
6
CONTINUOUS
10
27.8825
20
62.915
11
37.5625
21
62.915
0
LINE
8
BLACK
6
CONTINUOUS
10
37.5625
20
62.915
11
37.5625
21
67.535
0
LINE
8
BLACK
6
CONTINUOUS
10
37.5625
20
67.535
11
28.8532
21
67.535
0
LINE
8
BLACK
6
CONTINUOUS
10
30.6571
20
64.5546
11
30.6425
21
64.59
0
LINE
8
BLACK
6
CONTINUOUS
10
30.6425
20
64.59
11
30.6425
21
65.86
0
LINE
8
BLACK
6
CONTINUOUS
10
30.6425
20
65.86
11
30.6571
21
65.8954
0
LINE
8
BLACK
6
CONTINUOUS
10
30.6571
20
65.8954
11
30.6925
21
65.91
0
LINE
8
BLACK
6
CONTINUOUS
10
30.6925
20
65.91
11
34.7525
21
65.91
0
LINE
8
BLACK
6
CONTINUOUS
10
34.7525
20
65.91
11
34.7879
21
65.8954
0
LINE
8
BLACK
6
CONTINUOUS
10
34.7879
20
65.8954
11
34.8025
21
65.86
0
LINE
8
BLACK
6
CONTINUOUS
10
34.8025
20
65.86
11
34.8025
21
64.59
0
LINE
8
BLACK
6
CONTINUOUS
10
34.8025
20
64.59
11
34.7879
21
64.5546
0
LINE
8
BLACK
6
CONTINUOUS
10
34.7879
20
64.5546
11
34.7525
21
64.54
0
LINE
8
BLACK
6
CONTINUOUS
10
34.7525
20
64.54
11
30.6925
21
64.54
0
LINE
8
BLACK
6
CONTINUOUS
10
30.6925
20
64.54
11
30.6571
21
64.5546
0
LINE
8
BLACK
6
CONTINUOUS
10
32.0958
20
65.81
11
32.0958
21
64.64
0
LINE
8
BLACK
6
CONTINUOUS
10
32.0958
20
64.64
11
34.7025
21
64.64
0
LINE
8
BLACK
6
CONTINUOUS
10
34.7025
20
64.64
11
34.7025
21
65.81
0
LINE
8
BLACK
6
CONTINUOUS
10
34.7025
20
65.81
11
32.0958
21
65.81
  0
ENDSEC
  0
EOF
