%TF.GenerationSoftware,KiCad,Pcbnew,(6.0.4)*%
%TF.CreationDate,2022-11-07T20:31:58+01:00*%
%TF.ProjectId,swmeter,73776d65-7465-4722-9e6b-696361645f70,0.2*%
%TF.SameCoordinates,Original*%
%TF.FileFunction,Component,L1,Top*%
%TF.FilePolarity,Positive*%
%FSLAX46Y46*%
G04 Gerber Fmt 4.6, Leading zero omitted, Abs format (unit mm)*
G04 Created by KiCad (PCBNEW (6.0.4)) date 2022-11-07 20:31:58*
%MOMM*%
%LPD*%
G01*
G04 APERTURE LIST*
%TA.AperFunction,ComponentMain*%
%ADD10C,0.300000*%
%TD*%
%TA.AperFunction,ComponentOutline,Courtyard*%
%ADD11C,0.100000*%
%TD*%
%TA.AperFunction,ComponentPin*%
%ADD12P,0.360000X4X0.000000*%
%TD*%
%TA.AperFunction,ComponentPin*%
%ADD13C,0.000000*%
%TD*%
%TA.AperFunction,Profile*%
%ADD14C,0.100000*%
%TD*%
G04 APERTURE END LIST*
D10*
%TO.C,"SW1"*%
%TO.CFtp,"SW_DIP_SPSTx01_Slide_9.78x4.72mm_W7.62mm_P2.54mm"*%
%TO.CVal,"SW_DIP_x01"*%
%TO.CLbN,"Button_Switch_THT"*%
%TO.CMnt,TH*%
%TO.CRot,0*%
X127082500Y-59925000D03*
D11*
X136032499Y-62624999D02*
X125732501Y-62624999D01*
X125732501Y-57225001D01*
X136032499Y-57225001D01*
X136032499Y-62624999D01*
D12*
%TO.P,"SW1","1"*%
X127082500Y-59925000D03*
D13*
%TO.P,"SW1","2"*%
X134702500Y-59925000D03*
%TD*%
D10*
%TO.C,"SW2"*%
%TO.CFtp,"SW_E-Switch_EG1224_SPDT_Angled"*%
%TO.CVal,"SW_SPDT"*%
%TO.CLbN,"Button_Switch_THT"*%
%TO.CMnt,TH*%
%TO.CRot,180*%
X148350000Y-61825000D03*
D11*
X149099999Y-56325000D02*
X149100000Y-56325001D01*
X151599999Y-56325001D01*
X151599999Y-64824999D01*
X137100001Y-64824999D01*
X137100001Y-56325001D01*
X139600000Y-56325001D01*
X139600001Y-56325000D01*
X139600001Y-48075001D01*
X149099999Y-48075001D01*
X149099999Y-56325000D01*
D12*
%TO.P,"SW2","1","A"*%
X148350000Y-61825000D03*
D13*
%TO.P,"SW2",*%
X150350000Y-57575000D03*
X138350000Y-57575000D03*
X150350000Y-63575000D03*
X138350000Y-63575000D03*
%TO.P,"SW2","2","B"*%
X144350000Y-61825000D03*
%TO.P,"SW2","3","C"*%
X140350000Y-61825000D03*
%TD*%
D10*
%TO.C,"D4"*%
%TO.CFtp,"LED_D3.0mm_Clear"*%
%TO.CVal,"LED"*%
%TO.CLbN,"LED_THT"*%
%TO.CMnt,TH*%
%TO.CRot,0*%
X171780000Y-108330000D03*
D11*
X175479999Y-110579999D02*
X170630001Y-110579999D01*
X170630001Y-106080001D01*
X175479999Y-106080001D01*
X175479999Y-110579999D01*
D12*
%TO.P,"D4","1","K"*%
X171780000Y-108330000D03*
D13*
%TO.P,"D4","2","A"*%
X174320000Y-108330000D03*
%TD*%
D10*
%TO.C,"J1"*%
%TO.CFtp,"Jack_3.5mm_Lumberg_1503_07_Horizontal"*%
%TO.CVal,"AudioPlug"*%
%TO.CLbN,"Connector_Audio"*%
%TO.CMnt,TH*%
%TO.CRot,0*%
X169175000Y-61900000D03*
D11*
X176174999Y-71049999D02*
X167675001Y-71049999D01*
X167675001Y-55400001D01*
X176174999Y-55400001D01*
X176174999Y-71049999D01*
D13*
%TO.P,"J1",*%
X169425000Y-65400000D03*
X174425000Y-65400000D03*
%TO.P,"J1","R"*%
X174225000Y-69400000D03*
%TO.P,"J1","S"*%
X169625000Y-69400000D03*
%TO.P,"J1","T"*%
X174675000Y-61900000D03*
X169175000Y-61900000D03*
%TD*%
D10*
%TO.C,"CV1"*%
%TO.CFtp,"CP_Radial_D5.0mm_P2.50mm"*%
%TO.CVal,"22 µF"*%
%TO.CLbN,"Capacitor_THT"*%
%TO.CMnt,TH*%
%TO.CRot,90*%
X161290000Y-78232000D03*
D11*
X158626397Y-76298103D02*
X158866417Y-75682485D01*
X159246353Y-75141891D01*
X159744272Y-74707528D01*
X160331428Y-74404475D01*
X160973924Y-74250225D01*
X161634667Y-74253685D01*
X161634666Y-74253685D01*
X161634666Y-74253686D01*
X162275512Y-74414655D01*
X162859462Y-74723841D01*
X163352805Y-75163393D01*
X163727060Y-75707937D01*
X163960619Y-76326034D01*
X164039999Y-76982000D01*
X164039396Y-77039592D01*
X163946295Y-77693752D01*
X163699842Y-78306823D01*
X163314266Y-78843409D01*
X162811826Y-79272533D01*
X162221528Y-79569422D01*
X161577453Y-79716935D01*
X161577453Y-79716934D01*
X160916782Y-79706556D01*
X160277657Y-79538884D01*
X159696977Y-79223600D01*
X159208264Y-78778906D01*
X158839732Y-78230473D01*
X158612658Y-77609964D01*
X158540151Y-76953203D01*
X158540152Y-76953203D01*
X158626397Y-76298103D01*
D12*
%TO.P,"CV1","1"*%
X161290000Y-78232000D03*
D13*
%TO.P,"CV1","2"*%
X161290000Y-75732000D03*
%TD*%
D10*
%TO.C,"RV1"*%
%TO.CFtp,"Potentiometer_Bourns_3266Y_Vertical"*%
%TO.CVal,"4\u002C7 kΩ"*%
%TO.CLbN,"Potentiometer_THT"*%
%TO.CMnt,TH*%
%TO.CRot,180*%
X145035000Y-90525000D03*
D11*
X151184999Y-92974999D02*
X143935001Y-92974999D01*
X143935001Y-87925001D01*
X151184999Y-87925001D01*
X151184999Y-92974999D01*
D12*
%TO.P,"RV1","1","1"*%
X145035000Y-90525000D03*
D13*
%TO.P,"RV1","2","2"*%
X147575000Y-90525000D03*
%TO.P,"RV1","3","3"*%
X150115000Y-90525000D03*
%TD*%
D10*
%TO.C,"D10"*%
%TO.CFtp,"LED_D3.0mm_Clear"*%
%TO.CVal,"red"*%
%TO.CLbN,"LED_THT"*%
%TO.CMnt,TH*%
%TO.CRot,0*%
X171755000Y-80930000D03*
D11*
X175454999Y-83179999D02*
X170605001Y-83179999D01*
X170605001Y-78680001D01*
X175454999Y-78680001D01*
X175454999Y-83179999D01*
D12*
%TO.P,"D10","1","K"*%
X171755000Y-80930000D03*
D13*
%TO.P,"D10","2","A"*%
X174295000Y-80930000D03*
%TD*%
D10*
%TO.C,"BT1"*%
%TO.CFtp,"BatteryHolder_Eagle_12BH611-GR"*%
%TO.CVal,"Battery_Cell"*%
%TO.CLbN,"Battery"*%
%TO.CMnt,TH*%
%TO.CRot,90*%
X123250000Y-69300000D03*
D11*
X132499999Y-121199999D02*
X101300001Y-121199999D01*
X101300001Y-65700001D01*
X132499999Y-65700001D01*
X132499999Y-121199999D01*
D12*
%TO.P,"BT1","1","+"*%
X123250000Y-69300000D03*
D13*
%TO.P,"BT1",*%
X105800000Y-80200000D03*
X128000000Y-93450000D03*
X105800000Y-108200000D03*
%TO.P,"BT1","2","-"*%
X110550000Y-69300000D03*
%TD*%
D10*
%TO.C,"J3"*%
%TO.CFtp,"PinHeader_1x03_P1.27mm_Vertical"*%
%TO.CVal,"Conn_01x03_Female"*%
%TO.CLbN,"Connector_PinHeader_1.27mm"*%
%TO.CMnt,TH*%
%TO.CRot,90*%
X152965000Y-75960000D03*
D11*
X156664999Y-77509999D02*
X151815001Y-77509999D01*
X151815001Y-74410001D01*
X156664999Y-74410001D01*
X156664999Y-77509999D01*
D12*
%TO.P,"J3","1","Pin_1"*%
X152965000Y-75960000D03*
D13*
%TO.P,"J3","2","Pin_2"*%
X154235000Y-75960000D03*
%TO.P,"J3","3","Pin_3"*%
X155505000Y-75960000D03*
%TD*%
D10*
%TO.C,"D1"*%
%TO.CFtp,"LED_D3.0mm_Clear"*%
%TO.CVal,"LED"*%
%TO.CLbN,"LED_THT"*%
%TO.CMnt,TH*%
%TO.CRot,0*%
X171880000Y-122180000D03*
D11*
X175579999Y-124429999D02*
X170730001Y-124429999D01*
X170730001Y-119930001D01*
X175579999Y-119930001D01*
X175579999Y-124429999D01*
D12*
%TO.P,"D1","1","K"*%
X171880000Y-122180000D03*
D13*
%TO.P,"D1","2","A"*%
X174420000Y-122180000D03*
%TD*%
D10*
%TO.C,"D9"*%
%TO.CFtp,"LED_D3.0mm_Clear"*%
%TO.CVal,"LED"*%
%TO.CLbN,"LED_THT"*%
%TO.CMnt,TH*%
%TO.CRot,0*%
X171780000Y-85505000D03*
D11*
X175479999Y-87754999D02*
X170630001Y-87754999D01*
X170630001Y-83255001D01*
X175479999Y-83255001D01*
X175479999Y-87754999D01*
D12*
%TO.P,"D9","1","K"*%
X171780000Y-85505000D03*
D13*
%TO.P,"D9","2","A"*%
X174320000Y-85505000D03*
%TD*%
D10*
%TO.C,"D5"*%
%TO.CFtp,"LED_D3.0mm_Clear"*%
%TO.CVal,"LED"*%
%TO.CLbN,"LED_THT"*%
%TO.CMnt,TH*%
%TO.CRot,0*%
X171755000Y-103730000D03*
D11*
X175454999Y-105979999D02*
X170605001Y-105979999D01*
X170605001Y-101480001D01*
X175454999Y-101480001D01*
X175454999Y-105979999D01*
D12*
%TO.P,"D5","1","K"*%
X171755000Y-103730000D03*
D13*
%TO.P,"D5","2","A"*%
X174295000Y-103730000D03*
%TD*%
D10*
%TO.C,"D7"*%
%TO.CFtp,"LED_D3.0mm_Clear"*%
%TO.CVal,"LED"*%
%TO.CLbN,"LED_THT"*%
%TO.CMnt,TH*%
%TO.CRot,0*%
X171730000Y-94630000D03*
D11*
X175429999Y-96879999D02*
X170580001Y-96879999D01*
X170580001Y-92380001D01*
X175429999Y-92380001D01*
X175429999Y-96879999D01*
D12*
%TO.P,"D7","1","K"*%
X171730000Y-94630000D03*
D13*
%TO.P,"D7","2","A"*%
X174270000Y-94630000D03*
%TD*%
D10*
%TO.C,"SW3"*%
%TO.CFtp,"SW_DIP_SPSTx02_Slide_6.7x6.64mm_W7.62mm_P2.54mm_LowProfile"*%
%TO.CVal,"SW_DIP_x02"*%
%TO.CLbN,"Button_Switch_THT"*%
%TO.CMnt,TH*%
%TO.CRot,0*%
X134875000Y-72575000D03*
D11*
X143574999Y-77474999D02*
X133775001Y-77474999D01*
X133775001Y-70175001D01*
X143574999Y-70175001D01*
X143574999Y-77474999D01*
D12*
%TO.P,"SW3","1"*%
X134875000Y-72575000D03*
D13*
%TO.P,"SW3","2"*%
X134875000Y-75115000D03*
%TO.P,"SW3","3"*%
X142495000Y-75115000D03*
%TO.P,"SW3","4"*%
X142495000Y-72575000D03*
%TD*%
D10*
%TO.C,"R1"*%
%TO.CFtp,"R_Axial_DIN0207_L6.3mm_D2.5mm_P10.16mm_Horizontal"*%
%TO.CVal,"330Ω"*%
%TO.CLbN,"Resistor_THT"*%
%TO.CMnt,TH*%
%TO.CRot,0*%
X142650000Y-104430000D03*
D11*
X153859999Y-105929999D02*
X141600001Y-105929999D01*
X141600001Y-102930001D01*
X153859999Y-102930001D01*
X153859999Y-105929999D01*
D12*
%TO.P,"R1","1"*%
X142650000Y-104430000D03*
D13*
%TO.P,"R1","2"*%
X152810000Y-104430000D03*
%TD*%
D10*
%TO.C,"U1"*%
%TO.CFtp,"DIP-18_W7.62mm_Socket"*%
%TO.CVal,"LM3914N"*%
%TO.CLbN,"Package_DIP"*%
%TO.CMnt,TH*%
%TO.CRot,0*%
X158310000Y-83120000D03*
D11*
X167459999Y-105019999D02*
X156760001Y-105019999D01*
X156760001Y-81520001D01*
X167459999Y-81520001D01*
X167459999Y-105019999D01*
D12*
%TO.P,"U1","1","LED1"*%
X158310000Y-83120000D03*
D13*
%TO.P,"U1","2","V-"*%
X158310000Y-85660000D03*
%TO.P,"U1","3","V+"*%
X158310000Y-88200000D03*
%TO.P,"U1","4","RLO"*%
X158310000Y-90740000D03*
%TO.P,"U1","5","SIG"*%
X158310000Y-93280000D03*
%TO.P,"U1","6","RHI"*%
X158310000Y-95820000D03*
%TO.P,"U1","7","RFOUT"*%
X158310000Y-98360000D03*
%TO.P,"U1","8","REFADJ"*%
X158310000Y-100900000D03*
%TO.P,"U1","9","MODE"*%
X158310000Y-103440000D03*
%TO.P,"U1","10","LED2"*%
X165930000Y-103440000D03*
%TO.P,"U1","11","LED3"*%
X165930000Y-100900000D03*
%TO.P,"U1","12","LED4"*%
X165930000Y-98360000D03*
%TO.P,"U1","13","LED5"*%
X165930000Y-95820000D03*
%TO.P,"U1","14","LED6"*%
X165930000Y-93280000D03*
%TO.P,"U1","15","LED7"*%
X165930000Y-90740000D03*
%TO.P,"U1","16","LED8"*%
X165930000Y-88200000D03*
%TO.P,"U1","17","LED9"*%
X165930000Y-85660000D03*
%TO.P,"U1","18","LED10"*%
X165930000Y-83120000D03*
%TD*%
D10*
%TO.C,"J2"*%
%TO.CFtp,"BNC_TEConnectivity_1478035_Horizontal"*%
%TO.CVal,"Conn_Coaxial"*%
%TO.CLbN,"Connector_Coaxial"*%
%TO.CMnt,TH*%
%TO.CRot,0*%
X159800000Y-63600000D03*
D11*
X167329999Y-71129999D02*
X152270001Y-71129999D01*
X152270001Y-46200001D01*
X167329999Y-46200001D01*
X167329999Y-71129999D01*
D12*
%TO.P,"J2","1","In"*%
X159800000Y-63600000D03*
D13*
%TO.P,"J2","2","Ext"*%
X164825000Y-68625000D03*
X164825000Y-58575000D03*
X154775000Y-68625000D03*
X154775000Y-58575000D03*
%TD*%
D10*
%TO.C,"D2"*%
%TO.CFtp,"LED_D3.0mm_Clear"*%
%TO.CVal,"LED"*%
%TO.CLbN,"LED_THT"*%
%TO.CMnt,TH*%
%TO.CRot,0*%
X171830000Y-117530000D03*
D11*
X175529999Y-119779999D02*
X170680001Y-119779999D01*
X170680001Y-115280001D01*
X175529999Y-115280001D01*
X175529999Y-119779999D01*
D12*
%TO.P,"D2","1","K"*%
X171830000Y-117530000D03*
D13*
%TO.P,"D2","2","A"*%
X174370000Y-117530000D03*
%TD*%
D10*
%TO.C,"D0"*%
%TO.CFtp,"D_DO-35_SOD27_P7.62mm_Horizontal"*%
%TO.CVal,"1N914"*%
%TO.CLbN,"Diode_THT"*%
%TO.CMnt,TH*%
%TO.CRot,180*%
X151310000Y-84600000D03*
D11*
X152359999Y-85849999D02*
X142640001Y-85849999D01*
X142640001Y-83350001D01*
X152359999Y-83350001D01*
X152359999Y-85849999D01*
D12*
%TO.P,"D0","1","K"*%
X151310000Y-84600000D03*
D13*
%TO.P,"D0","2","A"*%
X143690000Y-84600000D03*
%TD*%
D10*
%TO.C,"D3"*%
%TO.CFtp,"LED_D3.0mm_Clear"*%
%TO.CVal,"LED"*%
%TO.CLbN,"LED_THT"*%
%TO.CMnt,TH*%
%TO.CRot,0*%
X171805000Y-112930000D03*
D11*
X175504999Y-115179999D02*
X170655001Y-115179999D01*
X170655001Y-110680001D01*
X175504999Y-110680001D01*
X175504999Y-115179999D01*
D12*
%TO.P,"D3","1","K"*%
X171805000Y-112930000D03*
D13*
%TO.P,"D3","2","A"*%
X174345000Y-112930000D03*
%TD*%
D10*
%TO.C,"D8"*%
%TO.CFtp,"LED_D3.0mm_Clear"*%
%TO.CVal,"LED"*%
%TO.CLbN,"LED_THT"*%
%TO.CMnt,TH*%
%TO.CRot,0*%
X171730000Y-90055000D03*
D11*
X175429999Y-92304999D02*
X170580001Y-92304999D01*
X170580001Y-87805001D01*
X175429999Y-87805001D01*
X175429999Y-92304999D01*
D12*
%TO.P,"D8","1","K"*%
X171730000Y-90055000D03*
D13*
%TO.P,"D8","2","A"*%
X174270000Y-90055000D03*
%TD*%
D10*
%TO.C,"RV2"*%
%TO.CFtp,"Potentiometer_Bourns_3266Y_Vertical"*%
%TO.CVal,"4\u002C7kΩ"*%
%TO.CLbN,"Potentiometer_THT"*%
%TO.CMnt,TH*%
%TO.CRot,180*%
X145005000Y-97615000D03*
D11*
X151154999Y-100064999D02*
X143905001Y-100064999D01*
X143905001Y-95015001D01*
X151154999Y-95015001D01*
X151154999Y-100064999D01*
D12*
%TO.P,"RV2","1","1"*%
X145005000Y-97615000D03*
D13*
%TO.P,"RV2","2","2"*%
X147545000Y-97615000D03*
%TO.P,"RV2","3","3"*%
X150085000Y-97615000D03*
%TD*%
D10*
%TO.C,"D6"*%
%TO.CFtp,"LED_D3.0mm_Clear"*%
%TO.CVal,"LED"*%
%TO.CLbN,"LED_THT"*%
%TO.CMnt,TH*%
%TO.CRot,0*%
X171730000Y-99180000D03*
D11*
X175429999Y-101429999D02*
X170580001Y-101429999D01*
X170580001Y-96930001D01*
X175429999Y-96930001D01*
X175429999Y-101429999D01*
D12*
%TO.P,"D6","1","K"*%
X171730000Y-99180000D03*
D13*
%TO.P,"D6","2","A"*%
X174270000Y-99180000D03*
%TD*%
D14*
X177790000Y-55235000D02*
X98155000Y-55235000D01*
X98155000Y-55235000D02*
X98155000Y-125185000D01*
X98155000Y-125185000D02*
X177790000Y-125185000D01*
X177790000Y-125185000D02*
X177790000Y-55235000D01*
X179456666Y-125185000D02*
G75*
G03*
X179456666Y-125185000I-1666666J0D01*
G01*
X175290000Y-125185000D02*
X180290000Y-125185000D01*
X177790000Y-122685000D02*
X177790000Y-127685000D01*
X99836666Y-125170000D02*
G75*
G03*
X99836666Y-125170000I-1666666J0D01*
G01*
X95670000Y-125170000D02*
X100670000Y-125170000D01*
X98170000Y-122670000D02*
X98170000Y-127670000D01*
X99866666Y-55240000D02*
G75*
G03*
X99866666Y-55240000I-1666666J0D01*
G01*
X95700000Y-55240000D02*
X100700000Y-55240000D01*
X98200000Y-52740000D02*
X98200000Y-57740000D01*
X179476666Y-55220000D02*
G75*
G03*
X179476666Y-55220000I-1666666J0D01*
G01*
X175310000Y-55220000D02*
X180310000Y-55220000D01*
X177810000Y-52720000D02*
X177810000Y-57720000D01*
M02*
