<?xml version="1.0" standalone="no"?>
 <!DOCTYPE svg PUBLIC "-//W3C//DTD SVG 1.1//EN" 
 "http://www.w3.org/Graphics/SVG/1.1/DTD/svg11.dtd"> 
<svg
  xmlns:svg="http://www.w3.org/2000/svg"
  xmlns="http://www.w3.org/2000/svg"
  xmlns:xlink="http://www.w3.org/1999/xlink"
  version="1.1"
  width="29.700220cm" height="21.000720cm" viewBox="0 0 297002200 210007200">
<title>SVG Picture created as swmeter-B_Fab.svg date 2022/10/21 18:23:59 </title>
  <desc>Picture generated by PCBNEW </desc>
<g style="fill:#000000; fill-opacity:1.000000;stroke:#000000; stroke-opacity:1.000000;
stroke-linecap:round; stroke-linejoin:round;"
 transform="translate(0 0) scale(1 1)">
</g>
<g style="fill:#000000; fill-opacity:0.0; 
stroke:#000000; stroke-width:0.000000; stroke-opacity:1; 
stroke-linecap:round; stroke-linejoin:round;">
</g>
<g style="fill:#000000; fill-opacity:0.0; 
stroke:#000000; stroke-width:100000.000000; stroke-opacity:1; 
stroke-linecap:round; stroke-linejoin:round;">
<path d="M177790000 55235000
L98155000 55235000
" />
<path d="M98155000 55235000
L98155000 125185000
" />
<path d="M98155000 125185000
L177790000 125185000
" />
<path d="M177790000 125185000
L177790000 55235000
" />
</g>
<g style="fill:#000000; fill-opacity:0.0; 
stroke:#000000; stroke-width:150000.000000; stroke-opacity:1; 
stroke-linecap:round; stroke-linejoin:round;">
<text x="158640000.000000" y="80960000.000000"
transform="scale(-1 1) translate(-317280000.000000 0)"
textLength="1805000.000000" font-size="1333333.000000" lengthAdjust="spacingAndGlyphs"
text-anchor="middle" opacity="0">U1</text>
<g class="stroked-text"><desc>U1</desc>
<path d="M159401904 79912380
L159401904 80721904
L159354285 80817142
L159306666 80864761
L159211428 80912380
L159020952 80912380
L158925714 80864761
L158878095 80817142
L158830476 80721904
L158830476 79912380
" />
<path d="M157830476 80912380
L158401904 80912380
" />
<path d="M158116190 80912380
L158116190 79912380
L158211428 80055238
L158306666 80150476
L158401904 80198095
" />
</g><text x="116190000.000000" y="70180000.000000"
textLength="5480714.000000" font-size="1333333.000000" lengthAdjust="spacingAndGlyphs"
text-anchor="middle" opacity="0">Battery</text>
<g class="stroked-text"><desc>Battery</desc>
<path d="M114118571 69608571
L114261428 69656190
L114309047 69703809
L114356666 69799047
L114356666 69941904
L114309047 70037142
L114261428 70084761
L114166190 70132380
L113785238 70132380
L113785238 69132380
L114118571 69132380
L114213809 69180000
L114261428 69227619
L114309047 69322857
L114309047 69418095
L114261428 69513333
L114213809 69560952
L114118571 69608571
L113785238 69608571
" />
<path d="M115213809 70132380
L115213809 69608571
L115166190 69513333
L115070952 69465714
L114880476 69465714
L114785238 69513333
" />
<path d="M115213809 70084761
L115118571 70132380
L114880476 70132380
L114785238 70084761
L114737619 69989523
L114737619 69894285
L114785238 69799047
L114880476 69751428
L115118571 69751428
L115213809 69703809
" />
<path d="M115547142 69465714
L115928095 69465714
" />
<path d="M115690000 69132380
L115690000 69989523
L115737619 70084761
L115832857 70132380
L115928095 70132380
" />
<path d="M116118571 69465714
L116499523 69465714
" />
<path d="M116261428 69132380
L116261428 69989523
L116309047 70084761
L116404285 70132380
L116499523 70132380
" />
<path d="M117213809 70084761
L117118571 70132380
L116928095 70132380
L116832857 70084761
L116785238 69989523
L116785238 69608571
L116832857 69513333
L116928095 69465714
L117118571 69465714
L117213809 69513333
L117261428 69608571
L117261428 69703809
L116785238 69799047
" />
<path d="M117690000 70132380
L117690000 69465714
" />
<path d="M117690000 69656190
L117737619 69560952
L117785238 69513333
L117880476 69465714
L117975714 69465714
" />
<path d="M118213809 69465714
L118451904 70132380
" />
<path d="M118690000 69465714
L118451904 70132380
L118356666 70370476
L118309047 70418095
L118213809 70465714
" />
</g></g>
<g style="fill:#000000; fill-opacity:0.0; 
stroke:#000000; stroke-width:100000.000000; stroke-opacity:1; 
stroke-linecap:round; stroke-linejoin:round;">
<circle cx="98170000.000000" cy="125170000.000000" r="1666666.000000" /> 
<path d="M95670000 125170000
L100670000 125170000
" />
<path d="M98170000 122670000
L98170000 127670000
" />
<g >
</g>
<g >
</g>
<g >
</g>
<g >
</g>
<g >
</g>
<g >
</g>
<g >
</g>
<g >
</g>
<g >
</g>
<g >
</g>
<g >
</g>
<g >
</g>
<g >
</g>
<g >
</g>
<g >
</g>
<g >
</g>
<g >
</g>
<g >
</g>
<g >
</g>
<g >
</g>
<g >
</g>
<g >
</g>
<g >
</g>
<g >
</g>
<g >
</g>
<g >
</g>
<g >
</g>
<g >
</g>
<g >
</g>
<g >
</g>
<g >
</g>
<g >
</g>
<g >
</g>
<g >
</g>
<g >
</g>
<g >
</g>
</g> 
</svg>
