M48
; DRILL file {KiCad (6.0.4)} date Tue Nov 15 21:11:39 2022
; FORMAT={-:-/ absolute / metric / decimal}
; #@! TF.CreationDate,2022-11-15T21:11:39+01:00
; #@! TF.GenerationSoftware,Kicad,Pcbnew,(6.0.4)
; #@! TF.FileFunction,MixedPlating,1,2
FMAT,2
METRIC
; #@! TA.AperFunction,Plated,PTH,ViaDrill
T1C0.400
; #@! TA.AperFunction,Plated,PTH,ComponentDrill
T2C0.500
; #@! TA.AperFunction,Plated,PTH,ComponentDrill
T3C0.650
; #@! TA.AperFunction,Plated,PTH,ComponentDrill
T4C0.800
; #@! TA.AperFunction,Plated,PTH,ComponentDrill
T5C0.900
; #@! TA.AperFunction,Plated,PTH,ComponentDrill
T6C1.000
; #@! TA.AperFunction,Plated,PTH,ComponentDrill
T7C1.100
; #@! TA.AperFunction,Plated,PTH,ComponentDrill
T8C1.200
; #@! TA.AperFunction,Plated,PTH,ComponentDrill
T9C1.500
; #@! TA.AperFunction,Plated,PTH,ComponentDrill
T10C2.400
; #@! TA.AperFunction,Plated,PTH,ComponentDrill
T11C3.200
; #@! TA.AperFunction,NonPlated,NPTH,ComponentDrill
T12C1.100
; #@! TA.AperFunction,NonPlated,NPTH,ComponentDrill
T13C2.600
%
G90
G05
T1
X99.33Y-122.5
X99.7Y-90.74
X100.77Y-56.26
X106.934Y-69.342
X118.35Y-102.69
X119.06Y-90.38
X133.43Y-67.56
X137.668Y-87.15
X137.71Y-95.55
X138.88Y-68.52
X141.46Y-88.93
X142.08Y-56.52
X142.35Y-95.67
X143.27Y-123.99
X143.87Y-79.78
X144.15Y-67.44
X144.78Y-112.014
X147.828Y-70.104
X147.828Y-76.708
X150.368Y-87.376
X151.07Y-101.67
X154.94Y-78.486
X155.58Y-95.57
X155.58Y-102.64
X155.84Y-91.44
X157.988Y-79.248
X160.31Y-96.96
X163.64Y-96.94
X167.132Y-71.882
X170.23Y-76.62
X176.4Y-90.325
X176.73Y-122.63
X176.82Y-57.82
T2
X134.46Y-103.18
X135.163Y-101.483
X135.163Y-104.877
X136.86Y-100.78
X136.86Y-105.58
X138.557Y-101.483
X138.557Y-104.877
X139.26Y-103.18
T3
X152.965Y-75.96
X154.235Y-75.96
X155.505Y-75.96
T4
X134.875Y-72.575
X134.875Y-75.115
X142.495Y-72.575
X142.495Y-75.115
X142.65Y-104.43
X143.69Y-84.6
X145.005Y-97.615
X145.035Y-90.525
X147.545Y-97.615
X147.575Y-90.525
X150.085Y-97.615
X150.115Y-90.525
X151.31Y-84.6
X152.81Y-104.43
X158.31Y-83.12
X158.31Y-85.66
X158.31Y-88.2
X158.31Y-90.74
X158.31Y-93.28
X158.31Y-95.82
X158.31Y-98.36
X158.31Y-100.9
X158.31Y-103.44
X161.29Y-75.732
X161.29Y-78.232
X165.93Y-83.12
X165.93Y-85.66
X165.93Y-88.2
X165.93Y-90.74
X165.93Y-93.28
X165.93Y-95.82
X165.93Y-98.36
X165.93Y-100.9
X165.93Y-103.44
T5
X124.97Y-61.93
X128.97Y-61.93
X132.97Y-61.93
X140.35Y-61.825
X144.35Y-61.825
X148.35Y-61.825
X171.73Y-90.055
X171.73Y-94.63
X171.73Y-99.18
X171.755Y-80.93
X171.755Y-103.73
X171.78Y-85.505
X171.78Y-108.33
X171.805Y-112.93
X171.83Y-117.53
X171.88Y-122.18
X174.27Y-90.055
X174.27Y-94.63
X174.27Y-99.18
X174.295Y-80.93
X174.295Y-103.73
X174.32Y-85.505
X174.32Y-108.33
X174.345Y-112.93
X174.37Y-117.53
X174.42Y-122.18
T7
X159.8Y-63.6
T8
X122.97Y-57.68
X122.97Y-63.68
X134.97Y-57.68
X134.97Y-63.68
X138.35Y-57.575
X138.35Y-63.575
X150.35Y-57.575
X150.35Y-63.575
T9
X154.775Y-58.575
X154.775Y-68.625
X164.825Y-58.575
X164.825Y-68.625
T10
X110.55Y-69.3
X123.25Y-69.3
T11
X136.86Y-103.18
T12
X169.425Y-65.4
X174.425Y-65.4
T13
X105.8Y-80.2
X105.8Y-108.2
X128.0Y-93.45
T4
G00X169.625Y-69.15
M15
G01X169.625Y-69.65
M16
G05
G00X174.225Y-69.15
M15
G01X174.225Y-69.65
M16
G05
T6
G00X169.175Y-61.75
M15
G01X169.175Y-62.05
M16
G05
G00X174.675Y-61.75
M15
G01X174.675Y-62.05
M16
G05
T0
M30
