  0
SECTION
  2
HEADER
  9
$ANGBASE
  50
0.0
  9
$ANGDIR
  70
1
  9
$MEASUREMENT
  70
1
  0
ENDSEC
  0
SECTION
  2
TABLES
  0
TABLE
  2
LTYPE
  70
4
  0
LTYPE
  5
40F
  2
CONTINUOUS
  70
0
  3
Solid line
  72
65
  73
0
  40
0.0
  0
LTYPE
  5
410
  2
DASHDOT
 70
0
  3
Dash Dot ____ _ ____ _
 72
65
 73
4
 40
2.0
 49
1.25
 49
-0.25
 49
0.25
 49
-0.25
  0
LTYPE
  5
411
  2
DASHED
 70
0
  3
Dashed __ __ __ __ __
 72
65
 73
2
 40
0.75
 49
0.5
 49
-0.25
  0
LTYPE
  5
43B
  2
DOTTED
 70
0
  3
Dotted .  .  .  .
 72
65
 73
2
 40
0.2
 49
0.0
 49
-0.2
  0
ENDTAB
  0
TABLE
  2
STYLE
  70
4
  0
STYLE
  2
KICAD
  70
0
  40
0
  41
1
  42
1
  50
0
  71
0
  3
isocp.shx
  0
STYLE
  2
KICADB
  70
0
  40
0
  41
1
  42
1
  50
0
  71
0
  3
isocp.shx
  0
STYLE
  2
KICADI
  70
0
  40
0
  41
1
  42
1
  50
15
  71
0
  3
isocp.shx
  0
STYLE
  2
KICADBI
  70
0
  40
0
  41
1
  42
1
  50
15
  71
0
  3
isocp.shx
  0
ENDTAB
  0
TABLE
  2
LAYER
  70
1
  0
LAYER
  2
BLACK
  70
0
  62
7
  6
CONTINUOUS
  0
ENDTAB
  0
ENDSEC
  0
SECTION
  2
ENTITIES
0
LINE
8
BLACK
6
CONTINUOUS
10
177.79
20
-55.235
11
98.155
21
-55.235
0
LINE
8
BLACK
6
CONTINUOUS
10
98.155
20
-55.235
11
98.155
21
-125.185
0
LINE
8
BLACK
6
CONTINUOUS
10
98.155
20
-125.185
11
177.79
21
-125.185
0
LINE
8
BLACK
6
CONTINUOUS
10
177.79
20
-125.185
11
177.79
21
-55.235
0
LINE
8
BLACK
6
CONTINUOUS
10
168.875
20
-64.85
11
169.975
21
-65.95
0
LINE
8
BLACK
6
CONTINUOUS
10
169.975
20
-64.85
11
168.875
21
-65.95
0
LINE
8
BLACK
6
CONTINUOUS
10
173.875
20
-64.85
11
174.975
21
-65.95
0
LINE
8
BLACK
6
CONTINUOUS
10
174.975
20
-64.85
11
173.875
21
-65.95
0
CIRCLE
8
BLACK
10
105.8
20
-80.2
40
1.3
0
CIRCLE
8
BLACK
10
105.8
20
-108.2
40
1.3
0
CIRCLE
8
BLACK
10
128
20
-93.45
40
1.3
0
LINE
8
BLACK
6
CONTINUOUS
10
100.681
20
-128.34
11
100.681
21
-126.34
0
LINE
8
BLACK
6
CONTINUOUS
10
100.681
20
-126.34
11
101.157
21
-126.34
0
LINE
8
BLACK
6
CONTINUOUS
10
101.157
20
-126.34
11
101.443
21
-126.435
0
LINE
8
BLACK
6
CONTINUOUS
10
101.443
20
-126.435
11
101.634
21
-126.625
0
LINE
8
BLACK
6
CONTINUOUS
10
101.634
20
-126.625
11
101.729
21
-126.816
0
LINE
8
BLACK
6
CONTINUOUS
10
101.729
20
-126.816
11
101.824
21
-127.197
0
LINE
8
BLACK
6
CONTINUOUS
10
101.824
20
-127.197
11
101.824
21
-127.483
0
LINE
8
BLACK
6
CONTINUOUS
10
101.824
20
-127.483
11
101.729
21
-127.864
0
LINE
8
BLACK
6
CONTINUOUS
10
101.729
20
-127.864
11
101.634
21
-128.054
0
LINE
8
BLACK
6
CONTINUOUS
10
101.634
20
-128.054
11
101.443
21
-128.245
0
LINE
8
BLACK
6
CONTINUOUS
10
101.443
20
-128.245
11
101.157
21
-128.34
0
LINE
8
BLACK
6
CONTINUOUS
10
101.157
20
-128.34
11
100.681
21
-128.34
0
LINE
8
BLACK
6
CONTINUOUS
10
102.681
20
-128.34
11
102.681
21
-127.006
0
LINE
8
BLACK
6
CONTINUOUS
10
102.681
20
-127.387
11
102.776
21
-127.197
0
LINE
8
BLACK
6
CONTINUOUS
10
102.776
20
-127.197
11
102.872
21
-127.102
0
LINE
8
BLACK
6
CONTINUOUS
10
102.872
20
-127.102
11
103.062
21
-127.006
0
LINE
8
BLACK
6
CONTINUOUS
10
103.062
20
-127.006
11
103.253
21
-127.006
0
LINE
8
BLACK
6
CONTINUOUS
10
103.919
20
-128.34
11
103.919
21
-127.006
0
LINE
8
BLACK
6
CONTINUOUS
10
103.919
20
-126.34
11
103.824
21
-126.435
0
LINE
8
BLACK
6
CONTINUOUS
10
103.824
20
-126.435
11
103.919
21
-126.53
0
LINE
8
BLACK
6
CONTINUOUS
10
103.919
20
-126.53
11
104.015
21
-126.435
0
LINE
8
BLACK
6
CONTINUOUS
10
104.015
20
-126.435
11
103.919
21
-126.34
0
LINE
8
BLACK
6
CONTINUOUS
10
103.919
20
-126.34
11
103.919
21
-126.53
0
LINE
8
BLACK
6
CONTINUOUS
10
105.157
20
-128.34
11
104.967
21
-128.245
0
LINE
8
BLACK
6
CONTINUOUS
10
104.967
20
-128.245
11
104.872
21
-128.054
0
LINE
8
BLACK
6
CONTINUOUS
10
104.872
20
-128.054
11
104.872
21
-126.34
0
LINE
8
BLACK
6
CONTINUOUS
10
106.205
20
-128.34
11
106.015
21
-128.245
0
LINE
8
BLACK
6
CONTINUOUS
10
106.015
20
-128.245
11
105.919
21
-128.054
0
LINE
8
BLACK
6
CONTINUOUS
10
105.919
20
-128.054
11
105.919
21
-126.34
0
LINE
8
BLACK
6
CONTINUOUS
10
108.491
20
-128.34
11
108.491
21
-126.34
0
LINE
8
BLACK
6
CONTINUOUS
10
108.491
20
-126.34
11
109.157
21
-127.768
0
LINE
8
BLACK
6
CONTINUOUS
10
109.157
20
-127.768
11
109.824
21
-126.34
0
LINE
8
BLACK
6
CONTINUOUS
10
109.824
20
-126.34
11
109.824
21
-128.34
0
LINE
8
BLACK
6
CONTINUOUS
10
111.634
20
-128.34
11
111.634
21
-127.292
0
LINE
8
BLACK
6
CONTINUOUS
10
111.634
20
-127.292
11
111.538
21
-127.102
0
LINE
8
BLACK
6
CONTINUOUS
10
111.538
20
-127.102
11
111.348
21
-127.006
0
LINE
8
BLACK
6
CONTINUOUS
10
111.348
20
-127.006
11
110.967
21
-127.006
0
LINE
8
BLACK
6
CONTINUOUS
10
110.967
20
-127.006
11
110.776
21
-127.102
0
LINE
8
BLACK
6
CONTINUOUS
10
111.634
20
-128.245
11
111.443
21
-128.34
0
LINE
8
BLACK
6
CONTINUOUS
10
111.443
20
-128.34
11
110.967
21
-128.34
0
LINE
8
BLACK
6
CONTINUOUS
10
110.967
20
-128.34
11
110.776
21
-128.245
0
LINE
8
BLACK
6
CONTINUOUS
10
110.776
20
-128.245
11
110.681
21
-128.054
0
LINE
8
BLACK
6
CONTINUOUS
10
110.681
20
-128.054
11
110.681
21
-127.864
0
LINE
8
BLACK
6
CONTINUOUS
10
110.681
20
-127.864
11
110.776
21
-127.673
0
LINE
8
BLACK
6
CONTINUOUS
10
110.776
20
-127.673
11
110.967
21
-127.578
0
LINE
8
BLACK
6
CONTINUOUS
10
110.967
20
-127.578
11
111.443
21
-127.578
0
LINE
8
BLACK
6
CONTINUOUS
10
111.443
20
-127.578
11
111.634
21
-127.483
0
LINE
8
BLACK
6
CONTINUOUS
10
112.586
20
-127.006
11
112.586
21
-129.006
0
LINE
8
BLACK
6
CONTINUOUS
10
112.586
20
-127.102
11
112.776
21
-127.006
0
LINE
8
BLACK
6
CONTINUOUS
10
112.776
20
-127.006
11
113.157
21
-127.006
0
LINE
8
BLACK
6
CONTINUOUS
10
113.157
20
-127.006
11
113.348
21
-127.102
0
LINE
8
BLACK
6
CONTINUOUS
10
113.348
20
-127.102
11
113.443
21
-127.197
0
LINE
8
BLACK
6
CONTINUOUS
10
113.443
20
-127.197
11
113.538
21
-127.387
0
LINE
8
BLACK
6
CONTINUOUS
10
113.538
20
-127.387
11
113.538
21
-127.959
0
LINE
8
BLACK
6
CONTINUOUS
10
113.538
20
-127.959
11
113.443
21
-128.149
0
LINE
8
BLACK
6
CONTINUOUS
10
113.443
20
-128.149
11
113.348
21
-128.245
0
LINE
8
BLACK
6
CONTINUOUS
10
113.348
20
-128.245
11
113.157
21
-128.34
0
LINE
8
BLACK
6
CONTINUOUS
10
113.157
20
-128.34
11
112.776
21
-128.34
0
LINE
8
BLACK
6
CONTINUOUS
10
112.776
20
-128.34
11
112.586
21
-128.245
0
LINE
8
BLACK
6
CONTINUOUS
10
114.395
20
-128.149
11
114.491
21
-128.245
0
LINE
8
BLACK
6
CONTINUOUS
10
114.491
20
-128.245
11
114.395
21
-128.34
0
LINE
8
BLACK
6
CONTINUOUS
10
114.395
20
-128.34
11
114.3
21
-128.245
0
LINE
8
BLACK
6
CONTINUOUS
10
114.3
20
-128.245
11
114.395
21
-128.149
0
LINE
8
BLACK
6
CONTINUOUS
10
114.395
20
-128.149
11
114.395
21
-128.34
0
LINE
8
BLACK
6
CONTINUOUS
10
114.395
20
-127.102
11
114.491
21
-127.197
0
LINE
8
BLACK
6
CONTINUOUS
10
114.491
20
-127.197
11
114.395
21
-127.292
0
LINE
8
BLACK
6
CONTINUOUS
10
114.395
20
-127.292
11
114.3
21
-127.197
0
LINE
8
BLACK
6
CONTINUOUS
10
114.3
20
-127.197
11
114.395
21
-127.102
0
LINE
8
BLACK
6
CONTINUOUS
10
114.395
20
-127.102
11
114.395
21
-127.292
0
LINE
8
BLACK
6
CONTINUOUS
10
97.005
20
-131.085
11
98.105
21
-132.185
0
LINE
8
BLACK
6
CONTINUOUS
10
98.105
20
-131.085
11
97.005
21
-132.185
0
LINE
8
BLACK
6
CONTINUOUS
10
101.729
20
-132.54
11
100.586
21
-132.54
0
LINE
8
BLACK
6
CONTINUOUS
10
101.157
20
-132.54
11
101.157
21
-130.54
0
LINE
8
BLACK
6
CONTINUOUS
10
101.157
20
-130.54
11
100.967
21
-130.825
0
LINE
8
BLACK
6
CONTINUOUS
10
100.967
20
-130.825
11
100.776
21
-131.016
0
LINE
8
BLACK
6
CONTINUOUS
10
100.776
20
-131.016
11
100.586
21
-131.111
0
LINE
8
BLACK
6
CONTINUOUS
10
102.586
20
-132.349
11
102.681
21
-132.445
0
LINE
8
BLACK
6
CONTINUOUS
10
102.681
20
-132.445
11
102.586
21
-132.54
0
LINE
8
BLACK
6
CONTINUOUS
10
102.586
20
-132.54
11
102.491
21
-132.445
0
LINE
8
BLACK
6
CONTINUOUS
10
102.491
20
-132.445
11
102.586
21
-132.349
0
LINE
8
BLACK
6
CONTINUOUS
10
102.586
20
-132.349
11
102.586
21
-132.54
0
LINE
8
BLACK
6
CONTINUOUS
10
104.586
20
-132.54
11
103.443
21
-132.54
0
LINE
8
BLACK
6
CONTINUOUS
10
104.015
20
-132.54
11
104.015
21
-130.54
0
LINE
8
BLACK
6
CONTINUOUS
10
104.015
20
-130.54
11
103.824
21
-130.825
0
LINE
8
BLACK
6
CONTINUOUS
10
103.824
20
-130.825
11
103.634
21
-131.016
0
LINE
8
BLACK
6
CONTINUOUS
10
103.634
20
-131.016
11
103.443
21
-131.111
0
LINE
8
BLACK
6
CONTINUOUS
10
105.824
20
-130.54
11
106.015
21
-130.54
0
LINE
8
BLACK
6
CONTINUOUS
10
106.015
20
-130.54
11
106.205
21
-130.635
0
LINE
8
BLACK
6
CONTINUOUS
10
106.205
20
-130.635
11
106.3
21
-130.73
0
LINE
8
BLACK
6
CONTINUOUS
10
106.3
20
-130.73
11
106.395
21
-130.921
0
LINE
8
BLACK
6
CONTINUOUS
10
106.395
20
-130.921
11
106.491
21
-131.302
0
LINE
8
BLACK
6
CONTINUOUS
10
106.491
20
-131.302
11
106.491
21
-131.778
0
LINE
8
BLACK
6
CONTINUOUS
10
106.491
20
-131.778
11
106.395
21
-132.159
0
LINE
8
BLACK
6
CONTINUOUS
10
106.395
20
-132.159
11
106.3
21
-132.349
0
LINE
8
BLACK
6
CONTINUOUS
10
106.3
20
-132.349
11
106.205
21
-132.445
0
LINE
8
BLACK
6
CONTINUOUS
10
106.205
20
-132.445
11
106.015
21
-132.54
0
LINE
8
BLACK
6
CONTINUOUS
10
106.015
20
-132.54
11
105.824
21
-132.54
0
LINE
8
BLACK
6
CONTINUOUS
10
105.824
20
-132.54
11
105.634
21
-132.445
0
LINE
8
BLACK
6
CONTINUOUS
10
105.634
20
-132.445
11
105.538
21
-132.349
0
LINE
8
BLACK
6
CONTINUOUS
10
105.538
20
-132.349
11
105.443
21
-132.159
0
LINE
8
BLACK
6
CONTINUOUS
10
105.443
20
-132.159
11
105.348
21
-131.778
0
LINE
8
BLACK
6
CONTINUOUS
10
105.348
20
-131.778
11
105.348
21
-131.302
0
LINE
8
BLACK
6
CONTINUOUS
10
105.348
20
-131.302
11
105.443
21
-130.921
0
LINE
8
BLACK
6
CONTINUOUS
10
105.443
20
-130.921
11
105.538
21
-130.73
0
LINE
8
BLACK
6
CONTINUOUS
10
105.538
20
-130.73
11
105.634
21
-130.635
0
LINE
8
BLACK
6
CONTINUOUS
10
105.634
20
-130.635
11
105.824
21
-130.54
0
LINE
8
BLACK
6
CONTINUOUS
10
107.729
20
-130.54
11
107.919
21
-130.54
0
LINE
8
BLACK
6
CONTINUOUS
10
107.919
20
-130.54
11
108.11
21
-130.635
0
LINE
8
BLACK
6
CONTINUOUS
10
108.11
20
-130.635
11
108.205
21
-130.73
0
LINE
8
BLACK
6
CONTINUOUS
10
108.205
20
-130.73
11
108.3
21
-130.921
0
LINE
8
BLACK
6
CONTINUOUS
10
108.3
20
-130.921
11
108.395
21
-131.302
0
LINE
8
BLACK
6
CONTINUOUS
10
108.395
20
-131.302
11
108.395
21
-131.778
0
LINE
8
BLACK
6
CONTINUOUS
10
108.395
20
-131.778
11
108.3
21
-132.159
0
LINE
8
BLACK
6
CONTINUOUS
10
108.3
20
-132.159
11
108.205
21
-132.349
0
LINE
8
BLACK
6
CONTINUOUS
10
108.205
20
-132.349
11
108.11
21
-132.445
0
LINE
8
BLACK
6
CONTINUOUS
10
108.11
20
-132.445
11
107.919
21
-132.54
0
LINE
8
BLACK
6
CONTINUOUS
10
107.919
20
-132.54
11
107.729
21
-132.54
0
LINE
8
BLACK
6
CONTINUOUS
10
107.729
20
-132.54
11
107.538
21
-132.445
0
LINE
8
BLACK
6
CONTINUOUS
10
107.538
20
-132.445
11
107.443
21
-132.349
0
LINE
8
BLACK
6
CONTINUOUS
10
107.443
20
-132.349
11
107.348
21
-132.159
0
LINE
8
BLACK
6
CONTINUOUS
10
107.348
20
-132.159
11
107.253
21
-131.778
0
LINE
8
BLACK
6
CONTINUOUS
10
107.253
20
-131.778
11
107.253
21
-131.302
0
LINE
8
BLACK
6
CONTINUOUS
10
107.253
20
-131.302
11
107.348
21
-130.921
0
LINE
8
BLACK
6
CONTINUOUS
10
107.348
20
-130.921
11
107.443
21
-130.73
0
LINE
8
BLACK
6
CONTINUOUS
10
107.443
20
-130.73
11
107.538
21
-130.635
0
LINE
8
BLACK
6
CONTINUOUS
10
107.538
20
-130.635
11
107.729
21
-130.54
0
LINE
8
BLACK
6
CONTINUOUS
10
109.253
20
-132.54
11
109.253
21
-131.206
0
LINE
8
BLACK
6
CONTINUOUS
10
109.253
20
-131.397
11
109.348
21
-131.302
0
LINE
8
BLACK
6
CONTINUOUS
10
109.348
20
-131.302
11
109.538
21
-131.206
0
LINE
8
BLACK
6
CONTINUOUS
10
109.538
20
-131.206
11
109.824
21
-131.206
0
LINE
8
BLACK
6
CONTINUOUS
10
109.824
20
-131.206
11
110.015
21
-131.302
0
LINE
8
BLACK
6
CONTINUOUS
10
110.015
20
-131.302
11
110.11
21
-131.492
0
LINE
8
BLACK
6
CONTINUOUS
10
110.11
20
-131.492
11
110.11
21
-132.54
0
LINE
8
BLACK
6
CONTINUOUS
10
110.11
20
-131.492
11
110.205
21
-131.302
0
LINE
8
BLACK
6
CONTINUOUS
10
110.205
20
-131.302
11
110.395
21
-131.206
0
LINE
8
BLACK
6
CONTINUOUS
10
110.395
20
-131.206
11
110.681
21
-131.206
0
LINE
8
BLACK
6
CONTINUOUS
10
110.681
20
-131.206
11
110.872
21
-131.302
0
LINE
8
BLACK
6
CONTINUOUS
10
110.872
20
-131.302
11
110.967
21
-131.492
0
LINE
8
BLACK
6
CONTINUOUS
10
110.967
20
-131.492
11
110.967
21
-132.54
0
LINE
8
BLACK
6
CONTINUOUS
10
111.919
20
-132.54
11
111.919
21
-131.206
0
LINE
8
BLACK
6
CONTINUOUS
10
111.919
20
-131.397
11
112.015
21
-131.302
0
LINE
8
BLACK
6
CONTINUOUS
10
112.015
20
-131.302
11
112.205
21
-131.206
0
LINE
8
BLACK
6
CONTINUOUS
10
112.205
20
-131.206
11
112.491
21
-131.206
0
LINE
8
BLACK
6
CONTINUOUS
10
112.491
20
-131.206
11
112.681
21
-131.302
0
LINE
8
BLACK
6
CONTINUOUS
10
112.681
20
-131.302
11
112.776
21
-131.492
0
LINE
8
BLACK
6
CONTINUOUS
10
112.776
20
-131.492
11
112.776
21
-132.54
0
LINE
8
BLACK
6
CONTINUOUS
10
112.776
20
-131.492
11
112.872
21
-131.302
0
LINE
8
BLACK
6
CONTINUOUS
10
112.872
20
-131.302
11
113.062
21
-131.206
0
LINE
8
BLACK
6
CONTINUOUS
10
113.062
20
-131.206
11
113.348
21
-131.206
0
LINE
8
BLACK
6
CONTINUOUS
10
113.348
20
-131.206
11
113.538
21
-131.302
0
LINE
8
BLACK
6
CONTINUOUS
10
113.538
20
-131.302
11
113.634
21
-131.492
0
LINE
8
BLACK
6
CONTINUOUS
10
113.634
20
-131.492
11
113.634
21
-132.54
0
LINE
8
BLACK
6
CONTINUOUS
10
117.538
20
-130.445
11
115.824
21
-133.016
0
LINE
8
BLACK
6
CONTINUOUS
10
120.11
20
-130.54
11
120.3
21
-130.54
0
LINE
8
BLACK
6
CONTINUOUS
10
120.3
20
-130.54
11
120.491
21
-130.635
0
LINE
8
BLACK
6
CONTINUOUS
10
120.491
20
-130.635
11
120.586
21
-130.73
0
LINE
8
BLACK
6
CONTINUOUS
10
120.586
20
-130.73
11
120.681
21
-130.921
0
LINE
8
BLACK
6
CONTINUOUS
10
120.681
20
-130.921
11
120.776
21
-131.302
0
LINE
8
BLACK
6
CONTINUOUS
10
120.776
20
-131.302
11
120.776
21
-131.778
0
LINE
8
BLACK
6
CONTINUOUS
10
120.776
20
-131.778
11
120.681
21
-132.159
0
LINE
8
BLACK
6
CONTINUOUS
10
120.681
20
-132.159
11
120.586
21
-132.349
0
LINE
8
BLACK
6
CONTINUOUS
10
120.586
20
-132.349
11
120.491
21
-132.445
0
LINE
8
BLACK
6
CONTINUOUS
10
120.491
20
-132.445
11
120.3
21
-132.54
0
LINE
8
BLACK
6
CONTINUOUS
10
120.3
20
-132.54
11
120.11
21
-132.54
0
LINE
8
BLACK
6
CONTINUOUS
10
120.11
20
-132.54
11
119.919
21
-132.445
0
LINE
8
BLACK
6
CONTINUOUS
10
119.919
20
-132.445
11
119.824
21
-132.349
0
LINE
8
BLACK
6
CONTINUOUS
10
119.824
20
-132.349
11
119.729
21
-132.159
0
LINE
8
BLACK
6
CONTINUOUS
10
119.729
20
-132.159
11
119.634
21
-131.778
0
LINE
8
BLACK
6
CONTINUOUS
10
119.634
20
-131.778
11
119.634
21
-131.302
0
LINE
8
BLACK
6
CONTINUOUS
10
119.634
20
-131.302
11
119.729
21
-130.921
0
LINE
8
BLACK
6
CONTINUOUS
10
119.729
20
-130.921
11
119.824
21
-130.73
0
LINE
8
BLACK
6
CONTINUOUS
10
119.824
20
-130.73
11
119.919
21
-130.635
0
LINE
8
BLACK
6
CONTINUOUS
10
119.919
20
-130.635
11
120.11
21
-130.54
0
LINE
8
BLACK
6
CONTINUOUS
10
121.634
20
-132.349
11
121.729
21
-132.445
0
LINE
8
BLACK
6
CONTINUOUS
10
121.729
20
-132.445
11
121.634
21
-132.54
0
LINE
8
BLACK
6
CONTINUOUS
10
121.634
20
-132.54
11
121.538
21
-132.445
0
LINE
8
BLACK
6
CONTINUOUS
10
121.538
20
-132.445
11
121.634
21
-132.349
0
LINE
8
BLACK
6
CONTINUOUS
10
121.634
20
-132.349
11
121.634
21
-132.54
0
LINE
8
BLACK
6
CONTINUOUS
10
122.967
20
-130.54
11
123.157
21
-130.54
0
LINE
8
BLACK
6
CONTINUOUS
10
123.157
20
-130.54
11
123.348
21
-130.635
0
LINE
8
BLACK
6
CONTINUOUS
10
123.348
20
-130.635
11
123.443
21
-130.73
0
LINE
8
BLACK
6
CONTINUOUS
10
123.443
20
-130.73
11
123.538
21
-130.921
0
LINE
8
BLACK
6
CONTINUOUS
10
123.538
20
-130.921
11
123.634
21
-131.302
0
LINE
8
BLACK
6
CONTINUOUS
10
123.634
20
-131.302
11
123.634
21
-131.778
0
LINE
8
BLACK
6
CONTINUOUS
10
123.634
20
-131.778
11
123.538
21
-132.159
0
LINE
8
BLACK
6
CONTINUOUS
10
123.538
20
-132.159
11
123.443
21
-132.349
0
LINE
8
BLACK
6
CONTINUOUS
10
123.443
20
-132.349
11
123.348
21
-132.445
0
LINE
8
BLACK
6
CONTINUOUS
10
123.348
20
-132.445
11
123.157
21
-132.54
0
LINE
8
BLACK
6
CONTINUOUS
10
123.157
20
-132.54
11
122.967
21
-132.54
0
LINE
8
BLACK
6
CONTINUOUS
10
122.967
20
-132.54
11
122.776
21
-132.445
0
LINE
8
BLACK
6
CONTINUOUS
10
122.776
20
-132.445
11
122.681
21
-132.349
0
LINE
8
BLACK
6
CONTINUOUS
10
122.681
20
-132.349
11
122.586
21
-132.159
0
LINE
8
BLACK
6
CONTINUOUS
10
122.586
20
-132.159
11
122.491
21
-131.778
0
LINE
8
BLACK
6
CONTINUOUS
10
122.491
20
-131.778
11
122.491
21
-131.302
0
LINE
8
BLACK
6
CONTINUOUS
10
122.491
20
-131.302
11
122.586
21
-130.921
0
LINE
8
BLACK
6
CONTINUOUS
10
122.586
20
-130.921
11
122.681
21
-130.73
0
LINE
8
BLACK
6
CONTINUOUS
10
122.681
20
-130.73
11
122.776
21
-130.635
0
LINE
8
BLACK
6
CONTINUOUS
10
122.776
20
-130.635
11
122.967
21
-130.54
0
LINE
8
BLACK
6
CONTINUOUS
10
125.348
20
-131.206
11
125.348
21
-132.54
0
LINE
8
BLACK
6
CONTINUOUS
10
124.872
20
-130.445
11
124.395
21
-131.873
0
LINE
8
BLACK
6
CONTINUOUS
10
124.395
20
-131.873
11
125.634
21
-131.873
0
LINE
8
BLACK
6
CONTINUOUS
10
126.205
20
-130.54
11
127.443
21
-130.54
0
LINE
8
BLACK
6
CONTINUOUS
10
127.443
20
-130.54
11
126.776
21
-131.302
0
LINE
8
BLACK
6
CONTINUOUS
10
126.776
20
-131.302
11
127.062
21
-131.302
0
LINE
8
BLACK
6
CONTINUOUS
10
127.062
20
-131.302
11
127.253
21
-131.397
0
LINE
8
BLACK
6
CONTINUOUS
10
127.253
20
-131.397
11
127.348
21
-131.492
0
LINE
8
BLACK
6
CONTINUOUS
10
127.348
20
-131.492
11
127.443
21
-131.683
0
LINE
8
BLACK
6
CONTINUOUS
10
127.443
20
-131.683
11
127.443
21
-132.159
0
LINE
8
BLACK
6
CONTINUOUS
10
127.443
20
-132.159
11
127.348
21
-132.349
0
LINE
8
BLACK
6
CONTINUOUS
10
127.348
20
-132.349
11
127.253
21
-132.445
0
LINE
8
BLACK
6
CONTINUOUS
10
127.253
20
-132.445
11
127.062
21
-132.54
0
LINE
8
BLACK
6
CONTINUOUS
10
127.062
20
-132.54
11
126.491
21
-132.54
0
LINE
8
BLACK
6
CONTINUOUS
10
126.491
20
-132.54
11
126.3
21
-132.445
0
LINE
8
BLACK
6
CONTINUOUS
10
126.3
20
-132.445
11
126.205
21
-132.349
0
LINE
8
BLACK
6
CONTINUOUS
10
128.11
20
-130.54
11
129.348
21
-130.54
0
LINE
8
BLACK
6
CONTINUOUS
10
129.348
20
-130.54
11
128.681
21
-131.302
0
LINE
8
BLACK
6
CONTINUOUS
10
128.681
20
-131.302
11
128.967
21
-131.302
0
LINE
8
BLACK
6
CONTINUOUS
10
128.967
20
-131.302
11
129.157
21
-131.397
0
LINE
8
BLACK
6
CONTINUOUS
10
129.157
20
-131.397
11
129.253
21
-131.492
0
LINE
8
BLACK
6
CONTINUOUS
10
129.253
20
-131.492
11
129.348
21
-131.683
0
LINE
8
BLACK
6
CONTINUOUS
10
129.348
20
-131.683
11
129.348
21
-132.159
0
LINE
8
BLACK
6
CONTINUOUS
10
129.348
20
-132.159
11
129.253
21
-132.349
0
LINE
8
BLACK
6
CONTINUOUS
10
129.253
20
-132.349
11
129.157
21
-132.445
0
LINE
8
BLACK
6
CONTINUOUS
10
129.157
20
-132.445
11
128.967
21
-132.54
0
LINE
8
BLACK
6
CONTINUOUS
10
128.967
20
-132.54
11
128.395
21
-132.54
0
LINE
8
BLACK
6
CONTINUOUS
10
128.395
20
-132.54
11
128.205
21
-132.445
0
LINE
8
BLACK
6
CONTINUOUS
10
128.205
20
-132.445
11
128.11
21
-132.349
0
LINE
8
BLACK
6
CONTINUOUS
10
130.11
20
-130.54
11
130.11
21
-130.921
0
LINE
8
BLACK
6
CONTINUOUS
10
130.872
20
-130.54
11
130.872
21
-130.921
0
LINE
8
BLACK
6
CONTINUOUS
10
133.824
20
-133.302
11
133.729
21
-133.206
0
LINE
8
BLACK
6
CONTINUOUS
10
133.729
20
-133.206
11
133.538
21
-132.921
0
LINE
8
BLACK
6
CONTINUOUS
10
133.538
20
-132.921
11
133.443
21
-132.73
0
LINE
8
BLACK
6
CONTINUOUS
10
133.443
20
-132.73
11
133.348
21
-132.445
0
LINE
8
BLACK
6
CONTINUOUS
10
133.348
20
-132.445
11
133.253
21
-131.968
0
LINE
8
BLACK
6
CONTINUOUS
10
133.253
20
-131.968
11
133.253
21
-131.587
0
LINE
8
BLACK
6
CONTINUOUS
10
133.253
20
-131.587
11
133.348
21
-131.111
0
LINE
8
BLACK
6
CONTINUOUS
10
133.348
20
-131.111
11
133.443
21
-130.825
0
LINE
8
BLACK
6
CONTINUOUS
10
133.443
20
-130.825
11
133.538
21
-130.635
0
LINE
8
BLACK
6
CONTINUOUS
10
133.538
20
-130.635
11
133.729
21
-130.349
0
LINE
8
BLACK
6
CONTINUOUS
10
133.729
20
-130.349
11
133.824
21
-130.254
0
LINE
8
BLACK
6
CONTINUOUS
10
134.491
20
-130.73
11
134.586
21
-130.635
0
LINE
8
BLACK
6
CONTINUOUS
10
134.586
20
-130.635
11
134.776
21
-130.54
0
LINE
8
BLACK
6
CONTINUOUS
10
134.776
20
-130.54
11
135.253
21
-130.54
0
LINE
8
BLACK
6
CONTINUOUS
10
135.253
20
-130.54
11
135.443
21
-130.635
0
LINE
8
BLACK
6
CONTINUOUS
10
135.443
20
-130.635
11
135.538
21
-130.73
0
LINE
8
BLACK
6
CONTINUOUS
10
135.538
20
-130.73
11
135.634
21
-130.921
0
LINE
8
BLACK
6
CONTINUOUS
10
135.634
20
-130.921
11
135.634
21
-131.111
0
LINE
8
BLACK
6
CONTINUOUS
10
135.634
20
-131.111
11
135.538
21
-131.397
0
LINE
8
BLACK
6
CONTINUOUS
10
135.538
20
-131.397
11
134.395
21
-132.54
0
LINE
8
BLACK
6
CONTINUOUS
10
134.395
20
-132.54
11
135.634
21
-132.54
0
LINE
8
BLACK
6
CONTINUOUS
10
138.015
20
-132.54
11
138.015
21
-130.54
0
LINE
8
BLACK
6
CONTINUOUS
10
138.872
20
-132.54
11
138.872
21
-131.492
0
LINE
8
BLACK
6
CONTINUOUS
10
138.872
20
-131.492
11
138.776
21
-131.302
0
LINE
8
BLACK
6
CONTINUOUS
10
138.776
20
-131.302
11
138.586
21
-131.206
0
LINE
8
BLACK
6
CONTINUOUS
10
138.586
20
-131.206
11
138.3
21
-131.206
0
LINE
8
BLACK
6
CONTINUOUS
10
138.3
20
-131.206
11
138.11
21
-131.302
0
LINE
8
BLACK
6
CONTINUOUS
10
138.11
20
-131.302
11
138.015
21
-131.397
0
LINE
8
BLACK
6
CONTINUOUS
10
140.11
20
-132.54
11
139.919
21
-132.445
0
LINE
8
BLACK
6
CONTINUOUS
10
139.919
20
-132.445
11
139.824
21
-132.349
0
LINE
8
BLACK
6
CONTINUOUS
10
139.824
20
-132.349
11
139.729
21
-132.159
0
LINE
8
BLACK
6
CONTINUOUS
10
139.729
20
-132.159
11
139.729
21
-131.587
0
LINE
8
BLACK
6
CONTINUOUS
10
139.729
20
-131.587
11
139.824
21
-131.397
0
LINE
8
BLACK
6
CONTINUOUS
10
139.824
20
-131.397
11
139.919
21
-131.302
0
LINE
8
BLACK
6
CONTINUOUS
10
139.919
20
-131.302
11
140.11
21
-131.206
0
LINE
8
BLACK
6
CONTINUOUS
10
140.11
20
-131.206
11
140.395
21
-131.206
0
LINE
8
BLACK
6
CONTINUOUS
10
140.395
20
-131.206
11
140.586
21
-131.302
0
LINE
8
BLACK
6
CONTINUOUS
10
140.586
20
-131.302
11
140.681
21
-131.397
0
LINE
8
BLACK
6
CONTINUOUS
10
140.681
20
-131.397
11
140.776
21
-131.587
0
LINE
8
BLACK
6
CONTINUOUS
10
140.776
20
-131.587
11
140.776
21
-132.159
0
LINE
8
BLACK
6
CONTINUOUS
10
140.776
20
-132.159
11
140.681
21
-132.349
0
LINE
8
BLACK
6
CONTINUOUS
10
140.681
20
-132.349
11
140.586
21
-132.445
0
LINE
8
BLACK
6
CONTINUOUS
10
140.586
20
-132.445
11
140.395
21
-132.54
0
LINE
8
BLACK
6
CONTINUOUS
10
140.395
20
-132.54
11
140.11
21
-132.54
0
LINE
8
BLACK
6
CONTINUOUS
10
141.919
20
-132.54
11
141.729
21
-132.445
0
LINE
8
BLACK
6
CONTINUOUS
10
141.729
20
-132.445
11
141.634
21
-132.254
0
LINE
8
BLACK
6
CONTINUOUS
10
141.634
20
-132.254
11
141.634
21
-130.54
0
LINE
8
BLACK
6
CONTINUOUS
10
143.443
20
-132.445
11
143.253
21
-132.54
0
LINE
8
BLACK
6
CONTINUOUS
10
143.253
20
-132.54
11
142.872
21
-132.54
0
LINE
8
BLACK
6
CONTINUOUS
10
142.872
20
-132.54
11
142.681
21
-132.445
0
LINE
8
BLACK
6
CONTINUOUS
10
142.681
20
-132.445
11
142.586
21
-132.254
0
LINE
8
BLACK
6
CONTINUOUS
10
142.586
20
-132.254
11
142.586
21
-131.492
0
LINE
8
BLACK
6
CONTINUOUS
10
142.586
20
-131.492
11
142.681
21
-131.302
0
LINE
8
BLACK
6
CONTINUOUS
10
142.681
20
-131.302
11
142.872
21
-131.206
0
LINE
8
BLACK
6
CONTINUOUS
10
142.872
20
-131.206
11
143.253
21
-131.206
0
LINE
8
BLACK
6
CONTINUOUS
10
143.253
20
-131.206
11
143.443
21
-131.302
0
LINE
8
BLACK
6
CONTINUOUS
10
143.443
20
-131.302
11
143.538
21
-131.492
0
LINE
8
BLACK
6
CONTINUOUS
10
143.538
20
-131.492
11
143.538
21
-131.683
0
LINE
8
BLACK
6
CONTINUOUS
10
143.538
20
-131.683
11
142.586
21
-131.873
0
LINE
8
BLACK
6
CONTINUOUS
10
144.3
20
-132.445
11
144.491
21
-132.54
0
LINE
8
BLACK
6
CONTINUOUS
10
144.491
20
-132.54
11
144.872
21
-132.54
0
LINE
8
BLACK
6
CONTINUOUS
10
144.872
20
-132.54
11
145.062
21
-132.445
0
LINE
8
BLACK
6
CONTINUOUS
10
145.062
20
-132.445
11
145.157
21
-132.254
0
LINE
8
BLACK
6
CONTINUOUS
10
145.157
20
-132.254
11
145.157
21
-132.159
0
LINE
8
BLACK
6
CONTINUOUS
10
145.157
20
-132.159
11
145.062
21
-131.968
0
LINE
8
BLACK
6
CONTINUOUS
10
145.062
20
-131.968
11
144.872
21
-131.873
0
LINE
8
BLACK
6
CONTINUOUS
10
144.872
20
-131.873
11
144.586
21
-131.873
0
LINE
8
BLACK
6
CONTINUOUS
10
144.586
20
-131.873
11
144.395
21
-131.778
0
LINE
8
BLACK
6
CONTINUOUS
10
144.395
20
-131.778
11
144.3
21
-131.587
0
LINE
8
BLACK
6
CONTINUOUS
10
144.3
20
-131.587
11
144.3
21
-131.492
0
LINE
8
BLACK
6
CONTINUOUS
10
144.3
20
-131.492
11
144.395
21
-131.302
0
LINE
8
BLACK
6
CONTINUOUS
10
144.395
20
-131.302
11
144.586
21
-131.206
0
LINE
8
BLACK
6
CONTINUOUS
10
144.586
20
-131.206
11
144.872
21
-131.206
0
LINE
8
BLACK
6
CONTINUOUS
10
144.872
20
-131.206
11
145.062
21
-131.302
0
LINE
8
BLACK
6
CONTINUOUS
10
145.824
20
-133.302
11
145.919
21
-133.206
0
LINE
8
BLACK
6
CONTINUOUS
10
145.919
20
-133.206
11
146.11
21
-132.921
0
LINE
8
BLACK
6
CONTINUOUS
10
146.11
20
-132.921
11
146.205
21
-132.73
0
LINE
8
BLACK
6
CONTINUOUS
10
146.205
20
-132.73
11
146.3
21
-132.445
0
LINE
8
BLACK
6
CONTINUOUS
10
146.3
20
-132.445
11
146.395
21
-131.968
0
LINE
8
BLACK
6
CONTINUOUS
10
146.395
20
-131.968
11
146.395
21
-131.587
0
LINE
8
BLACK
6
CONTINUOUS
10
146.395
20
-131.587
11
146.3
21
-131.111
0
LINE
8
BLACK
6
CONTINUOUS
10
146.3
20
-131.111
11
146.205
21
-130.825
0
LINE
8
BLACK
6
CONTINUOUS
10
146.205
20
-130.825
11
146.11
21
-130.635
0
LINE
8
BLACK
6
CONTINUOUS
10
146.11
20
-130.635
11
145.919
21
-130.349
0
LINE
8
BLACK
6
CONTINUOUS
10
145.919
20
-130.349
11
145.824
21
-130.254
0
LINE
8
BLACK
6
CONTINUOUS
10
149.443
20
-133.302
11
149.348
21
-133.206
0
LINE
8
BLACK
6
CONTINUOUS
10
149.348
20
-133.206
11
149.157
21
-132.921
0
LINE
8
BLACK
6
CONTINUOUS
10
149.157
20
-132.921
11
149.062
21
-132.73
0
LINE
8
BLACK
6
CONTINUOUS
10
149.062
20
-132.73
11
148.967
21
-132.445
0
LINE
8
BLACK
6
CONTINUOUS
10
148.967
20
-132.445
11
148.872
21
-131.968
0
LINE
8
BLACK
6
CONTINUOUS
10
148.872
20
-131.968
11
148.872
21
-131.587
0
LINE
8
BLACK
6
CONTINUOUS
10
148.872
20
-131.587
11
148.967
21
-131.111
0
LINE
8
BLACK
6
CONTINUOUS
10
148.967
20
-131.111
11
149.062
21
-130.825
0
LINE
8
BLACK
6
CONTINUOUS
10
149.062
20
-130.825
11
149.157
21
-130.635
0
LINE
8
BLACK
6
CONTINUOUS
10
149.157
20
-130.635
11
149.348
21
-130.349
0
LINE
8
BLACK
6
CONTINUOUS
10
149.348
20
-130.349
11
149.443
21
-130.254
0
LINE
8
BLACK
6
CONTINUOUS
10
150.205
20
-131.206
11
150.205
21
-132.54
0
LINE
8
BLACK
6
CONTINUOUS
10
150.205
20
-131.397
11
150.3
21
-131.302
0
LINE
8
BLACK
6
CONTINUOUS
10
150.3
20
-131.302
11
150.491
21
-131.206
0
LINE
8
BLACK
6
CONTINUOUS
10
150.491
20
-131.206
11
150.776
21
-131.206
0
LINE
8
BLACK
6
CONTINUOUS
10
150.776
20
-131.206
11
150.967
21
-131.302
0
LINE
8
BLACK
6
CONTINUOUS
10
150.967
20
-131.302
11
151.062
21
-131.492
0
LINE
8
BLACK
6
CONTINUOUS
10
151.062
20
-131.492
11
151.062
21
-132.54
0
LINE
8
BLACK
6
CONTINUOUS
10
152.3
20
-132.54
11
152.11
21
-132.445
0
LINE
8
BLACK
6
CONTINUOUS
10
152.11
20
-132.445
11
152.015
21
-132.349
0
LINE
8
BLACK
6
CONTINUOUS
10
152.015
20
-132.349
11
151.919
21
-132.159
0
LINE
8
BLACK
6
CONTINUOUS
10
151.919
20
-132.159
11
151.919
21
-131.587
0
LINE
8
BLACK
6
CONTINUOUS
10
151.919
20
-131.587
11
152.015
21
-131.397
0
LINE
8
BLACK
6
CONTINUOUS
10
152.015
20
-131.397
11
152.11
21
-131.302
0
LINE
8
BLACK
6
CONTINUOUS
10
152.11
20
-131.302
11
152.3
21
-131.206
0
LINE
8
BLACK
6
CONTINUOUS
10
152.3
20
-131.206
11
152.586
21
-131.206
0
LINE
8
BLACK
6
CONTINUOUS
10
152.586
20
-131.206
11
152.776
21
-131.302
0
LINE
8
BLACK
6
CONTINUOUS
10
152.776
20
-131.302
11
152.872
21
-131.397
0
LINE
8
BLACK
6
CONTINUOUS
10
152.872
20
-131.397
11
152.967
21
-131.587
0
LINE
8
BLACK
6
CONTINUOUS
10
152.967
20
-131.587
11
152.967
21
-132.159
0
LINE
8
BLACK
6
CONTINUOUS
10
152.967
20
-132.159
11
152.872
21
-132.349
0
LINE
8
BLACK
6
CONTINUOUS
10
152.872
20
-132.349
11
152.776
21
-132.445
0
LINE
8
BLACK
6
CONTINUOUS
10
152.776
20
-132.445
11
152.586
21
-132.54
0
LINE
8
BLACK
6
CONTINUOUS
10
152.586
20
-132.54
11
152.3
21
-132.54
0
LINE
8
BLACK
6
CONTINUOUS
10
153.538
20
-131.206
11
154.3
21
-131.206
0
LINE
8
BLACK
6
CONTINUOUS
10
153.824
20
-130.54
11
153.824
21
-132.254
0
LINE
8
BLACK
6
CONTINUOUS
10
153.824
20
-132.254
11
153.919
21
-132.445
0
LINE
8
BLACK
6
CONTINUOUS
10
153.919
20
-132.445
11
154.11
21
-132.54
0
LINE
8
BLACK
6
CONTINUOUS
10
154.11
20
-132.54
11
154.3
21
-132.54
0
LINE
8
BLACK
6
CONTINUOUS
10
156.491
20
-131.206
11
156.491
21
-133.206
0
LINE
8
BLACK
6
CONTINUOUS
10
156.491
20
-131.302
11
156.681
21
-131.206
0
LINE
8
BLACK
6
CONTINUOUS
10
156.681
20
-131.206
11
157.062
21
-131.206
0
LINE
8
BLACK
6
CONTINUOUS
10
157.062
20
-131.206
11
157.253
21
-131.302
0
LINE
8
BLACK
6
CONTINUOUS
10
157.253
20
-131.302
11
157.348
21
-131.397
0
LINE
8
BLACK
6
CONTINUOUS
10
157.348
20
-131.397
11
157.443
21
-131.587
0
LINE
8
BLACK
6
CONTINUOUS
10
157.443
20
-131.587
11
157.443
21
-132.159
0
LINE
8
BLACK
6
CONTINUOUS
10
157.443
20
-132.159
11
157.348
21
-132.349
0
LINE
8
BLACK
6
CONTINUOUS
10
157.348
20
-132.349
11
157.253
21
-132.445
0
LINE
8
BLACK
6
CONTINUOUS
10
157.253
20
-132.445
11
157.062
21
-132.54
0
LINE
8
BLACK
6
CONTINUOUS
10
157.062
20
-132.54
11
156.681
21
-132.54
0
LINE
8
BLACK
6
CONTINUOUS
10
156.681
20
-132.54
11
156.491
21
-132.445
0
LINE
8
BLACK
6
CONTINUOUS
10
158.586
20
-132.54
11
158.395
21
-132.445
0
LINE
8
BLACK
6
CONTINUOUS
10
158.395
20
-132.445
11
158.3
21
-132.254
0
LINE
8
BLACK
6
CONTINUOUS
10
158.3
20
-132.254
11
158.3
21
-130.54
0
LINE
8
BLACK
6
CONTINUOUS
10
160.205
20
-132.54
11
160.205
21
-131.492
0
LINE
8
BLACK
6
CONTINUOUS
10
160.205
20
-131.492
11
160.11
21
-131.302
0
LINE
8
BLACK
6
CONTINUOUS
10
160.11
20
-131.302
11
159.919
21
-131.206
0
LINE
8
BLACK
6
CONTINUOUS
10
159.919
20
-131.206
11
159.538
21
-131.206
0
LINE
8
BLACK
6
CONTINUOUS
10
159.538
20
-131.206
11
159.348
21
-131.302
0
LINE
8
BLACK
6
CONTINUOUS
10
160.205
20
-132.445
11
160.015
21
-132.54
0
LINE
8
BLACK
6
CONTINUOUS
10
160.015
20
-132.54
11
159.538
21
-132.54
0
LINE
8
BLACK
6
CONTINUOUS
10
159.538
20
-132.54
11
159.348
21
-132.445
0
LINE
8
BLACK
6
CONTINUOUS
10
159.348
20
-132.445
11
159.253
21
-132.254
0
LINE
8
BLACK
6
CONTINUOUS
10
159.253
20
-132.254
11
159.253
21
-132.064
0
LINE
8
BLACK
6
CONTINUOUS
10
159.253
20
-132.064
11
159.348
21
-131.873
0
LINE
8
BLACK
6
CONTINUOUS
10
159.348
20
-131.873
11
159.538
21
-131.778
0
LINE
8
BLACK
6
CONTINUOUS
10
159.538
20
-131.778
11
160.015
21
-131.778
0
LINE
8
BLACK
6
CONTINUOUS
10
160.015
20
-131.778
11
160.205
21
-131.683
0
LINE
8
BLACK
6
CONTINUOUS
10
160.872
20
-131.206
11
161.634
21
-131.206
0
LINE
8
BLACK
6
CONTINUOUS
10
161.157
20
-130.54
11
161.157
21
-132.254
0
LINE
8
BLACK
6
CONTINUOUS
10
161.157
20
-132.254
11
161.253
21
-132.445
0
LINE
8
BLACK
6
CONTINUOUS
10
161.253
20
-132.445
11
161.443
21
-132.54
0
LINE
8
BLACK
6
CONTINUOUS
10
161.443
20
-132.54
11
161.634
21
-132.54
0
LINE
8
BLACK
6
CONTINUOUS
10
163.062
20
-132.445
11
162.872
21
-132.54
0
LINE
8
BLACK
6
CONTINUOUS
10
162.872
20
-132.54
11
162.491
21
-132.54
0
LINE
8
BLACK
6
CONTINUOUS
10
162.491
20
-132.54
11
162.3
21
-132.445
0
LINE
8
BLACK
6
CONTINUOUS
10
162.3
20
-132.445
11
162.205
21
-132.254
0
LINE
8
BLACK
6
CONTINUOUS
10
162.205
20
-132.254
11
162.205
21
-131.492
0
LINE
8
BLACK
6
CONTINUOUS
10
162.205
20
-131.492
11
162.3
21
-131.302
0
LINE
8
BLACK
6
CONTINUOUS
10
162.3
20
-131.302
11
162.491
21
-131.206
0
LINE
8
BLACK
6
CONTINUOUS
10
162.491
20
-131.206
11
162.872
21
-131.206
0
LINE
8
BLACK
6
CONTINUOUS
10
162.872
20
-131.206
11
163.062
21
-131.302
0
LINE
8
BLACK
6
CONTINUOUS
10
163.062
20
-131.302
11
163.157
21
-131.492
0
LINE
8
BLACK
6
CONTINUOUS
10
163.157
20
-131.492
11
163.157
21
-131.683
0
LINE
8
BLACK
6
CONTINUOUS
10
163.157
20
-131.683
11
162.205
21
-131.873
0
LINE
8
BLACK
6
CONTINUOUS
10
164.872
20
-132.54
11
164.872
21
-130.54
0
LINE
8
BLACK
6
CONTINUOUS
10
164.872
20
-132.445
11
164.681
21
-132.54
0
LINE
8
BLACK
6
CONTINUOUS
10
164.681
20
-132.54
11
164.3
21
-132.54
0
LINE
8
BLACK
6
CONTINUOUS
10
164.3
20
-132.54
11
164.11
21
-132.445
0
LINE
8
BLACK
6
CONTINUOUS
10
164.11
20
-132.445
11
164.015
21
-132.349
0
LINE
8
BLACK
6
CONTINUOUS
10
164.015
20
-132.349
11
163.919
21
-132.159
0
LINE
8
BLACK
6
CONTINUOUS
10
163.919
20
-132.159
11
163.919
21
-131.587
0
LINE
8
BLACK
6
CONTINUOUS
10
163.919
20
-131.587
11
164.015
21
-131.397
0
LINE
8
BLACK
6
CONTINUOUS
10
164.015
20
-131.397
11
164.11
21
-131.302
0
LINE
8
BLACK
6
CONTINUOUS
10
164.11
20
-131.302
11
164.3
21
-131.206
0
LINE
8
BLACK
6
CONTINUOUS
10
164.3
20
-131.206
11
164.681
21
-131.206
0
LINE
8
BLACK
6
CONTINUOUS
10
164.681
20
-131.206
11
164.872
21
-131.302
0
LINE
8
BLACK
6
CONTINUOUS
10
165.634
20
-133.302
11
165.729
21
-133.206
0
LINE
8
BLACK
6
CONTINUOUS
10
165.729
20
-133.206
11
165.919
21
-132.921
0
LINE
8
BLACK
6
CONTINUOUS
10
165.919
20
-132.921
11
166.015
21
-132.73
0
LINE
8
BLACK
6
CONTINUOUS
10
166.015
20
-132.73
11
166.11
21
-132.445
0
LINE
8
BLACK
6
CONTINUOUS
10
166.11
20
-132.445
11
166.205
21
-131.968
0
LINE
8
BLACK
6
CONTINUOUS
10
166.205
20
-131.968
11
166.205
21
-131.587
0
LINE
8
BLACK
6
CONTINUOUS
10
166.205
20
-131.587
11
166.11
21
-131.111
0
LINE
8
BLACK
6
CONTINUOUS
10
166.11
20
-131.111
11
166.015
21
-130.825
0
LINE
8
BLACK
6
CONTINUOUS
10
166.015
20
-130.825
11
165.919
21
-130.635
0
LINE
8
BLACK
6
CONTINUOUS
10
165.919
20
-130.635
11
165.729
21
-130.349
0
LINE
8
BLACK
6
CONTINUOUS
10
165.729
20
-130.349
11
165.634
21
-130.254
0
CIRCLE
8
BLACK
10
97.105
20
-134.275
40
1
0
LINE
8
BLACK
6
CONTINUOUS
10
100.586
20
-133.37
11
100.681
21
-133.275
0
LINE
8
BLACK
6
CONTINUOUS
10
100.681
20
-133.275
11
100.872
21
-133.18
0
LINE
8
BLACK
6
CONTINUOUS
10
100.872
20
-133.18
11
101.348
21
-133.18
0
LINE
8
BLACK
6
CONTINUOUS
10
101.348
20
-133.18
11
101.538
21
-133.275
0
LINE
8
BLACK
6
CONTINUOUS
10
101.538
20
-133.275
11
101.634
21
-133.37
0
LINE
8
BLACK
6
CONTINUOUS
10
101.634
20
-133.37
11
101.729
21
-133.561
0
LINE
8
BLACK
6
CONTINUOUS
10
101.729
20
-133.561
11
101.729
21
-133.751
0
LINE
8
BLACK
6
CONTINUOUS
10
101.729
20
-133.751
11
101.634
21
-134.037
0
LINE
8
BLACK
6
CONTINUOUS
10
101.634
20
-134.037
11
100.491
21
-135.18
0
LINE
8
BLACK
6
CONTINUOUS
10
100.491
20
-135.18
11
101.729
21
-135.18
0
LINE
8
BLACK
6
CONTINUOUS
10
102.586
20
-134.989
11
102.681
21
-135.085
0
LINE
8
BLACK
6
CONTINUOUS
10
102.681
20
-135.085
11
102.586
21
-135.18
0
LINE
8
BLACK
6
CONTINUOUS
10
102.586
20
-135.18
11
102.491
21
-135.085
0
LINE
8
BLACK
6
CONTINUOUS
10
102.491
20
-135.085
11
102.586
21
-134.989
0
LINE
8
BLACK
6
CONTINUOUS
10
102.586
20
-134.989
11
102.586
21
-135.18
0
LINE
8
BLACK
6
CONTINUOUS
10
104.395
20
-133.18
11
104.015
21
-133.18
0
LINE
8
BLACK
6
CONTINUOUS
10
104.015
20
-133.18
11
103.824
21
-133.275
0
LINE
8
BLACK
6
CONTINUOUS
10
103.824
20
-133.275
11
103.729
21
-133.37
0
LINE
8
BLACK
6
CONTINUOUS
10
103.729
20
-133.37
11
103.538
21
-133.656
0
LINE
8
BLACK
6
CONTINUOUS
10
103.538
20
-133.656
11
103.443
21
-134.037
0
LINE
8
BLACK
6
CONTINUOUS
10
103.443
20
-134.037
11
103.443
21
-134.799
0
LINE
8
BLACK
6
CONTINUOUS
10
103.443
20
-134.799
11
103.538
21
-134.989
0
LINE
8
BLACK
6
CONTINUOUS
10
103.538
20
-134.989
11
103.634
21
-135.085
0
LINE
8
BLACK
6
CONTINUOUS
10
103.634
20
-135.085
11
103.824
21
-135.18
0
LINE
8
BLACK
6
CONTINUOUS
10
103.824
20
-135.18
11
104.205
21
-135.18
0
LINE
8
BLACK
6
CONTINUOUS
10
104.205
20
-135.18
11
104.395
21
-135.085
0
LINE
8
BLACK
6
CONTINUOUS
10
104.395
20
-135.085
11
104.491
21
-134.989
0
LINE
8
BLACK
6
CONTINUOUS
10
104.491
20
-134.989
11
104.586
21
-134.799
0
LINE
8
BLACK
6
CONTINUOUS
10
104.586
20
-134.799
11
104.586
21
-134.323
0
LINE
8
BLACK
6
CONTINUOUS
10
104.586
20
-134.323
11
104.491
21
-134.132
0
LINE
8
BLACK
6
CONTINUOUS
10
104.491
20
-134.132
11
104.395
21
-134.037
0
LINE
8
BLACK
6
CONTINUOUS
10
104.395
20
-134.037
11
104.205
21
-133.942
0
LINE
8
BLACK
6
CONTINUOUS
10
104.205
20
-133.942
11
103.824
21
-133.942
0
LINE
8
BLACK
6
CONTINUOUS
10
103.824
20
-133.942
11
103.634
21
-134.037
0
LINE
8
BLACK
6
CONTINUOUS
10
103.634
20
-134.037
11
103.538
21
-134.132
0
LINE
8
BLACK
6
CONTINUOUS
10
103.538
20
-134.132
11
103.443
21
-134.323
0
LINE
8
BLACK
6
CONTINUOUS
10
105.824
20
-133.18
11
106.015
21
-133.18
0
LINE
8
BLACK
6
CONTINUOUS
10
106.015
20
-133.18
11
106.205
21
-133.275
0
LINE
8
BLACK
6
CONTINUOUS
10
106.205
20
-133.275
11
106.3
21
-133.37
0
LINE
8
BLACK
6
CONTINUOUS
10
106.3
20
-133.37
11
106.395
21
-133.561
0
LINE
8
BLACK
6
CONTINUOUS
10
106.395
20
-133.561
11
106.491
21
-133.942
0
LINE
8
BLACK
6
CONTINUOUS
10
106.491
20
-133.942
11
106.491
21
-134.418
0
LINE
8
BLACK
6
CONTINUOUS
10
106.491
20
-134.418
11
106.395
21
-134.799
0
LINE
8
BLACK
6
CONTINUOUS
10
106.395
20
-134.799
11
106.3
21
-134.989
0
LINE
8
BLACK
6
CONTINUOUS
10
106.3
20
-134.989
11
106.205
21
-135.085
0
LINE
8
BLACK
6
CONTINUOUS
10
106.205
20
-135.085
11
106.015
21
-135.18
0
LINE
8
BLACK
6
CONTINUOUS
10
106.015
20
-135.18
11
105.824
21
-135.18
0
LINE
8
BLACK
6
CONTINUOUS
10
105.824
20
-135.18
11
105.634
21
-135.085
0
LINE
8
BLACK
6
CONTINUOUS
10
105.634
20
-135.085
11
105.538
21
-134.989
0
LINE
8
BLACK
6
CONTINUOUS
10
105.538
20
-134.989
11
105.443
21
-134.799
0
LINE
8
BLACK
6
CONTINUOUS
10
105.443
20
-134.799
11
105.348
21
-134.418
0
LINE
8
BLACK
6
CONTINUOUS
10
105.348
20
-134.418
11
105.348
21
-133.942
0
LINE
8
BLACK
6
CONTINUOUS
10
105.348
20
-133.942
11
105.443
21
-133.561
0
LINE
8
BLACK
6
CONTINUOUS
10
105.443
20
-133.561
11
105.538
21
-133.37
0
LINE
8
BLACK
6
CONTINUOUS
10
105.538
20
-133.37
11
105.634
21
-133.275
0
LINE
8
BLACK
6
CONTINUOUS
10
105.634
20
-133.275
11
105.824
21
-133.18
0
LINE
8
BLACK
6
CONTINUOUS
10
107.729
20
-133.18
11
107.919
21
-133.18
0
LINE
8
BLACK
6
CONTINUOUS
10
107.919
20
-133.18
11
108.11
21
-133.275
0
LINE
8
BLACK
6
CONTINUOUS
10
108.11
20
-133.275
11
108.205
21
-133.37
0
LINE
8
BLACK
6
CONTINUOUS
10
108.205
20
-133.37
11
108.3
21
-133.561
0
LINE
8
BLACK
6
CONTINUOUS
10
108.3
20
-133.561
11
108.395
21
-133.942
0
LINE
8
BLACK
6
CONTINUOUS
10
108.395
20
-133.942
11
108.395
21
-134.418
0
LINE
8
BLACK
6
CONTINUOUS
10
108.395
20
-134.418
11
108.3
21
-134.799
0
LINE
8
BLACK
6
CONTINUOUS
10
108.3
20
-134.799
11
108.205
21
-134.989
0
LINE
8
BLACK
6
CONTINUOUS
10
108.205
20
-134.989
11
108.11
21
-135.085
0
LINE
8
BLACK
6
CONTINUOUS
10
108.11
20
-135.085
11
107.919
21
-135.18
0
LINE
8
BLACK
6
CONTINUOUS
10
107.919
20
-135.18
11
107.729
21
-135.18
0
LINE
8
BLACK
6
CONTINUOUS
10
107.729
20
-135.18
11
107.538
21
-135.085
0
LINE
8
BLACK
6
CONTINUOUS
10
107.538
20
-135.085
11
107.443
21
-134.989
0
LINE
8
BLACK
6
CONTINUOUS
10
107.443
20
-134.989
11
107.348
21
-134.799
0
LINE
8
BLACK
6
CONTINUOUS
10
107.348
20
-134.799
11
107.253
21
-134.418
0
LINE
8
BLACK
6
CONTINUOUS
10
107.253
20
-134.418
11
107.253
21
-133.942
0
LINE
8
BLACK
6
CONTINUOUS
10
107.253
20
-133.942
11
107.348
21
-133.561
0
LINE
8
BLACK
6
CONTINUOUS
10
107.348
20
-133.561
11
107.443
21
-133.37
0
LINE
8
BLACK
6
CONTINUOUS
10
107.443
20
-133.37
11
107.538
21
-133.275
0
LINE
8
BLACK
6
CONTINUOUS
10
107.538
20
-133.275
11
107.729
21
-133.18
0
LINE
8
BLACK
6
CONTINUOUS
10
109.253
20
-135.18
11
109.253
21
-133.846
0
LINE
8
BLACK
6
CONTINUOUS
10
109.253
20
-134.037
11
109.348
21
-133.942
0
LINE
8
BLACK
6
CONTINUOUS
10
109.348
20
-133.942
11
109.538
21
-133.846
0
LINE
8
BLACK
6
CONTINUOUS
10
109.538
20
-133.846
11
109.824
21
-133.846
0
LINE
8
BLACK
6
CONTINUOUS
10
109.824
20
-133.846
11
110.015
21
-133.942
0
LINE
8
BLACK
6
CONTINUOUS
10
110.015
20
-133.942
11
110.11
21
-134.132
0
LINE
8
BLACK
6
CONTINUOUS
10
110.11
20
-134.132
11
110.11
21
-135.18
0
LINE
8
BLACK
6
CONTINUOUS
10
110.11
20
-134.132
11
110.205
21
-133.942
0
LINE
8
BLACK
6
CONTINUOUS
10
110.205
20
-133.942
11
110.395
21
-133.846
0
LINE
8
BLACK
6
CONTINUOUS
10
110.395
20
-133.846
11
110.681
21
-133.846
0
LINE
8
BLACK
6
CONTINUOUS
10
110.681
20
-133.846
11
110.872
21
-133.942
0
LINE
8
BLACK
6
CONTINUOUS
10
110.872
20
-133.942
11
110.967
21
-134.132
0
LINE
8
BLACK
6
CONTINUOUS
10
110.967
20
-134.132
11
110.967
21
-135.18
0
LINE
8
BLACK
6
CONTINUOUS
10
111.919
20
-135.18
11
111.919
21
-133.846
0
LINE
8
BLACK
6
CONTINUOUS
10
111.919
20
-134.037
11
112.015
21
-133.942
0
LINE
8
BLACK
6
CONTINUOUS
10
112.015
20
-133.942
11
112.205
21
-133.846
0
LINE
8
BLACK
6
CONTINUOUS
10
112.205
20
-133.846
11
112.491
21
-133.846
0
LINE
8
BLACK
6
CONTINUOUS
10
112.491
20
-133.846
11
112.681
21
-133.942
0
LINE
8
BLACK
6
CONTINUOUS
10
112.681
20
-133.942
11
112.776
21
-134.132
0
LINE
8
BLACK
6
CONTINUOUS
10
112.776
20
-134.132
11
112.776
21
-135.18
0
LINE
8
BLACK
6
CONTINUOUS
10
112.776
20
-134.132
11
112.872
21
-133.942
0
LINE
8
BLACK
6
CONTINUOUS
10
112.872
20
-133.942
11
113.062
21
-133.846
0
LINE
8
BLACK
6
CONTINUOUS
10
113.062
20
-133.846
11
113.348
21
-133.846
0
LINE
8
BLACK
6
CONTINUOUS
10
113.348
20
-133.846
11
113.538
21
-133.942
0
LINE
8
BLACK
6
CONTINUOUS
10
113.538
20
-133.942
11
113.634
21
-134.132
0
LINE
8
BLACK
6
CONTINUOUS
10
113.634
20
-134.132
11
113.634
21
-135.18
0
LINE
8
BLACK
6
CONTINUOUS
10
117.538
20
-133.085
11
115.824
21
-135.656
0
LINE
8
BLACK
6
CONTINUOUS
10
120.11
20
-133.18
11
120.3
21
-133.18
0
LINE
8
BLACK
6
CONTINUOUS
10
120.3
20
-133.18
11
120.491
21
-133.275
0
LINE
8
BLACK
6
CONTINUOUS
10
120.491
20
-133.275
11
120.586
21
-133.37
0
LINE
8
BLACK
6
CONTINUOUS
10
120.586
20
-133.37
11
120.681
21
-133.561
0
LINE
8
BLACK
6
CONTINUOUS
10
120.681
20
-133.561
11
120.776
21
-133.942
0
LINE
8
BLACK
6
CONTINUOUS
10
120.776
20
-133.942
11
120.776
21
-134.418
0
LINE
8
BLACK
6
CONTINUOUS
10
120.776
20
-134.418
11
120.681
21
-134.799
0
LINE
8
BLACK
6
CONTINUOUS
10
120.681
20
-134.799
11
120.586
21
-134.989
0
LINE
8
BLACK
6
CONTINUOUS
10
120.586
20
-134.989
11
120.491
21
-135.085
0
LINE
8
BLACK
6
CONTINUOUS
10
120.491
20
-135.085
11
120.3
21
-135.18
0
LINE
8
BLACK
6
CONTINUOUS
10
120.3
20
-135.18
11
120.11
21
-135.18
0
LINE
8
BLACK
6
CONTINUOUS
10
120.11
20
-135.18
11
119.919
21
-135.085
0
LINE
8
BLACK
6
CONTINUOUS
10
119.919
20
-135.085
11
119.824
21
-134.989
0
LINE
8
BLACK
6
CONTINUOUS
10
119.824
20
-134.989
11
119.729
21
-134.799
0
LINE
8
BLACK
6
CONTINUOUS
10
119.729
20
-134.799
11
119.634
21
-134.418
0
LINE
8
BLACK
6
CONTINUOUS
10
119.634
20
-134.418
11
119.634
21
-133.942
0
LINE
8
BLACK
6
CONTINUOUS
10
119.634
20
-133.942
11
119.729
21
-133.561
0
LINE
8
BLACK
6
CONTINUOUS
10
119.729
20
-133.561
11
119.824
21
-133.37
0
LINE
8
BLACK
6
CONTINUOUS
10
119.824
20
-133.37
11
119.919
21
-133.275
0
LINE
8
BLACK
6
CONTINUOUS
10
119.919
20
-133.275
11
120.11
21
-133.18
0
LINE
8
BLACK
6
CONTINUOUS
10
121.634
20
-134.989
11
121.729
21
-135.085
0
LINE
8
BLACK
6
CONTINUOUS
10
121.729
20
-135.085
11
121.634
21
-135.18
0
LINE
8
BLACK
6
CONTINUOUS
10
121.634
20
-135.18
11
121.538
21
-135.085
0
LINE
8
BLACK
6
CONTINUOUS
10
121.538
20
-135.085
11
121.634
21
-134.989
0
LINE
8
BLACK
6
CONTINUOUS
10
121.634
20
-134.989
11
121.634
21
-135.18
0
LINE
8
BLACK
6
CONTINUOUS
10
123.634
20
-135.18
11
122.491
21
-135.18
0
LINE
8
BLACK
6
CONTINUOUS
10
123.062
20
-135.18
11
123.062
21
-133.18
0
LINE
8
BLACK
6
CONTINUOUS
10
123.062
20
-133.18
11
122.872
21
-133.465
0
LINE
8
BLACK
6
CONTINUOUS
10
122.872
20
-133.465
11
122.681
21
-133.656
0
LINE
8
BLACK
6
CONTINUOUS
10
122.681
20
-133.656
11
122.491
21
-133.751
0
LINE
8
BLACK
6
CONTINUOUS
10
124.872
20
-133.18
11
125.062
21
-133.18
0
LINE
8
BLACK
6
CONTINUOUS
10
125.062
20
-133.18
11
125.253
21
-133.275
0
LINE
8
BLACK
6
CONTINUOUS
10
125.253
20
-133.275
11
125.348
21
-133.37
0
LINE
8
BLACK
6
CONTINUOUS
10
125.348
20
-133.37
11
125.443
21
-133.561
0
LINE
8
BLACK
6
CONTINUOUS
10
125.443
20
-133.561
11
125.538
21
-133.942
0
LINE
8
BLACK
6
CONTINUOUS
10
125.538
20
-133.942
11
125.538
21
-134.418
0
LINE
8
BLACK
6
CONTINUOUS
10
125.538
20
-134.418
11
125.443
21
-134.799
0
LINE
8
BLACK
6
CONTINUOUS
10
125.443
20
-134.799
11
125.348
21
-134.989
0
LINE
8
BLACK
6
CONTINUOUS
10
125.348
20
-134.989
11
125.253
21
-135.085
0
LINE
8
BLACK
6
CONTINUOUS
10
125.253
20
-135.085
11
125.062
21
-135.18
0
LINE
8
BLACK
6
CONTINUOUS
10
125.062
20
-135.18
11
124.872
21
-135.18
0
LINE
8
BLACK
6
CONTINUOUS
10
124.872
20
-135.18
11
124.681
21
-135.085
0
LINE
8
BLACK
6
CONTINUOUS
10
124.681
20
-135.085
11
124.586
21
-134.989
0
LINE
8
BLACK
6
CONTINUOUS
10
124.586
20
-134.989
11
124.491
21
-134.799
0
LINE
8
BLACK
6
CONTINUOUS
10
124.491
20
-134.799
11
124.395
21
-134.418
0
LINE
8
BLACK
6
CONTINUOUS
10
124.395
20
-134.418
11
124.395
21
-133.942
0
LINE
8
BLACK
6
CONTINUOUS
10
124.395
20
-133.942
11
124.491
21
-133.561
0
LINE
8
BLACK
6
CONTINUOUS
10
124.491
20
-133.561
11
124.586
21
-133.37
0
LINE
8
BLACK
6
CONTINUOUS
10
124.586
20
-133.37
11
124.681
21
-133.275
0
LINE
8
BLACK
6
CONTINUOUS
10
124.681
20
-133.275
11
124.872
21
-133.18
0
LINE
8
BLACK
6
CONTINUOUS
10
126.3
20
-133.37
11
126.395
21
-133.275
0
LINE
8
BLACK
6
CONTINUOUS
10
126.395
20
-133.275
11
126.586
21
-133.18
0
LINE
8
BLACK
6
CONTINUOUS
10
126.586
20
-133.18
11
127.062
21
-133.18
0
LINE
8
BLACK
6
CONTINUOUS
10
127.062
20
-133.18
11
127.253
21
-133.275
0
LINE
8
BLACK
6
CONTINUOUS
10
127.253
20
-133.275
11
127.348
21
-133.37
0
LINE
8
BLACK
6
CONTINUOUS
10
127.348
20
-133.37
11
127.443
21
-133.561
0
LINE
8
BLACK
6
CONTINUOUS
10
127.443
20
-133.561
11
127.443
21
-133.751
0
LINE
8
BLACK
6
CONTINUOUS
10
127.443
20
-133.751
11
127.348
21
-134.037
0
LINE
8
BLACK
6
CONTINUOUS
10
127.348
20
-134.037
11
126.205
21
-135.18
0
LINE
8
BLACK
6
CONTINUOUS
10
126.205
20
-135.18
11
127.443
21
-135.18
0
LINE
8
BLACK
6
CONTINUOUS
10
129.157
20
-133.846
11
129.157
21
-135.18
0
LINE
8
BLACK
6
CONTINUOUS
10
128.681
20
-133.085
11
128.205
21
-134.513
0
LINE
8
BLACK
6
CONTINUOUS
10
128.205
20
-134.513
11
129.443
21
-134.513
0
LINE
8
BLACK
6
CONTINUOUS
10
130.11
20
-133.18
11
130.11
21
-133.561
0
LINE
8
BLACK
6
CONTINUOUS
10
130.872
20
-133.18
11
130.872
21
-133.561
0
LINE
8
BLACK
6
CONTINUOUS
10
133.824
20
-135.942
11
133.729
21
-135.846
0
LINE
8
BLACK
6
CONTINUOUS
10
133.729
20
-135.846
11
133.538
21
-135.561
0
LINE
8
BLACK
6
CONTINUOUS
10
133.538
20
-135.561
11
133.443
21
-135.37
0
LINE
8
BLACK
6
CONTINUOUS
10
133.443
20
-135.37
11
133.348
21
-135.085
0
LINE
8
BLACK
6
CONTINUOUS
10
133.348
20
-135.085
11
133.253
21
-134.608
0
LINE
8
BLACK
6
CONTINUOUS
10
133.253
20
-134.608
11
133.253
21
-134.227
0
LINE
8
BLACK
6
CONTINUOUS
10
133.253
20
-134.227
11
133.348
21
-133.751
0
LINE
8
BLACK
6
CONTINUOUS
10
133.348
20
-133.751
11
133.443
21
-133.465
0
LINE
8
BLACK
6
CONTINUOUS
10
133.443
20
-133.465
11
133.538
21
-133.275
0
LINE
8
BLACK
6
CONTINUOUS
10
133.538
20
-133.275
11
133.729
21
-132.989
0
LINE
8
BLACK
6
CONTINUOUS
10
133.729
20
-132.989
11
133.824
21
-132.894
0
LINE
8
BLACK
6
CONTINUOUS
10
134.395
20
-133.18
11
135.634
21
-133.18
0
LINE
8
BLACK
6
CONTINUOUS
10
135.634
20
-133.18
11
134.967
21
-133.942
0
LINE
8
BLACK
6
CONTINUOUS
10
134.967
20
-133.942
11
135.253
21
-133.942
0
LINE
8
BLACK
6
CONTINUOUS
10
135.253
20
-133.942
11
135.443
21
-134.037
0
LINE
8
BLACK
6
CONTINUOUS
10
135.443
20
-134.037
11
135.538
21
-134.132
0
LINE
8
BLACK
6
CONTINUOUS
10
135.538
20
-134.132
11
135.634
21
-134.323
0
LINE
8
BLACK
6
CONTINUOUS
10
135.634
20
-134.323
11
135.634
21
-134.799
0
LINE
8
BLACK
6
CONTINUOUS
10
135.634
20
-134.799
11
135.538
21
-134.989
0
LINE
8
BLACK
6
CONTINUOUS
10
135.538
20
-134.989
11
135.443
21
-135.085
0
LINE
8
BLACK
6
CONTINUOUS
10
135.443
20
-135.085
11
135.253
21
-135.18
0
LINE
8
BLACK
6
CONTINUOUS
10
135.253
20
-135.18
11
134.681
21
-135.18
0
LINE
8
BLACK
6
CONTINUOUS
10
134.681
20
-135.18
11
134.491
21
-135.085
0
LINE
8
BLACK
6
CONTINUOUS
10
134.491
20
-135.085
11
134.395
21
-134.989
0
LINE
8
BLACK
6
CONTINUOUS
10
138.015
20
-135.18
11
138.015
21
-133.18
0
LINE
8
BLACK
6
CONTINUOUS
10
138.872
20
-135.18
11
138.872
21
-134.132
0
LINE
8
BLACK
6
CONTINUOUS
10
138.872
20
-134.132
11
138.776
21
-133.942
0
LINE
8
BLACK
6
CONTINUOUS
10
138.776
20
-133.942
11
138.586
21
-133.846
0
LINE
8
BLACK
6
CONTINUOUS
10
138.586
20
-133.846
11
138.3
21
-133.846
0
LINE
8
BLACK
6
CONTINUOUS
10
138.3
20
-133.846
11
138.11
21
-133.942
0
LINE
8
BLACK
6
CONTINUOUS
10
138.11
20
-133.942
11
138.015
21
-134.037
0
LINE
8
BLACK
6
CONTINUOUS
10
140.11
20
-135.18
11
139.919
21
-135.085
0
LINE
8
BLACK
6
CONTINUOUS
10
139.919
20
-135.085
11
139.824
21
-134.989
0
LINE
8
BLACK
6
CONTINUOUS
10
139.824
20
-134.989
11
139.729
21
-134.799
0
LINE
8
BLACK
6
CONTINUOUS
10
139.729
20
-134.799
11
139.729
21
-134.227
0
LINE
8
BLACK
6
CONTINUOUS
10
139.729
20
-134.227
11
139.824
21
-134.037
0
LINE
8
BLACK
6
CONTINUOUS
10
139.824
20
-134.037
11
139.919
21
-133.942
0
LINE
8
BLACK
6
CONTINUOUS
10
139.919
20
-133.942
11
140.11
21
-133.846
0
LINE
8
BLACK
6
CONTINUOUS
10
140.11
20
-133.846
11
140.395
21
-133.846
0
LINE
8
BLACK
6
CONTINUOUS
10
140.395
20
-133.846
11
140.586
21
-133.942
0
LINE
8
BLACK
6
CONTINUOUS
10
140.586
20
-133.942
11
140.681
21
-134.037
0
LINE
8
BLACK
6
CONTINUOUS
10
140.681
20
-134.037
11
140.776
21
-134.227
0
LINE
8
BLACK
6
CONTINUOUS
10
140.776
20
-134.227
11
140.776
21
-134.799
0
LINE
8
BLACK
6
CONTINUOUS
10
140.776
20
-134.799
11
140.681
21
-134.989
0
LINE
8
BLACK
6
CONTINUOUS
10
140.681
20
-134.989
11
140.586
21
-135.085
0
LINE
8
BLACK
6
CONTINUOUS
10
140.586
20
-135.085
11
140.395
21
-135.18
0
LINE
8
BLACK
6
CONTINUOUS
10
140.395
20
-135.18
11
140.11
21
-135.18
0
LINE
8
BLACK
6
CONTINUOUS
10
141.919
20
-135.18
11
141.729
21
-135.085
0
LINE
8
BLACK
6
CONTINUOUS
10
141.729
20
-135.085
11
141.634
21
-134.894
0
LINE
8
BLACK
6
CONTINUOUS
10
141.634
20
-134.894
11
141.634
21
-133.18
0
LINE
8
BLACK
6
CONTINUOUS
10
143.443
20
-135.085
11
143.253
21
-135.18
0
LINE
8
BLACK
6
CONTINUOUS
10
143.253
20
-135.18
11
142.872
21
-135.18
0
LINE
8
BLACK
6
CONTINUOUS
10
142.872
20
-135.18
11
142.681
21
-135.085
0
LINE
8
BLACK
6
CONTINUOUS
10
142.681
20
-135.085
11
142.586
21
-134.894
0
LINE
8
BLACK
6
CONTINUOUS
10
142.586
20
-134.894
11
142.586
21
-134.132
0
LINE
8
BLACK
6
CONTINUOUS
10
142.586
20
-134.132
11
142.681
21
-133.942
0
LINE
8
BLACK
6
CONTINUOUS
10
142.681
20
-133.942
11
142.872
21
-133.846
0
LINE
8
BLACK
6
CONTINUOUS
10
142.872
20
-133.846
11
143.253
21
-133.846
0
LINE
8
BLACK
6
CONTINUOUS
10
143.253
20
-133.846
11
143.443
21
-133.942
0
LINE
8
BLACK
6
CONTINUOUS
10
143.443
20
-133.942
11
143.538
21
-134.132
0
LINE
8
BLACK
6
CONTINUOUS
10
143.538
20
-134.132
11
143.538
21
-134.323
0
LINE
8
BLACK
6
CONTINUOUS
10
143.538
20
-134.323
11
142.586
21
-134.513
0
LINE
8
BLACK
6
CONTINUOUS
10
144.3
20
-135.085
11
144.491
21
-135.18
0
LINE
8
BLACK
6
CONTINUOUS
10
144.491
20
-135.18
11
144.872
21
-135.18
0
LINE
8
BLACK
6
CONTINUOUS
10
144.872
20
-135.18
11
145.062
21
-135.085
0
LINE
8
BLACK
6
CONTINUOUS
10
145.062
20
-135.085
11
145.157
21
-134.894
0
LINE
8
BLACK
6
CONTINUOUS
10
145.157
20
-134.894
11
145.157
21
-134.799
0
LINE
8
BLACK
6
CONTINUOUS
10
145.157
20
-134.799
11
145.062
21
-134.608
0
LINE
8
BLACK
6
CONTINUOUS
10
145.062
20
-134.608
11
144.872
21
-134.513
0
LINE
8
BLACK
6
CONTINUOUS
10
144.872
20
-134.513
11
144.586
21
-134.513
0
LINE
8
BLACK
6
CONTINUOUS
10
144.586
20
-134.513
11
144.395
21
-134.418
0
LINE
8
BLACK
6
CONTINUOUS
10
144.395
20
-134.418
11
144.3
21
-134.227
0
LINE
8
BLACK
6
CONTINUOUS
10
144.3
20
-134.227
11
144.3
21
-134.132
0
LINE
8
BLACK
6
CONTINUOUS
10
144.3
20
-134.132
11
144.395
21
-133.942
0
LINE
8
BLACK
6
CONTINUOUS
10
144.395
20
-133.942
11
144.586
21
-133.846
0
LINE
8
BLACK
6
CONTINUOUS
10
144.586
20
-133.846
11
144.872
21
-133.846
0
LINE
8
BLACK
6
CONTINUOUS
10
144.872
20
-133.846
11
145.062
21
-133.942
0
LINE
8
BLACK
6
CONTINUOUS
10
145.824
20
-135.942
11
145.919
21
-135.846
0
LINE
8
BLACK
6
CONTINUOUS
10
145.919
20
-135.846
11
146.11
21
-135.561
0
LINE
8
BLACK
6
CONTINUOUS
10
146.11
20
-135.561
11
146.205
21
-135.37
0
LINE
8
BLACK
6
CONTINUOUS
10
146.205
20
-135.37
11
146.3
21
-135.085
0
LINE
8
BLACK
6
CONTINUOUS
10
146.3
20
-135.085
11
146.395
21
-134.608
0
LINE
8
BLACK
6
CONTINUOUS
10
146.395
20
-134.608
11
146.395
21
-134.227
0
LINE
8
BLACK
6
CONTINUOUS
10
146.395
20
-134.227
11
146.3
21
-133.751
0
LINE
8
BLACK
6
CONTINUOUS
10
146.3
20
-133.751
11
146.205
21
-133.465
0
LINE
8
BLACK
6
CONTINUOUS
10
146.205
20
-133.465
11
146.11
21
-133.275
0
LINE
8
BLACK
6
CONTINUOUS
10
146.11
20
-133.275
11
145.919
21
-132.989
0
LINE
8
BLACK
6
CONTINUOUS
10
145.919
20
-132.989
11
145.824
21
-132.894
0
LINE
8
BLACK
6
CONTINUOUS
10
149.443
20
-135.942
11
149.348
21
-135.846
0
LINE
8
BLACK
6
CONTINUOUS
10
149.348
20
-135.846
11
149.157
21
-135.561
0
LINE
8
BLACK
6
CONTINUOUS
10
149.157
20
-135.561
11
149.062
21
-135.37
0
LINE
8
BLACK
6
CONTINUOUS
10
149.062
20
-135.37
11
148.967
21
-135.085
0
LINE
8
BLACK
6
CONTINUOUS
10
148.967
20
-135.085
11
148.872
21
-134.608
0
LINE
8
BLACK
6
CONTINUOUS
10
148.872
20
-134.608
11
148.872
21
-134.227
0
LINE
8
BLACK
6
CONTINUOUS
10
148.872
20
-134.227
11
148.967
21
-133.751
0
LINE
8
BLACK
6
CONTINUOUS
10
148.967
20
-133.751
11
149.062
21
-133.465
0
LINE
8
BLACK
6
CONTINUOUS
10
149.062
20
-133.465
11
149.157
21
-133.275
0
LINE
8
BLACK
6
CONTINUOUS
10
149.157
20
-133.275
11
149.348
21
-132.989
0
LINE
8
BLACK
6
CONTINUOUS
10
149.348
20
-132.989
11
149.443
21
-132.894
0
LINE
8
BLACK
6
CONTINUOUS
10
150.205
20
-133.846
11
150.205
21
-135.18
0
LINE
8
BLACK
6
CONTINUOUS
10
150.205
20
-134.037
11
150.3
21
-133.942
0
LINE
8
BLACK
6
CONTINUOUS
10
150.3
20
-133.942
11
150.491
21
-133.846
0
LINE
8
BLACK
6
CONTINUOUS
10
150.491
20
-133.846
11
150.776
21
-133.846
0
LINE
8
BLACK
6
CONTINUOUS
10
150.776
20
-133.846
11
150.967
21
-133.942
0
LINE
8
BLACK
6
CONTINUOUS
10
150.967
20
-133.942
11
151.062
21
-134.132
0
LINE
8
BLACK
6
CONTINUOUS
10
151.062
20
-134.132
11
151.062
21
-135.18
0
LINE
8
BLACK
6
CONTINUOUS
10
152.3
20
-135.18
11
152.11
21
-135.085
0
LINE
8
BLACK
6
CONTINUOUS
10
152.11
20
-135.085
11
152.015
21
-134.989
0
LINE
8
BLACK
6
CONTINUOUS
10
152.015
20
-134.989
11
151.919
21
-134.799
0
LINE
8
BLACK
6
CONTINUOUS
10
151.919
20
-134.799
11
151.919
21
-134.227
0
LINE
8
BLACK
6
CONTINUOUS
10
151.919
20
-134.227
11
152.015
21
-134.037
0
LINE
8
BLACK
6
CONTINUOUS
10
152.015
20
-134.037
11
152.11
21
-133.942
0
LINE
8
BLACK
6
CONTINUOUS
10
152.11
20
-133.942
11
152.3
21
-133.846
0
LINE
8
BLACK
6
CONTINUOUS
10
152.3
20
-133.846
11
152.586
21
-133.846
0
LINE
8
BLACK
6
CONTINUOUS
10
152.586
20
-133.846
11
152.776
21
-133.942
0
LINE
8
BLACK
6
CONTINUOUS
10
152.776
20
-133.942
11
152.872
21
-134.037
0
LINE
8
BLACK
6
CONTINUOUS
10
152.872
20
-134.037
11
152.967
21
-134.227
0
LINE
8
BLACK
6
CONTINUOUS
10
152.967
20
-134.227
11
152.967
21
-134.799
0
LINE
8
BLACK
6
CONTINUOUS
10
152.967
20
-134.799
11
152.872
21
-134.989
0
LINE
8
BLACK
6
CONTINUOUS
10
152.872
20
-134.989
11
152.776
21
-135.085
0
LINE
8
BLACK
6
CONTINUOUS
10
152.776
20
-135.085
11
152.586
21
-135.18
0
LINE
8
BLACK
6
CONTINUOUS
10
152.586
20
-135.18
11
152.3
21
-135.18
0
LINE
8
BLACK
6
CONTINUOUS
10
153.538
20
-133.846
11
154.3
21
-133.846
0
LINE
8
BLACK
6
CONTINUOUS
10
153.824
20
-133.18
11
153.824
21
-134.894
0
LINE
8
BLACK
6
CONTINUOUS
10
153.824
20
-134.894
11
153.919
21
-135.085
0
LINE
8
BLACK
6
CONTINUOUS
10
153.919
20
-135.085
11
154.11
21
-135.18
0
LINE
8
BLACK
6
CONTINUOUS
10
154.11
20
-135.18
11
154.3
21
-135.18
0
LINE
8
BLACK
6
CONTINUOUS
10
156.491
20
-133.846
11
156.491
21
-135.846
0
LINE
8
BLACK
6
CONTINUOUS
10
156.491
20
-133.942
11
156.681
21
-133.846
0
LINE
8
BLACK
6
CONTINUOUS
10
156.681
20
-133.846
11
157.062
21
-133.846
0
LINE
8
BLACK
6
CONTINUOUS
10
157.062
20
-133.846
11
157.253
21
-133.942
0
LINE
8
BLACK
6
CONTINUOUS
10
157.253
20
-133.942
11
157.348
21
-134.037
0
LINE
8
BLACK
6
CONTINUOUS
10
157.348
20
-134.037
11
157.443
21
-134.227
0
LINE
8
BLACK
6
CONTINUOUS
10
157.443
20
-134.227
11
157.443
21
-134.799
0
LINE
8
BLACK
6
CONTINUOUS
10
157.443
20
-134.799
11
157.348
21
-134.989
0
LINE
8
BLACK
6
CONTINUOUS
10
157.348
20
-134.989
11
157.253
21
-135.085
0
LINE
8
BLACK
6
CONTINUOUS
10
157.253
20
-135.085
11
157.062
21
-135.18
0
LINE
8
BLACK
6
CONTINUOUS
10
157.062
20
-135.18
11
156.681
21
-135.18
0
LINE
8
BLACK
6
CONTINUOUS
10
156.681
20
-135.18
11
156.491
21
-135.085
0
LINE
8
BLACK
6
CONTINUOUS
10
158.586
20
-135.18
11
158.395
21
-135.085
0
LINE
8
BLACK
6
CONTINUOUS
10
158.395
20
-135.085
11
158.3
21
-134.894
0
LINE
8
BLACK
6
CONTINUOUS
10
158.3
20
-134.894
11
158.3
21
-133.18
0
LINE
8
BLACK
6
CONTINUOUS
10
160.205
20
-135.18
11
160.205
21
-134.132
0
LINE
8
BLACK
6
CONTINUOUS
10
160.205
20
-134.132
11
160.11
21
-133.942
0
LINE
8
BLACK
6
CONTINUOUS
10
160.11
20
-133.942
11
159.919
21
-133.846
0
LINE
8
BLACK
6
CONTINUOUS
10
159.919
20
-133.846
11
159.538
21
-133.846
0
LINE
8
BLACK
6
CONTINUOUS
10
159.538
20
-133.846
11
159.348
21
-133.942
0
LINE
8
BLACK
6
CONTINUOUS
10
160.205
20
-135.085
11
160.015
21
-135.18
0
LINE
8
BLACK
6
CONTINUOUS
10
160.015
20
-135.18
11
159.538
21
-135.18
0
LINE
8
BLACK
6
CONTINUOUS
10
159.538
20
-135.18
11
159.348
21
-135.085
0
LINE
8
BLACK
6
CONTINUOUS
10
159.348
20
-135.085
11
159.253
21
-134.894
0
LINE
8
BLACK
6
CONTINUOUS
10
159.253
20
-134.894
11
159.253
21
-134.704
0
LINE
8
BLACK
6
CONTINUOUS
10
159.253
20
-134.704
11
159.348
21
-134.513
0
LINE
8
BLACK
6
CONTINUOUS
10
159.348
20
-134.513
11
159.538
21
-134.418
0
LINE
8
BLACK
6
CONTINUOUS
10
159.538
20
-134.418
11
160.015
21
-134.418
0
LINE
8
BLACK
6
CONTINUOUS
10
160.015
20
-134.418
11
160.205
21
-134.323
0
LINE
8
BLACK
6
CONTINUOUS
10
160.872
20
-133.846
11
161.634
21
-133.846
0
LINE
8
BLACK
6
CONTINUOUS
10
161.157
20
-133.18
11
161.157
21
-134.894
0
LINE
8
BLACK
6
CONTINUOUS
10
161.157
20
-134.894
11
161.253
21
-135.085
0
LINE
8
BLACK
6
CONTINUOUS
10
161.253
20
-135.085
11
161.443
21
-135.18
0
LINE
8
BLACK
6
CONTINUOUS
10
161.443
20
-135.18
11
161.634
21
-135.18
0
LINE
8
BLACK
6
CONTINUOUS
10
163.062
20
-135.085
11
162.872
21
-135.18
0
LINE
8
BLACK
6
CONTINUOUS
10
162.872
20
-135.18
11
162.491
21
-135.18
0
LINE
8
BLACK
6
CONTINUOUS
10
162.491
20
-135.18
11
162.3
21
-135.085
0
LINE
8
BLACK
6
CONTINUOUS
10
162.3
20
-135.085
11
162.205
21
-134.894
0
LINE
8
BLACK
6
CONTINUOUS
10
162.205
20
-134.894
11
162.205
21
-134.132
0
LINE
8
BLACK
6
CONTINUOUS
10
162.205
20
-134.132
11
162.3
21
-133.942
0
LINE
8
BLACK
6
CONTINUOUS
10
162.3
20
-133.942
11
162.491
21
-133.846
0
LINE
8
BLACK
6
CONTINUOUS
10
162.491
20
-133.846
11
162.872
21
-133.846
0
LINE
8
BLACK
6
CONTINUOUS
10
162.872
20
-133.846
11
163.062
21
-133.942
0
LINE
8
BLACK
6
CONTINUOUS
10
163.062
20
-133.942
11
163.157
21
-134.132
0
LINE
8
BLACK
6
CONTINUOUS
10
163.157
20
-134.132
11
163.157
21
-134.323
0
LINE
8
BLACK
6
CONTINUOUS
10
163.157
20
-134.323
11
162.205
21
-134.513
0
LINE
8
BLACK
6
CONTINUOUS
10
164.872
20
-135.18
11
164.872
21
-133.18
0
LINE
8
BLACK
6
CONTINUOUS
10
164.872
20
-135.085
11
164.681
21
-135.18
0
LINE
8
BLACK
6
CONTINUOUS
10
164.681
20
-135.18
11
164.3
21
-135.18
0
LINE
8
BLACK
6
CONTINUOUS
10
164.3
20
-135.18
11
164.11
21
-135.085
0
LINE
8
BLACK
6
CONTINUOUS
10
164.11
20
-135.085
11
164.015
21
-134.989
0
LINE
8
BLACK
6
CONTINUOUS
10
164.015
20
-134.989
11
163.919
21
-134.799
0
LINE
8
BLACK
6
CONTINUOUS
10
163.919
20
-134.799
11
163.919
21
-134.227
0
LINE
8
BLACK
6
CONTINUOUS
10
163.919
20
-134.227
11
164.015
21
-134.037
0
LINE
8
BLACK
6
CONTINUOUS
10
164.015
20
-134.037
11
164.11
21
-133.942
0
LINE
8
BLACK
6
CONTINUOUS
10
164.11
20
-133.942
11
164.3
21
-133.846
0
LINE
8
BLACK
6
CONTINUOUS
10
164.3
20
-133.846
11
164.681
21
-133.846
0
LINE
8
BLACK
6
CONTINUOUS
10
164.681
20
-133.846
11
164.872
21
-133.942
0
LINE
8
BLACK
6
CONTINUOUS
10
165.634
20
-135.942
11
165.729
21
-135.846
0
LINE
8
BLACK
6
CONTINUOUS
10
165.729
20
-135.846
11
165.919
21
-135.561
0
LINE
8
BLACK
6
CONTINUOUS
10
165.919
20
-135.561
11
166.015
21
-135.37
0
LINE
8
BLACK
6
CONTINUOUS
10
166.015
20
-135.37
11
166.11
21
-135.085
0
LINE
8
BLACK
6
CONTINUOUS
10
166.11
20
-135.085
11
166.205
21
-134.608
0
LINE
8
BLACK
6
CONTINUOUS
10
166.205
20
-134.608
11
166.205
21
-134.227
0
LINE
8
BLACK
6
CONTINUOUS
10
166.205
20
-134.227
11
166.11
21
-133.751
0
LINE
8
BLACK
6
CONTINUOUS
10
166.11
20
-133.751
11
166.015
21
-133.465
0
LINE
8
BLACK
6
CONTINUOUS
10
166.015
20
-133.465
11
165.919
21
-133.275
0
LINE
8
BLACK
6
CONTINUOUS
10
165.919
20
-133.275
11
165.729
21
-132.989
0
LINE
8
BLACK
6
CONTINUOUS
10
165.729
20
-132.989
11
165.634
21
-132.894
  0
ENDSEC
  0
EOF
