  0
SECTION
  2
HEADER
  9
$ANGBASE
  50
0.0
  9
$ANGDIR
  70
1
  9
$MEASUREMENT
  70
1
  0
ENDSEC
  0
SECTION
  2
TABLES
  0
TABLE
  2
LTYPE
  70
4
  0
LTYPE
  5
40F
  2
CONTINUOUS
  70
0
  3
Solid line
  72
65
  73
0
  40
0.0
  0
LTYPE
  5
410
  2
DASHDOT
 70
0
  3
Dash Dot ____ _ ____ _
 72
65
 73
4
 40
2.0
 49
1.25
 49
-0.25
 49
0.25
 49
-0.25
  0
LTYPE
  5
411
  2
DASHED
 70
0
  3
Dashed __ __ __ __ __
 72
65
 73
2
 40
0.75
 49
0.5
 49
-0.25
  0
LTYPE
  5
43B
  2
DOTTED
 70
0
  3
Dotted .  .  .  .
 72
65
 73
2
 40
0.2
 49
0.0
 49
-0.2
  0
ENDTAB
  0
TABLE
  2
STYLE
  70
4
  0
STYLE
  2
KICAD
  70
0
  40
0
  41
1
  42
1
  50
0
  71
0
  3
isocp.shx
  0
STYLE
  2
KICADB
  70
0
  40
0
  41
1
  42
1
  50
0
  71
0
  3
isocp.shx
  0
STYLE
  2
KICADI
  70
0
  40
0
  41
1
  42
1
  50
15
  71
0
  3
isocp.shx
  0
STYLE
  2
KICADBI
  70
0
  40
0
  41
1
  42
1
  50
15
  71
0
  3
isocp.shx
  0
ENDTAB
  0
TABLE
  2
LAYER
  70
1
  0
LAYER
  2
BLACK
  70
0
  62
7
  6
CONTINUOUS
  0
ENDTAB
  0
ENDSEC
  0
SECTION
  2
ENTITIES
0
LINE
8
BLACK
6
CONTINUOUS
10
-0.050355
20
-0.070355
11
-0.065
21
-0.035
0
LINE
8
BLACK
6
CONTINUOUS
10
-0.065
20
-0.035
11
-0.065
21
69.915
0
LINE
8
BLACK
6
CONTINUOUS
10
-0.065
20
69.915
11
-0.050355
21
69.9504
0
LINE
8
BLACK
6
CONTINUOUS
10
-0.050355
20
69.9504
11
-0.015
21
69.965
0
LINE
8
BLACK
6
CONTINUOUS
10
-0.015
20
69.965
11
79.62
21
69.965
0
LINE
8
BLACK
6
CONTINUOUS
10
79.62
20
69.965
11
79.6554
21
69.9504
0
LINE
8
BLACK
6
CONTINUOUS
10
79.6554
20
69.9504
11
79.67
21
69.915
0
LINE
8
BLACK
6
CONTINUOUS
10
79.67
20
69.915
11
79.67
21
-0.035
0
LINE
8
BLACK
6
CONTINUOUS
10
79.67
20
-0.035
11
79.6554
21
-0.070355
0
LINE
8
BLACK
6
CONTINUOUS
10
79.6554
20
-0.070355
11
79.62
21
-0.085
0
LINE
8
BLACK
6
CONTINUOUS
10
79.62
20
-0.085
11
-0.015
21
-0.085
0
LINE
8
BLACK
6
CONTINUOUS
10
-0.015
20
-0.085
11
-0.050355
21
-0.070355
0
LINE
8
BLACK
6
CONTINUOUS
10
0.035
20
69.865
11
0.035
21
0.015
0
LINE
8
BLACK
6
CONTINUOUS
10
0.035
20
0.015
11
79.57
21
0.015
0
LINE
8
BLACK
6
CONTINUOUS
10
79.57
20
0.015
11
79.57
21
69.865
0
LINE
8
BLACK
6
CONTINUOUS
10
79.57
20
69.865
11
0.035
21
69.865
0
LINE
8
BLACK
6
CONTINUOUS
10
59.9629
20
45.3093
11
59.9673
21
45.3096
0
LINE
8
BLACK
6
CONTINUOUS
10
59.9673
20
45.3096
11
59.9848
21
45.2967
0
LINE
8
BLACK
6
CONTINUOUS
10
59.9848
20
45.2967
11
60.0036
21
45.2858
0
LINE
8
BLACK
6
CONTINUOUS
10
60.0036
20
45.2858
11
60.0051
21
45.2818
0
LINE
8
BLACK
6
CONTINUOUS
10
60.0051
20
45.2818
11
60.0086
21
45.2792
0
LINE
8
BLACK
6
CONTINUOUS
10
60.0086
20
45.2792
11
60.0997
21
45.1425
0
LINE
8
BLACK
6
CONTINUOUS
10
60.0997
20
45.1425
11
60.1811
21
45.0612
0
LINE
8
BLACK
6
CONTINUOUS
10
60.1811
20
45.0612
11
60.2654
21
45.019
0
LINE
8
BLACK
6
CONTINUOUS
10
60.2654
20
45.019
11
60.2864
21
45.0035
0
LINE
8
BLACK
6
CONTINUOUS
10
60.2864
20
45.0035
11
60.3068
21
44.9564
0
LINE
8
BLACK
6
CONTINUOUS
10
60.3068
20
44.9564
11
60.2921
21
44.9072
0
LINE
8
BLACK
6
CONTINUOUS
10
60.2921
20
44.9072
11
60.2493
21
44.879
0
LINE
8
BLACK
6
CONTINUOUS
10
60.2493
20
44.879
11
60.1984
21
44.8848
0
LINE
8
BLACK
6
CONTINUOUS
10
60.1984
20
44.8848
11
60.1031
21
44.9324
0
LINE
8
BLACK
6
CONTINUOUS
10
60.1031
20
44.9324
11
60.0851
21
44.9458
0
LINE
8
BLACK
6
CONTINUOUS
10
60.0851
20
44.9458
11
60.0836
21
44.9465
0
LINE
8
BLACK
6
CONTINUOUS
10
60.0836
20
44.9465
11
60.0212
21
45.0089
0
LINE
8
BLACK
6
CONTINUOUS
10
60.0212
20
45.0089
11
60.0212
21
44.3126
0
LINE
8
BLACK
6
CONTINUOUS
10
60.0212
20
44.3126
11
60.2319
21
44.3126
0
LINE
8
BLACK
6
CONTINUOUS
10
60.2319
20
44.3126
11
60.2576
21
44.3081
0
LINE
8
BLACK
6
CONTINUOUS
10
60.2576
20
44.3081
11
60.2969
21
44.2751
0
LINE
8
BLACK
6
CONTINUOUS
10
60.2969
20
44.2751
11
60.3058
21
44.2246
0
LINE
8
BLACK
6
CONTINUOUS
10
60.3058
20
44.2246
11
60.2801
21
44.1802
0
LINE
8
BLACK
6
CONTINUOUS
10
60.2801
20
44.1802
11
60.2319
21
44.1626
0
LINE
8
BLACK
6
CONTINUOUS
10
60.2319
20
44.1626
11
59.6605
21
44.1626
0
LINE
8
BLACK
6
CONTINUOUS
10
59.6605
20
44.1626
11
59.6348
21
44.1671
0
LINE
8
BLACK
6
CONTINUOUS
10
59.6348
20
44.1671
11
59.5955
21
44.2001
0
LINE
8
BLACK
6
CONTINUOUS
10
59.5955
20
44.2001
11
59.5866
21
44.2506
0
LINE
8
BLACK
6
CONTINUOUS
10
59.5866
20
44.2506
11
59.6123
21
44.2951
0
LINE
8
BLACK
6
CONTINUOUS
10
59.6123
20
44.2951
11
59.6605
21
44.3126
0
LINE
8
BLACK
6
CONTINUOUS
10
59.6605
20
44.3126
11
59.8712
21
44.3126
0
LINE
8
BLACK
6
CONTINUOUS
10
59.8712
20
44.3126
11
59.8712
21
45.2376
0
LINE
8
BLACK
6
CONTINUOUS
10
59.8712
20
45.2376
11
59.8757
21
45.2633
0
LINE
8
BLACK
6
CONTINUOUS
10
59.8757
20
45.2633
11
59.8785
21
45.2666
0
LINE
8
BLACK
6
CONTINUOUS
10
59.8785
20
45.2666
11
59.879
21
45.2709
0
LINE
8
BLACK
6
CONTINUOUS
10
59.879
20
45.2709
11
59.8947
21
45.2859
0
LINE
8
BLACK
6
CONTINUOUS
10
59.8947
20
45.2859
11
59.9087
21
45.3026
0
LINE
8
BLACK
6
CONTINUOUS
10
59.9087
20
45.3026
11
59.9129
21
45.3033
0
LINE
8
BLACK
6
CONTINUOUS
10
59.9129
20
45.3033
11
59.9161
21
45.3063
0
LINE
8
BLACK
6
CONTINUOUS
10
59.9161
20
45.3063
11
59.9378
21
45.3077
0
LINE
8
BLACK
6
CONTINUOUS
10
59.9378
20
45.3077
11
59.9592
21
45.3115
0
LINE
8
BLACK
6
CONTINUOUS
10
59.9592
20
45.3115
11
59.9629
21
45.3093
0
LINE
8
BLACK
6
CONTINUOUS
10
61.2894
20
45.2858
11
61.3069
21
45.2376
0
LINE
8
BLACK
6
CONTINUOUS
10
61.3069
20
45.2376
11
61.3069
21
44.4281
0
LINE
8
BLACK
6
CONTINUOUS
10
61.3069
20
44.4281
11
61.3024
21
44.4024
0
LINE
8
BLACK
6
CONTINUOUS
10
61.3024
20
44.4024
11
61.2995
21
44.399
0
LINE
8
BLACK
6
CONTINUOUS
10
61.2995
20
44.399
11
61.299
21
44.3946
0
LINE
8
BLACK
6
CONTINUOUS
10
61.299
20
44.3946
11
61.2514
21
44.2993
0
LINE
8
BLACK
6
CONTINUOUS
10
61.2514
20
44.2993
11
61.238
21
44.2813
0
LINE
8
BLACK
6
CONTINUOUS
10
61.238
20
44.2813
11
61.2373
21
44.2798
0
LINE
8
BLACK
6
CONTINUOUS
10
61.2373
20
44.2798
11
61.1897
21
44.2322
0
LINE
8
BLACK
6
CONTINUOUS
10
61.1897
20
44.2322
11
61.1713
21
44.2193
0
LINE
8
BLACK
6
CONTINUOUS
10
61.1713
20
44.2193
11
61.1702
21
44.2182
0
LINE
8
BLACK
6
CONTINUOUS
10
61.1702
20
44.2182
11
61.075
21
44.1705
0
LINE
8
BLACK
6
CONTINUOUS
10
61.075
20
44.1705
11
61.05
21
44.1631
0
LINE
8
BLACK
6
CONTINUOUS
10
61.05
20
44.1631
11
61.0456
21
44.1642
0
LINE
8
BLACK
6
CONTINUOUS
10
61.0456
20
44.1642
11
61.0414
21
44.1626
0
LINE
8
BLACK
6
CONTINUOUS
10
61.0414
20
44.1626
11
60.851
21
44.1626
0
LINE
8
BLACK
6
CONTINUOUS
10
60.851
20
44.1626
11
60.8253
21
44.1671
0
LINE
8
BLACK
6
CONTINUOUS
10
60.8253
20
44.1671
11
60.8219
21
44.17
0
LINE
8
BLACK
6
CONTINUOUS
10
60.8219
20
44.17
11
60.8174
21
44.1705
0
LINE
8
BLACK
6
CONTINUOUS
10
60.8174
20
44.1705
11
60.7222
21
44.2182
0
LINE
8
BLACK
6
CONTINUOUS
10
60.7222
20
44.2182
11
60.7042
21
44.2315
0
LINE
8
BLACK
6
CONTINUOUS
10
60.7042
20
44.2315
11
60.7027
21
44.2322
0
LINE
8
BLACK
6
CONTINUOUS
10
60.7027
20
44.2322
11
60.6551
21
44.2798
0
LINE
8
BLACK
6
CONTINUOUS
10
60.6551
20
44.2798
11
60.6422
21
44.2982
0
LINE
8
BLACK
6
CONTINUOUS
10
60.6422
20
44.2982
11
60.641
21
44.2993
0
LINE
8
BLACK
6
CONTINUOUS
10
60.641
20
44.2993
11
60.5934
21
44.3946
0
LINE
8
BLACK
6
CONTINUOUS
10
60.5934
20
44.3946
11
60.586
21
44.4195
0
LINE
8
BLACK
6
CONTINUOUS
10
60.586
20
44.4195
11
60.587
21
44.4239
0
LINE
8
BLACK
6
CONTINUOUS
10
60.587
20
44.4239
11
60.5855
21
44.4281
0
LINE
8
BLACK
6
CONTINUOUS
10
60.5855
20
44.4281
11
60.5855
21
45.2376
0
LINE
8
BLACK
6
CONTINUOUS
10
60.5855
20
45.2376
11
60.59
21
45.2633
0
LINE
8
BLACK
6
CONTINUOUS
10
60.59
20
45.2633
11
60.623
21
45.3026
0
LINE
8
BLACK
6
CONTINUOUS
10
60.623
20
45.3026
11
60.6735
21
45.3115
0
LINE
8
BLACK
6
CONTINUOUS
10
60.6735
20
45.3115
11
60.7179
21
45.2858
0
LINE
8
BLACK
6
CONTINUOUS
10
60.7179
20
45.2858
11
60.7355
21
45.2376
0
LINE
8
BLACK
6
CONTINUOUS
10
60.7355
20
45.2376
11
60.7355
21
44.4458
0
LINE
8
BLACK
6
CONTINUOUS
10
60.7355
20
44.4458
11
60.7697
21
44.3773
0
LINE
8
BLACK
6
CONTINUOUS
10
60.7697
20
44.3773
11
60.8001
21
44.3469
0
LINE
8
BLACK
6
CONTINUOUS
10
60.8001
20
44.3469
11
60.8687
21
44.3126
0
LINE
8
BLACK
6
CONTINUOUS
10
60.8687
20
44.3126
11
61.0237
21
44.3126
0
LINE
8
BLACK
6
CONTINUOUS
10
61.0237
20
44.3126
11
61.0922
21
44.3469
0
LINE
8
BLACK
6
CONTINUOUS
10
61.0922
20
44.3469
11
61.1226
21
44.3773
0
LINE
8
BLACK
6
CONTINUOUS
10
61.1226
20
44.3773
11
61.1569
21
44.4458
0
LINE
8
BLACK
6
CONTINUOUS
10
61.1569
20
44.4458
11
61.1569
21
45.2376
0
LINE
8
BLACK
6
CONTINUOUS
10
61.1569
20
45.2376
11
61.1614
21
45.2633
0
LINE
8
BLACK
6
CONTINUOUS
10
61.1614
20
45.2633
11
61.1944
21
45.3026
0
LINE
8
BLACK
6
CONTINUOUS
10
61.1944
20
45.3026
11
61.2449
21
45.3115
0
LINE
8
BLACK
6
CONTINUOUS
10
61.2449
20
45.3115
11
61.2894
21
45.2858
0
LINE
8
BLACK
6
CONTINUOUS
10
20.0817
20
55.749
11
20.1144
21
55.7095
0
LINE
8
BLACK
6
CONTINUOUS
10
20.1144
20
55.7095
11
20.2819
21
55.2406
0
LINE
8
BLACK
6
CONTINUOUS
10
20.2819
20
55.2406
11
20.4494
21
55.7095
0
LINE
8
BLACK
6
CONTINUOUS
10
20.4494
20
55.7095
11
20.4623
21
55.7321
0
LINE
8
BLACK
6
CONTINUOUS
10
20.4623
20
55.7321
11
20.5065
21
55.7581
0
LINE
8
BLACK
6
CONTINUOUS
10
20.5065
20
55.7581
11
20.5571
21
55.7495
0
LINE
8
BLACK
6
CONTINUOUS
10
20.5571
20
55.7495
11
20.5903
21
55.7104
0
LINE
8
BLACK
6
CONTINUOUS
10
20.5903
20
55.7104
11
20.5906
21
55.6591
0
LINE
8
BLACK
6
CONTINUOUS
10
20.5906
20
55.6591
11
20.3525
21
54.9924
0
LINE
8
BLACK
6
CONTINUOUS
10
20.3525
20
54.9924
11
20.3516
21
54.9907
0
LINE
8
BLACK
6
CONTINUOUS
10
20.3516
20
54.9907
11
20.3515
21
54.9898
0
LINE
8
BLACK
6
CONTINUOUS
10
20.3515
20
54.9898
11
20.2563
21
54.7517
0
LINE
8
BLACK
6
CONTINUOUS
10
20.2563
20
54.7517
11
20.2426
21
54.7295
0
LINE
8
BLACK
6
CONTINUOUS
10
20.2426
20
54.7295
11
20.2406
21
54.7285
0
LINE
8
BLACK
6
CONTINUOUS
10
20.2406
20
54.7285
11
20.2397
21
54.7265
0
LINE
8
BLACK
6
CONTINUOUS
10
20.2397
20
54.7265
11
20.1921
21
54.6789
0
LINE
8
BLACK
6
CONTINUOUS
10
20.1921
20
54.6789
11
20.1737
21
54.666
0
LINE
8
BLACK
6
CONTINUOUS
10
20.1737
20
54.666
11
20.1726
21
54.6648
0
LINE
8
BLACK
6
CONTINUOUS
10
20.1726
20
54.6648
11
20.0773
21
54.6172
0
LINE
8
BLACK
6
CONTINUOUS
10
20.0773
20
54.6172
11
20.0524
21
54.6098
0
LINE
8
BLACK
6
CONTINUOUS
10
20.0524
20
54.6098
11
20.0025
21
54.6217
0
LINE
8
BLACK
6
CONTINUOUS
10
20.0025
20
54.6217
11
19.9719
21
54.6629
0
LINE
8
BLACK
6
CONTINUOUS
10
19.9719
20
54.6629
11
19.975
21
54.7141
0
LINE
8
BLACK
6
CONTINUOUS
10
19.975
20
54.7141
11
20.0103
21
54.7514
0
LINE
8
BLACK
6
CONTINUOUS
10
20.0103
20
54.7514
11
20.0946
21
54.7935
0
LINE
8
BLACK
6
CONTINUOUS
10
20.0946
20
54.7935
11
20.1227
21
54.8217
0
LINE
8
BLACK
6
CONTINUOUS
10
20.1227
20
54.8217
11
20.2017
21
55.0191
0
LINE
8
BLACK
6
CONTINUOUS
10
20.2017
20
55.0191
11
19.9732
21
55.6591
0
LINE
8
BLACK
6
CONTINUOUS
10
19.9732
20
55.6591
11
19.9688
21
55.6847
0
LINE
8
BLACK
6
CONTINUOUS
10
19.9688
20
55.6847
11
19.9866
21
55.7328
0
LINE
8
BLACK
6
CONTINUOUS
10
19.9866
20
55.7328
11
20.0312
21
55.7582
0
LINE
8
BLACK
6
CONTINUOUS
10
20.0312
20
55.7582
11
20.0817
21
55.749
0
LINE
8
BLACK
6
CONTINUOUS
10
17.5775
20
56.0658
11
17.595
21
56.0176
0
LINE
8
BLACK
6
CONTINUOUS
10
17.595
20
56.0176
11
17.595
21
55.7593
0
LINE
8
BLACK
6
CONTINUOUS
10
17.595
20
55.7593
11
17.7581
21
55.7593
0
LINE
8
BLACK
6
CONTINUOUS
10
17.7581
20
55.7593
11
17.7837
21
55.7548
0
LINE
8
BLACK
6
CONTINUOUS
10
17.7837
20
55.7548
11
17.823
21
55.7218
0
LINE
8
BLACK
6
CONTINUOUS
10
17.823
20
55.7218
11
17.832
21
55.6713
0
LINE
8
BLACK
6
CONTINUOUS
10
17.832
20
55.6713
11
17.8063
21
55.6268
0
LINE
8
BLACK
6
CONTINUOUS
10
17.8063
20
55.6268
11
17.7581
21
55.6093
0
LINE
8
BLACK
6
CONTINUOUS
10
17.7581
20
55.6093
11
17.595
21
55.6093
0
LINE
8
BLACK
6
CONTINUOUS
10
17.595
20
55.6093
11
17.595
21
55.1782
0
LINE
8
BLACK
6
CONTINUOUS
10
17.595
20
55.1782
11
17.6235
21
55.1211
0
LINE
8
BLACK
6
CONTINUOUS
10
17.6235
20
55.1211
11
17.6806
21
55.0926
0
LINE
8
BLACK
6
CONTINUOUS
10
17.6806
20
55.0926
11
17.7581
21
55.0926
0
LINE
8
BLACK
6
CONTINUOUS
10
17.7581
20
55.0926
11
17.7837
21
55.0881
0
LINE
8
BLACK
6
CONTINUOUS
10
17.7837
20
55.0881
11
17.823
21
55.0551
0
LINE
8
BLACK
6
CONTINUOUS
10
17.823
20
55.0551
11
17.832
21
55.0046
0
LINE
8
BLACK
6
CONTINUOUS
10
17.832
20
55.0046
11
17.8063
21
54.9602
0
LINE
8
BLACK
6
CONTINUOUS
10
17.8063
20
54.9602
11
17.7581
21
54.9426
0
LINE
8
BLACK
6
CONTINUOUS
10
17.7581
20
54.9426
11
17.6629
21
54.9426
0
LINE
8
BLACK
6
CONTINUOUS
10
17.6629
20
54.9426
11
17.6372
21
54.9471
0
LINE
8
BLACK
6
CONTINUOUS
10
17.6372
20
54.9471
11
17.6338
21
54.95
0
LINE
8
BLACK
6
CONTINUOUS
10
17.6338
20
54.95
11
17.6293
21
54.9505
0
LINE
8
BLACK
6
CONTINUOUS
10
17.6293
20
54.9505
11
17.5341
21
54.9982
0
LINE
8
BLACK
6
CONTINUOUS
10
17.5341
20
54.9982
11
17.5132
21
55.0137
0
LINE
8
BLACK
6
CONTINUOUS
10
17.5132
20
55.0137
11
17.5087
21
55.024
0
LINE
8
BLACK
6
CONTINUOUS
10
17.5087
20
55.024
11
17.5005
21
55.0317
0
LINE
8
BLACK
6
CONTINUOUS
10
17.5005
20
55.0317
11
17.4529
21
55.1269
0
LINE
8
BLACK
6
CONTINUOUS
10
17.4529
20
55.1269
11
17.4455
21
55.1519
0
LINE
8
BLACK
6
CONTINUOUS
10
17.4455
20
55.1519
11
17.4465
21
55.1563
0
LINE
8
BLACK
6
CONTINUOUS
10
17.4465
20
55.1563
11
17.445
21
55.1605
0
LINE
8
BLACK
6
CONTINUOUS
10
17.445
20
55.1605
11
17.445
21
55.6093
0
LINE
8
BLACK
6
CONTINUOUS
10
17.445
20
55.6093
11
17.3771
21
55.6093
0
LINE
8
BLACK
6
CONTINUOUS
10
17.3771
20
55.6093
11
17.3515
21
55.6138
0
LINE
8
BLACK
6
CONTINUOUS
10
17.3515
20
55.6138
11
17.3122
21
55.6468
0
LINE
8
BLACK
6
CONTINUOUS
10
17.3122
20
55.6468
11
17.3033
21
55.6973
0
LINE
8
BLACK
6
CONTINUOUS
10
17.3033
20
55.6973
11
17.3289
21
55.7417
0
LINE
8
BLACK
6
CONTINUOUS
10
17.3289
20
55.7417
11
17.3771
21
55.7593
0
LINE
8
BLACK
6
CONTINUOUS
10
17.3771
20
55.7593
11
17.445
21
55.7593
0
LINE
8
BLACK
6
CONTINUOUS
10
17.445
20
55.7593
11
17.445
21
56.0176
0
LINE
8
BLACK
6
CONTINUOUS
10
17.445
20
56.0176
11
17.4495
21
56.0433
0
LINE
8
BLACK
6
CONTINUOUS
10
17.4495
20
56.0433
11
17.4825
21
56.0826
0
LINE
8
BLACK
6
CONTINUOUS
10
17.4825
20
56.0826
11
17.533
21
56.0915
0
LINE
8
BLACK
6
CONTINUOUS
10
17.533
20
56.0915
11
17.5775
21
56.0658
0
LINE
8
BLACK
6
CONTINUOUS
10
15.9742
20
56.0881
11
15.9777
21
56.0852
0
LINE
8
BLACK
6
CONTINUOUS
10
15.9777
20
56.0852
11
15.9821
21
56.0847
0
LINE
8
BLACK
6
CONTINUOUS
10
15.9821
20
56.0847
11
16.0774
21
56.0371
0
LINE
8
BLACK
6
CONTINUOUS
10
16.0774
20
56.0371
11
16.0954
21
56.0237
0
LINE
8
BLACK
6
CONTINUOUS
10
16.0954
20
56.0237
11
16.0968
21
56.023
0
LINE
8
BLACK
6
CONTINUOUS
10
16.0968
20
56.023
11
16.1445
21
55.9754
0
LINE
8
BLACK
6
CONTINUOUS
10
16.1445
20
55.9754
11
16.1573
21
55.957
0
LINE
8
BLACK
6
CONTINUOUS
10
16.1573
20
55.957
11
16.1585
21
55.9559
0
LINE
8
BLACK
6
CONTINUOUS
10
16.1585
20
55.9559
11
16.2061
21
55.8607
0
LINE
8
BLACK
6
CONTINUOUS
10
16.2061
20
55.8607
11
16.2136
21
55.8357
0
LINE
8
BLACK
6
CONTINUOUS
10
16.2136
20
55.8357
11
16.2125
21
55.8314
0
LINE
8
BLACK
6
CONTINUOUS
10
16.2125
20
55.8314
11
16.214
21
55.8271
0
LINE
8
BLACK
6
CONTINUOUS
10
16.214
20
55.8271
11
16.214
21
55.7319
0
LINE
8
BLACK
6
CONTINUOUS
10
16.214
20
55.7319
11
16.2095
21
55.7063
0
LINE
8
BLACK
6
CONTINUOUS
10
16.2095
20
55.7063
11
16.2066
21
55.7028
0
LINE
8
BLACK
6
CONTINUOUS
10
16.2066
20
55.7028
11
16.2061
21
55.6984
0
LINE
8
BLACK
6
CONTINUOUS
10
16.2061
20
55.6984
11
16.1585
21
55.6031
0
LINE
8
BLACK
6
CONTINUOUS
10
16.1585
20
55.6031
11
16.1452
21
55.5851
0
LINE
8
BLACK
6
CONTINUOUS
10
16.1452
20
55.5851
11
16.1445
21
55.5836
0
LINE
8
BLACK
6
CONTINUOUS
10
16.1445
20
55.5836
11
16.122
21
55.5612
0
LINE
8
BLACK
6
CONTINUOUS
10
16.122
20
55.5612
11
16.138
21
55.5526
0
LINE
8
BLACK
6
CONTINUOUS
10
16.138
20
55.5526
11
16.1404
21
55.5487
0
LINE
8
BLACK
6
CONTINUOUS
10
16.1404
20
55.5487
11
16.1445
21
55.5468
0
LINE
8
BLACK
6
CONTINUOUS
10
16.1445
20
55.5468
11
16.1921
21
55.4992
0
LINE
8
BLACK
6
CONTINUOUS
10
16.1921
20
55.4992
11
16.2049
21
55.4809
0
LINE
8
BLACK
6
CONTINUOUS
10
16.2049
20
55.4809
11
16.2061
21
55.4797
0
LINE
8
BLACK
6
CONTINUOUS
10
16.2061
20
55.4797
11
16.2537
21
55.3845
0
LINE
8
BLACK
6
CONTINUOUS
10
16.2537
20
55.3845
11
16.2612
21
55.3595
0
LINE
8
BLACK
6
CONTINUOUS
10
16.2612
20
55.3595
11
16.2601
21
55.3552
0
LINE
8
BLACK
6
CONTINUOUS
10
16.2601
20
55.3552
11
16.2617
21
55.351
0
LINE
8
BLACK
6
CONTINUOUS
10
16.2617
20
55.351
11
16.2617
21
55.2081
0
LINE
8
BLACK
6
CONTINUOUS
10
16.2617
20
55.2081
11
16.2571
21
55.1824
0
LINE
8
BLACK
6
CONTINUOUS
10
16.2571
20
55.1824
11
16.2543
21
55.179
0
LINE
8
BLACK
6
CONTINUOUS
10
16.2543
20
55.179
11
16.2537
21
55.1746
0
LINE
8
BLACK
6
CONTINUOUS
10
16.2537
20
55.1746
11
16.2061
21
55.0793
0
LINE
8
BLACK
6
CONTINUOUS
10
16.2061
20
55.0793
11
16.1928
21
55.0613
0
LINE
8
BLACK
6
CONTINUOUS
10
16.1928
20
55.0613
11
16.1921
21
55.0598
0
LINE
8
BLACK
6
CONTINUOUS
10
16.1921
20
55.0598
11
16.1445
21
55.0122
0
LINE
8
BLACK
6
CONTINUOUS
10
16.1445
20
55.0122
11
16.1261
21
54.9993
0
LINE
8
BLACK
6
CONTINUOUS
10
16.1261
20
54.9993
11
16.125
21
54.9982
0
LINE
8
BLACK
6
CONTINUOUS
10
16.125
20
54.9982
11
16.0297
21
54.9505
0
LINE
8
BLACK
6
CONTINUOUS
10
16.0297
20
54.9505
11
16.0048
21
54.9431
0
LINE
8
BLACK
6
CONTINUOUS
10
16.0048
20
54.9431
11
16.0004
21
54.9442
0
LINE
8
BLACK
6
CONTINUOUS
10
16.0004
20
54.9442
11
15.9962
21
54.9426
0
LINE
8
BLACK
6
CONTINUOUS
10
15.9962
20
54.9426
11
15.6152
21
54.9426
0
LINE
8
BLACK
6
CONTINUOUS
10
15.6152
20
54.9426
11
15.6055
21
54.9443
0
LINE
8
BLACK
6
CONTINUOUS
10
15.6055
20
54.9443
11
15.6022
21
54.9438
0
LINE
8
BLACK
6
CONTINUOUS
10
15.6022
20
54.9438
11
15.5993
21
54.9454
0
LINE
8
BLACK
6
CONTINUOUS
10
15.5993
20
54.9454
11
15.5896
21
54.9471
0
LINE
8
BLACK
6
CONTINUOUS
10
15.5896
20
54.9471
11
15.5747
21
54.9597
0
LINE
8
BLACK
6
CONTINUOUS
10
15.5747
20
54.9597
11
15.5578
21
54.9694
0
LINE
8
BLACK
6
CONTINUOUS
10
15.5578
20
54.9694
11
15.5555
21
54.9758
0
LINE
8
BLACK
6
CONTINUOUS
10
15.5555
20
54.9758
11
15.5503
21
54.9801
0
LINE
8
BLACK
6
CONTINUOUS
10
15.5503
20
54.9801
11
15.5469
21
54.9993
0
LINE
8
BLACK
6
CONTINUOUS
10
15.5469
20
54.9993
11
15.5402
21
55.0176
0
LINE
8
BLACK
6
CONTINUOUS
10
15.5402
20
55.0176
11
15.5402
21
56.0176
0
LINE
8
BLACK
6
CONTINUOUS
10
15.5402
20
56.0176
11
15.542
21
56.0274
0
LINE
8
BLACK
6
CONTINUOUS
10
15.542
20
56.0274
11
15.5414
21
56.0306
0
LINE
8
BLACK
6
CONTINUOUS
10
15.5414
20
56.0306
11
15.543
21
56.0335
0
LINE
8
BLACK
6
CONTINUOUS
10
15.543
20
56.0335
11
15.5448
21
56.0433
0
LINE
8
BLACK
6
CONTINUOUS
10
15.5448
20
56.0433
11
15.5573
21
56.0582
0
LINE
8
BLACK
6
CONTINUOUS
10
15.5573
20
56.0582
11
15.567
21
56.0751
0
LINE
8
BLACK
6
CONTINUOUS
10
15.567
20
56.0751
11
15.5734
21
56.0774
0
LINE
8
BLACK
6
CONTINUOUS
10
15.5734
20
56.0774
11
15.5777
21
56.0826
0
LINE
8
BLACK
6
CONTINUOUS
10
15.5777
20
56.0826
11
15.5969
21
56.086
0
LINE
8
BLACK
6
CONTINUOUS
10
15.5969
20
56.086
11
15.6152
21
56.0926
0
LINE
8
BLACK
6
CONTINUOUS
10
15.6152
20
56.0926
11
15.9486
21
56.0926
0
LINE
8
BLACK
6
CONTINUOUS
10
15.9486
20
56.0926
11
15.9742
21
56.0881
0
LINE
8
BLACK
6
CONTINUOUS
10
15.6902
20
55.4664
11
15.6902
21
55.0926
0
LINE
8
BLACK
6
CONTINUOUS
10
15.6902
20
55.0926
11
15.9785
21
55.0926
0
LINE
8
BLACK
6
CONTINUOUS
10
15.9785
20
55.0926
11
16.047
21
55.1269
0
LINE
8
BLACK
6
CONTINUOUS
10
16.047
20
55.1269
11
16.0774
21
55.1573
0
LINE
8
BLACK
6
CONTINUOUS
10
16.0774
20
55.1573
11
16.1117
21
55.2258
0
LINE
8
BLACK
6
CONTINUOUS
10
16.1117
20
55.2258
11
16.1117
21
55.3332
0
LINE
8
BLACK
6
CONTINUOUS
10
16.1117
20
55.3332
11
16.0774
21
55.4018
0
LINE
8
BLACK
6
CONTINUOUS
10
16.0774
20
55.4018
11
16.0509
21
55.4283
0
LINE
8
BLACK
6
CONTINUOUS
10
16.0509
20
55.4283
11
15.9364
21
55.4664
0
LINE
8
BLACK
6
CONTINUOUS
10
15.9364
20
55.4664
11
15.6902
21
55.4664
0
LINE
8
BLACK
6
CONTINUOUS
10
15.6902
20
55.9426
11
15.6902
21
55.6164
0
LINE
8
BLACK
6
CONTINUOUS
10
15.6902
20
55.6164
11
15.9309
21
55.6164
0
LINE
8
BLACK
6
CONTINUOUS
10
15.9309
20
55.6164
11
15.9994
21
55.6507
0
LINE
8
BLACK
6
CONTINUOUS
10
15.9994
20
55.6507
11
16.0298
21
55.6811
0
LINE
8
BLACK
6
CONTINUOUS
10
16.0298
20
55.6811
11
16.064
21
55.7496
0
LINE
8
BLACK
6
CONTINUOUS
10
16.064
20
55.7496
11
16.064
21
55.8094
0
LINE
8
BLACK
6
CONTINUOUS
10
16.064
20
55.8094
11
16.0298
21
55.878
0
LINE
8
BLACK
6
CONTINUOUS
10
16.0298
20
55.878
11
15.9994
21
55.9084
0
LINE
8
BLACK
6
CONTINUOUS
10
15.9994
20
55.9084
11
15.9309
21
55.9426
0
LINE
8
BLACK
6
CONTINUOUS
10
15.9309
20
55.9426
11
15.6902
21
55.9426
0
LINE
8
BLACK
6
CONTINUOUS
10
16.9266
20
55.7548
11
16.93
21
55.7519
0
LINE
8
BLACK
6
CONTINUOUS
10
16.93
20
55.7519
11
16.9345
21
55.7514
0
LINE
8
BLACK
6
CONTINUOUS
10
16.9345
20
55.7514
11
17.0297
21
55.7037
0
LINE
8
BLACK
6
CONTINUOUS
10
17.0297
20
55.7037
11
17.0507
21
55.6882
0
LINE
8
BLACK
6
CONTINUOUS
10
17.0507
20
55.6882
11
17.0551
21
55.6779
0
LINE
8
BLACK
6
CONTINUOUS
10
17.0551
20
55.6779
11
17.0633
21
55.6702
0
LINE
8
BLACK
6
CONTINUOUS
10
17.0633
20
55.6702
11
17.1109
21
55.575
0
LINE
8
BLACK
6
CONTINUOUS
10
17.1109
20
55.575
11
17.1183
21
55.55
0
LINE
8
BLACK
6
CONTINUOUS
10
17.1183
20
55.55
11
17.1173
21
55.5456
0
LINE
8
BLACK
6
CONTINUOUS
10
17.1173
20
55.5456
11
17.1188
21
55.5414
0
LINE
8
BLACK
6
CONTINUOUS
10
17.1188
20
55.5414
11
17.1188
21
55.0176
0
LINE
8
BLACK
6
CONTINUOUS
10
17.1188
20
55.0176
11
17.1143
21
54.992
0
LINE
8
BLACK
6
CONTINUOUS
10
17.1143
20
54.992
11
17.0813
21
54.9527
0
LINE
8
BLACK
6
CONTINUOUS
10
17.0813
20
54.9527
11
17.0308
21
54.9438
0
LINE
8
BLACK
6
CONTINUOUS
10
17.0308
20
54.9438
11
17.0019
21
54.9604
0
LINE
8
BLACK
6
CONTINUOUS
10
17.0019
20
54.9604
11
16.9821
21
54.9505
0
LINE
8
BLACK
6
CONTINUOUS
10
16.9821
20
54.9505
11
16.9571
21
54.9431
0
LINE
8
BLACK
6
CONTINUOUS
10
16.9571
20
54.9431
11
16.9528
21
54.9442
0
LINE
8
BLACK
6
CONTINUOUS
10
16.9528
20
54.9442
11
16.9486
21
54.9426
0
LINE
8
BLACK
6
CONTINUOUS
10
16.9486
20
54.9426
11
16.7105
21
54.9426
0
LINE
8
BLACK
6
CONTINUOUS
10
16.7105
20
54.9426
11
16.6848
21
54.9471
0
LINE
8
BLACK
6
CONTINUOUS
10
16.6848
20
54.9471
11
16.6814
21
54.95
0
LINE
8
BLACK
6
CONTINUOUS
10
16.6814
20
54.95
11
16.6769
21
54.9505
0
LINE
8
BLACK
6
CONTINUOUS
10
16.6769
20
54.9505
11
16.5817
21
54.9982
0
LINE
8
BLACK
6
CONTINUOUS
10
16.5817
20
54.9982
11
16.5608
21
55.0137
0
LINE
8
BLACK
6
CONTINUOUS
10
16.5608
20
55.0137
11
16.5563
21
55.024
0
LINE
8
BLACK
6
CONTINUOUS
10
16.5563
20
55.024
11
16.5482
21
55.0317
0
LINE
8
BLACK
6
CONTINUOUS
10
16.5482
20
55.0317
11
16.5005
21
55.1269
0
LINE
8
BLACK
6
CONTINUOUS
10
16.5005
20
55.1269
11
16.4931
21
55.1519
0
LINE
8
BLACK
6
CONTINUOUS
10
16.4931
20
55.1519
11
16.4942
21
55.1563
0
LINE
8
BLACK
6
CONTINUOUS
10
16.4942
20
55.1563
11
16.4926
21
55.1605
0
LINE
8
BLACK
6
CONTINUOUS
10
16.4926
20
55.1605
11
16.4926
21
55.2557
0
LINE
8
BLACK
6
CONTINUOUS
10
16.4926
20
55.2557
11
16.4971
21
55.2814
0
LINE
8
BLACK
6
CONTINUOUS
10
16.4971
20
55.2814
11
16.5
21
55.2848
0
LINE
8
BLACK
6
CONTINUOUS
10
16.5
20
55.2848
11
16.5005
21
55.2893
0
LINE
8
BLACK
6
CONTINUOUS
10
16.5005
20
55.2893
11
16.5482
21
55.3845
0
LINE
8
BLACK
6
CONTINUOUS
10
16.5482
20
55.3845
11
16.5637
21
55.4054
0
LINE
8
BLACK
6
CONTINUOUS
10
16.5637
20
55.4054
11
16.574
21
55.4099
0
LINE
8
BLACK
6
CONTINUOUS
10
16.574
20
55.4099
11
16.5817
21
55.418
0
LINE
8
BLACK
6
CONTINUOUS
10
16.5817
20
55.418
11
16.6769
21
55.4657
0
LINE
8
BLACK
6
CONTINUOUS
10
16.6769
20
55.4657
11
16.7019
21
55.4731
0
LINE
8
BLACK
6
CONTINUOUS
10
16.7019
20
55.4731
11
16.7063
21
55.472
0
LINE
8
BLACK
6
CONTINUOUS
10
16.7063
20
55.472
11
16.7105
21
55.4736
0
LINE
8
BLACK
6
CONTINUOUS
10
16.7105
20
55.4736
11
16.9309
21
55.4736
0
LINE
8
BLACK
6
CONTINUOUS
10
16.9309
20
55.4736
11
16.9688
21
55.4925
0
LINE
8
BLACK
6
CONTINUOUS
10
16.9688
20
55.4925
11
16.9688
21
55.5237
0
LINE
8
BLACK
6
CONTINUOUS
10
16.9688
20
55.5237
11
16.9403
21
55.5808
0
LINE
8
BLACK
6
CONTINUOUS
10
16.9403
20
55.5808
11
16.8832
21
55.6093
0
LINE
8
BLACK
6
CONTINUOUS
10
16.8832
20
55.6093
11
16.7282
21
55.6093
0
LINE
8
BLACK
6
CONTINUOUS
10
16.7282
20
55.6093
11
16.6488
21
55.5696
0
LINE
8
BLACK
6
CONTINUOUS
10
16.6488
20
55.5696
11
16.6238
21
55.5622
0
LINE
8
BLACK
6
CONTINUOUS
10
16.6238
20
55.5622
11
16.5739
21
55.5741
0
LINE
8
BLACK
6
CONTINUOUS
10
16.5739
20
55.5741
11
16.5434
21
55.6153
0
LINE
8
BLACK
6
CONTINUOUS
10
16.5434
20
55.6153
11
16.5464
21
55.6665
0
LINE
8
BLACK
6
CONTINUOUS
10
16.5464
20
55.6665
11
16.5817
21
55.7037
0
LINE
8
BLACK
6
CONTINUOUS
10
16.5817
20
55.7037
11
16.6769
21
55.7514
0
LINE
8
BLACK
6
CONTINUOUS
10
16.6769
20
55.7514
11
16.7019
21
55.7588
0
LINE
8
BLACK
6
CONTINUOUS
10
16.7019
20
55.7588
11
16.7063
21
55.7578
0
LINE
8
BLACK
6
CONTINUOUS
10
16.7063
20
55.7578
11
16.7105
21
55.7593
0
LINE
8
BLACK
6
CONTINUOUS
10
16.7105
20
55.7593
11
16.901
21
55.7593
0
LINE
8
BLACK
6
CONTINUOUS
10
16.901
20
55.7593
11
16.9266
21
55.7548
0
LINE
8
BLACK
6
CONTINUOUS
10
16.9571
20
55.3241
11
16.9528
21
55.3251
0
LINE
8
BLACK
6
CONTINUOUS
10
16.9528
20
55.3251
11
16.9486
21
55.3236
0
LINE
8
BLACK
6
CONTINUOUS
10
16.9486
20
55.3236
11
16.7282
21
55.3236
0
LINE
8
BLACK
6
CONTINUOUS
10
16.7282
20
55.3236
11
16.6711
21
55.2951
0
LINE
8
BLACK
6
CONTINUOUS
10
16.6711
20
55.2951
11
16.6426
21
55.238
0
LINE
8
BLACK
6
CONTINUOUS
10
16.6426
20
55.238
11
16.6426
21
55.1782
0
LINE
8
BLACK
6
CONTINUOUS
10
16.6426
20
55.1782
11
16.6711
21
55.1211
0
LINE
8
BLACK
6
CONTINUOUS
10
16.6711
20
55.1211
11
16.7282
21
55.0926
0
LINE
8
BLACK
6
CONTINUOUS
10
16.7282
20
55.0926
11
16.9309
21
55.0926
0
LINE
8
BLACK
6
CONTINUOUS
10
16.9309
20
55.0926
11
16.9688
21
55.1116
0
LINE
8
BLACK
6
CONTINUOUS
10
16.9688
20
55.1116
11
16.9688
21
55.3275
0
LINE
8
BLACK
6
CONTINUOUS
10
16.9688
20
55.3275
11
16.9571
21
55.3241
0
LINE
8
BLACK
6
CONTINUOUS
10
18.9742
20
55.7548
11
18.9777
21
55.7519
0
LINE
8
BLACK
6
CONTINUOUS
10
18.9777
20
55.7519
11
18.9821
21
55.7514
0
LINE
8
BLACK
6
CONTINUOUS
10
18.9821
20
55.7514
11
19.0773
21
55.7037
0
LINE
8
BLACK
6
CONTINUOUS
10
19.0773
20
55.7037
11
19.0983
21
55.6882
0
LINE
8
BLACK
6
CONTINUOUS
10
19.0983
20
55.6882
11
19.1027
21
55.6779
0
LINE
8
BLACK
6
CONTINUOUS
10
19.1027
20
55.6779
11
19.1109
21
55.6702
0
LINE
8
BLACK
6
CONTINUOUS
10
19.1109
20
55.6702
11
19.1585
21
55.575
0
LINE
8
BLACK
6
CONTINUOUS
10
19.1585
20
55.575
11
19.1659
21
55.55
0
LINE
8
BLACK
6
CONTINUOUS
10
19.1659
20
55.55
11
19.1649
21
55.5456
0
LINE
8
BLACK
6
CONTINUOUS
10
19.1649
20
55.5456
11
19.1664
21
55.5414
0
LINE
8
BLACK
6
CONTINUOUS
10
19.1664
20
55.5414
11
19.1664
21
55.4462
0
LINE
8
BLACK
6
CONTINUOUS
10
19.1664
20
55.4462
11
19.1619
21
55.4205
0
LINE
8
BLACK
6
CONTINUOUS
10
19.1619
20
55.4205
11
19.1539
21
55.411
0
LINE
8
BLACK
6
CONTINUOUS
10
19.1539
20
55.411
11
19.15
21
55.3993
0
LINE
8
BLACK
6
CONTINUOUS
10
19.15
20
55.3993
11
19.138
21
55.392
0
LINE
8
BLACK
6
CONTINUOUS
10
19.138
20
55.392
11
19.1289
21
55.3812
0
LINE
8
BLACK
6
CONTINUOUS
10
19.1289
20
55.3812
11
19.1167
21
55.3791
0
LINE
8
BLACK
6
CONTINUOUS
10
19.1167
20
55.3791
11
19.1061
21
55.3726
0
LINE
8
BLACK
6
CONTINUOUS
10
19.1061
20
55.3726
11
18.6902
21
55.2895
0
LINE
8
BLACK
6
CONTINUOUS
10
18.6902
20
55.2895
11
18.6902
21
55.1782
0
LINE
8
BLACK
6
CONTINUOUS
10
18.6902
20
55.1782
11
18.7188
21
55.1211
0
LINE
8
BLACK
6
CONTINUOUS
10
18.7188
20
55.1211
11
18.7758
21
55.0926
0
LINE
8
BLACK
6
CONTINUOUS
10
18.7758
20
55.0926
11
18.9309
21
55.0926
0
LINE
8
BLACK
6
CONTINUOUS
10
18.9309
20
55.0926
11
19.0103
21
55.1323
0
LINE
8
BLACK
6
CONTINUOUS
10
19.0103
20
55.1323
11
19.0352
21
55.1397
0
LINE
8
BLACK
6
CONTINUOUS
10
19.0352
20
55.1397
11
19.0851
21
55.1278
0
LINE
8
BLACK
6
CONTINUOUS
10
19.0851
20
55.1278
11
19.1157
21
55.0866
0
LINE
8
BLACK
6
CONTINUOUS
10
19.1157
20
55.0866
11
19.1126
21
55.0354
0
LINE
8
BLACK
6
CONTINUOUS
10
19.1126
20
55.0354
11
19.0773
21
54.9982
0
LINE
8
BLACK
6
CONTINUOUS
10
19.0773
20
54.9982
11
18.9821
21
54.9505
0
LINE
8
BLACK
6
CONTINUOUS
10
18.9821
20
54.9505
11
18.9571
21
54.9431
0
LINE
8
BLACK
6
CONTINUOUS
10
18.9571
20
54.9431
11
18.9528
21
54.9442
0
LINE
8
BLACK
6
CONTINUOUS
10
18.9528
20
54.9442
11
18.9486
21
54.9426
0
LINE
8
BLACK
6
CONTINUOUS
10
18.9486
20
54.9426
11
18.7581
21
54.9426
0
LINE
8
BLACK
6
CONTINUOUS
10
18.7581
20
54.9426
11
18.7324
21
54.9471
0
LINE
8
BLACK
6
CONTINUOUS
10
18.7324
20
54.9471
11
18.729
21
54.95
0
LINE
8
BLACK
6
CONTINUOUS
10
18.729
20
54.95
11
18.7246
21
54.9505
0
LINE
8
BLACK
6
CONTINUOUS
10
18.7246
20
54.9505
11
18.6293
21
54.9982
0
LINE
8
BLACK
6
CONTINUOUS
10
18.6293
20
54.9982
11
18.6084
21
55.0137
0
LINE
8
BLACK
6
CONTINUOUS
10
18.6084
20
55.0137
11
18.6039
21
55.024
0
LINE
8
BLACK
6
CONTINUOUS
10
18.6039
20
55.024
11
18.5958
21
55.0317
0
LINE
8
BLACK
6
CONTINUOUS
10
18.5958
20
55.0317
11
18.5482
21
55.1269
0
LINE
8
BLACK
6
CONTINUOUS
10
18.5482
20
55.1269
11
18.5407
21
55.1519
0
LINE
8
BLACK
6
CONTINUOUS
10
18.5407
20
55.1519
11
18.5418
21
55.1563
0
LINE
8
BLACK
6
CONTINUOUS
10
18.5418
20
55.1563
11
18.5402
21
55.1605
0
LINE
8
BLACK
6
CONTINUOUS
10
18.5402
20
55.1605
11
18.5402
21
55.5414
0
LINE
8
BLACK
6
CONTINUOUS
10
18.5402
20
55.5414
11
18.5448
21
55.5671
0
LINE
8
BLACK
6
CONTINUOUS
10
18.5448
20
55.5671
11
18.5476
21
55.5705
0
LINE
8
BLACK
6
CONTINUOUS
10
18.5476
20
55.5705
11
18.5482
21
55.575
0
LINE
8
BLACK
6
CONTINUOUS
10
18.5482
20
55.575
11
18.5958
21
55.6702
0
LINE
8
BLACK
6
CONTINUOUS
10
18.5958
20
55.6702
11
18.6113
21
55.6911
0
LINE
8
BLACK
6
CONTINUOUS
10
18.6113
20
55.6911
11
18.6216
21
55.6956
0
LINE
8
BLACK
6
CONTINUOUS
10
18.6216
20
55.6956
11
18.6293
21
55.7037
0
LINE
8
BLACK
6
CONTINUOUS
10
18.6293
20
55.7037
11
18.7246
21
55.7514
0
LINE
8
BLACK
6
CONTINUOUS
10
18.7246
20
55.7514
11
18.7495
21
55.7588
0
LINE
8
BLACK
6
CONTINUOUS
10
18.7495
20
55.7588
11
18.7539
21
55.7578
0
LINE
8
BLACK
6
CONTINUOUS
10
18.7539
20
55.7578
11
18.7581
21
55.7593
0
LINE
8
BLACK
6
CONTINUOUS
10
18.7581
20
55.7593
11
18.9486
21
55.7593
0
LINE
8
BLACK
6
CONTINUOUS
10
18.9486
20
55.7593
11
18.9742
21
55.7548
0
LINE
8
BLACK
6
CONTINUOUS
10
18.7758
20
55.6093
11
18.7188
21
55.5808
0
LINE
8
BLACK
6
CONTINUOUS
10
18.7188
20
55.5808
11
18.6902
21
55.5237
0
LINE
8
BLACK
6
CONTINUOUS
10
18.6902
20
55.5237
11
18.6902
21
55.4424
0
LINE
8
BLACK
6
CONTINUOUS
10
18.6902
20
55.4424
11
19.0164
21
55.5077
0
LINE
8
BLACK
6
CONTINUOUS
10
19.0164
20
55.5077
11
19.0164
21
55.5237
0
LINE
8
BLACK
6
CONTINUOUS
10
19.0164
20
55.5237
11
18.9879
21
55.5808
0
LINE
8
BLACK
6
CONTINUOUS
10
18.9879
20
55.5808
11
18.9309
21
55.6093
0
LINE
8
BLACK
6
CONTINUOUS
10
18.9309
20
55.6093
11
18.7758
21
55.6093
0
LINE
8
BLACK
6
CONTINUOUS
10
18.1489
20
56.0658
11
18.1664
21
56.0176
0
LINE
8
BLACK
6
CONTINUOUS
10
18.1664
20
56.0176
11
18.1664
21
55.7593
0
LINE
8
BLACK
6
CONTINUOUS
10
18.1664
20
55.7593
11
18.3295
21
55.7593
0
LINE
8
BLACK
6
CONTINUOUS
10
18.3295
20
55.7593
11
18.3552
21
55.7548
0
LINE
8
BLACK
6
CONTINUOUS
10
18.3552
20
55.7548
11
18.3945
21
55.7218
0
LINE
8
BLACK
6
CONTINUOUS
10
18.3945
20
55.7218
11
18.4034
21
55.6713
0
LINE
8
BLACK
6
CONTINUOUS
10
18.4034
20
55.6713
11
18.3777
21
55.6268
0
LINE
8
BLACK
6
CONTINUOUS
10
18.3777
20
55.6268
11
18.3295
21
55.6093
0
LINE
8
BLACK
6
CONTINUOUS
10
18.3295
20
55.6093
11
18.1664
21
55.6093
0
LINE
8
BLACK
6
CONTINUOUS
10
18.1664
20
55.6093
11
18.1664
21
55.1782
0
LINE
8
BLACK
6
CONTINUOUS
10
18.1664
20
55.1782
11
18.1949
21
55.1211
0
LINE
8
BLACK
6
CONTINUOUS
10
18.1949
20
55.1211
11
18.252
21
55.0926
0
LINE
8
BLACK
6
CONTINUOUS
10
18.252
20
55.0926
11
18.3295
21
55.0926
0
LINE
8
BLACK
6
CONTINUOUS
10
18.3295
20
55.0926
11
18.3552
21
55.0881
0
LINE
8
BLACK
6
CONTINUOUS
10
18.3552
20
55.0881
11
18.3945
21
55.0551
0
LINE
8
BLACK
6
CONTINUOUS
10
18.3945
20
55.0551
11
18.4034
21
55.0046
0
LINE
8
BLACK
6
CONTINUOUS
10
18.4034
20
55.0046
11
18.3777
21
54.9602
0
LINE
8
BLACK
6
CONTINUOUS
10
18.3777
20
54.9602
11
18.3295
21
54.9426
0
LINE
8
BLACK
6
CONTINUOUS
10
18.3295
20
54.9426
11
18.2343
21
54.9426
0
LINE
8
BLACK
6
CONTINUOUS
10
18.2343
20
54.9426
11
18.2086
21
54.9471
0
LINE
8
BLACK
6
CONTINUOUS
10
18.2086
20
54.9471
11
18.2052
21
54.95
0
LINE
8
BLACK
6
CONTINUOUS
10
18.2052
20
54.95
11
18.2007
21
54.9505
0
LINE
8
BLACK
6
CONTINUOUS
10
18.2007
20
54.9505
11
18.1055
21
54.9982
0
LINE
8
BLACK
6
CONTINUOUS
10
18.1055
20
54.9982
11
18.0846
21
55.0137
0
LINE
8
BLACK
6
CONTINUOUS
10
18.0846
20
55.0137
11
18.0801
21
55.024
0
LINE
8
BLACK
6
CONTINUOUS
10
18.0801
20
55.024
11
18.072
21
55.0317
0
LINE
8
BLACK
6
CONTINUOUS
10
18.072
20
55.0317
11
18.0243
21
55.1269
0
LINE
8
BLACK
6
CONTINUOUS
10
18.0243
20
55.1269
11
18.0169
21
55.1519
0
LINE
8
BLACK
6
CONTINUOUS
10
18.0169
20
55.1519
11
18.018
21
55.1563
0
LINE
8
BLACK
6
CONTINUOUS
10
18.018
20
55.1563
11
18.0164
21
55.1605
0
LINE
8
BLACK
6
CONTINUOUS
10
18.0164
20
55.1605
11
18.0164
21
55.6093
0
LINE
8
BLACK
6
CONTINUOUS
10
18.0164
20
55.6093
11
17.9486
21
55.6093
0
LINE
8
BLACK
6
CONTINUOUS
10
17.9486
20
55.6093
11
17.9229
21
55.6138
0
LINE
8
BLACK
6
CONTINUOUS
10
17.9229
20
55.6138
11
17.8836
21
55.6468
0
LINE
8
BLACK
6
CONTINUOUS
10
17.8836
20
55.6468
11
17.8747
21
55.6973
0
LINE
8
BLACK
6
CONTINUOUS
10
17.8747
20
55.6973
11
17.9004
21
55.7417
0
LINE
8
BLACK
6
CONTINUOUS
10
17.9004
20
55.7417
11
17.9486
21
55.7593
0
LINE
8
BLACK
6
CONTINUOUS
10
17.9486
20
55.7593
11
18.0164
21
55.7593
0
LINE
8
BLACK
6
CONTINUOUS
10
18.0164
20
55.7593
11
18.0164
21
56.0176
0
LINE
8
BLACK
6
CONTINUOUS
10
18.0164
20
56.0176
11
18.021
21
56.0433
0
LINE
8
BLACK
6
CONTINUOUS
10
18.021
20
56.0433
11
18.0539
21
56.0826
0
LINE
8
BLACK
6
CONTINUOUS
10
18.0539
20
56.0826
11
18.1045
21
56.0915
0
LINE
8
BLACK
6
CONTINUOUS
10
18.1045
20
56.0915
11
18.1489
21
56.0658
0
LINE
8
BLACK
6
CONTINUOUS
10
19.8314
20
55.7548
11
19.8707
21
55.7218
0
LINE
8
BLACK
6
CONTINUOUS
10
19.8707
20
55.7218
11
19.8796
21
55.6713
0
LINE
8
BLACK
6
CONTINUOUS
10
19.8796
20
55.6713
11
19.8539
21
55.6268
0
LINE
8
BLACK
6
CONTINUOUS
10
19.8539
20
55.6268
11
19.8057
21
55.6093
0
LINE
8
BLACK
6
CONTINUOUS
10
19.8057
20
55.6093
11
19.7282
21
55.6093
0
LINE
8
BLACK
6
CONTINUOUS
10
19.7282
20
55.6093
11
19.6597
21
55.575
0
LINE
8
BLACK
6
CONTINUOUS
10
19.6597
20
55.575
11
19.6293
21
55.5446
0
LINE
8
BLACK
6
CONTINUOUS
10
19.6293
20
55.5446
11
19.595
21
55.4761
0
LINE
8
BLACK
6
CONTINUOUS
10
19.595
20
55.4761
11
19.595
21
55.0176
0
LINE
8
BLACK
6
CONTINUOUS
10
19.595
20
55.0176
11
19.5905
21
54.992
0
LINE
8
BLACK
6
CONTINUOUS
10
19.5905
20
54.992
11
19.5575
21
54.9527
0
LINE
8
BLACK
6
CONTINUOUS
10
19.5575
20
54.9527
11
19.507
21
54.9438
0
LINE
8
BLACK
6
CONTINUOUS
10
19.507
20
54.9438
11
19.4625
21
54.9694
0
LINE
8
BLACK
6
CONTINUOUS
10
19.4625
20
54.9694
11
19.445
21
55.0176
0
LINE
8
BLACK
6
CONTINUOUS
10
19.445
20
55.0176
11
19.445
21
55.6843
0
LINE
8
BLACK
6
CONTINUOUS
10
19.445
20
55.6843
11
19.4495
21
55.7099
0
LINE
8
BLACK
6
CONTINUOUS
10
19.4495
20
55.7099
11
19.4825
21
55.7492
0
LINE
8
BLACK
6
CONTINUOUS
10
19.4825
20
55.7492
11
19.533
21
55.7581
0
LINE
8
BLACK
6
CONTINUOUS
10
19.533
20
55.7581
11
19.5775
21
55.7325
0
LINE
8
BLACK
6
CONTINUOUS
10
19.5775
20
55.7325
11
19.587
21
55.7064
0
LINE
8
BLACK
6
CONTINUOUS
10
19.587
20
55.7064
11
19.6769
21
55.7514
0
LINE
8
BLACK
6
CONTINUOUS
10
19.6769
20
55.7514
11
19.7019
21
55.7588
0
LINE
8
BLACK
6
CONTINUOUS
10
19.7019
20
55.7588
11
19.7063
21
55.7578
0
LINE
8
BLACK
6
CONTINUOUS
10
19.7063
20
55.7578
11
19.7105
21
55.7593
0
LINE
8
BLACK
6
CONTINUOUS
10
19.7105
20
55.7593
11
19.8057
21
55.7593
0
LINE
8
BLACK
6
CONTINUOUS
10
19.8057
20
55.7593
11
19.8314
21
55.7548
  0
ENDSEC
  0
EOF
