%TF.GenerationSoftware,KiCad,Pcbnew,(6.0.4)*%
%TF.CreationDate,2022-10-08T16:21:05+02:00*%
%TF.ProjectId,smeter,736d6574-6572-42e6-9b69-6361645f7063,0.2*%
%TF.SameCoordinates,PX5de3a50PY84ba458*%
%TF.FileFunction,Component,L1,Top*%
%TF.FilePolarity,Positive*%
%FSLAX46Y46*%
G04 Gerber Fmt 4.6, Leading zero omitted, Abs format (unit mm)*
G04 Created by KiCad (PCBNEW (6.0.4)) date 2022-10-08 16:21:05*
%MOMM*%
%LPD*%
G01*
G04 APERTURE LIST*
%TA.AperFunction,ComponentMain*%
%ADD10C,0.300000*%
%TD*%
%TA.AperFunction,ComponentOutline,Courtyard*%
%ADD11C,0.100000*%
%TD*%
%TA.AperFunction,ComponentPin*%
%ADD12P,0.360000X4X0.000000*%
%TD*%
%TA.AperFunction,ComponentPin*%
%ADD13C,0.000000*%
%TD*%
%TA.AperFunction,Profile*%
%ADD14C,0.100000*%
%TD*%
G04 APERTURE END LIST*
D10*
%TO.C,"-BT1"*%
%TO.CFtp,"BatteryHolder_Eagle_12BH611-GR"*%
%TO.CVal,"Battery_Cell"*%
%TO.CLbN,"Battery"*%
%TO.CMnt,TH*%
%TO.CRot,0*%
X54000000Y68350000D03*
D11*
X57599999Y59100001D02*
X2100001Y59100001D01*
X2100001Y90299999D01*
X57599999Y90299999D01*
X57599999Y59100001D01*
D12*
%TO.P,"-BT1","1","+"*%
X54000000Y68350000D03*
D13*
%TO.P,"-BT1","2","-"*%
X54000000Y81050000D03*
%TO.P,"-BT1",*%
X29850000Y63600000D03*
X15100000Y85800000D03*
X43100000Y85800000D03*
%TD*%
D10*
%TO.C,"D4"*%
%TO.CFtp,"LED_D3.0mm_Clear"*%
%TO.CVal,"LED"*%
%TO.CLbN,"LED_THT"*%
%TO.CMnt,TH*%
%TO.CRot,0*%
X35275000Y11275000D03*
D11*
X38974999Y9025001D02*
X34125001Y9025001D01*
X34125001Y13524999D01*
X38974999Y13524999D01*
X38974999Y9025001D01*
D12*
%TO.P,"D4","1","K"*%
X35275000Y11275000D03*
D13*
%TO.P,"D4","2","A"*%
X37815000Y11275000D03*
%TD*%
D10*
%TO.C,"RV1"*%
%TO.CFtp,"Potentiometer_Bourns_3266Y_Vertical"*%
%TO.CVal,"R_Potentiometer_Trim"*%
%TO.CLbN,"Potentiometer_THT"*%
%TO.CMnt,TH*%
%TO.CRot,-90*%
X73025000Y41050000D03*
D11*
X75474999Y39950001D02*
X70425001Y39950001D01*
X70425001Y47199999D01*
X75474999Y47199999D01*
X75474999Y39950001D01*
D12*
%TO.P,"RV1","1","1"*%
X73025000Y41050000D03*
D13*
%TO.P,"RV1","2","2"*%
X73025000Y43590000D03*
%TO.P,"RV1","3","3"*%
X73025000Y46130000D03*
%TD*%
D10*
%TO.C,"J2"*%
%TO.CFtp,"Jack_3.5mm_Lumberg_1503_07_Horizontal"*%
%TO.CVal,"3.5mm AudioPlug"*%
%TO.CLbN,"Connector_Audio"*%
%TO.CMnt,TH*%
%TO.CRot,0*%
X89775000Y93225000D03*
D11*
X96774999Y84075001D02*
X88275001Y84075001D01*
X88275001Y99724999D01*
X96774999Y99724999D01*
X96774999Y84075001D01*
D13*
%TO.P,"J2",*%
X95025000Y89725000D03*
X90025000Y89725000D03*
%TO.P,"J2","R"*%
X94825000Y85725000D03*
%TO.P,"J2","S"*%
X90225000Y85725000D03*
%TO.P,"J2","T"*%
X89775000Y93225000D03*
X95275000Y93225000D03*
%TD*%
D10*
%TO.C,"D0"*%
%TO.CFtp,"D_DO-35_SOD27_P7.62mm_Horizontal"*%
%TO.CVal,"1N914"*%
%TO.CLbN,"Diode_THT"*%
%TO.CMnt,TH*%
%TO.CRot,90*%
X73150000Y52440000D03*
D11*
X74399999Y51390001D02*
X71900001Y51390001D01*
X71900001Y61109999D01*
X74399999Y61109999D01*
X74399999Y51390001D01*
D12*
%TO.P,"D0","1","K"*%
X73150000Y52440000D03*
D13*
%TO.P,"D0","2","A"*%
X73150000Y60060000D03*
%TD*%
D10*
%TO.C,"D10"*%
%TO.CFtp,"LED_D3.0mm_Clear"*%
%TO.CVal,"red"*%
%TO.CLbN,"LED_THT"*%
%TO.CMnt,TH*%
%TO.CRot,0*%
X89350000Y11875000D03*
D11*
X93049999Y9625001D02*
X88200001Y9625001D01*
X88200001Y14124999D01*
X93049999Y14124999D01*
X93049999Y9625001D01*
D12*
%TO.P,"D10","1","K"*%
X89350000Y11875000D03*
D13*
%TO.P,"D10","2","A"*%
X91890000Y11875000D03*
%TD*%
D10*
%TO.C,"SW1"*%
%TO.CFtp,"SW_DIP_SPSTx01_Slide_9.78x4.72mm_W7.62mm_P2.54mm"*%
%TO.CVal,"SW_DIP_x01"*%
%TO.CLbN,"Button_Switch_THT"*%
%TO.CMnt,TH*%
%TO.CRot,180*%
X58692500Y96075000D03*
D11*
X60042499Y93375001D02*
X49742501Y93375001D01*
X49742501Y98774999D01*
X60042499Y98774999D01*
X60042499Y93375001D01*
D12*
%TO.P,"SW1","1"*%
X58692500Y96075000D03*
D13*
%TO.P,"SW1","2"*%
X51072500Y96075000D03*
%TD*%
D10*
%TO.C,"D1"*%
%TO.CFtp,"LED_D3.0mm_Clear"*%
%TO.CVal,"LED"*%
%TO.CLbN,"LED_THT"*%
%TO.CMnt,TH*%
%TO.CRot,0*%
X6775000Y11875000D03*
D11*
X10474999Y9625001D02*
X5625001Y9625001D01*
X5625001Y14124999D01*
X10474999Y14124999D01*
X10474999Y9625001D01*
D12*
%TO.P,"D1","1","K"*%
X6775000Y11875000D03*
D13*
%TO.P,"D1","2","A"*%
X9315000Y11875000D03*
%TD*%
D10*
%TO.C,"D9"*%
%TO.CFtp,"LED_D3.0mm_Clear"*%
%TO.CVal,"LED"*%
%TO.CLbN,"LED_THT"*%
%TO.CMnt,TH*%
%TO.CRot,0*%
X81575000Y11875000D03*
D11*
X85274999Y9625001D02*
X80425001Y9625001D01*
X80425001Y14124999D01*
X85274999Y14124999D01*
X85274999Y9625001D01*
D12*
%TO.P,"D9","1","K"*%
X81575000Y11875000D03*
D13*
%TO.P,"D9","2","A"*%
X84115000Y11875000D03*
%TD*%
D10*
%TO.C,"D5"*%
%TO.CFtp,"LED_D3.0mm_Clear"*%
%TO.CVal,"LED"*%
%TO.CLbN,"LED_THT"*%
%TO.CMnt,TH*%
%TO.CRot,0*%
X45075000Y11575000D03*
D11*
X48774999Y9325001D02*
X43925001Y9325001D01*
X43925001Y13824999D01*
X48774999Y13824999D01*
X48774999Y9325001D01*
D12*
%TO.P,"D5","1","K"*%
X45075000Y11575000D03*
D13*
%TO.P,"D5","2","A"*%
X47615000Y11575000D03*
%TD*%
D10*
%TO.C,"SW2"*%
%TO.CFtp,"SW_DIP_SPSTx03_Slide_6.7x9.18mm_W7.62mm_P2.54mm_LowProfile"*%
%TO.CVal,"SW_DIP_x03"*%
%TO.CLbN,"Button_Switch_THT"*%
%TO.CMnt,TH*%
%TO.CRot,0*%
X86925000Y52200000D03*
D11*
X95624999Y44750001D02*
X85825001Y44750001D01*
X85825001Y54599999D01*
X95624999Y54599999D01*
X95624999Y44750001D01*
D12*
%TO.P,"SW2","1"*%
X86925000Y52200000D03*
D13*
%TO.P,"SW2","2"*%
X86925000Y49660000D03*
%TO.P,"SW2","3"*%
X86925000Y47120000D03*
%TO.P,"SW2","4"*%
X94545000Y47120000D03*
%TO.P,"SW2","5"*%
X94545000Y49660000D03*
%TO.P,"SW2","6"*%
X94545000Y52200000D03*
%TD*%
D10*
%TO.C,"D7"*%
%TO.CFtp,"LED_D3.0mm_Clear"*%
%TO.CVal,"LED"*%
%TO.CLbN,"LED_THT"*%
%TO.CMnt,TH*%
%TO.CRot,0*%
X63175000Y11675000D03*
D11*
X66874999Y9425001D02*
X62025001Y9425001D01*
X62025001Y13924999D01*
X66874999Y13924999D01*
X66874999Y9425001D01*
D12*
%TO.P,"D7","1","K"*%
X63175000Y11675000D03*
D13*
%TO.P,"D7","2","A"*%
X65715000Y11675000D03*
%TD*%
D10*
%TO.C,"J3_Meter1"*%
%TO.CFtp,"PinHeader_1x02_P1.27mm_Vertical"*%
%TO.CVal,"Conn_01x02_Male"*%
%TO.CLbN,"Connector_PinHeader_1.27mm"*%
%TO.CMnt,TH*%
%TO.CRot,0*%
X76100000Y34670000D03*
D11*
X77649999Y32220001D02*
X74550001Y32220001D01*
X74550001Y35819999D01*
X77649999Y35819999D01*
X77649999Y32220001D01*
D12*
%TO.P,"J3_Meter1","1","Pin_1"*%
X76100000Y34670000D03*
D13*
%TO.P,"J3_Meter1","2","Pin_2"*%
X76100000Y33400000D03*
%TD*%
D10*
%TO.C,"R1"*%
%TO.CFtp,"R_Axial_DIN0207_L6.3mm_D2.5mm_P10.16mm_Horizontal"*%
%TO.CVal,"1K"*%
%TO.CLbN,"Resistor_THT"*%
%TO.CMnt,TH*%
%TO.CRot,0*%
X15920000Y33275000D03*
D11*
X27129999Y31775001D02*
X14870001Y31775001D01*
X14870001Y34774999D01*
X27129999Y34774999D01*
X27129999Y31775001D01*
D12*
%TO.P,"R1","1"*%
X15920000Y33275000D03*
D13*
%TO.P,"R1","2"*%
X26080000Y33275000D03*
%TD*%
D10*
%TO.C,"U1"*%
%TO.CFtp,"DIP-18_W7.62mm_Socket"*%
%TO.CVal,"LM3914N"*%
%TO.CLbN,"Package_DIP"*%
%TO.CMnt,TH*%
%TO.CRot,-90*%
X55800000Y28775000D03*
D11*
X57399999Y19625001D02*
X33900001Y19625001D01*
X33900001Y30324999D01*
X57399999Y30324999D01*
X57399999Y19625001D01*
D12*
%TO.P,"U1","1","LED1"*%
X55800000Y28775000D03*
D13*
%TO.P,"U1","2","V-"*%
X53260000Y28775000D03*
%TO.P,"U1","3","V+"*%
X50720000Y28775000D03*
%TO.P,"U1","4","RLO"*%
X48180000Y28775000D03*
%TO.P,"U1","5","SIG"*%
X45640000Y28775000D03*
%TO.P,"U1","6","RHI"*%
X43100000Y28775000D03*
%TO.P,"U1","7","RFOUT"*%
X40560000Y28775000D03*
%TO.P,"U1","8","REFADJ"*%
X38020000Y28775000D03*
%TO.P,"U1","9","MODE"*%
X35480000Y28775000D03*
%TO.P,"U1","10","LED2"*%
X35480000Y21155000D03*
%TO.P,"U1","11","LED3"*%
X38020000Y21155000D03*
%TO.P,"U1","12","LED4"*%
X40560000Y21155000D03*
%TO.P,"U1","13","LED5"*%
X43100000Y21155000D03*
%TO.P,"U1","14","LED6"*%
X45640000Y21155000D03*
%TO.P,"U1","15","LED7"*%
X48180000Y21155000D03*
%TO.P,"U1","16","LED8"*%
X50720000Y21155000D03*
%TO.P,"U1","17","LED9"*%
X53260000Y21155000D03*
%TO.P,"U1","18","LED10"*%
X55800000Y21155000D03*
%TD*%
D10*
%TO.C,"D2"*%
%TO.CFtp,"LED_D3.0mm_Clear"*%
%TO.CVal,"LED"*%
%TO.CLbN,"LED_THT"*%
%TO.CMnt,TH*%
%TO.CRot,0*%
X17075000Y11875000D03*
D11*
X20774999Y9625001D02*
X15925001Y9625001D01*
X15925001Y14124999D01*
X20774999Y14124999D01*
X20774999Y9625001D01*
D12*
%TO.P,"D2","1","K"*%
X17075000Y11875000D03*
D13*
%TO.P,"D2","2","A"*%
X19615000Y11875000D03*
%TD*%
D10*
%TO.C,"J1"*%
%TO.CFtp,"BNC_TEConnectivity_1478035_Horizontal"*%
%TO.CVal,"BNC Conn_Coaxial"*%
%TO.CLbN,"Connector_Coaxial"*%
%TO.CMnt,TH*%
%TO.CRot,0*%
X75575000Y91815000D03*
D11*
X83104999Y84285001D02*
X68045001Y84285001D01*
X68045001Y109214999D01*
X83104999Y109214999D01*
X83104999Y84285001D01*
D12*
%TO.P,"J1","1","In"*%
X75575000Y91815000D03*
D13*
%TO.P,"J1","2","Ext"*%
X70550000Y86790000D03*
X80600000Y86790000D03*
X70550000Y96840000D03*
X80600000Y96840000D03*
%TD*%
D10*
%TO.C,"D3"*%
%TO.CFtp,"LED_D3.0mm_Clear"*%
%TO.CVal,"LED"*%
%TO.CLbN,"LED_THT"*%
%TO.CMnt,TH*%
%TO.CRot,0*%
X25875000Y11675000D03*
D11*
X29574999Y9425001D02*
X24725001Y9425001D01*
X24725001Y13924999D01*
X29574999Y13924999D01*
X29574999Y9425001D01*
D12*
%TO.P,"D3","1","K"*%
X25875000Y11675000D03*
D13*
%TO.P,"D3","2","A"*%
X28415000Y11675000D03*
%TD*%
D10*
%TO.C,"D8"*%
%TO.CFtp,"LED_D3.0mm_Clear"*%
%TO.CVal,"LED"*%
%TO.CLbN,"LED_THT"*%
%TO.CMnt,TH*%
%TO.CRot,0*%
X73575000Y11575000D03*
D11*
X77274999Y9325001D02*
X72425001Y9325001D01*
X72425001Y13824999D01*
X77274999Y13824999D01*
X77274999Y9325001D01*
D12*
%TO.P,"D8","1","K"*%
X73575000Y11575000D03*
D13*
%TO.P,"D8","2","A"*%
X76115000Y11575000D03*
%TD*%
D10*
%TO.C,"RV2"*%
%TO.CFtp,"Potentiometer_Bourns_3266Y_Vertical"*%
%TO.CVal,"4\u002C7K"*%
%TO.CLbN,"Potentiometer_THT"*%
%TO.CMnt,TH*%
%TO.CRot,90*%
X27675000Y49825000D03*
D11*
X30274999Y43675001D02*
X25225001Y43675001D01*
X25225001Y50924999D01*
X30274999Y50924999D01*
X30274999Y43675001D01*
D12*
%TO.P,"RV2","1","1"*%
X27675000Y49825000D03*
D13*
%TO.P,"RV2","2","2"*%
X27675000Y47285000D03*
%TO.P,"RV2","3","3"*%
X27675000Y44745000D03*
%TD*%
D10*
%TO.C,"D6"*%
%TO.CFtp,"LED_D3.0mm_Clear"*%
%TO.CVal,"LED"*%
%TO.CLbN,"LED_THT"*%
%TO.CMnt,TH*%
%TO.CRot,0*%
X54250000Y11575000D03*
D11*
X57949999Y9325001D02*
X53100001Y9325001D01*
X53100001Y13824999D01*
X57949999Y13824999D01*
X57949999Y9325001D01*
D12*
%TO.P,"D6","1","K"*%
X54250000Y11575000D03*
D13*
%TO.P,"D6","2","A"*%
X56790000Y11575000D03*
%TD*%
D14*
X100025000Y100175000D02*
X-50000Y100175000D01*
X-50000Y100175000D02*
X-50000Y-25000D01*
X-50000Y-25000D02*
X100025000Y-25000D01*
X100025000Y-25000D02*
X100025000Y100175000D01*
X1641666Y-50000D02*
G75*
G03*
X1641666Y-50000I-1666666J0D01*
G01*
X-2525000Y-50000D02*
X2475000Y-50000D01*
X-25000Y2450000D02*
X-25000Y-2550000D01*
M02*
