%TF.GenerationSoftware,KiCad,Pcbnew,(6.0.4)*%
%TF.CreationDate,2022-10-08T16:20:51+02:00*%
%TF.ProjectId,smeter,736d6574-6572-42e6-9b69-6361645f7063,0.2*%
%TF.SameCoordinates,PX5de3a50PY84ba458*%
%TF.FileFunction,Plated,1,2,PTH,Mixed*%
%TF.FilePolarity,Positive*%
%FSLAX46Y46*%
G04 Gerber Fmt 4.6, Leading zero omitted, Abs format (unit mm)*
G04 Created by KiCad (PCBNEW (6.0.4)) date 2022-10-08 16:20:51*
%MOMM*%
%LPD*%
G01*
G04 APERTURE LIST*
%TA.AperFunction,ViaDrill*%
%ADD10C,0.400000*%
%TD*%
%TA.AperFunction,ComponentDrill*%
%ADD11C,0.500000*%
%TD*%
%TA.AperFunction,ComponentDrill*%
%ADD12C,0.650000*%
%TD*%
%TA.AperFunction,ComponentDrill*%
%ADD13C,0.800000*%
%TD*%
G04 aperture for slot hole*
%TA.AperFunction,ComponentDrill*%
%ADD14O,0.800000X1.300000*%
%TD*%
%TA.AperFunction,ComponentDrill*%
%ADD15C,0.900000*%
%TD*%
G04 aperture for slot hole*
%TA.AperFunction,ComponentDrill*%
%ADD16O,1.000000X1.300000*%
%TD*%
%TA.AperFunction,ComponentDrill*%
%ADD17C,1.100000*%
%TD*%
%TA.AperFunction,ComponentDrill*%
%ADD18C,1.500000*%
%TD*%
%TA.AperFunction,ComponentDrill*%
%ADD19C,2.400000*%
%TD*%
%TA.AperFunction,ComponentDrill*%
%ADD20C,3.200000*%
%TD*%
G04 APERTURE END LIST*
D10*
X1975000Y98625000D03*
X2100000Y47725000D03*
X3025000Y2300000D03*
X12625000Y74500000D03*
X16625000Y16775000D03*
X23650000Y46900000D03*
X23682544Y27930937D03*
X26225000Y16075000D03*
X33475000Y32500000D03*
X37025000Y47050000D03*
X40925000Y31500000D03*
X41125000Y10600000D03*
X45650000Y2150000D03*
X45800000Y98250000D03*
X48550000Y17700000D03*
X49375000Y74625000D03*
X50850000Y26200000D03*
X51325000Y10600000D03*
X53950000Y59450000D03*
X57750000Y31175000D03*
X60275000Y10000000D03*
X61650000Y35000000D03*
X63975000Y15825000D03*
X64850000Y67925000D03*
X68288262Y28384272D03*
X73750000Y15600000D03*
X80425000Y16725000D03*
X81659834Y44786487D03*
X82194719Y56335094D03*
X86200000Y93700000D03*
X91095456Y73687037D03*
X92750000Y43050000D03*
X97775000Y2625000D03*
X98750000Y47750000D03*
X98800000Y97575000D03*
D11*
%TO.C,REF\u002A\u002A*%
X44400000Y41900000D03*
X45102944Y43597056D03*
X45102944Y40202944D03*
X46800000Y44300000D03*
X46800000Y39500000D03*
X48497056Y43597056D03*
X48497056Y40202944D03*
X49200000Y41900000D03*
D12*
%TO.C,J3_Meter1*%
X76100000Y34670000D03*
X76100000Y33400000D03*
D13*
%TO.C,R1*%
X15920000Y33275000D03*
X26080000Y33275000D03*
%TO.C,RV2*%
X27675000Y49825000D03*
X27675000Y47285000D03*
X27675000Y44745000D03*
%TO.C,U1*%
X35480000Y28775000D03*
X35480000Y21155000D03*
X38020000Y28775000D03*
X38020000Y21155000D03*
X40560000Y28775000D03*
X40560000Y21155000D03*
X43100000Y28775000D03*
X43100000Y21155000D03*
X45640000Y28775000D03*
X45640000Y21155000D03*
X48180000Y28775000D03*
X48180000Y21155000D03*
X50720000Y28775000D03*
X50720000Y21155000D03*
%TO.C,SW1*%
X51072500Y96075000D03*
%TO.C,U1*%
X53260000Y28775000D03*
X53260000Y21155000D03*
X55800000Y28775000D03*
X55800000Y21155000D03*
%TO.C,SW1*%
X58692500Y96075000D03*
%TO.C,RV1*%
X73025000Y46130000D03*
X73025000Y43590000D03*
X73025000Y41050000D03*
%TO.C,D0*%
X73150000Y60060000D03*
X73150000Y52440000D03*
%TO.C,SW2*%
X86925000Y52200000D03*
X86925000Y49660000D03*
X86925000Y47120000D03*
D14*
%TO.C,J2*%
X90225000Y85725000D03*
D13*
%TO.C,SW2*%
X94545000Y52200000D03*
X94545000Y49660000D03*
X94545000Y47120000D03*
D14*
%TO.C,J2*%
X94825000Y85725000D03*
D15*
%TO.C,D1*%
X6775000Y11875000D03*
X9315000Y11875000D03*
%TO.C,D2*%
X17075000Y11875000D03*
X19615000Y11875000D03*
%TO.C,D3*%
X25875000Y11675000D03*
X28415000Y11675000D03*
%TO.C,D4*%
X35275000Y11275000D03*
X37815000Y11275000D03*
%TO.C,D5*%
X45075000Y11575000D03*
X47615000Y11575000D03*
%TO.C,D6*%
X54250000Y11575000D03*
X56790000Y11575000D03*
%TO.C,D7*%
X63175000Y11675000D03*
X65715000Y11675000D03*
%TO.C,D8*%
X73575000Y11575000D03*
X76115000Y11575000D03*
%TO.C,D9*%
X81575000Y11875000D03*
X84115000Y11875000D03*
%TO.C,D10*%
X89350000Y11875000D03*
X91890000Y11875000D03*
D16*
%TO.C,J2*%
X89775000Y93225000D03*
X95275000Y93225000D03*
D17*
%TO.C,J1*%
X75575000Y91815000D03*
D18*
X70550000Y96840000D03*
X70550000Y86790000D03*
X80600000Y96840000D03*
X80600000Y86790000D03*
D19*
%TO.C,-BT1*%
X54000000Y81050000D03*
X54000000Y68350000D03*
D20*
%TO.C,REF\u002A\u002A*%
X46800000Y41900000D03*
M02*
