<?xml version="1.0" standalone="no"?>
 <!DOCTYPE svg PUBLIC "-//W3C//DTD SVG 1.1//EN" 
 "http://www.w3.org/Graphics/SVG/1.1/DTD/svg11.dtd"> 
<svg
  xmlns:svg="http://www.w3.org/2000/svg"
  xmlns="http://www.w3.org/2000/svg"
  xmlns:xlink="http://www.w3.org/1999/xlink"
  version="1.1"
  width="29.700220cm" height="21.000720cm" viewBox="0 0 116930 82680">
<title>SVG Picture created as smeter-NPTH-drl-drl_map.svg date 2022/10/08 16:20:04 </title>
  <desc>Picture generated by PCBNEW </desc>
<g style="fill:#000000; fill-opacity:1.000000;stroke:#000000; stroke-opacity:1.000000;
stroke-linecap:round; stroke-linejoin:round;"
 transform="translate(0 0) scale(1 1)">
</g>
<g style="fill:#000000; fill-opacity:0.0; 
stroke:#000000; stroke-width:0.000000; stroke-opacity:1; 
stroke-linecap:round; stroke-linejoin:round;">
</g>
<g style="fill:#000000; fill-opacity:0.0; 
stroke:#000000; stroke-width:45.534389; stroke-opacity:1; 
stroke-linecap:round; stroke-linejoin:round;">
<path d="M81249 1991
L35680 1991
" />
<path d="M35680 1991
L35680 47616
" />
<path d="M35680 47616
L81249 47616
" />
<path d="M81249 47616
L81249 1991
" />
</g>
<g style="fill:#000000; fill-opacity:0.0; 
stroke:#000000; stroke-width:91.068778; stroke-opacity:1; 
stroke-linecap:round; stroke-linejoin:round;">
</g>
<g style="fill:#000000; fill-opacity:0.0; 
stroke:#000000; stroke-width:50.087828; stroke-opacity:1; 
stroke-linecap:round; stroke-linejoin:round;">
<path d="M76445 6499
L76946 7000
" />
<path d="M76946 6499
L76445 7000
" />
<path d="M78722 6499
L79222 7000
" />
<path d="M79222 6499
L78722 7000
" />
</g>
<g style="fill:#000000; fill-opacity:0.0; 
stroke:#000000; stroke-width:118.389411; stroke-opacity:1; 
stroke-linecap:round; stroke-linejoin:round;">
<circle cx="42579.190268" cy="8536.839607" r="591.947056" /> 
<circle cx="49295.512639" cy="18645.473956" r="591.947056" /> 
<circle cx="55328.819176" cy="8536.839607" r="591.947056" /> 
</g>
<g style="fill:#000000; fill-opacity:0.0; 
stroke:#000000; stroke-width:91.068778; stroke-opacity:1; 
stroke-linecap:round; stroke-linejoin:round;">
</g>
<g style="fill:#000000; fill-opacity:0.0; 
stroke:#000000; stroke-width:78.740342; stroke-opacity:1; 
stroke-linecap:round; stroke-linejoin:round;">
<text x="36445.364746" y="48899.338867"
textLength="5853.018588" font-size="1049.868648" lengthAdjust="spacingAndGlyphs"
text-anchor="start" opacity="0">Drill Map:</text>
<g class="stroked-text"><desc>Drill Map:</desc>
<path d="M36672 48861
L36672 48074
L36859 48074
L36972 48111
L37047 48186
L37084 48261
L37122 48411
L37122 48524
L37084 48674
L37047 48749
L36972 48824
L36859 48861
L36672 48861
" />
<path d="M37459 48861
L37459 48336
" />
<path d="M37459 48486
L37497 48411
L37534 48374
L37609 48336
L37684 48336
" />
<path d="M37947 48861
L37947 48336
" />
<path d="M37947 48074
L37909 48111
L37947 48149
L37984 48111
L37947 48074
L37947 48149
" />
<path d="M38434 48861
L38359 48824
L38322 48749
L38322 48074
" />
<path d="M38846 48861
L38771 48824
L38734 48749
L38734 48074
" />
<path d="M39746 48861
L39746 48074
L40009 48636
L40271 48074
L40271 48861
" />
<path d="M40984 48861
L40984 48449
L40946 48374
L40871 48336
L40721 48336
L40646 48374
" />
<path d="M40984 48824
L40909 48861
L40721 48861
L40646 48824
L40609 48749
L40609 48674
L40646 48599
L40721 48561
L40909 48561
L40984 48524
" />
<path d="M41359 48336
L41359 49124
" />
<path d="M41359 48374
L41434 48336
L41584 48336
L41659 48374
L41696 48411
L41734 48486
L41734 48711
L41696 48786
L41659 48824
L41584 48861
L41434 48861
L41359 48824
" />
<path d="M42071 48786
L42109 48824
L42071 48861
L42034 48824
L42071 48786
L42071 48861
" />
<path d="M42071 48374
L42109 48411
L42071 48449
L42034 48411
L42071 48374
L42071 48449
" />
</g></g>
<g style="fill:#000000; fill-opacity:0.0; 
stroke:#000000; stroke-width:50.087828; stroke-opacity:1; 
stroke-linecap:round; stroke-linejoin:round;">
<path d="M35157 49908
L35657 50409
" />
<path d="M35657 49908
L35157 50409
" />
</g>
<g style="fill:#000000; fill-opacity:0.0; 
stroke:#000000; stroke-width:91.068778; stroke-opacity:1; 
stroke-linecap:round; stroke-linejoin:round;">
</g>
<g style="fill:#000000; fill-opacity:0.0; 
stroke:#000000; stroke-width:78.740342; stroke-opacity:1; 
stroke-linecap:round; stroke-linejoin:round;">
<text x="36445.364746" y="50552.882408"
textLength="26250.469595" font-size="1049.868648" lengthAdjust="spacingAndGlyphs"
text-anchor="start" opacity="0">1.100mm / 0.0433" (2 holes) (not plated)</text>
<g class="stroked-text"><desc>1.100mm / 0.0433" (2 holes) (not plated)</desc>
<path d="M37084 50515
L36634 50515
" />
<path d="M36859 50515
L36859 49727
L36784 49840
L36709 49915
L36634 49952
" />
<path d="M37422 50440
L37459 50477
L37422 50515
L37384 50477
L37422 50440
L37422 50515
" />
<path d="M38209 50515
L37759 50515
" />
<path d="M37984 50515
L37984 49727
L37909 49840
L37834 49915
L37759 49952
" />
<path d="M38696 49727
L38771 49727
L38846 49765
L38884 49802
L38921 49877
L38959 50027
L38959 50215
L38921 50365
L38884 50440
L38846 50477
L38771 50515
L38696 50515
L38621 50477
L38584 50440
L38546 50365
L38509 50215
L38509 50027
L38546 49877
L38584 49802
L38621 49765
L38696 49727
" />
<path d="M39446 49727
L39521 49727
L39596 49765
L39634 49802
L39671 49877
L39709 50027
L39709 50215
L39671 50365
L39634 50440
L39596 50477
L39521 50515
L39446 50515
L39371 50477
L39334 50440
L39296 50365
L39259 50215
L39259 50027
L39296 49877
L39334 49802
L39371 49765
L39446 49727
" />
<path d="M40046 50515
L40046 49990
" />
<path d="M40046 50065
L40084 50027
L40159 49990
L40271 49990
L40346 50027
L40384 50102
L40384 50515
" />
<path d="M40384 50102
L40421 50027
L40496 49990
L40609 49990
L40684 50027
L40721 50102
L40721 50515
" />
<path d="M41096 50515
L41096 49990
" />
<path d="M41096 50065
L41134 50027
L41209 49990
L41321 49990
L41396 50027
L41434 50102
L41434 50515
" />
<path d="M41434 50102
L41471 50027
L41546 49990
L41659 49990
L41734 50027
L41771 50102
L41771 50515
" />
<path d="M43308 49690
L42633 50702
" />
<path d="M44321 49727
L44396 49727
L44471 49765
L44508 49802
L44546 49877
L44583 50027
L44583 50215
L44546 50365
L44508 50440
L44471 50477
L44396 50515
L44321 50515
L44246 50477
L44208 50440
L44171 50365
L44133 50215
L44133 50027
L44171 49877
L44208 49802
L44246 49765
L44321 49727
" />
<path d="M44921 50440
L44958 50477
L44921 50515
L44883 50477
L44921 50440
L44921 50515
" />
<path d="M45446 49727
L45521 49727
L45596 49765
L45633 49802
L45671 49877
L45708 50027
L45708 50215
L45671 50365
L45633 50440
L45596 50477
L45521 50515
L45446 50515
L45371 50477
L45333 50440
L45296 50365
L45258 50215
L45258 50027
L45296 49877
L45333 49802
L45371 49765
L45446 49727
" />
<path d="M46383 49990
L46383 50515
" />
<path d="M46196 49690
L46008 50252
L46495 50252
" />
<path d="M46720 49727
L47208 49727
L46945 50027
L47058 50027
L47133 50065
L47170 50102
L47208 50177
L47208 50365
L47170 50440
L47133 50477
L47058 50515
L46833 50515
L46758 50477
L46720 50440
" />
<path d="M47470 49727
L47958 49727
L47695 50027
L47808 50027
L47883 50065
L47920 50102
L47958 50177
L47958 50365
L47920 50440
L47883 50477
L47808 50515
L47583 50515
L47508 50477
L47470 50440
" />
<path d="M48258 49727
L48258 49877
" />
<path d="M48558 49727
L48558 49877
" />
<path d="M49720 50815
L49683 50777
L49608 50665
L49570 50590
L49533 50477
L49495 50290
L49495 50140
L49533 49952
L49570 49840
L49608 49765
L49683 49652
L49720 49615
" />
<path d="M49983 49802
L50020 49765
L50095 49727
L50283 49727
L50358 49765
L50395 49802
L50432 49877
L50432 49952
L50395 50065
L49945 50515
L50432 50515
" />
<path d="M51370 50515
L51370 49727
" />
<path d="M51707 50515
L51707 50102
L51670 50027
L51595 49990
L51482 49990
L51407 50027
L51370 50065
" />
<path d="M52195 50515
L52120 50477
L52082 50440
L52045 50365
L52045 50140
L52082 50065
L52120 50027
L52195 49990
L52307 49990
L52382 50027
L52420 50065
L52457 50140
L52457 50365
L52420 50440
L52382 50477
L52307 50515
L52195 50515
" />
<path d="M52907 50515
L52832 50477
L52795 50402
L52795 49727
" />
<path d="M53507 50477
L53432 50515
L53282 50515
L53207 50477
L53170 50402
L53170 50102
L53207 50027
L53282 49990
L53432 49990
L53507 50027
L53545 50102
L53545 50177
L53170 50252
" />
<path d="M53845 50477
L53920 50515
L54070 50515
L54145 50477
L54182 50402
L54182 50365
L54145 50290
L54070 50252
L53957 50252
L53882 50215
L53845 50140
L53845 50102
L53882 50027
L53957 49990
L54070 49990
L54145 50027
" />
<path d="M54444 50815
L54482 50777
L54557 50665
L54594 50590
L54632 50477
L54669 50290
L54669 50140
L54632 49952
L54594 49840
L54557 49765
L54482 49652
L54444 49615
" />
<path d="M55869 50815
L55832 50777
L55757 50665
L55719 50590
L55682 50477
L55644 50290
L55644 50140
L55682 49952
L55719 49840
L55757 49765
L55832 49652
L55869 49615
" />
<path d="M56169 49990
L56169 50515
" />
<path d="M56169 50065
L56207 50027
L56282 49990
L56394 49990
L56469 50027
L56507 50102
L56507 50515
" />
<path d="M56994 50515
L56919 50477
L56882 50440
L56844 50365
L56844 50140
L56882 50065
L56919 50027
L56994 49990
L57107 49990
L57182 50027
L57219 50065
L57257 50140
L57257 50365
L57219 50440
L57182 50477
L57107 50515
L56994 50515
" />
<path d="M57482 49990
L57782 49990
" />
<path d="M57594 49727
L57594 50402
L57632 50477
L57707 50515
L57782 50515
" />
<path d="M58644 49990
L58644 50777
" />
<path d="M58644 50027
L58719 49990
L58869 49990
L58944 50027
L58981 50065
L59019 50140
L59019 50365
L58981 50440
L58944 50477
L58869 50515
L58719 50515
L58644 50477
" />
<path d="M59469 50515
L59394 50477
L59356 50402
L59356 49727
" />
<path d="M60106 50515
L60106 50102
L60069 50027
L59994 49990
L59844 49990
L59769 50027
" />
<path d="M60106 50477
L60031 50515
L59844 50515
L59769 50477
L59731 50402
L59731 50327
L59769 50252
L59844 50215
L60031 50215
L60106 50177
" />
<path d="M60369 49990
L60669 49990
" />
<path d="M60481 49727
L60481 50402
L60519 50477
L60594 50515
L60669 50515
" />
<path d="M61231 50477
L61156 50515
L61006 50515
L60931 50477
L60894 50402
L60894 50102
L60931 50027
L61006 49990
L61156 49990
L61231 50027
L61269 50102
L61269 50177
L60894 50252
" />
<path d="M61944 50515
L61944 49727
" />
<path d="M61944 50477
L61869 50515
L61719 50515
L61644 50477
L61606 50440
L61569 50365
L61569 50140
L61606 50065
L61644 50027
L61719 49990
L61869 49990
L61944 50027
" />
<path d="M62244 50815
L62281 50777
L62356 50665
L62393 50590
L62431 50477
L62468 50290
L62468 50140
L62431 49952
L62393 49840
L62356 49765
L62281 49652
L62244 49615
" />
</g></g>
<g style="fill:#000000; fill-opacity:0.0; 
stroke:#000000; stroke-width:78.739887; stroke-opacity:1; 
stroke-linecap:round; stroke-linejoin:round;">
<circle cx="35264.262346" cy="51198.551848" r="393.700800" /> 
</g>
<g style="fill:#000000; fill-opacity:0.0; 
stroke:#000000; stroke-width:91.068778; stroke-opacity:1; 
stroke-linecap:round; stroke-linejoin:round;">
</g>
<g style="fill:#000000; fill-opacity:0.0; 
stroke:#000000; stroke-width:78.740342; stroke-opacity:1; 
stroke-linecap:round; stroke-linejoin:round;">
<text x="36445.364746" y="51592.252647"
textLength="26250.469595" font-size="1049.868648" lengthAdjust="spacingAndGlyphs"
text-anchor="start" opacity="0">2.600mm / 0.1024" (3 holes) (not plated)</text>
<g class="stroked-text"><desc>2.600mm / 0.1024" (3 holes) (not plated)</desc>
<path d="M36634 50842
L36672 50804
L36747 50767
L36934 50767
L37009 50804
L37047 50842
L37084 50917
L37084 50992
L37047 51104
L36597 51554
L37084 51554
" />
<path d="M37422 51479
L37459 51517
L37422 51554
L37384 51517
L37422 51479
L37422 51554
" />
<path d="M38134 50767
L37984 50767
L37909 50804
L37872 50842
L37797 50954
L37759 51104
L37759 51404
L37797 51479
L37834 51517
L37909 51554
L38059 51554
L38134 51517
L38172 51479
L38209 51404
L38209 51217
L38172 51142
L38134 51104
L38059 51067
L37909 51067
L37834 51104
L37797 51142
L37759 51217
" />
<path d="M38696 50767
L38771 50767
L38846 50804
L38884 50842
L38921 50917
L38959 51067
L38959 51254
L38921 51404
L38884 51479
L38846 51517
L38771 51554
L38696 51554
L38621 51517
L38584 51479
L38546 51404
L38509 51254
L38509 51067
L38546 50917
L38584 50842
L38621 50804
L38696 50767
" />
<path d="M39446 50767
L39521 50767
L39596 50804
L39634 50842
L39671 50917
L39709 51067
L39709 51254
L39671 51404
L39634 51479
L39596 51517
L39521 51554
L39446 51554
L39371 51517
L39334 51479
L39296 51404
L39259 51254
L39259 51067
L39296 50917
L39334 50842
L39371 50804
L39446 50767
" />
<path d="M40046 51554
L40046 51029
" />
<path d="M40046 51104
L40084 51067
L40159 51029
L40271 51029
L40346 51067
L40384 51142
L40384 51554
" />
<path d="M40384 51142
L40421 51067
L40496 51029
L40609 51029
L40684 51067
L40721 51142
L40721 51554
" />
<path d="M41096 51554
L41096 51029
" />
<path d="M41096 51104
L41134 51067
L41209 51029
L41321 51029
L41396 51067
L41434 51142
L41434 51554
" />
<path d="M41434 51142
L41471 51067
L41546 51029
L41659 51029
L41734 51067
L41771 51142
L41771 51554
" />
<path d="M43308 50729
L42633 51742
" />
<path d="M44321 50767
L44396 50767
L44471 50804
L44508 50842
L44546 50917
L44583 51067
L44583 51254
L44546 51404
L44508 51479
L44471 51517
L44396 51554
L44321 51554
L44246 51517
L44208 51479
L44171 51404
L44133 51254
L44133 51067
L44171 50917
L44208 50842
L44246 50804
L44321 50767
" />
<path d="M44921 51479
L44958 51517
L44921 51554
L44883 51517
L44921 51479
L44921 51554
" />
<path d="M45708 51554
L45258 51554
" />
<path d="M45483 51554
L45483 50767
L45408 50879
L45333 50954
L45258 50992
" />
<path d="M46196 50767
L46271 50767
L46346 50804
L46383 50842
L46420 50917
L46458 51067
L46458 51254
L46420 51404
L46383 51479
L46346 51517
L46271 51554
L46196 51554
L46121 51517
L46083 51479
L46046 51404
L46008 51254
L46008 51067
L46046 50917
L46083 50842
L46121 50804
L46196 50767
" />
<path d="M46758 50842
L46795 50804
L46870 50767
L47058 50767
L47133 50804
L47170 50842
L47208 50917
L47208 50992
L47170 51104
L46720 51554
L47208 51554
" />
<path d="M47883 51029
L47883 51554
" />
<path d="M47695 50729
L47508 51292
L47995 51292
" />
<path d="M48258 50767
L48258 50917
" />
<path d="M48558 50767
L48558 50917
" />
<path d="M49720 51854
L49683 51817
L49608 51704
L49570 51629
L49533 51517
L49495 51329
L49495 51179
L49533 50992
L49570 50879
L49608 50804
L49683 50692
L49720 50654
" />
<path d="M49945 50767
L50432 50767
L50170 51067
L50283 51067
L50358 51104
L50395 51142
L50432 51217
L50432 51404
L50395 51479
L50358 51517
L50283 51554
L50058 51554
L49983 51517
L49945 51479
" />
<path d="M51370 51554
L51370 50767
" />
<path d="M51707 51554
L51707 51142
L51670 51067
L51595 51029
L51482 51029
L51407 51067
L51370 51104
" />
<path d="M52195 51554
L52120 51517
L52082 51479
L52045 51404
L52045 51179
L52082 51104
L52120 51067
L52195 51029
L52307 51029
L52382 51067
L52420 51104
L52457 51179
L52457 51404
L52420 51479
L52382 51517
L52307 51554
L52195 51554
" />
<path d="M52907 51554
L52832 51517
L52795 51442
L52795 50767
" />
<path d="M53507 51517
L53432 51554
L53282 51554
L53207 51517
L53170 51442
L53170 51142
L53207 51067
L53282 51029
L53432 51029
L53507 51067
L53545 51142
L53545 51217
L53170 51292
" />
<path d="M53845 51517
L53920 51554
L54070 51554
L54145 51517
L54182 51442
L54182 51404
L54145 51329
L54070 51292
L53957 51292
L53882 51254
L53845 51179
L53845 51142
L53882 51067
L53957 51029
L54070 51029
L54145 51067
" />
<path d="M54444 51854
L54482 51817
L54557 51704
L54594 51629
L54632 51517
L54669 51329
L54669 51179
L54632 50992
L54594 50879
L54557 50804
L54482 50692
L54444 50654
" />
<path d="M55869 51854
L55832 51817
L55757 51704
L55719 51629
L55682 51517
L55644 51329
L55644 51179
L55682 50992
L55719 50879
L55757 50804
L55832 50692
L55869 50654
" />
<path d="M56169 51029
L56169 51554
" />
<path d="M56169 51104
L56207 51067
L56282 51029
L56394 51029
L56469 51067
L56507 51142
L56507 51554
" />
<path d="M56994 51554
L56919 51517
L56882 51479
L56844 51404
L56844 51179
L56882 51104
L56919 51067
L56994 51029
L57107 51029
L57182 51067
L57219 51104
L57257 51179
L57257 51404
L57219 51479
L57182 51517
L57107 51554
L56994 51554
" />
<path d="M57482 51029
L57782 51029
" />
<path d="M57594 50767
L57594 51442
L57632 51517
L57707 51554
L57782 51554
" />
<path d="M58644 51029
L58644 51817
" />
<path d="M58644 51067
L58719 51029
L58869 51029
L58944 51067
L58981 51104
L59019 51179
L59019 51404
L58981 51479
L58944 51517
L58869 51554
L58719 51554
L58644 51517
" />
<path d="M59469 51554
L59394 51517
L59356 51442
L59356 50767
" />
<path d="M60106 51554
L60106 51142
L60069 51067
L59994 51029
L59844 51029
L59769 51067
" />
<path d="M60106 51517
L60031 51554
L59844 51554
L59769 51517
L59731 51442
L59731 51367
L59769 51292
L59844 51254
L60031 51254
L60106 51217
" />
<path d="M60369 51029
L60669 51029
" />
<path d="M60481 50767
L60481 51442
L60519 51517
L60594 51554
L60669 51554
" />
<path d="M61231 51517
L61156 51554
L61006 51554
L60931 51517
L60894 51442
L60894 51142
L60931 51067
L61006 51029
L61156 51029
L61231 51067
L61269 51142
L61269 51217
L60894 51292
" />
<path d="M61944 51554
L61944 50767
" />
<path d="M61944 51517
L61869 51554
L61719 51554
L61644 51517
L61606 51479
L61569 51404
L61569 51179
L61606 51104
L61644 51067
L61719 51029
L61869 51029
L61944 51067
" />
<path d="M62244 51854
L62281 51817
L62356 51704
L62393 51629
L62431 51517
L62468 51329
L62468 51179
L62431 50992
L62393 50879
L62356 50804
L62281 50692
L62244 50654
" />
</g></g> 
</svg>
