  0
SECTION
  2
HEADER
  9
$ANGBASE
  50
0.0
  9
$ANGDIR
  70
1
  9
$MEASUREMENT
  70
1
  0
ENDSEC
  0
SECTION
  2
TABLES
  0
TABLE
  2
LTYPE
  70
4
  0
LTYPE
  5
40F
  2
CONTINUOUS
  70
0
  3
Solid line
  72
65
  73
0
  40
0.0
  0
LTYPE
  5
410
  2
DASHDOT
 70
0
  3
Dash Dot ____ _ ____ _
 72
65
 73
4
 40
2.0
 49
1.25
 49
-0.25
 49
0.25
 49
-0.25
  0
LTYPE
  5
411
  2
DASHED
 70
0
  3
Dashed __ __ __ __ __
 72
65
 73
2
 40
0.75
 49
0.5
 49
-0.25
  0
LTYPE
  5
43B
  2
DOTTED
 70
0
  3
Dotted .  .  .  .
 72
65
 73
2
 40
0.2
 49
0.0
 49
-0.2
  0
ENDTAB
  0
TABLE
  2
STYLE
  70
4
  0
STYLE
  2
KICAD
  70
0
  40
0
  41
1
  42
1
  50
0
  71
0
  3
isocp.shx
  0
STYLE
  2
KICADB
  70
0
  40
0
  41
1
  42
1
  50
0
  71
0
  3
isocp.shx
  0
STYLE
  2
KICADI
  70
0
  40
0
  41
1
  42
1
  50
15
  71
0
  3
isocp.shx
  0
STYLE
  2
KICADBI
  70
0
  40
0
  41
1
  42
1
  50
15
  71
0
  3
isocp.shx
  0
ENDTAB
  0
TABLE
  2
LAYER
  70
1
  0
LAYER
  2
BLACK
  70
0
  62
7
  6
CONTINUOUS
  0
ENDTAB
  0
ENDSEC
  0
SECTION
  2
ENTITIES
0
LINE
8
BLACK
6
CONTINUOUS
10
100.025
20
100.175
11
-0.05
21
100.175
0
LINE
8
BLACK
6
CONTINUOUS
10
-0.05
20
100.175
11
-0.05
21
-0.025
0
LINE
8
BLACK
6
CONTINUOUS
10
-0.05
20
-0.025
11
100.025
21
-0.025
0
LINE
8
BLACK
6
CONTINUOUS
10
100.025
20
-0.025
11
100.025
21
100.175
0
LINE
8
BLACK
6
CONTINUOUS
10
89.475
20
90.275
11
90.575
21
89.175
0
LINE
8
BLACK
6
CONTINUOUS
10
90.575
20
90.275
11
89.475
21
89.175
0
LINE
8
BLACK
6
CONTINUOUS
10
94.475
20
90.275
11
95.575
21
89.175
0
LINE
8
BLACK
6
CONTINUOUS
10
95.575
20
90.275
11
94.475
21
89.175
0
CIRCLE
8
BLACK
10
15.1
20
85.8
40
1.3
0
CIRCLE
8
BLACK
10
29.85
20
63.6
40
1.3
0
CIRCLE
8
BLACK
10
43.1
20
85.8
40
1.3
0
LINE
8
BLACK
6
CONTINUOUS
10
2.47619
20
-3.17976
11
2.47619
21
-1.17976
0
LINE
8
BLACK
6
CONTINUOUS
10
2.47619
20
-1.17976
11
2.95238
21
-1.17976
0
LINE
8
BLACK
6
CONTINUOUS
10
2.95238
20
-1.17976
11
3.23809
21
-1.275
0
LINE
8
BLACK
6
CONTINUOUS
10
3.23809
20
-1.275
11
3.42857
21
-1.46548
0
LINE
8
BLACK
6
CONTINUOUS
10
3.42857
20
-1.46548
11
3.52381
21
-1.65595
0
LINE
8
BLACK
6
CONTINUOUS
10
3.52381
20
-1.65595
11
3.61905
21
-2.0369
0
LINE
8
BLACK
6
CONTINUOUS
10
3.61905
20
-2.0369
11
3.61905
21
-2.32262
0
LINE
8
BLACK
6
CONTINUOUS
10
3.61905
20
-2.32262
11
3.52381
21
-2.70357
0
LINE
8
BLACK
6
CONTINUOUS
10
3.52381
20
-2.70357
11
3.42857
21
-2.89405
0
LINE
8
BLACK
6
CONTINUOUS
10
3.42857
20
-2.89405
11
3.23809
21
-3.08452
0
LINE
8
BLACK
6
CONTINUOUS
10
3.23809
20
-3.08452
11
2.95238
21
-3.17976
0
LINE
8
BLACK
6
CONTINUOUS
10
2.95238
20
-3.17976
11
2.47619
21
-3.17976
0
LINE
8
BLACK
6
CONTINUOUS
10
4.47619
20
-3.17976
11
4.47619
21
-1.84643
0
LINE
8
BLACK
6
CONTINUOUS
10
4.47619
20
-2.22738
11
4.57143
21
-2.0369
0
LINE
8
BLACK
6
CONTINUOUS
10
4.57143
20
-2.0369
11
4.66667
21
-1.94167
0
LINE
8
BLACK
6
CONTINUOUS
10
4.66667
20
-1.94167
11
4.85714
21
-1.84643
0
LINE
8
BLACK
6
CONTINUOUS
10
4.85714
20
-1.84643
11
5.04762
21
-1.84643
0
LINE
8
BLACK
6
CONTINUOUS
10
5.71428
20
-3.17976
11
5.71428
21
-1.84643
0
LINE
8
BLACK
6
CONTINUOUS
10
5.71428
20
-1.17976
11
5.61905
21
-1.275
0
LINE
8
BLACK
6
CONTINUOUS
10
5.61905
20
-1.275
11
5.71428
21
-1.37024
0
LINE
8
BLACK
6
CONTINUOUS
10
5.71428
20
-1.37024
11
5.80952
21
-1.275
0
LINE
8
BLACK
6
CONTINUOUS
10
5.80952
20
-1.275
11
5.71428
21
-1.17976
0
LINE
8
BLACK
6
CONTINUOUS
10
5.71428
20
-1.17976
11
5.71428
21
-1.37024
0
LINE
8
BLACK
6
CONTINUOUS
10
6.95238
20
-3.17976
11
6.7619
21
-3.08452
0
LINE
8
BLACK
6
CONTINUOUS
10
6.7619
20
-3.08452
11
6.66667
21
-2.89405
0
LINE
8
BLACK
6
CONTINUOUS
10
6.66667
20
-2.89405
11
6.66667
21
-1.17976
0
LINE
8
BLACK
6
CONTINUOUS
10
8
20
-3.17976
11
7.80952
21
-3.08452
0
LINE
8
BLACK
6
CONTINUOUS
10
7.80952
20
-3.08452
11
7.71428
21
-2.89405
0
LINE
8
BLACK
6
CONTINUOUS
10
7.71428
20
-2.89405
11
7.71428
21
-1.17976
0
LINE
8
BLACK
6
CONTINUOUS
10
10.2857
20
-3.17976
11
10.2857
21
-1.17976
0
LINE
8
BLACK
6
CONTINUOUS
10
10.2857
20
-1.17976
11
10.9524
21
-2.60833
0
LINE
8
BLACK
6
CONTINUOUS
10
10.9524
20
-2.60833
11
11.619
21
-1.17976
0
LINE
8
BLACK
6
CONTINUOUS
10
11.619
20
-1.17976
11
11.619
21
-3.17976
0
LINE
8
BLACK
6
CONTINUOUS
10
13.4286
20
-3.17976
11
13.4286
21
-2.13214
0
LINE
8
BLACK
6
CONTINUOUS
10
13.4286
20
-2.13214
11
13.3333
21
-1.94167
0
LINE
8
BLACK
6
CONTINUOUS
10
13.3333
20
-1.94167
11
13.1429
21
-1.84643
0
LINE
8
BLACK
6
CONTINUOUS
10
13.1429
20
-1.84643
11
12.7619
21
-1.84643
0
LINE
8
BLACK
6
CONTINUOUS
10
12.7619
20
-1.84643
11
12.5714
21
-1.94167
0
LINE
8
BLACK
6
CONTINUOUS
10
13.4286
20
-3.08452
11
13.2381
21
-3.17976
0
LINE
8
BLACK
6
CONTINUOUS
10
13.2381
20
-3.17976
11
12.7619
21
-3.17976
0
LINE
8
BLACK
6
CONTINUOUS
10
12.7619
20
-3.17976
11
12.5714
21
-3.08452
0
LINE
8
BLACK
6
CONTINUOUS
10
12.5714
20
-3.08452
11
12.4762
21
-2.89405
0
LINE
8
BLACK
6
CONTINUOUS
10
12.4762
20
-2.89405
11
12.4762
21
-2.70357
0
LINE
8
BLACK
6
CONTINUOUS
10
12.4762
20
-2.70357
11
12.5714
21
-2.51309
0
LINE
8
BLACK
6
CONTINUOUS
10
12.5714
20
-2.51309
11
12.7619
21
-2.41786
0
LINE
8
BLACK
6
CONTINUOUS
10
12.7619
20
-2.41786
11
13.2381
21
-2.41786
0
LINE
8
BLACK
6
CONTINUOUS
10
13.2381
20
-2.41786
11
13.4286
21
-2.32262
0
LINE
8
BLACK
6
CONTINUOUS
10
14.381
20
-1.84643
11
14.381
21
-3.84643
0
LINE
8
BLACK
6
CONTINUOUS
10
14.381
20
-1.94167
11
14.5714
21
-1.84643
0
LINE
8
BLACK
6
CONTINUOUS
10
14.5714
20
-1.84643
11
14.9524
21
-1.84643
0
LINE
8
BLACK
6
CONTINUOUS
10
14.9524
20
-1.84643
11
15.1429
21
-1.94167
0
LINE
8
BLACK
6
CONTINUOUS
10
15.1429
20
-1.94167
11
15.2381
21
-2.0369
0
LINE
8
BLACK
6
CONTINUOUS
10
15.2381
20
-2.0369
11
15.3333
21
-2.22738
0
LINE
8
BLACK
6
CONTINUOUS
10
15.3333
20
-2.22738
11
15.3333
21
-2.79881
0
LINE
8
BLACK
6
CONTINUOUS
10
15.3333
20
-2.79881
11
15.2381
21
-2.98928
0
LINE
8
BLACK
6
CONTINUOUS
10
15.2381
20
-2.98928
11
15.1429
21
-3.08452
0
LINE
8
BLACK
6
CONTINUOUS
10
15.1429
20
-3.08452
11
14.9524
21
-3.17976
0
LINE
8
BLACK
6
CONTINUOUS
10
14.9524
20
-3.17976
11
14.5714
21
-3.17976
0
LINE
8
BLACK
6
CONTINUOUS
10
14.5714
20
-3.17976
11
14.381
21
-3.08452
0
LINE
8
BLACK
6
CONTINUOUS
10
16.1905
20
-2.98928
11
16.2857
21
-3.08452
0
LINE
8
BLACK
6
CONTINUOUS
10
16.2857
20
-3.08452
11
16.1905
21
-3.17976
0
LINE
8
BLACK
6
CONTINUOUS
10
16.1905
20
-3.17976
11
16.0952
21
-3.08452
0
LINE
8
BLACK
6
CONTINUOUS
10
16.0952
20
-3.08452
11
16.1905
21
-2.98928
0
LINE
8
BLACK
6
CONTINUOUS
10
16.1905
20
-2.98928
11
16.1905
21
-3.17976
0
LINE
8
BLACK
6
CONTINUOUS
10
16.1905
20
-1.94167
11
16.2857
21
-2.0369
0
LINE
8
BLACK
6
CONTINUOUS
10
16.2857
20
-2.0369
11
16.1905
21
-2.13214
0
LINE
8
BLACK
6
CONTINUOUS
10
16.1905
20
-2.13214
11
16.0952
21
-2.0369
0
LINE
8
BLACK
6
CONTINUOUS
10
16.0952
20
-2.0369
11
16.1905
21
-1.94167
0
LINE
8
BLACK
6
CONTINUOUS
10
16.1905
20
-1.94167
11
16.1905
21
-2.13214
0
LINE
8
BLACK
6
CONTINUOUS
10
-1.2
20
-5.925
11
-0.1
21
-7.025
0
LINE
8
BLACK
6
CONTINUOUS
10
-0.1
20
-5.925
11
-1.2
21
-7.025
0
LINE
8
BLACK
6
CONTINUOUS
10
3.52381
20
-7.37976
11
2.38095
21
-7.37976
0
LINE
8
BLACK
6
CONTINUOUS
10
2.95238
20
-7.37976
11
2.95238
21
-5.37976
0
LINE
8
BLACK
6
CONTINUOUS
10
2.95238
20
-5.37976
11
2.7619
21
-5.66548
0
LINE
8
BLACK
6
CONTINUOUS
10
2.7619
20
-5.66548
11
2.57143
21
-5.85595
0
LINE
8
BLACK
6
CONTINUOUS
10
2.57143
20
-5.85595
11
2.38095
21
-5.95119
0
LINE
8
BLACK
6
CONTINUOUS
10
4.38095
20
-7.18928
11
4.47619
21
-7.28452
0
LINE
8
BLACK
6
CONTINUOUS
10
4.47619
20
-7.28452
11
4.38095
21
-7.37976
0
LINE
8
BLACK
6
CONTINUOUS
10
4.38095
20
-7.37976
11
4.28571
21
-7.28452
0
LINE
8
BLACK
6
CONTINUOUS
10
4.28571
20
-7.28452
11
4.38095
21
-7.18928
0
LINE
8
BLACK
6
CONTINUOUS
10
4.38095
20
-7.18928
11
4.38095
21
-7.37976
0
LINE
8
BLACK
6
CONTINUOUS
10
6.38095
20
-7.37976
11
5.23809
21
-7.37976
0
LINE
8
BLACK
6
CONTINUOUS
10
5.80952
20
-7.37976
11
5.80952
21
-5.37976
0
LINE
8
BLACK
6
CONTINUOUS
10
5.80952
20
-5.37976
11
5.61905
21
-5.66548
0
LINE
8
BLACK
6
CONTINUOUS
10
5.61905
20
-5.66548
11
5.42857
21
-5.85595
0
LINE
8
BLACK
6
CONTINUOUS
10
5.42857
20
-5.85595
11
5.23809
21
-5.95119
0
LINE
8
BLACK
6
CONTINUOUS
10
7.61905
20
-5.37976
11
7.80952
21
-5.37976
0
LINE
8
BLACK
6
CONTINUOUS
10
7.80952
20
-5.37976
11
8
21
-5.475
0
LINE
8
BLACK
6
CONTINUOUS
10
8
20
-5.475
11
8.09524
21
-5.57024
0
LINE
8
BLACK
6
CONTINUOUS
10
8.09524
20
-5.57024
11
8.19048
21
-5.76071
0
LINE
8
BLACK
6
CONTINUOUS
10
8.19048
20
-5.76071
11
8.28571
21
-6.14167
0
LINE
8
BLACK
6
CONTINUOUS
10
8.28571
20
-6.14167
11
8.28571
21
-6.61786
0
LINE
8
BLACK
6
CONTINUOUS
10
8.28571
20
-6.61786
11
8.19048
21
-6.99881
0
LINE
8
BLACK
6
CONTINUOUS
10
8.19048
20
-6.99881
11
8.09524
21
-7.18928
0
LINE
8
BLACK
6
CONTINUOUS
10
8.09524
20
-7.18928
11
8
21
-7.28452
0
LINE
8
BLACK
6
CONTINUOUS
10
8
20
-7.28452
11
7.80952
21
-7.37976
0
LINE
8
BLACK
6
CONTINUOUS
10
7.80952
20
-7.37976
11
7.61905
21
-7.37976
0
LINE
8
BLACK
6
CONTINUOUS
10
7.61905
20
-7.37976
11
7.42857
21
-7.28452
0
LINE
8
BLACK
6
CONTINUOUS
10
7.42857
20
-7.28452
11
7.33333
21
-7.18928
0
LINE
8
BLACK
6
CONTINUOUS
10
7.33333
20
-7.18928
11
7.23809
21
-6.99881
0
LINE
8
BLACK
6
CONTINUOUS
10
7.23809
20
-6.99881
11
7.14286
21
-6.61786
0
LINE
8
BLACK
6
CONTINUOUS
10
7.14286
20
-6.61786
11
7.14286
21
-6.14167
0
LINE
8
BLACK
6
CONTINUOUS
10
7.14286
20
-6.14167
11
7.23809
21
-5.76071
0
LINE
8
BLACK
6
CONTINUOUS
10
7.23809
20
-5.76071
11
7.33333
21
-5.57024
0
LINE
8
BLACK
6
CONTINUOUS
10
7.33333
20
-5.57024
11
7.42857
21
-5.475
0
LINE
8
BLACK
6
CONTINUOUS
10
7.42857
20
-5.475
11
7.61905
21
-5.37976
0
LINE
8
BLACK
6
CONTINUOUS
10
9.52381
20
-5.37976
11
9.71429
21
-5.37976
0
LINE
8
BLACK
6
CONTINUOUS
10
9.71429
20
-5.37976
11
9.90476
21
-5.475
0
LINE
8
BLACK
6
CONTINUOUS
10
9.90476
20
-5.475
11
10
21
-5.57024
0
LINE
8
BLACK
6
CONTINUOUS
10
10
20
-5.57024
11
10.0952
21
-5.76071
0
LINE
8
BLACK
6
CONTINUOUS
10
10.0952
20
-5.76071
11
10.1905
21
-6.14167
0
LINE
8
BLACK
6
CONTINUOUS
10
10.1905
20
-6.14167
11
10.1905
21
-6.61786
0
LINE
8
BLACK
6
CONTINUOUS
10
10.1905
20
-6.61786
11
10.0952
21
-6.99881
0
LINE
8
BLACK
6
CONTINUOUS
10
10.0952
20
-6.99881
11
10
21
-7.18928
0
LINE
8
BLACK
6
CONTINUOUS
10
10
20
-7.18928
11
9.90476
21
-7.28452
0
LINE
8
BLACK
6
CONTINUOUS
10
9.90476
20
-7.28452
11
9.71429
21
-7.37976
0
LINE
8
BLACK
6
CONTINUOUS
10
9.71429
20
-7.37976
11
9.52381
21
-7.37976
0
LINE
8
BLACK
6
CONTINUOUS
10
9.52381
20
-7.37976
11
9.33333
21
-7.28452
0
LINE
8
BLACK
6
CONTINUOUS
10
9.33333
20
-7.28452
11
9.23809
21
-7.18928
0
LINE
8
BLACK
6
CONTINUOUS
10
9.23809
20
-7.18928
11
9.14286
21
-6.99881
0
LINE
8
BLACK
6
CONTINUOUS
10
9.14286
20
-6.99881
11
9.04762
21
-6.61786
0
LINE
8
BLACK
6
CONTINUOUS
10
9.04762
20
-6.61786
11
9.04762
21
-6.14167
0
LINE
8
BLACK
6
CONTINUOUS
10
9.04762
20
-6.14167
11
9.14286
21
-5.76071
0
LINE
8
BLACK
6
CONTINUOUS
10
9.14286
20
-5.76071
11
9.23809
21
-5.57024
0
LINE
8
BLACK
6
CONTINUOUS
10
9.23809
20
-5.57024
11
9.33333
21
-5.475
0
LINE
8
BLACK
6
CONTINUOUS
10
9.33333
20
-5.475
11
9.52381
21
-5.37976
0
LINE
8
BLACK
6
CONTINUOUS
10
11.0476
20
-7.37976
11
11.0476
21
-6.04643
0
LINE
8
BLACK
6
CONTINUOUS
10
11.0476
20
-6.2369
11
11.1429
21
-6.14167
0
LINE
8
BLACK
6
CONTINUOUS
10
11.1429
20
-6.14167
11
11.3333
21
-6.04643
0
LINE
8
BLACK
6
CONTINUOUS
10
11.3333
20
-6.04643
11
11.619
21
-6.04643
0
LINE
8
BLACK
6
CONTINUOUS
10
11.619
20
-6.04643
11
11.8095
21
-6.14167
0
LINE
8
BLACK
6
CONTINUOUS
10
11.8095
20
-6.14167
11
11.9048
21
-6.33214
0
LINE
8
BLACK
6
CONTINUOUS
10
11.9048
20
-6.33214
11
11.9048
21
-7.37976
0
LINE
8
BLACK
6
CONTINUOUS
10
11.9048
20
-6.33214
11
12
21
-6.14167
0
LINE
8
BLACK
6
CONTINUOUS
10
12
20
-6.14167
11
12.1905
21
-6.04643
0
LINE
8
BLACK
6
CONTINUOUS
10
12.1905
20
-6.04643
11
12.4762
21
-6.04643
0
LINE
8
BLACK
6
CONTINUOUS
10
12.4762
20
-6.04643
11
12.6667
21
-6.14167
0
LINE
8
BLACK
6
CONTINUOUS
10
12.6667
20
-6.14167
11
12.7619
21
-6.33214
0
LINE
8
BLACK
6
CONTINUOUS
10
12.7619
20
-6.33214
11
12.7619
21
-7.37976
0
LINE
8
BLACK
6
CONTINUOUS
10
13.7143
20
-7.37976
11
13.7143
21
-6.04643
0
LINE
8
BLACK
6
CONTINUOUS
10
13.7143
20
-6.2369
11
13.8095
21
-6.14167
0
LINE
8
BLACK
6
CONTINUOUS
10
13.8095
20
-6.14167
11
14
21
-6.04643
0
LINE
8
BLACK
6
CONTINUOUS
10
14
20
-6.04643
11
14.2857
21
-6.04643
0
LINE
8
BLACK
6
CONTINUOUS
10
14.2857
20
-6.04643
11
14.4762
21
-6.14167
0
LINE
8
BLACK
6
CONTINUOUS
10
14.4762
20
-6.14167
11
14.5714
21
-6.33214
0
LINE
8
BLACK
6
CONTINUOUS
10
14.5714
20
-6.33214
11
14.5714
21
-7.37976
0
LINE
8
BLACK
6
CONTINUOUS
10
14.5714
20
-6.33214
11
14.6667
21
-6.14167
0
LINE
8
BLACK
6
CONTINUOUS
10
14.6667
20
-6.14167
11
14.8571
21
-6.04643
0
LINE
8
BLACK
6
CONTINUOUS
10
14.8571
20
-6.04643
11
15.1429
21
-6.04643
0
LINE
8
BLACK
6
CONTINUOUS
10
15.1429
20
-6.04643
11
15.3333
21
-6.14167
0
LINE
8
BLACK
6
CONTINUOUS
10
15.3333
20
-6.14167
11
15.4286
21
-6.33214
0
LINE
8
BLACK
6
CONTINUOUS
10
15.4286
20
-6.33214
11
15.4286
21
-7.37976
0
LINE
8
BLACK
6
CONTINUOUS
10
19.3333
20
-5.28452
11
17.619
21
-7.85595
0
LINE
8
BLACK
6
CONTINUOUS
10
21.9048
20
-5.37976
11
22.0952
21
-5.37976
0
LINE
8
BLACK
6
CONTINUOUS
10
22.0952
20
-5.37976
11
22.2857
21
-5.475
0
LINE
8
BLACK
6
CONTINUOUS
10
22.2857
20
-5.475
11
22.381
21
-5.57024
0
LINE
8
BLACK
6
CONTINUOUS
10
22.381
20
-5.57024
11
22.4762
21
-5.76071
0
LINE
8
BLACK
6
CONTINUOUS
10
22.4762
20
-5.76071
11
22.5714
21
-6.14167
0
LINE
8
BLACK
6
CONTINUOUS
10
22.5714
20
-6.14167
11
22.5714
21
-6.61786
0
LINE
8
BLACK
6
CONTINUOUS
10
22.5714
20
-6.61786
11
22.4762
21
-6.99881
0
LINE
8
BLACK
6
CONTINUOUS
10
22.4762
20
-6.99881
11
22.381
21
-7.18928
0
LINE
8
BLACK
6
CONTINUOUS
10
22.381
20
-7.18928
11
22.2857
21
-7.28452
0
LINE
8
BLACK
6
CONTINUOUS
10
22.2857
20
-7.28452
11
22.0952
21
-7.37976
0
LINE
8
BLACK
6
CONTINUOUS
10
22.0952
20
-7.37976
11
21.9048
21
-7.37976
0
LINE
8
BLACK
6
CONTINUOUS
10
21.9048
20
-7.37976
11
21.7143
21
-7.28452
0
LINE
8
BLACK
6
CONTINUOUS
10
21.7143
20
-7.28452
11
21.619
21
-7.18928
0
LINE
8
BLACK
6
CONTINUOUS
10
21.619
20
-7.18928
11
21.5238
21
-6.99881
0
LINE
8
BLACK
6
CONTINUOUS
10
21.5238
20
-6.99881
11
21.4286
21
-6.61786
0
LINE
8
BLACK
6
CONTINUOUS
10
21.4286
20
-6.61786
11
21.4286
21
-6.14167
0
LINE
8
BLACK
6
CONTINUOUS
10
21.4286
20
-6.14167
11
21.5238
21
-5.76071
0
LINE
8
BLACK
6
CONTINUOUS
10
21.5238
20
-5.76071
11
21.619
21
-5.57024
0
LINE
8
BLACK
6
CONTINUOUS
10
21.619
20
-5.57024
11
21.7143
21
-5.475
0
LINE
8
BLACK
6
CONTINUOUS
10
21.7143
20
-5.475
11
21.9048
21
-5.37976
0
LINE
8
BLACK
6
CONTINUOUS
10
23.4286
20
-7.18928
11
23.5238
21
-7.28452
0
LINE
8
BLACK
6
CONTINUOUS
10
23.5238
20
-7.28452
11
23.4286
21
-7.37976
0
LINE
8
BLACK
6
CONTINUOUS
10
23.4286
20
-7.37976
11
23.3333
21
-7.28452
0
LINE
8
BLACK
6
CONTINUOUS
10
23.3333
20
-7.28452
11
23.4286
21
-7.18928
0
LINE
8
BLACK
6
CONTINUOUS
10
23.4286
20
-7.18928
11
23.4286
21
-7.37976
0
LINE
8
BLACK
6
CONTINUOUS
10
24.7619
20
-5.37976
11
24.9524
21
-5.37976
0
LINE
8
BLACK
6
CONTINUOUS
10
24.9524
20
-5.37976
11
25.1429
21
-5.475
0
LINE
8
BLACK
6
CONTINUOUS
10
25.1429
20
-5.475
11
25.2381
21
-5.57024
0
LINE
8
BLACK
6
CONTINUOUS
10
25.2381
20
-5.57024
11
25.3333
21
-5.76071
0
LINE
8
BLACK
6
CONTINUOUS
10
25.3333
20
-5.76071
11
25.4286
21
-6.14167
0
LINE
8
BLACK
6
CONTINUOUS
10
25.4286
20
-6.14167
11
25.4286
21
-6.61786
0
LINE
8
BLACK
6
CONTINUOUS
10
25.4286
20
-6.61786
11
25.3333
21
-6.99881
0
LINE
8
BLACK
6
CONTINUOUS
10
25.3333
20
-6.99881
11
25.2381
21
-7.18928
0
LINE
8
BLACK
6
CONTINUOUS
10
25.2381
20
-7.18928
11
25.1429
21
-7.28452
0
LINE
8
BLACK
6
CONTINUOUS
10
25.1429
20
-7.28452
11
24.9524
21
-7.37976
0
LINE
8
BLACK
6
CONTINUOUS
10
24.9524
20
-7.37976
11
24.7619
21
-7.37976
0
LINE
8
BLACK
6
CONTINUOUS
10
24.7619
20
-7.37976
11
24.5714
21
-7.28452
0
LINE
8
BLACK
6
CONTINUOUS
10
24.5714
20
-7.28452
11
24.4762
21
-7.18928
0
LINE
8
BLACK
6
CONTINUOUS
10
24.4762
20
-7.18928
11
24.381
21
-6.99881
0
LINE
8
BLACK
6
CONTINUOUS
10
24.381
20
-6.99881
11
24.2857
21
-6.61786
0
LINE
8
BLACK
6
CONTINUOUS
10
24.2857
20
-6.61786
11
24.2857
21
-6.14167
0
LINE
8
BLACK
6
CONTINUOUS
10
24.2857
20
-6.14167
11
24.381
21
-5.76071
0
LINE
8
BLACK
6
CONTINUOUS
10
24.381
20
-5.76071
11
24.4762
21
-5.57024
0
LINE
8
BLACK
6
CONTINUOUS
10
24.4762
20
-5.57024
11
24.5714
21
-5.475
0
LINE
8
BLACK
6
CONTINUOUS
10
24.5714
20
-5.475
11
24.7619
21
-5.37976
0
LINE
8
BLACK
6
CONTINUOUS
10
27.1429
20
-6.04643
11
27.1429
21
-7.37976
0
LINE
8
BLACK
6
CONTINUOUS
10
26.6667
20
-5.28452
11
26.1905
21
-6.7131
0
LINE
8
BLACK
6
CONTINUOUS
10
26.1905
20
-6.7131
11
27.4286
21
-6.7131
0
LINE
8
BLACK
6
CONTINUOUS
10
28
20
-5.37976
11
29.2381
21
-5.37976
0
LINE
8
BLACK
6
CONTINUOUS
10
29.2381
20
-5.37976
11
28.5714
21
-6.14167
0
LINE
8
BLACK
6
CONTINUOUS
10
28.5714
20
-6.14167
11
28.8571
21
-6.14167
0
LINE
8
BLACK
6
CONTINUOUS
10
28.8571
20
-6.14167
11
29.0476
21
-6.2369
0
LINE
8
BLACK
6
CONTINUOUS
10
29.0476
20
-6.2369
11
29.1429
21
-6.33214
0
LINE
8
BLACK
6
CONTINUOUS
10
29.1429
20
-6.33214
11
29.2381
21
-6.52262
0
LINE
8
BLACK
6
CONTINUOUS
10
29.2381
20
-6.52262
11
29.2381
21
-6.99881
0
LINE
8
BLACK
6
CONTINUOUS
10
29.2381
20
-6.99881
11
29.1429
21
-7.18928
0
LINE
8
BLACK
6
CONTINUOUS
10
29.1429
20
-7.18928
11
29.0476
21
-7.28452
0
LINE
8
BLACK
6
CONTINUOUS
10
29.0476
20
-7.28452
11
28.8571
21
-7.37976
0
LINE
8
BLACK
6
CONTINUOUS
10
28.8571
20
-7.37976
11
28.2857
21
-7.37976
0
LINE
8
BLACK
6
CONTINUOUS
10
28.2857
20
-7.37976
11
28.0952
21
-7.28452
0
LINE
8
BLACK
6
CONTINUOUS
10
28.0952
20
-7.28452
11
28
21
-7.18928
0
LINE
8
BLACK
6
CONTINUOUS
10
29.9048
20
-5.37976
11
31.1429
21
-5.37976
0
LINE
8
BLACK
6
CONTINUOUS
10
31.1429
20
-5.37976
11
30.4762
21
-6.14167
0
LINE
8
BLACK
6
CONTINUOUS
10
30.4762
20
-6.14167
11
30.7619
21
-6.14167
0
LINE
8
BLACK
6
CONTINUOUS
10
30.7619
20
-6.14167
11
30.9524
21
-6.2369
0
LINE
8
BLACK
6
CONTINUOUS
10
30.9524
20
-6.2369
11
31.0476
21
-6.33214
0
LINE
8
BLACK
6
CONTINUOUS
10
31.0476
20
-6.33214
11
31.1429
21
-6.52262
0
LINE
8
BLACK
6
CONTINUOUS
10
31.1429
20
-6.52262
11
31.1429
21
-6.99881
0
LINE
8
BLACK
6
CONTINUOUS
10
31.1429
20
-6.99881
11
31.0476
21
-7.18928
0
LINE
8
BLACK
6
CONTINUOUS
10
31.0476
20
-7.18928
11
30.9524
21
-7.28452
0
LINE
8
BLACK
6
CONTINUOUS
10
30.9524
20
-7.28452
11
30.7619
21
-7.37976
0
LINE
8
BLACK
6
CONTINUOUS
10
30.7619
20
-7.37976
11
30.1905
21
-7.37976
0
LINE
8
BLACK
6
CONTINUOUS
10
30.1905
20
-7.37976
11
30
21
-7.28452
0
LINE
8
BLACK
6
CONTINUOUS
10
30
20
-7.28452
11
29.9048
21
-7.18928
0
LINE
8
BLACK
6
CONTINUOUS
10
31.9048
20
-5.37976
11
31.9048
21
-5.76071
0
LINE
8
BLACK
6
CONTINUOUS
10
32.6667
20
-5.37976
11
32.6667
21
-5.76071
0
LINE
8
BLACK
6
CONTINUOUS
10
35.619
20
-8.14167
11
35.5238
21
-8.04643
0
LINE
8
BLACK
6
CONTINUOUS
10
35.5238
20
-8.04643
11
35.3333
21
-7.76071
0
LINE
8
BLACK
6
CONTINUOUS
10
35.3333
20
-7.76071
11
35.2381
21
-7.57024
0
LINE
8
BLACK
6
CONTINUOUS
10
35.2381
20
-7.57024
11
35.1429
21
-7.28452
0
LINE
8
BLACK
6
CONTINUOUS
10
35.1429
20
-7.28452
11
35.0476
21
-6.80833
0
LINE
8
BLACK
6
CONTINUOUS
10
35.0476
20
-6.80833
11
35.0476
21
-6.42738
0
LINE
8
BLACK
6
CONTINUOUS
10
35.0476
20
-6.42738
11
35.1429
21
-5.95119
0
LINE
8
BLACK
6
CONTINUOUS
10
35.1429
20
-5.95119
11
35.2381
21
-5.66548
0
LINE
8
BLACK
6
CONTINUOUS
10
35.2381
20
-5.66548
11
35.3333
21
-5.475
0
LINE
8
BLACK
6
CONTINUOUS
10
35.3333
20
-5.475
11
35.5238
21
-5.18928
0
LINE
8
BLACK
6
CONTINUOUS
10
35.5238
20
-5.18928
11
35.619
21
-5.09405
0
LINE
8
BLACK
6
CONTINUOUS
10
36.2857
20
-5.57024
11
36.381
21
-5.475
0
LINE
8
BLACK
6
CONTINUOUS
10
36.381
20
-5.475
11
36.5714
21
-5.37976
0
LINE
8
BLACK
6
CONTINUOUS
10
36.5714
20
-5.37976
11
37.0476
21
-5.37976
0
LINE
8
BLACK
6
CONTINUOUS
10
37.0476
20
-5.37976
11
37.2381
21
-5.475
0
LINE
8
BLACK
6
CONTINUOUS
10
37.2381
20
-5.475
11
37.3333
21
-5.57024
0
LINE
8
BLACK
6
CONTINUOUS
10
37.3333
20
-5.57024
11
37.4286
21
-5.76071
0
LINE
8
BLACK
6
CONTINUOUS
10
37.4286
20
-5.76071
11
37.4286
21
-5.95119
0
LINE
8
BLACK
6
CONTINUOUS
10
37.4286
20
-5.95119
11
37.3333
21
-6.2369
0
LINE
8
BLACK
6
CONTINUOUS
10
37.3333
20
-6.2369
11
36.1905
21
-7.37976
0
LINE
8
BLACK
6
CONTINUOUS
10
36.1905
20
-7.37976
11
37.4286
21
-7.37976
0
LINE
8
BLACK
6
CONTINUOUS
10
39.8095
20
-7.37976
11
39.8095
21
-5.37976
0
LINE
8
BLACK
6
CONTINUOUS
10
40.6667
20
-7.37976
11
40.6667
21
-6.33214
0
LINE
8
BLACK
6
CONTINUOUS
10
40.6667
20
-6.33214
11
40.5714
21
-6.14167
0
LINE
8
BLACK
6
CONTINUOUS
10
40.5714
20
-6.14167
11
40.381
21
-6.04643
0
LINE
8
BLACK
6
CONTINUOUS
10
40.381
20
-6.04643
11
40.0952
21
-6.04643
0
LINE
8
BLACK
6
CONTINUOUS
10
40.0952
20
-6.04643
11
39.9048
21
-6.14167
0
LINE
8
BLACK
6
CONTINUOUS
10
39.9048
20
-6.14167
11
39.8095
21
-6.2369
0
LINE
8
BLACK
6
CONTINUOUS
10
41.9048
20
-7.37976
11
41.7143
21
-7.28452
0
LINE
8
BLACK
6
CONTINUOUS
10
41.7143
20
-7.28452
11
41.619
21
-7.18928
0
LINE
8
BLACK
6
CONTINUOUS
10
41.619
20
-7.18928
11
41.5238
21
-6.99881
0
LINE
8
BLACK
6
CONTINUOUS
10
41.5238
20
-6.99881
11
41.5238
21
-6.42738
0
LINE
8
BLACK
6
CONTINUOUS
10
41.5238
20
-6.42738
11
41.619
21
-6.2369
0
LINE
8
BLACK
6
CONTINUOUS
10
41.619
20
-6.2369
11
41.7143
21
-6.14167
0
LINE
8
BLACK
6
CONTINUOUS
10
41.7143
20
-6.14167
11
41.9048
21
-6.04643
0
LINE
8
BLACK
6
CONTINUOUS
10
41.9048
20
-6.04643
11
42.1905
21
-6.04643
0
LINE
8
BLACK
6
CONTINUOUS
10
42.1905
20
-6.04643
11
42.381
21
-6.14167
0
LINE
8
BLACK
6
CONTINUOUS
10
42.381
20
-6.14167
11
42.4762
21
-6.2369
0
LINE
8
BLACK
6
CONTINUOUS
10
42.4762
20
-6.2369
11
42.5714
21
-6.42738
0
LINE
8
BLACK
6
CONTINUOUS
10
42.5714
20
-6.42738
11
42.5714
21
-6.99881
0
LINE
8
BLACK
6
CONTINUOUS
10
42.5714
20
-6.99881
11
42.4762
21
-7.18928
0
LINE
8
BLACK
6
CONTINUOUS
10
42.4762
20
-7.18928
11
42.381
21
-7.28452
0
LINE
8
BLACK
6
CONTINUOUS
10
42.381
20
-7.28452
11
42.1905
21
-7.37976
0
LINE
8
BLACK
6
CONTINUOUS
10
42.1905
20
-7.37976
11
41.9048
21
-7.37976
0
LINE
8
BLACK
6
CONTINUOUS
10
43.7143
20
-7.37976
11
43.5238
21
-7.28452
0
LINE
8
BLACK
6
CONTINUOUS
10
43.5238
20
-7.28452
11
43.4286
21
-7.09405
0
LINE
8
BLACK
6
CONTINUOUS
10
43.4286
20
-7.09405
11
43.4286
21
-5.37976
0
LINE
8
BLACK
6
CONTINUOUS
10
45.2381
20
-7.28452
11
45.0476
21
-7.37976
0
LINE
8
BLACK
6
CONTINUOUS
10
45.0476
20
-7.37976
11
44.6667
21
-7.37976
0
LINE
8
BLACK
6
CONTINUOUS
10
44.6667
20
-7.37976
11
44.4762
21
-7.28452
0
LINE
8
BLACK
6
CONTINUOUS
10
44.4762
20
-7.28452
11
44.381
21
-7.09405
0
LINE
8
BLACK
6
CONTINUOUS
10
44.381
20
-7.09405
11
44.381
21
-6.33214
0
LINE
8
BLACK
6
CONTINUOUS
10
44.381
20
-6.33214
11
44.4762
21
-6.14167
0
LINE
8
BLACK
6
CONTINUOUS
10
44.4762
20
-6.14167
11
44.6667
21
-6.04643
0
LINE
8
BLACK
6
CONTINUOUS
10
44.6667
20
-6.04643
11
45.0476
21
-6.04643
0
LINE
8
BLACK
6
CONTINUOUS
10
45.0476
20
-6.04643
11
45.2381
21
-6.14167
0
LINE
8
BLACK
6
CONTINUOUS
10
45.2381
20
-6.14167
11
45.3333
21
-6.33214
0
LINE
8
BLACK
6
CONTINUOUS
10
45.3333
20
-6.33214
11
45.3333
21
-6.52262
0
LINE
8
BLACK
6
CONTINUOUS
10
45.3333
20
-6.52262
11
44.381
21
-6.7131
0
LINE
8
BLACK
6
CONTINUOUS
10
46.0952
20
-7.28452
11
46.2857
21
-7.37976
0
LINE
8
BLACK
6
CONTINUOUS
10
46.2857
20
-7.37976
11
46.6667
21
-7.37976
0
LINE
8
BLACK
6
CONTINUOUS
10
46.6667
20
-7.37976
11
46.8571
21
-7.28452
0
LINE
8
BLACK
6
CONTINUOUS
10
46.8571
20
-7.28452
11
46.9524
21
-7.09405
0
LINE
8
BLACK
6
CONTINUOUS
10
46.9524
20
-7.09405
11
46.9524
21
-6.99881
0
LINE
8
BLACK
6
CONTINUOUS
10
46.9524
20
-6.99881
11
46.8571
21
-6.80833
0
LINE
8
BLACK
6
CONTINUOUS
10
46.8571
20
-6.80833
11
46.6667
21
-6.7131
0
LINE
8
BLACK
6
CONTINUOUS
10
46.6667
20
-6.7131
11
46.381
21
-6.7131
0
LINE
8
BLACK
6
CONTINUOUS
10
46.381
20
-6.7131
11
46.1905
21
-6.61786
0
LINE
8
BLACK
6
CONTINUOUS
10
46.1905
20
-6.61786
11
46.0952
21
-6.42738
0
LINE
8
BLACK
6
CONTINUOUS
10
46.0952
20
-6.42738
11
46.0952
21
-6.33214
0
LINE
8
BLACK
6
CONTINUOUS
10
46.0952
20
-6.33214
11
46.1905
21
-6.14167
0
LINE
8
BLACK
6
CONTINUOUS
10
46.1905
20
-6.14167
11
46.381
21
-6.04643
0
LINE
8
BLACK
6
CONTINUOUS
10
46.381
20
-6.04643
11
46.6667
21
-6.04643
0
LINE
8
BLACK
6
CONTINUOUS
10
46.6667
20
-6.04643
11
46.8571
21
-6.14167
0
LINE
8
BLACK
6
CONTINUOUS
10
47.619
20
-8.14167
11
47.7143
21
-8.04643
0
LINE
8
BLACK
6
CONTINUOUS
10
47.7143
20
-8.04643
11
47.9048
21
-7.76071
0
LINE
8
BLACK
6
CONTINUOUS
10
47.9048
20
-7.76071
11
48
21
-7.57024
0
LINE
8
BLACK
6
CONTINUOUS
10
48
20
-7.57024
11
48.0952
21
-7.28452
0
LINE
8
BLACK
6
CONTINUOUS
10
48.0952
20
-7.28452
11
48.1905
21
-6.80833
0
LINE
8
BLACK
6
CONTINUOUS
10
48.1905
20
-6.80833
11
48.1905
21
-6.42738
0
LINE
8
BLACK
6
CONTINUOUS
10
48.1905
20
-6.42738
11
48.0952
21
-5.95119
0
LINE
8
BLACK
6
CONTINUOUS
10
48.0952
20
-5.95119
11
48
21
-5.66548
0
LINE
8
BLACK
6
CONTINUOUS
10
48
20
-5.66548
11
47.9048
21
-5.475
0
LINE
8
BLACK
6
CONTINUOUS
10
47.9048
20
-5.475
11
47.7143
21
-5.18928
0
LINE
8
BLACK
6
CONTINUOUS
10
47.7143
20
-5.18928
11
47.619
21
-5.09405
0
LINE
8
BLACK
6
CONTINUOUS
10
51.2381
20
-8.14167
11
51.1429
21
-8.04643
0
LINE
8
BLACK
6
CONTINUOUS
10
51.1429
20
-8.04643
11
50.9524
21
-7.76071
0
LINE
8
BLACK
6
CONTINUOUS
10
50.9524
20
-7.76071
11
50.8571
21
-7.57024
0
LINE
8
BLACK
6
CONTINUOUS
10
50.8571
20
-7.57024
11
50.7619
21
-7.28452
0
LINE
8
BLACK
6
CONTINUOUS
10
50.7619
20
-7.28452
11
50.6667
21
-6.80833
0
LINE
8
BLACK
6
CONTINUOUS
10
50.6667
20
-6.80833
11
50.6667
21
-6.42738
0
LINE
8
BLACK
6
CONTINUOUS
10
50.6667
20
-6.42738
11
50.7619
21
-5.95119
0
LINE
8
BLACK
6
CONTINUOUS
10
50.7619
20
-5.95119
11
50.8571
21
-5.66548
0
LINE
8
BLACK
6
CONTINUOUS
10
50.8571
20
-5.66548
11
50.9524
21
-5.475
0
LINE
8
BLACK
6
CONTINUOUS
10
50.9524
20
-5.475
11
51.1429
21
-5.18928
0
LINE
8
BLACK
6
CONTINUOUS
10
51.1429
20
-5.18928
11
51.2381
21
-5.09405
0
LINE
8
BLACK
6
CONTINUOUS
10
52
20
-6.04643
11
52
21
-7.37976
0
LINE
8
BLACK
6
CONTINUOUS
10
52
20
-6.2369
11
52.0952
21
-6.14167
0
LINE
8
BLACK
6
CONTINUOUS
10
52.0952
20
-6.14167
11
52.2857
21
-6.04643
0
LINE
8
BLACK
6
CONTINUOUS
10
52.2857
20
-6.04643
11
52.5714
21
-6.04643
0
LINE
8
BLACK
6
CONTINUOUS
10
52.5714
20
-6.04643
11
52.7619
21
-6.14167
0
LINE
8
BLACK
6
CONTINUOUS
10
52.7619
20
-6.14167
11
52.8571
21
-6.33214
0
LINE
8
BLACK
6
CONTINUOUS
10
52.8571
20
-6.33214
11
52.8571
21
-7.37976
0
LINE
8
BLACK
6
CONTINUOUS
10
54.0952
20
-7.37976
11
53.9048
21
-7.28452
0
LINE
8
BLACK
6
CONTINUOUS
10
53.9048
20
-7.28452
11
53.8095
21
-7.18928
0
LINE
8
BLACK
6
CONTINUOUS
10
53.8095
20
-7.18928
11
53.7143
21
-6.99881
0
LINE
8
BLACK
6
CONTINUOUS
10
53.7143
20
-6.99881
11
53.7143
21
-6.42738
0
LINE
8
BLACK
6
CONTINUOUS
10
53.7143
20
-6.42738
11
53.8095
21
-6.2369
0
LINE
8
BLACK
6
CONTINUOUS
10
53.8095
20
-6.2369
11
53.9048
21
-6.14167
0
LINE
8
BLACK
6
CONTINUOUS
10
53.9048
20
-6.14167
11
54.0952
21
-6.04643
0
LINE
8
BLACK
6
CONTINUOUS
10
54.0952
20
-6.04643
11
54.381
21
-6.04643
0
LINE
8
BLACK
6
CONTINUOUS
10
54.381
20
-6.04643
11
54.5714
21
-6.14167
0
LINE
8
BLACK
6
CONTINUOUS
10
54.5714
20
-6.14167
11
54.6667
21
-6.2369
0
LINE
8
BLACK
6
CONTINUOUS
10
54.6667
20
-6.2369
11
54.7619
21
-6.42738
0
LINE
8
BLACK
6
CONTINUOUS
10
54.7619
20
-6.42738
11
54.7619
21
-6.99881
0
LINE
8
BLACK
6
CONTINUOUS
10
54.7619
20
-6.99881
11
54.6667
21
-7.18928
0
LINE
8
BLACK
6
CONTINUOUS
10
54.6667
20
-7.18928
11
54.5714
21
-7.28452
0
LINE
8
BLACK
6
CONTINUOUS
10
54.5714
20
-7.28452
11
54.381
21
-7.37976
0
LINE
8
BLACK
6
CONTINUOUS
10
54.381
20
-7.37976
11
54.0952
21
-7.37976
0
LINE
8
BLACK
6
CONTINUOUS
10
55.3333
20
-6.04643
11
56.0952
21
-6.04643
0
LINE
8
BLACK
6
CONTINUOUS
10
55.619
20
-5.37976
11
55.619
21
-7.09405
0
LINE
8
BLACK
6
CONTINUOUS
10
55.619
20
-7.09405
11
55.7143
21
-7.28452
0
LINE
8
BLACK
6
CONTINUOUS
10
55.7143
20
-7.28452
11
55.9048
21
-7.37976
0
LINE
8
BLACK
6
CONTINUOUS
10
55.9048
20
-7.37976
11
56.0952
21
-7.37976
0
LINE
8
BLACK
6
CONTINUOUS
10
58.2857
20
-6.04643
11
58.2857
21
-8.04643
0
LINE
8
BLACK
6
CONTINUOUS
10
58.2857
20
-6.14167
11
58.4762
21
-6.04643
0
LINE
8
BLACK
6
CONTINUOUS
10
58.4762
20
-6.04643
11
58.8571
21
-6.04643
0
LINE
8
BLACK
6
CONTINUOUS
10
58.8571
20
-6.04643
11
59.0476
21
-6.14167
0
LINE
8
BLACK
6
CONTINUOUS
10
59.0476
20
-6.14167
11
59.1429
21
-6.2369
0
LINE
8
BLACK
6
CONTINUOUS
10
59.1429
20
-6.2369
11
59.2381
21
-6.42738
0
LINE
8
BLACK
6
CONTINUOUS
10
59.2381
20
-6.42738
11
59.2381
21
-6.99881
0
LINE
8
BLACK
6
CONTINUOUS
10
59.2381
20
-6.99881
11
59.1429
21
-7.18928
0
LINE
8
BLACK
6
CONTINUOUS
10
59.1429
20
-7.18928
11
59.0476
21
-7.28452
0
LINE
8
BLACK
6
CONTINUOUS
10
59.0476
20
-7.28452
11
58.8571
21
-7.37976
0
LINE
8
BLACK
6
CONTINUOUS
10
58.8571
20
-7.37976
11
58.4762
21
-7.37976
0
LINE
8
BLACK
6
CONTINUOUS
10
58.4762
20
-7.37976
11
58.2857
21
-7.28452
0
LINE
8
BLACK
6
CONTINUOUS
10
60.381
20
-7.37976
11
60.1905
21
-7.28452
0
LINE
8
BLACK
6
CONTINUOUS
10
60.1905
20
-7.28452
11
60.0952
21
-7.09405
0
LINE
8
BLACK
6
CONTINUOUS
10
60.0952
20
-7.09405
11
60.0952
21
-5.37976
0
LINE
8
BLACK
6
CONTINUOUS
10
62
20
-7.37976
11
62
21
-6.33214
0
LINE
8
BLACK
6
CONTINUOUS
10
62
20
-6.33214
11
61.9048
21
-6.14167
0
LINE
8
BLACK
6
CONTINUOUS
10
61.9048
20
-6.14167
11
61.7143
21
-6.04643
0
LINE
8
BLACK
6
CONTINUOUS
10
61.7143
20
-6.04643
11
61.3333
21
-6.04643
0
LINE
8
BLACK
6
CONTINUOUS
10
61.3333
20
-6.04643
11
61.1429
21
-6.14167
0
LINE
8
BLACK
6
CONTINUOUS
10
62
20
-7.28452
11
61.8095
21
-7.37976
0
LINE
8
BLACK
6
CONTINUOUS
10
61.8095
20
-7.37976
11
61.3333
21
-7.37976
0
LINE
8
BLACK
6
CONTINUOUS
10
61.3333
20
-7.37976
11
61.1429
21
-7.28452
0
LINE
8
BLACK
6
CONTINUOUS
10
61.1429
20
-7.28452
11
61.0476
21
-7.09405
0
LINE
8
BLACK
6
CONTINUOUS
10
61.0476
20
-7.09405
11
61.0476
21
-6.90357
0
LINE
8
BLACK
6
CONTINUOUS
10
61.0476
20
-6.90357
11
61.1429
21
-6.7131
0
LINE
8
BLACK
6
CONTINUOUS
10
61.1429
20
-6.7131
11
61.3333
21
-6.61786
0
LINE
8
BLACK
6
CONTINUOUS
10
61.3333
20
-6.61786
11
61.8095
21
-6.61786
0
LINE
8
BLACK
6
CONTINUOUS
10
61.8095
20
-6.61786
11
62
21
-6.52262
0
LINE
8
BLACK
6
CONTINUOUS
10
62.6667
20
-6.04643
11
63.4286
21
-6.04643
0
LINE
8
BLACK
6
CONTINUOUS
10
62.9524
20
-5.37976
11
62.9524
21
-7.09405
0
LINE
8
BLACK
6
CONTINUOUS
10
62.9524
20
-7.09405
11
63.0476
21
-7.28452
0
LINE
8
BLACK
6
CONTINUOUS
10
63.0476
20
-7.28452
11
63.2381
21
-7.37976
0
LINE
8
BLACK
6
CONTINUOUS
10
63.2381
20
-7.37976
11
63.4286
21
-7.37976
0
LINE
8
BLACK
6
CONTINUOUS
10
64.8571
20
-7.28452
11
64.6667
21
-7.37976
0
LINE
8
BLACK
6
CONTINUOUS
10
64.6667
20
-7.37976
11
64.2857
21
-7.37976
0
LINE
8
BLACK
6
CONTINUOUS
10
64.2857
20
-7.37976
11
64.0952
21
-7.28452
0
LINE
8
BLACK
6
CONTINUOUS
10
64.0952
20
-7.28452
11
64
21
-7.09405
0
LINE
8
BLACK
6
CONTINUOUS
10
64
20
-7.09405
11
64
21
-6.33214
0
LINE
8
BLACK
6
CONTINUOUS
10
64
20
-6.33214
11
64.0952
21
-6.14167
0
LINE
8
BLACK
6
CONTINUOUS
10
64.0952
20
-6.14167
11
64.2857
21
-6.04643
0
LINE
8
BLACK
6
CONTINUOUS
10
64.2857
20
-6.04643
11
64.6667
21
-6.04643
0
LINE
8
BLACK
6
CONTINUOUS
10
64.6667
20
-6.04643
11
64.8571
21
-6.14167
0
LINE
8
BLACK
6
CONTINUOUS
10
64.8571
20
-6.14167
11
64.9524
21
-6.33214
0
LINE
8
BLACK
6
CONTINUOUS
10
64.9524
20
-6.33214
11
64.9524
21
-6.52262
0
LINE
8
BLACK
6
CONTINUOUS
10
64.9524
20
-6.52262
11
64
21
-6.7131
0
LINE
8
BLACK
6
CONTINUOUS
10
66.6667
20
-7.37976
11
66.6667
21
-5.37976
0
LINE
8
BLACK
6
CONTINUOUS
10
66.6667
20
-7.28452
11
66.4762
21
-7.37976
0
LINE
8
BLACK
6
CONTINUOUS
10
66.4762
20
-7.37976
11
66.0952
21
-7.37976
0
LINE
8
BLACK
6
CONTINUOUS
10
66.0952
20
-7.37976
11
65.9048
21
-7.28452
0
LINE
8
BLACK
6
CONTINUOUS
10
65.9048
20
-7.28452
11
65.8095
21
-7.18928
0
LINE
8
BLACK
6
CONTINUOUS
10
65.8095
20
-7.18928
11
65.7143
21
-6.99881
0
LINE
8
BLACK
6
CONTINUOUS
10
65.7143
20
-6.99881
11
65.7143
21
-6.42738
0
LINE
8
BLACK
6
CONTINUOUS
10
65.7143
20
-6.42738
11
65.8095
21
-6.2369
0
LINE
8
BLACK
6
CONTINUOUS
10
65.8095
20
-6.2369
11
65.9048
21
-6.14167
0
LINE
8
BLACK
6
CONTINUOUS
10
65.9048
20
-6.14167
11
66.0952
21
-6.04643
0
LINE
8
BLACK
6
CONTINUOUS
10
66.0952
20
-6.04643
11
66.4762
21
-6.04643
0
LINE
8
BLACK
6
CONTINUOUS
10
66.4762
20
-6.04643
11
66.6667
21
-6.14167
0
LINE
8
BLACK
6
CONTINUOUS
10
67.4286
20
-8.14167
11
67.5238
21
-8.04643
0
LINE
8
BLACK
6
CONTINUOUS
10
67.5238
20
-8.04643
11
67.7143
21
-7.76071
0
LINE
8
BLACK
6
CONTINUOUS
10
67.7143
20
-7.76071
11
67.8095
21
-7.57024
0
LINE
8
BLACK
6
CONTINUOUS
10
67.8095
20
-7.57024
11
67.9048
21
-7.28452
0
LINE
8
BLACK
6
CONTINUOUS
10
67.9048
20
-7.28452
11
68
21
-6.80833
0
LINE
8
BLACK
6
CONTINUOUS
10
68
20
-6.80833
11
68
21
-6.42738
0
LINE
8
BLACK
6
CONTINUOUS
10
68
20
-6.42738
11
67.9048
21
-5.95119
0
LINE
8
BLACK
6
CONTINUOUS
10
67.9048
20
-5.95119
11
67.8095
21
-5.66548
0
LINE
8
BLACK
6
CONTINUOUS
10
67.8095
20
-5.66548
11
67.7143
21
-5.475
0
LINE
8
BLACK
6
CONTINUOUS
10
67.7143
20
-5.475
11
67.5238
21
-5.18928
0
LINE
8
BLACK
6
CONTINUOUS
10
67.5238
20
-5.18928
11
67.4286
21
-5.09405
0
CIRCLE
8
BLACK
10
-1.1
20
-9.115
40
1
0
LINE
8
BLACK
6
CONTINUOUS
10
2.38095
20
-8.21024
11
2.47619
21
-8.115
0
LINE
8
BLACK
6
CONTINUOUS
10
2.47619
20
-8.115
11
2.66667
21
-8.01976
0
LINE
8
BLACK
6
CONTINUOUS
10
2.66667
20
-8.01976
11
3.14286
21
-8.01976
0
LINE
8
BLACK
6
CONTINUOUS
10
3.14286
20
-8.01976
11
3.33333
21
-8.115
0
LINE
8
BLACK
6
CONTINUOUS
10
3.33333
20
-8.115
11
3.42857
21
-8.21024
0
LINE
8
BLACK
6
CONTINUOUS
10
3.42857
20
-8.21024
11
3.52381
21
-8.40071
0
LINE
8
BLACK
6
CONTINUOUS
10
3.52381
20
-8.40071
11
3.52381
21
-8.59119
0
LINE
8
BLACK
6
CONTINUOUS
10
3.52381
20
-8.59119
11
3.42857
21
-8.8769
0
LINE
8
BLACK
6
CONTINUOUS
10
3.42857
20
-8.8769
11
2.28571
21
-10.0198
0
LINE
8
BLACK
6
CONTINUOUS
10
2.28571
20
-10.0198
11
3.52381
21
-10.0198
0
LINE
8
BLACK
6
CONTINUOUS
10
4.38095
20
-9.82928
11
4.47619
21
-9.92452
0
LINE
8
BLACK
6
CONTINUOUS
10
4.47619
20
-9.92452
11
4.38095
21
-10.0198
0
LINE
8
BLACK
6
CONTINUOUS
10
4.38095
20
-10.0198
11
4.28571
21
-9.92452
0
LINE
8
BLACK
6
CONTINUOUS
10
4.28571
20
-9.92452
11
4.38095
21
-9.82928
0
LINE
8
BLACK
6
CONTINUOUS
10
4.38095
20
-9.82928
11
4.38095
21
-10.0198
0
LINE
8
BLACK
6
CONTINUOUS
10
6.19048
20
-8.01976
11
5.80952
21
-8.01976
0
LINE
8
BLACK
6
CONTINUOUS
10
5.80952
20
-8.01976
11
5.61905
21
-8.115
0
LINE
8
BLACK
6
CONTINUOUS
10
5.61905
20
-8.115
11
5.52381
21
-8.21024
0
LINE
8
BLACK
6
CONTINUOUS
10
5.52381
20
-8.21024
11
5.33333
21
-8.49595
0
LINE
8
BLACK
6
CONTINUOUS
10
5.33333
20
-8.49595
11
5.23809
21
-8.8769
0
LINE
8
BLACK
6
CONTINUOUS
10
5.23809
20
-8.8769
11
5.23809
21
-9.63881
0
LINE
8
BLACK
6
CONTINUOUS
10
5.23809
20
-9.63881
11
5.33333
21
-9.82928
0
LINE
8
BLACK
6
CONTINUOUS
10
5.33333
20
-9.82928
11
5.42857
21
-9.92452
0
LINE
8
BLACK
6
CONTINUOUS
10
5.42857
20
-9.92452
11
5.61905
21
-10.0198
0
LINE
8
BLACK
6
CONTINUOUS
10
5.61905
20
-10.0198
11
6
21
-10.0198
0
LINE
8
BLACK
6
CONTINUOUS
10
6
20
-10.0198
11
6.19048
21
-9.92452
0
LINE
8
BLACK
6
CONTINUOUS
10
6.19048
20
-9.92452
11
6.28571
21
-9.82928
0
LINE
8
BLACK
6
CONTINUOUS
10
6.28571
20
-9.82928
11
6.38095
21
-9.63881
0
LINE
8
BLACK
6
CONTINUOUS
10
6.38095
20
-9.63881
11
6.38095
21
-9.16262
0
LINE
8
BLACK
6
CONTINUOUS
10
6.38095
20
-9.16262
11
6.28571
21
-8.97214
0
LINE
8
BLACK
6
CONTINUOUS
10
6.28571
20
-8.97214
11
6.19048
21
-8.8769
0
LINE
8
BLACK
6
CONTINUOUS
10
6.19048
20
-8.8769
11
6
21
-8.78167
0
LINE
8
BLACK
6
CONTINUOUS
10
6
20
-8.78167
11
5.61905
21
-8.78167
0
LINE
8
BLACK
6
CONTINUOUS
10
5.61905
20
-8.78167
11
5.42857
21
-8.8769
0
LINE
8
BLACK
6
CONTINUOUS
10
5.42857
20
-8.8769
11
5.33333
21
-8.97214
0
LINE
8
BLACK
6
CONTINUOUS
10
5.33333
20
-8.97214
11
5.23809
21
-9.16262
0
LINE
8
BLACK
6
CONTINUOUS
10
7.61905
20
-8.01976
11
7.80952
21
-8.01976
0
LINE
8
BLACK
6
CONTINUOUS
10
7.80952
20
-8.01976
11
8
21
-8.115
0
LINE
8
BLACK
6
CONTINUOUS
10
8
20
-8.115
11
8.09524
21
-8.21024
0
LINE
8
BLACK
6
CONTINUOUS
10
8.09524
20
-8.21024
11
8.19048
21
-8.40071
0
LINE
8
BLACK
6
CONTINUOUS
10
8.19048
20
-8.40071
11
8.28571
21
-8.78167
0
LINE
8
BLACK
6
CONTINUOUS
10
8.28571
20
-8.78167
11
8.28571
21
-9.25786
0
LINE
8
BLACK
6
CONTINUOUS
10
8.28571
20
-9.25786
11
8.19048
21
-9.63881
0
LINE
8
BLACK
6
CONTINUOUS
10
8.19048
20
-9.63881
11
8.09524
21
-9.82928
0
LINE
8
BLACK
6
CONTINUOUS
10
8.09524
20
-9.82928
11
8
21
-9.92452
0
LINE
8
BLACK
6
CONTINUOUS
10
8
20
-9.92452
11
7.80952
21
-10.0198
0
LINE
8
BLACK
6
CONTINUOUS
10
7.80952
20
-10.0198
11
7.61905
21
-10.0198
0
LINE
8
BLACK
6
CONTINUOUS
10
7.61905
20
-10.0198
11
7.42857
21
-9.92452
0
LINE
8
BLACK
6
CONTINUOUS
10
7.42857
20
-9.92452
11
7.33333
21
-9.82928
0
LINE
8
BLACK
6
CONTINUOUS
10
7.33333
20
-9.82928
11
7.23809
21
-9.63881
0
LINE
8
BLACK
6
CONTINUOUS
10
7.23809
20
-9.63881
11
7.14286
21
-9.25786
0
LINE
8
BLACK
6
CONTINUOUS
10
7.14286
20
-9.25786
11
7.14286
21
-8.78167
0
LINE
8
BLACK
6
CONTINUOUS
10
7.14286
20
-8.78167
11
7.23809
21
-8.40071
0
LINE
8
BLACK
6
CONTINUOUS
10
7.23809
20
-8.40071
11
7.33333
21
-8.21024
0
LINE
8
BLACK
6
CONTINUOUS
10
7.33333
20
-8.21024
11
7.42857
21
-8.115
0
LINE
8
BLACK
6
CONTINUOUS
10
7.42857
20
-8.115
11
7.61905
21
-8.01976
0
LINE
8
BLACK
6
CONTINUOUS
10
9.52381
20
-8.01976
11
9.71429
21
-8.01976
0
LINE
8
BLACK
6
CONTINUOUS
10
9.71429
20
-8.01976
11
9.90476
21
-8.115
0
LINE
8
BLACK
6
CONTINUOUS
10
9.90476
20
-8.115
11
10
21
-8.21024
0
LINE
8
BLACK
6
CONTINUOUS
10
10
20
-8.21024
11
10.0952
21
-8.40071
0
LINE
8
BLACK
6
CONTINUOUS
10
10.0952
20
-8.40071
11
10.1905
21
-8.78167
0
LINE
8
BLACK
6
CONTINUOUS
10
10.1905
20
-8.78167
11
10.1905
21
-9.25786
0
LINE
8
BLACK
6
CONTINUOUS
10
10.1905
20
-9.25786
11
10.0952
21
-9.63881
0
LINE
8
BLACK
6
CONTINUOUS
10
10.0952
20
-9.63881
11
10
21
-9.82928
0
LINE
8
BLACK
6
CONTINUOUS
10
10
20
-9.82928
11
9.90476
21
-9.92452
0
LINE
8
BLACK
6
CONTINUOUS
10
9.90476
20
-9.92452
11
9.71429
21
-10.0198
0
LINE
8
BLACK
6
CONTINUOUS
10
9.71429
20
-10.0198
11
9.52381
21
-10.0198
0
LINE
8
BLACK
6
CONTINUOUS
10
9.52381
20
-10.0198
11
9.33333
21
-9.92452
0
LINE
8
BLACK
6
CONTINUOUS
10
9.33333
20
-9.92452
11
9.23809
21
-9.82928
0
LINE
8
BLACK
6
CONTINUOUS
10
9.23809
20
-9.82928
11
9.14286
21
-9.63881
0
LINE
8
BLACK
6
CONTINUOUS
10
9.14286
20
-9.63881
11
9.04762
21
-9.25786
0
LINE
8
BLACK
6
CONTINUOUS
10
9.04762
20
-9.25786
11
9.04762
21
-8.78167
0
LINE
8
BLACK
6
CONTINUOUS
10
9.04762
20
-8.78167
11
9.14286
21
-8.40071
0
LINE
8
BLACK
6
CONTINUOUS
10
9.14286
20
-8.40071
11
9.23809
21
-8.21024
0
LINE
8
BLACK
6
CONTINUOUS
10
9.23809
20
-8.21024
11
9.33333
21
-8.115
0
LINE
8
BLACK
6
CONTINUOUS
10
9.33333
20
-8.115
11
9.52381
21
-8.01976
0
LINE
8
BLACK
6
CONTINUOUS
10
11.0476
20
-10.0198
11
11.0476
21
-8.68643
0
LINE
8
BLACK
6
CONTINUOUS
10
11.0476
20
-8.8769
11
11.1429
21
-8.78167
0
LINE
8
BLACK
6
CONTINUOUS
10
11.1429
20
-8.78167
11
11.3333
21
-8.68643
0
LINE
8
BLACK
6
CONTINUOUS
10
11.3333
20
-8.68643
11
11.619
21
-8.68643
0
LINE
8
BLACK
6
CONTINUOUS
10
11.619
20
-8.68643
11
11.8095
21
-8.78167
0
LINE
8
BLACK
6
CONTINUOUS
10
11.8095
20
-8.78167
11
11.9048
21
-8.97214
0
LINE
8
BLACK
6
CONTINUOUS
10
11.9048
20
-8.97214
11
11.9048
21
-10.0198
0
LINE
8
BLACK
6
CONTINUOUS
10
11.9048
20
-8.97214
11
12
21
-8.78167
0
LINE
8
BLACK
6
CONTINUOUS
10
12
20
-8.78167
11
12.1905
21
-8.68643
0
LINE
8
BLACK
6
CONTINUOUS
10
12.1905
20
-8.68643
11
12.4762
21
-8.68643
0
LINE
8
BLACK
6
CONTINUOUS
10
12.4762
20
-8.68643
11
12.6667
21
-8.78167
0
LINE
8
BLACK
6
CONTINUOUS
10
12.6667
20
-8.78167
11
12.7619
21
-8.97214
0
LINE
8
BLACK
6
CONTINUOUS
10
12.7619
20
-8.97214
11
12.7619
21
-10.0198
0
LINE
8
BLACK
6
CONTINUOUS
10
13.7143
20
-10.0198
11
13.7143
21
-8.68643
0
LINE
8
BLACK
6
CONTINUOUS
10
13.7143
20
-8.8769
11
13.8095
21
-8.78167
0
LINE
8
BLACK
6
CONTINUOUS
10
13.8095
20
-8.78167
11
14
21
-8.68643
0
LINE
8
BLACK
6
CONTINUOUS
10
14
20
-8.68643
11
14.2857
21
-8.68643
0
LINE
8
BLACK
6
CONTINUOUS
10
14.2857
20
-8.68643
11
14.4762
21
-8.78167
0
LINE
8
BLACK
6
CONTINUOUS
10
14.4762
20
-8.78167
11
14.5714
21
-8.97214
0
LINE
8
BLACK
6
CONTINUOUS
10
14.5714
20
-8.97214
11
14.5714
21
-10.0198
0
LINE
8
BLACK
6
CONTINUOUS
10
14.5714
20
-8.97214
11
14.6667
21
-8.78167
0
LINE
8
BLACK
6
CONTINUOUS
10
14.6667
20
-8.78167
11
14.8571
21
-8.68643
0
LINE
8
BLACK
6
CONTINUOUS
10
14.8571
20
-8.68643
11
15.1429
21
-8.68643
0
LINE
8
BLACK
6
CONTINUOUS
10
15.1429
20
-8.68643
11
15.3333
21
-8.78167
0
LINE
8
BLACK
6
CONTINUOUS
10
15.3333
20
-8.78167
11
15.4286
21
-8.97214
0
LINE
8
BLACK
6
CONTINUOUS
10
15.4286
20
-8.97214
11
15.4286
21
-10.0198
0
LINE
8
BLACK
6
CONTINUOUS
10
19.3333
20
-7.92452
11
17.619
21
-10.496
0
LINE
8
BLACK
6
CONTINUOUS
10
21.9048
20
-8.01976
11
22.0952
21
-8.01976
0
LINE
8
BLACK
6
CONTINUOUS
10
22.0952
20
-8.01976
11
22.2857
21
-8.115
0
LINE
8
BLACK
6
CONTINUOUS
10
22.2857
20
-8.115
11
22.381
21
-8.21024
0
LINE
8
BLACK
6
CONTINUOUS
10
22.381
20
-8.21024
11
22.4762
21
-8.40071
0
LINE
8
BLACK
6
CONTINUOUS
10
22.4762
20
-8.40071
11
22.5714
21
-8.78167
0
LINE
8
BLACK
6
CONTINUOUS
10
22.5714
20
-8.78167
11
22.5714
21
-9.25786
0
LINE
8
BLACK
6
CONTINUOUS
10
22.5714
20
-9.25786
11
22.4762
21
-9.63881
0
LINE
8
BLACK
6
CONTINUOUS
10
22.4762
20
-9.63881
11
22.381
21
-9.82928
0
LINE
8
BLACK
6
CONTINUOUS
10
22.381
20
-9.82928
11
22.2857
21
-9.92452
0
LINE
8
BLACK
6
CONTINUOUS
10
22.2857
20
-9.92452
11
22.0952
21
-10.0198
0
LINE
8
BLACK
6
CONTINUOUS
10
22.0952
20
-10.0198
11
21.9048
21
-10.0198
0
LINE
8
BLACK
6
CONTINUOUS
10
21.9048
20
-10.0198
11
21.7143
21
-9.92452
0
LINE
8
BLACK
6
CONTINUOUS
10
21.7143
20
-9.92452
11
21.619
21
-9.82928
0
LINE
8
BLACK
6
CONTINUOUS
10
21.619
20
-9.82928
11
21.5238
21
-9.63881
0
LINE
8
BLACK
6
CONTINUOUS
10
21.5238
20
-9.63881
11
21.4286
21
-9.25786
0
LINE
8
BLACK
6
CONTINUOUS
10
21.4286
20
-9.25786
11
21.4286
21
-8.78167
0
LINE
8
BLACK
6
CONTINUOUS
10
21.4286
20
-8.78167
11
21.5238
21
-8.40071
0
LINE
8
BLACK
6
CONTINUOUS
10
21.5238
20
-8.40071
11
21.619
21
-8.21024
0
LINE
8
BLACK
6
CONTINUOUS
10
21.619
20
-8.21024
11
21.7143
21
-8.115
0
LINE
8
BLACK
6
CONTINUOUS
10
21.7143
20
-8.115
11
21.9048
21
-8.01976
0
LINE
8
BLACK
6
CONTINUOUS
10
23.4286
20
-9.82928
11
23.5238
21
-9.92452
0
LINE
8
BLACK
6
CONTINUOUS
10
23.5238
20
-9.92452
11
23.4286
21
-10.0198
0
LINE
8
BLACK
6
CONTINUOUS
10
23.4286
20
-10.0198
11
23.3333
21
-9.92452
0
LINE
8
BLACK
6
CONTINUOUS
10
23.3333
20
-9.92452
11
23.4286
21
-9.82928
0
LINE
8
BLACK
6
CONTINUOUS
10
23.4286
20
-9.82928
11
23.4286
21
-10.0198
0
LINE
8
BLACK
6
CONTINUOUS
10
25.4286
20
-10.0198
11
24.2857
21
-10.0198
0
LINE
8
BLACK
6
CONTINUOUS
10
24.8571
20
-10.0198
11
24.8571
21
-8.01976
0
LINE
8
BLACK
6
CONTINUOUS
10
24.8571
20
-8.01976
11
24.6667
21
-8.30548
0
LINE
8
BLACK
6
CONTINUOUS
10
24.6667
20
-8.30548
11
24.4762
21
-8.49595
0
LINE
8
BLACK
6
CONTINUOUS
10
24.4762
20
-8.49595
11
24.2857
21
-8.59119
0
LINE
8
BLACK
6
CONTINUOUS
10
26.6667
20
-8.01976
11
26.8571
21
-8.01976
0
LINE
8
BLACK
6
CONTINUOUS
10
26.8571
20
-8.01976
11
27.0476
21
-8.115
0
LINE
8
BLACK
6
CONTINUOUS
10
27.0476
20
-8.115
11
27.1429
21
-8.21024
0
LINE
8
BLACK
6
CONTINUOUS
10
27.1429
20
-8.21024
11
27.2381
21
-8.40071
0
LINE
8
BLACK
6
CONTINUOUS
10
27.2381
20
-8.40071
11
27.3333
21
-8.78167
0
LINE
8
BLACK
6
CONTINUOUS
10
27.3333
20
-8.78167
11
27.3333
21
-9.25786
0
LINE
8
BLACK
6
CONTINUOUS
10
27.3333
20
-9.25786
11
27.2381
21
-9.63881
0
LINE
8
BLACK
6
CONTINUOUS
10
27.2381
20
-9.63881
11
27.1429
21
-9.82928
0
LINE
8
BLACK
6
CONTINUOUS
10
27.1429
20
-9.82928
11
27.0476
21
-9.92452
0
LINE
8
BLACK
6
CONTINUOUS
10
27.0476
20
-9.92452
11
26.8571
21
-10.0198
0
LINE
8
BLACK
6
CONTINUOUS
10
26.8571
20
-10.0198
11
26.6667
21
-10.0198
0
LINE
8
BLACK
6
CONTINUOUS
10
26.6667
20
-10.0198
11
26.4762
21
-9.92452
0
LINE
8
BLACK
6
CONTINUOUS
10
26.4762
20
-9.92452
11
26.381
21
-9.82928
0
LINE
8
BLACK
6
CONTINUOUS
10
26.381
20
-9.82928
11
26.2857
21
-9.63881
0
LINE
8
BLACK
6
CONTINUOUS
10
26.2857
20
-9.63881
11
26.1905
21
-9.25786
0
LINE
8
BLACK
6
CONTINUOUS
10
26.1905
20
-9.25786
11
26.1905
21
-8.78167
0
LINE
8
BLACK
6
CONTINUOUS
10
26.1905
20
-8.78167
11
26.2857
21
-8.40071
0
LINE
8
BLACK
6
CONTINUOUS
10
26.2857
20
-8.40071
11
26.381
21
-8.21024
0
LINE
8
BLACK
6
CONTINUOUS
10
26.381
20
-8.21024
11
26.4762
21
-8.115
0
LINE
8
BLACK
6
CONTINUOUS
10
26.4762
20
-8.115
11
26.6667
21
-8.01976
0
LINE
8
BLACK
6
CONTINUOUS
10
28.0952
20
-8.21024
11
28.1905
21
-8.115
0
LINE
8
BLACK
6
CONTINUOUS
10
28.1905
20
-8.115
11
28.381
21
-8.01976
0
LINE
8
BLACK
6
CONTINUOUS
10
28.381
20
-8.01976
11
28.8571
21
-8.01976
0
LINE
8
BLACK
6
CONTINUOUS
10
28.8571
20
-8.01976
11
29.0476
21
-8.115
0
LINE
8
BLACK
6
CONTINUOUS
10
29.0476
20
-8.115
11
29.1429
21
-8.21024
0
LINE
8
BLACK
6
CONTINUOUS
10
29.1429
20
-8.21024
11
29.2381
21
-8.40071
0
LINE
8
BLACK
6
CONTINUOUS
10
29.2381
20
-8.40071
11
29.2381
21
-8.59119
0
LINE
8
BLACK
6
CONTINUOUS
10
29.2381
20
-8.59119
11
29.1429
21
-8.8769
0
LINE
8
BLACK
6
CONTINUOUS
10
29.1429
20
-8.8769
11
28
21
-10.0198
0
LINE
8
BLACK
6
CONTINUOUS
10
28
20
-10.0198
11
29.2381
21
-10.0198
0
LINE
8
BLACK
6
CONTINUOUS
10
30.9524
20
-8.68643
11
30.9524
21
-10.0198
0
LINE
8
BLACK
6
CONTINUOUS
10
30.4762
20
-7.92452
11
30
21
-9.35309
0
LINE
8
BLACK
6
CONTINUOUS
10
30
20
-9.35309
11
31.2381
21
-9.35309
0
LINE
8
BLACK
6
CONTINUOUS
10
31.9048
20
-8.01976
11
31.9048
21
-8.40071
0
LINE
8
BLACK
6
CONTINUOUS
10
32.6667
20
-8.01976
11
32.6667
21
-8.40071
0
LINE
8
BLACK
6
CONTINUOUS
10
35.619
20
-10.7817
11
35.5238
21
-10.6864
0
LINE
8
BLACK
6
CONTINUOUS
10
35.5238
20
-10.6864
11
35.3333
21
-10.4007
0
LINE
8
BLACK
6
CONTINUOUS
10
35.3333
20
-10.4007
11
35.2381
21
-10.2102
0
LINE
8
BLACK
6
CONTINUOUS
10
35.2381
20
-10.2102
11
35.1429
21
-9.92452
0
LINE
8
BLACK
6
CONTINUOUS
10
35.1429
20
-9.92452
11
35.0476
21
-9.44833
0
LINE
8
BLACK
6
CONTINUOUS
10
35.0476
20
-9.44833
11
35.0476
21
-9.06738
0
LINE
8
BLACK
6
CONTINUOUS
10
35.0476
20
-9.06738
11
35.1429
21
-8.59119
0
LINE
8
BLACK
6
CONTINUOUS
10
35.1429
20
-8.59119
11
35.2381
21
-8.30548
0
LINE
8
BLACK
6
CONTINUOUS
10
35.2381
20
-8.30548
11
35.3333
21
-8.115
0
LINE
8
BLACK
6
CONTINUOUS
10
35.3333
20
-8.115
11
35.5238
21
-7.82928
0
LINE
8
BLACK
6
CONTINUOUS
10
35.5238
20
-7.82928
11
35.619
21
-7.73405
0
LINE
8
BLACK
6
CONTINUOUS
10
36.1905
20
-8.01976
11
37.4286
21
-8.01976
0
LINE
8
BLACK
6
CONTINUOUS
10
37.4286
20
-8.01976
11
36.7619
21
-8.78167
0
LINE
8
BLACK
6
CONTINUOUS
10
36.7619
20
-8.78167
11
37.0476
21
-8.78167
0
LINE
8
BLACK
6
CONTINUOUS
10
37.0476
20
-8.78167
11
37.2381
21
-8.8769
0
LINE
8
BLACK
6
CONTINUOUS
10
37.2381
20
-8.8769
11
37.3333
21
-8.97214
0
LINE
8
BLACK
6
CONTINUOUS
10
37.3333
20
-8.97214
11
37.4286
21
-9.16262
0
LINE
8
BLACK
6
CONTINUOUS
10
37.4286
20
-9.16262
11
37.4286
21
-9.63881
0
LINE
8
BLACK
6
CONTINUOUS
10
37.4286
20
-9.63881
11
37.3333
21
-9.82928
0
LINE
8
BLACK
6
CONTINUOUS
10
37.3333
20
-9.82928
11
37.2381
21
-9.92452
0
LINE
8
BLACK
6
CONTINUOUS
10
37.2381
20
-9.92452
11
37.0476
21
-10.0198
0
LINE
8
BLACK
6
CONTINUOUS
10
37.0476
20
-10.0198
11
36.4762
21
-10.0198
0
LINE
8
BLACK
6
CONTINUOUS
10
36.4762
20
-10.0198
11
36.2857
21
-9.92452
0
LINE
8
BLACK
6
CONTINUOUS
10
36.2857
20
-9.92452
11
36.1905
21
-9.82928
0
LINE
8
BLACK
6
CONTINUOUS
10
39.8095
20
-10.0198
11
39.8095
21
-8.01976
0
LINE
8
BLACK
6
CONTINUOUS
10
40.6667
20
-10.0198
11
40.6667
21
-8.97214
0
LINE
8
BLACK
6
CONTINUOUS
10
40.6667
20
-8.97214
11
40.5714
21
-8.78167
0
LINE
8
BLACK
6
CONTINUOUS
10
40.5714
20
-8.78167
11
40.381
21
-8.68643
0
LINE
8
BLACK
6
CONTINUOUS
10
40.381
20
-8.68643
11
40.0952
21
-8.68643
0
LINE
8
BLACK
6
CONTINUOUS
10
40.0952
20
-8.68643
11
39.9048
21
-8.78167
0
LINE
8
BLACK
6
CONTINUOUS
10
39.9048
20
-8.78167
11
39.8095
21
-8.8769
0
LINE
8
BLACK
6
CONTINUOUS
10
41.9048
20
-10.0198
11
41.7143
21
-9.92452
0
LINE
8
BLACK
6
CONTINUOUS
10
41.7143
20
-9.92452
11
41.619
21
-9.82928
0
LINE
8
BLACK
6
CONTINUOUS
10
41.619
20
-9.82928
11
41.5238
21
-9.63881
0
LINE
8
BLACK
6
CONTINUOUS
10
41.5238
20
-9.63881
11
41.5238
21
-9.06738
0
LINE
8
BLACK
6
CONTINUOUS
10
41.5238
20
-9.06738
11
41.619
21
-8.8769
0
LINE
8
BLACK
6
CONTINUOUS
10
41.619
20
-8.8769
11
41.7143
21
-8.78167
0
LINE
8
BLACK
6
CONTINUOUS
10
41.7143
20
-8.78167
11
41.9048
21
-8.68643
0
LINE
8
BLACK
6
CONTINUOUS
10
41.9048
20
-8.68643
11
42.1905
21
-8.68643
0
LINE
8
BLACK
6
CONTINUOUS
10
42.1905
20
-8.68643
11
42.381
21
-8.78167
0
LINE
8
BLACK
6
CONTINUOUS
10
42.381
20
-8.78167
11
42.4762
21
-8.8769
0
LINE
8
BLACK
6
CONTINUOUS
10
42.4762
20
-8.8769
11
42.5714
21
-9.06738
0
LINE
8
BLACK
6
CONTINUOUS
10
42.5714
20
-9.06738
11
42.5714
21
-9.63881
0
LINE
8
BLACK
6
CONTINUOUS
10
42.5714
20
-9.63881
11
42.4762
21
-9.82928
0
LINE
8
BLACK
6
CONTINUOUS
10
42.4762
20
-9.82928
11
42.381
21
-9.92452
0
LINE
8
BLACK
6
CONTINUOUS
10
42.381
20
-9.92452
11
42.1905
21
-10.0198
0
LINE
8
BLACK
6
CONTINUOUS
10
42.1905
20
-10.0198
11
41.9048
21
-10.0198
0
LINE
8
BLACK
6
CONTINUOUS
10
43.7143
20
-10.0198
11
43.5238
21
-9.92452
0
LINE
8
BLACK
6
CONTINUOUS
10
43.5238
20
-9.92452
11
43.4286
21
-9.73405
0
LINE
8
BLACK
6
CONTINUOUS
10
43.4286
20
-9.73405
11
43.4286
21
-8.01976
0
LINE
8
BLACK
6
CONTINUOUS
10
45.2381
20
-9.92452
11
45.0476
21
-10.0198
0
LINE
8
BLACK
6
CONTINUOUS
10
45.0476
20
-10.0198
11
44.6667
21
-10.0198
0
LINE
8
BLACK
6
CONTINUOUS
10
44.6667
20
-10.0198
11
44.4762
21
-9.92452
0
LINE
8
BLACK
6
CONTINUOUS
10
44.4762
20
-9.92452
11
44.381
21
-9.73405
0
LINE
8
BLACK
6
CONTINUOUS
10
44.381
20
-9.73405
11
44.381
21
-8.97214
0
LINE
8
BLACK
6
CONTINUOUS
10
44.381
20
-8.97214
11
44.4762
21
-8.78167
0
LINE
8
BLACK
6
CONTINUOUS
10
44.4762
20
-8.78167
11
44.6667
21
-8.68643
0
LINE
8
BLACK
6
CONTINUOUS
10
44.6667
20
-8.68643
11
45.0476
21
-8.68643
0
LINE
8
BLACK
6
CONTINUOUS
10
45.0476
20
-8.68643
11
45.2381
21
-8.78167
0
LINE
8
BLACK
6
CONTINUOUS
10
45.2381
20
-8.78167
11
45.3333
21
-8.97214
0
LINE
8
BLACK
6
CONTINUOUS
10
45.3333
20
-8.97214
11
45.3333
21
-9.16262
0
LINE
8
BLACK
6
CONTINUOUS
10
45.3333
20
-9.16262
11
44.381
21
-9.35309
0
LINE
8
BLACK
6
CONTINUOUS
10
46.0952
20
-9.92452
11
46.2857
21
-10.0198
0
LINE
8
BLACK
6
CONTINUOUS
10
46.2857
20
-10.0198
11
46.6667
21
-10.0198
0
LINE
8
BLACK
6
CONTINUOUS
10
46.6667
20
-10.0198
11
46.8571
21
-9.92452
0
LINE
8
BLACK
6
CONTINUOUS
10
46.8571
20
-9.92452
11
46.9524
21
-9.73405
0
LINE
8
BLACK
6
CONTINUOUS
10
46.9524
20
-9.73405
11
46.9524
21
-9.63881
0
LINE
8
BLACK
6
CONTINUOUS
10
46.9524
20
-9.63881
11
46.8571
21
-9.44833
0
LINE
8
BLACK
6
CONTINUOUS
10
46.8571
20
-9.44833
11
46.6667
21
-9.35309
0
LINE
8
BLACK
6
CONTINUOUS
10
46.6667
20
-9.35309
11
46.381
21
-9.35309
0
LINE
8
BLACK
6
CONTINUOUS
10
46.381
20
-9.35309
11
46.1905
21
-9.25786
0
LINE
8
BLACK
6
CONTINUOUS
10
46.1905
20
-9.25786
11
46.0952
21
-9.06738
0
LINE
8
BLACK
6
CONTINUOUS
10
46.0952
20
-9.06738
11
46.0952
21
-8.97214
0
LINE
8
BLACK
6
CONTINUOUS
10
46.0952
20
-8.97214
11
46.1905
21
-8.78167
0
LINE
8
BLACK
6
CONTINUOUS
10
46.1905
20
-8.78167
11
46.381
21
-8.68643
0
LINE
8
BLACK
6
CONTINUOUS
10
46.381
20
-8.68643
11
46.6667
21
-8.68643
0
LINE
8
BLACK
6
CONTINUOUS
10
46.6667
20
-8.68643
11
46.8571
21
-8.78167
0
LINE
8
BLACK
6
CONTINUOUS
10
47.619
20
-10.7817
11
47.7143
21
-10.6864
0
LINE
8
BLACK
6
CONTINUOUS
10
47.7143
20
-10.6864
11
47.9048
21
-10.4007
0
LINE
8
BLACK
6
CONTINUOUS
10
47.9048
20
-10.4007
11
48
21
-10.2102
0
LINE
8
BLACK
6
CONTINUOUS
10
48
20
-10.2102
11
48.0952
21
-9.92452
0
LINE
8
BLACK
6
CONTINUOUS
10
48.0952
20
-9.92452
11
48.1905
21
-9.44833
0
LINE
8
BLACK
6
CONTINUOUS
10
48.1905
20
-9.44833
11
48.1905
21
-9.06738
0
LINE
8
BLACK
6
CONTINUOUS
10
48.1905
20
-9.06738
11
48.0952
21
-8.59119
0
LINE
8
BLACK
6
CONTINUOUS
10
48.0952
20
-8.59119
11
48
21
-8.30548
0
LINE
8
BLACK
6
CONTINUOUS
10
48
20
-8.30548
11
47.9048
21
-8.115
0
LINE
8
BLACK
6
CONTINUOUS
10
47.9048
20
-8.115
11
47.7143
21
-7.82928
0
LINE
8
BLACK
6
CONTINUOUS
10
47.7143
20
-7.82928
11
47.619
21
-7.73405
0
LINE
8
BLACK
6
CONTINUOUS
10
51.2381
20
-10.7817
11
51.1429
21
-10.6864
0
LINE
8
BLACK
6
CONTINUOUS
10
51.1429
20
-10.6864
11
50.9524
21
-10.4007
0
LINE
8
BLACK
6
CONTINUOUS
10
50.9524
20
-10.4007
11
50.8571
21
-10.2102
0
LINE
8
BLACK
6
CONTINUOUS
10
50.8571
20
-10.2102
11
50.7619
21
-9.92452
0
LINE
8
BLACK
6
CONTINUOUS
10
50.7619
20
-9.92452
11
50.6667
21
-9.44833
0
LINE
8
BLACK
6
CONTINUOUS
10
50.6667
20
-9.44833
11
50.6667
21
-9.06738
0
LINE
8
BLACK
6
CONTINUOUS
10
50.6667
20
-9.06738
11
50.7619
21
-8.59119
0
LINE
8
BLACK
6
CONTINUOUS
10
50.7619
20
-8.59119
11
50.8571
21
-8.30548
0
LINE
8
BLACK
6
CONTINUOUS
10
50.8571
20
-8.30548
11
50.9524
21
-8.115
0
LINE
8
BLACK
6
CONTINUOUS
10
50.9524
20
-8.115
11
51.1429
21
-7.82928
0
LINE
8
BLACK
6
CONTINUOUS
10
51.1429
20
-7.82928
11
51.2381
21
-7.73405
0
LINE
8
BLACK
6
CONTINUOUS
10
52
20
-8.68643
11
52
21
-10.0198
0
LINE
8
BLACK
6
CONTINUOUS
10
52
20
-8.8769
11
52.0952
21
-8.78167
0
LINE
8
BLACK
6
CONTINUOUS
10
52.0952
20
-8.78167
11
52.2857
21
-8.68643
0
LINE
8
BLACK
6
CONTINUOUS
10
52.2857
20
-8.68643
11
52.5714
21
-8.68643
0
LINE
8
BLACK
6
CONTINUOUS
10
52.5714
20
-8.68643
11
52.7619
21
-8.78167
0
LINE
8
BLACK
6
CONTINUOUS
10
52.7619
20
-8.78167
11
52.8571
21
-8.97214
0
LINE
8
BLACK
6
CONTINUOUS
10
52.8571
20
-8.97214
11
52.8571
21
-10.0198
0
LINE
8
BLACK
6
CONTINUOUS
10
54.0952
20
-10.0198
11
53.9048
21
-9.92452
0
LINE
8
BLACK
6
CONTINUOUS
10
53.9048
20
-9.92452
11
53.8095
21
-9.82928
0
LINE
8
BLACK
6
CONTINUOUS
10
53.8095
20
-9.82928
11
53.7143
21
-9.63881
0
LINE
8
BLACK
6
CONTINUOUS
10
53.7143
20
-9.63881
11
53.7143
21
-9.06738
0
LINE
8
BLACK
6
CONTINUOUS
10
53.7143
20
-9.06738
11
53.8095
21
-8.8769
0
LINE
8
BLACK
6
CONTINUOUS
10
53.8095
20
-8.8769
11
53.9048
21
-8.78167
0
LINE
8
BLACK
6
CONTINUOUS
10
53.9048
20
-8.78167
11
54.0952
21
-8.68643
0
LINE
8
BLACK
6
CONTINUOUS
10
54.0952
20
-8.68643
11
54.381
21
-8.68643
0
LINE
8
BLACK
6
CONTINUOUS
10
54.381
20
-8.68643
11
54.5714
21
-8.78167
0
LINE
8
BLACK
6
CONTINUOUS
10
54.5714
20
-8.78167
11
54.6667
21
-8.8769
0
LINE
8
BLACK
6
CONTINUOUS
10
54.6667
20
-8.8769
11
54.7619
21
-9.06738
0
LINE
8
BLACK
6
CONTINUOUS
10
54.7619
20
-9.06738
11
54.7619
21
-9.63881
0
LINE
8
BLACK
6
CONTINUOUS
10
54.7619
20
-9.63881
11
54.6667
21
-9.82928
0
LINE
8
BLACK
6
CONTINUOUS
10
54.6667
20
-9.82928
11
54.5714
21
-9.92452
0
LINE
8
BLACK
6
CONTINUOUS
10
54.5714
20
-9.92452
11
54.381
21
-10.0198
0
LINE
8
BLACK
6
CONTINUOUS
10
54.381
20
-10.0198
11
54.0952
21
-10.0198
0
LINE
8
BLACK
6
CONTINUOUS
10
55.3333
20
-8.68643
11
56.0952
21
-8.68643
0
LINE
8
BLACK
6
CONTINUOUS
10
55.619
20
-8.01976
11
55.619
21
-9.73405
0
LINE
8
BLACK
6
CONTINUOUS
10
55.619
20
-9.73405
11
55.7143
21
-9.92452
0
LINE
8
BLACK
6
CONTINUOUS
10
55.7143
20
-9.92452
11
55.9048
21
-10.0198
0
LINE
8
BLACK
6
CONTINUOUS
10
55.9048
20
-10.0198
11
56.0952
21
-10.0198
0
LINE
8
BLACK
6
CONTINUOUS
10
58.2857
20
-8.68643
11
58.2857
21
-10.6864
0
LINE
8
BLACK
6
CONTINUOUS
10
58.2857
20
-8.78167
11
58.4762
21
-8.68643
0
LINE
8
BLACK
6
CONTINUOUS
10
58.4762
20
-8.68643
11
58.8571
21
-8.68643
0
LINE
8
BLACK
6
CONTINUOUS
10
58.8571
20
-8.68643
11
59.0476
21
-8.78167
0
LINE
8
BLACK
6
CONTINUOUS
10
59.0476
20
-8.78167
11
59.1429
21
-8.8769
0
LINE
8
BLACK
6
CONTINUOUS
10
59.1429
20
-8.8769
11
59.2381
21
-9.06738
0
LINE
8
BLACK
6
CONTINUOUS
10
59.2381
20
-9.06738
11
59.2381
21
-9.63881
0
LINE
8
BLACK
6
CONTINUOUS
10
59.2381
20
-9.63881
11
59.1429
21
-9.82928
0
LINE
8
BLACK
6
CONTINUOUS
10
59.1429
20
-9.82928
11
59.0476
21
-9.92452
0
LINE
8
BLACK
6
CONTINUOUS
10
59.0476
20
-9.92452
11
58.8571
21
-10.0198
0
LINE
8
BLACK
6
CONTINUOUS
10
58.8571
20
-10.0198
11
58.4762
21
-10.0198
0
LINE
8
BLACK
6
CONTINUOUS
10
58.4762
20
-10.0198
11
58.2857
21
-9.92452
0
LINE
8
BLACK
6
CONTINUOUS
10
60.381
20
-10.0198
11
60.1905
21
-9.92452
0
LINE
8
BLACK
6
CONTINUOUS
10
60.1905
20
-9.92452
11
60.0952
21
-9.73405
0
LINE
8
BLACK
6
CONTINUOUS
10
60.0952
20
-9.73405
11
60.0952
21
-8.01976
0
LINE
8
BLACK
6
CONTINUOUS
10
62
20
-10.0198
11
62
21
-8.97214
0
LINE
8
BLACK
6
CONTINUOUS
10
62
20
-8.97214
11
61.9048
21
-8.78167
0
LINE
8
BLACK
6
CONTINUOUS
10
61.9048
20
-8.78167
11
61.7143
21
-8.68643
0
LINE
8
BLACK
6
CONTINUOUS
10
61.7143
20
-8.68643
11
61.3333
21
-8.68643
0
LINE
8
BLACK
6
CONTINUOUS
10
61.3333
20
-8.68643
11
61.1429
21
-8.78167
0
LINE
8
BLACK
6
CONTINUOUS
10
62
20
-9.92452
11
61.8095
21
-10.0198
0
LINE
8
BLACK
6
CONTINUOUS
10
61.8095
20
-10.0198
11
61.3333
21
-10.0198
0
LINE
8
BLACK
6
CONTINUOUS
10
61.3333
20
-10.0198
11
61.1429
21
-9.92452
0
LINE
8
BLACK
6
CONTINUOUS
10
61.1429
20
-9.92452
11
61.0476
21
-9.73405
0
LINE
8
BLACK
6
CONTINUOUS
10
61.0476
20
-9.73405
11
61.0476
21
-9.54357
0
LINE
8
BLACK
6
CONTINUOUS
10
61.0476
20
-9.54357
11
61.1429
21
-9.35309
0
LINE
8
BLACK
6
CONTINUOUS
10
61.1429
20
-9.35309
11
61.3333
21
-9.25786
0
LINE
8
BLACK
6
CONTINUOUS
10
61.3333
20
-9.25786
11
61.8095
21
-9.25786
0
LINE
8
BLACK
6
CONTINUOUS
10
61.8095
20
-9.25786
11
62
21
-9.16262
0
LINE
8
BLACK
6
CONTINUOUS
10
62.6667
20
-8.68643
11
63.4286
21
-8.68643
0
LINE
8
BLACK
6
CONTINUOUS
10
62.9524
20
-8.01976
11
62.9524
21
-9.73405
0
LINE
8
BLACK
6
CONTINUOUS
10
62.9524
20
-9.73405
11
63.0476
21
-9.92452
0
LINE
8
BLACK
6
CONTINUOUS
10
63.0476
20
-9.92452
11
63.2381
21
-10.0198
0
LINE
8
BLACK
6
CONTINUOUS
10
63.2381
20
-10.0198
11
63.4286
21
-10.0198
0
LINE
8
BLACK
6
CONTINUOUS
10
64.8571
20
-9.92452
11
64.6667
21
-10.0198
0
LINE
8
BLACK
6
CONTINUOUS
10
64.6667
20
-10.0198
11
64.2857
21
-10.0198
0
LINE
8
BLACK
6
CONTINUOUS
10
64.2857
20
-10.0198
11
64.0952
21
-9.92452
0
LINE
8
BLACK
6
CONTINUOUS
10
64.0952
20
-9.92452
11
64
21
-9.73405
0
LINE
8
BLACK
6
CONTINUOUS
10
64
20
-9.73405
11
64
21
-8.97214
0
LINE
8
BLACK
6
CONTINUOUS
10
64
20
-8.97214
11
64.0952
21
-8.78167
0
LINE
8
BLACK
6
CONTINUOUS
10
64.0952
20
-8.78167
11
64.2857
21
-8.68643
0
LINE
8
BLACK
6
CONTINUOUS
10
64.2857
20
-8.68643
11
64.6667
21
-8.68643
0
LINE
8
BLACK
6
CONTINUOUS
10
64.6667
20
-8.68643
11
64.8571
21
-8.78167
0
LINE
8
BLACK
6
CONTINUOUS
10
64.8571
20
-8.78167
11
64.9524
21
-8.97214
0
LINE
8
BLACK
6
CONTINUOUS
10
64.9524
20
-8.97214
11
64.9524
21
-9.16262
0
LINE
8
BLACK
6
CONTINUOUS
10
64.9524
20
-9.16262
11
64
21
-9.35309
0
LINE
8
BLACK
6
CONTINUOUS
10
66.6667
20
-10.0198
11
66.6667
21
-8.01976
0
LINE
8
BLACK
6
CONTINUOUS
10
66.6667
20
-9.92452
11
66.4762
21
-10.0198
0
LINE
8
BLACK
6
CONTINUOUS
10
66.4762
20
-10.0198
11
66.0952
21
-10.0198
0
LINE
8
BLACK
6
CONTINUOUS
10
66.0952
20
-10.0198
11
65.9048
21
-9.92452
0
LINE
8
BLACK
6
CONTINUOUS
10
65.9048
20
-9.92452
11
65.8095
21
-9.82928
0
LINE
8
BLACK
6
CONTINUOUS
10
65.8095
20
-9.82928
11
65.7143
21
-9.63881
0
LINE
8
BLACK
6
CONTINUOUS
10
65.7143
20
-9.63881
11
65.7143
21
-9.06738
0
LINE
8
BLACK
6
CONTINUOUS
10
65.7143
20
-9.06738
11
65.8095
21
-8.8769
0
LINE
8
BLACK
6
CONTINUOUS
10
65.8095
20
-8.8769
11
65.9048
21
-8.78167
0
LINE
8
BLACK
6
CONTINUOUS
10
65.9048
20
-8.78167
11
66.0952
21
-8.68643
0
LINE
8
BLACK
6
CONTINUOUS
10
66.0952
20
-8.68643
11
66.4762
21
-8.68643
0
LINE
8
BLACK
6
CONTINUOUS
10
66.4762
20
-8.68643
11
66.6667
21
-8.78167
0
LINE
8
BLACK
6
CONTINUOUS
10
67.4286
20
-10.7817
11
67.5238
21
-10.6864
0
LINE
8
BLACK
6
CONTINUOUS
10
67.5238
20
-10.6864
11
67.7143
21
-10.4007
0
LINE
8
BLACK
6
CONTINUOUS
10
67.7143
20
-10.4007
11
67.8095
21
-10.2102
0
LINE
8
BLACK
6
CONTINUOUS
10
67.8095
20
-10.2102
11
67.9048
21
-9.92452
0
LINE
8
BLACK
6
CONTINUOUS
10
67.9048
20
-9.92452
11
68
21
-9.44833
0
LINE
8
BLACK
6
CONTINUOUS
10
68
20
-9.44833
11
68
21
-9.06738
0
LINE
8
BLACK
6
CONTINUOUS
10
68
20
-9.06738
11
67.9048
21
-8.59119
0
LINE
8
BLACK
6
CONTINUOUS
10
67.9048
20
-8.59119
11
67.8095
21
-8.30548
0
LINE
8
BLACK
6
CONTINUOUS
10
67.8095
20
-8.30548
11
67.7143
21
-8.115
0
LINE
8
BLACK
6
CONTINUOUS
10
67.7143
20
-8.115
11
67.5238
21
-7.82928
0
LINE
8
BLACK
6
CONTINUOUS
10
67.5238
20
-7.82928
11
67.4286
21
-7.73405
  0
ENDSEC
  0
EOF
