%TF.GenerationSoftware,KiCad,Pcbnew,(6.0.4)*%
%TF.CreationDate,2023-10-13T17:32:42+02:00*%
%TF.ProjectId,swmeter,73776d65-7465-4722-9e6b-696361645f70,0.6*%
%TF.SameCoordinates,PXc773920PY8f69de0*%
%TF.FileFunction,Component,L2,Bot*%
%TF.FilePolarity,Positive*%
%FSLAX46Y46*%
G04 Gerber Fmt 4.6, Leading zero omitted, Abs format (unit mm)*
G04 Created by KiCad (PCBNEW (6.0.4)) date 2023-10-13 17:32:42*
%MOMM*%
%LPD*%
G01*
G04 APERTURE LIST*
%TA.AperFunction,Profile*%
%ADD10C,0.100000*%
%TD*%
G04 APERTURE END LIST*
D10*
X25118000Y33674000D02*
G75*
G03*
X23918000Y33674000I-600000J0D01*
G01*
X52970000Y65990000D02*
X-10000Y65990000D01*
X-10000Y65990000D02*
X-10000Y10000D01*
X-10000Y10000D02*
X52970000Y10000D01*
X52970000Y10000D02*
X52970000Y65990000D01*
X23918000Y31874000D02*
G75*
G03*
X25118000Y31874000I600000J0D01*
G01*
X23918000Y33674000D02*
X23918000Y31874000D01*
X25118000Y33674000D02*
X25118000Y31874000D01*
X54636666Y10000D02*
G75*
G03*
X54636666Y10000I-1666666J0D01*
G01*
X50470000Y10000D02*
X55470000Y10000D01*
X52970000Y2510000D02*
X52970000Y-2490000D01*
X1666666Y0D02*
G75*
G03*
X1666666Y0I-1666666J0D01*
G01*
X-2500000Y0D02*
X2500000Y0D01*
X0Y2500000D02*
X0Y-2500000D01*
X1646666Y65980000D02*
G75*
G03*
X1646666Y65980000I-1666666J0D01*
G01*
X-2520000Y65980000D02*
X2480000Y65980000D01*
X-20000Y68480000D02*
X-20000Y63480000D01*
X54636666Y65990000D02*
G75*
G03*
X54636666Y65990000I-1666666J0D01*
G01*
X50470000Y65990000D02*
X55470000Y65990000D01*
X52970000Y68490000D02*
X52970000Y63490000D01*
M02*
