%TF.GenerationSoftware,KiCad,Pcbnew,(6.0.4)*%
%TF.CreationDate,2023-10-22T18:39:05+02:00*%
%TF.ProjectId,swmeter,73776d65-7465-4722-9e6b-696361645f70,0.6*%
%TF.SameCoordinates,Original*%
%TF.FileFunction,OtherDrawing,Comment*%
%FSLAX46Y46*%
G04 Gerber Fmt 4.6, Leading zero omitted, Abs format (unit mm)*
G04 Created by KiCad (PCBNEW (6.0.4)) date 2023-10-22 18:39:05*
%MOMM*%
%LPD*%
G01*
G04 APERTURE LIST*
%ADD10C,0.100000*%
%ADD11C,0.150000*%
%ADD12C,0.300000*%
%ADD13C,0.400000*%
%TA.AperFunction,Profile*%
%ADD14C,0.100000*%
%TD*%
%ADD15C,0.200000*%
G04 APERTURE END LIST*
D10*
D11*
X177002200Y-166007200D02*
X177002200Y-198007200D01*
X285002200Y-198007200D01*
X285002200Y-166007200D01*
X177002200Y-166007200D01*
D10*
D11*
X10000000Y-10000000D02*
X10000000Y-200007200D01*
X287002200Y-200007200D01*
X287002200Y-10000000D01*
X10000000Y-10000000D01*
D10*
D11*
X12000000Y-12000000D02*
X12000000Y-198007200D01*
X285002200Y-198007200D01*
X285002200Y-12000000D01*
X12000000Y-12000000D01*
D10*
D11*
X60000000Y-12000000D02*
X60000000Y-10000000D01*
D10*
D11*
X110000000Y-12000000D02*
X110000000Y-10000000D01*
D10*
D11*
X160000000Y-12000000D02*
X160000000Y-10000000D01*
D10*
D11*
X210000000Y-12000000D02*
X210000000Y-10000000D01*
D10*
D11*
X260000000Y-12000000D02*
X260000000Y-10000000D01*
D10*
D11*
X36065476Y-11588095D02*
X35322619Y-11588095D01*
X35694047Y-11588095D02*
X35694047Y-10288095D01*
X35570238Y-10473809D01*
X35446428Y-10597619D01*
X35322619Y-10659523D01*
D10*
D11*
X85322619Y-10411904D02*
X85384523Y-10350000D01*
X85508333Y-10288095D01*
X85817857Y-10288095D01*
X85941666Y-10350000D01*
X86003571Y-10411904D01*
X86065476Y-10535714D01*
X86065476Y-10659523D01*
X86003571Y-10845238D01*
X85260714Y-11588095D01*
X86065476Y-11588095D01*
D10*
D11*
X135260714Y-10288095D02*
X136065476Y-10288095D01*
X135632142Y-10783333D01*
X135817857Y-10783333D01*
X135941666Y-10845238D01*
X136003571Y-10907142D01*
X136065476Y-11030952D01*
X136065476Y-11340476D01*
X136003571Y-11464285D01*
X135941666Y-11526190D01*
X135817857Y-11588095D01*
X135446428Y-11588095D01*
X135322619Y-11526190D01*
X135260714Y-11464285D01*
D10*
D11*
X185941666Y-10721428D02*
X185941666Y-11588095D01*
X185632142Y-10226190D02*
X185322619Y-11154761D01*
X186127380Y-11154761D01*
D10*
D11*
X236003571Y-10288095D02*
X235384523Y-10288095D01*
X235322619Y-10907142D01*
X235384523Y-10845238D01*
X235508333Y-10783333D01*
X235817857Y-10783333D01*
X235941666Y-10845238D01*
X236003571Y-10907142D01*
X236065476Y-11030952D01*
X236065476Y-11340476D01*
X236003571Y-11464285D01*
X235941666Y-11526190D01*
X235817857Y-11588095D01*
X235508333Y-11588095D01*
X235384523Y-11526190D01*
X235322619Y-11464285D01*
D10*
D11*
X285941666Y-10288095D02*
X285694047Y-10288095D01*
X285570238Y-10350000D01*
X285508333Y-10411904D01*
X285384523Y-10597619D01*
X285322619Y-10845238D01*
X285322619Y-11340476D01*
X285384523Y-11464285D01*
X285446428Y-11526190D01*
X285570238Y-11588095D01*
X285817857Y-11588095D01*
X285941666Y-11526190D01*
X286003571Y-11464285D01*
X286065476Y-11340476D01*
X286065476Y-11030952D01*
X286003571Y-10907142D01*
X285941666Y-10845238D01*
X285817857Y-10783333D01*
X285570238Y-10783333D01*
X285446428Y-10845238D01*
X285384523Y-10907142D01*
X285322619Y-11030952D01*
D10*
D11*
X60000000Y-198007200D02*
X60000000Y-200007200D01*
D10*
D11*
X110000000Y-198007200D02*
X110000000Y-200007200D01*
D10*
D11*
X160000000Y-198007200D02*
X160000000Y-200007200D01*
D10*
D11*
X210000000Y-198007200D02*
X210000000Y-200007200D01*
D10*
D11*
X260000000Y-198007200D02*
X260000000Y-200007200D01*
D10*
D11*
X36065476Y-199595295D02*
X35322619Y-199595295D01*
X35694047Y-199595295D02*
X35694047Y-198295295D01*
X35570238Y-198481009D01*
X35446428Y-198604819D01*
X35322619Y-198666723D01*
D10*
D11*
X85322619Y-198419104D02*
X85384523Y-198357200D01*
X85508333Y-198295295D01*
X85817857Y-198295295D01*
X85941666Y-198357200D01*
X86003571Y-198419104D01*
X86065476Y-198542914D01*
X86065476Y-198666723D01*
X86003571Y-198852438D01*
X85260714Y-199595295D01*
X86065476Y-199595295D01*
D10*
D11*
X135260714Y-198295295D02*
X136065476Y-198295295D01*
X135632142Y-198790533D01*
X135817857Y-198790533D01*
X135941666Y-198852438D01*
X136003571Y-198914342D01*
X136065476Y-199038152D01*
X136065476Y-199347676D01*
X136003571Y-199471485D01*
X135941666Y-199533390D01*
X135817857Y-199595295D01*
X135446428Y-199595295D01*
X135322619Y-199533390D01*
X135260714Y-199471485D01*
D10*
D11*
X185941666Y-198728628D02*
X185941666Y-199595295D01*
X185632142Y-198233390D02*
X185322619Y-199161961D01*
X186127380Y-199161961D01*
D10*
D11*
X236003571Y-198295295D02*
X235384523Y-198295295D01*
X235322619Y-198914342D01*
X235384523Y-198852438D01*
X235508333Y-198790533D01*
X235817857Y-198790533D01*
X235941666Y-198852438D01*
X236003571Y-198914342D01*
X236065476Y-199038152D01*
X236065476Y-199347676D01*
X236003571Y-199471485D01*
X235941666Y-199533390D01*
X235817857Y-199595295D01*
X235508333Y-199595295D01*
X235384523Y-199533390D01*
X235322619Y-199471485D01*
D10*
D11*
X285941666Y-198295295D02*
X285694047Y-198295295D01*
X285570238Y-198357200D01*
X285508333Y-198419104D01*
X285384523Y-198604819D01*
X285322619Y-198852438D01*
X285322619Y-199347676D01*
X285384523Y-199471485D01*
X285446428Y-199533390D01*
X285570238Y-199595295D01*
X285817857Y-199595295D01*
X285941666Y-199533390D01*
X286003571Y-199471485D01*
X286065476Y-199347676D01*
X286065476Y-199038152D01*
X286003571Y-198914342D01*
X285941666Y-198852438D01*
X285817857Y-198790533D01*
X285570238Y-198790533D01*
X285446428Y-198852438D01*
X285384523Y-198914342D01*
X285322619Y-199038152D01*
D10*
D11*
X10000000Y-60000000D02*
X12000000Y-60000000D01*
D10*
D11*
X10000000Y-110000000D02*
X12000000Y-110000000D01*
D10*
D11*
X10000000Y-160000000D02*
X12000000Y-160000000D01*
D10*
D11*
X10690476Y-35216666D02*
X11309523Y-35216666D01*
X10566666Y-35588095D02*
X11000000Y-34288095D01*
X11433333Y-35588095D01*
D10*
D11*
X11092857Y-84907142D02*
X11278571Y-84969047D01*
X11340476Y-85030952D01*
X11402380Y-85154761D01*
X11402380Y-85340476D01*
X11340476Y-85464285D01*
X11278571Y-85526190D01*
X11154761Y-85588095D01*
X10659523Y-85588095D01*
X10659523Y-84288095D01*
X11092857Y-84288095D01*
X11216666Y-84350000D01*
X11278571Y-84411904D01*
X11340476Y-84535714D01*
X11340476Y-84659523D01*
X11278571Y-84783333D01*
X11216666Y-84845238D01*
X11092857Y-84907142D01*
X10659523Y-84907142D01*
D10*
D11*
X11402380Y-135464285D02*
X11340476Y-135526190D01*
X11154761Y-135588095D01*
X11030952Y-135588095D01*
X10845238Y-135526190D01*
X10721428Y-135402380D01*
X10659523Y-135278571D01*
X10597619Y-135030952D01*
X10597619Y-134845238D01*
X10659523Y-134597619D01*
X10721428Y-134473809D01*
X10845238Y-134350000D01*
X11030952Y-134288095D01*
X11154761Y-134288095D01*
X11340476Y-134350000D01*
X11402380Y-134411904D01*
D10*
D11*
X10659523Y-185588095D02*
X10659523Y-184288095D01*
X10969047Y-184288095D01*
X11154761Y-184350000D01*
X11278571Y-184473809D01*
X11340476Y-184597619D01*
X11402380Y-184845238D01*
X11402380Y-185030952D01*
X11340476Y-185278571D01*
X11278571Y-185402380D01*
X11154761Y-185526190D01*
X10969047Y-185588095D01*
X10659523Y-185588095D01*
D10*
D11*
X287002200Y-60000000D02*
X285002200Y-60000000D01*
D10*
D11*
X287002200Y-110000000D02*
X285002200Y-110000000D01*
D10*
D11*
X287002200Y-160000000D02*
X285002200Y-160000000D01*
D10*
D11*
X285692676Y-35216666D02*
X286311723Y-35216666D01*
X285568866Y-35588095D02*
X286002200Y-34288095D01*
X286435533Y-35588095D01*
D10*
D11*
X286095057Y-84907142D02*
X286280771Y-84969047D01*
X286342676Y-85030952D01*
X286404580Y-85154761D01*
X286404580Y-85340476D01*
X286342676Y-85464285D01*
X286280771Y-85526190D01*
X286156961Y-85588095D01*
X285661723Y-85588095D01*
X285661723Y-84288095D01*
X286095057Y-84288095D01*
X286218866Y-84350000D01*
X286280771Y-84411904D01*
X286342676Y-84535714D01*
X286342676Y-84659523D01*
X286280771Y-84783333D01*
X286218866Y-84845238D01*
X286095057Y-84907142D01*
X285661723Y-84907142D01*
D10*
D11*
X286404580Y-135464285D02*
X286342676Y-135526190D01*
X286156961Y-135588095D01*
X286033152Y-135588095D01*
X285847438Y-135526190D01*
X285723628Y-135402380D01*
X285661723Y-135278571D01*
X285599819Y-135030952D01*
X285599819Y-134845238D01*
X285661723Y-134597619D01*
X285723628Y-134473809D01*
X285847438Y-134350000D01*
X286033152Y-134288095D01*
X286156961Y-134288095D01*
X286342676Y-134350000D01*
X286404580Y-134411904D01*
D10*
D11*
X285661723Y-185588095D02*
X285661723Y-184288095D01*
X285971247Y-184288095D01*
X286156961Y-184350000D01*
X286280771Y-184473809D01*
X286342676Y-184597619D01*
X286404580Y-184845238D01*
X286404580Y-185030952D01*
X286342676Y-185278571D01*
X286280771Y-185402380D01*
X286156961Y-185526190D01*
X285971247Y-185588095D01*
X285661723Y-185588095D01*
D10*
D11*
X200434342Y-193785771D02*
X200434342Y-192285771D01*
X200791485Y-192285771D01*
X201005771Y-192357200D01*
X201148628Y-192500057D01*
X201220057Y-192642914D01*
X201291485Y-192928628D01*
X201291485Y-193142914D01*
X201220057Y-193428628D01*
X201148628Y-193571485D01*
X201005771Y-193714342D01*
X200791485Y-193785771D01*
X200434342Y-193785771D01*
X202577200Y-193785771D02*
X202577200Y-193000057D01*
X202505771Y-192857200D01*
X202362914Y-192785771D01*
X202077200Y-192785771D01*
X201934342Y-192857200D01*
X202577200Y-193714342D02*
X202434342Y-193785771D01*
X202077200Y-193785771D01*
X201934342Y-193714342D01*
X201862914Y-193571485D01*
X201862914Y-193428628D01*
X201934342Y-193285771D01*
X202077200Y-193214342D01*
X202434342Y-193214342D01*
X202577200Y-193142914D01*
X203077200Y-192785771D02*
X203648628Y-192785771D01*
X203291485Y-192285771D02*
X203291485Y-193571485D01*
X203362914Y-193714342D01*
X203505771Y-193785771D01*
X203648628Y-193785771D01*
X204720057Y-193714342D02*
X204577200Y-193785771D01*
X204291485Y-193785771D01*
X204148628Y-193714342D01*
X204077200Y-193571485D01*
X204077200Y-193000057D01*
X204148628Y-192857200D01*
X204291485Y-192785771D01*
X204577200Y-192785771D01*
X204720057Y-192857200D01*
X204791485Y-193000057D01*
X204791485Y-193142914D01*
X204077200Y-193285771D01*
X205434342Y-193642914D02*
X205505771Y-193714342D01*
X205434342Y-193785771D01*
X205362914Y-193714342D01*
X205434342Y-193642914D01*
X205434342Y-193785771D01*
X205434342Y-192857200D02*
X205505771Y-192928628D01*
X205434342Y-193000057D01*
X205362914Y-192928628D01*
X205434342Y-192857200D01*
X205434342Y-193000057D01*
X207220057Y-192428628D02*
X207291485Y-192357200D01*
X207434342Y-192285771D01*
X207791485Y-192285771D01*
X207934342Y-192357200D01*
X208005771Y-192428628D01*
X208077200Y-192571485D01*
X208077200Y-192714342D01*
X208005771Y-192928628D01*
X207148628Y-193785771D01*
X208077200Y-193785771D01*
X209005771Y-192285771D02*
X209148628Y-192285771D01*
X209291485Y-192357200D01*
X209362914Y-192428628D01*
X209434342Y-192571485D01*
X209505771Y-192857200D01*
X209505771Y-193214342D01*
X209434342Y-193500057D01*
X209362914Y-193642914D01*
X209291485Y-193714342D01*
X209148628Y-193785771D01*
X209005771Y-193785771D01*
X208862914Y-193714342D01*
X208791485Y-193642914D01*
X208720057Y-193500057D01*
X208648628Y-193214342D01*
X208648628Y-192857200D01*
X208720057Y-192571485D01*
X208791485Y-192428628D01*
X208862914Y-192357200D01*
X209005771Y-192285771D01*
X210077200Y-192428628D02*
X210148628Y-192357200D01*
X210291485Y-192285771D01*
X210648628Y-192285771D01*
X210791485Y-192357200D01*
X210862914Y-192428628D01*
X210934342Y-192571485D01*
X210934342Y-192714342D01*
X210862914Y-192928628D01*
X210005771Y-193785771D01*
X210934342Y-193785771D01*
X211434342Y-192285771D02*
X212362914Y-192285771D01*
X211862914Y-192857200D01*
X212077200Y-192857200D01*
X212220057Y-192928628D01*
X212291485Y-193000057D01*
X212362914Y-193142914D01*
X212362914Y-193500057D01*
X212291485Y-193642914D01*
X212220057Y-193714342D01*
X212077200Y-193785771D01*
X211648628Y-193785771D01*
X211505771Y-193714342D01*
X211434342Y-193642914D01*
X213005771Y-193214342D02*
X214148628Y-193214342D01*
X215148628Y-192285771D02*
X215291485Y-192285771D01*
X215434342Y-192357200D01*
X215505771Y-192428628D01*
X215577200Y-192571485D01*
X215648628Y-192857200D01*
X215648628Y-193214342D01*
X215577200Y-193500057D01*
X215505771Y-193642914D01*
X215434342Y-193714342D01*
X215291485Y-193785771D01*
X215148628Y-193785771D01*
X215005771Y-193714342D01*
X214934342Y-193642914D01*
X214862914Y-193500057D01*
X214791485Y-193214342D01*
X214791485Y-192857200D01*
X214862914Y-192571485D01*
X214934342Y-192428628D01*
X215005771Y-192357200D01*
X215148628Y-192285771D01*
X216934342Y-192785771D02*
X216934342Y-193785771D01*
X216577200Y-192214342D02*
X216220057Y-193285771D01*
X217148628Y-193285771D01*
X217720057Y-193214342D02*
X218862914Y-193214342D01*
X220362914Y-193785771D02*
X219505771Y-193785771D01*
X219934342Y-193785771D02*
X219934342Y-192285771D01*
X219791485Y-192500057D01*
X219648628Y-192642914D01*
X219505771Y-192714342D01*
X221720057Y-192285771D02*
X221005771Y-192285771D01*
X220934342Y-193000057D01*
X221005771Y-192928628D01*
X221148628Y-192857200D01*
X221505771Y-192857200D01*
X221648628Y-192928628D01*
X221720057Y-193000057D01*
X221791485Y-193142914D01*
X221791485Y-193500057D01*
X221720057Y-193642914D01*
X221648628Y-193714342D01*
X221505771Y-193785771D01*
X221148628Y-193785771D01*
X221005771Y-193714342D01*
X220934342Y-193642914D01*
D10*
D11*
X177002200Y-194507200D02*
X285002200Y-194507200D01*
D10*
D11*
X178434342Y-196585771D02*
X178434342Y-195085771D01*
X179291485Y-196585771D02*
X178648628Y-195728628D01*
X179291485Y-195085771D02*
X178434342Y-195942914D01*
X179934342Y-196585771D02*
X179934342Y-195585771D01*
X179934342Y-195085771D02*
X179862914Y-195157200D01*
X179934342Y-195228628D01*
X180005771Y-195157200D01*
X179934342Y-195085771D01*
X179934342Y-195228628D01*
X181505771Y-196442914D02*
X181434342Y-196514342D01*
X181220057Y-196585771D01*
X181077200Y-196585771D01*
X180862914Y-196514342D01*
X180720057Y-196371485D01*
X180648628Y-196228628D01*
X180577200Y-195942914D01*
X180577200Y-195728628D01*
X180648628Y-195442914D01*
X180720057Y-195300057D01*
X180862914Y-195157200D01*
X181077200Y-195085771D01*
X181220057Y-195085771D01*
X181434342Y-195157200D01*
X181505771Y-195228628D01*
X182791485Y-196585771D02*
X182791485Y-195800057D01*
X182720057Y-195657200D01*
X182577200Y-195585771D01*
X182291485Y-195585771D01*
X182148628Y-195657200D01*
X182791485Y-196514342D02*
X182648628Y-196585771D01*
X182291485Y-196585771D01*
X182148628Y-196514342D01*
X182077200Y-196371485D01*
X182077200Y-196228628D01*
X182148628Y-196085771D01*
X182291485Y-196014342D01*
X182648628Y-196014342D01*
X182791485Y-195942914D01*
X184148628Y-196585771D02*
X184148628Y-195085771D01*
X184148628Y-196514342D02*
X184005771Y-196585771D01*
X183720057Y-196585771D01*
X183577200Y-196514342D01*
X183505771Y-196442914D01*
X183434342Y-196300057D01*
X183434342Y-195871485D01*
X183505771Y-195728628D01*
X183577200Y-195657200D01*
X183720057Y-195585771D01*
X184005771Y-195585771D01*
X184148628Y-195657200D01*
X186005771Y-195800057D02*
X186505771Y-195800057D01*
X186720057Y-196585771D02*
X186005771Y-196585771D01*
X186005771Y-195085771D01*
X186720057Y-195085771D01*
X187362914Y-196442914D02*
X187434342Y-196514342D01*
X187362914Y-196585771D01*
X187291485Y-196514342D01*
X187362914Y-196442914D01*
X187362914Y-196585771D01*
X188077200Y-196585771D02*
X188077200Y-195085771D01*
X188434342Y-195085771D01*
X188648628Y-195157200D01*
X188791485Y-195300057D01*
X188862914Y-195442914D01*
X188934342Y-195728628D01*
X188934342Y-195942914D01*
X188862914Y-196228628D01*
X188791485Y-196371485D01*
X188648628Y-196514342D01*
X188434342Y-196585771D01*
X188077200Y-196585771D01*
X189577200Y-196442914D02*
X189648628Y-196514342D01*
X189577200Y-196585771D01*
X189505771Y-196514342D01*
X189577200Y-196442914D01*
X189577200Y-196585771D01*
X190220057Y-196157200D02*
X190934342Y-196157200D01*
X190077200Y-196585771D02*
X190577200Y-195085771D01*
X191077200Y-196585771D01*
X191577200Y-196442914D02*
X191648628Y-196514342D01*
X191577200Y-196585771D01*
X191505771Y-196514342D01*
X191577200Y-196442914D01*
X191577200Y-196585771D01*
X194577200Y-196585771D02*
X194577200Y-195085771D01*
X194720057Y-196014342D02*
X195148628Y-196585771D01*
X195148628Y-195585771D02*
X194577200Y-196157200D01*
X195791485Y-196585771D02*
X195791485Y-195585771D01*
X195791485Y-195085771D02*
X195720057Y-195157200D01*
X195791485Y-195228628D01*
X195862914Y-195157200D01*
X195791485Y-195085771D01*
X195791485Y-195228628D01*
X197148628Y-196514342D02*
X197005771Y-196585771D01*
X196720057Y-196585771D01*
X196577200Y-196514342D01*
X196505771Y-196442914D01*
X196434342Y-196300057D01*
X196434342Y-195871485D01*
X196505771Y-195728628D01*
X196577200Y-195657200D01*
X196720057Y-195585771D01*
X197005771Y-195585771D01*
X197148628Y-195657200D01*
X198434342Y-196585771D02*
X198434342Y-195800057D01*
X198362914Y-195657200D01*
X198220057Y-195585771D01*
X197934342Y-195585771D01*
X197791485Y-195657200D01*
X198434342Y-196514342D02*
X198291485Y-196585771D01*
X197934342Y-196585771D01*
X197791485Y-196514342D01*
X197720057Y-196371485D01*
X197720057Y-196228628D01*
X197791485Y-196085771D01*
X197934342Y-196014342D01*
X198291485Y-196014342D01*
X198434342Y-195942914D01*
X199791485Y-196585771D02*
X199791485Y-195085771D01*
X199791485Y-196514342D02*
X199648628Y-196585771D01*
X199362914Y-196585771D01*
X199220057Y-196514342D01*
X199148628Y-196442914D01*
X199077200Y-196300057D01*
X199077200Y-195871485D01*
X199148628Y-195728628D01*
X199220057Y-195657200D01*
X199362914Y-195585771D01*
X199648628Y-195585771D01*
X199791485Y-195657200D01*
X202077200Y-197157200D02*
X202005771Y-197085771D01*
X201862914Y-196871485D01*
X201791485Y-196728628D01*
X201720057Y-196514342D01*
X201648628Y-196157200D01*
X201648628Y-195871485D01*
X201720057Y-195514342D01*
X201791485Y-195300057D01*
X201862914Y-195157200D01*
X202005771Y-194942914D01*
X202077200Y-194871485D01*
X203291485Y-195085771D02*
X203005771Y-195085771D01*
X202862914Y-195157200D01*
X202791485Y-195228628D01*
X202648628Y-195442914D01*
X202577200Y-195728628D01*
X202577200Y-196300057D01*
X202648628Y-196442914D01*
X202720057Y-196514342D01*
X202862914Y-196585771D01*
X203148628Y-196585771D01*
X203291485Y-196514342D01*
X203362914Y-196442914D01*
X203434342Y-196300057D01*
X203434342Y-195942914D01*
X203362914Y-195800057D01*
X203291485Y-195728628D01*
X203148628Y-195657200D01*
X202862914Y-195657200D01*
X202720057Y-195728628D01*
X202648628Y-195800057D01*
X202577200Y-195942914D01*
X204077200Y-196442914D02*
X204148628Y-196514342D01*
X204077200Y-196585771D01*
X204005771Y-196514342D01*
X204077200Y-196442914D01*
X204077200Y-196585771D01*
X205077200Y-195085771D02*
X205220057Y-195085771D01*
X205362914Y-195157200D01*
X205434342Y-195228628D01*
X205505771Y-195371485D01*
X205577200Y-195657200D01*
X205577200Y-196014342D01*
X205505771Y-196300057D01*
X205434342Y-196442914D01*
X205362914Y-196514342D01*
X205220057Y-196585771D01*
X205077200Y-196585771D01*
X204934342Y-196514342D01*
X204862914Y-196442914D01*
X204791485Y-196300057D01*
X204720057Y-196014342D01*
X204720057Y-195657200D01*
X204791485Y-195371485D01*
X204862914Y-195228628D01*
X204934342Y-195157200D01*
X205077200Y-195085771D01*
X206220057Y-196442914D02*
X206291485Y-196514342D01*
X206220057Y-196585771D01*
X206148628Y-196514342D01*
X206220057Y-196442914D01*
X206220057Y-196585771D01*
X207577200Y-195585771D02*
X207577200Y-196585771D01*
X207220057Y-195014342D02*
X206862914Y-196085771D01*
X207791485Y-196085771D01*
X208220057Y-197157200D02*
X208291485Y-197085771D01*
X208434342Y-196871485D01*
X208505771Y-196728628D01*
X208577200Y-196514342D01*
X208648628Y-196157200D01*
X208648628Y-195871485D01*
X208577200Y-195514342D01*
X208505771Y-195300057D01*
X208434342Y-195157200D01*
X208291485Y-194942914D01*
X208220057Y-194871485D01*
D10*
D11*
X177002200Y-191507200D02*
X285002200Y-191507200D01*
D10*
D12*
X264411485Y-193785771D02*
X263911485Y-193071485D01*
X263554342Y-193785771D02*
X263554342Y-192285771D01*
X264125771Y-192285771D01*
X264268628Y-192357200D01*
X264340057Y-192428628D01*
X264411485Y-192571485D01*
X264411485Y-192785771D01*
X264340057Y-192928628D01*
X264268628Y-193000057D01*
X264125771Y-193071485D01*
X263554342Y-193071485D01*
X265625771Y-193714342D02*
X265482914Y-193785771D01*
X265197200Y-193785771D01*
X265054342Y-193714342D01*
X264982914Y-193571485D01*
X264982914Y-193000057D01*
X265054342Y-192857200D01*
X265197200Y-192785771D01*
X265482914Y-192785771D01*
X265625771Y-192857200D01*
X265697200Y-193000057D01*
X265697200Y-193142914D01*
X264982914Y-193285771D01*
X266197200Y-192785771D02*
X266554342Y-193785771D01*
X266911485Y-192785771D01*
X267482914Y-193642914D02*
X267554342Y-193714342D01*
X267482914Y-193785771D01*
X267411485Y-193714342D01*
X267482914Y-193642914D01*
X267482914Y-193785771D01*
X267482914Y-192857200D02*
X267554342Y-192928628D01*
X267482914Y-193000057D01*
X267411485Y-192928628D01*
X267482914Y-192857200D01*
X267482914Y-193000057D01*
X269625771Y-192285771D02*
X269768628Y-192285771D01*
X269911485Y-192357200D01*
X269982914Y-192428628D01*
X270054342Y-192571485D01*
X270125771Y-192857200D01*
X270125771Y-193214342D01*
X270054342Y-193500057D01*
X269982914Y-193642914D01*
X269911485Y-193714342D01*
X269768628Y-193785771D01*
X269625771Y-193785771D01*
X269482914Y-193714342D01*
X269411485Y-193642914D01*
X269340057Y-193500057D01*
X269268628Y-193214342D01*
X269268628Y-192857200D01*
X269340057Y-192571485D01*
X269411485Y-192428628D01*
X269482914Y-192357200D01*
X269625771Y-192285771D01*
X270768628Y-193642914D02*
X270840057Y-193714342D01*
X270768628Y-193785771D01*
X270697200Y-193714342D01*
X270768628Y-193642914D01*
X270768628Y-193785771D01*
X272125771Y-192285771D02*
X271840057Y-192285771D01*
X271697200Y-192357200D01*
X271625771Y-192428628D01*
X271482914Y-192642914D01*
X271411485Y-192928628D01*
X271411485Y-193500057D01*
X271482914Y-193642914D01*
X271554342Y-193714342D01*
X271697200Y-193785771D01*
X271982914Y-193785771D01*
X272125771Y-193714342D01*
X272197200Y-193642914D01*
X272268628Y-193500057D01*
X272268628Y-193142914D01*
X272197200Y-193000057D01*
X272125771Y-192928628D01*
X271982914Y-192857200D01*
X271697200Y-192857200D01*
X271554342Y-192928628D01*
X271482914Y-193000057D01*
X271411485Y-193142914D01*
D10*
D11*
X178362914Y-193714342D02*
X178577200Y-193785771D01*
X178934342Y-193785771D01*
X179077200Y-193714342D01*
X179148628Y-193642914D01*
X179220057Y-193500057D01*
X179220057Y-193357200D01*
X179148628Y-193214342D01*
X179077200Y-193142914D01*
X178934342Y-193071485D01*
X178648628Y-193000057D01*
X178505771Y-192928628D01*
X178434342Y-192857200D01*
X178362914Y-192714342D01*
X178362914Y-192571485D01*
X178434342Y-192428628D01*
X178505771Y-192357200D01*
X178648628Y-192285771D01*
X179005771Y-192285771D01*
X179220057Y-192357200D01*
X179862914Y-193785771D02*
X179862914Y-192785771D01*
X179862914Y-192285771D02*
X179791485Y-192357200D01*
X179862914Y-192428628D01*
X179934342Y-192357200D01*
X179862914Y-192285771D01*
X179862914Y-192428628D01*
X180434342Y-192785771D02*
X181220057Y-192785771D01*
X180434342Y-193785771D01*
X181220057Y-193785771D01*
X182362914Y-193714342D02*
X182220057Y-193785771D01*
X181934342Y-193785771D01*
X181791485Y-193714342D01*
X181720057Y-193571485D01*
X181720057Y-193000057D01*
X181791485Y-192857200D01*
X181934342Y-192785771D01*
X182220057Y-192785771D01*
X182362914Y-192857200D01*
X182434342Y-193000057D01*
X182434342Y-193142914D01*
X181720057Y-193285771D01*
X183077200Y-193642914D02*
X183148628Y-193714342D01*
X183077200Y-193785771D01*
X183005771Y-193714342D01*
X183077200Y-193642914D01*
X183077200Y-193785771D01*
X183077200Y-192857200D02*
X183148628Y-192928628D01*
X183077200Y-193000057D01*
X183005771Y-192928628D01*
X183077200Y-192857200D01*
X183077200Y-193000057D01*
X184862914Y-193357200D02*
X185577200Y-193357200D01*
X184720057Y-193785771D02*
X185220057Y-192285771D01*
X185720057Y-193785771D01*
X186862914Y-192785771D02*
X186862914Y-193785771D01*
X186505771Y-192214342D02*
X186148628Y-193285771D01*
X187077200Y-193285771D01*
D10*
D11*
X263434342Y-196585771D02*
X263434342Y-195085771D01*
X264791485Y-196585771D02*
X264791485Y-195085771D01*
X264791485Y-196514342D02*
X264648628Y-196585771D01*
X264362914Y-196585771D01*
X264220057Y-196514342D01*
X264148628Y-196442914D01*
X264077200Y-196300057D01*
X264077200Y-195871485D01*
X264148628Y-195728628D01*
X264220057Y-195657200D01*
X264362914Y-195585771D01*
X264648628Y-195585771D01*
X264791485Y-195657200D01*
X265505771Y-196442914D02*
X265577200Y-196514342D01*
X265505771Y-196585771D01*
X265434342Y-196514342D01*
X265505771Y-196442914D01*
X265505771Y-196585771D01*
X265505771Y-195657200D02*
X265577200Y-195728628D01*
X265505771Y-195800057D01*
X265434342Y-195728628D01*
X265505771Y-195657200D01*
X265505771Y-195800057D01*
X268148628Y-196585771D02*
X267291485Y-196585771D01*
X267720057Y-196585771D02*
X267720057Y-195085771D01*
X267577200Y-195300057D01*
X267434342Y-195442914D01*
X267291485Y-195514342D01*
X269862914Y-195014342D02*
X268577200Y-196942914D01*
X271148628Y-196585771D02*
X270291485Y-196585771D01*
X270720057Y-196585771D02*
X270720057Y-195085771D01*
X270577200Y-195300057D01*
X270434342Y-195442914D01*
X270291485Y-195514342D01*
D10*
D11*
X177002200Y-187507200D02*
X285002200Y-187507200D01*
D10*
D13*
X178714580Y-188211961D02*
X179857438Y-188211961D01*
X179036009Y-190211961D02*
X179286009Y-188211961D01*
X180274104Y-190211961D02*
X180440771Y-188878628D01*
X180524104Y-188211961D02*
X180416961Y-188307200D01*
X180500295Y-188402438D01*
X180607438Y-188307200D01*
X180524104Y-188211961D01*
X180500295Y-188402438D01*
X181107438Y-188878628D02*
X181869342Y-188878628D01*
X181476485Y-188211961D02*
X181262200Y-189926247D01*
X181333628Y-190116723D01*
X181512200Y-190211961D01*
X181702676Y-190211961D01*
X182655057Y-190211961D02*
X182476485Y-190116723D01*
X182405057Y-189926247D01*
X182619342Y-188211961D01*
X184190771Y-190116723D02*
X183988390Y-190211961D01*
X183607438Y-190211961D01*
X183428866Y-190116723D01*
X183357438Y-189926247D01*
X183452676Y-189164342D01*
X183571723Y-188973866D01*
X183774104Y-188878628D01*
X184155057Y-188878628D01*
X184333628Y-188973866D01*
X184405057Y-189164342D01*
X184381247Y-189354819D01*
X183405057Y-189545295D01*
X185155057Y-190021485D02*
X185238390Y-190116723D01*
X185131247Y-190211961D01*
X185047914Y-190116723D01*
X185155057Y-190021485D01*
X185131247Y-190211961D01*
X185286009Y-188973866D02*
X185369342Y-189069104D01*
X185262200Y-189164342D01*
X185178866Y-189069104D01*
X185286009Y-188973866D01*
X185262200Y-189164342D01*
X187524104Y-190116723D02*
X187797914Y-190211961D01*
X188274104Y-190211961D01*
X188476485Y-190116723D01*
X188583628Y-190021485D01*
X188702676Y-189831009D01*
X188726485Y-189640533D01*
X188655057Y-189450057D01*
X188571723Y-189354819D01*
X188393152Y-189259580D01*
X188024104Y-189164342D01*
X187845533Y-189069104D01*
X187762200Y-188973866D01*
X187690771Y-188783390D01*
X187714580Y-188592914D01*
X187833628Y-188402438D01*
X187940771Y-188307200D01*
X188143152Y-188211961D01*
X188619342Y-188211961D01*
X188893152Y-188307200D01*
X189571723Y-188211961D02*
X189797914Y-190211961D01*
X190357438Y-188783390D01*
X190559819Y-190211961D01*
X191286009Y-188211961D01*
X191893152Y-189450057D02*
X193416961Y-189450057D01*
X194274104Y-190211961D02*
X194524104Y-188211961D01*
X195012200Y-189640533D01*
X195857438Y-188211961D01*
X195607438Y-190211961D01*
X197333628Y-190116723D02*
X197131247Y-190211961D01*
X196750295Y-190211961D01*
X196571723Y-190116723D01*
X196500295Y-189926247D01*
X196595533Y-189164342D01*
X196714580Y-188973866D01*
X196916961Y-188878628D01*
X197297914Y-188878628D01*
X197476485Y-188973866D01*
X197547914Y-189164342D01*
X197524104Y-189354819D01*
X196547914Y-189545295D01*
X198155057Y-188878628D02*
X198916961Y-188878628D01*
X198524104Y-188211961D02*
X198309819Y-189926247D01*
X198381247Y-190116723D01*
X198559819Y-190211961D01*
X198750295Y-190211961D01*
X200190771Y-190116723D02*
X199988390Y-190211961D01*
X199607438Y-190211961D01*
X199428866Y-190116723D01*
X199357438Y-189926247D01*
X199452676Y-189164342D01*
X199571723Y-188973866D01*
X199774104Y-188878628D01*
X200155057Y-188878628D01*
X200333628Y-188973866D01*
X200405057Y-189164342D01*
X200381247Y-189354819D01*
X199405057Y-189545295D01*
X201131247Y-190211961D02*
X201297914Y-188878628D01*
X201250295Y-189259580D02*
X201369342Y-189069104D01*
X201476485Y-188973866D01*
X201678866Y-188878628D01*
X201869342Y-188878628D01*
D10*
D11*
X178934342Y-185600057D02*
X178434342Y-185600057D01*
X178434342Y-186385771D02*
X178434342Y-184885771D01*
X179148628Y-184885771D01*
X179720057Y-186385771D02*
X179720057Y-185385771D01*
X179720057Y-184885771D02*
X179648628Y-184957200D01*
X179720057Y-185028628D01*
X179791485Y-184957200D01*
X179720057Y-184885771D01*
X179720057Y-185028628D01*
X180648628Y-186385771D02*
X180505771Y-186314342D01*
X180434342Y-186171485D01*
X180434342Y-184885771D01*
X181791485Y-186314342D02*
X181648628Y-186385771D01*
X181362914Y-186385771D01*
X181220057Y-186314342D01*
X181148628Y-186171485D01*
X181148628Y-185600057D01*
X181220057Y-185457200D01*
X181362914Y-185385771D01*
X181648628Y-185385771D01*
X181791485Y-185457200D01*
X181862914Y-185600057D01*
X181862914Y-185742914D01*
X181148628Y-185885771D01*
X182505771Y-186242914D02*
X182577200Y-186314342D01*
X182505771Y-186385771D01*
X182434342Y-186314342D01*
X182505771Y-186242914D01*
X182505771Y-186385771D01*
X182505771Y-185457200D02*
X182577200Y-185528628D01*
X182505771Y-185600057D01*
X182434342Y-185528628D01*
X182505771Y-185457200D01*
X182505771Y-185600057D01*
X184291485Y-186314342D02*
X184434342Y-186385771D01*
X184720057Y-186385771D01*
X184862914Y-186314342D01*
X184934342Y-186171485D01*
X184934342Y-186100057D01*
X184862914Y-185957200D01*
X184720057Y-185885771D01*
X184505771Y-185885771D01*
X184362914Y-185814342D01*
X184291485Y-185671485D01*
X184291485Y-185600057D01*
X184362914Y-185457200D01*
X184505771Y-185385771D01*
X184720057Y-185385771D01*
X184862914Y-185457200D01*
X185434342Y-185385771D02*
X185720057Y-186385771D01*
X186005771Y-185671485D01*
X186291485Y-186385771D01*
X186577200Y-185385771D01*
X187148628Y-186385771D02*
X187148628Y-185385771D01*
X187148628Y-185528628D02*
X187220057Y-185457200D01*
X187362914Y-185385771D01*
X187577200Y-185385771D01*
X187720057Y-185457200D01*
X187791485Y-185600057D01*
X187791485Y-186385771D01*
X187791485Y-185600057D02*
X187862914Y-185457200D01*
X188005771Y-185385771D01*
X188220057Y-185385771D01*
X188362914Y-185457200D01*
X188434342Y-185600057D01*
X188434342Y-186385771D01*
X189720057Y-186314342D02*
X189577200Y-186385771D01*
X189291485Y-186385771D01*
X189148628Y-186314342D01*
X189077200Y-186171485D01*
X189077200Y-185600057D01*
X189148628Y-185457200D01*
X189291485Y-185385771D01*
X189577200Y-185385771D01*
X189720057Y-185457200D01*
X189791485Y-185600057D01*
X189791485Y-185742914D01*
X189077200Y-185885771D01*
X190220057Y-185385771D02*
X190791485Y-185385771D01*
X190434342Y-184885771D02*
X190434342Y-186171485D01*
X190505771Y-186314342D01*
X190648628Y-186385771D01*
X190791485Y-186385771D01*
X191862914Y-186314342D02*
X191720057Y-186385771D01*
X191434342Y-186385771D01*
X191291485Y-186314342D01*
X191220057Y-186171485D01*
X191220057Y-185600057D01*
X191291485Y-185457200D01*
X191434342Y-185385771D01*
X191720057Y-185385771D01*
X191862914Y-185457200D01*
X191934342Y-185600057D01*
X191934342Y-185742914D01*
X191220057Y-185885771D01*
X192577200Y-186385771D02*
X192577200Y-185385771D01*
X192577200Y-185671485D02*
X192648628Y-185528628D01*
X192720057Y-185457200D01*
X192862914Y-185385771D01*
X193005771Y-185385771D01*
X193505771Y-186242914D02*
X193577200Y-186314342D01*
X193505771Y-186385771D01*
X193434342Y-186314342D01*
X193505771Y-186242914D01*
X193505771Y-186385771D01*
X194220057Y-186385771D02*
X194220057Y-184885771D01*
X194362914Y-185814342D02*
X194791485Y-186385771D01*
X194791485Y-185385771D02*
X194220057Y-185957200D01*
X195434342Y-186385771D02*
X195434342Y-185385771D01*
X195434342Y-184885771D02*
X195362914Y-184957200D01*
X195434342Y-185028628D01*
X195505771Y-184957200D01*
X195434342Y-184885771D01*
X195434342Y-185028628D01*
X196791485Y-186314342D02*
X196648628Y-186385771D01*
X196362914Y-186385771D01*
X196220057Y-186314342D01*
X196148628Y-186242914D01*
X196077200Y-186100057D01*
X196077200Y-185671485D01*
X196148628Y-185528628D01*
X196220057Y-185457200D01*
X196362914Y-185385771D01*
X196648628Y-185385771D01*
X196791485Y-185457200D01*
X198077200Y-186385771D02*
X198077200Y-185600057D01*
X198005771Y-185457200D01*
X197862914Y-185385771D01*
X197577200Y-185385771D01*
X197434342Y-185457200D01*
X198077200Y-186314342D02*
X197934342Y-186385771D01*
X197577200Y-186385771D01*
X197434342Y-186314342D01*
X197362914Y-186171485D01*
X197362914Y-186028628D01*
X197434342Y-185885771D01*
X197577200Y-185814342D01*
X197934342Y-185814342D01*
X198077200Y-185742914D01*
X199434342Y-186385771D02*
X199434342Y-184885771D01*
X199434342Y-186314342D02*
X199291485Y-186385771D01*
X199005771Y-186385771D01*
X198862914Y-186314342D01*
X198791485Y-186242914D01*
X198720057Y-186100057D01*
X198720057Y-185671485D01*
X198791485Y-185528628D01*
X198862914Y-185457200D01*
X199005771Y-185385771D01*
X199291485Y-185385771D01*
X199434342Y-185457200D01*
X199791485Y-186528628D02*
X200934342Y-186528628D01*
X201291485Y-185385771D02*
X201291485Y-186885771D01*
X201291485Y-185457200D02*
X201434342Y-185385771D01*
X201720057Y-185385771D01*
X201862914Y-185457200D01*
X201934342Y-185528628D01*
X202005771Y-185671485D01*
X202005771Y-186100057D01*
X201934342Y-186242914D01*
X201862914Y-186314342D01*
X201720057Y-186385771D01*
X201434342Y-186385771D01*
X201291485Y-186314342D01*
X203291485Y-186314342D02*
X203148628Y-186385771D01*
X202862914Y-186385771D01*
X202720057Y-186314342D01*
X202648628Y-186242914D01*
X202577200Y-186100057D01*
X202577200Y-185671485D01*
X202648628Y-185528628D01*
X202720057Y-185457200D01*
X202862914Y-185385771D01*
X203148628Y-185385771D01*
X203291485Y-185457200D01*
X203934342Y-186385771D02*
X203934342Y-184885771D01*
X203934342Y-185457200D02*
X204077200Y-185385771D01*
X204362914Y-185385771D01*
X204505771Y-185457200D01*
X204577200Y-185528628D01*
X204648628Y-185671485D01*
X204648628Y-186100057D01*
X204577200Y-186242914D01*
X204505771Y-186314342D01*
X204362914Y-186385771D01*
X204077200Y-186385771D01*
X203934342Y-186314342D01*
D10*
D11*
X177002200Y-181507200D02*
X285002200Y-181507200D01*
D10*
D11*
X178362914Y-183614342D02*
X178577200Y-183685771D01*
X178934342Y-183685771D01*
X179077200Y-183614342D01*
X179148628Y-183542914D01*
X179220057Y-183400057D01*
X179220057Y-183257200D01*
X179148628Y-183114342D01*
X179077200Y-183042914D01*
X178934342Y-182971485D01*
X178648628Y-182900057D01*
X178505771Y-182828628D01*
X178434342Y-182757200D01*
X178362914Y-182614342D01*
X178362914Y-182471485D01*
X178434342Y-182328628D01*
X178505771Y-182257200D01*
X178648628Y-182185771D01*
X179005771Y-182185771D01*
X179220057Y-182257200D01*
X179862914Y-183685771D02*
X179862914Y-182185771D01*
X180505771Y-183685771D02*
X180505771Y-182900057D01*
X180434342Y-182757200D01*
X180291485Y-182685771D01*
X180077200Y-182685771D01*
X179934342Y-182757200D01*
X179862914Y-182828628D01*
X181791485Y-183614342D02*
X181648628Y-183685771D01*
X181362914Y-183685771D01*
X181220057Y-183614342D01*
X181148628Y-183471485D01*
X181148628Y-182900057D01*
X181220057Y-182757200D01*
X181362914Y-182685771D01*
X181648628Y-182685771D01*
X181791485Y-182757200D01*
X181862914Y-182900057D01*
X181862914Y-183042914D01*
X181148628Y-183185771D01*
X183077200Y-183614342D02*
X182934342Y-183685771D01*
X182648628Y-183685771D01*
X182505771Y-183614342D01*
X182434342Y-183471485D01*
X182434342Y-182900057D01*
X182505771Y-182757200D01*
X182648628Y-182685771D01*
X182934342Y-182685771D01*
X183077200Y-182757200D01*
X183148628Y-182900057D01*
X183148628Y-183042914D01*
X182434342Y-183185771D01*
X183577200Y-182685771D02*
X184148628Y-182685771D01*
X183791485Y-182185771D02*
X183791485Y-183471485D01*
X183862914Y-183614342D01*
X184005771Y-183685771D01*
X184148628Y-183685771D01*
X184648628Y-183542914D02*
X184720057Y-183614342D01*
X184648628Y-183685771D01*
X184577200Y-183614342D01*
X184648628Y-183542914D01*
X184648628Y-183685771D01*
X184648628Y-182757200D02*
X184720057Y-182828628D01*
X184648628Y-182900057D01*
X184577200Y-182828628D01*
X184648628Y-182757200D01*
X184648628Y-182900057D01*
D10*
D12*
X179768628Y-179542914D02*
X179625771Y-179471485D01*
X179340057Y-179471485D01*
X179197200Y-179542914D01*
X179054342Y-179685771D01*
X178982914Y-179828628D01*
X178982914Y-180114342D01*
X179054342Y-180257200D01*
X179197200Y-180400057D01*
X179340057Y-180471485D01*
X179625771Y-180471485D01*
X179768628Y-180400057D01*
X179482914Y-178971485D02*
X179125771Y-179042914D01*
X178768628Y-179257200D01*
X178554342Y-179614342D01*
X178482914Y-179971485D01*
X178554342Y-180328628D01*
X178768628Y-180685771D01*
X179125771Y-180900057D01*
X179482914Y-180971485D01*
X179840057Y-180900057D01*
X180197200Y-180685771D01*
X180411485Y-180328628D01*
X180482914Y-179971485D01*
X180411485Y-179614342D01*
X180197200Y-179257200D01*
X179840057Y-179042914D01*
X179482914Y-178971485D01*
X182125771Y-179185771D02*
X182482914Y-180685771D01*
X182768628Y-179614342D01*
X183054342Y-180685771D01*
X183411485Y-179185771D01*
X184197200Y-180685771D02*
X184054342Y-180614342D01*
X183982914Y-180542914D01*
X183911485Y-180400057D01*
X183911485Y-179971485D01*
X183982914Y-179828628D01*
X184054342Y-179757200D01*
X184197200Y-179685771D01*
X184411485Y-179685771D01*
X184554342Y-179757200D01*
X184625771Y-179828628D01*
X184697200Y-179971485D01*
X184697200Y-180400057D01*
X184625771Y-180542914D01*
X184554342Y-180614342D01*
X184411485Y-180685771D01*
X184197200Y-180685771D01*
X185982914Y-180685771D02*
X185982914Y-179185771D01*
X185982914Y-180614342D02*
X185840057Y-180685771D01*
X185554342Y-180685771D01*
X185411485Y-180614342D01*
X185340057Y-180542914D01*
X185268628Y-180400057D01*
X185268628Y-179971485D01*
X185340057Y-179828628D01*
X185411485Y-179757200D01*
X185554342Y-179685771D01*
X185840057Y-179685771D01*
X185982914Y-179757200D01*
X186911485Y-180685771D02*
X186768628Y-180614342D01*
X186697200Y-180542914D01*
X186625771Y-180400057D01*
X186625771Y-179971485D01*
X186697200Y-179828628D01*
X186768628Y-179757200D01*
X186911485Y-179685771D01*
X187125771Y-179685771D01*
X187268628Y-179757200D01*
X187340057Y-179828628D01*
X187411485Y-179971485D01*
X187411485Y-180400057D01*
X187340057Y-180542914D01*
X187268628Y-180614342D01*
X187125771Y-180685771D01*
X186911485Y-180685771D01*
X187911485Y-179185771D02*
X188268628Y-180685771D01*
X188554342Y-179614342D01*
X188840057Y-180685771D01*
X189197200Y-179185771D01*
X189768628Y-180685771D02*
X189768628Y-179685771D01*
X189768628Y-179185771D02*
X189697200Y-179257200D01*
X189768628Y-179328628D01*
X189840057Y-179257200D01*
X189768628Y-179185771D01*
X189768628Y-179328628D01*
X191054342Y-180614342D02*
X190911485Y-180685771D01*
X190625771Y-180685771D01*
X190482914Y-180614342D01*
X190411485Y-180471485D01*
X190411485Y-179900057D01*
X190482914Y-179757200D01*
X190625771Y-179685771D01*
X190911485Y-179685771D01*
X191054342Y-179757200D01*
X191125771Y-179900057D01*
X191125771Y-180042914D01*
X190411485Y-180185771D01*
X191697200Y-180614342D02*
X191840057Y-180685771D01*
X192125771Y-180685771D01*
X192268628Y-180614342D01*
X192340057Y-180471485D01*
X192340057Y-180400057D01*
X192268628Y-180257200D01*
X192125771Y-180185771D01*
X191911485Y-180185771D01*
X191768628Y-180114342D01*
X191697200Y-179971485D01*
X191697200Y-179900057D01*
X191768628Y-179757200D01*
X191911485Y-179685771D01*
X192125771Y-179685771D01*
X192268628Y-179757200D01*
X193554342Y-180614342D02*
X193411485Y-180685771D01*
X193125771Y-180685771D01*
X192982914Y-180614342D01*
X192911485Y-180471485D01*
X192911485Y-179900057D01*
X192982914Y-179757200D01*
X193125771Y-179685771D01*
X193411485Y-179685771D01*
X193554342Y-179757200D01*
X193625771Y-179900057D01*
X193625771Y-180042914D01*
X192911485Y-180185771D01*
X194482914Y-180685771D02*
X194340057Y-180614342D01*
X194268628Y-180471485D01*
X194268628Y-179185771D01*
D10*
D11*
D10*
D11*
D10*
D11*
D10*
D11*
D10*
D11*
X197002200Y-191507200D02*
X197002200Y-194507200D01*
D10*
D11*
X261002200Y-191507200D02*
X261002200Y-198007200D01*
D14*
X234258000Y-116706000D02*
G75*
G03*
X233058000Y-116706000I-600000J0D01*
G01*
X262110000Y-84390000D02*
X209130000Y-84390000D01*
X209130000Y-84390000D02*
X209130000Y-150370000D01*
X209130000Y-150370000D02*
X262110000Y-150370000D01*
X262110000Y-150370000D02*
X262110000Y-84390000D01*
X233058000Y-118506000D02*
G75*
G03*
X234258000Y-118506000I600000J0D01*
G01*
X233058000Y-116706000D02*
X233058000Y-118506000D01*
X234258000Y-116706000D02*
X234258000Y-118506000D01*
D12*
X207021719Y-111172298D02*
X207021503Y-110886584D01*
X206949966Y-110743781D01*
X206878483Y-110672407D01*
X206664089Y-110529712D01*
X206378321Y-110458500D01*
X205806893Y-110458933D01*
X205664090Y-110530470D01*
X205592715Y-110601952D01*
X205521395Y-110744863D01*
X205521612Y-111030578D01*
X205593148Y-111173381D01*
X205664631Y-111244755D01*
X205807542Y-111316075D01*
X206164685Y-111315805D01*
X206307488Y-111244268D01*
X206378862Y-111172785D01*
X206450183Y-111029874D01*
X206449966Y-110744160D01*
X206378429Y-110601357D01*
X206306947Y-110529982D01*
X206164036Y-110458662D01*
X207022802Y-112600869D02*
X207022585Y-112315155D01*
X206951048Y-112172352D01*
X206879566Y-112100978D01*
X206665172Y-111958283D01*
X206379404Y-111887071D01*
X205807975Y-111887504D01*
X205665172Y-111959041D01*
X205593798Y-112030523D01*
X205522477Y-112173434D01*
X205522694Y-112459149D01*
X205594231Y-112601952D01*
X205665713Y-112673326D01*
X205808625Y-112744646D01*
X206165767Y-112744376D01*
X206308570Y-112672839D01*
X206379945Y-112601356D01*
X206451265Y-112458445D01*
X206451049Y-112172731D01*
X206379512Y-112029928D01*
X206308029Y-111958553D01*
X206165118Y-111887233D01*
X205594880Y-113459094D02*
X205523452Y-113459148D01*
X205380540Y-113387828D01*
X205309058Y-113316454D01*
X207024155Y-114386583D02*
X207024263Y-114529440D01*
X206952943Y-114672351D01*
X206881568Y-114743834D01*
X206738765Y-114815371D01*
X206453105Y-114887016D01*
X206095962Y-114887286D01*
X205810194Y-114816074D01*
X205667283Y-114744754D01*
X205595800Y-114673380D01*
X205524263Y-114530577D01*
X205524155Y-114387720D01*
X205595476Y-114244808D01*
X205666850Y-114173326D01*
X205809653Y-114101789D01*
X206095313Y-114030144D01*
X206452456Y-114029873D01*
X206738224Y-114101085D01*
X206881135Y-114172406D01*
X206952618Y-114243780D01*
X207024155Y-114386583D01*
X207025237Y-115815154D02*
X207025345Y-115958011D01*
X206954025Y-116100922D01*
X206882651Y-116172405D01*
X206739848Y-116243942D01*
X206454188Y-116315587D01*
X206097045Y-116315857D01*
X205811277Y-116244645D01*
X205668365Y-116173325D01*
X205596883Y-116101951D01*
X205525346Y-115959148D01*
X205525238Y-115816291D01*
X205596558Y-115673379D01*
X205667932Y-115601897D01*
X205810735Y-115530360D01*
X206096395Y-115458715D01*
X206453538Y-115458444D01*
X206739306Y-115529656D01*
X206882218Y-115600977D01*
X206953700Y-115672351D01*
X207025237Y-115815154D01*
X207026320Y-117243725D02*
X207026428Y-117386582D01*
X206955108Y-117529493D01*
X206883733Y-117600976D01*
X206740930Y-117672513D01*
X206455270Y-117744158D01*
X206098127Y-117744428D01*
X205812359Y-117673216D01*
X205669448Y-117601896D01*
X205597965Y-117530522D01*
X205526428Y-117387719D01*
X205526320Y-117244862D01*
X205597640Y-117101950D01*
X205669015Y-117030468D01*
X205811818Y-116958931D01*
X206097478Y-116887286D01*
X206454621Y-116887015D01*
X206740389Y-116958227D01*
X206883300Y-117029548D01*
X206954783Y-117100922D01*
X207026320Y-117243725D01*
X207027402Y-118672296D02*
X207027510Y-118815153D01*
X206956190Y-118958064D01*
X206884816Y-119029547D01*
X206742013Y-119101084D01*
X206456352Y-119172729D01*
X206099210Y-119172999D01*
X205813441Y-119101787D01*
X205670530Y-119030467D01*
X205599047Y-118959093D01*
X205527511Y-118816290D01*
X205527402Y-118673433D01*
X205598723Y-118530521D01*
X205670097Y-118459039D01*
X205812900Y-118387502D01*
X206098560Y-118315857D01*
X206455703Y-118315586D01*
X206741471Y-118386798D01*
X206884383Y-118458119D01*
X206955865Y-118529493D01*
X207027402Y-118672296D01*
X205529134Y-120959146D02*
X206529134Y-120958389D01*
X206386277Y-120958497D02*
X206457760Y-121029871D01*
X206529296Y-121172674D01*
X206529459Y-121386960D01*
X206458138Y-121529871D01*
X206315335Y-121601408D01*
X205529621Y-121602003D01*
X206315335Y-121601408D02*
X206458247Y-121672728D01*
X206529783Y-121815531D01*
X206529946Y-122029817D01*
X206458626Y-122172728D01*
X206315823Y-122244265D01*
X205530108Y-122244860D01*
X205530650Y-122959146D02*
X206530649Y-122958388D01*
X206387792Y-122958496D02*
X206459275Y-123029871D01*
X206530812Y-123172674D01*
X206530974Y-123386959D01*
X206459654Y-123529870D01*
X206316851Y-123601407D01*
X205531137Y-123602003D01*
X206316851Y-123601407D02*
X206459762Y-123672728D01*
X206531299Y-123815531D01*
X206531461Y-124029816D01*
X206460141Y-124172727D01*
X206317338Y-124244264D01*
X205531624Y-124244860D01*
D15*
X208590000Y-84390379D02*
X203793581Y-84394013D01*
X208640000Y-150380379D02*
X203843581Y-150384013D01*
X204380001Y-84393569D02*
X204430001Y-150383569D01*
X204380001Y-84393569D02*
X204430001Y-150383569D01*
X204380001Y-84393569D02*
X203794434Y-85520517D01*
X204380001Y-84393569D02*
X204967275Y-85519628D01*
X204430001Y-150383569D02*
X205015568Y-149256621D01*
X204430001Y-150383569D02*
X203842727Y-149257510D01*
D12*
X229471246Y-151351947D02*
X228756961Y-151351273D01*
X228684858Y-152065491D01*
X228756354Y-151994130D01*
X228899279Y-151922836D01*
X229256421Y-151923173D01*
X229399211Y-151994737D01*
X229470572Y-152066232D01*
X229541866Y-152209157D01*
X229541529Y-152566300D01*
X229469966Y-152709089D01*
X229398470Y-152780450D01*
X229255545Y-152851744D01*
X228898402Y-152851407D01*
X228755613Y-152779844D01*
X228684252Y-152708348D01*
X230042674Y-151352486D02*
X230971246Y-151353362D01*
X230470707Y-151924319D01*
X230684992Y-151924521D01*
X230827782Y-151996084D01*
X230899143Y-152067580D01*
X230970437Y-152210505D01*
X230970100Y-152567648D01*
X230898536Y-152710437D01*
X230827040Y-152781798D01*
X230684116Y-152853092D01*
X230255545Y-152852688D01*
X230112755Y-152781124D01*
X230041394Y-152709628D01*
X231684183Y-152782607D02*
X231684116Y-152854036D01*
X231612552Y-152996825D01*
X231541056Y-153068187D01*
X232614102Y-151354913D02*
X232756959Y-151355047D01*
X232899749Y-151426611D01*
X232971110Y-151498107D01*
X233042404Y-151641031D01*
X233113563Y-151926813D01*
X233113226Y-152283955D01*
X233041527Y-152569602D01*
X232969964Y-152712392D01*
X232898468Y-152783753D01*
X232755544Y-152855047D01*
X232612687Y-152854912D01*
X232469897Y-152783349D01*
X232398536Y-152711853D01*
X232327242Y-152568928D01*
X232256083Y-152283147D01*
X232256420Y-151926004D01*
X232328118Y-151640357D01*
X232399681Y-151497567D01*
X232471177Y-151426206D01*
X232614102Y-151354913D01*
X234042673Y-151356261D02*
X234185530Y-151356395D01*
X234328319Y-151427959D01*
X234399681Y-151499455D01*
X234470974Y-151642379D01*
X234542133Y-151928161D01*
X234541796Y-152285303D01*
X234470098Y-152570950D01*
X234398535Y-152713740D01*
X234327039Y-152785101D01*
X234184114Y-152856395D01*
X234041257Y-152856260D01*
X233898468Y-152784697D01*
X233827107Y-152713201D01*
X233755813Y-152570276D01*
X233684654Y-152284495D01*
X233684991Y-151927352D01*
X233756689Y-151641705D01*
X233828252Y-151498915D01*
X233899748Y-151427554D01*
X234042673Y-151356261D01*
X235471243Y-151357608D02*
X235614101Y-151357743D01*
X235756890Y-151429307D01*
X235828251Y-151500803D01*
X235899545Y-151643727D01*
X235970704Y-151929509D01*
X235970367Y-152286651D01*
X235898669Y-152572298D01*
X235827106Y-152715088D01*
X235755610Y-152786449D01*
X235612685Y-152857743D01*
X235469828Y-152857608D01*
X235327038Y-152786044D01*
X235255677Y-152714549D01*
X235184384Y-152571624D01*
X235113225Y-152285843D01*
X235113562Y-151928700D01*
X235185260Y-151643053D01*
X235256823Y-151500263D01*
X235328319Y-151428902D01*
X235471243Y-151357608D01*
X236899814Y-151358956D02*
X237042671Y-151359091D01*
X237185461Y-151430655D01*
X237256822Y-151502151D01*
X237328116Y-151645075D01*
X237399275Y-151930857D01*
X237398938Y-152287999D01*
X237327240Y-152573646D01*
X237255676Y-152716436D01*
X237184180Y-152787797D01*
X237041256Y-152859091D01*
X236898399Y-152858956D01*
X236755609Y-152787392D01*
X236684248Y-152715897D01*
X236612954Y-152572972D01*
X236541795Y-152287190D01*
X236542132Y-151930048D01*
X236613831Y-151644401D01*
X236685394Y-151501611D01*
X236756890Y-151430250D01*
X236899814Y-151358956D01*
X239184112Y-152861113D02*
X239185056Y-151861113D01*
X239184921Y-152003970D02*
X239256417Y-151932609D01*
X239399341Y-151861315D01*
X239613627Y-151861517D01*
X239756417Y-151933081D01*
X239827710Y-152076005D01*
X239826969Y-152861719D01*
X239827710Y-152076005D02*
X239899274Y-151933215D01*
X240042198Y-151861922D01*
X240256484Y-151862124D01*
X240399274Y-151933687D01*
X240470567Y-152076612D01*
X240469826Y-152862326D01*
X241184111Y-152863000D02*
X241185055Y-151863000D01*
X241184920Y-152005857D02*
X241256416Y-151934496D01*
X241399341Y-151863202D01*
X241613626Y-151863405D01*
X241756416Y-151934968D01*
X241827710Y-152077892D01*
X241826968Y-152863606D01*
X241827710Y-152077892D02*
X241899273Y-151935103D01*
X242042197Y-151863809D01*
X242256483Y-151864011D01*
X242399273Y-151935574D01*
X242470566Y-152078499D01*
X242469825Y-152864213D01*
D15*
X209119528Y-150880000D02*
X209116074Y-154540591D01*
X262109528Y-150930000D02*
X262106074Y-154590591D01*
X209116628Y-153954171D02*
X262106628Y-154004171D01*
X209116628Y-153954171D02*
X262106628Y-154004171D01*
X209116628Y-153954171D02*
X210242578Y-154541654D01*
X209116628Y-153954171D02*
X210243685Y-153368813D01*
X262106628Y-154004171D02*
X260980678Y-153416688D01*
X262106628Y-154004171D02*
X260979571Y-154589529D01*
M02*
