%TF.GenerationSoftware,KiCad,Pcbnew,(6.0.4)*%
%TF.CreationDate,2023-10-22T18:39:05+02:00*%
%TF.ProjectId,swmeter,73776d65-7465-4722-9e6b-696361645f70,0.6*%
%TF.SameCoordinates,Original*%
%TF.FileFunction,AssemblyDrawing,Top*%
%FSLAX46Y46*%
G04 Gerber Fmt 4.6, Leading zero omitted, Abs format (unit mm)*
G04 Created by KiCad (PCBNEW (6.0.4)) date 2023-10-22 18:39:05*
%MOMM*%
%LPD*%
G01*
G04 APERTURE LIST*
%ADD10C,0.100000*%
%ADD11C,0.150000*%
%ADD12C,0.300000*%
%ADD13C,0.400000*%
%TA.AperFunction,Profile*%
%ADD14C,0.100000*%
%TD*%
G04 APERTURE END LIST*
D10*
D11*
X177002200Y-166007200D02*
X177002200Y-198007200D01*
X285002200Y-198007200D01*
X285002200Y-166007200D01*
X177002200Y-166007200D01*
D10*
D11*
X10000000Y-10000000D02*
X10000000Y-200007200D01*
X287002200Y-200007200D01*
X287002200Y-10000000D01*
X10000000Y-10000000D01*
D10*
D11*
X12000000Y-12000000D02*
X12000000Y-198007200D01*
X285002200Y-198007200D01*
X285002200Y-12000000D01*
X12000000Y-12000000D01*
D10*
D11*
X60000000Y-12000000D02*
X60000000Y-10000000D01*
D10*
D11*
X110000000Y-12000000D02*
X110000000Y-10000000D01*
D10*
D11*
X160000000Y-12000000D02*
X160000000Y-10000000D01*
D10*
D11*
X210000000Y-12000000D02*
X210000000Y-10000000D01*
D10*
D11*
X260000000Y-12000000D02*
X260000000Y-10000000D01*
D10*
D11*
X36065476Y-11588095D02*
X35322619Y-11588095D01*
X35694047Y-11588095D02*
X35694047Y-10288095D01*
X35570238Y-10473809D01*
X35446428Y-10597619D01*
X35322619Y-10659523D01*
D10*
D11*
X85322619Y-10411904D02*
X85384523Y-10350000D01*
X85508333Y-10288095D01*
X85817857Y-10288095D01*
X85941666Y-10350000D01*
X86003571Y-10411904D01*
X86065476Y-10535714D01*
X86065476Y-10659523D01*
X86003571Y-10845238D01*
X85260714Y-11588095D01*
X86065476Y-11588095D01*
D10*
D11*
X135260714Y-10288095D02*
X136065476Y-10288095D01*
X135632142Y-10783333D01*
X135817857Y-10783333D01*
X135941666Y-10845238D01*
X136003571Y-10907142D01*
X136065476Y-11030952D01*
X136065476Y-11340476D01*
X136003571Y-11464285D01*
X135941666Y-11526190D01*
X135817857Y-11588095D01*
X135446428Y-11588095D01*
X135322619Y-11526190D01*
X135260714Y-11464285D01*
D10*
D11*
X185941666Y-10721428D02*
X185941666Y-11588095D01*
X185632142Y-10226190D02*
X185322619Y-11154761D01*
X186127380Y-11154761D01*
D10*
D11*
X236003571Y-10288095D02*
X235384523Y-10288095D01*
X235322619Y-10907142D01*
X235384523Y-10845238D01*
X235508333Y-10783333D01*
X235817857Y-10783333D01*
X235941666Y-10845238D01*
X236003571Y-10907142D01*
X236065476Y-11030952D01*
X236065476Y-11340476D01*
X236003571Y-11464285D01*
X235941666Y-11526190D01*
X235817857Y-11588095D01*
X235508333Y-11588095D01*
X235384523Y-11526190D01*
X235322619Y-11464285D01*
D10*
D11*
X285941666Y-10288095D02*
X285694047Y-10288095D01*
X285570238Y-10350000D01*
X285508333Y-10411904D01*
X285384523Y-10597619D01*
X285322619Y-10845238D01*
X285322619Y-11340476D01*
X285384523Y-11464285D01*
X285446428Y-11526190D01*
X285570238Y-11588095D01*
X285817857Y-11588095D01*
X285941666Y-11526190D01*
X286003571Y-11464285D01*
X286065476Y-11340476D01*
X286065476Y-11030952D01*
X286003571Y-10907142D01*
X285941666Y-10845238D01*
X285817857Y-10783333D01*
X285570238Y-10783333D01*
X285446428Y-10845238D01*
X285384523Y-10907142D01*
X285322619Y-11030952D01*
D10*
D11*
X60000000Y-198007200D02*
X60000000Y-200007200D01*
D10*
D11*
X110000000Y-198007200D02*
X110000000Y-200007200D01*
D10*
D11*
X160000000Y-198007200D02*
X160000000Y-200007200D01*
D10*
D11*
X210000000Y-198007200D02*
X210000000Y-200007200D01*
D10*
D11*
X260000000Y-198007200D02*
X260000000Y-200007200D01*
D10*
D11*
X36065476Y-199595295D02*
X35322619Y-199595295D01*
X35694047Y-199595295D02*
X35694047Y-198295295D01*
X35570238Y-198481009D01*
X35446428Y-198604819D01*
X35322619Y-198666723D01*
D10*
D11*
X85322619Y-198419104D02*
X85384523Y-198357200D01*
X85508333Y-198295295D01*
X85817857Y-198295295D01*
X85941666Y-198357200D01*
X86003571Y-198419104D01*
X86065476Y-198542914D01*
X86065476Y-198666723D01*
X86003571Y-198852438D01*
X85260714Y-199595295D01*
X86065476Y-199595295D01*
D10*
D11*
X135260714Y-198295295D02*
X136065476Y-198295295D01*
X135632142Y-198790533D01*
X135817857Y-198790533D01*
X135941666Y-198852438D01*
X136003571Y-198914342D01*
X136065476Y-199038152D01*
X136065476Y-199347676D01*
X136003571Y-199471485D01*
X135941666Y-199533390D01*
X135817857Y-199595295D01*
X135446428Y-199595295D01*
X135322619Y-199533390D01*
X135260714Y-199471485D01*
D10*
D11*
X185941666Y-198728628D02*
X185941666Y-199595295D01*
X185632142Y-198233390D02*
X185322619Y-199161961D01*
X186127380Y-199161961D01*
D10*
D11*
X236003571Y-198295295D02*
X235384523Y-198295295D01*
X235322619Y-198914342D01*
X235384523Y-198852438D01*
X235508333Y-198790533D01*
X235817857Y-198790533D01*
X235941666Y-198852438D01*
X236003571Y-198914342D01*
X236065476Y-199038152D01*
X236065476Y-199347676D01*
X236003571Y-199471485D01*
X235941666Y-199533390D01*
X235817857Y-199595295D01*
X235508333Y-199595295D01*
X235384523Y-199533390D01*
X235322619Y-199471485D01*
D10*
D11*
X285941666Y-198295295D02*
X285694047Y-198295295D01*
X285570238Y-198357200D01*
X285508333Y-198419104D01*
X285384523Y-198604819D01*
X285322619Y-198852438D01*
X285322619Y-199347676D01*
X285384523Y-199471485D01*
X285446428Y-199533390D01*
X285570238Y-199595295D01*
X285817857Y-199595295D01*
X285941666Y-199533390D01*
X286003571Y-199471485D01*
X286065476Y-199347676D01*
X286065476Y-199038152D01*
X286003571Y-198914342D01*
X285941666Y-198852438D01*
X285817857Y-198790533D01*
X285570238Y-198790533D01*
X285446428Y-198852438D01*
X285384523Y-198914342D01*
X285322619Y-199038152D01*
D10*
D11*
X10000000Y-60000000D02*
X12000000Y-60000000D01*
D10*
D11*
X10000000Y-110000000D02*
X12000000Y-110000000D01*
D10*
D11*
X10000000Y-160000000D02*
X12000000Y-160000000D01*
D10*
D11*
X10690476Y-35216666D02*
X11309523Y-35216666D01*
X10566666Y-35588095D02*
X11000000Y-34288095D01*
X11433333Y-35588095D01*
D10*
D11*
X11092857Y-84907142D02*
X11278571Y-84969047D01*
X11340476Y-85030952D01*
X11402380Y-85154761D01*
X11402380Y-85340476D01*
X11340476Y-85464285D01*
X11278571Y-85526190D01*
X11154761Y-85588095D01*
X10659523Y-85588095D01*
X10659523Y-84288095D01*
X11092857Y-84288095D01*
X11216666Y-84350000D01*
X11278571Y-84411904D01*
X11340476Y-84535714D01*
X11340476Y-84659523D01*
X11278571Y-84783333D01*
X11216666Y-84845238D01*
X11092857Y-84907142D01*
X10659523Y-84907142D01*
D10*
D11*
X11402380Y-135464285D02*
X11340476Y-135526190D01*
X11154761Y-135588095D01*
X11030952Y-135588095D01*
X10845238Y-135526190D01*
X10721428Y-135402380D01*
X10659523Y-135278571D01*
X10597619Y-135030952D01*
X10597619Y-134845238D01*
X10659523Y-134597619D01*
X10721428Y-134473809D01*
X10845238Y-134350000D01*
X11030952Y-134288095D01*
X11154761Y-134288095D01*
X11340476Y-134350000D01*
X11402380Y-134411904D01*
D10*
D11*
X10659523Y-185588095D02*
X10659523Y-184288095D01*
X10969047Y-184288095D01*
X11154761Y-184350000D01*
X11278571Y-184473809D01*
X11340476Y-184597619D01*
X11402380Y-184845238D01*
X11402380Y-185030952D01*
X11340476Y-185278571D01*
X11278571Y-185402380D01*
X11154761Y-185526190D01*
X10969047Y-185588095D01*
X10659523Y-185588095D01*
D10*
D11*
X287002200Y-60000000D02*
X285002200Y-60000000D01*
D10*
D11*
X287002200Y-110000000D02*
X285002200Y-110000000D01*
D10*
D11*
X287002200Y-160000000D02*
X285002200Y-160000000D01*
D10*
D11*
X285692676Y-35216666D02*
X286311723Y-35216666D01*
X285568866Y-35588095D02*
X286002200Y-34288095D01*
X286435533Y-35588095D01*
D10*
D11*
X286095057Y-84907142D02*
X286280771Y-84969047D01*
X286342676Y-85030952D01*
X286404580Y-85154761D01*
X286404580Y-85340476D01*
X286342676Y-85464285D01*
X286280771Y-85526190D01*
X286156961Y-85588095D01*
X285661723Y-85588095D01*
X285661723Y-84288095D01*
X286095057Y-84288095D01*
X286218866Y-84350000D01*
X286280771Y-84411904D01*
X286342676Y-84535714D01*
X286342676Y-84659523D01*
X286280771Y-84783333D01*
X286218866Y-84845238D01*
X286095057Y-84907142D01*
X285661723Y-84907142D01*
D10*
D11*
X286404580Y-135464285D02*
X286342676Y-135526190D01*
X286156961Y-135588095D01*
X286033152Y-135588095D01*
X285847438Y-135526190D01*
X285723628Y-135402380D01*
X285661723Y-135278571D01*
X285599819Y-135030952D01*
X285599819Y-134845238D01*
X285661723Y-134597619D01*
X285723628Y-134473809D01*
X285847438Y-134350000D01*
X286033152Y-134288095D01*
X286156961Y-134288095D01*
X286342676Y-134350000D01*
X286404580Y-134411904D01*
D10*
D11*
X285661723Y-185588095D02*
X285661723Y-184288095D01*
X285971247Y-184288095D01*
X286156961Y-184350000D01*
X286280771Y-184473809D01*
X286342676Y-184597619D01*
X286404580Y-184845238D01*
X286404580Y-185030952D01*
X286342676Y-185278571D01*
X286280771Y-185402380D01*
X286156961Y-185526190D01*
X285971247Y-185588095D01*
X285661723Y-185588095D01*
D10*
D11*
X200434342Y-193785771D02*
X200434342Y-192285771D01*
X200791485Y-192285771D01*
X201005771Y-192357200D01*
X201148628Y-192500057D01*
X201220057Y-192642914D01*
X201291485Y-192928628D01*
X201291485Y-193142914D01*
X201220057Y-193428628D01*
X201148628Y-193571485D01*
X201005771Y-193714342D01*
X200791485Y-193785771D01*
X200434342Y-193785771D01*
X202577200Y-193785771D02*
X202577200Y-193000057D01*
X202505771Y-192857200D01*
X202362914Y-192785771D01*
X202077200Y-192785771D01*
X201934342Y-192857200D01*
X202577200Y-193714342D02*
X202434342Y-193785771D01*
X202077200Y-193785771D01*
X201934342Y-193714342D01*
X201862914Y-193571485D01*
X201862914Y-193428628D01*
X201934342Y-193285771D01*
X202077200Y-193214342D01*
X202434342Y-193214342D01*
X202577200Y-193142914D01*
X203077200Y-192785771D02*
X203648628Y-192785771D01*
X203291485Y-192285771D02*
X203291485Y-193571485D01*
X203362914Y-193714342D01*
X203505771Y-193785771D01*
X203648628Y-193785771D01*
X204720057Y-193714342D02*
X204577200Y-193785771D01*
X204291485Y-193785771D01*
X204148628Y-193714342D01*
X204077200Y-193571485D01*
X204077200Y-193000057D01*
X204148628Y-192857200D01*
X204291485Y-192785771D01*
X204577200Y-192785771D01*
X204720057Y-192857200D01*
X204791485Y-193000057D01*
X204791485Y-193142914D01*
X204077200Y-193285771D01*
X205434342Y-193642914D02*
X205505771Y-193714342D01*
X205434342Y-193785771D01*
X205362914Y-193714342D01*
X205434342Y-193642914D01*
X205434342Y-193785771D01*
X205434342Y-192857200D02*
X205505771Y-192928628D01*
X205434342Y-193000057D01*
X205362914Y-192928628D01*
X205434342Y-192857200D01*
X205434342Y-193000057D01*
X207220057Y-192428628D02*
X207291485Y-192357200D01*
X207434342Y-192285771D01*
X207791485Y-192285771D01*
X207934342Y-192357200D01*
X208005771Y-192428628D01*
X208077200Y-192571485D01*
X208077200Y-192714342D01*
X208005771Y-192928628D01*
X207148628Y-193785771D01*
X208077200Y-193785771D01*
X209005771Y-192285771D02*
X209148628Y-192285771D01*
X209291485Y-192357200D01*
X209362914Y-192428628D01*
X209434342Y-192571485D01*
X209505771Y-192857200D01*
X209505771Y-193214342D01*
X209434342Y-193500057D01*
X209362914Y-193642914D01*
X209291485Y-193714342D01*
X209148628Y-193785771D01*
X209005771Y-193785771D01*
X208862914Y-193714342D01*
X208791485Y-193642914D01*
X208720057Y-193500057D01*
X208648628Y-193214342D01*
X208648628Y-192857200D01*
X208720057Y-192571485D01*
X208791485Y-192428628D01*
X208862914Y-192357200D01*
X209005771Y-192285771D01*
X210077200Y-192428628D02*
X210148628Y-192357200D01*
X210291485Y-192285771D01*
X210648628Y-192285771D01*
X210791485Y-192357200D01*
X210862914Y-192428628D01*
X210934342Y-192571485D01*
X210934342Y-192714342D01*
X210862914Y-192928628D01*
X210005771Y-193785771D01*
X210934342Y-193785771D01*
X211434342Y-192285771D02*
X212362914Y-192285771D01*
X211862914Y-192857200D01*
X212077200Y-192857200D01*
X212220057Y-192928628D01*
X212291485Y-193000057D01*
X212362914Y-193142914D01*
X212362914Y-193500057D01*
X212291485Y-193642914D01*
X212220057Y-193714342D01*
X212077200Y-193785771D01*
X211648628Y-193785771D01*
X211505771Y-193714342D01*
X211434342Y-193642914D01*
X213005771Y-193214342D02*
X214148628Y-193214342D01*
X215148628Y-192285771D02*
X215291485Y-192285771D01*
X215434342Y-192357200D01*
X215505771Y-192428628D01*
X215577200Y-192571485D01*
X215648628Y-192857200D01*
X215648628Y-193214342D01*
X215577200Y-193500057D01*
X215505771Y-193642914D01*
X215434342Y-193714342D01*
X215291485Y-193785771D01*
X215148628Y-193785771D01*
X215005771Y-193714342D01*
X214934342Y-193642914D01*
X214862914Y-193500057D01*
X214791485Y-193214342D01*
X214791485Y-192857200D01*
X214862914Y-192571485D01*
X214934342Y-192428628D01*
X215005771Y-192357200D01*
X215148628Y-192285771D01*
X216934342Y-192785771D02*
X216934342Y-193785771D01*
X216577200Y-192214342D02*
X216220057Y-193285771D01*
X217148628Y-193285771D01*
X217720057Y-193214342D02*
X218862914Y-193214342D01*
X220362914Y-193785771D02*
X219505771Y-193785771D01*
X219934342Y-193785771D02*
X219934342Y-192285771D01*
X219791485Y-192500057D01*
X219648628Y-192642914D01*
X219505771Y-192714342D01*
X221720057Y-192285771D02*
X221005771Y-192285771D01*
X220934342Y-193000057D01*
X221005771Y-192928628D01*
X221148628Y-192857200D01*
X221505771Y-192857200D01*
X221648628Y-192928628D01*
X221720057Y-193000057D01*
X221791485Y-193142914D01*
X221791485Y-193500057D01*
X221720057Y-193642914D01*
X221648628Y-193714342D01*
X221505771Y-193785771D01*
X221148628Y-193785771D01*
X221005771Y-193714342D01*
X220934342Y-193642914D01*
D10*
D11*
X177002200Y-194507200D02*
X285002200Y-194507200D01*
D10*
D11*
X178434342Y-196585771D02*
X178434342Y-195085771D01*
X179291485Y-196585771D02*
X178648628Y-195728628D01*
X179291485Y-195085771D02*
X178434342Y-195942914D01*
X179934342Y-196585771D02*
X179934342Y-195585771D01*
X179934342Y-195085771D02*
X179862914Y-195157200D01*
X179934342Y-195228628D01*
X180005771Y-195157200D01*
X179934342Y-195085771D01*
X179934342Y-195228628D01*
X181505771Y-196442914D02*
X181434342Y-196514342D01*
X181220057Y-196585771D01*
X181077200Y-196585771D01*
X180862914Y-196514342D01*
X180720057Y-196371485D01*
X180648628Y-196228628D01*
X180577200Y-195942914D01*
X180577200Y-195728628D01*
X180648628Y-195442914D01*
X180720057Y-195300057D01*
X180862914Y-195157200D01*
X181077200Y-195085771D01*
X181220057Y-195085771D01*
X181434342Y-195157200D01*
X181505771Y-195228628D01*
X182791485Y-196585771D02*
X182791485Y-195800057D01*
X182720057Y-195657200D01*
X182577200Y-195585771D01*
X182291485Y-195585771D01*
X182148628Y-195657200D01*
X182791485Y-196514342D02*
X182648628Y-196585771D01*
X182291485Y-196585771D01*
X182148628Y-196514342D01*
X182077200Y-196371485D01*
X182077200Y-196228628D01*
X182148628Y-196085771D01*
X182291485Y-196014342D01*
X182648628Y-196014342D01*
X182791485Y-195942914D01*
X184148628Y-196585771D02*
X184148628Y-195085771D01*
X184148628Y-196514342D02*
X184005771Y-196585771D01*
X183720057Y-196585771D01*
X183577200Y-196514342D01*
X183505771Y-196442914D01*
X183434342Y-196300057D01*
X183434342Y-195871485D01*
X183505771Y-195728628D01*
X183577200Y-195657200D01*
X183720057Y-195585771D01*
X184005771Y-195585771D01*
X184148628Y-195657200D01*
X186005771Y-195800057D02*
X186505771Y-195800057D01*
X186720057Y-196585771D02*
X186005771Y-196585771D01*
X186005771Y-195085771D01*
X186720057Y-195085771D01*
X187362914Y-196442914D02*
X187434342Y-196514342D01*
X187362914Y-196585771D01*
X187291485Y-196514342D01*
X187362914Y-196442914D01*
X187362914Y-196585771D01*
X188077200Y-196585771D02*
X188077200Y-195085771D01*
X188434342Y-195085771D01*
X188648628Y-195157200D01*
X188791485Y-195300057D01*
X188862914Y-195442914D01*
X188934342Y-195728628D01*
X188934342Y-195942914D01*
X188862914Y-196228628D01*
X188791485Y-196371485D01*
X188648628Y-196514342D01*
X188434342Y-196585771D01*
X188077200Y-196585771D01*
X189577200Y-196442914D02*
X189648628Y-196514342D01*
X189577200Y-196585771D01*
X189505771Y-196514342D01*
X189577200Y-196442914D01*
X189577200Y-196585771D01*
X190220057Y-196157200D02*
X190934342Y-196157200D01*
X190077200Y-196585771D02*
X190577200Y-195085771D01*
X191077200Y-196585771D01*
X191577200Y-196442914D02*
X191648628Y-196514342D01*
X191577200Y-196585771D01*
X191505771Y-196514342D01*
X191577200Y-196442914D01*
X191577200Y-196585771D01*
X194577200Y-196585771D02*
X194577200Y-195085771D01*
X194720057Y-196014342D02*
X195148628Y-196585771D01*
X195148628Y-195585771D02*
X194577200Y-196157200D01*
X195791485Y-196585771D02*
X195791485Y-195585771D01*
X195791485Y-195085771D02*
X195720057Y-195157200D01*
X195791485Y-195228628D01*
X195862914Y-195157200D01*
X195791485Y-195085771D01*
X195791485Y-195228628D01*
X197148628Y-196514342D02*
X197005771Y-196585771D01*
X196720057Y-196585771D01*
X196577200Y-196514342D01*
X196505771Y-196442914D01*
X196434342Y-196300057D01*
X196434342Y-195871485D01*
X196505771Y-195728628D01*
X196577200Y-195657200D01*
X196720057Y-195585771D01*
X197005771Y-195585771D01*
X197148628Y-195657200D01*
X198434342Y-196585771D02*
X198434342Y-195800057D01*
X198362914Y-195657200D01*
X198220057Y-195585771D01*
X197934342Y-195585771D01*
X197791485Y-195657200D01*
X198434342Y-196514342D02*
X198291485Y-196585771D01*
X197934342Y-196585771D01*
X197791485Y-196514342D01*
X197720057Y-196371485D01*
X197720057Y-196228628D01*
X197791485Y-196085771D01*
X197934342Y-196014342D01*
X198291485Y-196014342D01*
X198434342Y-195942914D01*
X199791485Y-196585771D02*
X199791485Y-195085771D01*
X199791485Y-196514342D02*
X199648628Y-196585771D01*
X199362914Y-196585771D01*
X199220057Y-196514342D01*
X199148628Y-196442914D01*
X199077200Y-196300057D01*
X199077200Y-195871485D01*
X199148628Y-195728628D01*
X199220057Y-195657200D01*
X199362914Y-195585771D01*
X199648628Y-195585771D01*
X199791485Y-195657200D01*
X202077200Y-197157200D02*
X202005771Y-197085771D01*
X201862914Y-196871485D01*
X201791485Y-196728628D01*
X201720057Y-196514342D01*
X201648628Y-196157200D01*
X201648628Y-195871485D01*
X201720057Y-195514342D01*
X201791485Y-195300057D01*
X201862914Y-195157200D01*
X202005771Y-194942914D01*
X202077200Y-194871485D01*
X203291485Y-195085771D02*
X203005771Y-195085771D01*
X202862914Y-195157200D01*
X202791485Y-195228628D01*
X202648628Y-195442914D01*
X202577200Y-195728628D01*
X202577200Y-196300057D01*
X202648628Y-196442914D01*
X202720057Y-196514342D01*
X202862914Y-196585771D01*
X203148628Y-196585771D01*
X203291485Y-196514342D01*
X203362914Y-196442914D01*
X203434342Y-196300057D01*
X203434342Y-195942914D01*
X203362914Y-195800057D01*
X203291485Y-195728628D01*
X203148628Y-195657200D01*
X202862914Y-195657200D01*
X202720057Y-195728628D01*
X202648628Y-195800057D01*
X202577200Y-195942914D01*
X204077200Y-196442914D02*
X204148628Y-196514342D01*
X204077200Y-196585771D01*
X204005771Y-196514342D01*
X204077200Y-196442914D01*
X204077200Y-196585771D01*
X205077200Y-195085771D02*
X205220057Y-195085771D01*
X205362914Y-195157200D01*
X205434342Y-195228628D01*
X205505771Y-195371485D01*
X205577200Y-195657200D01*
X205577200Y-196014342D01*
X205505771Y-196300057D01*
X205434342Y-196442914D01*
X205362914Y-196514342D01*
X205220057Y-196585771D01*
X205077200Y-196585771D01*
X204934342Y-196514342D01*
X204862914Y-196442914D01*
X204791485Y-196300057D01*
X204720057Y-196014342D01*
X204720057Y-195657200D01*
X204791485Y-195371485D01*
X204862914Y-195228628D01*
X204934342Y-195157200D01*
X205077200Y-195085771D01*
X206220057Y-196442914D02*
X206291485Y-196514342D01*
X206220057Y-196585771D01*
X206148628Y-196514342D01*
X206220057Y-196442914D01*
X206220057Y-196585771D01*
X207577200Y-195585771D02*
X207577200Y-196585771D01*
X207220057Y-195014342D02*
X206862914Y-196085771D01*
X207791485Y-196085771D01*
X208220057Y-197157200D02*
X208291485Y-197085771D01*
X208434342Y-196871485D01*
X208505771Y-196728628D01*
X208577200Y-196514342D01*
X208648628Y-196157200D01*
X208648628Y-195871485D01*
X208577200Y-195514342D01*
X208505771Y-195300057D01*
X208434342Y-195157200D01*
X208291485Y-194942914D01*
X208220057Y-194871485D01*
D10*
D11*
X177002200Y-191507200D02*
X285002200Y-191507200D01*
D10*
D12*
X264411485Y-193785771D02*
X263911485Y-193071485D01*
X263554342Y-193785771D02*
X263554342Y-192285771D01*
X264125771Y-192285771D01*
X264268628Y-192357200D01*
X264340057Y-192428628D01*
X264411485Y-192571485D01*
X264411485Y-192785771D01*
X264340057Y-192928628D01*
X264268628Y-193000057D01*
X264125771Y-193071485D01*
X263554342Y-193071485D01*
X265625771Y-193714342D02*
X265482914Y-193785771D01*
X265197200Y-193785771D01*
X265054342Y-193714342D01*
X264982914Y-193571485D01*
X264982914Y-193000057D01*
X265054342Y-192857200D01*
X265197200Y-192785771D01*
X265482914Y-192785771D01*
X265625771Y-192857200D01*
X265697200Y-193000057D01*
X265697200Y-193142914D01*
X264982914Y-193285771D01*
X266197200Y-192785771D02*
X266554342Y-193785771D01*
X266911485Y-192785771D01*
X267482914Y-193642914D02*
X267554342Y-193714342D01*
X267482914Y-193785771D01*
X267411485Y-193714342D01*
X267482914Y-193642914D01*
X267482914Y-193785771D01*
X267482914Y-192857200D02*
X267554342Y-192928628D01*
X267482914Y-193000057D01*
X267411485Y-192928628D01*
X267482914Y-192857200D01*
X267482914Y-193000057D01*
X269625771Y-192285771D02*
X269768628Y-192285771D01*
X269911485Y-192357200D01*
X269982914Y-192428628D01*
X270054342Y-192571485D01*
X270125771Y-192857200D01*
X270125771Y-193214342D01*
X270054342Y-193500057D01*
X269982914Y-193642914D01*
X269911485Y-193714342D01*
X269768628Y-193785771D01*
X269625771Y-193785771D01*
X269482914Y-193714342D01*
X269411485Y-193642914D01*
X269340057Y-193500057D01*
X269268628Y-193214342D01*
X269268628Y-192857200D01*
X269340057Y-192571485D01*
X269411485Y-192428628D01*
X269482914Y-192357200D01*
X269625771Y-192285771D01*
X270768628Y-193642914D02*
X270840057Y-193714342D01*
X270768628Y-193785771D01*
X270697200Y-193714342D01*
X270768628Y-193642914D01*
X270768628Y-193785771D01*
X272125771Y-192285771D02*
X271840057Y-192285771D01*
X271697200Y-192357200D01*
X271625771Y-192428628D01*
X271482914Y-192642914D01*
X271411485Y-192928628D01*
X271411485Y-193500057D01*
X271482914Y-193642914D01*
X271554342Y-193714342D01*
X271697200Y-193785771D01*
X271982914Y-193785771D01*
X272125771Y-193714342D01*
X272197200Y-193642914D01*
X272268628Y-193500057D01*
X272268628Y-193142914D01*
X272197200Y-193000057D01*
X272125771Y-192928628D01*
X271982914Y-192857200D01*
X271697200Y-192857200D01*
X271554342Y-192928628D01*
X271482914Y-193000057D01*
X271411485Y-193142914D01*
D10*
D11*
X178362914Y-193714342D02*
X178577200Y-193785771D01*
X178934342Y-193785771D01*
X179077200Y-193714342D01*
X179148628Y-193642914D01*
X179220057Y-193500057D01*
X179220057Y-193357200D01*
X179148628Y-193214342D01*
X179077200Y-193142914D01*
X178934342Y-193071485D01*
X178648628Y-193000057D01*
X178505771Y-192928628D01*
X178434342Y-192857200D01*
X178362914Y-192714342D01*
X178362914Y-192571485D01*
X178434342Y-192428628D01*
X178505771Y-192357200D01*
X178648628Y-192285771D01*
X179005771Y-192285771D01*
X179220057Y-192357200D01*
X179862914Y-193785771D02*
X179862914Y-192785771D01*
X179862914Y-192285771D02*
X179791485Y-192357200D01*
X179862914Y-192428628D01*
X179934342Y-192357200D01*
X179862914Y-192285771D01*
X179862914Y-192428628D01*
X180434342Y-192785771D02*
X181220057Y-192785771D01*
X180434342Y-193785771D01*
X181220057Y-193785771D01*
X182362914Y-193714342D02*
X182220057Y-193785771D01*
X181934342Y-193785771D01*
X181791485Y-193714342D01*
X181720057Y-193571485D01*
X181720057Y-193000057D01*
X181791485Y-192857200D01*
X181934342Y-192785771D01*
X182220057Y-192785771D01*
X182362914Y-192857200D01*
X182434342Y-193000057D01*
X182434342Y-193142914D01*
X181720057Y-193285771D01*
X183077200Y-193642914D02*
X183148628Y-193714342D01*
X183077200Y-193785771D01*
X183005771Y-193714342D01*
X183077200Y-193642914D01*
X183077200Y-193785771D01*
X183077200Y-192857200D02*
X183148628Y-192928628D01*
X183077200Y-193000057D01*
X183005771Y-192928628D01*
X183077200Y-192857200D01*
X183077200Y-193000057D01*
X184862914Y-193357200D02*
X185577200Y-193357200D01*
X184720057Y-193785771D02*
X185220057Y-192285771D01*
X185720057Y-193785771D01*
X186862914Y-192785771D02*
X186862914Y-193785771D01*
X186505771Y-192214342D02*
X186148628Y-193285771D01*
X187077200Y-193285771D01*
D10*
D11*
X263434342Y-196585771D02*
X263434342Y-195085771D01*
X264791485Y-196585771D02*
X264791485Y-195085771D01*
X264791485Y-196514342D02*
X264648628Y-196585771D01*
X264362914Y-196585771D01*
X264220057Y-196514342D01*
X264148628Y-196442914D01*
X264077200Y-196300057D01*
X264077200Y-195871485D01*
X264148628Y-195728628D01*
X264220057Y-195657200D01*
X264362914Y-195585771D01*
X264648628Y-195585771D01*
X264791485Y-195657200D01*
X265505771Y-196442914D02*
X265577200Y-196514342D01*
X265505771Y-196585771D01*
X265434342Y-196514342D01*
X265505771Y-196442914D01*
X265505771Y-196585771D01*
X265505771Y-195657200D02*
X265577200Y-195728628D01*
X265505771Y-195800057D01*
X265434342Y-195728628D01*
X265505771Y-195657200D01*
X265505771Y-195800057D01*
X268148628Y-196585771D02*
X267291485Y-196585771D01*
X267720057Y-196585771D02*
X267720057Y-195085771D01*
X267577200Y-195300057D01*
X267434342Y-195442914D01*
X267291485Y-195514342D01*
X269862914Y-195014342D02*
X268577200Y-196942914D01*
X271148628Y-196585771D02*
X270291485Y-196585771D01*
X270720057Y-196585771D02*
X270720057Y-195085771D01*
X270577200Y-195300057D01*
X270434342Y-195442914D01*
X270291485Y-195514342D01*
D10*
D11*
X177002200Y-187507200D02*
X285002200Y-187507200D01*
D10*
D13*
X178714580Y-188211961D02*
X179857438Y-188211961D01*
X179036009Y-190211961D02*
X179286009Y-188211961D01*
X180274104Y-190211961D02*
X180440771Y-188878628D01*
X180524104Y-188211961D02*
X180416961Y-188307200D01*
X180500295Y-188402438D01*
X180607438Y-188307200D01*
X180524104Y-188211961D01*
X180500295Y-188402438D01*
X181107438Y-188878628D02*
X181869342Y-188878628D01*
X181476485Y-188211961D02*
X181262200Y-189926247D01*
X181333628Y-190116723D01*
X181512200Y-190211961D01*
X181702676Y-190211961D01*
X182655057Y-190211961D02*
X182476485Y-190116723D01*
X182405057Y-189926247D01*
X182619342Y-188211961D01*
X184190771Y-190116723D02*
X183988390Y-190211961D01*
X183607438Y-190211961D01*
X183428866Y-190116723D01*
X183357438Y-189926247D01*
X183452676Y-189164342D01*
X183571723Y-188973866D01*
X183774104Y-188878628D01*
X184155057Y-188878628D01*
X184333628Y-188973866D01*
X184405057Y-189164342D01*
X184381247Y-189354819D01*
X183405057Y-189545295D01*
X185155057Y-190021485D02*
X185238390Y-190116723D01*
X185131247Y-190211961D01*
X185047914Y-190116723D01*
X185155057Y-190021485D01*
X185131247Y-190211961D01*
X185286009Y-188973866D02*
X185369342Y-189069104D01*
X185262200Y-189164342D01*
X185178866Y-189069104D01*
X185286009Y-188973866D01*
X185262200Y-189164342D01*
X187524104Y-190116723D02*
X187797914Y-190211961D01*
X188274104Y-190211961D01*
X188476485Y-190116723D01*
X188583628Y-190021485D01*
X188702676Y-189831009D01*
X188726485Y-189640533D01*
X188655057Y-189450057D01*
X188571723Y-189354819D01*
X188393152Y-189259580D01*
X188024104Y-189164342D01*
X187845533Y-189069104D01*
X187762200Y-188973866D01*
X187690771Y-188783390D01*
X187714580Y-188592914D01*
X187833628Y-188402438D01*
X187940771Y-188307200D01*
X188143152Y-188211961D01*
X188619342Y-188211961D01*
X188893152Y-188307200D01*
X189571723Y-188211961D02*
X189797914Y-190211961D01*
X190357438Y-188783390D01*
X190559819Y-190211961D01*
X191286009Y-188211961D01*
X191893152Y-189450057D02*
X193416961Y-189450057D01*
X194274104Y-190211961D02*
X194524104Y-188211961D01*
X195012200Y-189640533D01*
X195857438Y-188211961D01*
X195607438Y-190211961D01*
X197333628Y-190116723D02*
X197131247Y-190211961D01*
X196750295Y-190211961D01*
X196571723Y-190116723D01*
X196500295Y-189926247D01*
X196595533Y-189164342D01*
X196714580Y-188973866D01*
X196916961Y-188878628D01*
X197297914Y-188878628D01*
X197476485Y-188973866D01*
X197547914Y-189164342D01*
X197524104Y-189354819D01*
X196547914Y-189545295D01*
X198155057Y-188878628D02*
X198916961Y-188878628D01*
X198524104Y-188211961D02*
X198309819Y-189926247D01*
X198381247Y-190116723D01*
X198559819Y-190211961D01*
X198750295Y-190211961D01*
X200190771Y-190116723D02*
X199988390Y-190211961D01*
X199607438Y-190211961D01*
X199428866Y-190116723D01*
X199357438Y-189926247D01*
X199452676Y-189164342D01*
X199571723Y-188973866D01*
X199774104Y-188878628D01*
X200155057Y-188878628D01*
X200333628Y-188973866D01*
X200405057Y-189164342D01*
X200381247Y-189354819D01*
X199405057Y-189545295D01*
X201131247Y-190211961D02*
X201297914Y-188878628D01*
X201250295Y-189259580D02*
X201369342Y-189069104D01*
X201476485Y-188973866D01*
X201678866Y-188878628D01*
X201869342Y-188878628D01*
D10*
D11*
X178934342Y-185600057D02*
X178434342Y-185600057D01*
X178434342Y-186385771D02*
X178434342Y-184885771D01*
X179148628Y-184885771D01*
X179720057Y-186385771D02*
X179720057Y-185385771D01*
X179720057Y-184885771D02*
X179648628Y-184957200D01*
X179720057Y-185028628D01*
X179791485Y-184957200D01*
X179720057Y-184885771D01*
X179720057Y-185028628D01*
X180648628Y-186385771D02*
X180505771Y-186314342D01*
X180434342Y-186171485D01*
X180434342Y-184885771D01*
X181791485Y-186314342D02*
X181648628Y-186385771D01*
X181362914Y-186385771D01*
X181220057Y-186314342D01*
X181148628Y-186171485D01*
X181148628Y-185600057D01*
X181220057Y-185457200D01*
X181362914Y-185385771D01*
X181648628Y-185385771D01*
X181791485Y-185457200D01*
X181862914Y-185600057D01*
X181862914Y-185742914D01*
X181148628Y-185885771D01*
X182505771Y-186242914D02*
X182577200Y-186314342D01*
X182505771Y-186385771D01*
X182434342Y-186314342D01*
X182505771Y-186242914D01*
X182505771Y-186385771D01*
X182505771Y-185457200D02*
X182577200Y-185528628D01*
X182505771Y-185600057D01*
X182434342Y-185528628D01*
X182505771Y-185457200D01*
X182505771Y-185600057D01*
X184291485Y-186314342D02*
X184434342Y-186385771D01*
X184720057Y-186385771D01*
X184862914Y-186314342D01*
X184934342Y-186171485D01*
X184934342Y-186100057D01*
X184862914Y-185957200D01*
X184720057Y-185885771D01*
X184505771Y-185885771D01*
X184362914Y-185814342D01*
X184291485Y-185671485D01*
X184291485Y-185600057D01*
X184362914Y-185457200D01*
X184505771Y-185385771D01*
X184720057Y-185385771D01*
X184862914Y-185457200D01*
X185434342Y-185385771D02*
X185720057Y-186385771D01*
X186005771Y-185671485D01*
X186291485Y-186385771D01*
X186577200Y-185385771D01*
X187148628Y-186385771D02*
X187148628Y-185385771D01*
X187148628Y-185528628D02*
X187220057Y-185457200D01*
X187362914Y-185385771D01*
X187577200Y-185385771D01*
X187720057Y-185457200D01*
X187791485Y-185600057D01*
X187791485Y-186385771D01*
X187791485Y-185600057D02*
X187862914Y-185457200D01*
X188005771Y-185385771D01*
X188220057Y-185385771D01*
X188362914Y-185457200D01*
X188434342Y-185600057D01*
X188434342Y-186385771D01*
X189720057Y-186314342D02*
X189577200Y-186385771D01*
X189291485Y-186385771D01*
X189148628Y-186314342D01*
X189077200Y-186171485D01*
X189077200Y-185600057D01*
X189148628Y-185457200D01*
X189291485Y-185385771D01*
X189577200Y-185385771D01*
X189720057Y-185457200D01*
X189791485Y-185600057D01*
X189791485Y-185742914D01*
X189077200Y-185885771D01*
X190220057Y-185385771D02*
X190791485Y-185385771D01*
X190434342Y-184885771D02*
X190434342Y-186171485D01*
X190505771Y-186314342D01*
X190648628Y-186385771D01*
X190791485Y-186385771D01*
X191862914Y-186314342D02*
X191720057Y-186385771D01*
X191434342Y-186385771D01*
X191291485Y-186314342D01*
X191220057Y-186171485D01*
X191220057Y-185600057D01*
X191291485Y-185457200D01*
X191434342Y-185385771D01*
X191720057Y-185385771D01*
X191862914Y-185457200D01*
X191934342Y-185600057D01*
X191934342Y-185742914D01*
X191220057Y-185885771D01*
X192577200Y-186385771D02*
X192577200Y-185385771D01*
X192577200Y-185671485D02*
X192648628Y-185528628D01*
X192720057Y-185457200D01*
X192862914Y-185385771D01*
X193005771Y-185385771D01*
X193505771Y-186242914D02*
X193577200Y-186314342D01*
X193505771Y-186385771D01*
X193434342Y-186314342D01*
X193505771Y-186242914D01*
X193505771Y-186385771D01*
X194220057Y-186385771D02*
X194220057Y-184885771D01*
X194362914Y-185814342D02*
X194791485Y-186385771D01*
X194791485Y-185385771D02*
X194220057Y-185957200D01*
X195434342Y-186385771D02*
X195434342Y-185385771D01*
X195434342Y-184885771D02*
X195362914Y-184957200D01*
X195434342Y-185028628D01*
X195505771Y-184957200D01*
X195434342Y-184885771D01*
X195434342Y-185028628D01*
X196791485Y-186314342D02*
X196648628Y-186385771D01*
X196362914Y-186385771D01*
X196220057Y-186314342D01*
X196148628Y-186242914D01*
X196077200Y-186100057D01*
X196077200Y-185671485D01*
X196148628Y-185528628D01*
X196220057Y-185457200D01*
X196362914Y-185385771D01*
X196648628Y-185385771D01*
X196791485Y-185457200D01*
X198077200Y-186385771D02*
X198077200Y-185600057D01*
X198005771Y-185457200D01*
X197862914Y-185385771D01*
X197577200Y-185385771D01*
X197434342Y-185457200D01*
X198077200Y-186314342D02*
X197934342Y-186385771D01*
X197577200Y-186385771D01*
X197434342Y-186314342D01*
X197362914Y-186171485D01*
X197362914Y-186028628D01*
X197434342Y-185885771D01*
X197577200Y-185814342D01*
X197934342Y-185814342D01*
X198077200Y-185742914D01*
X199434342Y-186385771D02*
X199434342Y-184885771D01*
X199434342Y-186314342D02*
X199291485Y-186385771D01*
X199005771Y-186385771D01*
X198862914Y-186314342D01*
X198791485Y-186242914D01*
X198720057Y-186100057D01*
X198720057Y-185671485D01*
X198791485Y-185528628D01*
X198862914Y-185457200D01*
X199005771Y-185385771D01*
X199291485Y-185385771D01*
X199434342Y-185457200D01*
X199791485Y-186528628D02*
X200934342Y-186528628D01*
X201291485Y-185385771D02*
X201291485Y-186885771D01*
X201291485Y-185457200D02*
X201434342Y-185385771D01*
X201720057Y-185385771D01*
X201862914Y-185457200D01*
X201934342Y-185528628D01*
X202005771Y-185671485D01*
X202005771Y-186100057D01*
X201934342Y-186242914D01*
X201862914Y-186314342D01*
X201720057Y-186385771D01*
X201434342Y-186385771D01*
X201291485Y-186314342D01*
X203291485Y-186314342D02*
X203148628Y-186385771D01*
X202862914Y-186385771D01*
X202720057Y-186314342D01*
X202648628Y-186242914D01*
X202577200Y-186100057D01*
X202577200Y-185671485D01*
X202648628Y-185528628D01*
X202720057Y-185457200D01*
X202862914Y-185385771D01*
X203148628Y-185385771D01*
X203291485Y-185457200D01*
X203934342Y-186385771D02*
X203934342Y-184885771D01*
X203934342Y-185457200D02*
X204077200Y-185385771D01*
X204362914Y-185385771D01*
X204505771Y-185457200D01*
X204577200Y-185528628D01*
X204648628Y-185671485D01*
X204648628Y-186100057D01*
X204577200Y-186242914D01*
X204505771Y-186314342D01*
X204362914Y-186385771D01*
X204077200Y-186385771D01*
X203934342Y-186314342D01*
D10*
D11*
X177002200Y-181507200D02*
X285002200Y-181507200D01*
D10*
D11*
X178362914Y-183614342D02*
X178577200Y-183685771D01*
X178934342Y-183685771D01*
X179077200Y-183614342D01*
X179148628Y-183542914D01*
X179220057Y-183400057D01*
X179220057Y-183257200D01*
X179148628Y-183114342D01*
X179077200Y-183042914D01*
X178934342Y-182971485D01*
X178648628Y-182900057D01*
X178505771Y-182828628D01*
X178434342Y-182757200D01*
X178362914Y-182614342D01*
X178362914Y-182471485D01*
X178434342Y-182328628D01*
X178505771Y-182257200D01*
X178648628Y-182185771D01*
X179005771Y-182185771D01*
X179220057Y-182257200D01*
X179862914Y-183685771D02*
X179862914Y-182185771D01*
X180505771Y-183685771D02*
X180505771Y-182900057D01*
X180434342Y-182757200D01*
X180291485Y-182685771D01*
X180077200Y-182685771D01*
X179934342Y-182757200D01*
X179862914Y-182828628D01*
X181791485Y-183614342D02*
X181648628Y-183685771D01*
X181362914Y-183685771D01*
X181220057Y-183614342D01*
X181148628Y-183471485D01*
X181148628Y-182900057D01*
X181220057Y-182757200D01*
X181362914Y-182685771D01*
X181648628Y-182685771D01*
X181791485Y-182757200D01*
X181862914Y-182900057D01*
X181862914Y-183042914D01*
X181148628Y-183185771D01*
X183077200Y-183614342D02*
X182934342Y-183685771D01*
X182648628Y-183685771D01*
X182505771Y-183614342D01*
X182434342Y-183471485D01*
X182434342Y-182900057D01*
X182505771Y-182757200D01*
X182648628Y-182685771D01*
X182934342Y-182685771D01*
X183077200Y-182757200D01*
X183148628Y-182900057D01*
X183148628Y-183042914D01*
X182434342Y-183185771D01*
X183577200Y-182685771D02*
X184148628Y-182685771D01*
X183791485Y-182185771D02*
X183791485Y-183471485D01*
X183862914Y-183614342D01*
X184005771Y-183685771D01*
X184148628Y-183685771D01*
X184648628Y-183542914D02*
X184720057Y-183614342D01*
X184648628Y-183685771D01*
X184577200Y-183614342D01*
X184648628Y-183542914D01*
X184648628Y-183685771D01*
X184648628Y-182757200D02*
X184720057Y-182828628D01*
X184648628Y-182900057D01*
X184577200Y-182828628D01*
X184648628Y-182757200D01*
X184648628Y-182900057D01*
D10*
D12*
X179768628Y-179542914D02*
X179625771Y-179471485D01*
X179340057Y-179471485D01*
X179197200Y-179542914D01*
X179054342Y-179685771D01*
X178982914Y-179828628D01*
X178982914Y-180114342D01*
X179054342Y-180257200D01*
X179197200Y-180400057D01*
X179340057Y-180471485D01*
X179625771Y-180471485D01*
X179768628Y-180400057D01*
X179482914Y-178971485D02*
X179125771Y-179042914D01*
X178768628Y-179257200D01*
X178554342Y-179614342D01*
X178482914Y-179971485D01*
X178554342Y-180328628D01*
X178768628Y-180685771D01*
X179125771Y-180900057D01*
X179482914Y-180971485D01*
X179840057Y-180900057D01*
X180197200Y-180685771D01*
X180411485Y-180328628D01*
X180482914Y-179971485D01*
X180411485Y-179614342D01*
X180197200Y-179257200D01*
X179840057Y-179042914D01*
X179482914Y-178971485D01*
X182125771Y-179185771D02*
X182482914Y-180685771D01*
X182768628Y-179614342D01*
X183054342Y-180685771D01*
X183411485Y-179185771D01*
X184197200Y-180685771D02*
X184054342Y-180614342D01*
X183982914Y-180542914D01*
X183911485Y-180400057D01*
X183911485Y-179971485D01*
X183982914Y-179828628D01*
X184054342Y-179757200D01*
X184197200Y-179685771D01*
X184411485Y-179685771D01*
X184554342Y-179757200D01*
X184625771Y-179828628D01*
X184697200Y-179971485D01*
X184697200Y-180400057D01*
X184625771Y-180542914D01*
X184554342Y-180614342D01*
X184411485Y-180685771D01*
X184197200Y-180685771D01*
X185982914Y-180685771D02*
X185982914Y-179185771D01*
X185982914Y-180614342D02*
X185840057Y-180685771D01*
X185554342Y-180685771D01*
X185411485Y-180614342D01*
X185340057Y-180542914D01*
X185268628Y-180400057D01*
X185268628Y-179971485D01*
X185340057Y-179828628D01*
X185411485Y-179757200D01*
X185554342Y-179685771D01*
X185840057Y-179685771D01*
X185982914Y-179757200D01*
X186911485Y-180685771D02*
X186768628Y-180614342D01*
X186697200Y-180542914D01*
X186625771Y-180400057D01*
X186625771Y-179971485D01*
X186697200Y-179828628D01*
X186768628Y-179757200D01*
X186911485Y-179685771D01*
X187125771Y-179685771D01*
X187268628Y-179757200D01*
X187340057Y-179828628D01*
X187411485Y-179971485D01*
X187411485Y-180400057D01*
X187340057Y-180542914D01*
X187268628Y-180614342D01*
X187125771Y-180685771D01*
X186911485Y-180685771D01*
X187911485Y-179185771D02*
X188268628Y-180685771D01*
X188554342Y-179614342D01*
X188840057Y-180685771D01*
X189197200Y-179185771D01*
X189768628Y-180685771D02*
X189768628Y-179685771D01*
X189768628Y-179185771D02*
X189697200Y-179257200D01*
X189768628Y-179328628D01*
X189840057Y-179257200D01*
X189768628Y-179185771D01*
X189768628Y-179328628D01*
X191054342Y-180614342D02*
X190911485Y-180685771D01*
X190625771Y-180685771D01*
X190482914Y-180614342D01*
X190411485Y-180471485D01*
X190411485Y-179900057D01*
X190482914Y-179757200D01*
X190625771Y-179685771D01*
X190911485Y-179685771D01*
X191054342Y-179757200D01*
X191125771Y-179900057D01*
X191125771Y-180042914D01*
X190411485Y-180185771D01*
X191697200Y-180614342D02*
X191840057Y-180685771D01*
X192125771Y-180685771D01*
X192268628Y-180614342D01*
X192340057Y-180471485D01*
X192340057Y-180400057D01*
X192268628Y-180257200D01*
X192125771Y-180185771D01*
X191911485Y-180185771D01*
X191768628Y-180114342D01*
X191697200Y-179971485D01*
X191697200Y-179900057D01*
X191768628Y-179757200D01*
X191911485Y-179685771D01*
X192125771Y-179685771D01*
X192268628Y-179757200D01*
X193554342Y-180614342D02*
X193411485Y-180685771D01*
X193125771Y-180685771D01*
X192982914Y-180614342D01*
X192911485Y-180471485D01*
X192911485Y-179900057D01*
X192982914Y-179757200D01*
X193125771Y-179685771D01*
X193411485Y-179685771D01*
X193554342Y-179757200D01*
X193625771Y-179900057D01*
X193625771Y-180042914D01*
X192911485Y-180185771D01*
X194482914Y-180685771D02*
X194340057Y-180614342D01*
X194268628Y-180471485D01*
X194268628Y-179185771D01*
D10*
D11*
D10*
D11*
D10*
D11*
D10*
D11*
D10*
D11*
X197002200Y-191507200D02*
X197002200Y-194507200D01*
D10*
D11*
X261002200Y-191507200D02*
X261002200Y-198007200D01*
D14*
X234258000Y-116706000D02*
G75*
G03*
X233058000Y-116706000I-600000J0D01*
G01*
X262110000Y-84390000D02*
X209130000Y-84390000D01*
X209130000Y-84390000D02*
X209130000Y-150370000D01*
X209130000Y-150370000D02*
X262110000Y-150370000D01*
X262110000Y-150370000D02*
X262110000Y-84390000D01*
X233058000Y-118506000D02*
G75*
G03*
X234258000Y-118506000I600000J0D01*
G01*
X233058000Y-116706000D02*
X233058000Y-118506000D01*
X234258000Y-116706000D02*
X234258000Y-118506000D01*
D11*
%TO.C,REF99\u002A\u002A*%
X219544285Y-124082380D02*
X219210952Y-123606190D01*
X218972857Y-124082380D02*
X218972857Y-123082380D01*
X219353809Y-123082380D01*
X219449047Y-123130000D01*
X219496666Y-123177619D01*
X219544285Y-123272857D01*
X219544285Y-123415714D01*
X219496666Y-123510952D01*
X219449047Y-123558571D01*
X219353809Y-123606190D01*
X218972857Y-123606190D01*
X219972857Y-123558571D02*
X220306190Y-123558571D01*
X220449047Y-124082380D02*
X219972857Y-124082380D01*
X219972857Y-123082380D01*
X220449047Y-123082380D01*
X221210952Y-123558571D02*
X220877619Y-123558571D01*
X220877619Y-124082380D02*
X220877619Y-123082380D01*
X221353809Y-123082380D01*
X221782380Y-124082380D02*
X221972857Y-124082380D01*
X222068095Y-124034761D01*
X222115714Y-123987142D01*
X222210952Y-123844285D01*
X222258571Y-123653809D01*
X222258571Y-123272857D01*
X222210952Y-123177619D01*
X222163333Y-123130000D01*
X222068095Y-123082380D01*
X221877619Y-123082380D01*
X221782380Y-123130000D01*
X221734761Y-123177619D01*
X221687142Y-123272857D01*
X221687142Y-123510952D01*
X221734761Y-123606190D01*
X221782380Y-123653809D01*
X221877619Y-123701428D01*
X222068095Y-123701428D01*
X222163333Y-123653809D01*
X222210952Y-123606190D01*
X222258571Y-123510952D01*
X222734761Y-124082380D02*
X222925238Y-124082380D01*
X223020476Y-124034761D01*
X223068095Y-123987142D01*
X223163333Y-123844285D01*
X223210952Y-123653809D01*
X223210952Y-123272857D01*
X223163333Y-123177619D01*
X223115714Y-123130000D01*
X223020476Y-123082380D01*
X222830000Y-123082380D01*
X222734761Y-123130000D01*
X222687142Y-123177619D01*
X222639523Y-123272857D01*
X222639523Y-123510952D01*
X222687142Y-123606190D01*
X222734761Y-123653809D01*
X222830000Y-123701428D01*
X223020476Y-123701428D01*
X223115714Y-123653809D01*
X223163333Y-123606190D01*
X223210952Y-123510952D01*
X223782380Y-123082380D02*
X223782380Y-123320476D01*
X223544285Y-123225238D02*
X223782380Y-123320476D01*
X224020476Y-123225238D01*
X223639523Y-123510952D02*
X223782380Y-123320476D01*
X223925238Y-123510952D01*
X224544285Y-123082380D02*
X224544285Y-123320476D01*
X224306190Y-123225238D02*
X224544285Y-123320476D01*
X224782380Y-123225238D01*
X224401428Y-123510952D02*
X224544285Y-123320476D01*
X224687142Y-123510952D01*
D10*
%TO.C,BAR1*%
X235289496Y-136686493D02*
X260689496Y-136686493D01*
X235289496Y-145576493D02*
X236559496Y-146846493D01*
X260689496Y-146846493D02*
X260689496Y-136686493D01*
X236559496Y-146846493D02*
X260689496Y-146846493D01*
X235289496Y-145576493D02*
X235289496Y-136686493D01*
%TO.C,SW2*%
X249832500Y-93280000D02*
X250832500Y-92280000D01*
X250832500Y-86780000D02*
X250832500Y-92280000D01*
X243432500Y-77780000D02*
X248432500Y-77780000D01*
X237032500Y-93280000D02*
X237032500Y-86780000D01*
X237032500Y-86780000D02*
X250832500Y-86780000D01*
X243432500Y-86780000D02*
X243432500Y-77780000D01*
X249832500Y-93280000D02*
X237032500Y-93280000D01*
X248432500Y-77780000D02*
X248432500Y-86780000D01*
%TO.C,C1*%
X232042554Y-137797500D02*
X231642554Y-137797500D01*
X231842554Y-137997500D02*
X231842554Y-137597500D01*
X232340000Y-136930000D02*
G75*
G03*
X232340000Y-136930000I-2000000J0D01*
G01*
%TO.C,J1*%
X253132500Y-85457500D02*
X253132500Y-87957500D01*
X258882500Y-87957500D02*
X258882500Y-99457500D01*
X258132500Y-87957500D02*
X258882500Y-87957500D01*
X252382500Y-99457500D02*
X252382500Y-87957500D01*
X252382500Y-99457500D02*
X258882500Y-99457500D01*
X252382500Y-87957500D02*
X253132500Y-87957500D01*
X258132500Y-87957500D02*
X258132500Y-85457500D01*
X253132500Y-85457500D02*
X258132500Y-85457500D01*
%TO.C,RV1*%
X240530000Y-108885000D02*
X240530000Y-113385000D01*
X247240000Y-108885000D02*
X240530000Y-108885000D01*
X241750000Y-109273000D02*
X241749000Y-111036000D01*
X241750000Y-109273000D02*
X241749000Y-111036000D01*
X240530000Y-113385000D02*
X247240000Y-113385000D01*
X247240000Y-113385000D02*
X247240000Y-108885000D01*
X242640000Y-110155000D02*
G75*
G03*
X242640000Y-110155000I-890000J0D01*
G01*
%TO.C,SW1*%
X232980500Y-141653500D02*
X232980500Y-148153500D01*
X221580500Y-157153500D02*
X221580500Y-148153500D01*
X232980500Y-148153500D02*
X219180500Y-148153500D01*
X220180500Y-141653500D02*
X232980500Y-141653500D01*
X220180500Y-141653500D02*
X219180500Y-142653500D01*
X226580500Y-157153500D02*
X221580500Y-157153500D01*
X226580500Y-148153500D02*
X226580500Y-157153500D01*
X219180500Y-148153500D02*
X219180500Y-142653500D01*
%TO.C,J3*%
X249250000Y-98750000D02*
X249775000Y-99275000D01*
X249775000Y-100850000D02*
X245965000Y-100850000D01*
X245965000Y-98750000D02*
X249250000Y-98750000D01*
X249775000Y-99275000D02*
X249775000Y-100850000D01*
X245965000Y-100850000D02*
X245965000Y-98750000D01*
%TO.C,SW3*%
X234030000Y-106432500D02*
X234030000Y-107785833D01*
X237495000Y-103572500D02*
X238495000Y-104572500D01*
X231690000Y-110492500D02*
X231690000Y-106432500D01*
X236270000Y-106432500D02*
X236270000Y-107785833D01*
X230990000Y-106432500D02*
X230990000Y-107785833D01*
X231490000Y-106432500D02*
X231490000Y-107785833D01*
X231390000Y-106432500D02*
X231390000Y-107785833D01*
X231690000Y-107785833D02*
X230420000Y-107785833D01*
X230890000Y-106432500D02*
X230890000Y-107785833D01*
X231090000Y-106432500D02*
X231090000Y-107785833D01*
X233530000Y-106432500D02*
X233530000Y-107785833D01*
X230420000Y-106432500D02*
X230420000Y-110492500D01*
X228695000Y-103572500D02*
X237495000Y-103572500D01*
X238495000Y-113352500D02*
X228695000Y-113352500D01*
X233030000Y-106432500D02*
X233030000Y-107785833D01*
X236070000Y-106432500D02*
X236070000Y-107785833D01*
X231290000Y-106432500D02*
X231290000Y-107785833D01*
X231190000Y-106432500D02*
X231190000Y-107785833D01*
X232960000Y-110492500D02*
X234230000Y-110492500D01*
X230490000Y-106432500D02*
X230490000Y-107785833D01*
X235870000Y-106432500D02*
X235870000Y-107785833D01*
X235770000Y-106432500D02*
X235770000Y-107785833D01*
X236770000Y-107785833D02*
X235500000Y-107785833D01*
X234230000Y-107785833D02*
X232960000Y-107785833D01*
X233730000Y-106432500D02*
X233730000Y-107785833D01*
X233130000Y-106432500D02*
X233130000Y-107785833D01*
X233430000Y-106432500D02*
X233430000Y-107785833D01*
X236770000Y-110492500D02*
X236770000Y-106432500D01*
X236770000Y-106432500D02*
X235500000Y-106432500D01*
X233930000Y-106432500D02*
X233930000Y-107785833D01*
X230690000Y-106432500D02*
X230690000Y-107785833D01*
X230420000Y-110492500D02*
X231690000Y-110492500D01*
X230790000Y-106432500D02*
X230790000Y-107785833D01*
X236170000Y-106432500D02*
X236170000Y-107785833D01*
X233330000Y-106432500D02*
X233330000Y-107785833D01*
X231690000Y-106432500D02*
X230420000Y-106432500D01*
X236670000Y-106432500D02*
X236670000Y-107785833D01*
X236370000Y-106432500D02*
X236370000Y-107785833D01*
X228695000Y-113352500D02*
X228695000Y-103572500D01*
X233830000Y-106432500D02*
X233830000Y-107785833D01*
X233230000Y-106432500D02*
X233230000Y-107785833D01*
X234230000Y-106432500D02*
X232960000Y-106432500D01*
X235500000Y-110492500D02*
X236770000Y-110492500D01*
X235570000Y-106432500D02*
X235570000Y-107785833D01*
X234230000Y-110492500D02*
X234230000Y-106432500D01*
X234130000Y-106432500D02*
X234130000Y-107785833D01*
X238495000Y-104572500D02*
X238495000Y-113352500D01*
X232960000Y-106432500D02*
X232960000Y-110492500D01*
X230590000Y-106432500D02*
X230590000Y-107785833D01*
X231590000Y-106432500D02*
X231590000Y-107785833D01*
X236470000Y-106432500D02*
X236470000Y-107785833D01*
X233630000Y-106432500D02*
X233630000Y-107785833D01*
X235670000Y-106432500D02*
X235670000Y-107785833D01*
X236570000Y-106432500D02*
X236570000Y-107785833D01*
X235500000Y-106432500D02*
X235500000Y-110492500D01*
X235970000Y-106432500D02*
X235970000Y-107785833D01*
%TO.C,D0*%
X245610000Y-105400000D02*
X245610000Y-103400000D01*
X242310000Y-105400000D02*
X246310000Y-105400000D01*
X242310000Y-103400000D02*
X242310000Y-105400000D01*
X240500000Y-104400000D02*
X242310000Y-104400000D01*
X246310000Y-105400000D02*
X246310000Y-103400000D01*
X245710000Y-105400000D02*
X245710000Y-103400000D01*
X246310000Y-103400000D02*
X242310000Y-103400000D01*
X248120000Y-104400000D02*
X246310000Y-104400000D01*
X245810000Y-105400000D02*
X245810000Y-103400000D01*
%TO.C,J4*%
X253440000Y-107030000D02*
X253440000Y-104930000D01*
X257250000Y-105455000D02*
X257250000Y-107030000D01*
X257250000Y-107030000D02*
X253440000Y-107030000D01*
X253440000Y-104930000D02*
X256725000Y-104930000D01*
X256725000Y-104930000D02*
X257250000Y-105455000D01*
%TO.C,R1*%
X257382000Y-120772000D02*
X257382000Y-118272000D01*
X251082000Y-120772000D02*
X257382000Y-120772000D01*
X251082000Y-118272000D02*
X251082000Y-120772000D01*
X249152000Y-119522000D02*
X251082000Y-119522000D01*
X257382000Y-118272000D02*
X251082000Y-118272000D01*
X259312000Y-119522000D02*
X257382000Y-119522000D01*
%TO.C,U1*%
X258346000Y-133746000D02*
X258346000Y-123586000D01*
X258286000Y-126491000D02*
X258286000Y-131841000D01*
X235366000Y-133746000D02*
X258346000Y-133746000D01*
X235426000Y-125491000D02*
X257286000Y-125491000D01*
X258286000Y-131841000D02*
X235426000Y-131841000D01*
X258346000Y-123586000D02*
X235366000Y-123586000D01*
X235366000Y-123586000D02*
X235366000Y-133746000D01*
X235426000Y-131841000D02*
X235426000Y-125491000D01*
X257286000Y-125491000D02*
X258286000Y-126491000D01*
%TO.C,J2*%
X222690000Y-87240000D02*
X233690000Y-87240000D01*
X223390000Y-87240000D02*
X223390000Y-75840000D01*
X232990000Y-87240000D02*
X232990000Y-75840000D01*
X233690000Y-87240000D02*
X233690000Y-98240000D01*
X222690000Y-98240000D02*
X222690000Y-87240000D01*
X232990000Y-75840000D02*
X223390000Y-75840000D01*
X233690000Y-98240000D02*
X222690000Y-98240000D01*
X229190000Y-80040000D02*
G75*
G03*
X229190000Y-80040000I-1000000J0D01*
G01*
%TO.C,J0*%
X221125000Y-137050000D02*
X226205000Y-137050000D01*
X226205000Y-139590000D02*
X221760000Y-139590000D01*
X221125000Y-138955000D02*
X221125000Y-137050000D01*
X221760000Y-139590000D02*
X221125000Y-138955000D01*
X226205000Y-137050000D02*
X226205000Y-139590000D01*
%TO.C,RV2*%
X252630000Y-109333000D02*
X252629000Y-111096000D01*
X258120000Y-113445000D02*
X258120000Y-108945000D01*
X252630000Y-109333000D02*
X252629000Y-111096000D01*
X251410000Y-108945000D02*
X251410000Y-113445000D01*
X251410000Y-113445000D02*
X258120000Y-113445000D01*
X258120000Y-108945000D02*
X251410000Y-108945000D01*
X253520000Y-110215000D02*
G75*
G03*
X253520000Y-110215000I-890000J0D01*
G01*
%TD*%
M02*
