%FSLAX45Y45*%
G04 Gerber Fmt 4.5, Leading zero omitted, Abs format (unit mm)*
G04 Created by KiCad (PCBNEW (6.0.4)) date 2022-12-17 16:47:39*
%MOMM*%
%LPD*%
G01*
G04 APERTURE LIST*
%TA.AperFunction,Profile*%
%ADD10C,0.100000*%
%TD*%
%ADD11C,0.200000*%
%ADD12C,0.040000*%
%ADD13C,0.050000*%
%ADD14C,0.065000*%
%ADD15C,0.080000*%
%ADD16C,0.090000*%
%ADD17C,0.100000*%
%ADD18C,0.110000*%
%ADD19C,0.120000*%
%ADD20C,0.150000*%
%ADD21C,0.320000*%
G04 APERTURE END LIST*
D10*
X3006000Y3461000D02*
G75*
G03*
X2886000Y3461000I-60000J0D01*
G01*
X5997000Y6602000D02*
X0Y6602000D01*
X0Y6602000D02*
X0Y0D01*
X0Y0D02*
X5997000Y0D01*
X5997000Y0D02*
X5997000Y6602000D01*
X2886000Y3281000D02*
G75*
G03*
X3006000Y3281000I60000J0D01*
G01*
X261000Y3463000D02*
X261000Y3283000D01*
X2886000Y3461000D02*
X2886000Y3281000D01*
X261000Y3463000D02*
G75*
G03*
X141000Y3463000I-60000J-9760D01*
G01*
X3006000Y3461000D02*
X3006000Y3281000D01*
X141000Y3283000D02*
G75*
G03*
X261000Y3283000I60000J0D01*
G01*
X141000Y3463000D02*
X141000Y3283000D01*
D11*
D12*
X113000Y2857000D02*
X153000Y2817000D01*
X153000Y2857000D02*
X113000Y2817000D01*
X144000Y4385000D02*
X184000Y4345000D01*
X184000Y4385000D02*
X144000Y4345000D01*
X183000Y6429000D02*
X223000Y6389000D01*
X223000Y6429000D02*
X183000Y6389000D01*
X271000Y144000D02*
X311000Y104000D01*
X311000Y144000D02*
X271000Y104000D01*
X535000Y5269000D02*
X575000Y5229000D01*
X575000Y5269000D02*
X535000Y5229000D01*
X817250Y5837250D02*
X857250Y5797250D01*
X857250Y5837250D02*
X817250Y5797250D01*
X872000Y2031000D02*
X912000Y1991000D01*
X912000Y2031000D02*
X872000Y1991000D01*
X996000Y3426000D02*
X1036000Y3386000D01*
X1036000Y3426000D02*
X996000Y3386000D01*
X1046000Y6245000D02*
X1086000Y6205000D01*
X1086000Y6245000D02*
X1046000Y6205000D01*
X1212000Y5401000D02*
X1252000Y5361000D01*
X1252000Y5401000D02*
X1212000Y5361000D01*
X1222000Y5838000D02*
X1262000Y5798000D01*
X1262000Y5838000D02*
X1222000Y5798000D01*
X1228000Y680000D02*
X1268000Y640000D01*
X1268000Y680000D02*
X1228000Y640000D01*
X1391000Y5083000D02*
X1431000Y5043000D01*
X1431000Y5083000D02*
X1391000Y5043000D01*
X1697000Y678000D02*
X1737000Y638000D01*
X1737000Y678000D02*
X1697000Y638000D01*
X1775000Y4696000D02*
X1815000Y4656000D01*
X1815000Y4696000D02*
X1775000Y4656000D01*
X1916000Y5794000D02*
X1956000Y5754000D01*
X1956000Y5794000D02*
X1916000Y5754000D01*
X1953000Y1314000D02*
X1993000Y1274000D01*
X1993000Y1314000D02*
X1953000Y1274000D01*
X2095000Y4941000D02*
X2135000Y4901000D01*
X2135000Y4941000D02*
X2095000Y4901000D01*
X2156000Y668000D02*
X2196000Y628000D01*
X2196000Y668000D02*
X2156000Y628000D01*
X2235250Y5794250D02*
X2275250Y5754250D01*
X2275250Y5794250D02*
X2235250Y5754250D01*
X2485000Y2960000D02*
X2525000Y2920000D01*
X2525000Y2960000D02*
X2485000Y2920000D01*
X2490000Y3708000D02*
X2530000Y3668000D01*
X2530000Y3708000D02*
X2490000Y3668000D01*
X2504000Y2266000D02*
X2544000Y2226000D01*
X2544000Y2266000D02*
X2504000Y2226000D01*
X2505000Y4540000D02*
X2545000Y4500000D01*
X2545000Y4540000D02*
X2505000Y4500000D01*
X2573000Y682000D02*
X2613000Y642000D01*
X2613000Y682000D02*
X2573000Y642000D01*
X2596250Y6433250D02*
X2636250Y6393250D01*
X2636250Y6433250D02*
X2596250Y6393250D01*
X2653000Y1624000D02*
X2693000Y1584000D01*
X2693000Y1624000D02*
X2653000Y1584000D01*
X2890000Y5614000D02*
X2930000Y5574000D01*
X2930000Y5614000D02*
X2890000Y5574000D01*
X2893000Y3711000D02*
X2933000Y3671000D01*
X2933000Y3711000D02*
X2893000Y3671000D01*
X2894000Y5949000D02*
X2934000Y5909000D01*
X2934000Y5949000D02*
X2894000Y5909000D01*
X2991000Y2394000D02*
X3031000Y2354000D01*
X3031000Y2394000D02*
X2991000Y2354000D01*
X3003000Y2028000D02*
X3043000Y1988000D01*
X3043000Y2028000D02*
X3003000Y1988000D01*
X3011250Y5181250D02*
X3051250Y5141250D01*
X3051250Y5181250D02*
X3011250Y5141250D01*
X3028000Y682000D02*
X3068000Y642000D01*
X3068000Y682000D02*
X3028000Y642000D01*
X3030000Y4944000D02*
X3070000Y4904000D01*
X3070000Y4944000D02*
X3030000Y4904000D01*
X3066000Y5946000D02*
X3106000Y5906000D01*
X3106000Y5946000D02*
X3066000Y5906000D01*
X3069000Y4294000D02*
X3109000Y4254000D01*
X3109000Y4294000D02*
X3069000Y4254000D01*
X3074000Y5620000D02*
X3114000Y5580000D01*
X3114000Y5620000D02*
X3074000Y5580000D01*
X3126000Y4602000D02*
X3166000Y4562000D01*
X3166000Y4602000D02*
X3126000Y4562000D01*
X3175000Y2925000D02*
X3215000Y2885000D01*
X3215000Y2925000D02*
X3175000Y2885000D01*
X3209000Y3472000D02*
X3249000Y3432000D01*
X3249000Y3472000D02*
X3209000Y3432000D01*
X3256000Y5661000D02*
X3296000Y5621000D01*
X3296000Y5661000D02*
X3256000Y5621000D01*
X3352000Y5738000D02*
X3392000Y5698000D01*
X3392000Y5738000D02*
X3352000Y5698000D01*
X3365000Y3964000D02*
X3405000Y3924000D01*
X3405000Y3964000D02*
X3365000Y3924000D01*
X3391000Y6189000D02*
X3431000Y6149000D01*
X3431000Y6189000D02*
X3391000Y6149000D01*
X3455000Y1612000D02*
X3495000Y1572000D01*
X3495000Y1612000D02*
X3455000Y1572000D01*
X3481000Y684000D02*
X3521000Y644000D01*
X3521000Y684000D02*
X3481000Y644000D01*
X3484000Y111000D02*
X3524000Y71000D01*
X3524000Y111000D02*
X3484000Y71000D01*
X3493000Y4864000D02*
X3533000Y4824000D01*
X3533000Y4864000D02*
X3493000Y4824000D01*
X3630000Y3963000D02*
X3670000Y3923000D01*
X3670000Y3963000D02*
X3630000Y3923000D01*
X3640000Y4282000D02*
X3680000Y4242000D01*
X3680000Y4282000D02*
X3640000Y4242000D01*
X3647000Y3418000D02*
X3687000Y3378000D01*
X3687000Y3418000D02*
X3647000Y3378000D01*
X3713000Y6192000D02*
X3753000Y6152000D01*
X3753000Y6192000D02*
X3713000Y6152000D01*
X3743000Y3852000D02*
X3783000Y3812000D01*
X3783000Y3852000D02*
X3743000Y3812000D01*
X3808000Y1608000D02*
X3848000Y1568000D01*
X3848000Y1608000D02*
X3808000Y1568000D01*
X3821000Y6114000D02*
X3861000Y6074000D01*
X3861000Y6114000D02*
X3821000Y6074000D01*
X3838000Y4254000D02*
X3878000Y4214000D01*
X3878000Y4254000D02*
X3838000Y4214000D01*
X3867000Y3765000D02*
X3907000Y3725000D01*
X3907000Y3765000D02*
X3867000Y3725000D01*
X3938000Y683000D02*
X3978000Y643000D01*
X3978000Y683000D02*
X3938000Y643000D01*
X3949000Y2966000D02*
X3989000Y2926000D01*
X3989000Y2966000D02*
X3949000Y2926000D01*
X3968000Y5029000D02*
X4008000Y4989000D01*
X4008000Y5029000D02*
X3968000Y4989000D01*
X3970000Y5934000D02*
X4010000Y5894000D01*
X4010000Y5934000D02*
X3970000Y5894000D01*
X3994800Y3236800D02*
X4034800Y3196800D01*
X4034800Y3236800D02*
X3994800Y3196800D01*
X3995000Y3524000D02*
X4035000Y3484000D01*
X4035000Y3524000D02*
X3995000Y3484000D01*
X4001000Y4117000D02*
X4041000Y4077000D01*
X4041000Y4117000D02*
X4001000Y4077000D01*
X4006000Y5377000D02*
X4046000Y5337000D01*
X4046000Y5377000D02*
X4006000Y5337000D01*
X4013000Y5247000D02*
X4053000Y5207000D01*
X4053000Y5247000D02*
X4013000Y5207000D01*
X4015800Y5794200D02*
X4055800Y5754200D01*
X4055800Y5794200D02*
X4015800Y5754200D01*
X4018000Y5674000D02*
X4058000Y5634000D01*
X4058000Y5674000D02*
X4018000Y5634000D01*
X4118000Y1611000D02*
X4158000Y1571000D01*
X4158000Y1611000D02*
X4118000Y1571000D01*
X4126000Y2036000D02*
X4166000Y1996000D01*
X4166000Y2036000D02*
X4126000Y1996000D01*
X4130000Y2392000D02*
X4170000Y2352000D01*
X4170000Y2392000D02*
X4130000Y2352000D01*
X4133000Y3769000D02*
X4173000Y3729000D01*
X4173000Y3769000D02*
X4133000Y3729000D01*
X4150000Y4863000D02*
X4190000Y4823000D01*
X4190000Y4863000D02*
X4150000Y4823000D01*
X4151000Y2726000D02*
X4191000Y2686000D01*
X4191000Y2726000D02*
X4151000Y2686000D01*
X4178000Y6141000D02*
X4218000Y6101000D01*
X4218000Y6141000D02*
X4178000Y6101000D01*
X4315000Y3236800D02*
X4355000Y3196800D01*
X4355000Y3236800D02*
X4315000Y3196800D01*
X4315000Y2968000D02*
X4355000Y2928000D01*
X4355000Y2968000D02*
X4315000Y2928000D01*
X4317000Y4118000D02*
X4357000Y4078000D01*
X4357000Y4118000D02*
X4317000Y4078000D01*
X4331000Y5237000D02*
X4371000Y5197000D01*
X4371000Y5237000D02*
X4331000Y5197000D01*
X4336000Y5800000D02*
X4376000Y5760000D01*
X4376000Y5800000D02*
X4336000Y5760000D01*
X4337000Y5376000D02*
X4377000Y5336000D01*
X4377000Y5376000D02*
X4337000Y5336000D01*
X4339000Y5667000D02*
X4379000Y5627000D01*
X4379000Y5667000D02*
X4339000Y5627000D01*
X4339000Y5032000D02*
X4379000Y4992000D01*
X4379000Y5032000D02*
X4339000Y4992000D01*
X4339000Y3528000D02*
X4379000Y3488000D01*
X4379000Y3528000D02*
X4339000Y3488000D01*
X4341000Y4402000D02*
X4381000Y4362000D01*
X4381000Y4402000D02*
X4341000Y4362000D01*
X4368000Y5941000D02*
X4408000Y5901000D01*
X4408000Y5941000D02*
X4368000Y5901000D01*
X4379000Y1610000D02*
X4419000Y1570000D01*
X4419000Y1610000D02*
X4379000Y1570000D01*
X4407000Y687000D02*
X4447000Y647000D01*
X4447000Y687000D02*
X4407000Y647000D01*
X4529000Y6134000D02*
X4569000Y6094000D01*
X4569000Y6134000D02*
X4529000Y6094000D01*
X4562000Y3783000D02*
X4602000Y3743000D01*
X4602000Y3783000D02*
X4562000Y3743000D01*
X4623000Y3529000D02*
X4663000Y3489000D01*
X4663000Y3529000D02*
X4623000Y3489000D01*
X4627000Y6188000D02*
X4667000Y6148000D01*
X4667000Y6188000D02*
X4627000Y6148000D01*
X4627000Y1613000D02*
X4667000Y1573000D01*
X4667000Y1613000D02*
X4627000Y1573000D01*
X4767000Y4672000D02*
X4807000Y4632000D01*
X4807000Y4672000D02*
X4767000Y4632000D01*
X4772000Y5180000D02*
X4812000Y5140000D01*
X4812000Y5180000D02*
X4772000Y5140000D01*
X4862000Y680000D02*
X4902000Y640000D01*
X4902000Y680000D02*
X4862000Y640000D01*
X4874000Y3516000D02*
X4914000Y3476000D01*
X4914000Y3516000D02*
X4874000Y3476000D01*
X4874000Y2030000D02*
X4914000Y1990000D01*
X4914000Y2030000D02*
X4874000Y1990000D01*
X4876000Y2389000D02*
X4916000Y2349000D01*
X4916000Y2389000D02*
X4876000Y2349000D01*
X4894000Y1610000D02*
X4934000Y1570000D01*
X4934000Y1610000D02*
X4894000Y1570000D01*
X4937000Y6207000D02*
X4977000Y6167000D01*
X4977000Y6207000D02*
X4937000Y6167000D01*
X5072000Y4287000D02*
X5112000Y4247000D01*
X5112000Y4287000D02*
X5072000Y4247000D01*
X5082600Y6149800D02*
X5122600Y6109800D01*
X5122600Y6149800D02*
X5082600Y6109800D01*
X5122000Y3763000D02*
X5162000Y3723000D01*
X5162000Y3763000D02*
X5122000Y3723000D01*
X5143000Y3398000D02*
X5183000Y3358000D01*
X5183000Y3398000D02*
X5143000Y3358000D01*
X5166000Y5402000D02*
X5206000Y5362000D01*
X5206000Y5402000D02*
X5166000Y5362000D01*
X5172000Y1619000D02*
X5212000Y1579000D01*
X5212000Y1619000D02*
X5172000Y1579000D01*
X5177000Y702000D02*
X5217000Y662000D01*
X5217000Y702000D02*
X5177000Y662000D01*
X5183000Y5725000D02*
X5223000Y5685000D01*
X5223000Y5725000D02*
X5183000Y5685000D01*
X5242000Y6078000D02*
X5282000Y6038000D01*
X5282000Y6078000D02*
X5242000Y6038000D01*
X5325000Y5172000D02*
X5365000Y5132000D01*
X5365000Y5172000D02*
X5325000Y5132000D01*
X5412800Y3322250D02*
X5452800Y3282250D01*
X5452800Y3322250D02*
X5412800Y3282250D01*
X5417000Y6078000D02*
X5457000Y6038000D01*
X5457000Y6078000D02*
X5417000Y6038000D01*
X5463000Y3760000D02*
X5503000Y3720000D01*
X5503000Y3760000D02*
X5463000Y3720000D01*
X5488000Y697000D02*
X5528000Y657000D01*
X5528000Y697000D02*
X5488000Y657000D01*
X5509000Y2878000D02*
X5549000Y2838000D01*
X5549000Y2878000D02*
X5509000Y2838000D01*
X5582000Y5400000D02*
X5622000Y5360000D01*
X5622000Y5400000D02*
X5582000Y5360000D01*
X5627000Y1808000D02*
X5667000Y1768000D01*
X5667000Y1808000D02*
X5627000Y1768000D01*
X5712000Y5721000D02*
X5752000Y5681000D01*
X5752000Y5721000D02*
X5712000Y5681000D01*
X5713000Y5329000D02*
X5753000Y5289000D01*
X5753000Y5329000D02*
X5713000Y5289000D01*
X5725000Y138000D02*
X5765000Y98000D01*
X5765000Y138000D02*
X5725000Y98000D01*
X5781000Y669000D02*
X5821000Y629000D01*
X5821000Y669000D02*
X5781000Y629000D01*
X5794250Y6335250D02*
X5834250Y6295250D01*
X5834250Y6335250D02*
X5794250Y6295250D01*
X5802000Y3042000D02*
X5842000Y3002000D01*
X5842000Y3042000D02*
X5802000Y3002000D01*
X5804000Y3576000D02*
X5844000Y3536000D01*
X5844000Y3576000D02*
X5804000Y3536000D01*
X5820000Y4594000D02*
X5860000Y4554000D01*
X5860000Y4594000D02*
X5820000Y4554000D01*
D13*
X1194000Y1501000D02*
G75*
G03*
X1194000Y1501000I-25000J0D01*
G01*
X1264294Y1670706D02*
G75*
G03*
X1264294Y1670706I-25000J0D01*
G01*
X1264294Y1331294D02*
G75*
G03*
X1264294Y1331294I-25000J0D01*
G01*
X1434000Y1741000D02*
G75*
G03*
X1434000Y1741000I-25000J0D01*
G01*
X1434000Y1261000D02*
G75*
G03*
X1434000Y1261000I-25000J0D01*
G01*
X1603706Y1670706D02*
G75*
G03*
X1603706Y1670706I-25000J0D01*
G01*
X1603706Y1331294D02*
G75*
G03*
X1603706Y1331294I-25000J0D01*
G01*
X1674000Y1501000D02*
G75*
G03*
X1674000Y1501000I-25000J0D01*
G01*
D14*
X4535750Y4483750D02*
X4535750Y4418750D01*
X4503250Y4451250D02*
X4568250Y4451250D01*
X4662750Y4483750D02*
X4662750Y4418750D01*
X4630250Y4451250D02*
X4695250Y4451250D01*
X4789750Y4483750D02*
X4789750Y4418750D01*
X4757250Y4451250D02*
X4822250Y4451250D01*
D15*
X3030284Y2524716D02*
X3030284Y2581285D01*
X2973715Y2581285D01*
X2973715Y2524716D01*
X3030284Y2524716D01*
X3030284Y1762715D02*
X3030284Y1819284D01*
X2973715Y1819284D01*
X2973715Y1762715D01*
X3030284Y1762715D01*
X3275534Y4402966D02*
X3275534Y4459535D01*
X3218965Y4459535D01*
X3218965Y4402966D01*
X3275534Y4402966D01*
X3275534Y3640965D02*
X3275534Y3697534D01*
X3218965Y3697534D01*
X3218965Y3640965D01*
X3275534Y3640965D01*
X3284284Y2524716D02*
X3284284Y2581285D01*
X3227715Y2581285D01*
X3227715Y2524716D01*
X3284284Y2524716D01*
X3284284Y1762715D02*
X3284284Y1819284D01*
X3227715Y1819284D01*
X3227715Y1762715D01*
X3284284Y1762715D01*
X3529534Y4402966D02*
X3529534Y4459535D01*
X3472965Y4459535D01*
X3472965Y4402966D01*
X3529534Y4402966D01*
X3529534Y3640965D02*
X3529534Y3697534D01*
X3472965Y3697534D01*
X3472965Y3640965D01*
X3529534Y3640965D01*
X3538284Y2524716D02*
X3538284Y2581285D01*
X3481715Y2581285D01*
X3481715Y2524716D01*
X3538284Y2524716D01*
X3538284Y1762715D02*
X3538284Y1819284D01*
X3481715Y1819284D01*
X3481715Y1762715D01*
X3538284Y1762715D01*
X3792284Y2524716D02*
X3792284Y2581285D01*
X3735715Y2581285D01*
X3735715Y2524716D01*
X3792284Y2524716D01*
X3792284Y1762715D02*
X3792284Y1819284D01*
X3735715Y1819284D01*
X3735715Y1762715D01*
X3792284Y1762715D01*
X3948784Y3890215D02*
X3948784Y3946784D01*
X3892215Y3946784D01*
X3892215Y3890215D01*
X3948784Y3890215D01*
X4046284Y2524716D02*
X4046284Y2581285D01*
X3989715Y2581285D01*
X3989715Y2524716D01*
X4046284Y2524716D01*
X4046284Y1762715D02*
X4046284Y1819284D01*
X3989715Y1819284D01*
X3989715Y1762715D01*
X4046284Y1762715D01*
X4202285Y5046716D02*
X4202285Y5103285D01*
X4145715Y5103285D01*
X4145715Y5046716D01*
X4202285Y5046716D01*
X4202285Y4284716D02*
X4202285Y4341285D01*
X4145715Y4341285D01*
X4145715Y4284716D01*
X4202285Y4284716D01*
X4202785Y3890215D02*
X4202785Y3946784D01*
X4146215Y3946784D01*
X4146215Y3890215D01*
X4202785Y3890215D01*
X4300285Y2524716D02*
X4300285Y2581285D01*
X4243716Y2581285D01*
X4243716Y2524716D01*
X4300285Y2524716D01*
X4300285Y1762715D02*
X4300285Y1819284D01*
X4243716Y1819284D01*
X4243716Y1762715D01*
X4300285Y1762715D01*
X4456785Y3890215D02*
X4456785Y3946784D01*
X4400216Y3946784D01*
X4400216Y3890215D01*
X4456785Y3890215D01*
X4554285Y2524716D02*
X4554285Y2581285D01*
X4497716Y2581285D01*
X4497716Y2524716D01*
X4554285Y2524716D01*
X4554285Y1762715D02*
X4554285Y1819284D01*
X4497716Y1819284D01*
X4497716Y1762715D01*
X4554285Y1762715D01*
X4726535Y3273965D02*
X4726535Y3330534D01*
X4669966Y3330534D01*
X4669966Y3273965D01*
X4726535Y3273965D01*
X4808285Y2524716D02*
X4808285Y2581285D01*
X4751716Y2581285D01*
X4751716Y2524716D01*
X4808285Y2524716D01*
X4808285Y1762715D02*
X4808285Y1819284D01*
X4751716Y1819284D01*
X4751716Y1762715D01*
X4808285Y1762715D01*
X4977035Y3887515D02*
X4977035Y3944084D01*
X4920466Y3944084D01*
X4920466Y3887515D01*
X4977035Y3887515D01*
X5062285Y2524716D02*
X5062285Y2581285D01*
X5005716Y2581285D01*
X5005716Y2524716D01*
X5062285Y2524716D01*
X5062285Y1762715D02*
X5062285Y1819284D01*
X5005716Y1819284D01*
X5005716Y1762715D01*
X5062285Y1762715D01*
X5147535Y5116966D02*
X5147535Y5173535D01*
X5090966Y5173535D01*
X5090966Y5116966D01*
X5147535Y5116966D01*
D11*
X5089250Y5170250D02*
X5089250Y5120250D01*
X5149250Y5170250D02*
X5149250Y5120250D01*
X5089250Y5120250D02*
G75*
G03*
X5149250Y5120250I30000J0D01*
G01*
X5149250Y5170250D02*
G75*
G03*
X5089250Y5170250I-30000J0D01*
G01*
D15*
X5231035Y3887515D02*
X5231035Y3944084D01*
X5174466Y3944084D01*
X5174466Y3887515D01*
X5231035Y3887515D01*
X5485035Y3887515D02*
X5485035Y3944084D01*
X5428466Y3944084D01*
X5428466Y3887515D01*
X5485035Y3887515D01*
X5556285Y2636716D02*
X5556285Y2693285D01*
X5499716Y2693285D01*
X5499716Y2636716D01*
X5556285Y2636716D01*
X5556285Y2386716D02*
X5556285Y2443285D01*
X5499716Y2443285D01*
X5499716Y2386716D01*
X5556285Y2386716D01*
X5607534Y5116966D02*
X5607534Y5173535D01*
X5550966Y5173535D01*
X5550966Y5116966D01*
X5607534Y5116966D01*
D11*
X5549250Y5170250D02*
X5549250Y5120250D01*
X5609250Y5170250D02*
X5609250Y5120250D01*
X5549250Y5120250D02*
G75*
G03*
X5609250Y5120250I30000J0D01*
G01*
X5609250Y5170250D02*
G75*
G03*
X5549250Y5170250I-30000J0D01*
G01*
D15*
X5742534Y3273965D02*
X5742534Y3330534D01*
X5685965Y3330534D01*
X5685965Y3273965D01*
X5742534Y3273965D01*
D16*
X641250Y5890250D02*
X686250Y5935250D01*
X641250Y5980250D01*
X596250Y5935250D01*
X641250Y5890250D01*
X1041250Y5890250D02*
X1086250Y5935250D01*
X1041250Y5980250D01*
X996250Y5935250D01*
X1041250Y5890250D01*
X1433000Y442500D02*
X1478000Y487500D01*
X1433000Y532500D01*
X1388000Y487500D01*
X1433000Y442500D01*
X1433000Y188500D02*
X1478000Y233500D01*
X1433000Y278500D01*
X1388000Y233500D01*
X1433000Y188500D01*
X1441250Y5890250D02*
X1486250Y5935250D01*
X1441250Y5980250D01*
X1396250Y5935250D01*
X1441250Y5890250D01*
X1893000Y442500D02*
X1938000Y487500D01*
X1893000Y532500D01*
X1848000Y487500D01*
X1893000Y442500D01*
X1893000Y188500D02*
X1938000Y233500D01*
X1893000Y278500D01*
X1848000Y233500D01*
X1893000Y188500D01*
X2353000Y442500D02*
X2398000Y487500D01*
X2353000Y532500D01*
X2308000Y487500D01*
X2353000Y442500D01*
X2353000Y188500D02*
X2398000Y233500D01*
X2353000Y278500D01*
X2308000Y233500D01*
X2353000Y188500D01*
X2813000Y442500D02*
X2858000Y487500D01*
X2813000Y532500D01*
X2768000Y487500D01*
X2813000Y442500D01*
X2813000Y188500D02*
X2858000Y233500D01*
X2813000Y278500D01*
X2768000Y233500D01*
X2813000Y188500D01*
X3273000Y442500D02*
X3318000Y487500D01*
X3273000Y532500D01*
X3228000Y487500D01*
X3273000Y442500D01*
X3273000Y188500D02*
X3318000Y233500D01*
X3273000Y278500D01*
X3228000Y233500D01*
X3273000Y188500D01*
X3733000Y442500D02*
X3778000Y487500D01*
X3733000Y532500D01*
X3688000Y487500D01*
X3733000Y442500D01*
X3733000Y188500D02*
X3778000Y233500D01*
X3733000Y278500D01*
X3688000Y233500D01*
X3733000Y188500D01*
X3779250Y5868000D02*
X3824250Y5913000D01*
X3779250Y5958000D01*
X3734250Y5913000D01*
X3779250Y5868000D01*
X4179250Y5868000D02*
X4224250Y5913000D01*
X4179250Y5958000D01*
X4134250Y5913000D01*
X4179250Y5868000D01*
X4193000Y442500D02*
X4238000Y487500D01*
X4193000Y532500D01*
X4148000Y487500D01*
X4193000Y442500D01*
X4193000Y188500D02*
X4238000Y233500D01*
X4193000Y278500D01*
X4148000Y233500D01*
X4193000Y188500D01*
X4579250Y5868000D02*
X4624250Y5913000D01*
X4579250Y5958000D01*
X4534250Y5913000D01*
X4579250Y5868000D01*
X4653000Y442500D02*
X4698000Y487500D01*
X4653000Y532500D01*
X4608000Y487500D01*
X4653000Y442500D01*
X4653000Y188500D02*
X4698000Y233500D01*
X4653000Y278500D01*
X4608000Y233500D01*
X4653000Y188500D01*
X5113000Y442500D02*
X5158000Y487500D01*
X5113000Y532500D01*
X5068000Y487500D01*
X5113000Y442500D01*
X5113000Y188500D02*
X5158000Y233500D01*
X5113000Y278500D01*
X5068000Y233500D01*
X5113000Y188500D01*
X5573000Y442500D02*
X5618000Y487500D01*
X5573000Y532500D01*
X5528000Y487500D01*
X5573000Y442500D01*
X5573000Y188500D02*
X5618000Y233500D01*
X5573000Y278500D01*
X5528000Y233500D01*
X5573000Y188500D01*
D17*
X732500Y5424000D02*
X832500Y5324000D01*
X832500Y5424000D02*
X732500Y5324000D01*
X832500Y5374000D02*
G75*
G03*
X832500Y5374000I-50000J0D01*
G01*
X986500Y5424000D02*
X1086500Y5324000D01*
X1086500Y5424000D02*
X986500Y5324000D01*
X1086500Y5374000D02*
G75*
G03*
X1086500Y5374000I-50000J0D01*
G01*
X5024250Y5945250D02*
X5124250Y5845250D01*
X5124250Y5945250D02*
X5024250Y5845250D01*
X5124250Y5895250D02*
G75*
G03*
X5124250Y5895250I-50000J0D01*
G01*
D11*
X5034250Y5910250D02*
X5034250Y5880250D01*
X5114250Y5910250D02*
X5114250Y5880250D01*
X5034250Y5880250D02*
G75*
G03*
X5114250Y5880250I40000J0D01*
G01*
X5114250Y5910250D02*
G75*
G03*
X5034250Y5910250I-40000J0D01*
G01*
D17*
X5574250Y5945250D02*
X5674250Y5845250D01*
X5674250Y5945250D02*
X5574250Y5845250D01*
X5674250Y5895250D02*
G75*
G03*
X5674250Y5895250I-50000J0D01*
G01*
D11*
X5584250Y5910250D02*
X5584250Y5880250D01*
X5664250Y5910250D02*
X5664250Y5880250D01*
X5584250Y5880250D02*
G75*
G03*
X5664250Y5880250I40000J0D01*
G01*
X5664250Y5910250D02*
G75*
G03*
X5584250Y5910250I-40000J0D01*
G01*
D18*
X2553000Y5819500D02*
X2663000Y5709500D01*
X2663000Y5819500D02*
X2553000Y5709500D01*
X2608000Y5819500D02*
X2608000Y5709500D01*
X2553000Y5764500D02*
X2663000Y5764500D01*
D19*
X381250Y6420250D02*
X501250Y6300250D01*
X501250Y6420250D02*
X381250Y6300250D01*
X483677Y6317823D02*
X483677Y6402677D01*
X398823Y6402677D01*
X398823Y6317823D01*
X483677Y6317823D01*
X381250Y5820250D02*
X501250Y5700250D01*
X501250Y5820250D02*
X381250Y5700250D01*
X483677Y5717823D02*
X483677Y5802677D01*
X398823Y5802677D01*
X398823Y5717823D01*
X483677Y5717823D01*
X1581250Y6420250D02*
X1701250Y6300250D01*
X1701250Y6420250D02*
X1581250Y6300250D01*
X1683677Y6317823D02*
X1683677Y6402677D01*
X1598823Y6402677D01*
X1598823Y6317823D01*
X1683677Y6317823D01*
X1581250Y5820250D02*
X1701250Y5700250D01*
X1701250Y5820250D02*
X1581250Y5700250D01*
X1683677Y5717823D02*
X1683677Y5802677D01*
X1598823Y5802677D01*
X1598823Y5717823D01*
X1683677Y5717823D01*
X3519250Y6398000D02*
X3639250Y6278000D01*
X3639250Y6398000D02*
X3519250Y6278000D01*
X3621677Y6295573D02*
X3621677Y6380427D01*
X3536823Y6380427D01*
X3536823Y6295573D01*
X3621677Y6295573D01*
X3519250Y5798000D02*
X3639250Y5678000D01*
X3639250Y5798000D02*
X3519250Y5678000D01*
X3621677Y5695573D02*
X3621677Y5780427D01*
X3536823Y5780427D01*
X3536823Y5695573D01*
X3621677Y5695573D01*
X4719250Y6398000D02*
X4839250Y6278000D01*
X4839250Y6398000D02*
X4719250Y6278000D01*
X4821677Y6295573D02*
X4821677Y6380427D01*
X4736823Y6380427D01*
X4736823Y6295573D01*
X4821677Y6295573D01*
X4719250Y5798000D02*
X4839250Y5678000D01*
X4839250Y5798000D02*
X4719250Y5678000D01*
X4821677Y5695573D02*
X4821677Y5780427D01*
X4736823Y5780427D01*
X4736823Y5695573D01*
X4821677Y5695573D01*
D20*
X2030500Y6342000D02*
X2180500Y6192000D01*
X2180500Y6342000D02*
X2030500Y6192000D01*
X2105500Y6192000D02*
X2180500Y6267000D01*
X2105500Y6342000D01*
X2030500Y6267000D01*
X2105500Y6192000D01*
X2030500Y5337000D02*
X2180500Y5187000D01*
X2180500Y5337000D02*
X2030500Y5187000D01*
X2105500Y5187000D02*
X2180500Y5262000D01*
X2105500Y5337000D01*
X2030500Y5262000D01*
X2105500Y5187000D01*
X3035500Y6342000D02*
X3185500Y6192000D01*
X3185500Y6342000D02*
X3035500Y6192000D01*
X3110500Y6192000D02*
X3185500Y6267000D01*
X3110500Y6342000D01*
X3035500Y6267000D01*
X3110500Y6192000D01*
X3035500Y5337000D02*
X3185500Y5187000D01*
X3185500Y5337000D02*
X3035500Y5187000D01*
X3110500Y5187000D02*
X3185500Y5262000D01*
X3110500Y5337000D01*
X3035500Y5262000D01*
X3110500Y5187000D01*
D21*
X1409000Y1661000D02*
X1409000Y1341000D01*
X1249000Y1501000D02*
X1569000Y1501000D01*
X1569000Y1501000D02*
G75*
G03*
X1569000Y1501000I-160000J0D01*
G01*
D11*
X252619Y-315476D02*
X252619Y-115476D01*
X300238Y-115476D01*
X328810Y-125000D01*
X347857Y-144048D01*
X357381Y-163095D01*
X366905Y-201190D01*
X366905Y-229762D01*
X357381Y-267857D01*
X347857Y-286905D01*
X328810Y-305952D01*
X300238Y-315476D01*
X252619Y-315476D01*
X452619Y-315476D02*
X452619Y-182143D01*
X452619Y-220238D02*
X462143Y-201190D01*
X471667Y-191667D01*
X490714Y-182143D01*
X509762Y-182143D01*
X576429Y-315476D02*
X576429Y-182143D01*
X576429Y-115476D02*
X566905Y-125000D01*
X576429Y-134524D01*
X585952Y-125000D01*
X576429Y-115476D01*
X576429Y-134524D01*
X700238Y-315476D02*
X681190Y-305952D01*
X671667Y-286905D01*
X671667Y-115476D01*
X805000Y-315476D02*
X785952Y-305952D01*
X776428Y-286905D01*
X776428Y-115476D01*
X1033571Y-315476D02*
X1033571Y-115476D01*
X1100238Y-258333D01*
X1166905Y-115476D01*
X1166905Y-315476D01*
X1347857Y-315476D02*
X1347857Y-210714D01*
X1338333Y-191667D01*
X1319286Y-182143D01*
X1281190Y-182143D01*
X1262143Y-191667D01*
X1347857Y-305952D02*
X1328810Y-315476D01*
X1281190Y-315476D01*
X1262143Y-305952D01*
X1252619Y-286905D01*
X1252619Y-267857D01*
X1262143Y-248809D01*
X1281190Y-239286D01*
X1328810Y-239286D01*
X1347857Y-229762D01*
X1443095Y-182143D02*
X1443095Y-382143D01*
X1443095Y-191667D02*
X1462143Y-182143D01*
X1500238Y-182143D01*
X1519286Y-191667D01*
X1528809Y-201190D01*
X1538333Y-220238D01*
X1538333Y-277381D01*
X1528809Y-296429D01*
X1519286Y-305952D01*
X1500238Y-315476D01*
X1462143Y-315476D01*
X1443095Y-305952D01*
X1624048Y-296429D02*
X1633571Y-305952D01*
X1624048Y-315476D01*
X1614524Y-305952D01*
X1624048Y-296429D01*
X1624048Y-315476D01*
X1624048Y-191667D02*
X1633571Y-201190D01*
X1624048Y-210714D01*
X1614524Y-201190D01*
X1624048Y-191667D01*
X1624048Y-210714D01*
D12*
X-45000Y-625000D02*
X-5000Y-665000D01*
X-5000Y-625000D02*
X-45000Y-665000D01*
D11*
X290714Y-535476D02*
X309762Y-535476D01*
X328810Y-545000D01*
X338333Y-554524D01*
X347857Y-573571D01*
X357381Y-611667D01*
X357381Y-659286D01*
X347857Y-697381D01*
X338333Y-716428D01*
X328810Y-725952D01*
X309762Y-735476D01*
X290714Y-735476D01*
X271667Y-725952D01*
X262143Y-716428D01*
X252619Y-697381D01*
X243095Y-659286D01*
X243095Y-611667D01*
X252619Y-573571D01*
X262143Y-554524D01*
X271667Y-545000D01*
X290714Y-535476D01*
X443095Y-716428D02*
X452619Y-725952D01*
X443095Y-735476D01*
X433571Y-725952D01*
X443095Y-716428D01*
X443095Y-735476D01*
X624048Y-602143D02*
X624048Y-735476D01*
X576429Y-525952D02*
X528810Y-668810D01*
X652619Y-668810D01*
X766905Y-535476D02*
X785952Y-535476D01*
X805000Y-545000D01*
X814524Y-554524D01*
X824048Y-573571D01*
X833571Y-611667D01*
X833571Y-659286D01*
X824048Y-697381D01*
X814524Y-716428D01*
X805000Y-725952D01*
X785952Y-735476D01*
X766905Y-735476D01*
X747857Y-725952D01*
X738333Y-716428D01*
X728809Y-697381D01*
X719286Y-659286D01*
X719286Y-611667D01*
X728809Y-573571D01*
X738333Y-554524D01*
X747857Y-545000D01*
X766905Y-535476D01*
X957381Y-535476D02*
X976428Y-535476D01*
X995476Y-545000D01*
X1005000Y-554524D01*
X1014524Y-573571D01*
X1024048Y-611667D01*
X1024048Y-659286D01*
X1014524Y-697381D01*
X1005000Y-716428D01*
X995476Y-725952D01*
X976428Y-735476D01*
X957381Y-735476D01*
X938333Y-725952D01*
X928809Y-716428D01*
X919286Y-697381D01*
X909762Y-659286D01*
X909762Y-611667D01*
X919286Y-573571D01*
X928809Y-554524D01*
X938333Y-545000D01*
X957381Y-535476D01*
X1109762Y-735476D02*
X1109762Y-602143D01*
X1109762Y-621190D02*
X1119286Y-611667D01*
X1138333Y-602143D01*
X1166905Y-602143D01*
X1185952Y-611667D01*
X1195476Y-630714D01*
X1195476Y-735476D01*
X1195476Y-630714D02*
X1205000Y-611667D01*
X1224048Y-602143D01*
X1252619Y-602143D01*
X1271667Y-611667D01*
X1281190Y-630714D01*
X1281190Y-735476D01*
X1376429Y-735476D02*
X1376429Y-602143D01*
X1376429Y-621190D02*
X1385952Y-611667D01*
X1405000Y-602143D01*
X1433571Y-602143D01*
X1452619Y-611667D01*
X1462143Y-630714D01*
X1462143Y-735476D01*
X1462143Y-630714D02*
X1471667Y-611667D01*
X1490714Y-602143D01*
X1519286Y-602143D01*
X1538333Y-611667D01*
X1547857Y-630714D01*
X1547857Y-735476D01*
X1938333Y-525952D02*
X1766905Y-783095D01*
X2195476Y-535476D02*
X2214524Y-535476D01*
X2233571Y-545000D01*
X2243095Y-554524D01*
X2252619Y-573571D01*
X2262143Y-611667D01*
X2262143Y-659286D01*
X2252619Y-697381D01*
X2243095Y-716428D01*
X2233571Y-725952D01*
X2214524Y-735476D01*
X2195476Y-735476D01*
X2176429Y-725952D01*
X2166905Y-716428D01*
X2157381Y-697381D01*
X2147857Y-659286D01*
X2147857Y-611667D01*
X2157381Y-573571D01*
X2166905Y-554524D01*
X2176429Y-545000D01*
X2195476Y-535476D01*
X2347857Y-716428D02*
X2357381Y-725952D01*
X2347857Y-735476D01*
X2338333Y-725952D01*
X2347857Y-716428D01*
X2347857Y-735476D01*
X2481190Y-535476D02*
X2500238Y-535476D01*
X2519286Y-545000D01*
X2528810Y-554524D01*
X2538333Y-573571D01*
X2547857Y-611667D01*
X2547857Y-659286D01*
X2538333Y-697381D01*
X2528810Y-716428D01*
X2519286Y-725952D01*
X2500238Y-735476D01*
X2481190Y-735476D01*
X2462143Y-725952D01*
X2452619Y-716428D01*
X2443095Y-697381D01*
X2433571Y-659286D01*
X2433571Y-611667D01*
X2443095Y-573571D01*
X2452619Y-554524D01*
X2462143Y-545000D01*
X2481190Y-535476D01*
X2738333Y-735476D02*
X2624048Y-735476D01*
X2681190Y-735476D02*
X2681190Y-535476D01*
X2662143Y-564048D01*
X2643095Y-583095D01*
X2624048Y-592619D01*
X2919286Y-535476D02*
X2824048Y-535476D01*
X2814524Y-630714D01*
X2824048Y-621190D01*
X2843095Y-611667D01*
X2890714Y-611667D01*
X2909762Y-621190D01*
X2919286Y-630714D01*
X2928809Y-649762D01*
X2928809Y-697381D01*
X2919286Y-716428D01*
X2909762Y-725952D01*
X2890714Y-735476D01*
X2843095Y-735476D01*
X2824048Y-725952D01*
X2814524Y-716428D01*
X2995476Y-535476D02*
X3128809Y-535476D01*
X3043095Y-735476D01*
X3195476Y-535476D02*
X3195476Y-573571D01*
X3271667Y-535476D02*
X3271667Y-573571D01*
X3566905Y-811667D02*
X3557381Y-802143D01*
X3538333Y-773571D01*
X3528809Y-754524D01*
X3519286Y-725952D01*
X3509762Y-678333D01*
X3509762Y-640238D01*
X3519286Y-592619D01*
X3528809Y-564048D01*
X3538333Y-545000D01*
X3557381Y-516428D01*
X3566905Y-506905D01*
X3747857Y-735476D02*
X3633571Y-735476D01*
X3690714Y-735476D02*
X3690714Y-535476D01*
X3671667Y-564048D01*
X3652619Y-583095D01*
X3633571Y-592619D01*
X3824048Y-554524D02*
X3833571Y-545000D01*
X3852619Y-535476D01*
X3900238Y-535476D01*
X3919286Y-545000D01*
X3928809Y-554524D01*
X3938333Y-573571D01*
X3938333Y-592619D01*
X3928809Y-621190D01*
X3814524Y-735476D01*
X3938333Y-735476D01*
X4005000Y-535476D02*
X4138333Y-535476D01*
X4052619Y-735476D01*
X4366905Y-735476D02*
X4366905Y-535476D01*
X4452619Y-735476D02*
X4452619Y-630714D01*
X4443095Y-611667D01*
X4424048Y-602143D01*
X4395476Y-602143D01*
X4376429Y-611667D01*
X4366905Y-621190D01*
X4576429Y-735476D02*
X4557381Y-725952D01*
X4547857Y-716428D01*
X4538333Y-697381D01*
X4538333Y-640238D01*
X4547857Y-621190D01*
X4557381Y-611667D01*
X4576429Y-602143D01*
X4605000Y-602143D01*
X4624048Y-611667D01*
X4633571Y-621190D01*
X4643095Y-640238D01*
X4643095Y-697381D01*
X4633571Y-716428D01*
X4624048Y-725952D01*
X4605000Y-735476D01*
X4576429Y-735476D01*
X4757381Y-735476D02*
X4738333Y-725952D01*
X4728810Y-706905D01*
X4728810Y-535476D01*
X4909762Y-725952D02*
X4890714Y-735476D01*
X4852619Y-735476D01*
X4833571Y-725952D01*
X4824048Y-706905D01*
X4824048Y-630714D01*
X4833571Y-611667D01*
X4852619Y-602143D01*
X4890714Y-602143D01*
X4909762Y-611667D01*
X4919286Y-630714D01*
X4919286Y-649762D01*
X4824048Y-668810D01*
X4995476Y-725952D02*
X5014524Y-735476D01*
X5052619Y-735476D01*
X5071667Y-725952D01*
X5081190Y-706905D01*
X5081190Y-697381D01*
X5071667Y-678333D01*
X5052619Y-668810D01*
X5024048Y-668810D01*
X5005000Y-659286D01*
X4995476Y-640238D01*
X4995476Y-630714D01*
X5005000Y-611667D01*
X5024048Y-602143D01*
X5052619Y-602143D01*
X5071667Y-611667D01*
X5147857Y-811667D02*
X5157381Y-802143D01*
X5176429Y-773571D01*
X5185952Y-754524D01*
X5195476Y-725952D01*
X5205000Y-678333D01*
X5205000Y-640238D01*
X5195476Y-592619D01*
X5185952Y-564048D01*
X5176429Y-545000D01*
X5157381Y-516428D01*
X5147857Y-506905D01*
D13*
X-5000Y-909000D02*
G75*
G03*
X-5000Y-909000I-25000J0D01*
G01*
D11*
X290714Y-799476D02*
X309762Y-799476D01*
X328810Y-809000D01*
X338333Y-818524D01*
X347857Y-837571D01*
X357381Y-875667D01*
X357381Y-923286D01*
X347857Y-961381D01*
X338333Y-980428D01*
X328810Y-989952D01*
X309762Y-999476D01*
X290714Y-999476D01*
X271667Y-989952D01*
X262143Y-980428D01*
X252619Y-961381D01*
X243095Y-923286D01*
X243095Y-875667D01*
X252619Y-837571D01*
X262143Y-818524D01*
X271667Y-809000D01*
X290714Y-799476D01*
X443095Y-980428D02*
X452619Y-989952D01*
X443095Y-999476D01*
X433571Y-989952D01*
X443095Y-980428D01*
X443095Y-999476D01*
X633571Y-799476D02*
X538333Y-799476D01*
X528810Y-894714D01*
X538333Y-885190D01*
X557381Y-875667D01*
X605000Y-875667D01*
X624048Y-885190D01*
X633571Y-894714D01*
X643095Y-913762D01*
X643095Y-961381D01*
X633571Y-980428D01*
X624048Y-989952D01*
X605000Y-999476D01*
X557381Y-999476D01*
X538333Y-989952D01*
X528810Y-980428D01*
X766905Y-799476D02*
X785952Y-799476D01*
X805000Y-809000D01*
X814524Y-818524D01*
X824048Y-837571D01*
X833571Y-875667D01*
X833571Y-923286D01*
X824048Y-961381D01*
X814524Y-980428D01*
X805000Y-989952D01*
X785952Y-999476D01*
X766905Y-999476D01*
X747857Y-989952D01*
X738333Y-980428D01*
X728809Y-961381D01*
X719286Y-923286D01*
X719286Y-875667D01*
X728809Y-837571D01*
X738333Y-818524D01*
X747857Y-809000D01*
X766905Y-799476D01*
X957381Y-799476D02*
X976428Y-799476D01*
X995476Y-809000D01*
X1005000Y-818524D01*
X1014524Y-837571D01*
X1024048Y-875667D01*
X1024048Y-923286D01*
X1014524Y-961381D01*
X1005000Y-980428D01*
X995476Y-989952D01*
X976428Y-999476D01*
X957381Y-999476D01*
X938333Y-989952D01*
X928809Y-980428D01*
X919286Y-961381D01*
X909762Y-923286D01*
X909762Y-875667D01*
X919286Y-837571D01*
X928809Y-818524D01*
X938333Y-809000D01*
X957381Y-799476D01*
X1109762Y-999476D02*
X1109762Y-866143D01*
X1109762Y-885190D02*
X1119286Y-875667D01*
X1138333Y-866143D01*
X1166905Y-866143D01*
X1185952Y-875667D01*
X1195476Y-894714D01*
X1195476Y-999476D01*
X1195476Y-894714D02*
X1205000Y-875667D01*
X1224048Y-866143D01*
X1252619Y-866143D01*
X1271667Y-875667D01*
X1281190Y-894714D01*
X1281190Y-999476D01*
X1376429Y-999476D02*
X1376429Y-866143D01*
X1376429Y-885190D02*
X1385952Y-875667D01*
X1405000Y-866143D01*
X1433571Y-866143D01*
X1452619Y-875667D01*
X1462143Y-894714D01*
X1462143Y-999476D01*
X1462143Y-894714D02*
X1471667Y-875667D01*
X1490714Y-866143D01*
X1519286Y-866143D01*
X1538333Y-875667D01*
X1547857Y-894714D01*
X1547857Y-999476D01*
X1938333Y-789952D02*
X1766905Y-1047095D01*
X2195476Y-799476D02*
X2214524Y-799476D01*
X2233571Y-809000D01*
X2243095Y-818524D01*
X2252619Y-837571D01*
X2262143Y-875667D01*
X2262143Y-923286D01*
X2252619Y-961381D01*
X2243095Y-980428D01*
X2233571Y-989952D01*
X2214524Y-999476D01*
X2195476Y-999476D01*
X2176429Y-989952D01*
X2166905Y-980428D01*
X2157381Y-961381D01*
X2147857Y-923286D01*
X2147857Y-875667D01*
X2157381Y-837571D01*
X2166905Y-818524D01*
X2176429Y-809000D01*
X2195476Y-799476D01*
X2347857Y-980428D02*
X2357381Y-989952D01*
X2347857Y-999476D01*
X2338333Y-989952D01*
X2347857Y-980428D01*
X2347857Y-999476D01*
X2481190Y-799476D02*
X2500238Y-799476D01*
X2519286Y-809000D01*
X2528810Y-818524D01*
X2538333Y-837571D01*
X2547857Y-875667D01*
X2547857Y-923286D01*
X2538333Y-961381D01*
X2528810Y-980428D01*
X2519286Y-989952D01*
X2500238Y-999476D01*
X2481190Y-999476D01*
X2462143Y-989952D01*
X2452619Y-980428D01*
X2443095Y-961381D01*
X2433571Y-923286D01*
X2433571Y-875667D01*
X2443095Y-837571D01*
X2452619Y-818524D01*
X2462143Y-809000D01*
X2481190Y-799476D01*
X2738333Y-999476D02*
X2624048Y-999476D01*
X2681190Y-999476D02*
X2681190Y-799476D01*
X2662143Y-828048D01*
X2643095Y-847095D01*
X2624048Y-856619D01*
X2833571Y-999476D02*
X2871667Y-999476D01*
X2890714Y-989952D01*
X2900238Y-980428D01*
X2919286Y-951857D01*
X2928809Y-913762D01*
X2928809Y-837571D01*
X2919286Y-818524D01*
X2909762Y-809000D01*
X2890714Y-799476D01*
X2852619Y-799476D01*
X2833571Y-809000D01*
X2824048Y-818524D01*
X2814524Y-837571D01*
X2814524Y-885190D01*
X2824048Y-904238D01*
X2833571Y-913762D01*
X2852619Y-923286D01*
X2890714Y-923286D01*
X2909762Y-913762D01*
X2919286Y-904238D01*
X2928809Y-885190D01*
X2995476Y-799476D02*
X3128809Y-799476D01*
X3043095Y-999476D01*
X3195476Y-799476D02*
X3195476Y-837571D01*
X3271667Y-799476D02*
X3271667Y-837571D01*
X3566905Y-1075667D02*
X3557381Y-1066143D01*
X3538333Y-1037571D01*
X3528809Y-1018524D01*
X3519286Y-989952D01*
X3509762Y-942333D01*
X3509762Y-904238D01*
X3519286Y-856619D01*
X3528809Y-828048D01*
X3538333Y-809000D01*
X3557381Y-780428D01*
X3566905Y-770905D01*
X3671667Y-885190D02*
X3652619Y-875667D01*
X3643095Y-866143D01*
X3633571Y-847095D01*
X3633571Y-837571D01*
X3643095Y-818524D01*
X3652619Y-809000D01*
X3671667Y-799476D01*
X3709762Y-799476D01*
X3728809Y-809000D01*
X3738333Y-818524D01*
X3747857Y-837571D01*
X3747857Y-847095D01*
X3738333Y-866143D01*
X3728809Y-875667D01*
X3709762Y-885190D01*
X3671667Y-885190D01*
X3652619Y-894714D01*
X3643095Y-904238D01*
X3633571Y-923286D01*
X3633571Y-961381D01*
X3643095Y-980428D01*
X3652619Y-989952D01*
X3671667Y-999476D01*
X3709762Y-999476D01*
X3728809Y-989952D01*
X3738333Y-980428D01*
X3747857Y-961381D01*
X3747857Y-923286D01*
X3738333Y-904238D01*
X3728809Y-894714D01*
X3709762Y-885190D01*
X3985952Y-999476D02*
X3985952Y-799476D01*
X4071667Y-999476D02*
X4071667Y-894714D01*
X4062143Y-875667D01*
X4043095Y-866143D01*
X4014524Y-866143D01*
X3995476Y-875667D01*
X3985952Y-885190D01*
X4195476Y-999476D02*
X4176428Y-989952D01*
X4166905Y-980428D01*
X4157381Y-961381D01*
X4157381Y-904238D01*
X4166905Y-885190D01*
X4176428Y-875667D01*
X4195476Y-866143D01*
X4224048Y-866143D01*
X4243095Y-875667D01*
X4252619Y-885190D01*
X4262143Y-904238D01*
X4262143Y-961381D01*
X4252619Y-980428D01*
X4243095Y-989952D01*
X4224048Y-999476D01*
X4195476Y-999476D01*
X4376429Y-999476D02*
X4357381Y-989952D01*
X4347857Y-970905D01*
X4347857Y-799476D01*
X4528810Y-989952D02*
X4509762Y-999476D01*
X4471667Y-999476D01*
X4452619Y-989952D01*
X4443095Y-970905D01*
X4443095Y-894714D01*
X4452619Y-875667D01*
X4471667Y-866143D01*
X4509762Y-866143D01*
X4528810Y-875667D01*
X4538333Y-894714D01*
X4538333Y-913762D01*
X4443095Y-932809D01*
X4614524Y-989952D02*
X4633571Y-999476D01*
X4671667Y-999476D01*
X4690714Y-989952D01*
X4700238Y-970905D01*
X4700238Y-961381D01*
X4690714Y-942333D01*
X4671667Y-932809D01*
X4643095Y-932809D01*
X4624048Y-923286D01*
X4614524Y-904238D01*
X4614524Y-894714D01*
X4624048Y-875667D01*
X4643095Y-866143D01*
X4671667Y-866143D01*
X4690714Y-875667D01*
X4766905Y-1075667D02*
X4776429Y-1066143D01*
X4795476Y-1037571D01*
X4805000Y-1018524D01*
X4814524Y-989952D01*
X4824048Y-942333D01*
X4824048Y-904238D01*
X4814524Y-856619D01*
X4805000Y-828048D01*
X4795476Y-809000D01*
X4776429Y-780428D01*
X4766905Y-770905D01*
D14*
X-37500Y-1140500D02*
X-37500Y-1205500D01*
X-70000Y-1173000D02*
X-5000Y-1173000D01*
D11*
X290714Y-1063476D02*
X309762Y-1063476D01*
X328810Y-1073000D01*
X338333Y-1082524D01*
X347857Y-1101571D01*
X357381Y-1139667D01*
X357381Y-1187286D01*
X347857Y-1225381D01*
X338333Y-1244429D01*
X328810Y-1253952D01*
X309762Y-1263476D01*
X290714Y-1263476D01*
X271667Y-1253952D01*
X262143Y-1244429D01*
X252619Y-1225381D01*
X243095Y-1187286D01*
X243095Y-1139667D01*
X252619Y-1101571D01*
X262143Y-1082524D01*
X271667Y-1073000D01*
X290714Y-1063476D01*
X443095Y-1244429D02*
X452619Y-1253952D01*
X443095Y-1263476D01*
X433571Y-1253952D01*
X443095Y-1244429D01*
X443095Y-1263476D01*
X624048Y-1063476D02*
X585952Y-1063476D01*
X566905Y-1073000D01*
X557381Y-1082524D01*
X538333Y-1111095D01*
X528810Y-1149190D01*
X528810Y-1225381D01*
X538333Y-1244429D01*
X547857Y-1253952D01*
X566905Y-1263476D01*
X605000Y-1263476D01*
X624048Y-1253952D01*
X633571Y-1244429D01*
X643095Y-1225381D01*
X643095Y-1177762D01*
X633571Y-1158714D01*
X624048Y-1149190D01*
X605000Y-1139667D01*
X566905Y-1139667D01*
X547857Y-1149190D01*
X538333Y-1158714D01*
X528810Y-1177762D01*
X824048Y-1063476D02*
X728809Y-1063476D01*
X719286Y-1158714D01*
X728809Y-1149190D01*
X747857Y-1139667D01*
X795476Y-1139667D01*
X814524Y-1149190D01*
X824048Y-1158714D01*
X833571Y-1177762D01*
X833571Y-1225381D01*
X824048Y-1244429D01*
X814524Y-1253952D01*
X795476Y-1263476D01*
X747857Y-1263476D01*
X728809Y-1253952D01*
X719286Y-1244429D01*
X957381Y-1063476D02*
X976428Y-1063476D01*
X995476Y-1073000D01*
X1005000Y-1082524D01*
X1014524Y-1101571D01*
X1024048Y-1139667D01*
X1024048Y-1187286D01*
X1014524Y-1225381D01*
X1005000Y-1244429D01*
X995476Y-1253952D01*
X976428Y-1263476D01*
X957381Y-1263476D01*
X938333Y-1253952D01*
X928809Y-1244429D01*
X919286Y-1225381D01*
X909762Y-1187286D01*
X909762Y-1139667D01*
X919286Y-1101571D01*
X928809Y-1082524D01*
X938333Y-1073000D01*
X957381Y-1063476D01*
X1109762Y-1263476D02*
X1109762Y-1130143D01*
X1109762Y-1149190D02*
X1119286Y-1139667D01*
X1138333Y-1130143D01*
X1166905Y-1130143D01*
X1185952Y-1139667D01*
X1195476Y-1158714D01*
X1195476Y-1263476D01*
X1195476Y-1158714D02*
X1205000Y-1139667D01*
X1224048Y-1130143D01*
X1252619Y-1130143D01*
X1271667Y-1139667D01*
X1281190Y-1158714D01*
X1281190Y-1263476D01*
X1376429Y-1263476D02*
X1376429Y-1130143D01*
X1376429Y-1149190D02*
X1385952Y-1139667D01*
X1405000Y-1130143D01*
X1433571Y-1130143D01*
X1452619Y-1139667D01*
X1462143Y-1158714D01*
X1462143Y-1263476D01*
X1462143Y-1158714D02*
X1471667Y-1139667D01*
X1490714Y-1130143D01*
X1519286Y-1130143D01*
X1538333Y-1139667D01*
X1547857Y-1158714D01*
X1547857Y-1263476D01*
X1938333Y-1053952D02*
X1766905Y-1311095D01*
X2195476Y-1063476D02*
X2214524Y-1063476D01*
X2233571Y-1073000D01*
X2243095Y-1082524D01*
X2252619Y-1101571D01*
X2262143Y-1139667D01*
X2262143Y-1187286D01*
X2252619Y-1225381D01*
X2243095Y-1244429D01*
X2233571Y-1253952D01*
X2214524Y-1263476D01*
X2195476Y-1263476D01*
X2176429Y-1253952D01*
X2166905Y-1244429D01*
X2157381Y-1225381D01*
X2147857Y-1187286D01*
X2147857Y-1139667D01*
X2157381Y-1101571D01*
X2166905Y-1082524D01*
X2176429Y-1073000D01*
X2195476Y-1063476D01*
X2347857Y-1244429D02*
X2357381Y-1253952D01*
X2347857Y-1263476D01*
X2338333Y-1253952D01*
X2347857Y-1244429D01*
X2347857Y-1263476D01*
X2481190Y-1063476D02*
X2500238Y-1063476D01*
X2519286Y-1073000D01*
X2528810Y-1082524D01*
X2538333Y-1101571D01*
X2547857Y-1139667D01*
X2547857Y-1187286D01*
X2538333Y-1225381D01*
X2528810Y-1244429D01*
X2519286Y-1253952D01*
X2500238Y-1263476D01*
X2481190Y-1263476D01*
X2462143Y-1253952D01*
X2452619Y-1244429D01*
X2443095Y-1225381D01*
X2433571Y-1187286D01*
X2433571Y-1139667D01*
X2443095Y-1101571D01*
X2452619Y-1082524D01*
X2462143Y-1073000D01*
X2481190Y-1063476D01*
X2624048Y-1082524D02*
X2633571Y-1073000D01*
X2652619Y-1063476D01*
X2700238Y-1063476D01*
X2719286Y-1073000D01*
X2728810Y-1082524D01*
X2738333Y-1101571D01*
X2738333Y-1120619D01*
X2728810Y-1149190D01*
X2614524Y-1263476D01*
X2738333Y-1263476D01*
X2919286Y-1063476D02*
X2824048Y-1063476D01*
X2814524Y-1158714D01*
X2824048Y-1149190D01*
X2843095Y-1139667D01*
X2890714Y-1139667D01*
X2909762Y-1149190D01*
X2919286Y-1158714D01*
X2928809Y-1177762D01*
X2928809Y-1225381D01*
X2919286Y-1244429D01*
X2909762Y-1253952D01*
X2890714Y-1263476D01*
X2843095Y-1263476D01*
X2824048Y-1253952D01*
X2814524Y-1244429D01*
X3100238Y-1063476D02*
X3062143Y-1063476D01*
X3043095Y-1073000D01*
X3033571Y-1082524D01*
X3014524Y-1111095D01*
X3005000Y-1149190D01*
X3005000Y-1225381D01*
X3014524Y-1244429D01*
X3024048Y-1253952D01*
X3043095Y-1263476D01*
X3081190Y-1263476D01*
X3100238Y-1253952D01*
X3109762Y-1244429D01*
X3119286Y-1225381D01*
X3119286Y-1177762D01*
X3109762Y-1158714D01*
X3100238Y-1149190D01*
X3081190Y-1139667D01*
X3043095Y-1139667D01*
X3024048Y-1149190D01*
X3014524Y-1158714D01*
X3005000Y-1177762D01*
X3195476Y-1063476D02*
X3195476Y-1101571D01*
X3271667Y-1063476D02*
X3271667Y-1101571D01*
X3566905Y-1339667D02*
X3557381Y-1330143D01*
X3538333Y-1301571D01*
X3528809Y-1282524D01*
X3519286Y-1253952D01*
X3509762Y-1206333D01*
X3509762Y-1168238D01*
X3519286Y-1120619D01*
X3528809Y-1092048D01*
X3538333Y-1073000D01*
X3557381Y-1044428D01*
X3566905Y-1034905D01*
X3624048Y-1063476D02*
X3747857Y-1063476D01*
X3681190Y-1139667D01*
X3709762Y-1139667D01*
X3728809Y-1149190D01*
X3738333Y-1158714D01*
X3747857Y-1177762D01*
X3747857Y-1225381D01*
X3738333Y-1244429D01*
X3728809Y-1253952D01*
X3709762Y-1263476D01*
X3652619Y-1263476D01*
X3633571Y-1253952D01*
X3624048Y-1244429D01*
X3985952Y-1263476D02*
X3985952Y-1063476D01*
X4071667Y-1263476D02*
X4071667Y-1158714D01*
X4062143Y-1139667D01*
X4043095Y-1130143D01*
X4014524Y-1130143D01*
X3995476Y-1139667D01*
X3985952Y-1149190D01*
X4195476Y-1263476D02*
X4176428Y-1253952D01*
X4166905Y-1244429D01*
X4157381Y-1225381D01*
X4157381Y-1168238D01*
X4166905Y-1149190D01*
X4176428Y-1139667D01*
X4195476Y-1130143D01*
X4224048Y-1130143D01*
X4243095Y-1139667D01*
X4252619Y-1149190D01*
X4262143Y-1168238D01*
X4262143Y-1225381D01*
X4252619Y-1244429D01*
X4243095Y-1253952D01*
X4224048Y-1263476D01*
X4195476Y-1263476D01*
X4376429Y-1263476D02*
X4357381Y-1253952D01*
X4347857Y-1234905D01*
X4347857Y-1063476D01*
X4528810Y-1253952D02*
X4509762Y-1263476D01*
X4471667Y-1263476D01*
X4452619Y-1253952D01*
X4443095Y-1234905D01*
X4443095Y-1158714D01*
X4452619Y-1139667D01*
X4471667Y-1130143D01*
X4509762Y-1130143D01*
X4528810Y-1139667D01*
X4538333Y-1158714D01*
X4538333Y-1177762D01*
X4443095Y-1196810D01*
X4614524Y-1253952D02*
X4633571Y-1263476D01*
X4671667Y-1263476D01*
X4690714Y-1253952D01*
X4700238Y-1234905D01*
X4700238Y-1225381D01*
X4690714Y-1206333D01*
X4671667Y-1196810D01*
X4643095Y-1196810D01*
X4624048Y-1187286D01*
X4614524Y-1168238D01*
X4614524Y-1158714D01*
X4624048Y-1139667D01*
X4643095Y-1130143D01*
X4671667Y-1130143D01*
X4690714Y-1139667D01*
X4766905Y-1339667D02*
X4776429Y-1330143D01*
X4795476Y-1301571D01*
X4805000Y-1282524D01*
X4814524Y-1253952D01*
X4824048Y-1206333D01*
X4824048Y-1168238D01*
X4814524Y-1120619D01*
X4805000Y-1092048D01*
X4795476Y-1073000D01*
X4776429Y-1044428D01*
X4766905Y-1034905D01*
D15*
X-16716Y-1465284D02*
X-16716Y-1408715D01*
X-73285Y-1408715D01*
X-73285Y-1465284D01*
X-16716Y-1465284D01*
D11*
X290714Y-1327476D02*
X309762Y-1327476D01*
X328810Y-1337000D01*
X338333Y-1346524D01*
X347857Y-1365571D01*
X357381Y-1403667D01*
X357381Y-1451286D01*
X347857Y-1489381D01*
X338333Y-1508428D01*
X328810Y-1517952D01*
X309762Y-1527476D01*
X290714Y-1527476D01*
X271667Y-1517952D01*
X262143Y-1508428D01*
X252619Y-1489381D01*
X243095Y-1451286D01*
X243095Y-1403667D01*
X252619Y-1365571D01*
X262143Y-1346524D01*
X271667Y-1337000D01*
X290714Y-1327476D01*
X443095Y-1508428D02*
X452619Y-1517952D01*
X443095Y-1527476D01*
X433571Y-1517952D01*
X443095Y-1508428D01*
X443095Y-1527476D01*
X566905Y-1413190D02*
X547857Y-1403667D01*
X538333Y-1394143D01*
X528810Y-1375095D01*
X528810Y-1365571D01*
X538333Y-1346524D01*
X547857Y-1337000D01*
X566905Y-1327476D01*
X605000Y-1327476D01*
X624048Y-1337000D01*
X633571Y-1346524D01*
X643095Y-1365571D01*
X643095Y-1375095D01*
X633571Y-1394143D01*
X624048Y-1403667D01*
X605000Y-1413190D01*
X566905Y-1413190D01*
X547857Y-1422714D01*
X538333Y-1432238D01*
X528810Y-1451286D01*
X528810Y-1489381D01*
X538333Y-1508428D01*
X547857Y-1517952D01*
X566905Y-1527476D01*
X605000Y-1527476D01*
X624048Y-1517952D01*
X633571Y-1508428D01*
X643095Y-1489381D01*
X643095Y-1451286D01*
X633571Y-1432238D01*
X624048Y-1422714D01*
X605000Y-1413190D01*
X766905Y-1327476D02*
X785952Y-1327476D01*
X805000Y-1337000D01*
X814524Y-1346524D01*
X824048Y-1365571D01*
X833571Y-1403667D01*
X833571Y-1451286D01*
X824048Y-1489381D01*
X814524Y-1508428D01*
X805000Y-1517952D01*
X785952Y-1527476D01*
X766905Y-1527476D01*
X747857Y-1517952D01*
X738333Y-1508428D01*
X728809Y-1489381D01*
X719286Y-1451286D01*
X719286Y-1403667D01*
X728809Y-1365571D01*
X738333Y-1346524D01*
X747857Y-1337000D01*
X766905Y-1327476D01*
X957381Y-1327476D02*
X976428Y-1327476D01*
X995476Y-1337000D01*
X1005000Y-1346524D01*
X1014524Y-1365571D01*
X1024048Y-1403667D01*
X1024048Y-1451286D01*
X1014524Y-1489381D01*
X1005000Y-1508428D01*
X995476Y-1517952D01*
X976428Y-1527476D01*
X957381Y-1527476D01*
X938333Y-1517952D01*
X928809Y-1508428D01*
X919286Y-1489381D01*
X909762Y-1451286D01*
X909762Y-1403667D01*
X919286Y-1365571D01*
X928809Y-1346524D01*
X938333Y-1337000D01*
X957381Y-1327476D01*
X1109762Y-1527476D02*
X1109762Y-1394143D01*
X1109762Y-1413190D02*
X1119286Y-1403667D01*
X1138333Y-1394143D01*
X1166905Y-1394143D01*
X1185952Y-1403667D01*
X1195476Y-1422714D01*
X1195476Y-1527476D01*
X1195476Y-1422714D02*
X1205000Y-1403667D01*
X1224048Y-1394143D01*
X1252619Y-1394143D01*
X1271667Y-1403667D01*
X1281190Y-1422714D01*
X1281190Y-1527476D01*
X1376429Y-1527476D02*
X1376429Y-1394143D01*
X1376429Y-1413190D02*
X1385952Y-1403667D01*
X1405000Y-1394143D01*
X1433571Y-1394143D01*
X1452619Y-1403667D01*
X1462143Y-1422714D01*
X1462143Y-1527476D01*
X1462143Y-1422714D02*
X1471667Y-1403667D01*
X1490714Y-1394143D01*
X1519286Y-1394143D01*
X1538333Y-1403667D01*
X1547857Y-1422714D01*
X1547857Y-1527476D01*
X1938333Y-1317952D02*
X1766905Y-1575095D01*
X2195476Y-1327476D02*
X2214524Y-1327476D01*
X2233571Y-1337000D01*
X2243095Y-1346524D01*
X2252619Y-1365571D01*
X2262143Y-1403667D01*
X2262143Y-1451286D01*
X2252619Y-1489381D01*
X2243095Y-1508428D01*
X2233571Y-1517952D01*
X2214524Y-1527476D01*
X2195476Y-1527476D01*
X2176429Y-1517952D01*
X2166905Y-1508428D01*
X2157381Y-1489381D01*
X2147857Y-1451286D01*
X2147857Y-1403667D01*
X2157381Y-1365571D01*
X2166905Y-1346524D01*
X2176429Y-1337000D01*
X2195476Y-1327476D01*
X2347857Y-1508428D02*
X2357381Y-1517952D01*
X2347857Y-1527476D01*
X2338333Y-1517952D01*
X2347857Y-1508428D01*
X2347857Y-1527476D01*
X2481190Y-1327476D02*
X2500238Y-1327476D01*
X2519286Y-1337000D01*
X2528810Y-1346524D01*
X2538333Y-1365571D01*
X2547857Y-1403667D01*
X2547857Y-1451286D01*
X2538333Y-1489381D01*
X2528810Y-1508428D01*
X2519286Y-1517952D01*
X2500238Y-1527476D01*
X2481190Y-1527476D01*
X2462143Y-1517952D01*
X2452619Y-1508428D01*
X2443095Y-1489381D01*
X2433571Y-1451286D01*
X2433571Y-1403667D01*
X2443095Y-1365571D01*
X2452619Y-1346524D01*
X2462143Y-1337000D01*
X2481190Y-1327476D01*
X2614524Y-1327476D02*
X2738333Y-1327476D01*
X2671667Y-1403667D01*
X2700238Y-1403667D01*
X2719286Y-1413190D01*
X2728810Y-1422714D01*
X2738333Y-1441762D01*
X2738333Y-1489381D01*
X2728810Y-1508428D01*
X2719286Y-1517952D01*
X2700238Y-1527476D01*
X2643095Y-1527476D01*
X2624048Y-1517952D01*
X2614524Y-1508428D01*
X2928809Y-1527476D02*
X2814524Y-1527476D01*
X2871667Y-1527476D02*
X2871667Y-1327476D01*
X2852619Y-1356048D01*
X2833571Y-1375095D01*
X2814524Y-1384619D01*
X3109762Y-1327476D02*
X3014524Y-1327476D01*
X3005000Y-1422714D01*
X3014524Y-1413190D01*
X3033571Y-1403667D01*
X3081190Y-1403667D01*
X3100238Y-1413190D01*
X3109762Y-1422714D01*
X3119286Y-1441762D01*
X3119286Y-1489381D01*
X3109762Y-1508428D01*
X3100238Y-1517952D01*
X3081190Y-1527476D01*
X3033571Y-1527476D01*
X3014524Y-1517952D01*
X3005000Y-1508428D01*
X3195476Y-1327476D02*
X3195476Y-1365571D01*
X3271667Y-1327476D02*
X3271667Y-1365571D01*
X3566905Y-1603667D02*
X3557381Y-1594143D01*
X3538333Y-1565571D01*
X3528809Y-1546524D01*
X3519286Y-1517952D01*
X3509762Y-1470333D01*
X3509762Y-1432238D01*
X3519286Y-1384619D01*
X3528809Y-1356048D01*
X3538333Y-1337000D01*
X3557381Y-1308429D01*
X3566905Y-1298905D01*
X3624048Y-1327476D02*
X3747857Y-1327476D01*
X3681190Y-1403667D01*
X3709762Y-1403667D01*
X3728809Y-1413190D01*
X3738333Y-1422714D01*
X3747857Y-1441762D01*
X3747857Y-1489381D01*
X3738333Y-1508428D01*
X3728809Y-1517952D01*
X3709762Y-1527476D01*
X3652619Y-1527476D01*
X3633571Y-1517952D01*
X3624048Y-1508428D01*
X3919286Y-1394143D02*
X3919286Y-1527476D01*
X3871667Y-1317952D02*
X3824048Y-1460809D01*
X3947857Y-1460809D01*
X4176428Y-1527476D02*
X4176428Y-1327476D01*
X4262143Y-1527476D02*
X4262143Y-1422714D01*
X4252619Y-1403667D01*
X4233571Y-1394143D01*
X4205000Y-1394143D01*
X4185952Y-1403667D01*
X4176428Y-1413190D01*
X4385952Y-1527476D02*
X4366905Y-1517952D01*
X4357381Y-1508428D01*
X4347857Y-1489381D01*
X4347857Y-1432238D01*
X4357381Y-1413190D01*
X4366905Y-1403667D01*
X4385952Y-1394143D01*
X4414524Y-1394143D01*
X4433571Y-1403667D01*
X4443095Y-1413190D01*
X4452619Y-1432238D01*
X4452619Y-1489381D01*
X4443095Y-1508428D01*
X4433571Y-1517952D01*
X4414524Y-1527476D01*
X4385952Y-1527476D01*
X4566905Y-1527476D02*
X4547857Y-1517952D01*
X4538333Y-1498905D01*
X4538333Y-1327476D01*
X4719286Y-1517952D02*
X4700238Y-1527476D01*
X4662143Y-1527476D01*
X4643095Y-1517952D01*
X4633571Y-1498905D01*
X4633571Y-1422714D01*
X4643095Y-1403667D01*
X4662143Y-1394143D01*
X4700238Y-1394143D01*
X4719286Y-1403667D01*
X4728810Y-1422714D01*
X4728810Y-1441762D01*
X4633571Y-1460809D01*
X4805000Y-1517952D02*
X4824048Y-1527476D01*
X4862143Y-1527476D01*
X4881190Y-1517952D01*
X4890714Y-1498905D01*
X4890714Y-1489381D01*
X4881190Y-1470333D01*
X4862143Y-1460809D01*
X4833571Y-1460809D01*
X4814524Y-1451286D01*
X4805000Y-1432238D01*
X4805000Y-1422714D01*
X4814524Y-1403667D01*
X4833571Y-1394143D01*
X4862143Y-1394143D01*
X4881190Y-1403667D01*
X5128810Y-1451286D02*
X5281190Y-1451286D01*
X5205000Y-1527476D02*
X5205000Y-1375095D01*
X5519286Y-1346524D02*
X5528810Y-1337000D01*
X5547857Y-1327476D01*
X5595476Y-1327476D01*
X5614524Y-1337000D01*
X5624048Y-1346524D01*
X5633571Y-1365571D01*
X5633571Y-1384619D01*
X5624048Y-1413190D01*
X5509762Y-1527476D01*
X5633571Y-1527476D01*
X5862143Y-1517952D02*
X5881190Y-1527476D01*
X5919286Y-1527476D01*
X5938333Y-1517952D01*
X5947857Y-1498905D01*
X5947857Y-1489381D01*
X5938333Y-1470333D01*
X5919286Y-1460809D01*
X5890714Y-1460809D01*
X5871667Y-1451286D01*
X5862143Y-1432238D01*
X5862143Y-1422714D01*
X5871667Y-1403667D01*
X5890714Y-1394143D01*
X5919286Y-1394143D01*
X5938333Y-1403667D01*
X6062143Y-1527476D02*
X6043095Y-1517952D01*
X6033571Y-1498905D01*
X6033571Y-1327476D01*
X6166905Y-1527476D02*
X6147857Y-1517952D01*
X6138333Y-1508428D01*
X6128809Y-1489381D01*
X6128809Y-1432238D01*
X6138333Y-1413190D01*
X6147857Y-1403667D01*
X6166905Y-1394143D01*
X6195476Y-1394143D01*
X6214524Y-1403667D01*
X6224048Y-1413190D01*
X6233571Y-1432238D01*
X6233571Y-1489381D01*
X6224048Y-1508428D01*
X6214524Y-1517952D01*
X6195476Y-1527476D01*
X6166905Y-1527476D01*
X6290714Y-1394143D02*
X6366905Y-1394143D01*
X6319286Y-1327476D02*
X6319286Y-1498905D01*
X6328809Y-1517952D01*
X6347857Y-1527476D01*
X6366905Y-1527476D01*
X6424048Y-1517952D02*
X6443095Y-1527476D01*
X6481190Y-1527476D01*
X6500238Y-1517952D01*
X6509762Y-1498905D01*
X6509762Y-1489381D01*
X6500238Y-1470333D01*
X6481190Y-1460809D01*
X6452619Y-1460809D01*
X6433571Y-1451286D01*
X6424048Y-1432238D01*
X6424048Y-1422714D01*
X6433571Y-1403667D01*
X6452619Y-1394143D01*
X6481190Y-1394143D01*
X6500238Y-1403667D01*
X6576428Y-1603667D02*
X6585952Y-1594143D01*
X6605000Y-1565571D01*
X6614524Y-1546524D01*
X6624048Y-1517952D01*
X6633571Y-1470333D01*
X6633571Y-1432238D01*
X6624048Y-1384619D01*
X6614524Y-1356048D01*
X6605000Y-1337000D01*
X6585952Y-1308429D01*
X6576428Y-1298905D01*
D16*
X-50000Y-1746000D02*
X-5000Y-1701000D01*
X-50000Y-1656000D01*
X-95000Y-1701000D01*
X-50000Y-1746000D01*
D11*
X290714Y-1591476D02*
X309762Y-1591476D01*
X328810Y-1601000D01*
X338333Y-1610524D01*
X347857Y-1629571D01*
X357381Y-1667667D01*
X357381Y-1715286D01*
X347857Y-1753381D01*
X338333Y-1772428D01*
X328810Y-1781952D01*
X309762Y-1791476D01*
X290714Y-1791476D01*
X271667Y-1781952D01*
X262143Y-1772428D01*
X252619Y-1753381D01*
X243095Y-1715286D01*
X243095Y-1667667D01*
X252619Y-1629571D01*
X262143Y-1610524D01*
X271667Y-1601000D01*
X290714Y-1591476D01*
X443095Y-1772428D02*
X452619Y-1781952D01*
X443095Y-1791476D01*
X433571Y-1781952D01*
X443095Y-1772428D01*
X443095Y-1791476D01*
X547857Y-1791476D02*
X585952Y-1791476D01*
X605000Y-1781952D01*
X614524Y-1772428D01*
X633571Y-1743857D01*
X643095Y-1705762D01*
X643095Y-1629571D01*
X633571Y-1610524D01*
X624048Y-1601000D01*
X605000Y-1591476D01*
X566905Y-1591476D01*
X547857Y-1601000D01*
X538333Y-1610524D01*
X528810Y-1629571D01*
X528810Y-1677190D01*
X538333Y-1696238D01*
X547857Y-1705762D01*
X566905Y-1715286D01*
X605000Y-1715286D01*
X624048Y-1705762D01*
X633571Y-1696238D01*
X643095Y-1677190D01*
X766905Y-1591476D02*
X785952Y-1591476D01*
X805000Y-1601000D01*
X814524Y-1610524D01*
X824048Y-1629571D01*
X833571Y-1667667D01*
X833571Y-1715286D01*
X824048Y-1753381D01*
X814524Y-1772428D01*
X805000Y-1781952D01*
X785952Y-1791476D01*
X766905Y-1791476D01*
X747857Y-1781952D01*
X738333Y-1772428D01*
X728809Y-1753381D01*
X719286Y-1715286D01*
X719286Y-1667667D01*
X728809Y-1629571D01*
X738333Y-1610524D01*
X747857Y-1601000D01*
X766905Y-1591476D01*
X957381Y-1591476D02*
X976428Y-1591476D01*
X995476Y-1601000D01*
X1005000Y-1610524D01*
X1014524Y-1629571D01*
X1024048Y-1667667D01*
X1024048Y-1715286D01*
X1014524Y-1753381D01*
X1005000Y-1772428D01*
X995476Y-1781952D01*
X976428Y-1791476D01*
X957381Y-1791476D01*
X938333Y-1781952D01*
X928809Y-1772428D01*
X919286Y-1753381D01*
X909762Y-1715286D01*
X909762Y-1667667D01*
X919286Y-1629571D01*
X928809Y-1610524D01*
X938333Y-1601000D01*
X957381Y-1591476D01*
X1109762Y-1791476D02*
X1109762Y-1658143D01*
X1109762Y-1677190D02*
X1119286Y-1667667D01*
X1138333Y-1658143D01*
X1166905Y-1658143D01*
X1185952Y-1667667D01*
X1195476Y-1686714D01*
X1195476Y-1791476D01*
X1195476Y-1686714D02*
X1205000Y-1667667D01*
X1224048Y-1658143D01*
X1252619Y-1658143D01*
X1271667Y-1667667D01*
X1281190Y-1686714D01*
X1281190Y-1791476D01*
X1376429Y-1791476D02*
X1376429Y-1658143D01*
X1376429Y-1677190D02*
X1385952Y-1667667D01*
X1405000Y-1658143D01*
X1433571Y-1658143D01*
X1452619Y-1667667D01*
X1462143Y-1686714D01*
X1462143Y-1791476D01*
X1462143Y-1686714D02*
X1471667Y-1667667D01*
X1490714Y-1658143D01*
X1519286Y-1658143D01*
X1538333Y-1667667D01*
X1547857Y-1686714D01*
X1547857Y-1791476D01*
X1938333Y-1581952D02*
X1766905Y-1839095D01*
X2195476Y-1591476D02*
X2214524Y-1591476D01*
X2233571Y-1601000D01*
X2243095Y-1610524D01*
X2252619Y-1629571D01*
X2262143Y-1667667D01*
X2262143Y-1715286D01*
X2252619Y-1753381D01*
X2243095Y-1772428D01*
X2233571Y-1781952D01*
X2214524Y-1791476D01*
X2195476Y-1791476D01*
X2176429Y-1781952D01*
X2166905Y-1772428D01*
X2157381Y-1753381D01*
X2147857Y-1715286D01*
X2147857Y-1667667D01*
X2157381Y-1629571D01*
X2166905Y-1610524D01*
X2176429Y-1601000D01*
X2195476Y-1591476D01*
X2347857Y-1772428D02*
X2357381Y-1781952D01*
X2347857Y-1791476D01*
X2338333Y-1781952D01*
X2347857Y-1772428D01*
X2347857Y-1791476D01*
X2481190Y-1591476D02*
X2500238Y-1591476D01*
X2519286Y-1601000D01*
X2528810Y-1610524D01*
X2538333Y-1629571D01*
X2547857Y-1667667D01*
X2547857Y-1715286D01*
X2538333Y-1753381D01*
X2528810Y-1772428D01*
X2519286Y-1781952D01*
X2500238Y-1791476D01*
X2481190Y-1791476D01*
X2462143Y-1781952D01*
X2452619Y-1772428D01*
X2443095Y-1753381D01*
X2433571Y-1715286D01*
X2433571Y-1667667D01*
X2443095Y-1629571D01*
X2452619Y-1610524D01*
X2462143Y-1601000D01*
X2481190Y-1591476D01*
X2614524Y-1591476D02*
X2738333Y-1591476D01*
X2671667Y-1667667D01*
X2700238Y-1667667D01*
X2719286Y-1677190D01*
X2728810Y-1686714D01*
X2738333Y-1705762D01*
X2738333Y-1753381D01*
X2728810Y-1772428D01*
X2719286Y-1781952D01*
X2700238Y-1791476D01*
X2643095Y-1791476D01*
X2624048Y-1781952D01*
X2614524Y-1772428D01*
X2919286Y-1591476D02*
X2824048Y-1591476D01*
X2814524Y-1686714D01*
X2824048Y-1677190D01*
X2843095Y-1667667D01*
X2890714Y-1667667D01*
X2909762Y-1677190D01*
X2919286Y-1686714D01*
X2928809Y-1705762D01*
X2928809Y-1753381D01*
X2919286Y-1772428D01*
X2909762Y-1781952D01*
X2890714Y-1791476D01*
X2843095Y-1791476D01*
X2824048Y-1781952D01*
X2814524Y-1772428D01*
X3100238Y-1658143D02*
X3100238Y-1791476D01*
X3052619Y-1581952D02*
X3005000Y-1724809D01*
X3128809Y-1724809D01*
X3195476Y-1591476D02*
X3195476Y-1629571D01*
X3271667Y-1591476D02*
X3271667Y-1629571D01*
X3566905Y-1867667D02*
X3557381Y-1858143D01*
X3538333Y-1829571D01*
X3528809Y-1810524D01*
X3519286Y-1781952D01*
X3509762Y-1734333D01*
X3509762Y-1696238D01*
X3519286Y-1648619D01*
X3528809Y-1620048D01*
X3538333Y-1601000D01*
X3557381Y-1572428D01*
X3566905Y-1562905D01*
X3633571Y-1610524D02*
X3643095Y-1601000D01*
X3662143Y-1591476D01*
X3709762Y-1591476D01*
X3728809Y-1601000D01*
X3738333Y-1610524D01*
X3747857Y-1629571D01*
X3747857Y-1648619D01*
X3738333Y-1677190D01*
X3624048Y-1791476D01*
X3747857Y-1791476D01*
X3919286Y-1591476D02*
X3881190Y-1591476D01*
X3862143Y-1601000D01*
X3852619Y-1610524D01*
X3833571Y-1639095D01*
X3824048Y-1677190D01*
X3824048Y-1753381D01*
X3833571Y-1772428D01*
X3843095Y-1781952D01*
X3862143Y-1791476D01*
X3900238Y-1791476D01*
X3919286Y-1781952D01*
X3928809Y-1772428D01*
X3938333Y-1753381D01*
X3938333Y-1705762D01*
X3928809Y-1686714D01*
X3919286Y-1677190D01*
X3900238Y-1667667D01*
X3862143Y-1667667D01*
X3843095Y-1677190D01*
X3833571Y-1686714D01*
X3824048Y-1705762D01*
X4176428Y-1791476D02*
X4176428Y-1591476D01*
X4262143Y-1791476D02*
X4262143Y-1686714D01*
X4252619Y-1667667D01*
X4233571Y-1658143D01*
X4205000Y-1658143D01*
X4185952Y-1667667D01*
X4176428Y-1677190D01*
X4385952Y-1791476D02*
X4366905Y-1781952D01*
X4357381Y-1772428D01*
X4347857Y-1753381D01*
X4347857Y-1696238D01*
X4357381Y-1677190D01*
X4366905Y-1667667D01*
X4385952Y-1658143D01*
X4414524Y-1658143D01*
X4433571Y-1667667D01*
X4443095Y-1677190D01*
X4452619Y-1696238D01*
X4452619Y-1753381D01*
X4443095Y-1772428D01*
X4433571Y-1781952D01*
X4414524Y-1791476D01*
X4385952Y-1791476D01*
X4566905Y-1791476D02*
X4547857Y-1781952D01*
X4538333Y-1762905D01*
X4538333Y-1591476D01*
X4719286Y-1781952D02*
X4700238Y-1791476D01*
X4662143Y-1791476D01*
X4643095Y-1781952D01*
X4633571Y-1762905D01*
X4633571Y-1686714D01*
X4643095Y-1667667D01*
X4662143Y-1658143D01*
X4700238Y-1658143D01*
X4719286Y-1667667D01*
X4728810Y-1686714D01*
X4728810Y-1705762D01*
X4633571Y-1724809D01*
X4805000Y-1781952D02*
X4824048Y-1791476D01*
X4862143Y-1791476D01*
X4881190Y-1781952D01*
X4890714Y-1762905D01*
X4890714Y-1753381D01*
X4881190Y-1734333D01*
X4862143Y-1724809D01*
X4833571Y-1724809D01*
X4814524Y-1715286D01*
X4805000Y-1696238D01*
X4805000Y-1686714D01*
X4814524Y-1667667D01*
X4833571Y-1658143D01*
X4862143Y-1658143D01*
X4881190Y-1667667D01*
X4957381Y-1867667D02*
X4966905Y-1858143D01*
X4985952Y-1829571D01*
X4995476Y-1810524D01*
X5005000Y-1781952D01*
X5014524Y-1734333D01*
X5014524Y-1696238D01*
X5005000Y-1648619D01*
X4995476Y-1620048D01*
X4985952Y-1601000D01*
X4966905Y-1572428D01*
X4957381Y-1562905D01*
D17*
X-105000Y-1915000D02*
X-5000Y-2015000D01*
X-5000Y-1915000D02*
X-105000Y-2015000D01*
X-5000Y-1965000D02*
G75*
G03*
X-5000Y-1965000I-50000J0D01*
G01*
D11*
X357381Y-2055476D02*
X243095Y-2055476D01*
X300238Y-2055476D02*
X300238Y-1855476D01*
X281190Y-1884048D01*
X262143Y-1903095D01*
X243095Y-1912619D01*
X443095Y-2036428D02*
X452619Y-2045952D01*
X443095Y-2055476D01*
X433571Y-2045952D01*
X443095Y-2036428D01*
X443095Y-2055476D01*
X576429Y-1855476D02*
X595476Y-1855476D01*
X614524Y-1865000D01*
X624048Y-1874524D01*
X633571Y-1893571D01*
X643095Y-1931667D01*
X643095Y-1979286D01*
X633571Y-2017381D01*
X624048Y-2036428D01*
X614524Y-2045952D01*
X595476Y-2055476D01*
X576429Y-2055476D01*
X557381Y-2045952D01*
X547857Y-2036428D01*
X538333Y-2017381D01*
X528810Y-1979286D01*
X528810Y-1931667D01*
X538333Y-1893571D01*
X547857Y-1874524D01*
X557381Y-1865000D01*
X576429Y-1855476D01*
X766905Y-1855476D02*
X785952Y-1855476D01*
X805000Y-1865000D01*
X814524Y-1874524D01*
X824048Y-1893571D01*
X833571Y-1931667D01*
X833571Y-1979286D01*
X824048Y-2017381D01*
X814524Y-2036428D01*
X805000Y-2045952D01*
X785952Y-2055476D01*
X766905Y-2055476D01*
X747857Y-2045952D01*
X738333Y-2036428D01*
X728809Y-2017381D01*
X719286Y-1979286D01*
X719286Y-1931667D01*
X728809Y-1893571D01*
X738333Y-1874524D01*
X747857Y-1865000D01*
X766905Y-1855476D01*
X957381Y-1855476D02*
X976428Y-1855476D01*
X995476Y-1865000D01*
X1005000Y-1874524D01*
X1014524Y-1893571D01*
X1024048Y-1931667D01*
X1024048Y-1979286D01*
X1014524Y-2017381D01*
X1005000Y-2036428D01*
X995476Y-2045952D01*
X976428Y-2055476D01*
X957381Y-2055476D01*
X938333Y-2045952D01*
X928809Y-2036428D01*
X919286Y-2017381D01*
X909762Y-1979286D01*
X909762Y-1931667D01*
X919286Y-1893571D01*
X928809Y-1874524D01*
X938333Y-1865000D01*
X957381Y-1855476D01*
X1109762Y-2055476D02*
X1109762Y-1922143D01*
X1109762Y-1941190D02*
X1119286Y-1931667D01*
X1138333Y-1922143D01*
X1166905Y-1922143D01*
X1185952Y-1931667D01*
X1195476Y-1950714D01*
X1195476Y-2055476D01*
X1195476Y-1950714D02*
X1205000Y-1931667D01*
X1224048Y-1922143D01*
X1252619Y-1922143D01*
X1271667Y-1931667D01*
X1281190Y-1950714D01*
X1281190Y-2055476D01*
X1376429Y-2055476D02*
X1376429Y-1922143D01*
X1376429Y-1941190D02*
X1385952Y-1931667D01*
X1405000Y-1922143D01*
X1433571Y-1922143D01*
X1452619Y-1931667D01*
X1462143Y-1950714D01*
X1462143Y-2055476D01*
X1462143Y-1950714D02*
X1471667Y-1931667D01*
X1490714Y-1922143D01*
X1519286Y-1922143D01*
X1538333Y-1931667D01*
X1547857Y-1950714D01*
X1547857Y-2055476D01*
X1938333Y-1845952D02*
X1766905Y-2103095D01*
X2195476Y-1855476D02*
X2214524Y-1855476D01*
X2233571Y-1865000D01*
X2243095Y-1874524D01*
X2252619Y-1893571D01*
X2262143Y-1931667D01*
X2262143Y-1979286D01*
X2252619Y-2017381D01*
X2243095Y-2036428D01*
X2233571Y-2045952D01*
X2214524Y-2055476D01*
X2195476Y-2055476D01*
X2176429Y-2045952D01*
X2166905Y-2036428D01*
X2157381Y-2017381D01*
X2147857Y-1979286D01*
X2147857Y-1931667D01*
X2157381Y-1893571D01*
X2166905Y-1874524D01*
X2176429Y-1865000D01*
X2195476Y-1855476D01*
X2347857Y-2036428D02*
X2357381Y-2045952D01*
X2347857Y-2055476D01*
X2338333Y-2045952D01*
X2347857Y-2036428D01*
X2347857Y-2055476D01*
X2481190Y-1855476D02*
X2500238Y-1855476D01*
X2519286Y-1865000D01*
X2528810Y-1874524D01*
X2538333Y-1893571D01*
X2547857Y-1931667D01*
X2547857Y-1979286D01*
X2538333Y-2017381D01*
X2528810Y-2036428D01*
X2519286Y-2045952D01*
X2500238Y-2055476D01*
X2481190Y-2055476D01*
X2462143Y-2045952D01*
X2452619Y-2036428D01*
X2443095Y-2017381D01*
X2433571Y-1979286D01*
X2433571Y-1931667D01*
X2443095Y-1893571D01*
X2452619Y-1874524D01*
X2462143Y-1865000D01*
X2481190Y-1855476D01*
X2614524Y-1855476D02*
X2738333Y-1855476D01*
X2671667Y-1931667D01*
X2700238Y-1931667D01*
X2719286Y-1941190D01*
X2728810Y-1950714D01*
X2738333Y-1969762D01*
X2738333Y-2017381D01*
X2728810Y-2036428D01*
X2719286Y-2045952D01*
X2700238Y-2055476D01*
X2643095Y-2055476D01*
X2624048Y-2045952D01*
X2614524Y-2036428D01*
X2833571Y-2055476D02*
X2871667Y-2055476D01*
X2890714Y-2045952D01*
X2900238Y-2036428D01*
X2919286Y-2007857D01*
X2928809Y-1969762D01*
X2928809Y-1893571D01*
X2919286Y-1874524D01*
X2909762Y-1865000D01*
X2890714Y-1855476D01*
X2852619Y-1855476D01*
X2833571Y-1865000D01*
X2824048Y-1874524D01*
X2814524Y-1893571D01*
X2814524Y-1941190D01*
X2824048Y-1960238D01*
X2833571Y-1969762D01*
X2852619Y-1979286D01*
X2890714Y-1979286D01*
X2909762Y-1969762D01*
X2919286Y-1960238D01*
X2928809Y-1941190D01*
X3100238Y-1922143D02*
X3100238Y-2055476D01*
X3052619Y-1845952D02*
X3005000Y-1988809D01*
X3128809Y-1988809D01*
X3195476Y-1855476D02*
X3195476Y-1893571D01*
X3271667Y-1855476D02*
X3271667Y-1893571D01*
X3566905Y-2131667D02*
X3557381Y-2122143D01*
X3538333Y-2093571D01*
X3528809Y-2074524D01*
X3519286Y-2045952D01*
X3509762Y-1998333D01*
X3509762Y-1960238D01*
X3519286Y-1912619D01*
X3528809Y-1884048D01*
X3538333Y-1865000D01*
X3557381Y-1836428D01*
X3566905Y-1826905D01*
X3633571Y-1874524D02*
X3643095Y-1865000D01*
X3662143Y-1855476D01*
X3709762Y-1855476D01*
X3728809Y-1865000D01*
X3738333Y-1874524D01*
X3747857Y-1893571D01*
X3747857Y-1912619D01*
X3738333Y-1941190D01*
X3624048Y-2055476D01*
X3747857Y-2055476D01*
X3985952Y-2055476D02*
X3985952Y-1855476D01*
X4071667Y-2055476D02*
X4071667Y-1950714D01*
X4062143Y-1931667D01*
X4043095Y-1922143D01*
X4014524Y-1922143D01*
X3995476Y-1931667D01*
X3985952Y-1941190D01*
X4195476Y-2055476D02*
X4176428Y-2045952D01*
X4166905Y-2036428D01*
X4157381Y-2017381D01*
X4157381Y-1960238D01*
X4166905Y-1941190D01*
X4176428Y-1931667D01*
X4195476Y-1922143D01*
X4224048Y-1922143D01*
X4243095Y-1931667D01*
X4252619Y-1941190D01*
X4262143Y-1960238D01*
X4262143Y-2017381D01*
X4252619Y-2036428D01*
X4243095Y-2045952D01*
X4224048Y-2055476D01*
X4195476Y-2055476D01*
X4376429Y-2055476D02*
X4357381Y-2045952D01*
X4347857Y-2026905D01*
X4347857Y-1855476D01*
X4528810Y-2045952D02*
X4509762Y-2055476D01*
X4471667Y-2055476D01*
X4452619Y-2045952D01*
X4443095Y-2026905D01*
X4443095Y-1950714D01*
X4452619Y-1931667D01*
X4471667Y-1922143D01*
X4509762Y-1922143D01*
X4528810Y-1931667D01*
X4538333Y-1950714D01*
X4538333Y-1969762D01*
X4443095Y-1988809D01*
X4614524Y-2045952D02*
X4633571Y-2055476D01*
X4671667Y-2055476D01*
X4690714Y-2045952D01*
X4700238Y-2026905D01*
X4700238Y-2017381D01*
X4690714Y-1998333D01*
X4671667Y-1988809D01*
X4643095Y-1988809D01*
X4624048Y-1979286D01*
X4614524Y-1960238D01*
X4614524Y-1950714D01*
X4624048Y-1931667D01*
X4643095Y-1922143D01*
X4671667Y-1922143D01*
X4690714Y-1931667D01*
X4938333Y-1979286D02*
X5090714Y-1979286D01*
X5014524Y-2055476D02*
X5014524Y-1903095D01*
X5328810Y-1874524D02*
X5338333Y-1865000D01*
X5357381Y-1855476D01*
X5405000Y-1855476D01*
X5424048Y-1865000D01*
X5433571Y-1874524D01*
X5443095Y-1893571D01*
X5443095Y-1912619D01*
X5433571Y-1941190D01*
X5319286Y-2055476D01*
X5443095Y-2055476D01*
X5671667Y-2045952D02*
X5690714Y-2055476D01*
X5728809Y-2055476D01*
X5747857Y-2045952D01*
X5757381Y-2026905D01*
X5757381Y-2017381D01*
X5747857Y-1998333D01*
X5728809Y-1988809D01*
X5700238Y-1988809D01*
X5681190Y-1979286D01*
X5671667Y-1960238D01*
X5671667Y-1950714D01*
X5681190Y-1931667D01*
X5700238Y-1922143D01*
X5728809Y-1922143D01*
X5747857Y-1931667D01*
X5871667Y-2055476D02*
X5852619Y-2045952D01*
X5843095Y-2026905D01*
X5843095Y-1855476D01*
X5976428Y-2055476D02*
X5957381Y-2045952D01*
X5947857Y-2036428D01*
X5938333Y-2017381D01*
X5938333Y-1960238D01*
X5947857Y-1941190D01*
X5957381Y-1931667D01*
X5976428Y-1922143D01*
X6005000Y-1922143D01*
X6024048Y-1931667D01*
X6033571Y-1941190D01*
X6043095Y-1960238D01*
X6043095Y-2017381D01*
X6033571Y-2036428D01*
X6024048Y-2045952D01*
X6005000Y-2055476D01*
X5976428Y-2055476D01*
X6100238Y-1922143D02*
X6176428Y-1922143D01*
X6128809Y-1855476D02*
X6128809Y-2026905D01*
X6138333Y-2045952D01*
X6157381Y-2055476D01*
X6176428Y-2055476D01*
X6233571Y-2045952D02*
X6252619Y-2055476D01*
X6290714Y-2055476D01*
X6309762Y-2045952D01*
X6319286Y-2026905D01*
X6319286Y-2017381D01*
X6309762Y-1998333D01*
X6290714Y-1988809D01*
X6262143Y-1988809D01*
X6243095Y-1979286D01*
X6233571Y-1960238D01*
X6233571Y-1950714D01*
X6243095Y-1931667D01*
X6262143Y-1922143D01*
X6290714Y-1922143D01*
X6309762Y-1931667D01*
X6385952Y-2131667D02*
X6395476Y-2122143D01*
X6414524Y-2093571D01*
X6424048Y-2074524D01*
X6433571Y-2045952D01*
X6443095Y-1998333D01*
X6443095Y-1960238D01*
X6433571Y-1912619D01*
X6424048Y-1884048D01*
X6414524Y-1865000D01*
X6395476Y-1836428D01*
X6385952Y-1826905D01*
D18*
X-115000Y-2174000D02*
X-5000Y-2284000D01*
X-5000Y-2174000D02*
X-115000Y-2284000D01*
X-60000Y-2174000D02*
X-60000Y-2284000D01*
X-115000Y-2229000D02*
X-5000Y-2229000D01*
D11*
X357381Y-2319476D02*
X243095Y-2319476D01*
X300238Y-2319476D02*
X300238Y-2119476D01*
X281190Y-2148048D01*
X262143Y-2167095D01*
X243095Y-2176619D01*
X443095Y-2300429D02*
X452619Y-2309952D01*
X443095Y-2319476D01*
X433571Y-2309952D01*
X443095Y-2300429D01*
X443095Y-2319476D01*
X643095Y-2319476D02*
X528810Y-2319476D01*
X585952Y-2319476D02*
X585952Y-2119476D01*
X566905Y-2148048D01*
X547857Y-2167095D01*
X528810Y-2176619D01*
X766905Y-2119476D02*
X785952Y-2119476D01*
X805000Y-2129000D01*
X814524Y-2138524D01*
X824048Y-2157571D01*
X833571Y-2195667D01*
X833571Y-2243286D01*
X824048Y-2281381D01*
X814524Y-2300429D01*
X805000Y-2309952D01*
X785952Y-2319476D01*
X766905Y-2319476D01*
X747857Y-2309952D01*
X738333Y-2300429D01*
X728809Y-2281381D01*
X719286Y-2243286D01*
X719286Y-2195667D01*
X728809Y-2157571D01*
X738333Y-2138524D01*
X747857Y-2129000D01*
X766905Y-2119476D01*
X957381Y-2119476D02*
X976428Y-2119476D01*
X995476Y-2129000D01*
X1005000Y-2138524D01*
X1014524Y-2157571D01*
X1024048Y-2195667D01*
X1024048Y-2243286D01*
X1014524Y-2281381D01*
X1005000Y-2300429D01*
X995476Y-2309952D01*
X976428Y-2319476D01*
X957381Y-2319476D01*
X938333Y-2309952D01*
X928809Y-2300429D01*
X919286Y-2281381D01*
X909762Y-2243286D01*
X909762Y-2195667D01*
X919286Y-2157571D01*
X928809Y-2138524D01*
X938333Y-2129000D01*
X957381Y-2119476D01*
X1109762Y-2319476D02*
X1109762Y-2186143D01*
X1109762Y-2205190D02*
X1119286Y-2195667D01*
X1138333Y-2186143D01*
X1166905Y-2186143D01*
X1185952Y-2195667D01*
X1195476Y-2214714D01*
X1195476Y-2319476D01*
X1195476Y-2214714D02*
X1205000Y-2195667D01*
X1224048Y-2186143D01*
X1252619Y-2186143D01*
X1271667Y-2195667D01*
X1281190Y-2214714D01*
X1281190Y-2319476D01*
X1376429Y-2319476D02*
X1376429Y-2186143D01*
X1376429Y-2205190D02*
X1385952Y-2195667D01*
X1405000Y-2186143D01*
X1433571Y-2186143D01*
X1452619Y-2195667D01*
X1462143Y-2214714D01*
X1462143Y-2319476D01*
X1462143Y-2214714D02*
X1471667Y-2195667D01*
X1490714Y-2186143D01*
X1519286Y-2186143D01*
X1538333Y-2195667D01*
X1547857Y-2214714D01*
X1547857Y-2319476D01*
X1938333Y-2109952D02*
X1766905Y-2367095D01*
X2195476Y-2119476D02*
X2214524Y-2119476D01*
X2233571Y-2129000D01*
X2243095Y-2138524D01*
X2252619Y-2157571D01*
X2262143Y-2195667D01*
X2262143Y-2243286D01*
X2252619Y-2281381D01*
X2243095Y-2300429D01*
X2233571Y-2309952D01*
X2214524Y-2319476D01*
X2195476Y-2319476D01*
X2176429Y-2309952D01*
X2166905Y-2300429D01*
X2157381Y-2281381D01*
X2147857Y-2243286D01*
X2147857Y-2195667D01*
X2157381Y-2157571D01*
X2166905Y-2138524D01*
X2176429Y-2129000D01*
X2195476Y-2119476D01*
X2347857Y-2300429D02*
X2357381Y-2309952D01*
X2347857Y-2319476D01*
X2338333Y-2309952D01*
X2347857Y-2300429D01*
X2347857Y-2319476D01*
X2481190Y-2119476D02*
X2500238Y-2119476D01*
X2519286Y-2129000D01*
X2528810Y-2138524D01*
X2538333Y-2157571D01*
X2547857Y-2195667D01*
X2547857Y-2243286D01*
X2538333Y-2281381D01*
X2528810Y-2300429D01*
X2519286Y-2309952D01*
X2500238Y-2319476D01*
X2481190Y-2319476D01*
X2462143Y-2309952D01*
X2452619Y-2300429D01*
X2443095Y-2281381D01*
X2433571Y-2243286D01*
X2433571Y-2195667D01*
X2443095Y-2157571D01*
X2452619Y-2138524D01*
X2462143Y-2129000D01*
X2481190Y-2119476D01*
X2719286Y-2186143D02*
X2719286Y-2319476D01*
X2671667Y-2109952D02*
X2624048Y-2252810D01*
X2747857Y-2252810D01*
X2805000Y-2119476D02*
X2928809Y-2119476D01*
X2862143Y-2195667D01*
X2890714Y-2195667D01*
X2909762Y-2205190D01*
X2919286Y-2214714D01*
X2928809Y-2233762D01*
X2928809Y-2281381D01*
X2919286Y-2300429D01*
X2909762Y-2309952D01*
X2890714Y-2319476D01*
X2833571Y-2319476D01*
X2814524Y-2309952D01*
X2805000Y-2300429D01*
X2995476Y-2119476D02*
X3119286Y-2119476D01*
X3052619Y-2195667D01*
X3081190Y-2195667D01*
X3100238Y-2205190D01*
X3109762Y-2214714D01*
X3119286Y-2233762D01*
X3119286Y-2281381D01*
X3109762Y-2300429D01*
X3100238Y-2309952D01*
X3081190Y-2319476D01*
X3024048Y-2319476D01*
X3005000Y-2309952D01*
X2995476Y-2300429D01*
X3195476Y-2119476D02*
X3195476Y-2157571D01*
X3271667Y-2119476D02*
X3271667Y-2157571D01*
X3566905Y-2395667D02*
X3557381Y-2386143D01*
X3538333Y-2357571D01*
X3528809Y-2338524D01*
X3519286Y-2309952D01*
X3509762Y-2262333D01*
X3509762Y-2224238D01*
X3519286Y-2176619D01*
X3528809Y-2148048D01*
X3538333Y-2129000D01*
X3557381Y-2100429D01*
X3566905Y-2090905D01*
X3747857Y-2319476D02*
X3633571Y-2319476D01*
X3690714Y-2319476D02*
X3690714Y-2119476D01*
X3671667Y-2148048D01*
X3652619Y-2167095D01*
X3633571Y-2176619D01*
X3985952Y-2319476D02*
X3985952Y-2119476D01*
X4071667Y-2319476D02*
X4071667Y-2214714D01*
X4062143Y-2195667D01*
X4043095Y-2186143D01*
X4014524Y-2186143D01*
X3995476Y-2195667D01*
X3985952Y-2205190D01*
X4195476Y-2319476D02*
X4176428Y-2309952D01*
X4166905Y-2300429D01*
X4157381Y-2281381D01*
X4157381Y-2224238D01*
X4166905Y-2205190D01*
X4176428Y-2195667D01*
X4195476Y-2186143D01*
X4224048Y-2186143D01*
X4243095Y-2195667D01*
X4252619Y-2205190D01*
X4262143Y-2224238D01*
X4262143Y-2281381D01*
X4252619Y-2300429D01*
X4243095Y-2309952D01*
X4224048Y-2319476D01*
X4195476Y-2319476D01*
X4376429Y-2319476D02*
X4357381Y-2309952D01*
X4347857Y-2290905D01*
X4347857Y-2119476D01*
X4528810Y-2309952D02*
X4509762Y-2319476D01*
X4471667Y-2319476D01*
X4452619Y-2309952D01*
X4443095Y-2290905D01*
X4443095Y-2214714D01*
X4452619Y-2195667D01*
X4471667Y-2186143D01*
X4509762Y-2186143D01*
X4528810Y-2195667D01*
X4538333Y-2214714D01*
X4538333Y-2233762D01*
X4443095Y-2252810D01*
X4605000Y-2395667D02*
X4614524Y-2386143D01*
X4633571Y-2357571D01*
X4643095Y-2338524D01*
X4652619Y-2309952D01*
X4662143Y-2262333D01*
X4662143Y-2224238D01*
X4652619Y-2176619D01*
X4643095Y-2148048D01*
X4633571Y-2129000D01*
X4614524Y-2100429D01*
X4605000Y-2090905D01*
D19*
X-125000Y-2433000D02*
X-5000Y-2553000D01*
X-5000Y-2433000D02*
X-125000Y-2553000D01*
X-22573Y-2535427D02*
X-22573Y-2450573D01*
X-107427Y-2450573D01*
X-107427Y-2535427D01*
X-22573Y-2535427D01*
D11*
X357381Y-2583476D02*
X243095Y-2583476D01*
X300238Y-2583476D02*
X300238Y-2383476D01*
X281190Y-2412048D01*
X262143Y-2431095D01*
X243095Y-2440619D01*
X443095Y-2564429D02*
X452619Y-2573952D01*
X443095Y-2583476D01*
X433571Y-2573952D01*
X443095Y-2564429D01*
X443095Y-2583476D01*
X528810Y-2402524D02*
X538333Y-2393000D01*
X557381Y-2383476D01*
X605000Y-2383476D01*
X624048Y-2393000D01*
X633571Y-2402524D01*
X643095Y-2421571D01*
X643095Y-2440619D01*
X633571Y-2469190D01*
X519286Y-2583476D01*
X643095Y-2583476D01*
X766905Y-2383476D02*
X785952Y-2383476D01*
X805000Y-2393000D01*
X814524Y-2402524D01*
X824048Y-2421571D01*
X833571Y-2459667D01*
X833571Y-2507286D01*
X824048Y-2545381D01*
X814524Y-2564429D01*
X805000Y-2573952D01*
X785952Y-2583476D01*
X766905Y-2583476D01*
X747857Y-2573952D01*
X738333Y-2564429D01*
X728809Y-2545381D01*
X719286Y-2507286D01*
X719286Y-2459667D01*
X728809Y-2421571D01*
X738333Y-2402524D01*
X747857Y-2393000D01*
X766905Y-2383476D01*
X957381Y-2383476D02*
X976428Y-2383476D01*
X995476Y-2393000D01*
X1005000Y-2402524D01*
X1014524Y-2421571D01*
X1024048Y-2459667D01*
X1024048Y-2507286D01*
X1014524Y-2545381D01*
X1005000Y-2564429D01*
X995476Y-2573952D01*
X976428Y-2583476D01*
X957381Y-2583476D01*
X938333Y-2573952D01*
X928809Y-2564429D01*
X919286Y-2545381D01*
X909762Y-2507286D01*
X909762Y-2459667D01*
X919286Y-2421571D01*
X928809Y-2402524D01*
X938333Y-2393000D01*
X957381Y-2383476D01*
X1109762Y-2583476D02*
X1109762Y-2450143D01*
X1109762Y-2469190D02*
X1119286Y-2459667D01*
X1138333Y-2450143D01*
X1166905Y-2450143D01*
X1185952Y-2459667D01*
X1195476Y-2478714D01*
X1195476Y-2583476D01*
X1195476Y-2478714D02*
X1205000Y-2459667D01*
X1224048Y-2450143D01*
X1252619Y-2450143D01*
X1271667Y-2459667D01*
X1281190Y-2478714D01*
X1281190Y-2583476D01*
X1376429Y-2583476D02*
X1376429Y-2450143D01*
X1376429Y-2469190D02*
X1385952Y-2459667D01*
X1405000Y-2450143D01*
X1433571Y-2450143D01*
X1452619Y-2459667D01*
X1462143Y-2478714D01*
X1462143Y-2583476D01*
X1462143Y-2478714D02*
X1471667Y-2459667D01*
X1490714Y-2450143D01*
X1519286Y-2450143D01*
X1538333Y-2459667D01*
X1547857Y-2478714D01*
X1547857Y-2583476D01*
X1938333Y-2373952D02*
X1766905Y-2631095D01*
X2195476Y-2383476D02*
X2214524Y-2383476D01*
X2233571Y-2393000D01*
X2243095Y-2402524D01*
X2252619Y-2421571D01*
X2262143Y-2459667D01*
X2262143Y-2507286D01*
X2252619Y-2545381D01*
X2243095Y-2564429D01*
X2233571Y-2573952D01*
X2214524Y-2583476D01*
X2195476Y-2583476D01*
X2176429Y-2573952D01*
X2166905Y-2564429D01*
X2157381Y-2545381D01*
X2147857Y-2507286D01*
X2147857Y-2459667D01*
X2157381Y-2421571D01*
X2166905Y-2402524D01*
X2176429Y-2393000D01*
X2195476Y-2383476D01*
X2347857Y-2564429D02*
X2357381Y-2573952D01*
X2347857Y-2583476D01*
X2338333Y-2573952D01*
X2347857Y-2564429D01*
X2347857Y-2583476D01*
X2481190Y-2383476D02*
X2500238Y-2383476D01*
X2519286Y-2393000D01*
X2528810Y-2402524D01*
X2538333Y-2421571D01*
X2547857Y-2459667D01*
X2547857Y-2507286D01*
X2538333Y-2545381D01*
X2528810Y-2564429D01*
X2519286Y-2573952D01*
X2500238Y-2583476D01*
X2481190Y-2583476D01*
X2462143Y-2573952D01*
X2452619Y-2564429D01*
X2443095Y-2545381D01*
X2433571Y-2507286D01*
X2433571Y-2459667D01*
X2443095Y-2421571D01*
X2452619Y-2402524D01*
X2462143Y-2393000D01*
X2481190Y-2383476D01*
X2719286Y-2450143D02*
X2719286Y-2583476D01*
X2671667Y-2373952D02*
X2624048Y-2516810D01*
X2747857Y-2516810D01*
X2805000Y-2383476D02*
X2938333Y-2383476D01*
X2852619Y-2583476D01*
X3005000Y-2402524D02*
X3014524Y-2393000D01*
X3033571Y-2383476D01*
X3081190Y-2383476D01*
X3100238Y-2393000D01*
X3109762Y-2402524D01*
X3119286Y-2421571D01*
X3119286Y-2440619D01*
X3109762Y-2469190D01*
X2995476Y-2583476D01*
X3119286Y-2583476D01*
X3195476Y-2383476D02*
X3195476Y-2421571D01*
X3271667Y-2383476D02*
X3271667Y-2421571D01*
X3566905Y-2659667D02*
X3557381Y-2650143D01*
X3538333Y-2621571D01*
X3528809Y-2602524D01*
X3519286Y-2573952D01*
X3509762Y-2526333D01*
X3509762Y-2488238D01*
X3519286Y-2440619D01*
X3528809Y-2412048D01*
X3538333Y-2393000D01*
X3557381Y-2364429D01*
X3566905Y-2354905D01*
X3671667Y-2469190D02*
X3652619Y-2459667D01*
X3643095Y-2450143D01*
X3633571Y-2431095D01*
X3633571Y-2421571D01*
X3643095Y-2402524D01*
X3652619Y-2393000D01*
X3671667Y-2383476D01*
X3709762Y-2383476D01*
X3728809Y-2393000D01*
X3738333Y-2402524D01*
X3747857Y-2421571D01*
X3747857Y-2431095D01*
X3738333Y-2450143D01*
X3728809Y-2459667D01*
X3709762Y-2469190D01*
X3671667Y-2469190D01*
X3652619Y-2478714D01*
X3643095Y-2488238D01*
X3633571Y-2507286D01*
X3633571Y-2545381D01*
X3643095Y-2564429D01*
X3652619Y-2573952D01*
X3671667Y-2583476D01*
X3709762Y-2583476D01*
X3728809Y-2573952D01*
X3738333Y-2564429D01*
X3747857Y-2545381D01*
X3747857Y-2507286D01*
X3738333Y-2488238D01*
X3728809Y-2478714D01*
X3709762Y-2469190D01*
X3985952Y-2583476D02*
X3985952Y-2383476D01*
X4071667Y-2583476D02*
X4071667Y-2478714D01*
X4062143Y-2459667D01*
X4043095Y-2450143D01*
X4014524Y-2450143D01*
X3995476Y-2459667D01*
X3985952Y-2469190D01*
X4195476Y-2583476D02*
X4176428Y-2573952D01*
X4166905Y-2564429D01*
X4157381Y-2545381D01*
X4157381Y-2488238D01*
X4166905Y-2469190D01*
X4176428Y-2459667D01*
X4195476Y-2450143D01*
X4224048Y-2450143D01*
X4243095Y-2459667D01*
X4252619Y-2469190D01*
X4262143Y-2488238D01*
X4262143Y-2545381D01*
X4252619Y-2564429D01*
X4243095Y-2573952D01*
X4224048Y-2583476D01*
X4195476Y-2583476D01*
X4376429Y-2583476D02*
X4357381Y-2573952D01*
X4347857Y-2554905D01*
X4347857Y-2383476D01*
X4528810Y-2573952D02*
X4509762Y-2583476D01*
X4471667Y-2583476D01*
X4452619Y-2573952D01*
X4443095Y-2554905D01*
X4443095Y-2478714D01*
X4452619Y-2459667D01*
X4471667Y-2450143D01*
X4509762Y-2450143D01*
X4528810Y-2459667D01*
X4538333Y-2478714D01*
X4538333Y-2497762D01*
X4443095Y-2516810D01*
X4614524Y-2573952D02*
X4633571Y-2583476D01*
X4671667Y-2583476D01*
X4690714Y-2573952D01*
X4700238Y-2554905D01*
X4700238Y-2545381D01*
X4690714Y-2526333D01*
X4671667Y-2516810D01*
X4643095Y-2516810D01*
X4624048Y-2507286D01*
X4614524Y-2488238D01*
X4614524Y-2478714D01*
X4624048Y-2459667D01*
X4643095Y-2450143D01*
X4671667Y-2450143D01*
X4690714Y-2459667D01*
X4766905Y-2659667D02*
X4776429Y-2650143D01*
X4795476Y-2621571D01*
X4805000Y-2602524D01*
X4814524Y-2573952D01*
X4824048Y-2526333D01*
X4824048Y-2488238D01*
X4814524Y-2440619D01*
X4805000Y-2412048D01*
X4795476Y-2393000D01*
X4776429Y-2364429D01*
X4766905Y-2354905D01*
D20*
X-155000Y-2682000D02*
X-5000Y-2832000D01*
X-5000Y-2682000D02*
X-155000Y-2832000D01*
X-80000Y-2832000D02*
X-5000Y-2757000D01*
X-80000Y-2682000D01*
X-155000Y-2757000D01*
X-80000Y-2832000D01*
D11*
X357381Y-2847476D02*
X243095Y-2847476D01*
X300238Y-2847476D02*
X300238Y-2647476D01*
X281190Y-2676048D01*
X262143Y-2695095D01*
X243095Y-2704619D01*
X443095Y-2828428D02*
X452619Y-2837952D01*
X443095Y-2847476D01*
X433571Y-2837952D01*
X443095Y-2828428D01*
X443095Y-2847476D01*
X633571Y-2647476D02*
X538333Y-2647476D01*
X528810Y-2742714D01*
X538333Y-2733190D01*
X557381Y-2723667D01*
X605000Y-2723667D01*
X624048Y-2733190D01*
X633571Y-2742714D01*
X643095Y-2761762D01*
X643095Y-2809381D01*
X633571Y-2828428D01*
X624048Y-2837952D01*
X605000Y-2847476D01*
X557381Y-2847476D01*
X538333Y-2837952D01*
X528810Y-2828428D01*
X766905Y-2647476D02*
X785952Y-2647476D01*
X805000Y-2657000D01*
X814524Y-2666524D01*
X824048Y-2685571D01*
X833571Y-2723667D01*
X833571Y-2771286D01*
X824048Y-2809381D01*
X814524Y-2828428D01*
X805000Y-2837952D01*
X785952Y-2847476D01*
X766905Y-2847476D01*
X747857Y-2837952D01*
X738333Y-2828428D01*
X728809Y-2809381D01*
X719286Y-2771286D01*
X719286Y-2723667D01*
X728809Y-2685571D01*
X738333Y-2666524D01*
X747857Y-2657000D01*
X766905Y-2647476D01*
X957381Y-2647476D02*
X976428Y-2647476D01*
X995476Y-2657000D01*
X1005000Y-2666524D01*
X1014524Y-2685571D01*
X1024048Y-2723667D01*
X1024048Y-2771286D01*
X1014524Y-2809381D01*
X1005000Y-2828428D01*
X995476Y-2837952D01*
X976428Y-2847476D01*
X957381Y-2847476D01*
X938333Y-2837952D01*
X928809Y-2828428D01*
X919286Y-2809381D01*
X909762Y-2771286D01*
X909762Y-2723667D01*
X919286Y-2685571D01*
X928809Y-2666524D01*
X938333Y-2657000D01*
X957381Y-2647476D01*
X1109762Y-2847476D02*
X1109762Y-2714143D01*
X1109762Y-2733190D02*
X1119286Y-2723667D01*
X1138333Y-2714143D01*
X1166905Y-2714143D01*
X1185952Y-2723667D01*
X1195476Y-2742714D01*
X1195476Y-2847476D01*
X1195476Y-2742714D02*
X1205000Y-2723667D01*
X1224048Y-2714143D01*
X1252619Y-2714143D01*
X1271667Y-2723667D01*
X1281190Y-2742714D01*
X1281190Y-2847476D01*
X1376429Y-2847476D02*
X1376429Y-2714143D01*
X1376429Y-2733190D02*
X1385952Y-2723667D01*
X1405000Y-2714143D01*
X1433571Y-2714143D01*
X1452619Y-2723667D01*
X1462143Y-2742714D01*
X1462143Y-2847476D01*
X1462143Y-2742714D02*
X1471667Y-2723667D01*
X1490714Y-2714143D01*
X1519286Y-2714143D01*
X1538333Y-2723667D01*
X1547857Y-2742714D01*
X1547857Y-2847476D01*
X1938333Y-2637952D02*
X1766905Y-2895095D01*
X2195476Y-2647476D02*
X2214524Y-2647476D01*
X2233571Y-2657000D01*
X2243095Y-2666524D01*
X2252619Y-2685571D01*
X2262143Y-2723667D01*
X2262143Y-2771286D01*
X2252619Y-2809381D01*
X2243095Y-2828428D01*
X2233571Y-2837952D01*
X2214524Y-2847476D01*
X2195476Y-2847476D01*
X2176429Y-2837952D01*
X2166905Y-2828428D01*
X2157381Y-2809381D01*
X2147857Y-2771286D01*
X2147857Y-2723667D01*
X2157381Y-2685571D01*
X2166905Y-2666524D01*
X2176429Y-2657000D01*
X2195476Y-2647476D01*
X2347857Y-2828428D02*
X2357381Y-2837952D01*
X2347857Y-2847476D01*
X2338333Y-2837952D01*
X2347857Y-2828428D01*
X2347857Y-2847476D01*
X2481190Y-2647476D02*
X2500238Y-2647476D01*
X2519286Y-2657000D01*
X2528810Y-2666524D01*
X2538333Y-2685571D01*
X2547857Y-2723667D01*
X2547857Y-2771286D01*
X2538333Y-2809381D01*
X2528810Y-2828428D01*
X2519286Y-2837952D01*
X2500238Y-2847476D01*
X2481190Y-2847476D01*
X2462143Y-2837952D01*
X2452619Y-2828428D01*
X2443095Y-2809381D01*
X2433571Y-2771286D01*
X2433571Y-2723667D01*
X2443095Y-2685571D01*
X2452619Y-2666524D01*
X2462143Y-2657000D01*
X2481190Y-2647476D01*
X2728810Y-2647476D02*
X2633571Y-2647476D01*
X2624048Y-2742714D01*
X2633571Y-2733190D01*
X2652619Y-2723667D01*
X2700238Y-2723667D01*
X2719286Y-2733190D01*
X2728810Y-2742714D01*
X2738333Y-2761762D01*
X2738333Y-2809381D01*
X2728810Y-2828428D01*
X2719286Y-2837952D01*
X2700238Y-2847476D01*
X2652619Y-2847476D01*
X2633571Y-2837952D01*
X2624048Y-2828428D01*
X2833571Y-2847476D02*
X2871667Y-2847476D01*
X2890714Y-2837952D01*
X2900238Y-2828428D01*
X2919286Y-2799857D01*
X2928809Y-2761762D01*
X2928809Y-2685571D01*
X2919286Y-2666524D01*
X2909762Y-2657000D01*
X2890714Y-2647476D01*
X2852619Y-2647476D01*
X2833571Y-2657000D01*
X2824048Y-2666524D01*
X2814524Y-2685571D01*
X2814524Y-2733190D01*
X2824048Y-2752238D01*
X2833571Y-2761762D01*
X2852619Y-2771286D01*
X2890714Y-2771286D01*
X2909762Y-2761762D01*
X2919286Y-2752238D01*
X2928809Y-2733190D01*
X3119286Y-2847476D02*
X3005000Y-2847476D01*
X3062143Y-2847476D02*
X3062143Y-2647476D01*
X3043095Y-2676048D01*
X3024048Y-2695095D01*
X3005000Y-2704619D01*
X3195476Y-2647476D02*
X3195476Y-2685571D01*
X3271667Y-2647476D02*
X3271667Y-2685571D01*
X3566905Y-2923667D02*
X3557381Y-2914143D01*
X3538333Y-2885571D01*
X3528809Y-2866524D01*
X3519286Y-2837952D01*
X3509762Y-2790333D01*
X3509762Y-2752238D01*
X3519286Y-2704619D01*
X3528809Y-2676048D01*
X3538333Y-2657000D01*
X3557381Y-2628429D01*
X3566905Y-2618905D01*
X3728809Y-2714143D02*
X3728809Y-2847476D01*
X3681190Y-2637952D02*
X3633571Y-2780810D01*
X3757381Y-2780810D01*
X3985952Y-2847476D02*
X3985952Y-2647476D01*
X4071667Y-2847476D02*
X4071667Y-2742714D01*
X4062143Y-2723667D01*
X4043095Y-2714143D01*
X4014524Y-2714143D01*
X3995476Y-2723667D01*
X3985952Y-2733190D01*
X4195476Y-2847476D02*
X4176428Y-2837952D01*
X4166905Y-2828428D01*
X4157381Y-2809381D01*
X4157381Y-2752238D01*
X4166905Y-2733190D01*
X4176428Y-2723667D01*
X4195476Y-2714143D01*
X4224048Y-2714143D01*
X4243095Y-2723667D01*
X4252619Y-2733190D01*
X4262143Y-2752238D01*
X4262143Y-2809381D01*
X4252619Y-2828428D01*
X4243095Y-2837952D01*
X4224048Y-2847476D01*
X4195476Y-2847476D01*
X4376429Y-2847476D02*
X4357381Y-2837952D01*
X4347857Y-2818905D01*
X4347857Y-2647476D01*
X4528810Y-2837952D02*
X4509762Y-2847476D01*
X4471667Y-2847476D01*
X4452619Y-2837952D01*
X4443095Y-2818905D01*
X4443095Y-2742714D01*
X4452619Y-2723667D01*
X4471667Y-2714143D01*
X4509762Y-2714143D01*
X4528810Y-2723667D01*
X4538333Y-2742714D01*
X4538333Y-2761762D01*
X4443095Y-2780810D01*
X4614524Y-2837952D02*
X4633571Y-2847476D01*
X4671667Y-2847476D01*
X4690714Y-2837952D01*
X4700238Y-2818905D01*
X4700238Y-2809381D01*
X4690714Y-2790333D01*
X4671667Y-2780810D01*
X4643095Y-2780810D01*
X4624048Y-2771286D01*
X4614524Y-2752238D01*
X4614524Y-2742714D01*
X4624048Y-2723667D01*
X4643095Y-2714143D01*
X4671667Y-2714143D01*
X4690714Y-2723667D01*
X4766905Y-2923667D02*
X4776429Y-2914143D01*
X4795476Y-2885571D01*
X4805000Y-2866524D01*
X4814524Y-2837952D01*
X4824048Y-2790333D01*
X4824048Y-2752238D01*
X4814524Y-2704619D01*
X4805000Y-2676048D01*
X4795476Y-2657000D01*
X4776429Y-2628429D01*
X4766905Y-2618905D01*
X-105000Y-2927000D02*
X-105000Y-3127000D01*
X-205000Y-3027000D02*
X-5000Y-3027000D01*
X-5000Y-3027000D02*
G75*
G03*
X-5000Y-3027000I-100000J0D01*
G01*
X233571Y-2917476D02*
X357381Y-2917476D01*
X290714Y-2993667D01*
X319286Y-2993667D01*
X338333Y-3003190D01*
X347857Y-3012714D01*
X357381Y-3031762D01*
X357381Y-3079381D01*
X347857Y-3098428D01*
X338333Y-3107952D01*
X319286Y-3117476D01*
X262143Y-3117476D01*
X243095Y-3107952D01*
X233571Y-3098428D01*
X443095Y-3098428D02*
X452619Y-3107952D01*
X443095Y-3117476D01*
X433571Y-3107952D01*
X443095Y-3098428D01*
X443095Y-3117476D01*
X528810Y-2936524D02*
X538333Y-2927000D01*
X557381Y-2917476D01*
X605000Y-2917476D01*
X624048Y-2927000D01*
X633571Y-2936524D01*
X643095Y-2955571D01*
X643095Y-2974619D01*
X633571Y-3003190D01*
X519286Y-3117476D01*
X643095Y-3117476D01*
X766905Y-2917476D02*
X785952Y-2917476D01*
X805000Y-2927000D01*
X814524Y-2936524D01*
X824048Y-2955571D01*
X833571Y-2993667D01*
X833571Y-3041286D01*
X824048Y-3079381D01*
X814524Y-3098428D01*
X805000Y-3107952D01*
X785952Y-3117476D01*
X766905Y-3117476D01*
X747857Y-3107952D01*
X738333Y-3098428D01*
X728809Y-3079381D01*
X719286Y-3041286D01*
X719286Y-2993667D01*
X728809Y-2955571D01*
X738333Y-2936524D01*
X747857Y-2927000D01*
X766905Y-2917476D01*
X957381Y-2917476D02*
X976428Y-2917476D01*
X995476Y-2927000D01*
X1005000Y-2936524D01*
X1014524Y-2955571D01*
X1024048Y-2993667D01*
X1024048Y-3041286D01*
X1014524Y-3079381D01*
X1005000Y-3098428D01*
X995476Y-3107952D01*
X976428Y-3117476D01*
X957381Y-3117476D01*
X938333Y-3107952D01*
X928809Y-3098428D01*
X919286Y-3079381D01*
X909762Y-3041286D01*
X909762Y-2993667D01*
X919286Y-2955571D01*
X928809Y-2936524D01*
X938333Y-2927000D01*
X957381Y-2917476D01*
X1109762Y-3117476D02*
X1109762Y-2984143D01*
X1109762Y-3003190D02*
X1119286Y-2993667D01*
X1138333Y-2984143D01*
X1166905Y-2984143D01*
X1185952Y-2993667D01*
X1195476Y-3012714D01*
X1195476Y-3117476D01*
X1195476Y-3012714D02*
X1205000Y-2993667D01*
X1224048Y-2984143D01*
X1252619Y-2984143D01*
X1271667Y-2993667D01*
X1281190Y-3012714D01*
X1281190Y-3117476D01*
X1376429Y-3117476D02*
X1376429Y-2984143D01*
X1376429Y-3003190D02*
X1385952Y-2993667D01*
X1405000Y-2984143D01*
X1433571Y-2984143D01*
X1452619Y-2993667D01*
X1462143Y-3012714D01*
X1462143Y-3117476D01*
X1462143Y-3012714D02*
X1471667Y-2993667D01*
X1490714Y-2984143D01*
X1519286Y-2984143D01*
X1538333Y-2993667D01*
X1547857Y-3012714D01*
X1547857Y-3117476D01*
X1938333Y-2907952D02*
X1766905Y-3165095D01*
X2195476Y-2917476D02*
X2214524Y-2917476D01*
X2233571Y-2927000D01*
X2243095Y-2936524D01*
X2252619Y-2955571D01*
X2262143Y-2993667D01*
X2262143Y-3041286D01*
X2252619Y-3079381D01*
X2243095Y-3098428D01*
X2233571Y-3107952D01*
X2214524Y-3117476D01*
X2195476Y-3117476D01*
X2176429Y-3107952D01*
X2166905Y-3098428D01*
X2157381Y-3079381D01*
X2147857Y-3041286D01*
X2147857Y-2993667D01*
X2157381Y-2955571D01*
X2166905Y-2936524D01*
X2176429Y-2927000D01*
X2195476Y-2917476D01*
X2347857Y-3098428D02*
X2357381Y-3107952D01*
X2347857Y-3117476D01*
X2338333Y-3107952D01*
X2347857Y-3098428D01*
X2347857Y-3117476D01*
X2547857Y-3117476D02*
X2433571Y-3117476D01*
X2490714Y-3117476D02*
X2490714Y-2917476D01*
X2471667Y-2946048D01*
X2452619Y-2965095D01*
X2433571Y-2974619D01*
X2624048Y-2936524D02*
X2633571Y-2927000D01*
X2652619Y-2917476D01*
X2700238Y-2917476D01*
X2719286Y-2927000D01*
X2728810Y-2936524D01*
X2738333Y-2955571D01*
X2738333Y-2974619D01*
X2728810Y-3003190D01*
X2614524Y-3117476D01*
X2738333Y-3117476D01*
X2909762Y-2917476D02*
X2871667Y-2917476D01*
X2852619Y-2927000D01*
X2843095Y-2936524D01*
X2824048Y-2965095D01*
X2814524Y-3003190D01*
X2814524Y-3079381D01*
X2824048Y-3098428D01*
X2833571Y-3107952D01*
X2852619Y-3117476D01*
X2890714Y-3117476D01*
X2909762Y-3107952D01*
X2919286Y-3098428D01*
X2928809Y-3079381D01*
X2928809Y-3031762D01*
X2919286Y-3012714D01*
X2909762Y-3003190D01*
X2890714Y-2993667D01*
X2852619Y-2993667D01*
X2833571Y-3003190D01*
X2824048Y-3012714D01*
X2814524Y-3031762D01*
X3052619Y-2917476D02*
X3071667Y-2917476D01*
X3090714Y-2927000D01*
X3100238Y-2936524D01*
X3109762Y-2955571D01*
X3119286Y-2993667D01*
X3119286Y-3041286D01*
X3109762Y-3079381D01*
X3100238Y-3098428D01*
X3090714Y-3107952D01*
X3071667Y-3117476D01*
X3052619Y-3117476D01*
X3033571Y-3107952D01*
X3024048Y-3098428D01*
X3014524Y-3079381D01*
X3005000Y-3041286D01*
X3005000Y-2993667D01*
X3014524Y-2955571D01*
X3024048Y-2936524D01*
X3033571Y-2927000D01*
X3052619Y-2917476D01*
X3195476Y-2917476D02*
X3195476Y-2955571D01*
X3271667Y-2917476D02*
X3271667Y-2955571D01*
X3566905Y-3193667D02*
X3557381Y-3184143D01*
X3538333Y-3155571D01*
X3528809Y-3136524D01*
X3519286Y-3107952D01*
X3509762Y-3060333D01*
X3509762Y-3022238D01*
X3519286Y-2974619D01*
X3528809Y-2946048D01*
X3538333Y-2927000D01*
X3557381Y-2898428D01*
X3566905Y-2888905D01*
X3747857Y-3117476D02*
X3633571Y-3117476D01*
X3690714Y-3117476D02*
X3690714Y-2917476D01*
X3671667Y-2946048D01*
X3652619Y-2965095D01*
X3633571Y-2974619D01*
X3985952Y-3117476D02*
X3985952Y-2917476D01*
X4071667Y-3117476D02*
X4071667Y-3012714D01*
X4062143Y-2993667D01*
X4043095Y-2984143D01*
X4014524Y-2984143D01*
X3995476Y-2993667D01*
X3985952Y-3003190D01*
X4195476Y-3117476D02*
X4176428Y-3107952D01*
X4166905Y-3098428D01*
X4157381Y-3079381D01*
X4157381Y-3022238D01*
X4166905Y-3003190D01*
X4176428Y-2993667D01*
X4195476Y-2984143D01*
X4224048Y-2984143D01*
X4243095Y-2993667D01*
X4252619Y-3003190D01*
X4262143Y-3022238D01*
X4262143Y-3079381D01*
X4252619Y-3098428D01*
X4243095Y-3107952D01*
X4224048Y-3117476D01*
X4195476Y-3117476D01*
X4376429Y-3117476D02*
X4357381Y-3107952D01*
X4347857Y-3088905D01*
X4347857Y-2917476D01*
X4528810Y-3107952D02*
X4509762Y-3117476D01*
X4471667Y-3117476D01*
X4452619Y-3107952D01*
X4443095Y-3088905D01*
X4443095Y-3012714D01*
X4452619Y-2993667D01*
X4471667Y-2984143D01*
X4509762Y-2984143D01*
X4528810Y-2993667D01*
X4538333Y-3012714D01*
X4538333Y-3031762D01*
X4443095Y-3050809D01*
X4605000Y-3193667D02*
X4614524Y-3184143D01*
X4633571Y-3155571D01*
X4643095Y-3136524D01*
X4652619Y-3107952D01*
X4662143Y-3060333D01*
X4662143Y-3022238D01*
X4652619Y-2974619D01*
X4643095Y-2946048D01*
X4633571Y-2927000D01*
X4614524Y-2898428D01*
X4605000Y-2888905D01*
M02*
