%TF.GenerationSoftware,KiCad,Pcbnew,(6.0.4)*%
%TF.CreationDate,2023-10-13T17:32:42+02:00*%
%TF.ProjectId,swmeter,73776d65-7465-4722-9e6b-696361645f70,0.6*%
%TF.SameCoordinates,PXc773920PY8f69de0*%
%TF.FileFunction,Component,L1,Top*%
%TF.FilePolarity,Positive*%
%FSLAX46Y46*%
G04 Gerber Fmt 4.6, Leading zero omitted, Abs format (unit mm)*
G04 Created by KiCad (PCBNEW (6.0.4)) date 2023-10-13 17:32:42*
%MOMM*%
%LPD*%
G01*
G04 APERTURE LIST*
%TA.AperFunction,ComponentMain*%
%ADD10C,0.300000*%
%TD*%
%TA.AperFunction,ComponentOutline,Courtyard*%
%ADD11C,0.100000*%
%TD*%
%TA.AperFunction,ComponentPin*%
%ADD12P,0.360000X4X0.000000*%
%TD*%
%TA.AperFunction,ComponentPin*%
%ADD13C,0.000000*%
%TD*%
%TA.AperFunction,Profile*%
%ADD14C,0.100000*%
%TD*%
G04 APERTURE END LIST*
D10*
%TO.C,"BAR1"*%
%TO.CFtp,"HDSP-4836"*%
%TO.CVal,"2510SR-1"*%
%TO.CLbN,"Display"*%
%TO.CMnt,TH*%
%TO.CRot,90*%
X27419496Y4803507D03*
D11*
X51799495Y3283508D02*
X25899497Y3283508D01*
X25899497Y13943506D01*
X51799495Y13943506D01*
X51799495Y3283508D01*
D12*
%TO.P,"BAR1","1","A"*%
X27419496Y4803507D03*
D13*
%TO.P,"BAR1","2","A"*%
X29959496Y4803507D03*
%TO.P,"BAR1","3","A"*%
X32499496Y4803507D03*
%TO.P,"BAR1","4","A"*%
X35039496Y4803507D03*
%TO.P,"BAR1","5","A"*%
X37579496Y4803507D03*
%TO.P,"BAR1","6","A"*%
X40119496Y4803507D03*
%TO.P,"BAR1","7","A"*%
X42659496Y4803507D03*
%TO.P,"BAR1","8","A"*%
X45199496Y4803507D03*
%TO.P,"BAR1","9","A"*%
X47739496Y4803507D03*
%TO.P,"BAR1","10","A"*%
X50279496Y4803507D03*
%TO.P,"BAR1","11","K"*%
X50279496Y12423507D03*
%TO.P,"BAR1","12","K"*%
X47739496Y12423507D03*
%TO.P,"BAR1","13","K"*%
X45199496Y12423507D03*
%TO.P,"BAR1","14","K"*%
X42659496Y12423507D03*
%TO.P,"BAR1","15","K"*%
X40119496Y12423507D03*
%TO.P,"BAR1","16","K"*%
X37579496Y12423507D03*
%TO.P,"BAR1","17","K"*%
X35039496Y12423507D03*
%TO.P,"BAR1","18","K"*%
X32499496Y12423507D03*
%TO.P,"BAR1","19","K"*%
X29959496Y12423507D03*
%TO.P,"BAR1","20","K"*%
X27419496Y12423507D03*
%TD*%
D10*
%TO.C,"SW2"*%
%TO.CFtp,"SW_E-Switch_EG1224_SPDT_Angled"*%
%TO.CVal,"SW_SPDT"*%
%TO.CLbN,"Button_Switch_THT"*%
%TO.CMnt,TH*%
%TO.CRot,180*%
X38792500Y59100000D03*
D11*
X39542499Y64600000D02*
X39542500Y64599999D01*
X42042499Y64599999D01*
X42042499Y56100001D01*
X27542501Y56100001D01*
X27542501Y64599999D01*
X30042500Y64599999D01*
X30042501Y64600000D01*
X30042501Y72849999D01*
X39542499Y72849999D01*
X39542499Y64600000D01*
D12*
%TO.P,"SW2","1","A"*%
X38792500Y59100000D03*
D13*
%TO.P,"SW2",*%
X40792500Y63350000D03*
X28792500Y63350000D03*
X40792500Y57350000D03*
X28792500Y57350000D03*
%TO.P,"SW2","2","B"*%
X34792500Y59100000D03*
%TO.P,"SW2","3","C"*%
X30792500Y59100000D03*
%TD*%
D10*
%TO.C,"C1"*%
%TO.CFtp,"CP_Radial_D4.0mm_P2.00mm"*%
%TO.CVal,"22 µF"*%
%TO.CLbN,"Capacitor_THT"*%
%TO.CMnt,TH*%
%TO.CRot,180*%
X22200000Y13450000D03*
D11*
X18950001Y13450000D02*
X19026668Y14032343D01*
X19251444Y14575000D01*
X19609011Y15040990D01*
X20075001Y15398557D01*
X20617657Y15623333D01*
X20617657Y15623332D01*
X21200000Y15699999D01*
X21782343Y15623332D01*
X22325000Y15398556D01*
X22790990Y15040989D01*
X23148557Y14574999D01*
X23373333Y14032343D01*
X23373332Y14032343D01*
X23449999Y13450000D01*
X23373332Y12867657D01*
X23148556Y12325000D01*
X22790989Y11859010D01*
X22324999Y11501443D01*
X21782343Y11276667D01*
X21782343Y11276668D01*
X21200000Y11200001D01*
X20617657Y11276668D01*
X20075000Y11501444D01*
X19609010Y11859011D01*
X19251443Y12325001D01*
X19026667Y12867657D01*
X19026668Y12867657D01*
X18950001Y13450000D01*
D12*
%TO.P,"C1","1"*%
X22200000Y13450000D03*
D13*
%TO.P,"C1","2"*%
X20200000Y13450000D03*
%TD*%
D10*
%TO.C,"J1"*%
%TO.CFtp,"Jack_3.5mm_Lumberg_1503_07_Horizontal"*%
%TO.CVal,"AudioPlug"*%
%TO.CLbN,"Connector_Audio"*%
%TO.CMnt,TH*%
%TO.CRot,0*%
X43742500Y58922500D03*
D11*
X50742499Y49772501D02*
X42242501Y49772501D01*
X42242501Y65422499D01*
X50742499Y65422499D01*
X50742499Y49772501D01*
D13*
%TO.P,"J1",*%
X43992500Y55422500D03*
X48992500Y55422500D03*
%TO.P,"J1","R"*%
X48792500Y51422500D03*
%TO.P,"J1","S"*%
X44192500Y51422500D03*
%TO.P,"J1","T"*%
X49242500Y58922500D03*
X43742500Y58922500D03*
%TD*%
D10*
%TO.C,"RV1"*%
%TO.CFtp,"Potentiometer_Bourns_3266Y_Vertical"*%
%TO.CVal,"4\u002C7kΩ"*%
%TO.CLbN,"Potentiometer_THT"*%
%TO.CMnt,TH*%
%TO.CRot,180*%
X32205000Y39155000D03*
D11*
X38354999Y36705001D02*
X31105001Y36705001D01*
X31105001Y41754999D01*
X38354999Y41754999D01*
X38354999Y36705001D01*
D12*
%TO.P,"RV1","1","1"*%
X32205000Y39155000D03*
D13*
%TO.P,"RV1","2","2"*%
X34745000Y39155000D03*
%TO.P,"RV1","3","3"*%
X37285000Y39155000D03*
%TD*%
D10*
%TO.C,"SW1"*%
%TO.CFtp,"SW_E-Switch_EG1224_SPDT_Angled"*%
%TO.CVal,"SW_SPDT"*%
%TO.CLbN,"Button_Switch_THT"*%
%TO.CMnt,TH*%
%TO.CRot,0*%
X12940500Y6726500D03*
D11*
X24190499Y1226501D02*
X21690500Y1226501D01*
X21690499Y1226500D01*
X21690499Y-7023499D01*
X12190501Y-7023499D01*
X12190501Y1226500D01*
X12190500Y1226501D01*
X9690501Y1226501D01*
X9690501Y9726499D01*
X24190499Y9726499D01*
X24190499Y1226501D01*
D12*
%TO.P,"SW1","1","A"*%
X12940500Y6726500D03*
D13*
%TO.P,"SW1",*%
X22940500Y2476500D03*
X10940500Y2476500D03*
X10940500Y8476500D03*
X22940500Y8476500D03*
%TO.P,"SW1","2","B"*%
X16940500Y6726500D03*
%TO.P,"SW1","3","C"*%
X20940500Y6726500D03*
%TD*%
D10*
%TO.C,"J3"*%
%TO.CFtp,"PinHeader_1x03_P1.27mm_Vertical"*%
%TO.CVal,"Conn_01x03_Female"*%
%TO.CLbN,"Connector_PinHeader_1.27mm"*%
%TO.CMnt,TH*%
%TO.CRot,-90*%
X40000000Y50580000D03*
D11*
X41149999Y49030001D02*
X36300001Y49030001D01*
X36300001Y52129999D01*
X41149999Y52129999D01*
X41149999Y49030001D01*
D12*
%TO.P,"J3","1","Pin_1"*%
X40000000Y50580000D03*
D13*
%TO.P,"J3","2","Pin_2"*%
X38730000Y50580000D03*
%TO.P,"J3","3","Pin_3"*%
X37460000Y50580000D03*
%TD*%
D10*
%TO.C,"SW3"*%
%TO.CFtp,"SW_DIP_SPSTx03_Slide_9.78x9.8mm_W7.62mm_P2.54mm"*%
%TO.CVal,"SW_DIP_x03"*%
%TO.CLbN,"Button_Switch_THT"*%
%TO.CMnt,TH*%
%TO.CRot,-90*%
X26995000Y45727500D03*
D11*
X29694999Y36777501D02*
X19245001Y36777501D01*
X19245001Y47077499D01*
X29694999Y47077499D01*
X29694999Y36777501D01*
D12*
%TO.P,"SW3","1"*%
X26995000Y45727500D03*
D13*
%TO.P,"SW3","2"*%
X24455000Y45727500D03*
%TO.P,"SW3","3"*%
X21915000Y45727500D03*
%TO.P,"SW3","4"*%
X21915000Y38107500D03*
%TO.P,"SW3","5"*%
X24455000Y38107500D03*
%TO.P,"SW3","6"*%
X26995000Y38107500D03*
%TD*%
D10*
%TO.C,"D0"*%
%TO.CFtp,"D_DO-35_SOD27_P7.62mm_Horizontal"*%
%TO.CVal,"1N5711"*%
%TO.CLbN,"Diode_THT"*%
%TO.CMnt,TH*%
%TO.CRot,180*%
X38980000Y45980000D03*
D11*
X40029999Y44730001D02*
X30310001Y44730001D01*
X30310001Y47229999D01*
X40029999Y47229999D01*
X40029999Y44730001D01*
D12*
%TO.P,"D0","1","K"*%
X38980000Y45980000D03*
D13*
%TO.P,"D0","2","A"*%
X31360000Y45980000D03*
%TD*%
D10*
%TO.C,"J4"*%
%TO.CFtp,"PinHeader_1x03_P1.27mm_Vertical"*%
%TO.CVal,"Conn_01x03_Female"*%
%TO.CLbN,"Connector_PinHeader_1.27mm"*%
%TO.CMnt,TH*%
%TO.CRot,-90*%
X47475000Y44400000D03*
D11*
X48624999Y42850001D02*
X43775001Y42850001D01*
X43775001Y45949999D01*
X48624999Y45949999D01*
X48624999Y42850001D01*
D12*
%TO.P,"J4","1","Pin_1"*%
X47475000Y44400000D03*
D13*
%TO.P,"J4","2","Pin_2"*%
X46205000Y44400000D03*
%TO.P,"J4","3","Pin_3"*%
X44935000Y44400000D03*
%TD*%
D10*
%TO.C,"R1"*%
%TO.CFtp,"R_Axial_DIN0207_L6.3mm_D2.5mm_P10.16mm_Horizontal"*%
%TO.CVal,"1.2kΩ"*%
%TO.CLbN,"Resistor_THT"*%
%TO.CMnt,TH*%
%TO.CRot,180*%
X50172000Y30858000D03*
D11*
X51221999Y29358001D02*
X38962001Y29358001D01*
X38962001Y32357999D01*
X51221999Y32357999D01*
X51221999Y29358001D01*
D12*
%TO.P,"R1","1"*%
X50172000Y30858000D03*
D13*
%TO.P,"R1","2"*%
X40012000Y30858000D03*
%TD*%
D10*
%TO.C,"U1"*%
%TO.CFtp,"DIP-18_W7.62mm_Socket"*%
%TO.CVal,"LM3914N"*%
%TO.CLbN,"Package_DIP"*%
%TO.CMnt,TH*%
%TO.CRot,-90*%
X47876000Y25524000D03*
D11*
X49475999Y16374001D02*
X25976001Y16374001D01*
X25976001Y27073999D01*
X49475999Y27073999D01*
X49475999Y16374001D01*
D12*
%TO.P,"U1","1","LED1"*%
X47876000Y25524000D03*
D13*
%TO.P,"U1","2","V-"*%
X45336000Y25524000D03*
%TO.P,"U1","3","V+"*%
X42796000Y25524000D03*
%TO.P,"U1","4","RLO"*%
X40256000Y25524000D03*
%TO.P,"U1","5","SIG"*%
X37716000Y25524000D03*
%TO.P,"U1","6","RHI"*%
X35176000Y25524000D03*
%TO.P,"U1","7","RFOUT"*%
X32636000Y25524000D03*
%TO.P,"U1","8","REFADJ"*%
X30096000Y25524000D03*
%TO.P,"U1","9","MODE"*%
X27556000Y25524000D03*
%TO.P,"U1","10","LED2"*%
X27556000Y17904000D03*
%TO.P,"U1","11","LED3"*%
X30096000Y17904000D03*
%TO.P,"U1","12","LED4"*%
X32636000Y17904000D03*
%TO.P,"U1","13","LED5"*%
X35176000Y17904000D03*
%TO.P,"U1","14","LED6"*%
X37716000Y17904000D03*
%TO.P,"U1","15","LED7"*%
X40256000Y17904000D03*
%TO.P,"U1","16","LED8"*%
X42796000Y17904000D03*
%TO.P,"U1","17","LED9"*%
X45336000Y17904000D03*
%TO.P,"U1","18","LED10"*%
X47876000Y17904000D03*
%TD*%
D10*
%TO.C,"J2"*%
%TO.CFtp,"BNC_TEConnectivity_1478035_Horizontal"*%
%TO.CVal,"Conn_Coaxial"*%
%TO.CLbN,"Connector_Coaxial"*%
%TO.CMnt,TH*%
%TO.CRot,0*%
X19050000Y57640000D03*
D11*
X26579999Y50110001D02*
X11520001Y50110001D01*
X11520001Y75039999D01*
X26579999Y75039999D01*
X26579999Y50110001D01*
D12*
%TO.P,"J2","1","In"*%
X19050000Y57640000D03*
D13*
%TO.P,"J2","2","Ext"*%
X24075000Y52615000D03*
X24075000Y62665000D03*
X14025000Y52615000D03*
X14025000Y62665000D03*
%TD*%
D10*
%TO.C,"J0"*%
%TO.CFtp,"PinHeader_1x02_P2.54mm_Vertical"*%
%TO.CVal,"Conn_01x02_Female"*%
%TO.CLbN,"Connector_PinHeader_2.54mm"*%
%TO.CMnt,TH*%
%TO.CRot,90*%
X13255000Y12060000D03*
D11*
X17604999Y10260001D02*
X11455001Y10260001D01*
X11455001Y13859999D01*
X17604999Y13859999D01*
X17604999Y10260001D01*
D12*
%TO.P,"J0","1","Pin_1"*%
X13255000Y12060000D03*
D13*
%TO.P,"J0","2","Pin_2"*%
X15795000Y12060000D03*
%TD*%
D10*
%TO.C,"RV2"*%
%TO.CFtp,"Potentiometer_Bourns_3266Y_Vertical"*%
%TO.CVal,"4\u002C7kΩ"*%
%TO.CLbN,"Potentiometer_THT"*%
%TO.CMnt,TH*%
%TO.CRot,180*%
X43085000Y39095000D03*
D11*
X49234999Y36645001D02*
X41985001Y36645001D01*
X41985001Y41694999D01*
X49234999Y41694999D01*
X49234999Y36645001D01*
D12*
%TO.P,"RV2","1","1"*%
X43085000Y39095000D03*
D13*
%TO.P,"RV2","2","2"*%
X45625000Y39095000D03*
%TO.P,"RV2","3","3"*%
X48165000Y39095000D03*
%TD*%
D14*
X25118000Y33674000D02*
G75*
G03*
X23918000Y33674000I-600000J0D01*
G01*
X52970000Y65990000D02*
X-10000Y65990000D01*
X-10000Y65990000D02*
X-10000Y10000D01*
X-10000Y10000D02*
X52970000Y10000D01*
X52970000Y10000D02*
X52970000Y65990000D01*
X23918000Y31874000D02*
G75*
G03*
X25118000Y31874000I600000J0D01*
G01*
X23918000Y33674000D02*
X23918000Y31874000D01*
X25118000Y33674000D02*
X25118000Y31874000D01*
X54636666Y10000D02*
G75*
G03*
X54636666Y10000I-1666666J0D01*
G01*
X50470000Y10000D02*
X55470000Y10000D01*
X52970000Y2510000D02*
X52970000Y-2490000D01*
X1666666Y0D02*
G75*
G03*
X1666666Y0I-1666666J0D01*
G01*
X-2500000Y0D02*
X2500000Y0D01*
X0Y2500000D02*
X0Y-2500000D01*
X1646666Y65980000D02*
G75*
G03*
X1646666Y65980000I-1666666J0D01*
G01*
X-2520000Y65980000D02*
X2480000Y65980000D01*
X-20000Y68480000D02*
X-20000Y63480000D01*
X54636666Y65990000D02*
G75*
G03*
X54636666Y65990000I-1666666J0D01*
G01*
X50470000Y65990000D02*
X55470000Y65990000D01*
X52970000Y68490000D02*
X52970000Y63490000D01*
M02*
