%TF.GenerationSoftware,KiCad,Pcbnew,(6.0.4)*%
%TF.CreationDate,2022-12-16T21:59:54+01:00*%
%TF.ProjectId,swmeter,73776d65-7465-4722-9e6b-696361645f70,0.4*%
%TF.SameCoordinates,PXc0c6960PY8f71310*%
%TF.FileFunction,Plated,1,2,PTH,Mixed*%
%TF.FilePolarity,Positive*%
%FSLAX46Y46*%
G04 Gerber Fmt 4.6, Leading zero omitted, Abs format (unit mm)*
G04 Created by KiCad (PCBNEW (6.0.4)) date 2022-12-16 21:59:54*
%MOMM*%
%LPD*%
G01*
G04 APERTURE LIST*
%TA.AperFunction,ViaDrill*%
%ADD10C,0.400000*%
%TD*%
%TA.AperFunction,ComponentDrill*%
%ADD11C,0.500000*%
%TD*%
%TA.AperFunction,ComponentDrill*%
%ADD12C,0.650000*%
%TD*%
%TA.AperFunction,ComponentDrill*%
%ADD13C,0.800000*%
%TD*%
G04 aperture for slot hole*
%TA.AperFunction,ComponentDrill*%
%ADD14O,0.800000X1.300000*%
%TD*%
%TA.AperFunction,ComponentDrill*%
%ADD15C,0.900000*%
%TD*%
%TA.AperFunction,ComponentDrill*%
%ADD16C,1.000000*%
%TD*%
G04 aperture for slot hole*
%TA.AperFunction,ComponentDrill*%
%ADD17O,1.000000X1.300000*%
%TD*%
%TA.AperFunction,ComponentDrill*%
%ADD18C,1.100000*%
%TD*%
%TA.AperFunction,ComponentDrill*%
%ADD19C,1.200000*%
%TD*%
%TA.AperFunction,ComponentDrill*%
%ADD20C,1.500000*%
%TD*%
%TA.AperFunction,ComponentDrill*%
%ADD21C,3.200000*%
%TD*%
G04 APERTURE END LIST*
D10*
X1330000Y28370000D03*
X1640000Y43650000D03*
X2050000Y63740000D03*
X2910000Y1240000D03*
X5170000Y52910000D03*
X8372500Y58172500D03*
X9950000Y18584000D03*
X10160000Y34060000D03*
X10660000Y62250000D03*
X12320000Y53810000D03*
X12420000Y58180000D03*
X12480000Y6600000D03*
X14110000Y50630000D03*
X17170000Y6580000D03*
X17950000Y46760000D03*
X19360000Y57740000D03*
X20120000Y15270000D03*
X21150000Y49210000D03*
X21530000Y6600000D03*
X22552500Y57742500D03*
X25240000Y22460000D03*
X25250000Y45200000D03*
X25930000Y6620000D03*
X26162500Y64132500D03*
X28310000Y17490000D03*
X29100000Y55940000D03*
X29130000Y36910000D03*
X29140000Y59290000D03*
X30312500Y51612500D03*
X30480000Y6620000D03*
X30500000Y49240000D03*
X30524000Y21378000D03*
X30860000Y59260000D03*
X30890000Y42740000D03*
X30940000Y56000000D03*
X31280000Y25240000D03*
X31460000Y45820000D03*
X31950000Y29050000D03*
X32290000Y34520000D03*
X32300000Y17440000D03*
X32760000Y56410000D03*
X33720000Y57180000D03*
X33850000Y39440000D03*
X34110000Y61690000D03*
X35010000Y6640000D03*
X35040000Y910000D03*
X35130000Y48520000D03*
X36260000Y17470000D03*
X36500000Y39430000D03*
X36600000Y42620000D03*
X36670000Y33980000D03*
X37330000Y61720000D03*
X37670000Y37880000D03*
X38410000Y60940000D03*
X38580000Y42340000D03*
X38870000Y37450000D03*
X38940000Y17440000D03*
X39580000Y6630000D03*
X39730000Y43790000D03*
X39900000Y59140000D03*
X40020000Y50270000D03*
X40160000Y34050000D03*
X40358000Y57742000D03*
X40380000Y56540000D03*
X40390000Y53390000D03*
X40410000Y52040000D03*
X41500000Y17420000D03*
X41530000Y37490000D03*
X41750000Y48590000D03*
X41980000Y61210000D03*
X43530000Y34030000D03*
X43560000Y57800000D03*
X43570000Y53560000D03*
X43570000Y52110000D03*
X43580000Y42300000D03*
X43590000Y56470000D03*
X43590000Y50120000D03*
X43610000Y43820000D03*
X43760000Y25230000D03*
X43880000Y59210000D03*
X43930000Y17420000D03*
X44270000Y6670000D03*
X45360000Y34040000D03*
X45490000Y61140000D03*
X45720000Y37450000D03*
X46470000Y61680000D03*
X46600000Y17430000D03*
X48240000Y49240000D03*
X48330000Y46560000D03*
X48820000Y25230000D03*
X48820000Y6600000D03*
X48994000Y21674000D03*
X49120000Y17440000D03*
X49570000Y61870000D03*
X50730000Y32940000D03*
X50800000Y37500000D03*
X51026000Y61298000D03*
X51860000Y53820000D03*
X51860000Y42460000D03*
X52000000Y13300000D03*
X52030000Y57050000D03*
X52620000Y60580000D03*
X53330000Y51600000D03*
X53570000Y37560000D03*
X54328000Y33022500D03*
X54370000Y60580000D03*
X55080000Y6770000D03*
X55290000Y28580000D03*
X56020000Y53800000D03*
X56470000Y17880000D03*
X57290000Y35530000D03*
X57320000Y57010000D03*
X57330000Y53090000D03*
X57450000Y1180000D03*
X58010000Y6490000D03*
X58142500Y63152500D03*
X58220000Y30220000D03*
X58400000Y45740000D03*
D11*
%TO.C,REF1*%
X11690000Y15010000D03*
X12392944Y16707056D03*
X12392944Y13312944D03*
X14090000Y17410000D03*
X14090000Y12610000D03*
X15787056Y16707056D03*
X15787056Y13312944D03*
X16490000Y15010000D03*
D12*
%TO.C,J3*%
X45357500Y44512500D03*
X46627500Y44512500D03*
X47897500Y44512500D03*
D13*
%TO.C,U1*%
X30032500Y27012500D03*
X30032500Y19392500D03*
%TO.C,SW3*%
X32472500Y44312500D03*
X32472500Y36692500D03*
%TO.C,U1*%
X32572500Y27012500D03*
X32572500Y19392500D03*
%TO.C,SW3*%
X35012500Y44312500D03*
X35012500Y36692500D03*
%TO.C,U1*%
X35112500Y27012500D03*
X35112500Y19392500D03*
X37652500Y27012500D03*
X37652500Y19392500D03*
%TO.C,RV1*%
X39205000Y39185000D03*
%TO.C,U1*%
X40192500Y27012500D03*
X40192500Y19392500D03*
%TO.C,D0*%
X41740000Y50750000D03*
X41740000Y43130000D03*
%TO.C,RV1*%
X41745000Y39185000D03*
%TO.C,U1*%
X42732500Y27012500D03*
X42732500Y19392500D03*
%TO.C,RV1*%
X44285000Y39185000D03*
%TO.C,U1*%
X45272500Y27012500D03*
X45272500Y19392500D03*
%TO.C,R1*%
X46982500Y33022500D03*
%TO.C,U1*%
X47812500Y27012500D03*
X47812500Y19392500D03*
%TO.C,RV2*%
X49487500Y39158000D03*
%TO.C,U1*%
X50352500Y27012500D03*
X50352500Y19392500D03*
D14*
%TO.C,J1*%
X51192500Y51452500D03*
D13*
%TO.C,RV2*%
X52027500Y39158000D03*
X54567500Y39158000D03*
%TO.C,C1*%
X55280000Y26650000D03*
X55280000Y24150000D03*
D14*
%TO.C,J1*%
X55792500Y51452500D03*
D13*
%TO.C,R1*%
X57142500Y33022500D03*
D15*
%TO.C,SW1*%
X6412500Y59352500D03*
X10412500Y59352500D03*
%TO.C,D10*%
X14330000Y4875000D03*
X14330000Y2335000D03*
%TO.C,SW1*%
X14412500Y59352500D03*
%TO.C,D9*%
X18930000Y4875000D03*
X18930000Y2335000D03*
%TO.C,D8*%
X23530000Y4875000D03*
X23530000Y2335000D03*
%TO.C,D7*%
X28130000Y4875000D03*
X28130000Y2335000D03*
%TO.C,D6*%
X32730000Y4875000D03*
X32730000Y2335000D03*
%TO.C,D5*%
X37330000Y4875000D03*
X37330000Y2335000D03*
%TO.C,SW2*%
X37792500Y59130000D03*
X41792500Y59130000D03*
%TO.C,D4*%
X41930000Y4875000D03*
X41930000Y2335000D03*
%TO.C,SW2*%
X45792500Y59130000D03*
%TO.C,D3*%
X46530000Y4875000D03*
X46530000Y2335000D03*
%TO.C,D2*%
X51130000Y4875000D03*
X51130000Y2335000D03*
%TO.C,D1*%
X55730000Y4875000D03*
X55730000Y2335000D03*
D16*
%TO.C,J0*%
X7825000Y53740000D03*
X10365000Y53740000D03*
D17*
%TO.C,J1*%
X50742500Y58952500D03*
X56242500Y58952500D03*
D18*
%TO.C,J2*%
X26080000Y57645000D03*
D19*
%TO.C,SW1*%
X4412500Y63602500D03*
X4412500Y57602500D03*
X16412500Y63602500D03*
X16412500Y57602500D03*
%TO.C,SW2*%
X35792500Y63380000D03*
X35792500Y57380000D03*
X47792500Y63380000D03*
X47792500Y57380000D03*
D20*
%TO.C,J2*%
X21055000Y62670000D03*
X21055000Y52620000D03*
X31105000Y62670000D03*
X31105000Y52620000D03*
D21*
%TO.C,REF1*%
X14090000Y15010000D03*
M02*
