%FSLAX45Y45*%
G04 Gerber Fmt 4.5, Leading zero omitted, Abs format (unit mm)*
G04 Created by KiCad (PCBNEW (6.0.4)) date 2023-10-22 18:39:00*
%MOMM*%
%LPD*%
G01*
G04 APERTURE LIST*
%TA.AperFunction,Profile*%
%ADD10C,0.100000*%
%TD*%
%ADD11C,0.200000*%
%ADD12C,0.040000*%
%ADD13C,0.060000*%
%ADD14C,0.065000*%
%ADD15C,0.080000*%
%ADD16C,0.090000*%
%ADD17C,0.091440*%
%ADD18C,0.100000*%
%ADD19C,0.110000*%
%ADD20C,0.120000*%
%ADD21C,0.150000*%
%ADD22C,0.320000*%
G04 APERTURE END LIST*
D10*
X23425800Y-11670600D02*
G75*
G03*
X23305800Y-11670600I-60000J0D01*
G01*
X26211000Y-8439000D02*
X20913000Y-8439000D01*
X20913000Y-8439000D02*
X20913000Y-15037000D01*
X20913000Y-15037000D02*
X26211000Y-15037000D01*
X26211000Y-15037000D02*
X26211000Y-8439000D01*
X23305800Y-11850600D02*
G75*
G03*
X23425800Y-11850600I60000J0D01*
G01*
X23305800Y-11670600D02*
X23305800Y-11850600D01*
X23425800Y-11670600D02*
X23425800Y-11850600D01*
D11*
D12*
X21102000Y-8624000D02*
X21142000Y-8664000D01*
X21142000Y-8624000D02*
X21102000Y-8664000D01*
X21285000Y-11383000D02*
X21325000Y-11423000D01*
X21325000Y-11383000D02*
X21285000Y-11423000D01*
X21362000Y-14907000D02*
X21402000Y-14947000D01*
X21402000Y-14907000D02*
X21362000Y-14947000D01*
X22130000Y-9247000D02*
X22170000Y-9287000D01*
X22170000Y-9247000D02*
X22130000Y-9287000D01*
X22309000Y-10100000D02*
X22349000Y-10140000D01*
X22349000Y-10100000D02*
X22309000Y-10140000D01*
X22449250Y-9246750D02*
X22489250Y-9286750D01*
X22489250Y-9246750D02*
X22449250Y-9286750D01*
X22547000Y-11998000D02*
X22587000Y-12038000D01*
X22587000Y-11998000D02*
X22547000Y-12038000D01*
X22578000Y-14673000D02*
X22618000Y-14713000D01*
X22618000Y-14673000D02*
X22578000Y-14713000D01*
X22724000Y-13864000D02*
X22764000Y-13904000D01*
X22764000Y-13864000D02*
X22724000Y-13904000D01*
X22792000Y-9663000D02*
X22832000Y-9703000D01*
X22832000Y-9663000D02*
X22792000Y-9703000D01*
X22796000Y-8617000D02*
X22836000Y-8657000D01*
X22836000Y-8617000D02*
X22796000Y-8657000D01*
X22942000Y-11995000D02*
X22982000Y-12035000D01*
X22982000Y-11995000D02*
X22942000Y-12035000D01*
X22964800Y-13151400D02*
X23004800Y-13191400D01*
X23004800Y-13151400D02*
X22964800Y-13191400D01*
X23106000Y-9099000D02*
X23146000Y-9139000D01*
X23146000Y-9099000D02*
X23106000Y-9139000D01*
X23110000Y-9418000D02*
X23150000Y-9458000D01*
X23150000Y-9418000D02*
X23110000Y-9458000D01*
X23280000Y-9095000D02*
X23320000Y-9135000D01*
X23320000Y-9095000D02*
X23280000Y-9135000D01*
X23288000Y-9421000D02*
X23328000Y-9461000D01*
X23328000Y-9421000D02*
X23288000Y-9461000D01*
X23377000Y-14513000D02*
X23417000Y-14553000D01*
X23417000Y-14513000D02*
X23377000Y-14553000D01*
X23381000Y-13124000D02*
X23421000Y-13164000D01*
X23421000Y-13124000D02*
X23381000Y-13164000D01*
X23470000Y-9380000D02*
X23510000Y-9420000D01*
X23510000Y-9380000D02*
X23470000Y-9420000D01*
X23557000Y-9298000D02*
X23597000Y-9338000D01*
X23597000Y-9298000D02*
X23557000Y-9338000D01*
X23605000Y-8852000D02*
X23645000Y-8892000D01*
X23645000Y-8852000D02*
X23605000Y-8892000D01*
X23611000Y-12665000D02*
X23651000Y-12705000D01*
X23651000Y-12665000D02*
X23611000Y-12705000D01*
X23659000Y-9717000D02*
X23699000Y-9757000D01*
X23699000Y-9717000D02*
X23659000Y-9757000D01*
X23777600Y-13532400D02*
X23817600Y-13572400D01*
X23817600Y-13532400D02*
X23777600Y-13572400D01*
X23792000Y-12245000D02*
X23832000Y-12285000D01*
X23832000Y-12245000D02*
X23792000Y-12285000D01*
X23900000Y-10001000D02*
X23940000Y-10041000D01*
X23940000Y-10001000D02*
X23900000Y-10041000D01*
X23917000Y-11061000D02*
X23957000Y-11101000D01*
X23957000Y-11061000D02*
X23917000Y-11101000D01*
X23927000Y-8849000D02*
X23967000Y-8889000D01*
X23967000Y-8849000D02*
X23927000Y-8889000D01*
X23931000Y-14146000D02*
X23971000Y-14186000D01*
X23971000Y-14146000D02*
X23931000Y-14186000D01*
X23971000Y-11475000D02*
X24011000Y-11515000D01*
X24011000Y-11475000D02*
X23971000Y-11515000D01*
X24031600Y-13532400D02*
X24071600Y-13572400D01*
X24071600Y-13532400D02*
X24031600Y-13572400D01*
X24035000Y-8927000D02*
X24075000Y-8967000D01*
X24075000Y-8927000D02*
X24035000Y-8967000D01*
X24164000Y-9724000D02*
X24204000Y-9764000D01*
X24204000Y-9724000D02*
X24164000Y-9764000D01*
X24168000Y-9108000D02*
X24208000Y-9148000D01*
X24208000Y-9108000D02*
X24168000Y-9148000D01*
X24217000Y-10789000D02*
X24257000Y-10829000D01*
X24257000Y-10789000D02*
X24217000Y-10829000D01*
X24285600Y-13532400D02*
X24325600Y-13572400D01*
X24325600Y-13532400D02*
X24285600Y-13572400D01*
X24374000Y-8905000D02*
X24414000Y-8945000D01*
X24414000Y-8905000D02*
X24374000Y-8945000D01*
X24419000Y-10426000D02*
X24459000Y-10466000D01*
X24459000Y-10426000D02*
X24419000Y-10466000D01*
X24437000Y-9452000D02*
X24477000Y-9492000D01*
X24477000Y-9452000D02*
X24437000Y-9492000D01*
X24444000Y-11269000D02*
X24484000Y-11309000D01*
X24484000Y-11269000D02*
X24444000Y-11309000D01*
X24446000Y-11678000D02*
X24486000Y-11718000D01*
X24486000Y-11678000D02*
X24446000Y-11718000D01*
X24449000Y-12084000D02*
X24489000Y-12124000D01*
X24489000Y-12084000D02*
X24449000Y-12124000D01*
X24565000Y-13532400D02*
X24605000Y-13572400D01*
X24605000Y-13532400D02*
X24565000Y-13572400D01*
X24569000Y-9247000D02*
X24609000Y-9287000D01*
X24609000Y-9247000D02*
X24569000Y-9287000D01*
X24619000Y-10761000D02*
X24659000Y-10801000D01*
X24659000Y-10761000D02*
X24619000Y-10801000D01*
X24725000Y-8917000D02*
X24765000Y-8957000D01*
X24765000Y-8917000D02*
X24725000Y-8957000D01*
X24772000Y-11370000D02*
X24812000Y-11410000D01*
X24812000Y-11370000D02*
X24772000Y-11410000D01*
X24793600Y-12262400D02*
X24833600Y-12302400D01*
X24833600Y-12262400D02*
X24793600Y-12302400D01*
X24819000Y-13532400D02*
X24859000Y-13572400D01*
X24859000Y-13532400D02*
X24819000Y-13572400D01*
X24823000Y-11731000D02*
X24863000Y-11771000D01*
X24863000Y-11731000D02*
X24823000Y-11771000D01*
X24841000Y-8853000D02*
X24881000Y-8893000D01*
X24881000Y-8853000D02*
X24841000Y-8893000D01*
X25073000Y-13532400D02*
X25113000Y-13572400D01*
X25113000Y-13532400D02*
X25073000Y-13572400D01*
X25101000Y-11717000D02*
X25141000Y-11757000D01*
X25141000Y-11717000D02*
X25101000Y-11757000D01*
X25162000Y-8851000D02*
X25202000Y-8891000D01*
X25202000Y-8851000D02*
X25162000Y-8891000D01*
X25243000Y-10359000D02*
X25283000Y-10399000D01*
X25283000Y-10359000D02*
X25243000Y-10399000D01*
X25289000Y-11271000D02*
X25329000Y-11311000D01*
X25329000Y-11271000D02*
X25289000Y-11311000D01*
X25296600Y-8891200D02*
X25336600Y-8931200D01*
X25336600Y-8891200D02*
X25296600Y-8931200D01*
X25327000Y-13532400D02*
X25367000Y-13572400D01*
X25367000Y-13532400D02*
X25327000Y-13572400D01*
X25392000Y-9638000D02*
X25432000Y-9678000D01*
X25432000Y-9638000D02*
X25392000Y-9678000D01*
X25425000Y-10929000D02*
X25465000Y-10969000D01*
X25465000Y-10929000D02*
X25425000Y-10969000D01*
X25428000Y-9286000D02*
X25468000Y-9326000D01*
X25468000Y-9286000D02*
X25428000Y-9326000D01*
X25453000Y-8972000D02*
X25493000Y-9012000D01*
X25493000Y-8972000D02*
X25453000Y-9012000D01*
X25530200Y-14167400D02*
X25570200Y-14207400D01*
X25570200Y-14167400D02*
X25530200Y-14207400D01*
X25539000Y-9869000D02*
X25579000Y-9909000D01*
X25579000Y-9869000D02*
X25539000Y-9909000D01*
X25581000Y-13532400D02*
X25621000Y-13572400D01*
X25621000Y-13532400D02*
X25581000Y-13572400D01*
X25643000Y-8974000D02*
X25683000Y-9014000D01*
X25683000Y-8974000D02*
X25643000Y-9014000D01*
X25657200Y-13024400D02*
X25697200Y-13064400D01*
X25697200Y-13024400D02*
X25657200Y-13064400D01*
X25796000Y-9641000D02*
X25836000Y-9681000D01*
X25836000Y-9641000D02*
X25796000Y-9681000D01*
X25835000Y-13532400D02*
X25875000Y-13572400D01*
X25875000Y-13532400D02*
X25835000Y-13572400D01*
X25926000Y-9320000D02*
X25966000Y-9360000D01*
X25966000Y-9320000D02*
X25926000Y-9360000D01*
X25927000Y-9712000D02*
X25967000Y-9752000D01*
X25967000Y-9712000D02*
X25927000Y-9752000D01*
X25936600Y-12821200D02*
X25976600Y-12861200D01*
X25976600Y-12821200D02*
X25936600Y-12861200D01*
X25939000Y-14903000D02*
X25979000Y-14943000D01*
X25979000Y-14903000D02*
X25939000Y-14943000D01*
X26008250Y-8705750D02*
X26048250Y-8745750D01*
X26048250Y-8705750D02*
X26008250Y-8745750D01*
X26018000Y-11465000D02*
X26058000Y-11505000D01*
X26058000Y-11465000D02*
X26018000Y-11505000D01*
X26028000Y-10578000D02*
X26068000Y-10618000D01*
X26068000Y-10578000D02*
X26028000Y-10618000D01*
D13*
X22964000Y-13693000D02*
G75*
G03*
X22964000Y-13693000I-30000J0D01*
G01*
X23164000Y-13693000D02*
G75*
G03*
X23164000Y-13693000I-30000J0D01*
G01*
D14*
X24660000Y-9947500D02*
X24660000Y-10012500D01*
X24627500Y-9980000D02*
X24692500Y-9980000D01*
X24787000Y-9947500D02*
X24787000Y-10012500D01*
X24754500Y-9980000D02*
X24819500Y-9980000D01*
X24914000Y-9947500D02*
X24914000Y-10012500D01*
X24881500Y-9980000D02*
X24946500Y-9980000D01*
X25407500Y-10565500D02*
X25407500Y-10630500D01*
X25375000Y-10598000D02*
X25440000Y-10598000D01*
X25534500Y-10565500D02*
X25534500Y-10630500D01*
X25502000Y-10598000D02*
X25567000Y-10598000D01*
X25661500Y-10565500D02*
X25661500Y-10630500D01*
X25629000Y-10598000D02*
X25694000Y-10598000D01*
D15*
X23133784Y-10493535D02*
X23133784Y-10436966D01*
X23077215Y-10436966D01*
X23077215Y-10493535D01*
X23133784Y-10493535D01*
X23133784Y-11255534D02*
X23133784Y-11198965D01*
X23077215Y-11198965D01*
X23077215Y-11255534D01*
X23133784Y-11255534D01*
X23387784Y-10493535D02*
X23387784Y-10436966D01*
X23331215Y-10436966D01*
X23331215Y-10493535D01*
X23387784Y-10493535D01*
X23387784Y-11255534D02*
X23387784Y-11198965D01*
X23331215Y-11198965D01*
X23331215Y-11255534D01*
X23387784Y-11255534D01*
X23641784Y-10493535D02*
X23641784Y-10436966D01*
X23585215Y-10436966D01*
X23585215Y-10493535D01*
X23641784Y-10493535D01*
X23641784Y-11255534D02*
X23641784Y-11198965D01*
X23585215Y-11198965D01*
X23585215Y-11255534D01*
X23641784Y-11255534D01*
X23697884Y-12513884D02*
X23697884Y-12457315D01*
X23641315Y-12457315D01*
X23641315Y-12513884D01*
X23697884Y-12513884D01*
X23697884Y-13275884D02*
X23697884Y-13219315D01*
X23641315Y-13219315D01*
X23641315Y-13275884D01*
X23697884Y-13275884D01*
X23951884Y-12513884D02*
X23951884Y-12457315D01*
X23895315Y-12457315D01*
X23895315Y-12513884D01*
X23951884Y-12513884D01*
X23951884Y-13275884D02*
X23951884Y-13219315D01*
X23895315Y-13219315D01*
X23895315Y-13275884D01*
X23951884Y-13275884D01*
X24078284Y-10468285D02*
X24078284Y-10411716D01*
X24021715Y-10411716D01*
X24021715Y-10468285D01*
X24078284Y-10468285D01*
X24162784Y-11150785D02*
X24162784Y-11094216D01*
X24106215Y-11094216D01*
X24106215Y-11150785D01*
X24162784Y-11150785D01*
X24205884Y-12513884D02*
X24205884Y-12457315D01*
X24149315Y-12457315D01*
X24149315Y-12513884D01*
X24205884Y-12513884D01*
X24205884Y-13275884D02*
X24205884Y-13219315D01*
X24149315Y-13219315D01*
X24149315Y-13275884D01*
X24205884Y-13275884D01*
X24416784Y-11150785D02*
X24416784Y-11094216D01*
X24360215Y-11094216D01*
X24360215Y-11150785D01*
X24416784Y-11150785D01*
X24459884Y-12513884D02*
X24459884Y-12457315D01*
X24403315Y-12457315D01*
X24403315Y-12513884D01*
X24459884Y-12513884D01*
X24459884Y-13275884D02*
X24459884Y-13219315D01*
X24403315Y-13219315D01*
X24403315Y-13275884D01*
X24459884Y-13275884D01*
X24670784Y-11150785D02*
X24670784Y-11094216D01*
X24614215Y-11094216D01*
X24614215Y-11150785D01*
X24670784Y-11150785D01*
X24713884Y-12513884D02*
X24713884Y-12457315D01*
X24657315Y-12457315D01*
X24657315Y-12513884D01*
X24713884Y-12513884D01*
X24713884Y-13275884D02*
X24713884Y-13219315D01*
X24657315Y-13219315D01*
X24657315Y-13275884D01*
X24713884Y-13275884D01*
X24840284Y-10468285D02*
X24840284Y-10411716D01*
X24783715Y-10411716D01*
X24783715Y-10468285D01*
X24840284Y-10468285D01*
X24943484Y-11980484D02*
X24943484Y-11923915D01*
X24886915Y-11923915D01*
X24886915Y-11980484D01*
X24943484Y-11980484D01*
X24967884Y-12513884D02*
X24967884Y-12457315D01*
X24911315Y-12457315D01*
X24911315Y-12513884D01*
X24967884Y-12513884D01*
X24967884Y-13275884D02*
X24967884Y-13219315D01*
X24911315Y-13219315D01*
X24911315Y-13275884D01*
X24967884Y-13275884D01*
X25221884Y-12513884D02*
X25221884Y-12457315D01*
X25165315Y-12457315D01*
X25165315Y-12513884D01*
X25221884Y-12513884D01*
X25221884Y-13275884D02*
X25221884Y-13219315D01*
X25165315Y-13219315D01*
X25165315Y-13275884D01*
X25221884Y-13275884D01*
X25250784Y-11156785D02*
X25250784Y-11100216D01*
X25194215Y-11100216D01*
X25194215Y-11156785D01*
X25250784Y-11156785D01*
X25361534Y-9924035D02*
X25361534Y-9867466D01*
X25304965Y-9867466D01*
X25304965Y-9924035D01*
X25361534Y-9924035D01*
D11*
X25303250Y-9870750D02*
X25303250Y-9920750D01*
X25363250Y-9870750D02*
X25363250Y-9920750D01*
X25303250Y-9920750D02*
G75*
G03*
X25363250Y-9920750I30000J0D01*
G01*
X25363250Y-9870750D02*
G75*
G03*
X25303250Y-9870750I-30000J0D01*
G01*
D15*
X25475884Y-12513884D02*
X25475884Y-12457315D01*
X25419315Y-12457315D01*
X25419315Y-12513884D01*
X25475884Y-12513884D01*
X25475884Y-13275884D02*
X25475884Y-13219315D01*
X25419315Y-13219315D01*
X25419315Y-13275884D01*
X25475884Y-13275884D01*
X25504784Y-11156785D02*
X25504784Y-11100216D01*
X25448215Y-11100216D01*
X25448215Y-11156785D01*
X25504784Y-11156785D01*
X25729884Y-12513884D02*
X25729884Y-12457315D01*
X25673315Y-12457315D01*
X25673315Y-12513884D01*
X25729884Y-12513884D01*
X25729884Y-13275884D02*
X25729884Y-13219315D01*
X25673315Y-13219315D01*
X25673315Y-13275884D01*
X25729884Y-13275884D01*
X25758784Y-11156785D02*
X25758784Y-11100216D01*
X25702215Y-11100216D01*
X25702215Y-11156785D01*
X25758784Y-11156785D01*
X25821534Y-9924035D02*
X25821534Y-9867466D01*
X25764965Y-9867466D01*
X25764965Y-9924035D01*
X25821534Y-9924035D01*
D11*
X25763250Y-9870750D02*
X25763250Y-9920750D01*
X25823250Y-9870750D02*
X25823250Y-9920750D01*
X25763250Y-9920750D02*
G75*
G03*
X25823250Y-9920750I30000J0D01*
G01*
X25823250Y-9870750D02*
G75*
G03*
X25763250Y-9870750I-30000J0D01*
G01*
D15*
X25959484Y-11980484D02*
X25959484Y-11923915D01*
X25902915Y-11923915D01*
X25902915Y-11980484D01*
X25959484Y-11980484D01*
D16*
X22208050Y-14410350D02*
X22253050Y-14365350D01*
X22208050Y-14320350D01*
X22163050Y-14365350D01*
X22208050Y-14410350D01*
X22608050Y-14410350D02*
X22653050Y-14365350D01*
X22608050Y-14320350D01*
X22563050Y-14365350D01*
X22608050Y-14410350D01*
X23008050Y-14410350D02*
X23053050Y-14365350D01*
X23008050Y-14320350D01*
X22963050Y-14365350D01*
X23008050Y-14410350D01*
X23993250Y-9173000D02*
X24038250Y-9128000D01*
X23993250Y-9083000D01*
X23948250Y-9128000D01*
X23993250Y-9173000D01*
X24393250Y-9173000D02*
X24438250Y-9128000D01*
X24393250Y-9083000D01*
X24348250Y-9128000D01*
X24393250Y-9173000D01*
X24793250Y-9173000D02*
X24838250Y-9128000D01*
X24793250Y-9083000D01*
X24748250Y-9128000D01*
X24793250Y-9173000D01*
D17*
X23610230Y-13749929D02*
X23701670Y-13841369D01*
X23701670Y-13749929D02*
X23610230Y-13841369D01*
X23701670Y-13795649D02*
G75*
G03*
X23701670Y-13795649I-45720J0D01*
G01*
X23610230Y-14511929D02*
X23701670Y-14603369D01*
X23701670Y-14511929D02*
X23610230Y-14603369D01*
X23701670Y-14557649D02*
G75*
G03*
X23701670Y-14557649I-45720J0D01*
G01*
X23864230Y-13749929D02*
X23955670Y-13841369D01*
X23955670Y-13749929D02*
X23864230Y-13841369D01*
X23955670Y-13795649D02*
G75*
G03*
X23955670Y-13795649I-45720J0D01*
G01*
X23864230Y-14511929D02*
X23955670Y-14603369D01*
X23955670Y-14511929D02*
X23864230Y-14603369D01*
X23955670Y-14557649D02*
G75*
G03*
X23955670Y-14557649I-45720J0D01*
G01*
X24118230Y-13749929D02*
X24209670Y-13841369D01*
X24209670Y-13749929D02*
X24118230Y-13841369D01*
X24209670Y-13795649D02*
G75*
G03*
X24209670Y-13795649I-45720J0D01*
G01*
X24118230Y-14511929D02*
X24209670Y-14603369D01*
X24209670Y-14511929D02*
X24118230Y-14603369D01*
X24209670Y-14557649D02*
G75*
G03*
X24209670Y-14557649I-45720J0D01*
G01*
X24372230Y-13749929D02*
X24463670Y-13841369D01*
X24463670Y-13749929D02*
X24372230Y-13841369D01*
X24463670Y-13795649D02*
G75*
G03*
X24463670Y-13795649I-45720J0D01*
G01*
X24372230Y-14511929D02*
X24463670Y-14603369D01*
X24463670Y-14511929D02*
X24372230Y-14603369D01*
X24463670Y-14557649D02*
G75*
G03*
X24463670Y-14557649I-45720J0D01*
G01*
X24626230Y-13749929D02*
X24717670Y-13841369D01*
X24717670Y-13749929D02*
X24626230Y-13841369D01*
X24717670Y-13795649D02*
G75*
G03*
X24717670Y-13795649I-45720J0D01*
G01*
X24626230Y-14511929D02*
X24717670Y-14603369D01*
X24717670Y-14511929D02*
X24626230Y-14603369D01*
X24717670Y-14557649D02*
G75*
G03*
X24717670Y-14557649I-45720J0D01*
G01*
X24880230Y-13749929D02*
X24971670Y-13841369D01*
X24971670Y-13749929D02*
X24880230Y-13841369D01*
X24971670Y-13795649D02*
G75*
G03*
X24971670Y-13795649I-45720J0D01*
G01*
X24880230Y-14511929D02*
X24971670Y-14603369D01*
X24971670Y-14511929D02*
X24880230Y-14603369D01*
X24971670Y-14557649D02*
G75*
G03*
X24971670Y-14557649I-45720J0D01*
G01*
X25134230Y-13749929D02*
X25225670Y-13841369D01*
X25225670Y-13749929D02*
X25134230Y-13841369D01*
X25225670Y-13795649D02*
G75*
G03*
X25225670Y-13795649I-45720J0D01*
G01*
X25134230Y-14511929D02*
X25225670Y-14603369D01*
X25225670Y-14511929D02*
X25134230Y-14603369D01*
X25225670Y-14557649D02*
G75*
G03*
X25225670Y-14557649I-45720J0D01*
G01*
X25388230Y-13749929D02*
X25479670Y-13841369D01*
X25479670Y-13749929D02*
X25388230Y-13841369D01*
X25479670Y-13795649D02*
G75*
G03*
X25479670Y-13795649I-45720J0D01*
G01*
X25388230Y-14511929D02*
X25479670Y-14603369D01*
X25479670Y-14511929D02*
X25388230Y-14603369D01*
X25479670Y-14557649D02*
G75*
G03*
X25479670Y-14557649I-45720J0D01*
G01*
X25642230Y-13749929D02*
X25733670Y-13841369D01*
X25733670Y-13749929D02*
X25642230Y-13841369D01*
X25733670Y-13795649D02*
G75*
G03*
X25733670Y-13795649I-45720J0D01*
G01*
X25642230Y-14511929D02*
X25733670Y-14603369D01*
X25733670Y-14511929D02*
X25642230Y-14603369D01*
X25733670Y-14557649D02*
G75*
G03*
X25733670Y-14557649I-45720J0D01*
G01*
X25896230Y-13749929D02*
X25987670Y-13841369D01*
X25987670Y-13749929D02*
X25896230Y-13841369D01*
X25987670Y-13795649D02*
G75*
G03*
X25987670Y-13795649I-45720J0D01*
G01*
X25896230Y-14511929D02*
X25987670Y-14603369D01*
X25987670Y-14511929D02*
X25896230Y-14603369D01*
X25987670Y-14557649D02*
G75*
G03*
X25987670Y-14557649I-45720J0D01*
G01*
D18*
X22189500Y-13782000D02*
X22289500Y-13882000D01*
X22289500Y-13782000D02*
X22189500Y-13882000D01*
X22239500Y-13782000D02*
X22239500Y-13882000D01*
X22189500Y-13832000D02*
X22289500Y-13832000D01*
X22443500Y-13782000D02*
X22543500Y-13882000D01*
X22543500Y-13782000D02*
X22443500Y-13882000D01*
X22493500Y-13782000D02*
X22493500Y-13882000D01*
X22443500Y-13832000D02*
X22543500Y-13832000D01*
X25238250Y-9095750D02*
X25338250Y-9195750D01*
X25338250Y-9095750D02*
X25238250Y-9195750D01*
X25288250Y-9095750D02*
X25288250Y-9195750D01*
X25238250Y-9145750D02*
X25338250Y-9145750D01*
D11*
X25248250Y-9130750D02*
X25248250Y-9160750D01*
X25328250Y-9130750D02*
X25328250Y-9160750D01*
X25248250Y-9160750D02*
G75*
G03*
X25328250Y-9160750I40000J0D01*
G01*
X25328250Y-9130750D02*
G75*
G03*
X25248250Y-9130750I-40000J0D01*
G01*
D18*
X25788250Y-9095750D02*
X25888250Y-9195750D01*
X25888250Y-9095750D02*
X25788250Y-9195750D01*
X25838250Y-9095750D02*
X25838250Y-9195750D01*
X25788250Y-9145750D02*
X25888250Y-9145750D01*
D11*
X25798250Y-9130750D02*
X25798250Y-9160750D01*
X25878250Y-9130750D02*
X25878250Y-9160750D01*
X25798250Y-9160750D02*
G75*
G03*
X25878250Y-9160750I40000J0D01*
G01*
X25878250Y-9130750D02*
G75*
G03*
X25798250Y-9130750I-40000J0D01*
G01*
D19*
X22764000Y-9219000D02*
X22874000Y-9329000D01*
X22874000Y-9219000D02*
X22764000Y-9329000D01*
X22857891Y-9312891D02*
X22857891Y-9235109D01*
X22780109Y-9235109D01*
X22780109Y-9312891D01*
X22857891Y-9312891D01*
D20*
X21948050Y-14130350D02*
X22068050Y-14250350D01*
X22068050Y-14130350D02*
X21948050Y-14250350D01*
X22008050Y-14250350D02*
X22068050Y-14190350D01*
X22008050Y-14130350D01*
X21948050Y-14190350D01*
X22008050Y-14250350D01*
X21948050Y-14730350D02*
X22068050Y-14850350D01*
X22068050Y-14730350D02*
X21948050Y-14850350D01*
X22008050Y-14850350D02*
X22068050Y-14790350D01*
X22008050Y-14730350D01*
X21948050Y-14790350D01*
X22008050Y-14850350D01*
X23148050Y-14130350D02*
X23268050Y-14250350D01*
X23268050Y-14130350D02*
X23148050Y-14250350D01*
X23208050Y-14250350D02*
X23268050Y-14190350D01*
X23208050Y-14130350D01*
X23148050Y-14190350D01*
X23208050Y-14250350D01*
X23148050Y-14730350D02*
X23268050Y-14850350D01*
X23268050Y-14730350D02*
X23148050Y-14850350D01*
X23208050Y-14850350D02*
X23268050Y-14790350D01*
X23208050Y-14730350D01*
X23148050Y-14790350D01*
X23208050Y-14850350D01*
X23733250Y-8643000D02*
X23853250Y-8763000D01*
X23853250Y-8643000D02*
X23733250Y-8763000D01*
X23793250Y-8763000D02*
X23853250Y-8703000D01*
X23793250Y-8643000D01*
X23733250Y-8703000D01*
X23793250Y-8763000D01*
X23733250Y-9243000D02*
X23853250Y-9363000D01*
X23853250Y-9243000D02*
X23733250Y-9363000D01*
X23793250Y-9363000D02*
X23853250Y-9303000D01*
X23793250Y-9243000D01*
X23733250Y-9303000D01*
X23793250Y-9363000D01*
X24933250Y-8643000D02*
X25053250Y-8763000D01*
X25053250Y-8643000D02*
X24933250Y-8763000D01*
X24993250Y-8763000D02*
X25053250Y-8703000D01*
X24993250Y-8643000D01*
X24933250Y-8703000D01*
X24993250Y-8763000D01*
X24933250Y-9243000D02*
X25053250Y-9363000D01*
X25053250Y-9243000D02*
X24933250Y-9363000D01*
X24993250Y-9363000D02*
X25053250Y-9303000D01*
X24993250Y-9243000D01*
X24933250Y-9303000D01*
X24993250Y-9363000D01*
D21*
X22316500Y-8696500D02*
X22316500Y-8846500D01*
X22241500Y-8771500D02*
X22391500Y-8771500D01*
X22391500Y-8771500D02*
G75*
G03*
X22391500Y-8771500I-75000J0D01*
G01*
X22316500Y-9701500D02*
X22316500Y-9851500D01*
X22241500Y-9776500D02*
X22391500Y-9776500D01*
X22391500Y-9776500D02*
G75*
G03*
X22391500Y-9776500I-75000J0D01*
G01*
X23321500Y-8696500D02*
X23321500Y-8846500D01*
X23246500Y-8771500D02*
X23396500Y-8771500D01*
X23396500Y-8771500D02*
G75*
G03*
X23396500Y-8771500I-75000J0D01*
G01*
X23321500Y-9701500D02*
X23321500Y-9851500D01*
X23246500Y-9776500D02*
X23396500Y-9776500D01*
X23396500Y-9776500D02*
G75*
G03*
X23396500Y-9776500I-75000J0D01*
G01*
D22*
X22296138Y-12476138D02*
X22296138Y-12249862D01*
X22069862Y-12249862D01*
X22069862Y-12476138D01*
X22296138Y-12476138D01*
X22343000Y-12363000D02*
G75*
G03*
X22343000Y-12363000I-160000J0D01*
G01*
D11*
X21165619Y-15352476D02*
X21165619Y-15152476D01*
X21213238Y-15152476D01*
X21241810Y-15162000D01*
X21260857Y-15181048D01*
X21270381Y-15200095D01*
X21279905Y-15238190D01*
X21279905Y-15266762D01*
X21270381Y-15304857D01*
X21260857Y-15323905D01*
X21241810Y-15342952D01*
X21213238Y-15352476D01*
X21165619Y-15352476D01*
X21365619Y-15352476D02*
X21365619Y-15219143D01*
X21365619Y-15257238D02*
X21375143Y-15238190D01*
X21384667Y-15228667D01*
X21403714Y-15219143D01*
X21422762Y-15219143D01*
X21489429Y-15352476D02*
X21489429Y-15219143D01*
X21489429Y-15152476D02*
X21479905Y-15162000D01*
X21489429Y-15171524D01*
X21498952Y-15162000D01*
X21489429Y-15152476D01*
X21489429Y-15171524D01*
X21613238Y-15352476D02*
X21594190Y-15342952D01*
X21584667Y-15323905D01*
X21584667Y-15152476D01*
X21718000Y-15352476D02*
X21698952Y-15342952D01*
X21689429Y-15323905D01*
X21689429Y-15152476D01*
X21946571Y-15352476D02*
X21946571Y-15152476D01*
X22013238Y-15295333D01*
X22079905Y-15152476D01*
X22079905Y-15352476D01*
X22260857Y-15352476D02*
X22260857Y-15247714D01*
X22251333Y-15228667D01*
X22232286Y-15219143D01*
X22194190Y-15219143D01*
X22175143Y-15228667D01*
X22260857Y-15342952D02*
X22241810Y-15352476D01*
X22194190Y-15352476D01*
X22175143Y-15342952D01*
X22165619Y-15323905D01*
X22165619Y-15304857D01*
X22175143Y-15285809D01*
X22194190Y-15276286D01*
X22241810Y-15276286D01*
X22260857Y-15266762D01*
X22356095Y-15219143D02*
X22356095Y-15419143D01*
X22356095Y-15228667D02*
X22375143Y-15219143D01*
X22413238Y-15219143D01*
X22432286Y-15228667D01*
X22441809Y-15238190D01*
X22451333Y-15257238D01*
X22451333Y-15314381D01*
X22441809Y-15333428D01*
X22432286Y-15342952D01*
X22413238Y-15352476D01*
X22375143Y-15352476D01*
X22356095Y-15342952D01*
X22537048Y-15333428D02*
X22546571Y-15342952D01*
X22537048Y-15352476D01*
X22527524Y-15342952D01*
X22537048Y-15333428D01*
X22537048Y-15352476D01*
X22537048Y-15228667D02*
X22546571Y-15238190D01*
X22537048Y-15247714D01*
X22527524Y-15238190D01*
X22537048Y-15228667D01*
X22537048Y-15247714D01*
D12*
X20868000Y-15662000D02*
X20908000Y-15702000D01*
X20908000Y-15662000D02*
X20868000Y-15702000D01*
D11*
X21203714Y-15572476D02*
X21222762Y-15572476D01*
X21241810Y-15582000D01*
X21251333Y-15591524D01*
X21260857Y-15610571D01*
X21270381Y-15648667D01*
X21270381Y-15696286D01*
X21260857Y-15734381D01*
X21251333Y-15753428D01*
X21241810Y-15762952D01*
X21222762Y-15772476D01*
X21203714Y-15772476D01*
X21184667Y-15762952D01*
X21175143Y-15753428D01*
X21165619Y-15734381D01*
X21156095Y-15696286D01*
X21156095Y-15648667D01*
X21165619Y-15610571D01*
X21175143Y-15591524D01*
X21184667Y-15582000D01*
X21203714Y-15572476D01*
X21356095Y-15753428D02*
X21365619Y-15762952D01*
X21356095Y-15772476D01*
X21346571Y-15762952D01*
X21356095Y-15753428D01*
X21356095Y-15772476D01*
X21537048Y-15639143D02*
X21537048Y-15772476D01*
X21489429Y-15562952D02*
X21441810Y-15705809D01*
X21565619Y-15705809D01*
X21679905Y-15572476D02*
X21698952Y-15572476D01*
X21718000Y-15582000D01*
X21727524Y-15591524D01*
X21737048Y-15610571D01*
X21746571Y-15648667D01*
X21746571Y-15696286D01*
X21737048Y-15734381D01*
X21727524Y-15753428D01*
X21718000Y-15762952D01*
X21698952Y-15772476D01*
X21679905Y-15772476D01*
X21660857Y-15762952D01*
X21651333Y-15753428D01*
X21641810Y-15734381D01*
X21632286Y-15696286D01*
X21632286Y-15648667D01*
X21641810Y-15610571D01*
X21651333Y-15591524D01*
X21660857Y-15582000D01*
X21679905Y-15572476D01*
X21870381Y-15572476D02*
X21889429Y-15572476D01*
X21908476Y-15582000D01*
X21918000Y-15591524D01*
X21927524Y-15610571D01*
X21937048Y-15648667D01*
X21937048Y-15696286D01*
X21927524Y-15734381D01*
X21918000Y-15753428D01*
X21908476Y-15762952D01*
X21889429Y-15772476D01*
X21870381Y-15772476D01*
X21851333Y-15762952D01*
X21841810Y-15753428D01*
X21832286Y-15734381D01*
X21822762Y-15696286D01*
X21822762Y-15648667D01*
X21832286Y-15610571D01*
X21841810Y-15591524D01*
X21851333Y-15582000D01*
X21870381Y-15572476D01*
X22022762Y-15772476D02*
X22022762Y-15639143D01*
X22022762Y-15658190D02*
X22032286Y-15648667D01*
X22051333Y-15639143D01*
X22079905Y-15639143D01*
X22098952Y-15648667D01*
X22108476Y-15667714D01*
X22108476Y-15772476D01*
X22108476Y-15667714D02*
X22118000Y-15648667D01*
X22137048Y-15639143D01*
X22165619Y-15639143D01*
X22184667Y-15648667D01*
X22194190Y-15667714D01*
X22194190Y-15772476D01*
X22289429Y-15772476D02*
X22289429Y-15639143D01*
X22289429Y-15658190D02*
X22298952Y-15648667D01*
X22318000Y-15639143D01*
X22346571Y-15639143D01*
X22365619Y-15648667D01*
X22375143Y-15667714D01*
X22375143Y-15772476D01*
X22375143Y-15667714D02*
X22384667Y-15648667D01*
X22403714Y-15639143D01*
X22432286Y-15639143D01*
X22451333Y-15648667D01*
X22460857Y-15667714D01*
X22460857Y-15772476D01*
X22851333Y-15562952D02*
X22679905Y-15820095D01*
X23108476Y-15572476D02*
X23127524Y-15572476D01*
X23146571Y-15582000D01*
X23156095Y-15591524D01*
X23165619Y-15610571D01*
X23175143Y-15648667D01*
X23175143Y-15696286D01*
X23165619Y-15734381D01*
X23156095Y-15753428D01*
X23146571Y-15762952D01*
X23127524Y-15772476D01*
X23108476Y-15772476D01*
X23089428Y-15762952D01*
X23079905Y-15753428D01*
X23070381Y-15734381D01*
X23060857Y-15696286D01*
X23060857Y-15648667D01*
X23070381Y-15610571D01*
X23079905Y-15591524D01*
X23089428Y-15582000D01*
X23108476Y-15572476D01*
X23260857Y-15753428D02*
X23270381Y-15762952D01*
X23260857Y-15772476D01*
X23251333Y-15762952D01*
X23260857Y-15753428D01*
X23260857Y-15772476D01*
X23394190Y-15572476D02*
X23413238Y-15572476D01*
X23432286Y-15582000D01*
X23441809Y-15591524D01*
X23451333Y-15610571D01*
X23460857Y-15648667D01*
X23460857Y-15696286D01*
X23451333Y-15734381D01*
X23441809Y-15753428D01*
X23432286Y-15762952D01*
X23413238Y-15772476D01*
X23394190Y-15772476D01*
X23375143Y-15762952D01*
X23365619Y-15753428D01*
X23356095Y-15734381D01*
X23346571Y-15696286D01*
X23346571Y-15648667D01*
X23356095Y-15610571D01*
X23365619Y-15591524D01*
X23375143Y-15582000D01*
X23394190Y-15572476D01*
X23651333Y-15772476D02*
X23537048Y-15772476D01*
X23594190Y-15772476D02*
X23594190Y-15572476D01*
X23575143Y-15601048D01*
X23556095Y-15620095D01*
X23537048Y-15629619D01*
X23832286Y-15572476D02*
X23737048Y-15572476D01*
X23727524Y-15667714D01*
X23737048Y-15658190D01*
X23756095Y-15648667D01*
X23803714Y-15648667D01*
X23822762Y-15658190D01*
X23832286Y-15667714D01*
X23841809Y-15686762D01*
X23841809Y-15734381D01*
X23832286Y-15753428D01*
X23822762Y-15762952D01*
X23803714Y-15772476D01*
X23756095Y-15772476D01*
X23737048Y-15762952D01*
X23727524Y-15753428D01*
X23908476Y-15572476D02*
X24041809Y-15572476D01*
X23956095Y-15772476D01*
X24108476Y-15572476D02*
X24108476Y-15610571D01*
X24184667Y-15572476D02*
X24184667Y-15610571D01*
X24479905Y-15848667D02*
X24470381Y-15839143D01*
X24451333Y-15810571D01*
X24441809Y-15791524D01*
X24432286Y-15762952D01*
X24422762Y-15715333D01*
X24422762Y-15677238D01*
X24432286Y-15629619D01*
X24441809Y-15601048D01*
X24451333Y-15582000D01*
X24470381Y-15553428D01*
X24479905Y-15543905D01*
X24537048Y-15572476D02*
X24670381Y-15572476D01*
X24584667Y-15772476D01*
X24727524Y-15572476D02*
X24860857Y-15572476D01*
X24775143Y-15772476D01*
X25089428Y-15772476D02*
X25089428Y-15572476D01*
X25175143Y-15772476D02*
X25175143Y-15667714D01*
X25165619Y-15648667D01*
X25146571Y-15639143D01*
X25118000Y-15639143D01*
X25098952Y-15648667D01*
X25089428Y-15658190D01*
X25298952Y-15772476D02*
X25279905Y-15762952D01*
X25270381Y-15753428D01*
X25260857Y-15734381D01*
X25260857Y-15677238D01*
X25270381Y-15658190D01*
X25279905Y-15648667D01*
X25298952Y-15639143D01*
X25327524Y-15639143D01*
X25346571Y-15648667D01*
X25356095Y-15658190D01*
X25365619Y-15677238D01*
X25365619Y-15734381D01*
X25356095Y-15753428D01*
X25346571Y-15762952D01*
X25327524Y-15772476D01*
X25298952Y-15772476D01*
X25479905Y-15772476D02*
X25460857Y-15762952D01*
X25451333Y-15743905D01*
X25451333Y-15572476D01*
X25632286Y-15762952D02*
X25613238Y-15772476D01*
X25575143Y-15772476D01*
X25556095Y-15762952D01*
X25546571Y-15743905D01*
X25546571Y-15667714D01*
X25556095Y-15648667D01*
X25575143Y-15639143D01*
X25613238Y-15639143D01*
X25632286Y-15648667D01*
X25641809Y-15667714D01*
X25641809Y-15686762D01*
X25546571Y-15705809D01*
X25718000Y-15762952D02*
X25737048Y-15772476D01*
X25775143Y-15772476D01*
X25794190Y-15762952D01*
X25803714Y-15743905D01*
X25803714Y-15734381D01*
X25794190Y-15715333D01*
X25775143Y-15705809D01*
X25746571Y-15705809D01*
X25727524Y-15696286D01*
X25718000Y-15677238D01*
X25718000Y-15667714D01*
X25727524Y-15648667D01*
X25746571Y-15639143D01*
X25775143Y-15639143D01*
X25794190Y-15648667D01*
X25870381Y-15848667D02*
X25879905Y-15839143D01*
X25898952Y-15810571D01*
X25908476Y-15791524D01*
X25918000Y-15762952D01*
X25927524Y-15715333D01*
X25927524Y-15677238D01*
X25918000Y-15629619D01*
X25908476Y-15601048D01*
X25898952Y-15582000D01*
X25879905Y-15553428D01*
X25870381Y-15543905D01*
D13*
X20908000Y-15946000D02*
G75*
G03*
X20908000Y-15946000I-30000J0D01*
G01*
D11*
X21203714Y-15836476D02*
X21222762Y-15836476D01*
X21241810Y-15846000D01*
X21251333Y-15855524D01*
X21260857Y-15874571D01*
X21270381Y-15912667D01*
X21270381Y-15960286D01*
X21260857Y-15998381D01*
X21251333Y-16017428D01*
X21241810Y-16026952D01*
X21222762Y-16036476D01*
X21203714Y-16036476D01*
X21184667Y-16026952D01*
X21175143Y-16017428D01*
X21165619Y-15998381D01*
X21156095Y-15960286D01*
X21156095Y-15912667D01*
X21165619Y-15874571D01*
X21175143Y-15855524D01*
X21184667Y-15846000D01*
X21203714Y-15836476D01*
X21356095Y-16017428D02*
X21365619Y-16026952D01*
X21356095Y-16036476D01*
X21346571Y-16026952D01*
X21356095Y-16017428D01*
X21356095Y-16036476D01*
X21537048Y-15836476D02*
X21498952Y-15836476D01*
X21479905Y-15846000D01*
X21470381Y-15855524D01*
X21451333Y-15884095D01*
X21441810Y-15922190D01*
X21441810Y-15998381D01*
X21451333Y-16017428D01*
X21460857Y-16026952D01*
X21479905Y-16036476D01*
X21518000Y-16036476D01*
X21537048Y-16026952D01*
X21546571Y-16017428D01*
X21556095Y-15998381D01*
X21556095Y-15950762D01*
X21546571Y-15931714D01*
X21537048Y-15922190D01*
X21518000Y-15912667D01*
X21479905Y-15912667D01*
X21460857Y-15922190D01*
X21451333Y-15931714D01*
X21441810Y-15950762D01*
X21679905Y-15836476D02*
X21698952Y-15836476D01*
X21718000Y-15846000D01*
X21727524Y-15855524D01*
X21737048Y-15874571D01*
X21746571Y-15912667D01*
X21746571Y-15960286D01*
X21737048Y-15998381D01*
X21727524Y-16017428D01*
X21718000Y-16026952D01*
X21698952Y-16036476D01*
X21679905Y-16036476D01*
X21660857Y-16026952D01*
X21651333Y-16017428D01*
X21641810Y-15998381D01*
X21632286Y-15960286D01*
X21632286Y-15912667D01*
X21641810Y-15874571D01*
X21651333Y-15855524D01*
X21660857Y-15846000D01*
X21679905Y-15836476D01*
X21870381Y-15836476D02*
X21889429Y-15836476D01*
X21908476Y-15846000D01*
X21918000Y-15855524D01*
X21927524Y-15874571D01*
X21937048Y-15912667D01*
X21937048Y-15960286D01*
X21927524Y-15998381D01*
X21918000Y-16017428D01*
X21908476Y-16026952D01*
X21889429Y-16036476D01*
X21870381Y-16036476D01*
X21851333Y-16026952D01*
X21841810Y-16017428D01*
X21832286Y-15998381D01*
X21822762Y-15960286D01*
X21822762Y-15912667D01*
X21832286Y-15874571D01*
X21841810Y-15855524D01*
X21851333Y-15846000D01*
X21870381Y-15836476D01*
X22022762Y-16036476D02*
X22022762Y-15903143D01*
X22022762Y-15922190D02*
X22032286Y-15912667D01*
X22051333Y-15903143D01*
X22079905Y-15903143D01*
X22098952Y-15912667D01*
X22108476Y-15931714D01*
X22108476Y-16036476D01*
X22108476Y-15931714D02*
X22118000Y-15912667D01*
X22137048Y-15903143D01*
X22165619Y-15903143D01*
X22184667Y-15912667D01*
X22194190Y-15931714D01*
X22194190Y-16036476D01*
X22289429Y-16036476D02*
X22289429Y-15903143D01*
X22289429Y-15922190D02*
X22298952Y-15912667D01*
X22318000Y-15903143D01*
X22346571Y-15903143D01*
X22365619Y-15912667D01*
X22375143Y-15931714D01*
X22375143Y-16036476D01*
X22375143Y-15931714D02*
X22384667Y-15912667D01*
X22403714Y-15903143D01*
X22432286Y-15903143D01*
X22451333Y-15912667D01*
X22460857Y-15931714D01*
X22460857Y-16036476D01*
X22851333Y-15826952D02*
X22679905Y-16084095D01*
X23108476Y-15836476D02*
X23127524Y-15836476D01*
X23146571Y-15846000D01*
X23156095Y-15855524D01*
X23165619Y-15874571D01*
X23175143Y-15912667D01*
X23175143Y-15960286D01*
X23165619Y-15998381D01*
X23156095Y-16017428D01*
X23146571Y-16026952D01*
X23127524Y-16036476D01*
X23108476Y-16036476D01*
X23089428Y-16026952D01*
X23079905Y-16017428D01*
X23070381Y-15998381D01*
X23060857Y-15960286D01*
X23060857Y-15912667D01*
X23070381Y-15874571D01*
X23079905Y-15855524D01*
X23089428Y-15846000D01*
X23108476Y-15836476D01*
X23260857Y-16017428D02*
X23270381Y-16026952D01*
X23260857Y-16036476D01*
X23251333Y-16026952D01*
X23260857Y-16017428D01*
X23260857Y-16036476D01*
X23394190Y-15836476D02*
X23413238Y-15836476D01*
X23432286Y-15846000D01*
X23441809Y-15855524D01*
X23451333Y-15874571D01*
X23460857Y-15912667D01*
X23460857Y-15960286D01*
X23451333Y-15998381D01*
X23441809Y-16017428D01*
X23432286Y-16026952D01*
X23413238Y-16036476D01*
X23394190Y-16036476D01*
X23375143Y-16026952D01*
X23365619Y-16017428D01*
X23356095Y-15998381D01*
X23346571Y-15960286D01*
X23346571Y-15912667D01*
X23356095Y-15874571D01*
X23365619Y-15855524D01*
X23375143Y-15846000D01*
X23394190Y-15836476D01*
X23537048Y-15855524D02*
X23546571Y-15846000D01*
X23565619Y-15836476D01*
X23613238Y-15836476D01*
X23632286Y-15846000D01*
X23641809Y-15855524D01*
X23651333Y-15874571D01*
X23651333Y-15893619D01*
X23641809Y-15922190D01*
X23527524Y-16036476D01*
X23651333Y-16036476D01*
X23718000Y-15836476D02*
X23841809Y-15836476D01*
X23775143Y-15912667D01*
X23803714Y-15912667D01*
X23822762Y-15922190D01*
X23832286Y-15931714D01*
X23841809Y-15950762D01*
X23841809Y-15998381D01*
X23832286Y-16017428D01*
X23822762Y-16026952D01*
X23803714Y-16036476D01*
X23746571Y-16036476D01*
X23727524Y-16026952D01*
X23718000Y-16017428D01*
X24013238Y-15836476D02*
X23975143Y-15836476D01*
X23956095Y-15846000D01*
X23946571Y-15855524D01*
X23927524Y-15884095D01*
X23918000Y-15922190D01*
X23918000Y-15998381D01*
X23927524Y-16017428D01*
X23937048Y-16026952D01*
X23956095Y-16036476D01*
X23994190Y-16036476D01*
X24013238Y-16026952D01*
X24022762Y-16017428D01*
X24032286Y-15998381D01*
X24032286Y-15950762D01*
X24022762Y-15931714D01*
X24013238Y-15922190D01*
X23994190Y-15912667D01*
X23956095Y-15912667D01*
X23937048Y-15922190D01*
X23927524Y-15931714D01*
X23918000Y-15950762D01*
X24108476Y-15836476D02*
X24108476Y-15874571D01*
X24184667Y-15836476D02*
X24184667Y-15874571D01*
X24479905Y-16112667D02*
X24470381Y-16103143D01*
X24451333Y-16074571D01*
X24441809Y-16055524D01*
X24432286Y-16026952D01*
X24422762Y-15979333D01*
X24422762Y-15941238D01*
X24432286Y-15893619D01*
X24441809Y-15865048D01*
X24451333Y-15846000D01*
X24470381Y-15817428D01*
X24479905Y-15807905D01*
X24546571Y-15855524D02*
X24556095Y-15846000D01*
X24575143Y-15836476D01*
X24622762Y-15836476D01*
X24641809Y-15846000D01*
X24651333Y-15855524D01*
X24660857Y-15874571D01*
X24660857Y-15893619D01*
X24651333Y-15922190D01*
X24537048Y-16036476D01*
X24660857Y-16036476D01*
X24898952Y-16036476D02*
X24898952Y-15836476D01*
X24984667Y-16036476D02*
X24984667Y-15931714D01*
X24975143Y-15912667D01*
X24956095Y-15903143D01*
X24927524Y-15903143D01*
X24908476Y-15912667D01*
X24898952Y-15922190D01*
X25108476Y-16036476D02*
X25089428Y-16026952D01*
X25079905Y-16017428D01*
X25070381Y-15998381D01*
X25070381Y-15941238D01*
X25079905Y-15922190D01*
X25089428Y-15912667D01*
X25108476Y-15903143D01*
X25137048Y-15903143D01*
X25156095Y-15912667D01*
X25165619Y-15922190D01*
X25175143Y-15941238D01*
X25175143Y-15998381D01*
X25165619Y-16017428D01*
X25156095Y-16026952D01*
X25137048Y-16036476D01*
X25108476Y-16036476D01*
X25289428Y-16036476D02*
X25270381Y-16026952D01*
X25260857Y-16007905D01*
X25260857Y-15836476D01*
X25441809Y-16026952D02*
X25422762Y-16036476D01*
X25384667Y-16036476D01*
X25365619Y-16026952D01*
X25356095Y-16007905D01*
X25356095Y-15931714D01*
X25365619Y-15912667D01*
X25384667Y-15903143D01*
X25422762Y-15903143D01*
X25441809Y-15912667D01*
X25451333Y-15931714D01*
X25451333Y-15950762D01*
X25356095Y-15969809D01*
X25527524Y-16026952D02*
X25546571Y-16036476D01*
X25584667Y-16036476D01*
X25603714Y-16026952D01*
X25613238Y-16007905D01*
X25613238Y-15998381D01*
X25603714Y-15979333D01*
X25584667Y-15969809D01*
X25556095Y-15969809D01*
X25537048Y-15960286D01*
X25527524Y-15941238D01*
X25527524Y-15931714D01*
X25537048Y-15912667D01*
X25556095Y-15903143D01*
X25584667Y-15903143D01*
X25603714Y-15912667D01*
X25679905Y-16112667D02*
X25689428Y-16103143D01*
X25708476Y-16074571D01*
X25718000Y-16055524D01*
X25727524Y-16026952D01*
X25737048Y-15979333D01*
X25737048Y-15941238D01*
X25727524Y-15893619D01*
X25718000Y-15865048D01*
X25708476Y-15846000D01*
X25689428Y-15817428D01*
X25679905Y-15807905D01*
D14*
X20875500Y-16177500D02*
X20875500Y-16242500D01*
X20843000Y-16210000D02*
X20908000Y-16210000D01*
D11*
X21203714Y-16100476D02*
X21222762Y-16100476D01*
X21241810Y-16110000D01*
X21251333Y-16119524D01*
X21260857Y-16138571D01*
X21270381Y-16176667D01*
X21270381Y-16224286D01*
X21260857Y-16262381D01*
X21251333Y-16281428D01*
X21241810Y-16290952D01*
X21222762Y-16300476D01*
X21203714Y-16300476D01*
X21184667Y-16290952D01*
X21175143Y-16281428D01*
X21165619Y-16262381D01*
X21156095Y-16224286D01*
X21156095Y-16176667D01*
X21165619Y-16138571D01*
X21175143Y-16119524D01*
X21184667Y-16110000D01*
X21203714Y-16100476D01*
X21356095Y-16281428D02*
X21365619Y-16290952D01*
X21356095Y-16300476D01*
X21346571Y-16290952D01*
X21356095Y-16281428D01*
X21356095Y-16300476D01*
X21537048Y-16100476D02*
X21498952Y-16100476D01*
X21479905Y-16110000D01*
X21470381Y-16119524D01*
X21451333Y-16148095D01*
X21441810Y-16186190D01*
X21441810Y-16262381D01*
X21451333Y-16281428D01*
X21460857Y-16290952D01*
X21479905Y-16300476D01*
X21518000Y-16300476D01*
X21537048Y-16290952D01*
X21546571Y-16281428D01*
X21556095Y-16262381D01*
X21556095Y-16214762D01*
X21546571Y-16195714D01*
X21537048Y-16186190D01*
X21518000Y-16176667D01*
X21479905Y-16176667D01*
X21460857Y-16186190D01*
X21451333Y-16195714D01*
X21441810Y-16214762D01*
X21737048Y-16100476D02*
X21641810Y-16100476D01*
X21632286Y-16195714D01*
X21641810Y-16186190D01*
X21660857Y-16176667D01*
X21708476Y-16176667D01*
X21727524Y-16186190D01*
X21737048Y-16195714D01*
X21746571Y-16214762D01*
X21746571Y-16262381D01*
X21737048Y-16281428D01*
X21727524Y-16290952D01*
X21708476Y-16300476D01*
X21660857Y-16300476D01*
X21641810Y-16290952D01*
X21632286Y-16281428D01*
X21870381Y-16100476D02*
X21889429Y-16100476D01*
X21908476Y-16110000D01*
X21918000Y-16119524D01*
X21927524Y-16138571D01*
X21937048Y-16176667D01*
X21937048Y-16224286D01*
X21927524Y-16262381D01*
X21918000Y-16281428D01*
X21908476Y-16290952D01*
X21889429Y-16300476D01*
X21870381Y-16300476D01*
X21851333Y-16290952D01*
X21841810Y-16281428D01*
X21832286Y-16262381D01*
X21822762Y-16224286D01*
X21822762Y-16176667D01*
X21832286Y-16138571D01*
X21841810Y-16119524D01*
X21851333Y-16110000D01*
X21870381Y-16100476D01*
X22022762Y-16300476D02*
X22022762Y-16167143D01*
X22022762Y-16186190D02*
X22032286Y-16176667D01*
X22051333Y-16167143D01*
X22079905Y-16167143D01*
X22098952Y-16176667D01*
X22108476Y-16195714D01*
X22108476Y-16300476D01*
X22108476Y-16195714D02*
X22118000Y-16176667D01*
X22137048Y-16167143D01*
X22165619Y-16167143D01*
X22184667Y-16176667D01*
X22194190Y-16195714D01*
X22194190Y-16300476D01*
X22289429Y-16300476D02*
X22289429Y-16167143D01*
X22289429Y-16186190D02*
X22298952Y-16176667D01*
X22318000Y-16167143D01*
X22346571Y-16167143D01*
X22365619Y-16176667D01*
X22375143Y-16195714D01*
X22375143Y-16300476D01*
X22375143Y-16195714D02*
X22384667Y-16176667D01*
X22403714Y-16167143D01*
X22432286Y-16167143D01*
X22451333Y-16176667D01*
X22460857Y-16195714D01*
X22460857Y-16300476D01*
X22851333Y-16090952D02*
X22679905Y-16348095D01*
X23108476Y-16100476D02*
X23127524Y-16100476D01*
X23146571Y-16110000D01*
X23156095Y-16119524D01*
X23165619Y-16138571D01*
X23175143Y-16176667D01*
X23175143Y-16224286D01*
X23165619Y-16262381D01*
X23156095Y-16281428D01*
X23146571Y-16290952D01*
X23127524Y-16300476D01*
X23108476Y-16300476D01*
X23089428Y-16290952D01*
X23079905Y-16281428D01*
X23070381Y-16262381D01*
X23060857Y-16224286D01*
X23060857Y-16176667D01*
X23070381Y-16138571D01*
X23079905Y-16119524D01*
X23089428Y-16110000D01*
X23108476Y-16100476D01*
X23260857Y-16281428D02*
X23270381Y-16290952D01*
X23260857Y-16300476D01*
X23251333Y-16290952D01*
X23260857Y-16281428D01*
X23260857Y-16300476D01*
X23394190Y-16100476D02*
X23413238Y-16100476D01*
X23432286Y-16110000D01*
X23441809Y-16119524D01*
X23451333Y-16138571D01*
X23460857Y-16176667D01*
X23460857Y-16224286D01*
X23451333Y-16262381D01*
X23441809Y-16281428D01*
X23432286Y-16290952D01*
X23413238Y-16300476D01*
X23394190Y-16300476D01*
X23375143Y-16290952D01*
X23365619Y-16281428D01*
X23356095Y-16262381D01*
X23346571Y-16224286D01*
X23346571Y-16176667D01*
X23356095Y-16138571D01*
X23365619Y-16119524D01*
X23375143Y-16110000D01*
X23394190Y-16100476D01*
X23537048Y-16119524D02*
X23546571Y-16110000D01*
X23565619Y-16100476D01*
X23613238Y-16100476D01*
X23632286Y-16110000D01*
X23641809Y-16119524D01*
X23651333Y-16138571D01*
X23651333Y-16157619D01*
X23641809Y-16186190D01*
X23527524Y-16300476D01*
X23651333Y-16300476D01*
X23832286Y-16100476D02*
X23737048Y-16100476D01*
X23727524Y-16195714D01*
X23737048Y-16186190D01*
X23756095Y-16176667D01*
X23803714Y-16176667D01*
X23822762Y-16186190D01*
X23832286Y-16195714D01*
X23841809Y-16214762D01*
X23841809Y-16262381D01*
X23832286Y-16281428D01*
X23822762Y-16290952D01*
X23803714Y-16300476D01*
X23756095Y-16300476D01*
X23737048Y-16290952D01*
X23727524Y-16281428D01*
X24013238Y-16100476D02*
X23975143Y-16100476D01*
X23956095Y-16110000D01*
X23946571Y-16119524D01*
X23927524Y-16148095D01*
X23918000Y-16186190D01*
X23918000Y-16262381D01*
X23927524Y-16281428D01*
X23937048Y-16290952D01*
X23956095Y-16300476D01*
X23994190Y-16300476D01*
X24013238Y-16290952D01*
X24022762Y-16281428D01*
X24032286Y-16262381D01*
X24032286Y-16214762D01*
X24022762Y-16195714D01*
X24013238Y-16186190D01*
X23994190Y-16176667D01*
X23956095Y-16176667D01*
X23937048Y-16186190D01*
X23927524Y-16195714D01*
X23918000Y-16214762D01*
X24108476Y-16100476D02*
X24108476Y-16138571D01*
X24184667Y-16100476D02*
X24184667Y-16138571D01*
X24479905Y-16376667D02*
X24470381Y-16367143D01*
X24451333Y-16338571D01*
X24441809Y-16319524D01*
X24432286Y-16290952D01*
X24422762Y-16243333D01*
X24422762Y-16205238D01*
X24432286Y-16157619D01*
X24441809Y-16129048D01*
X24451333Y-16110000D01*
X24470381Y-16081428D01*
X24479905Y-16071905D01*
X24641809Y-16100476D02*
X24603714Y-16100476D01*
X24584667Y-16110000D01*
X24575143Y-16119524D01*
X24556095Y-16148095D01*
X24546571Y-16186190D01*
X24546571Y-16262381D01*
X24556095Y-16281428D01*
X24565619Y-16290952D01*
X24584667Y-16300476D01*
X24622762Y-16300476D01*
X24641809Y-16290952D01*
X24651333Y-16281428D01*
X24660857Y-16262381D01*
X24660857Y-16214762D01*
X24651333Y-16195714D01*
X24641809Y-16186190D01*
X24622762Y-16176667D01*
X24584667Y-16176667D01*
X24565619Y-16186190D01*
X24556095Y-16195714D01*
X24546571Y-16214762D01*
X24898952Y-16300476D02*
X24898952Y-16100476D01*
X24984667Y-16300476D02*
X24984667Y-16195714D01*
X24975143Y-16176667D01*
X24956095Y-16167143D01*
X24927524Y-16167143D01*
X24908476Y-16176667D01*
X24898952Y-16186190D01*
X25108476Y-16300476D02*
X25089428Y-16290952D01*
X25079905Y-16281428D01*
X25070381Y-16262381D01*
X25070381Y-16205238D01*
X25079905Y-16186190D01*
X25089428Y-16176667D01*
X25108476Y-16167143D01*
X25137048Y-16167143D01*
X25156095Y-16176667D01*
X25165619Y-16186190D01*
X25175143Y-16205238D01*
X25175143Y-16262381D01*
X25165619Y-16281428D01*
X25156095Y-16290952D01*
X25137048Y-16300476D01*
X25108476Y-16300476D01*
X25289428Y-16300476D02*
X25270381Y-16290952D01*
X25260857Y-16271905D01*
X25260857Y-16100476D01*
X25441809Y-16290952D02*
X25422762Y-16300476D01*
X25384667Y-16300476D01*
X25365619Y-16290952D01*
X25356095Y-16271905D01*
X25356095Y-16195714D01*
X25365619Y-16176667D01*
X25384667Y-16167143D01*
X25422762Y-16167143D01*
X25441809Y-16176667D01*
X25451333Y-16195714D01*
X25451333Y-16214762D01*
X25356095Y-16233809D01*
X25527524Y-16290952D02*
X25546571Y-16300476D01*
X25584667Y-16300476D01*
X25603714Y-16290952D01*
X25613238Y-16271905D01*
X25613238Y-16262381D01*
X25603714Y-16243333D01*
X25584667Y-16233809D01*
X25556095Y-16233809D01*
X25537048Y-16224286D01*
X25527524Y-16205238D01*
X25527524Y-16195714D01*
X25537048Y-16176667D01*
X25556095Y-16167143D01*
X25584667Y-16167143D01*
X25603714Y-16176667D01*
X25679905Y-16376667D02*
X25689428Y-16367143D01*
X25708476Y-16338571D01*
X25718000Y-16319524D01*
X25727524Y-16290952D01*
X25737048Y-16243333D01*
X25737048Y-16205238D01*
X25727524Y-16157619D01*
X25718000Y-16129048D01*
X25708476Y-16110000D01*
X25689428Y-16081428D01*
X25679905Y-16071905D01*
D15*
X20896285Y-16502284D02*
X20896285Y-16445715D01*
X20839716Y-16445715D01*
X20839716Y-16502284D01*
X20896285Y-16502284D01*
D11*
X21203714Y-16364476D02*
X21222762Y-16364476D01*
X21241810Y-16374000D01*
X21251333Y-16383524D01*
X21260857Y-16402571D01*
X21270381Y-16440667D01*
X21270381Y-16488286D01*
X21260857Y-16526381D01*
X21251333Y-16545428D01*
X21241810Y-16554952D01*
X21222762Y-16564476D01*
X21203714Y-16564476D01*
X21184667Y-16554952D01*
X21175143Y-16545428D01*
X21165619Y-16526381D01*
X21156095Y-16488286D01*
X21156095Y-16440667D01*
X21165619Y-16402571D01*
X21175143Y-16383524D01*
X21184667Y-16374000D01*
X21203714Y-16364476D01*
X21356095Y-16545428D02*
X21365619Y-16554952D01*
X21356095Y-16564476D01*
X21346571Y-16554952D01*
X21356095Y-16545428D01*
X21356095Y-16564476D01*
X21479905Y-16450190D02*
X21460857Y-16440667D01*
X21451333Y-16431143D01*
X21441810Y-16412095D01*
X21441810Y-16402571D01*
X21451333Y-16383524D01*
X21460857Y-16374000D01*
X21479905Y-16364476D01*
X21518000Y-16364476D01*
X21537048Y-16374000D01*
X21546571Y-16383524D01*
X21556095Y-16402571D01*
X21556095Y-16412095D01*
X21546571Y-16431143D01*
X21537048Y-16440667D01*
X21518000Y-16450190D01*
X21479905Y-16450190D01*
X21460857Y-16459714D01*
X21451333Y-16469238D01*
X21441810Y-16488286D01*
X21441810Y-16526381D01*
X21451333Y-16545428D01*
X21460857Y-16554952D01*
X21479905Y-16564476D01*
X21518000Y-16564476D01*
X21537048Y-16554952D01*
X21546571Y-16545428D01*
X21556095Y-16526381D01*
X21556095Y-16488286D01*
X21546571Y-16469238D01*
X21537048Y-16459714D01*
X21518000Y-16450190D01*
X21679905Y-16364476D02*
X21698952Y-16364476D01*
X21718000Y-16374000D01*
X21727524Y-16383524D01*
X21737048Y-16402571D01*
X21746571Y-16440667D01*
X21746571Y-16488286D01*
X21737048Y-16526381D01*
X21727524Y-16545428D01*
X21718000Y-16554952D01*
X21698952Y-16564476D01*
X21679905Y-16564476D01*
X21660857Y-16554952D01*
X21651333Y-16545428D01*
X21641810Y-16526381D01*
X21632286Y-16488286D01*
X21632286Y-16440667D01*
X21641810Y-16402571D01*
X21651333Y-16383524D01*
X21660857Y-16374000D01*
X21679905Y-16364476D01*
X21870381Y-16364476D02*
X21889429Y-16364476D01*
X21908476Y-16374000D01*
X21918000Y-16383524D01*
X21927524Y-16402571D01*
X21937048Y-16440667D01*
X21937048Y-16488286D01*
X21927524Y-16526381D01*
X21918000Y-16545428D01*
X21908476Y-16554952D01*
X21889429Y-16564476D01*
X21870381Y-16564476D01*
X21851333Y-16554952D01*
X21841810Y-16545428D01*
X21832286Y-16526381D01*
X21822762Y-16488286D01*
X21822762Y-16440667D01*
X21832286Y-16402571D01*
X21841810Y-16383524D01*
X21851333Y-16374000D01*
X21870381Y-16364476D01*
X22022762Y-16564476D02*
X22022762Y-16431143D01*
X22022762Y-16450190D02*
X22032286Y-16440667D01*
X22051333Y-16431143D01*
X22079905Y-16431143D01*
X22098952Y-16440667D01*
X22108476Y-16459714D01*
X22108476Y-16564476D01*
X22108476Y-16459714D02*
X22118000Y-16440667D01*
X22137048Y-16431143D01*
X22165619Y-16431143D01*
X22184667Y-16440667D01*
X22194190Y-16459714D01*
X22194190Y-16564476D01*
X22289429Y-16564476D02*
X22289429Y-16431143D01*
X22289429Y-16450190D02*
X22298952Y-16440667D01*
X22318000Y-16431143D01*
X22346571Y-16431143D01*
X22365619Y-16440667D01*
X22375143Y-16459714D01*
X22375143Y-16564476D01*
X22375143Y-16459714D02*
X22384667Y-16440667D01*
X22403714Y-16431143D01*
X22432286Y-16431143D01*
X22451333Y-16440667D01*
X22460857Y-16459714D01*
X22460857Y-16564476D01*
X22851333Y-16354952D02*
X22679905Y-16612095D01*
X23108476Y-16364476D02*
X23127524Y-16364476D01*
X23146571Y-16374000D01*
X23156095Y-16383524D01*
X23165619Y-16402571D01*
X23175143Y-16440667D01*
X23175143Y-16488286D01*
X23165619Y-16526381D01*
X23156095Y-16545428D01*
X23146571Y-16554952D01*
X23127524Y-16564476D01*
X23108476Y-16564476D01*
X23089428Y-16554952D01*
X23079905Y-16545428D01*
X23070381Y-16526381D01*
X23060857Y-16488286D01*
X23060857Y-16440667D01*
X23070381Y-16402571D01*
X23079905Y-16383524D01*
X23089428Y-16374000D01*
X23108476Y-16364476D01*
X23260857Y-16545428D02*
X23270381Y-16554952D01*
X23260857Y-16564476D01*
X23251333Y-16554952D01*
X23260857Y-16545428D01*
X23260857Y-16564476D01*
X23394190Y-16364476D02*
X23413238Y-16364476D01*
X23432286Y-16374000D01*
X23441809Y-16383524D01*
X23451333Y-16402571D01*
X23460857Y-16440667D01*
X23460857Y-16488286D01*
X23451333Y-16526381D01*
X23441809Y-16545428D01*
X23432286Y-16554952D01*
X23413238Y-16564476D01*
X23394190Y-16564476D01*
X23375143Y-16554952D01*
X23365619Y-16545428D01*
X23356095Y-16526381D01*
X23346571Y-16488286D01*
X23346571Y-16440667D01*
X23356095Y-16402571D01*
X23365619Y-16383524D01*
X23375143Y-16374000D01*
X23394190Y-16364476D01*
X23527524Y-16364476D02*
X23651333Y-16364476D01*
X23584667Y-16440667D01*
X23613238Y-16440667D01*
X23632286Y-16450190D01*
X23641809Y-16459714D01*
X23651333Y-16478762D01*
X23651333Y-16526381D01*
X23641809Y-16545428D01*
X23632286Y-16554952D01*
X23613238Y-16564476D01*
X23556095Y-16564476D01*
X23537048Y-16554952D01*
X23527524Y-16545428D01*
X23841809Y-16564476D02*
X23727524Y-16564476D01*
X23784667Y-16564476D02*
X23784667Y-16364476D01*
X23765619Y-16393048D01*
X23746571Y-16412095D01*
X23727524Y-16421619D01*
X24022762Y-16364476D02*
X23927524Y-16364476D01*
X23918000Y-16459714D01*
X23927524Y-16450190D01*
X23946571Y-16440667D01*
X23994190Y-16440667D01*
X24013238Y-16450190D01*
X24022762Y-16459714D01*
X24032286Y-16478762D01*
X24032286Y-16526381D01*
X24022762Y-16545428D01*
X24013238Y-16554952D01*
X23994190Y-16564476D01*
X23946571Y-16564476D01*
X23927524Y-16554952D01*
X23918000Y-16545428D01*
X24108476Y-16364476D02*
X24108476Y-16402571D01*
X24184667Y-16364476D02*
X24184667Y-16402571D01*
X24479905Y-16640667D02*
X24470381Y-16631143D01*
X24451333Y-16602571D01*
X24441809Y-16583524D01*
X24432286Y-16554952D01*
X24422762Y-16507333D01*
X24422762Y-16469238D01*
X24432286Y-16421619D01*
X24441809Y-16393048D01*
X24451333Y-16374000D01*
X24470381Y-16345428D01*
X24479905Y-16335905D01*
X24537048Y-16364476D02*
X24660857Y-16364476D01*
X24594190Y-16440667D01*
X24622762Y-16440667D01*
X24641809Y-16450190D01*
X24651333Y-16459714D01*
X24660857Y-16478762D01*
X24660857Y-16526381D01*
X24651333Y-16545428D01*
X24641809Y-16554952D01*
X24622762Y-16564476D01*
X24565619Y-16564476D01*
X24546571Y-16554952D01*
X24537048Y-16545428D01*
X24832286Y-16431143D02*
X24832286Y-16564476D01*
X24784667Y-16354952D02*
X24737048Y-16497809D01*
X24860857Y-16497809D01*
X25089428Y-16564476D02*
X25089428Y-16364476D01*
X25175143Y-16564476D02*
X25175143Y-16459714D01*
X25165619Y-16440667D01*
X25146571Y-16431143D01*
X25118000Y-16431143D01*
X25098952Y-16440667D01*
X25089428Y-16450190D01*
X25298952Y-16564476D02*
X25279905Y-16554952D01*
X25270381Y-16545428D01*
X25260857Y-16526381D01*
X25260857Y-16469238D01*
X25270381Y-16450190D01*
X25279905Y-16440667D01*
X25298952Y-16431143D01*
X25327524Y-16431143D01*
X25346571Y-16440667D01*
X25356095Y-16450190D01*
X25365619Y-16469238D01*
X25365619Y-16526381D01*
X25356095Y-16545428D01*
X25346571Y-16554952D01*
X25327524Y-16564476D01*
X25298952Y-16564476D01*
X25479905Y-16564476D02*
X25460857Y-16554952D01*
X25451333Y-16535905D01*
X25451333Y-16364476D01*
X25632286Y-16554952D02*
X25613238Y-16564476D01*
X25575143Y-16564476D01*
X25556095Y-16554952D01*
X25546571Y-16535905D01*
X25546571Y-16459714D01*
X25556095Y-16440667D01*
X25575143Y-16431143D01*
X25613238Y-16431143D01*
X25632286Y-16440667D01*
X25641809Y-16459714D01*
X25641809Y-16478762D01*
X25546571Y-16497809D01*
X25718000Y-16554952D02*
X25737048Y-16564476D01*
X25775143Y-16564476D01*
X25794190Y-16554952D01*
X25803714Y-16535905D01*
X25803714Y-16526381D01*
X25794190Y-16507333D01*
X25775143Y-16497809D01*
X25746571Y-16497809D01*
X25727524Y-16488286D01*
X25718000Y-16469238D01*
X25718000Y-16459714D01*
X25727524Y-16440667D01*
X25746571Y-16431143D01*
X25775143Y-16431143D01*
X25794190Y-16440667D01*
X26041809Y-16488286D02*
X26194190Y-16488286D01*
X26118000Y-16564476D02*
X26118000Y-16412095D01*
X26432286Y-16383524D02*
X26441809Y-16374000D01*
X26460857Y-16364476D01*
X26508476Y-16364476D01*
X26527524Y-16374000D01*
X26537048Y-16383524D01*
X26546571Y-16402571D01*
X26546571Y-16421619D01*
X26537048Y-16450190D01*
X26422762Y-16564476D01*
X26546571Y-16564476D01*
X26775143Y-16554952D02*
X26794190Y-16564476D01*
X26832286Y-16564476D01*
X26851333Y-16554952D01*
X26860857Y-16535905D01*
X26860857Y-16526381D01*
X26851333Y-16507333D01*
X26832286Y-16497809D01*
X26803714Y-16497809D01*
X26784667Y-16488286D01*
X26775143Y-16469238D01*
X26775143Y-16459714D01*
X26784667Y-16440667D01*
X26803714Y-16431143D01*
X26832286Y-16431143D01*
X26851333Y-16440667D01*
X26975143Y-16564476D02*
X26956095Y-16554952D01*
X26946571Y-16535905D01*
X26946571Y-16364476D01*
X27079905Y-16564476D02*
X27060857Y-16554952D01*
X27051333Y-16545428D01*
X27041809Y-16526381D01*
X27041809Y-16469238D01*
X27051333Y-16450190D01*
X27060857Y-16440667D01*
X27079905Y-16431143D01*
X27108476Y-16431143D01*
X27127524Y-16440667D01*
X27137048Y-16450190D01*
X27146571Y-16469238D01*
X27146571Y-16526381D01*
X27137048Y-16545428D01*
X27127524Y-16554952D01*
X27108476Y-16564476D01*
X27079905Y-16564476D01*
X27203714Y-16431143D02*
X27279905Y-16431143D01*
X27232286Y-16364476D02*
X27232286Y-16535905D01*
X27241809Y-16554952D01*
X27260857Y-16564476D01*
X27279905Y-16564476D01*
X27337048Y-16554952D02*
X27356095Y-16564476D01*
X27394190Y-16564476D01*
X27413238Y-16554952D01*
X27422762Y-16535905D01*
X27422762Y-16526381D01*
X27413238Y-16507333D01*
X27394190Y-16497809D01*
X27365619Y-16497809D01*
X27346571Y-16488286D01*
X27337048Y-16469238D01*
X27337048Y-16459714D01*
X27346571Y-16440667D01*
X27365619Y-16431143D01*
X27394190Y-16431143D01*
X27413238Y-16440667D01*
X27489428Y-16640667D02*
X27498952Y-16631143D01*
X27518000Y-16602571D01*
X27527524Y-16583524D01*
X27537048Y-16554952D01*
X27546571Y-16507333D01*
X27546571Y-16469238D01*
X27537048Y-16421619D01*
X27527524Y-16393048D01*
X27518000Y-16374000D01*
X27498952Y-16345428D01*
X27489428Y-16335905D01*
D16*
X20863000Y-16783000D02*
X20908000Y-16738000D01*
X20863000Y-16693000D01*
X20818000Y-16738000D01*
X20863000Y-16783000D01*
D11*
X21203714Y-16628476D02*
X21222762Y-16628476D01*
X21241810Y-16638000D01*
X21251333Y-16647524D01*
X21260857Y-16666571D01*
X21270381Y-16704667D01*
X21270381Y-16752286D01*
X21260857Y-16790381D01*
X21251333Y-16809429D01*
X21241810Y-16818952D01*
X21222762Y-16828476D01*
X21203714Y-16828476D01*
X21184667Y-16818952D01*
X21175143Y-16809429D01*
X21165619Y-16790381D01*
X21156095Y-16752286D01*
X21156095Y-16704667D01*
X21165619Y-16666571D01*
X21175143Y-16647524D01*
X21184667Y-16638000D01*
X21203714Y-16628476D01*
X21356095Y-16809429D02*
X21365619Y-16818952D01*
X21356095Y-16828476D01*
X21346571Y-16818952D01*
X21356095Y-16809429D01*
X21356095Y-16828476D01*
X21460857Y-16828476D02*
X21498952Y-16828476D01*
X21518000Y-16818952D01*
X21527524Y-16809429D01*
X21546571Y-16780857D01*
X21556095Y-16742762D01*
X21556095Y-16666571D01*
X21546571Y-16647524D01*
X21537048Y-16638000D01*
X21518000Y-16628476D01*
X21479905Y-16628476D01*
X21460857Y-16638000D01*
X21451333Y-16647524D01*
X21441810Y-16666571D01*
X21441810Y-16714190D01*
X21451333Y-16733238D01*
X21460857Y-16742762D01*
X21479905Y-16752286D01*
X21518000Y-16752286D01*
X21537048Y-16742762D01*
X21546571Y-16733238D01*
X21556095Y-16714190D01*
X21679905Y-16628476D02*
X21698952Y-16628476D01*
X21718000Y-16638000D01*
X21727524Y-16647524D01*
X21737048Y-16666571D01*
X21746571Y-16704667D01*
X21746571Y-16752286D01*
X21737048Y-16790381D01*
X21727524Y-16809429D01*
X21718000Y-16818952D01*
X21698952Y-16828476D01*
X21679905Y-16828476D01*
X21660857Y-16818952D01*
X21651333Y-16809429D01*
X21641810Y-16790381D01*
X21632286Y-16752286D01*
X21632286Y-16704667D01*
X21641810Y-16666571D01*
X21651333Y-16647524D01*
X21660857Y-16638000D01*
X21679905Y-16628476D01*
X21870381Y-16628476D02*
X21889429Y-16628476D01*
X21908476Y-16638000D01*
X21918000Y-16647524D01*
X21927524Y-16666571D01*
X21937048Y-16704667D01*
X21937048Y-16752286D01*
X21927524Y-16790381D01*
X21918000Y-16809429D01*
X21908476Y-16818952D01*
X21889429Y-16828476D01*
X21870381Y-16828476D01*
X21851333Y-16818952D01*
X21841810Y-16809429D01*
X21832286Y-16790381D01*
X21822762Y-16752286D01*
X21822762Y-16704667D01*
X21832286Y-16666571D01*
X21841810Y-16647524D01*
X21851333Y-16638000D01*
X21870381Y-16628476D01*
X22022762Y-16828476D02*
X22022762Y-16695143D01*
X22022762Y-16714190D02*
X22032286Y-16704667D01*
X22051333Y-16695143D01*
X22079905Y-16695143D01*
X22098952Y-16704667D01*
X22108476Y-16723714D01*
X22108476Y-16828476D01*
X22108476Y-16723714D02*
X22118000Y-16704667D01*
X22137048Y-16695143D01*
X22165619Y-16695143D01*
X22184667Y-16704667D01*
X22194190Y-16723714D01*
X22194190Y-16828476D01*
X22289429Y-16828476D02*
X22289429Y-16695143D01*
X22289429Y-16714190D02*
X22298952Y-16704667D01*
X22318000Y-16695143D01*
X22346571Y-16695143D01*
X22365619Y-16704667D01*
X22375143Y-16723714D01*
X22375143Y-16828476D01*
X22375143Y-16723714D02*
X22384667Y-16704667D01*
X22403714Y-16695143D01*
X22432286Y-16695143D01*
X22451333Y-16704667D01*
X22460857Y-16723714D01*
X22460857Y-16828476D01*
X22851333Y-16618952D02*
X22679905Y-16876095D01*
X23108476Y-16628476D02*
X23127524Y-16628476D01*
X23146571Y-16638000D01*
X23156095Y-16647524D01*
X23165619Y-16666571D01*
X23175143Y-16704667D01*
X23175143Y-16752286D01*
X23165619Y-16790381D01*
X23156095Y-16809429D01*
X23146571Y-16818952D01*
X23127524Y-16828476D01*
X23108476Y-16828476D01*
X23089428Y-16818952D01*
X23079905Y-16809429D01*
X23070381Y-16790381D01*
X23060857Y-16752286D01*
X23060857Y-16704667D01*
X23070381Y-16666571D01*
X23079905Y-16647524D01*
X23089428Y-16638000D01*
X23108476Y-16628476D01*
X23260857Y-16809429D02*
X23270381Y-16818952D01*
X23260857Y-16828476D01*
X23251333Y-16818952D01*
X23260857Y-16809429D01*
X23260857Y-16828476D01*
X23394190Y-16628476D02*
X23413238Y-16628476D01*
X23432286Y-16638000D01*
X23441809Y-16647524D01*
X23451333Y-16666571D01*
X23460857Y-16704667D01*
X23460857Y-16752286D01*
X23451333Y-16790381D01*
X23441809Y-16809429D01*
X23432286Y-16818952D01*
X23413238Y-16828476D01*
X23394190Y-16828476D01*
X23375143Y-16818952D01*
X23365619Y-16809429D01*
X23356095Y-16790381D01*
X23346571Y-16752286D01*
X23346571Y-16704667D01*
X23356095Y-16666571D01*
X23365619Y-16647524D01*
X23375143Y-16638000D01*
X23394190Y-16628476D01*
X23527524Y-16628476D02*
X23651333Y-16628476D01*
X23584667Y-16704667D01*
X23613238Y-16704667D01*
X23632286Y-16714190D01*
X23641809Y-16723714D01*
X23651333Y-16742762D01*
X23651333Y-16790381D01*
X23641809Y-16809429D01*
X23632286Y-16818952D01*
X23613238Y-16828476D01*
X23556095Y-16828476D01*
X23537048Y-16818952D01*
X23527524Y-16809429D01*
X23832286Y-16628476D02*
X23737048Y-16628476D01*
X23727524Y-16723714D01*
X23737048Y-16714190D01*
X23756095Y-16704667D01*
X23803714Y-16704667D01*
X23822762Y-16714190D01*
X23832286Y-16723714D01*
X23841809Y-16742762D01*
X23841809Y-16790381D01*
X23832286Y-16809429D01*
X23822762Y-16818952D01*
X23803714Y-16828476D01*
X23756095Y-16828476D01*
X23737048Y-16818952D01*
X23727524Y-16809429D01*
X24013238Y-16695143D02*
X24013238Y-16828476D01*
X23965619Y-16618952D02*
X23918000Y-16761809D01*
X24041809Y-16761809D01*
X24108476Y-16628476D02*
X24108476Y-16666571D01*
X24184667Y-16628476D02*
X24184667Y-16666571D01*
X24479905Y-16904667D02*
X24470381Y-16895143D01*
X24451333Y-16866571D01*
X24441809Y-16847524D01*
X24432286Y-16818952D01*
X24422762Y-16771333D01*
X24422762Y-16733238D01*
X24432286Y-16685619D01*
X24441809Y-16657048D01*
X24451333Y-16638000D01*
X24470381Y-16609428D01*
X24479905Y-16599905D01*
X24641809Y-16628476D02*
X24603714Y-16628476D01*
X24584667Y-16638000D01*
X24575143Y-16647524D01*
X24556095Y-16676095D01*
X24546571Y-16714190D01*
X24546571Y-16790381D01*
X24556095Y-16809429D01*
X24565619Y-16818952D01*
X24584667Y-16828476D01*
X24622762Y-16828476D01*
X24641809Y-16818952D01*
X24651333Y-16809429D01*
X24660857Y-16790381D01*
X24660857Y-16742762D01*
X24651333Y-16723714D01*
X24641809Y-16714190D01*
X24622762Y-16704667D01*
X24584667Y-16704667D01*
X24565619Y-16714190D01*
X24556095Y-16723714D01*
X24546571Y-16742762D01*
X24898952Y-16828476D02*
X24898952Y-16628476D01*
X24984667Y-16828476D02*
X24984667Y-16723714D01*
X24975143Y-16704667D01*
X24956095Y-16695143D01*
X24927524Y-16695143D01*
X24908476Y-16704667D01*
X24898952Y-16714190D01*
X25108476Y-16828476D02*
X25089428Y-16818952D01*
X25079905Y-16809429D01*
X25070381Y-16790381D01*
X25070381Y-16733238D01*
X25079905Y-16714190D01*
X25089428Y-16704667D01*
X25108476Y-16695143D01*
X25137048Y-16695143D01*
X25156095Y-16704667D01*
X25165619Y-16714190D01*
X25175143Y-16733238D01*
X25175143Y-16790381D01*
X25165619Y-16809429D01*
X25156095Y-16818952D01*
X25137048Y-16828476D01*
X25108476Y-16828476D01*
X25289428Y-16828476D02*
X25270381Y-16818952D01*
X25260857Y-16799905D01*
X25260857Y-16628476D01*
X25441809Y-16818952D02*
X25422762Y-16828476D01*
X25384667Y-16828476D01*
X25365619Y-16818952D01*
X25356095Y-16799905D01*
X25356095Y-16723714D01*
X25365619Y-16704667D01*
X25384667Y-16695143D01*
X25422762Y-16695143D01*
X25441809Y-16704667D01*
X25451333Y-16723714D01*
X25451333Y-16742762D01*
X25356095Y-16761809D01*
X25527524Y-16818952D02*
X25546571Y-16828476D01*
X25584667Y-16828476D01*
X25603714Y-16818952D01*
X25613238Y-16799905D01*
X25613238Y-16790381D01*
X25603714Y-16771333D01*
X25584667Y-16761809D01*
X25556095Y-16761809D01*
X25537048Y-16752286D01*
X25527524Y-16733238D01*
X25527524Y-16723714D01*
X25537048Y-16704667D01*
X25556095Y-16695143D01*
X25584667Y-16695143D01*
X25603714Y-16704667D01*
X25679905Y-16904667D02*
X25689428Y-16895143D01*
X25708476Y-16866571D01*
X25718000Y-16847524D01*
X25727524Y-16818952D01*
X25737048Y-16771333D01*
X25737048Y-16733238D01*
X25727524Y-16685619D01*
X25718000Y-16657048D01*
X25708476Y-16638000D01*
X25689428Y-16609428D01*
X25679905Y-16599905D01*
D17*
X20816560Y-16956280D02*
X20908000Y-17047720D01*
X20908000Y-16956280D02*
X20816560Y-17047720D01*
X20908000Y-17002000D02*
G75*
G03*
X20908000Y-17002000I-45720J0D01*
G01*
D11*
X21203714Y-16892476D02*
X21222762Y-16892476D01*
X21241810Y-16902000D01*
X21251333Y-16911524D01*
X21260857Y-16930571D01*
X21270381Y-16968667D01*
X21270381Y-17016286D01*
X21260857Y-17054381D01*
X21251333Y-17073429D01*
X21241810Y-17082952D01*
X21222762Y-17092476D01*
X21203714Y-17092476D01*
X21184667Y-17082952D01*
X21175143Y-17073429D01*
X21165619Y-17054381D01*
X21156095Y-17016286D01*
X21156095Y-16968667D01*
X21165619Y-16930571D01*
X21175143Y-16911524D01*
X21184667Y-16902000D01*
X21203714Y-16892476D01*
X21356095Y-17073429D02*
X21365619Y-17082952D01*
X21356095Y-17092476D01*
X21346571Y-17082952D01*
X21356095Y-17073429D01*
X21356095Y-17092476D01*
X21460857Y-17092476D02*
X21498952Y-17092476D01*
X21518000Y-17082952D01*
X21527524Y-17073429D01*
X21546571Y-17044857D01*
X21556095Y-17006762D01*
X21556095Y-16930571D01*
X21546571Y-16911524D01*
X21537048Y-16902000D01*
X21518000Y-16892476D01*
X21479905Y-16892476D01*
X21460857Y-16902000D01*
X21451333Y-16911524D01*
X21441810Y-16930571D01*
X21441810Y-16978190D01*
X21451333Y-16997238D01*
X21460857Y-17006762D01*
X21479905Y-17016286D01*
X21518000Y-17016286D01*
X21537048Y-17006762D01*
X21546571Y-16997238D01*
X21556095Y-16978190D01*
X21746571Y-17092476D02*
X21632286Y-17092476D01*
X21689429Y-17092476D02*
X21689429Y-16892476D01*
X21670381Y-16921048D01*
X21651333Y-16940095D01*
X21632286Y-16949619D01*
X21918000Y-16959143D02*
X21918000Y-17092476D01*
X21870381Y-16882952D02*
X21822762Y-17025810D01*
X21946571Y-17025810D01*
X22022762Y-17092476D02*
X22022762Y-16959143D01*
X22022762Y-16978190D02*
X22032286Y-16968667D01*
X22051333Y-16959143D01*
X22079905Y-16959143D01*
X22098952Y-16968667D01*
X22108476Y-16987714D01*
X22108476Y-17092476D01*
X22108476Y-16987714D02*
X22118000Y-16968667D01*
X22137048Y-16959143D01*
X22165619Y-16959143D01*
X22184667Y-16968667D01*
X22194190Y-16987714D01*
X22194190Y-17092476D01*
X22289429Y-17092476D02*
X22289429Y-16959143D01*
X22289429Y-16978190D02*
X22298952Y-16968667D01*
X22318000Y-16959143D01*
X22346571Y-16959143D01*
X22365619Y-16968667D01*
X22375143Y-16987714D01*
X22375143Y-17092476D01*
X22375143Y-16987714D02*
X22384667Y-16968667D01*
X22403714Y-16959143D01*
X22432286Y-16959143D01*
X22451333Y-16968667D01*
X22460857Y-16987714D01*
X22460857Y-17092476D01*
X22851333Y-16882952D02*
X22679905Y-17140095D01*
X23108476Y-16892476D02*
X23127524Y-16892476D01*
X23146571Y-16902000D01*
X23156095Y-16911524D01*
X23165619Y-16930571D01*
X23175143Y-16968667D01*
X23175143Y-17016286D01*
X23165619Y-17054381D01*
X23156095Y-17073429D01*
X23146571Y-17082952D01*
X23127524Y-17092476D01*
X23108476Y-17092476D01*
X23089428Y-17082952D01*
X23079905Y-17073429D01*
X23070381Y-17054381D01*
X23060857Y-17016286D01*
X23060857Y-16968667D01*
X23070381Y-16930571D01*
X23079905Y-16911524D01*
X23089428Y-16902000D01*
X23108476Y-16892476D01*
X23260857Y-17073429D02*
X23270381Y-17082952D01*
X23260857Y-17092476D01*
X23251333Y-17082952D01*
X23260857Y-17073429D01*
X23260857Y-17092476D01*
X23394190Y-16892476D02*
X23413238Y-16892476D01*
X23432286Y-16902000D01*
X23441809Y-16911524D01*
X23451333Y-16930571D01*
X23460857Y-16968667D01*
X23460857Y-17016286D01*
X23451333Y-17054381D01*
X23441809Y-17073429D01*
X23432286Y-17082952D01*
X23413238Y-17092476D01*
X23394190Y-17092476D01*
X23375143Y-17082952D01*
X23365619Y-17073429D01*
X23356095Y-17054381D01*
X23346571Y-17016286D01*
X23346571Y-16968667D01*
X23356095Y-16930571D01*
X23365619Y-16911524D01*
X23375143Y-16902000D01*
X23394190Y-16892476D01*
X23527524Y-16892476D02*
X23651333Y-16892476D01*
X23584667Y-16968667D01*
X23613238Y-16968667D01*
X23632286Y-16978190D01*
X23641809Y-16987714D01*
X23651333Y-17006762D01*
X23651333Y-17054381D01*
X23641809Y-17073429D01*
X23632286Y-17082952D01*
X23613238Y-17092476D01*
X23556095Y-17092476D01*
X23537048Y-17082952D01*
X23527524Y-17073429D01*
X23822762Y-16892476D02*
X23784667Y-16892476D01*
X23765619Y-16902000D01*
X23756095Y-16911524D01*
X23737048Y-16940095D01*
X23727524Y-16978190D01*
X23727524Y-17054381D01*
X23737048Y-17073429D01*
X23746571Y-17082952D01*
X23765619Y-17092476D01*
X23803714Y-17092476D01*
X23822762Y-17082952D01*
X23832286Y-17073429D01*
X23841809Y-17054381D01*
X23841809Y-17006762D01*
X23832286Y-16987714D01*
X23822762Y-16978190D01*
X23803714Y-16968667D01*
X23765619Y-16968667D01*
X23746571Y-16978190D01*
X23737048Y-16987714D01*
X23727524Y-17006762D01*
X23965619Y-16892476D02*
X23984667Y-16892476D01*
X24003714Y-16902000D01*
X24013238Y-16911524D01*
X24022762Y-16930571D01*
X24032286Y-16968667D01*
X24032286Y-17016286D01*
X24022762Y-17054381D01*
X24013238Y-17073429D01*
X24003714Y-17082952D01*
X23984667Y-17092476D01*
X23965619Y-17092476D01*
X23946571Y-17082952D01*
X23937048Y-17073429D01*
X23927524Y-17054381D01*
X23918000Y-17016286D01*
X23918000Y-16968667D01*
X23927524Y-16930571D01*
X23937048Y-16911524D01*
X23946571Y-16902000D01*
X23965619Y-16892476D01*
X24108476Y-16892476D02*
X24108476Y-16930571D01*
X24184667Y-16892476D02*
X24184667Y-16930571D01*
X24479905Y-17168667D02*
X24470381Y-17159143D01*
X24451333Y-17130571D01*
X24441809Y-17111524D01*
X24432286Y-17082952D01*
X24422762Y-17035333D01*
X24422762Y-16997238D01*
X24432286Y-16949619D01*
X24441809Y-16921048D01*
X24451333Y-16902000D01*
X24470381Y-16873429D01*
X24479905Y-16863905D01*
X24546571Y-16911524D02*
X24556095Y-16902000D01*
X24575143Y-16892476D01*
X24622762Y-16892476D01*
X24641809Y-16902000D01*
X24651333Y-16911524D01*
X24660857Y-16930571D01*
X24660857Y-16949619D01*
X24651333Y-16978190D01*
X24537048Y-17092476D01*
X24660857Y-17092476D01*
X24784667Y-16892476D02*
X24803714Y-16892476D01*
X24822762Y-16902000D01*
X24832286Y-16911524D01*
X24841809Y-16930571D01*
X24851333Y-16968667D01*
X24851333Y-17016286D01*
X24841809Y-17054381D01*
X24832286Y-17073429D01*
X24822762Y-17082952D01*
X24803714Y-17092476D01*
X24784667Y-17092476D01*
X24765619Y-17082952D01*
X24756095Y-17073429D01*
X24746571Y-17054381D01*
X24737048Y-17016286D01*
X24737048Y-16968667D01*
X24746571Y-16930571D01*
X24756095Y-16911524D01*
X24765619Y-16902000D01*
X24784667Y-16892476D01*
X25089428Y-17092476D02*
X25089428Y-16892476D01*
X25175143Y-17092476D02*
X25175143Y-16987714D01*
X25165619Y-16968667D01*
X25146571Y-16959143D01*
X25118000Y-16959143D01*
X25098952Y-16968667D01*
X25089428Y-16978190D01*
X25298952Y-17092476D02*
X25279905Y-17082952D01*
X25270381Y-17073429D01*
X25260857Y-17054381D01*
X25260857Y-16997238D01*
X25270381Y-16978190D01*
X25279905Y-16968667D01*
X25298952Y-16959143D01*
X25327524Y-16959143D01*
X25346571Y-16968667D01*
X25356095Y-16978190D01*
X25365619Y-16997238D01*
X25365619Y-17054381D01*
X25356095Y-17073429D01*
X25346571Y-17082952D01*
X25327524Y-17092476D01*
X25298952Y-17092476D01*
X25479905Y-17092476D02*
X25460857Y-17082952D01*
X25451333Y-17063905D01*
X25451333Y-16892476D01*
X25632286Y-17082952D02*
X25613238Y-17092476D01*
X25575143Y-17092476D01*
X25556095Y-17082952D01*
X25546571Y-17063905D01*
X25546571Y-16987714D01*
X25556095Y-16968667D01*
X25575143Y-16959143D01*
X25613238Y-16959143D01*
X25632286Y-16968667D01*
X25641809Y-16987714D01*
X25641809Y-17006762D01*
X25546571Y-17025810D01*
X25718000Y-17082952D02*
X25737048Y-17092476D01*
X25775143Y-17092476D01*
X25794190Y-17082952D01*
X25803714Y-17063905D01*
X25803714Y-17054381D01*
X25794190Y-17035333D01*
X25775143Y-17025810D01*
X25746571Y-17025810D01*
X25727524Y-17016286D01*
X25718000Y-16997238D01*
X25718000Y-16987714D01*
X25727524Y-16968667D01*
X25746571Y-16959143D01*
X25775143Y-16959143D01*
X25794190Y-16968667D01*
X25870381Y-17168667D02*
X25879905Y-17159143D01*
X25898952Y-17130571D01*
X25908476Y-17111524D01*
X25918000Y-17082952D01*
X25927524Y-17035333D01*
X25927524Y-16997238D01*
X25918000Y-16949619D01*
X25908476Y-16921048D01*
X25898952Y-16902000D01*
X25879905Y-16873429D01*
X25870381Y-16863905D01*
D18*
X20808000Y-17216000D02*
X20908000Y-17316000D01*
X20908000Y-17216000D02*
X20808000Y-17316000D01*
X20858000Y-17216000D02*
X20858000Y-17316000D01*
X20808000Y-17266000D02*
X20908000Y-17266000D01*
D11*
X21270381Y-17356476D02*
X21156095Y-17356476D01*
X21213238Y-17356476D02*
X21213238Y-17156476D01*
X21194190Y-17185048D01*
X21175143Y-17204095D01*
X21156095Y-17213619D01*
X21356095Y-17337429D02*
X21365619Y-17346952D01*
X21356095Y-17356476D01*
X21346571Y-17346952D01*
X21356095Y-17337429D01*
X21356095Y-17356476D01*
X21489429Y-17156476D02*
X21508476Y-17156476D01*
X21527524Y-17166000D01*
X21537048Y-17175524D01*
X21546571Y-17194571D01*
X21556095Y-17232667D01*
X21556095Y-17280286D01*
X21546571Y-17318381D01*
X21537048Y-17337429D01*
X21527524Y-17346952D01*
X21508476Y-17356476D01*
X21489429Y-17356476D01*
X21470381Y-17346952D01*
X21460857Y-17337429D01*
X21451333Y-17318381D01*
X21441810Y-17280286D01*
X21441810Y-17232667D01*
X21451333Y-17194571D01*
X21460857Y-17175524D01*
X21470381Y-17166000D01*
X21489429Y-17156476D01*
X21679905Y-17156476D02*
X21698952Y-17156476D01*
X21718000Y-17166000D01*
X21727524Y-17175524D01*
X21737048Y-17194571D01*
X21746571Y-17232667D01*
X21746571Y-17280286D01*
X21737048Y-17318381D01*
X21727524Y-17337429D01*
X21718000Y-17346952D01*
X21698952Y-17356476D01*
X21679905Y-17356476D01*
X21660857Y-17346952D01*
X21651333Y-17337429D01*
X21641810Y-17318381D01*
X21632286Y-17280286D01*
X21632286Y-17232667D01*
X21641810Y-17194571D01*
X21651333Y-17175524D01*
X21660857Y-17166000D01*
X21679905Y-17156476D01*
X21870381Y-17156476D02*
X21889429Y-17156476D01*
X21908476Y-17166000D01*
X21918000Y-17175524D01*
X21927524Y-17194571D01*
X21937048Y-17232667D01*
X21937048Y-17280286D01*
X21927524Y-17318381D01*
X21918000Y-17337429D01*
X21908476Y-17346952D01*
X21889429Y-17356476D01*
X21870381Y-17356476D01*
X21851333Y-17346952D01*
X21841810Y-17337429D01*
X21832286Y-17318381D01*
X21822762Y-17280286D01*
X21822762Y-17232667D01*
X21832286Y-17194571D01*
X21841810Y-17175524D01*
X21851333Y-17166000D01*
X21870381Y-17156476D01*
X22022762Y-17356476D02*
X22022762Y-17223143D01*
X22022762Y-17242190D02*
X22032286Y-17232667D01*
X22051333Y-17223143D01*
X22079905Y-17223143D01*
X22098952Y-17232667D01*
X22108476Y-17251714D01*
X22108476Y-17356476D01*
X22108476Y-17251714D02*
X22118000Y-17232667D01*
X22137048Y-17223143D01*
X22165619Y-17223143D01*
X22184667Y-17232667D01*
X22194190Y-17251714D01*
X22194190Y-17356476D01*
X22289429Y-17356476D02*
X22289429Y-17223143D01*
X22289429Y-17242190D02*
X22298952Y-17232667D01*
X22318000Y-17223143D01*
X22346571Y-17223143D01*
X22365619Y-17232667D01*
X22375143Y-17251714D01*
X22375143Y-17356476D01*
X22375143Y-17251714D02*
X22384667Y-17232667D01*
X22403714Y-17223143D01*
X22432286Y-17223143D01*
X22451333Y-17232667D01*
X22460857Y-17251714D01*
X22460857Y-17356476D01*
X22851333Y-17146952D02*
X22679905Y-17404095D01*
X23108476Y-17156476D02*
X23127524Y-17156476D01*
X23146571Y-17166000D01*
X23156095Y-17175524D01*
X23165619Y-17194571D01*
X23175143Y-17232667D01*
X23175143Y-17280286D01*
X23165619Y-17318381D01*
X23156095Y-17337429D01*
X23146571Y-17346952D01*
X23127524Y-17356476D01*
X23108476Y-17356476D01*
X23089428Y-17346952D01*
X23079905Y-17337429D01*
X23070381Y-17318381D01*
X23060857Y-17280286D01*
X23060857Y-17232667D01*
X23070381Y-17194571D01*
X23079905Y-17175524D01*
X23089428Y-17166000D01*
X23108476Y-17156476D01*
X23260857Y-17337429D02*
X23270381Y-17346952D01*
X23260857Y-17356476D01*
X23251333Y-17346952D01*
X23260857Y-17337429D01*
X23260857Y-17356476D01*
X23394190Y-17156476D02*
X23413238Y-17156476D01*
X23432286Y-17166000D01*
X23441809Y-17175524D01*
X23451333Y-17194571D01*
X23460857Y-17232667D01*
X23460857Y-17280286D01*
X23451333Y-17318381D01*
X23441809Y-17337429D01*
X23432286Y-17346952D01*
X23413238Y-17356476D01*
X23394190Y-17356476D01*
X23375143Y-17346952D01*
X23365619Y-17337429D01*
X23356095Y-17318381D01*
X23346571Y-17280286D01*
X23346571Y-17232667D01*
X23356095Y-17194571D01*
X23365619Y-17175524D01*
X23375143Y-17166000D01*
X23394190Y-17156476D01*
X23527524Y-17156476D02*
X23651333Y-17156476D01*
X23584667Y-17232667D01*
X23613238Y-17232667D01*
X23632286Y-17242190D01*
X23641809Y-17251714D01*
X23651333Y-17270762D01*
X23651333Y-17318381D01*
X23641809Y-17337429D01*
X23632286Y-17346952D01*
X23613238Y-17356476D01*
X23556095Y-17356476D01*
X23537048Y-17346952D01*
X23527524Y-17337429D01*
X23746571Y-17356476D02*
X23784667Y-17356476D01*
X23803714Y-17346952D01*
X23813238Y-17337429D01*
X23832286Y-17308857D01*
X23841809Y-17270762D01*
X23841809Y-17194571D01*
X23832286Y-17175524D01*
X23822762Y-17166000D01*
X23803714Y-17156476D01*
X23765619Y-17156476D01*
X23746571Y-17166000D01*
X23737048Y-17175524D01*
X23727524Y-17194571D01*
X23727524Y-17242190D01*
X23737048Y-17261238D01*
X23746571Y-17270762D01*
X23765619Y-17280286D01*
X23803714Y-17280286D01*
X23822762Y-17270762D01*
X23832286Y-17261238D01*
X23841809Y-17242190D01*
X24013238Y-17223143D02*
X24013238Y-17356476D01*
X23965619Y-17146952D02*
X23918000Y-17289810D01*
X24041809Y-17289810D01*
X24108476Y-17156476D02*
X24108476Y-17194571D01*
X24184667Y-17156476D02*
X24184667Y-17194571D01*
X24479905Y-17432667D02*
X24470381Y-17423143D01*
X24451333Y-17394571D01*
X24441809Y-17375524D01*
X24432286Y-17346952D01*
X24422762Y-17299333D01*
X24422762Y-17261238D01*
X24432286Y-17213619D01*
X24441809Y-17185048D01*
X24451333Y-17166000D01*
X24470381Y-17137429D01*
X24479905Y-17127905D01*
X24546571Y-17175524D02*
X24556095Y-17166000D01*
X24575143Y-17156476D01*
X24622762Y-17156476D01*
X24641809Y-17166000D01*
X24651333Y-17175524D01*
X24660857Y-17194571D01*
X24660857Y-17213619D01*
X24651333Y-17242190D01*
X24537048Y-17356476D01*
X24660857Y-17356476D01*
X24898952Y-17356476D02*
X24898952Y-17156476D01*
X24984667Y-17356476D02*
X24984667Y-17251714D01*
X24975143Y-17232667D01*
X24956095Y-17223143D01*
X24927524Y-17223143D01*
X24908476Y-17232667D01*
X24898952Y-17242190D01*
X25108476Y-17356476D02*
X25089428Y-17346952D01*
X25079905Y-17337429D01*
X25070381Y-17318381D01*
X25070381Y-17261238D01*
X25079905Y-17242190D01*
X25089428Y-17232667D01*
X25108476Y-17223143D01*
X25137048Y-17223143D01*
X25156095Y-17232667D01*
X25165619Y-17242190D01*
X25175143Y-17261238D01*
X25175143Y-17318381D01*
X25165619Y-17337429D01*
X25156095Y-17346952D01*
X25137048Y-17356476D01*
X25108476Y-17356476D01*
X25289428Y-17356476D02*
X25270381Y-17346952D01*
X25260857Y-17327905D01*
X25260857Y-17156476D01*
X25441809Y-17346952D02*
X25422762Y-17356476D01*
X25384667Y-17356476D01*
X25365619Y-17346952D01*
X25356095Y-17327905D01*
X25356095Y-17251714D01*
X25365619Y-17232667D01*
X25384667Y-17223143D01*
X25422762Y-17223143D01*
X25441809Y-17232667D01*
X25451333Y-17251714D01*
X25451333Y-17270762D01*
X25356095Y-17289810D01*
X25527524Y-17346952D02*
X25546571Y-17356476D01*
X25584667Y-17356476D01*
X25603714Y-17346952D01*
X25613238Y-17327905D01*
X25613238Y-17318381D01*
X25603714Y-17299333D01*
X25584667Y-17289810D01*
X25556095Y-17289810D01*
X25537048Y-17280286D01*
X25527524Y-17261238D01*
X25527524Y-17251714D01*
X25537048Y-17232667D01*
X25556095Y-17223143D01*
X25584667Y-17223143D01*
X25603714Y-17232667D01*
X25851333Y-17280286D02*
X26003714Y-17280286D01*
X25927524Y-17356476D02*
X25927524Y-17204095D01*
X26241809Y-17175524D02*
X26251333Y-17166000D01*
X26270381Y-17156476D01*
X26318000Y-17156476D01*
X26337048Y-17166000D01*
X26346571Y-17175524D01*
X26356095Y-17194571D01*
X26356095Y-17213619D01*
X26346571Y-17242190D01*
X26232286Y-17356476D01*
X26356095Y-17356476D01*
X26584667Y-17346952D02*
X26603714Y-17356476D01*
X26641809Y-17356476D01*
X26660857Y-17346952D01*
X26670381Y-17327905D01*
X26670381Y-17318381D01*
X26660857Y-17299333D01*
X26641809Y-17289810D01*
X26613238Y-17289810D01*
X26594190Y-17280286D01*
X26584667Y-17261238D01*
X26584667Y-17251714D01*
X26594190Y-17232667D01*
X26613238Y-17223143D01*
X26641809Y-17223143D01*
X26660857Y-17232667D01*
X26784667Y-17356476D02*
X26765619Y-17346952D01*
X26756095Y-17327905D01*
X26756095Y-17156476D01*
X26889428Y-17356476D02*
X26870381Y-17346952D01*
X26860857Y-17337429D01*
X26851333Y-17318381D01*
X26851333Y-17261238D01*
X26860857Y-17242190D01*
X26870381Y-17232667D01*
X26889428Y-17223143D01*
X26918000Y-17223143D01*
X26937048Y-17232667D01*
X26946571Y-17242190D01*
X26956095Y-17261238D01*
X26956095Y-17318381D01*
X26946571Y-17337429D01*
X26937048Y-17346952D01*
X26918000Y-17356476D01*
X26889428Y-17356476D01*
X27013238Y-17223143D02*
X27089428Y-17223143D01*
X27041809Y-17156476D02*
X27041809Y-17327905D01*
X27051333Y-17346952D01*
X27070381Y-17356476D01*
X27089428Y-17356476D01*
X27146571Y-17346952D02*
X27165619Y-17356476D01*
X27203714Y-17356476D01*
X27222762Y-17346952D01*
X27232286Y-17327905D01*
X27232286Y-17318381D01*
X27222762Y-17299333D01*
X27203714Y-17289810D01*
X27175143Y-17289810D01*
X27156095Y-17280286D01*
X27146571Y-17261238D01*
X27146571Y-17251714D01*
X27156095Y-17232667D01*
X27175143Y-17223143D01*
X27203714Y-17223143D01*
X27222762Y-17232667D01*
X27298952Y-17432667D02*
X27308476Y-17423143D01*
X27327524Y-17394571D01*
X27337048Y-17375524D01*
X27346571Y-17346952D01*
X27356095Y-17299333D01*
X27356095Y-17261238D01*
X27346571Y-17213619D01*
X27337048Y-17185048D01*
X27327524Y-17166000D01*
X27308476Y-17137429D01*
X27298952Y-17127905D01*
D19*
X20798000Y-17475000D02*
X20908000Y-17585000D01*
X20908000Y-17475000D02*
X20798000Y-17585000D01*
X20891891Y-17568891D02*
X20891891Y-17491109D01*
X20814109Y-17491109D01*
X20814109Y-17568891D01*
X20891891Y-17568891D01*
D11*
X21270381Y-17620476D02*
X21156095Y-17620476D01*
X21213238Y-17620476D02*
X21213238Y-17420476D01*
X21194190Y-17449048D01*
X21175143Y-17468095D01*
X21156095Y-17477619D01*
X21356095Y-17601429D02*
X21365619Y-17610952D01*
X21356095Y-17620476D01*
X21346571Y-17610952D01*
X21356095Y-17601429D01*
X21356095Y-17620476D01*
X21556095Y-17620476D02*
X21441810Y-17620476D01*
X21498952Y-17620476D02*
X21498952Y-17420476D01*
X21479905Y-17449048D01*
X21460857Y-17468095D01*
X21441810Y-17477619D01*
X21679905Y-17420476D02*
X21698952Y-17420476D01*
X21718000Y-17430000D01*
X21727524Y-17439524D01*
X21737048Y-17458571D01*
X21746571Y-17496667D01*
X21746571Y-17544286D01*
X21737048Y-17582381D01*
X21727524Y-17601429D01*
X21718000Y-17610952D01*
X21698952Y-17620476D01*
X21679905Y-17620476D01*
X21660857Y-17610952D01*
X21651333Y-17601429D01*
X21641810Y-17582381D01*
X21632286Y-17544286D01*
X21632286Y-17496667D01*
X21641810Y-17458571D01*
X21651333Y-17439524D01*
X21660857Y-17430000D01*
X21679905Y-17420476D01*
X21870381Y-17420476D02*
X21889429Y-17420476D01*
X21908476Y-17430000D01*
X21918000Y-17439524D01*
X21927524Y-17458571D01*
X21937048Y-17496667D01*
X21937048Y-17544286D01*
X21927524Y-17582381D01*
X21918000Y-17601429D01*
X21908476Y-17610952D01*
X21889429Y-17620476D01*
X21870381Y-17620476D01*
X21851333Y-17610952D01*
X21841810Y-17601429D01*
X21832286Y-17582381D01*
X21822762Y-17544286D01*
X21822762Y-17496667D01*
X21832286Y-17458571D01*
X21841810Y-17439524D01*
X21851333Y-17430000D01*
X21870381Y-17420476D01*
X22022762Y-17620476D02*
X22022762Y-17487143D01*
X22022762Y-17506190D02*
X22032286Y-17496667D01*
X22051333Y-17487143D01*
X22079905Y-17487143D01*
X22098952Y-17496667D01*
X22108476Y-17515714D01*
X22108476Y-17620476D01*
X22108476Y-17515714D02*
X22118000Y-17496667D01*
X22137048Y-17487143D01*
X22165619Y-17487143D01*
X22184667Y-17496667D01*
X22194190Y-17515714D01*
X22194190Y-17620476D01*
X22289429Y-17620476D02*
X22289429Y-17487143D01*
X22289429Y-17506190D02*
X22298952Y-17496667D01*
X22318000Y-17487143D01*
X22346571Y-17487143D01*
X22365619Y-17496667D01*
X22375143Y-17515714D01*
X22375143Y-17620476D01*
X22375143Y-17515714D02*
X22384667Y-17496667D01*
X22403714Y-17487143D01*
X22432286Y-17487143D01*
X22451333Y-17496667D01*
X22460857Y-17515714D01*
X22460857Y-17620476D01*
X22851333Y-17410952D02*
X22679905Y-17668095D01*
X23108476Y-17420476D02*
X23127524Y-17420476D01*
X23146571Y-17430000D01*
X23156095Y-17439524D01*
X23165619Y-17458571D01*
X23175143Y-17496667D01*
X23175143Y-17544286D01*
X23165619Y-17582381D01*
X23156095Y-17601429D01*
X23146571Y-17610952D01*
X23127524Y-17620476D01*
X23108476Y-17620476D01*
X23089428Y-17610952D01*
X23079905Y-17601429D01*
X23070381Y-17582381D01*
X23060857Y-17544286D01*
X23060857Y-17496667D01*
X23070381Y-17458571D01*
X23079905Y-17439524D01*
X23089428Y-17430000D01*
X23108476Y-17420476D01*
X23260857Y-17601429D02*
X23270381Y-17610952D01*
X23260857Y-17620476D01*
X23251333Y-17610952D01*
X23260857Y-17601429D01*
X23260857Y-17620476D01*
X23394190Y-17420476D02*
X23413238Y-17420476D01*
X23432286Y-17430000D01*
X23441809Y-17439524D01*
X23451333Y-17458571D01*
X23460857Y-17496667D01*
X23460857Y-17544286D01*
X23451333Y-17582381D01*
X23441809Y-17601429D01*
X23432286Y-17610952D01*
X23413238Y-17620476D01*
X23394190Y-17620476D01*
X23375143Y-17610952D01*
X23365619Y-17601429D01*
X23356095Y-17582381D01*
X23346571Y-17544286D01*
X23346571Y-17496667D01*
X23356095Y-17458571D01*
X23365619Y-17439524D01*
X23375143Y-17430000D01*
X23394190Y-17420476D01*
X23632286Y-17487143D02*
X23632286Y-17620476D01*
X23584667Y-17410952D02*
X23537048Y-17553810D01*
X23660857Y-17553810D01*
X23718000Y-17420476D02*
X23841809Y-17420476D01*
X23775143Y-17496667D01*
X23803714Y-17496667D01*
X23822762Y-17506190D01*
X23832286Y-17515714D01*
X23841809Y-17534762D01*
X23841809Y-17582381D01*
X23832286Y-17601429D01*
X23822762Y-17610952D01*
X23803714Y-17620476D01*
X23746571Y-17620476D01*
X23727524Y-17610952D01*
X23718000Y-17601429D01*
X23908476Y-17420476D02*
X24032286Y-17420476D01*
X23965619Y-17496667D01*
X23994190Y-17496667D01*
X24013238Y-17506190D01*
X24022762Y-17515714D01*
X24032286Y-17534762D01*
X24032286Y-17582381D01*
X24022762Y-17601429D01*
X24013238Y-17610952D01*
X23994190Y-17620476D01*
X23937048Y-17620476D01*
X23918000Y-17610952D01*
X23908476Y-17601429D01*
X24108476Y-17420476D02*
X24108476Y-17458571D01*
X24184667Y-17420476D02*
X24184667Y-17458571D01*
X24479905Y-17696667D02*
X24470381Y-17687143D01*
X24451333Y-17658571D01*
X24441809Y-17639524D01*
X24432286Y-17610952D01*
X24422762Y-17563333D01*
X24422762Y-17525238D01*
X24432286Y-17477619D01*
X24441809Y-17449048D01*
X24451333Y-17430000D01*
X24470381Y-17401429D01*
X24479905Y-17391905D01*
X24660857Y-17620476D02*
X24546571Y-17620476D01*
X24603714Y-17620476D02*
X24603714Y-17420476D01*
X24584667Y-17449048D01*
X24565619Y-17468095D01*
X24546571Y-17477619D01*
X24898952Y-17620476D02*
X24898952Y-17420476D01*
X24984667Y-17620476D02*
X24984667Y-17515714D01*
X24975143Y-17496667D01*
X24956095Y-17487143D01*
X24927524Y-17487143D01*
X24908476Y-17496667D01*
X24898952Y-17506190D01*
X25108476Y-17620476D02*
X25089428Y-17610952D01*
X25079905Y-17601429D01*
X25070381Y-17582381D01*
X25070381Y-17525238D01*
X25079905Y-17506190D01*
X25089428Y-17496667D01*
X25108476Y-17487143D01*
X25137048Y-17487143D01*
X25156095Y-17496667D01*
X25165619Y-17506190D01*
X25175143Y-17525238D01*
X25175143Y-17582381D01*
X25165619Y-17601429D01*
X25156095Y-17610952D01*
X25137048Y-17620476D01*
X25108476Y-17620476D01*
X25289428Y-17620476D02*
X25270381Y-17610952D01*
X25260857Y-17591905D01*
X25260857Y-17420476D01*
X25441809Y-17610952D02*
X25422762Y-17620476D01*
X25384667Y-17620476D01*
X25365619Y-17610952D01*
X25356095Y-17591905D01*
X25356095Y-17515714D01*
X25365619Y-17496667D01*
X25384667Y-17487143D01*
X25422762Y-17487143D01*
X25441809Y-17496667D01*
X25451333Y-17515714D01*
X25451333Y-17534762D01*
X25356095Y-17553810D01*
X25518000Y-17696667D02*
X25527524Y-17687143D01*
X25546571Y-17658571D01*
X25556095Y-17639524D01*
X25565619Y-17610952D01*
X25575143Y-17563333D01*
X25575143Y-17525238D01*
X25565619Y-17477619D01*
X25556095Y-17449048D01*
X25546571Y-17430000D01*
X25527524Y-17401429D01*
X25518000Y-17391905D01*
D20*
X20788000Y-17734000D02*
X20908000Y-17854000D01*
X20908000Y-17734000D02*
X20788000Y-17854000D01*
X20848000Y-17854000D02*
X20908000Y-17794000D01*
X20848000Y-17734000D01*
X20788000Y-17794000D01*
X20848000Y-17854000D01*
D11*
X21270381Y-17884476D02*
X21156095Y-17884476D01*
X21213238Y-17884476D02*
X21213238Y-17684476D01*
X21194190Y-17713048D01*
X21175143Y-17732095D01*
X21156095Y-17741619D01*
X21356095Y-17865429D02*
X21365619Y-17874952D01*
X21356095Y-17884476D01*
X21346571Y-17874952D01*
X21356095Y-17865429D01*
X21356095Y-17884476D01*
X21441810Y-17703524D02*
X21451333Y-17694000D01*
X21470381Y-17684476D01*
X21518000Y-17684476D01*
X21537048Y-17694000D01*
X21546571Y-17703524D01*
X21556095Y-17722571D01*
X21556095Y-17741619D01*
X21546571Y-17770190D01*
X21432286Y-17884476D01*
X21556095Y-17884476D01*
X21679905Y-17684476D02*
X21698952Y-17684476D01*
X21718000Y-17694000D01*
X21727524Y-17703524D01*
X21737048Y-17722571D01*
X21746571Y-17760667D01*
X21746571Y-17808286D01*
X21737048Y-17846381D01*
X21727524Y-17865429D01*
X21718000Y-17874952D01*
X21698952Y-17884476D01*
X21679905Y-17884476D01*
X21660857Y-17874952D01*
X21651333Y-17865429D01*
X21641810Y-17846381D01*
X21632286Y-17808286D01*
X21632286Y-17760667D01*
X21641810Y-17722571D01*
X21651333Y-17703524D01*
X21660857Y-17694000D01*
X21679905Y-17684476D01*
X21870381Y-17684476D02*
X21889429Y-17684476D01*
X21908476Y-17694000D01*
X21918000Y-17703524D01*
X21927524Y-17722571D01*
X21937048Y-17760667D01*
X21937048Y-17808286D01*
X21927524Y-17846381D01*
X21918000Y-17865429D01*
X21908476Y-17874952D01*
X21889429Y-17884476D01*
X21870381Y-17884476D01*
X21851333Y-17874952D01*
X21841810Y-17865429D01*
X21832286Y-17846381D01*
X21822762Y-17808286D01*
X21822762Y-17760667D01*
X21832286Y-17722571D01*
X21841810Y-17703524D01*
X21851333Y-17694000D01*
X21870381Y-17684476D01*
X22022762Y-17884476D02*
X22022762Y-17751143D01*
X22022762Y-17770190D02*
X22032286Y-17760667D01*
X22051333Y-17751143D01*
X22079905Y-17751143D01*
X22098952Y-17760667D01*
X22108476Y-17779714D01*
X22108476Y-17884476D01*
X22108476Y-17779714D02*
X22118000Y-17760667D01*
X22137048Y-17751143D01*
X22165619Y-17751143D01*
X22184667Y-17760667D01*
X22194190Y-17779714D01*
X22194190Y-17884476D01*
X22289429Y-17884476D02*
X22289429Y-17751143D01*
X22289429Y-17770190D02*
X22298952Y-17760667D01*
X22318000Y-17751143D01*
X22346571Y-17751143D01*
X22365619Y-17760667D01*
X22375143Y-17779714D01*
X22375143Y-17884476D01*
X22375143Y-17779714D02*
X22384667Y-17760667D01*
X22403714Y-17751143D01*
X22432286Y-17751143D01*
X22451333Y-17760667D01*
X22460857Y-17779714D01*
X22460857Y-17884476D01*
X22851333Y-17674952D02*
X22679905Y-17932095D01*
X23108476Y-17684476D02*
X23127524Y-17684476D01*
X23146571Y-17694000D01*
X23156095Y-17703524D01*
X23165619Y-17722571D01*
X23175143Y-17760667D01*
X23175143Y-17808286D01*
X23165619Y-17846381D01*
X23156095Y-17865429D01*
X23146571Y-17874952D01*
X23127524Y-17884476D01*
X23108476Y-17884476D01*
X23089428Y-17874952D01*
X23079905Y-17865429D01*
X23070381Y-17846381D01*
X23060857Y-17808286D01*
X23060857Y-17760667D01*
X23070381Y-17722571D01*
X23079905Y-17703524D01*
X23089428Y-17694000D01*
X23108476Y-17684476D01*
X23260857Y-17865429D02*
X23270381Y-17874952D01*
X23260857Y-17884476D01*
X23251333Y-17874952D01*
X23260857Y-17865429D01*
X23260857Y-17884476D01*
X23394190Y-17684476D02*
X23413238Y-17684476D01*
X23432286Y-17694000D01*
X23441809Y-17703524D01*
X23451333Y-17722571D01*
X23460857Y-17760667D01*
X23460857Y-17808286D01*
X23451333Y-17846381D01*
X23441809Y-17865429D01*
X23432286Y-17874952D01*
X23413238Y-17884476D01*
X23394190Y-17884476D01*
X23375143Y-17874952D01*
X23365619Y-17865429D01*
X23356095Y-17846381D01*
X23346571Y-17808286D01*
X23346571Y-17760667D01*
X23356095Y-17722571D01*
X23365619Y-17703524D01*
X23375143Y-17694000D01*
X23394190Y-17684476D01*
X23632286Y-17751143D02*
X23632286Y-17884476D01*
X23584667Y-17674952D02*
X23537048Y-17817810D01*
X23660857Y-17817810D01*
X23718000Y-17684476D02*
X23851333Y-17684476D01*
X23765619Y-17884476D01*
X23918000Y-17703524D02*
X23927524Y-17694000D01*
X23946571Y-17684476D01*
X23994190Y-17684476D01*
X24013238Y-17694000D01*
X24022762Y-17703524D01*
X24032286Y-17722571D01*
X24032286Y-17741619D01*
X24022762Y-17770190D01*
X23908476Y-17884476D01*
X24032286Y-17884476D01*
X24108476Y-17684476D02*
X24108476Y-17722571D01*
X24184667Y-17684476D02*
X24184667Y-17722571D01*
X24479905Y-17960667D02*
X24470381Y-17951143D01*
X24451333Y-17922571D01*
X24441809Y-17903524D01*
X24432286Y-17874952D01*
X24422762Y-17827333D01*
X24422762Y-17789238D01*
X24432286Y-17741619D01*
X24441809Y-17713048D01*
X24451333Y-17694000D01*
X24470381Y-17665429D01*
X24479905Y-17655905D01*
X24584667Y-17770190D02*
X24565619Y-17760667D01*
X24556095Y-17751143D01*
X24546571Y-17732095D01*
X24546571Y-17722571D01*
X24556095Y-17703524D01*
X24565619Y-17694000D01*
X24584667Y-17684476D01*
X24622762Y-17684476D01*
X24641809Y-17694000D01*
X24651333Y-17703524D01*
X24660857Y-17722571D01*
X24660857Y-17732095D01*
X24651333Y-17751143D01*
X24641809Y-17760667D01*
X24622762Y-17770190D01*
X24584667Y-17770190D01*
X24565619Y-17779714D01*
X24556095Y-17789238D01*
X24546571Y-17808286D01*
X24546571Y-17846381D01*
X24556095Y-17865429D01*
X24565619Y-17874952D01*
X24584667Y-17884476D01*
X24622762Y-17884476D01*
X24641809Y-17874952D01*
X24651333Y-17865429D01*
X24660857Y-17846381D01*
X24660857Y-17808286D01*
X24651333Y-17789238D01*
X24641809Y-17779714D01*
X24622762Y-17770190D01*
X24898952Y-17884476D02*
X24898952Y-17684476D01*
X24984667Y-17884476D02*
X24984667Y-17779714D01*
X24975143Y-17760667D01*
X24956095Y-17751143D01*
X24927524Y-17751143D01*
X24908476Y-17760667D01*
X24898952Y-17770190D01*
X25108476Y-17884476D02*
X25089428Y-17874952D01*
X25079905Y-17865429D01*
X25070381Y-17846381D01*
X25070381Y-17789238D01*
X25079905Y-17770190D01*
X25089428Y-17760667D01*
X25108476Y-17751143D01*
X25137048Y-17751143D01*
X25156095Y-17760667D01*
X25165619Y-17770190D01*
X25175143Y-17789238D01*
X25175143Y-17846381D01*
X25165619Y-17865429D01*
X25156095Y-17874952D01*
X25137048Y-17884476D01*
X25108476Y-17884476D01*
X25289428Y-17884476D02*
X25270381Y-17874952D01*
X25260857Y-17855905D01*
X25260857Y-17684476D01*
X25441809Y-17874952D02*
X25422762Y-17884476D01*
X25384667Y-17884476D01*
X25365619Y-17874952D01*
X25356095Y-17855905D01*
X25356095Y-17779714D01*
X25365619Y-17760667D01*
X25384667Y-17751143D01*
X25422762Y-17751143D01*
X25441809Y-17760667D01*
X25451333Y-17779714D01*
X25451333Y-17798762D01*
X25356095Y-17817810D01*
X25527524Y-17874952D02*
X25546571Y-17884476D01*
X25584667Y-17884476D01*
X25603714Y-17874952D01*
X25613238Y-17855905D01*
X25613238Y-17846381D01*
X25603714Y-17827333D01*
X25584667Y-17817810D01*
X25556095Y-17817810D01*
X25537048Y-17808286D01*
X25527524Y-17789238D01*
X25527524Y-17779714D01*
X25537048Y-17760667D01*
X25556095Y-17751143D01*
X25584667Y-17751143D01*
X25603714Y-17760667D01*
X25679905Y-17960667D02*
X25689428Y-17951143D01*
X25708476Y-17922571D01*
X25718000Y-17903524D01*
X25727524Y-17874952D01*
X25737048Y-17827333D01*
X25737048Y-17789238D01*
X25727524Y-17741619D01*
X25718000Y-17713048D01*
X25708476Y-17694000D01*
X25689428Y-17665429D01*
X25679905Y-17655905D01*
D21*
X20833000Y-17983000D02*
X20833000Y-18133000D01*
X20758000Y-18058000D02*
X20908000Y-18058000D01*
X20908000Y-18058000D02*
G75*
G03*
X20908000Y-18058000I-75000J0D01*
G01*
D11*
X21270381Y-18148476D02*
X21156095Y-18148476D01*
X21213238Y-18148476D02*
X21213238Y-17948476D01*
X21194190Y-17977048D01*
X21175143Y-17996095D01*
X21156095Y-18005619D01*
X21356095Y-18129429D02*
X21365619Y-18138952D01*
X21356095Y-18148476D01*
X21346571Y-18138952D01*
X21356095Y-18129429D01*
X21356095Y-18148476D01*
X21546571Y-17948476D02*
X21451333Y-17948476D01*
X21441810Y-18043714D01*
X21451333Y-18034190D01*
X21470381Y-18024667D01*
X21518000Y-18024667D01*
X21537048Y-18034190D01*
X21546571Y-18043714D01*
X21556095Y-18062762D01*
X21556095Y-18110381D01*
X21546571Y-18129429D01*
X21537048Y-18138952D01*
X21518000Y-18148476D01*
X21470381Y-18148476D01*
X21451333Y-18138952D01*
X21441810Y-18129429D01*
X21679905Y-17948476D02*
X21698952Y-17948476D01*
X21718000Y-17958000D01*
X21727524Y-17967524D01*
X21737048Y-17986571D01*
X21746571Y-18024667D01*
X21746571Y-18072286D01*
X21737048Y-18110381D01*
X21727524Y-18129429D01*
X21718000Y-18138952D01*
X21698952Y-18148476D01*
X21679905Y-18148476D01*
X21660857Y-18138952D01*
X21651333Y-18129429D01*
X21641810Y-18110381D01*
X21632286Y-18072286D01*
X21632286Y-18024667D01*
X21641810Y-17986571D01*
X21651333Y-17967524D01*
X21660857Y-17958000D01*
X21679905Y-17948476D01*
X21870381Y-17948476D02*
X21889429Y-17948476D01*
X21908476Y-17958000D01*
X21918000Y-17967524D01*
X21927524Y-17986571D01*
X21937048Y-18024667D01*
X21937048Y-18072286D01*
X21927524Y-18110381D01*
X21918000Y-18129429D01*
X21908476Y-18138952D01*
X21889429Y-18148476D01*
X21870381Y-18148476D01*
X21851333Y-18138952D01*
X21841810Y-18129429D01*
X21832286Y-18110381D01*
X21822762Y-18072286D01*
X21822762Y-18024667D01*
X21832286Y-17986571D01*
X21841810Y-17967524D01*
X21851333Y-17958000D01*
X21870381Y-17948476D01*
X22022762Y-18148476D02*
X22022762Y-18015143D01*
X22022762Y-18034190D02*
X22032286Y-18024667D01*
X22051333Y-18015143D01*
X22079905Y-18015143D01*
X22098952Y-18024667D01*
X22108476Y-18043714D01*
X22108476Y-18148476D01*
X22108476Y-18043714D02*
X22118000Y-18024667D01*
X22137048Y-18015143D01*
X22165619Y-18015143D01*
X22184667Y-18024667D01*
X22194190Y-18043714D01*
X22194190Y-18148476D01*
X22289429Y-18148476D02*
X22289429Y-18015143D01*
X22289429Y-18034190D02*
X22298952Y-18024667D01*
X22318000Y-18015143D01*
X22346571Y-18015143D01*
X22365619Y-18024667D01*
X22375143Y-18043714D01*
X22375143Y-18148476D01*
X22375143Y-18043714D02*
X22384667Y-18024667D01*
X22403714Y-18015143D01*
X22432286Y-18015143D01*
X22451333Y-18024667D01*
X22460857Y-18043714D01*
X22460857Y-18148476D01*
X22851333Y-17938952D02*
X22679905Y-18196095D01*
X23108476Y-17948476D02*
X23127524Y-17948476D01*
X23146571Y-17958000D01*
X23156095Y-17967524D01*
X23165619Y-17986571D01*
X23175143Y-18024667D01*
X23175143Y-18072286D01*
X23165619Y-18110381D01*
X23156095Y-18129429D01*
X23146571Y-18138952D01*
X23127524Y-18148476D01*
X23108476Y-18148476D01*
X23089428Y-18138952D01*
X23079905Y-18129429D01*
X23070381Y-18110381D01*
X23060857Y-18072286D01*
X23060857Y-18024667D01*
X23070381Y-17986571D01*
X23079905Y-17967524D01*
X23089428Y-17958000D01*
X23108476Y-17948476D01*
X23260857Y-18129429D02*
X23270381Y-18138952D01*
X23260857Y-18148476D01*
X23251333Y-18138952D01*
X23260857Y-18129429D01*
X23260857Y-18148476D01*
X23394190Y-17948476D02*
X23413238Y-17948476D01*
X23432286Y-17958000D01*
X23441809Y-17967524D01*
X23451333Y-17986571D01*
X23460857Y-18024667D01*
X23460857Y-18072286D01*
X23451333Y-18110381D01*
X23441809Y-18129429D01*
X23432286Y-18138952D01*
X23413238Y-18148476D01*
X23394190Y-18148476D01*
X23375143Y-18138952D01*
X23365619Y-18129429D01*
X23356095Y-18110381D01*
X23346571Y-18072286D01*
X23346571Y-18024667D01*
X23356095Y-17986571D01*
X23365619Y-17967524D01*
X23375143Y-17958000D01*
X23394190Y-17948476D01*
X23641809Y-17948476D02*
X23546571Y-17948476D01*
X23537048Y-18043714D01*
X23546571Y-18034190D01*
X23565619Y-18024667D01*
X23613238Y-18024667D01*
X23632286Y-18034190D01*
X23641809Y-18043714D01*
X23651333Y-18062762D01*
X23651333Y-18110381D01*
X23641809Y-18129429D01*
X23632286Y-18138952D01*
X23613238Y-18148476D01*
X23565619Y-18148476D01*
X23546571Y-18138952D01*
X23537048Y-18129429D01*
X23746571Y-18148476D02*
X23784667Y-18148476D01*
X23803714Y-18138952D01*
X23813238Y-18129429D01*
X23832286Y-18100857D01*
X23841809Y-18062762D01*
X23841809Y-17986571D01*
X23832286Y-17967524D01*
X23822762Y-17958000D01*
X23803714Y-17948476D01*
X23765619Y-17948476D01*
X23746571Y-17958000D01*
X23737048Y-17967524D01*
X23727524Y-17986571D01*
X23727524Y-18034190D01*
X23737048Y-18053238D01*
X23746571Y-18062762D01*
X23765619Y-18072286D01*
X23803714Y-18072286D01*
X23822762Y-18062762D01*
X23832286Y-18053238D01*
X23841809Y-18034190D01*
X24032286Y-18148476D02*
X23918000Y-18148476D01*
X23975143Y-18148476D02*
X23975143Y-17948476D01*
X23956095Y-17977048D01*
X23937048Y-17996095D01*
X23918000Y-18005619D01*
X24108476Y-17948476D02*
X24108476Y-17986571D01*
X24184667Y-17948476D02*
X24184667Y-17986571D01*
X24479905Y-18224667D02*
X24470381Y-18215143D01*
X24451333Y-18186571D01*
X24441809Y-18167524D01*
X24432286Y-18138952D01*
X24422762Y-18091333D01*
X24422762Y-18053238D01*
X24432286Y-18005619D01*
X24441809Y-17977048D01*
X24451333Y-17958000D01*
X24470381Y-17929429D01*
X24479905Y-17919905D01*
X24641809Y-18015143D02*
X24641809Y-18148476D01*
X24594190Y-17938952D02*
X24546571Y-18081810D01*
X24670381Y-18081810D01*
X24898952Y-18148476D02*
X24898952Y-17948476D01*
X24984667Y-18148476D02*
X24984667Y-18043714D01*
X24975143Y-18024667D01*
X24956095Y-18015143D01*
X24927524Y-18015143D01*
X24908476Y-18024667D01*
X24898952Y-18034190D01*
X25108476Y-18148476D02*
X25089428Y-18138952D01*
X25079905Y-18129429D01*
X25070381Y-18110381D01*
X25070381Y-18053238D01*
X25079905Y-18034190D01*
X25089428Y-18024667D01*
X25108476Y-18015143D01*
X25137048Y-18015143D01*
X25156095Y-18024667D01*
X25165619Y-18034190D01*
X25175143Y-18053238D01*
X25175143Y-18110381D01*
X25165619Y-18129429D01*
X25156095Y-18138952D01*
X25137048Y-18148476D01*
X25108476Y-18148476D01*
X25289428Y-18148476D02*
X25270381Y-18138952D01*
X25260857Y-18119905D01*
X25260857Y-17948476D01*
X25441809Y-18138952D02*
X25422762Y-18148476D01*
X25384667Y-18148476D01*
X25365619Y-18138952D01*
X25356095Y-18119905D01*
X25356095Y-18043714D01*
X25365619Y-18024667D01*
X25384667Y-18015143D01*
X25422762Y-18015143D01*
X25441809Y-18024667D01*
X25451333Y-18043714D01*
X25451333Y-18062762D01*
X25356095Y-18081810D01*
X25527524Y-18138952D02*
X25546571Y-18148476D01*
X25584667Y-18148476D01*
X25603714Y-18138952D01*
X25613238Y-18119905D01*
X25613238Y-18110381D01*
X25603714Y-18091333D01*
X25584667Y-18081810D01*
X25556095Y-18081810D01*
X25537048Y-18072286D01*
X25527524Y-18053238D01*
X25527524Y-18043714D01*
X25537048Y-18024667D01*
X25556095Y-18015143D01*
X25584667Y-18015143D01*
X25603714Y-18024667D01*
X25679905Y-18224667D02*
X25689428Y-18215143D01*
X25708476Y-18186571D01*
X25718000Y-18167524D01*
X25727524Y-18138952D01*
X25737048Y-18091333D01*
X25737048Y-18053238D01*
X25727524Y-18005619D01*
X25718000Y-17977048D01*
X25708476Y-17958000D01*
X25689428Y-17929429D01*
X25679905Y-17919905D01*
X20878711Y-18398711D02*
X20878711Y-18257289D01*
X20737289Y-18257289D01*
X20737289Y-18398711D01*
X20878711Y-18398711D01*
X20908000Y-18328000D02*
G75*
G03*
X20908000Y-18328000I-100000J0D01*
G01*
X21146571Y-18218476D02*
X21270381Y-18218476D01*
X21203714Y-18294667D01*
X21232286Y-18294667D01*
X21251333Y-18304190D01*
X21260857Y-18313714D01*
X21270381Y-18332762D01*
X21270381Y-18380381D01*
X21260857Y-18399429D01*
X21251333Y-18408952D01*
X21232286Y-18418476D01*
X21175143Y-18418476D01*
X21156095Y-18408952D01*
X21146571Y-18399429D01*
X21356095Y-18399429D02*
X21365619Y-18408952D01*
X21356095Y-18418476D01*
X21346571Y-18408952D01*
X21356095Y-18399429D01*
X21356095Y-18418476D01*
X21441810Y-18237524D02*
X21451333Y-18228000D01*
X21470381Y-18218476D01*
X21518000Y-18218476D01*
X21537048Y-18228000D01*
X21546571Y-18237524D01*
X21556095Y-18256571D01*
X21556095Y-18275619D01*
X21546571Y-18304190D01*
X21432286Y-18418476D01*
X21556095Y-18418476D01*
X21679905Y-18218476D02*
X21698952Y-18218476D01*
X21718000Y-18228000D01*
X21727524Y-18237524D01*
X21737048Y-18256571D01*
X21746571Y-18294667D01*
X21746571Y-18342286D01*
X21737048Y-18380381D01*
X21727524Y-18399429D01*
X21718000Y-18408952D01*
X21698952Y-18418476D01*
X21679905Y-18418476D01*
X21660857Y-18408952D01*
X21651333Y-18399429D01*
X21641810Y-18380381D01*
X21632286Y-18342286D01*
X21632286Y-18294667D01*
X21641810Y-18256571D01*
X21651333Y-18237524D01*
X21660857Y-18228000D01*
X21679905Y-18218476D01*
X21870381Y-18218476D02*
X21889429Y-18218476D01*
X21908476Y-18228000D01*
X21918000Y-18237524D01*
X21927524Y-18256571D01*
X21937048Y-18294667D01*
X21937048Y-18342286D01*
X21927524Y-18380381D01*
X21918000Y-18399429D01*
X21908476Y-18408952D01*
X21889429Y-18418476D01*
X21870381Y-18418476D01*
X21851333Y-18408952D01*
X21841810Y-18399429D01*
X21832286Y-18380381D01*
X21822762Y-18342286D01*
X21822762Y-18294667D01*
X21832286Y-18256571D01*
X21841810Y-18237524D01*
X21851333Y-18228000D01*
X21870381Y-18218476D01*
X22022762Y-18418476D02*
X22022762Y-18285143D01*
X22022762Y-18304190D02*
X22032286Y-18294667D01*
X22051333Y-18285143D01*
X22079905Y-18285143D01*
X22098952Y-18294667D01*
X22108476Y-18313714D01*
X22108476Y-18418476D01*
X22108476Y-18313714D02*
X22118000Y-18294667D01*
X22137048Y-18285143D01*
X22165619Y-18285143D01*
X22184667Y-18294667D01*
X22194190Y-18313714D01*
X22194190Y-18418476D01*
X22289429Y-18418476D02*
X22289429Y-18285143D01*
X22289429Y-18304190D02*
X22298952Y-18294667D01*
X22318000Y-18285143D01*
X22346571Y-18285143D01*
X22365619Y-18294667D01*
X22375143Y-18313714D01*
X22375143Y-18418476D01*
X22375143Y-18313714D02*
X22384667Y-18294667D01*
X22403714Y-18285143D01*
X22432286Y-18285143D01*
X22451333Y-18294667D01*
X22460857Y-18313714D01*
X22460857Y-18418476D01*
X22851333Y-18208952D02*
X22679905Y-18466095D01*
X23108476Y-18218476D02*
X23127524Y-18218476D01*
X23146571Y-18228000D01*
X23156095Y-18237524D01*
X23165619Y-18256571D01*
X23175143Y-18294667D01*
X23175143Y-18342286D01*
X23165619Y-18380381D01*
X23156095Y-18399429D01*
X23146571Y-18408952D01*
X23127524Y-18418476D01*
X23108476Y-18418476D01*
X23089428Y-18408952D01*
X23079905Y-18399429D01*
X23070381Y-18380381D01*
X23060857Y-18342286D01*
X23060857Y-18294667D01*
X23070381Y-18256571D01*
X23079905Y-18237524D01*
X23089428Y-18228000D01*
X23108476Y-18218476D01*
X23260857Y-18399429D02*
X23270381Y-18408952D01*
X23260857Y-18418476D01*
X23251333Y-18408952D01*
X23260857Y-18399429D01*
X23260857Y-18418476D01*
X23460857Y-18418476D02*
X23346571Y-18418476D01*
X23403714Y-18418476D02*
X23403714Y-18218476D01*
X23384667Y-18247048D01*
X23365619Y-18266095D01*
X23346571Y-18275619D01*
X23537048Y-18237524D02*
X23546571Y-18228000D01*
X23565619Y-18218476D01*
X23613238Y-18218476D01*
X23632286Y-18228000D01*
X23641809Y-18237524D01*
X23651333Y-18256571D01*
X23651333Y-18275619D01*
X23641809Y-18304190D01*
X23527524Y-18418476D01*
X23651333Y-18418476D01*
X23822762Y-18218476D02*
X23784667Y-18218476D01*
X23765619Y-18228000D01*
X23756095Y-18237524D01*
X23737048Y-18266095D01*
X23727524Y-18304190D01*
X23727524Y-18380381D01*
X23737048Y-18399429D01*
X23746571Y-18408952D01*
X23765619Y-18418476D01*
X23803714Y-18418476D01*
X23822762Y-18408952D01*
X23832286Y-18399429D01*
X23841809Y-18380381D01*
X23841809Y-18332762D01*
X23832286Y-18313714D01*
X23822762Y-18304190D01*
X23803714Y-18294667D01*
X23765619Y-18294667D01*
X23746571Y-18304190D01*
X23737048Y-18313714D01*
X23727524Y-18332762D01*
X23965619Y-18218476D02*
X23984667Y-18218476D01*
X24003714Y-18228000D01*
X24013238Y-18237524D01*
X24022762Y-18256571D01*
X24032286Y-18294667D01*
X24032286Y-18342286D01*
X24022762Y-18380381D01*
X24013238Y-18399429D01*
X24003714Y-18408952D01*
X23984667Y-18418476D01*
X23965619Y-18418476D01*
X23946571Y-18408952D01*
X23937048Y-18399429D01*
X23927524Y-18380381D01*
X23918000Y-18342286D01*
X23918000Y-18294667D01*
X23927524Y-18256571D01*
X23937048Y-18237524D01*
X23946571Y-18228000D01*
X23965619Y-18218476D01*
X24108476Y-18218476D02*
X24108476Y-18256571D01*
X24184667Y-18218476D02*
X24184667Y-18256571D01*
X24479905Y-18494667D02*
X24470381Y-18485143D01*
X24451333Y-18456571D01*
X24441809Y-18437524D01*
X24432286Y-18408952D01*
X24422762Y-18361333D01*
X24422762Y-18323238D01*
X24432286Y-18275619D01*
X24441809Y-18247048D01*
X24451333Y-18228000D01*
X24470381Y-18199429D01*
X24479905Y-18189905D01*
X24660857Y-18418476D02*
X24546571Y-18418476D01*
X24603714Y-18418476D02*
X24603714Y-18218476D01*
X24584667Y-18247048D01*
X24565619Y-18266095D01*
X24546571Y-18275619D01*
X24898952Y-18418476D02*
X24898952Y-18218476D01*
X24984667Y-18418476D02*
X24984667Y-18313714D01*
X24975143Y-18294667D01*
X24956095Y-18285143D01*
X24927524Y-18285143D01*
X24908476Y-18294667D01*
X24898952Y-18304190D01*
X25108476Y-18418476D02*
X25089428Y-18408952D01*
X25079905Y-18399429D01*
X25070381Y-18380381D01*
X25070381Y-18323238D01*
X25079905Y-18304190D01*
X25089428Y-18294667D01*
X25108476Y-18285143D01*
X25137048Y-18285143D01*
X25156095Y-18294667D01*
X25165619Y-18304190D01*
X25175143Y-18323238D01*
X25175143Y-18380381D01*
X25165619Y-18399429D01*
X25156095Y-18408952D01*
X25137048Y-18418476D01*
X25108476Y-18418476D01*
X25289428Y-18418476D02*
X25270381Y-18408952D01*
X25260857Y-18389905D01*
X25260857Y-18218476D01*
X25441809Y-18408952D02*
X25422762Y-18418476D01*
X25384667Y-18418476D01*
X25365619Y-18408952D01*
X25356095Y-18389905D01*
X25356095Y-18313714D01*
X25365619Y-18294667D01*
X25384667Y-18285143D01*
X25422762Y-18285143D01*
X25441809Y-18294667D01*
X25451333Y-18313714D01*
X25451333Y-18332762D01*
X25356095Y-18351810D01*
X25518000Y-18494667D02*
X25527524Y-18485143D01*
X25546571Y-18456571D01*
X25556095Y-18437524D01*
X25565619Y-18408952D01*
X25575143Y-18361333D01*
X25575143Y-18323238D01*
X25565619Y-18275619D01*
X25556095Y-18247048D01*
X25546571Y-18228000D01*
X25527524Y-18199429D01*
X25518000Y-18189905D01*
M02*
