%TF.GenerationSoftware,KiCad,Pcbnew,(6.0.4)*%
%TF.CreationDate,2023-10-22T18:39:17+02:00*%
%TF.ProjectId,swmeter,73776d65-7465-4722-9e6b-696361645f70,0.6*%
%TF.SameCoordinates,Original*%
%TF.FileFunction,Component,L1,Top*%
%TF.FilePolarity,Positive*%
%FSLAX46Y46*%
G04 Gerber Fmt 4.6, Leading zero omitted, Abs format (unit mm)*
G04 Created by KiCad (PCBNEW (6.0.4)) date 2023-10-22 18:39:17*
%MOMM*%
%LPD*%
G01*
G04 APERTURE LIST*
%TA.AperFunction,ComponentMain*%
%ADD10C,0.300000*%
%TD*%
%TA.AperFunction,ComponentOutline,Courtyard*%
%ADD11C,0.100000*%
%TD*%
%TA.AperFunction,ComponentPin*%
%ADD12P,0.360000X4X0.000000*%
%TD*%
%TA.AperFunction,ComponentPin*%
%ADD13C,0.000000*%
%TD*%
%TA.AperFunction,Profile*%
%ADD14C,0.100000*%
%TD*%
G04 APERTURE END LIST*
D10*
%TO.C,"BAR1"*%
%TO.CFtp,"HDSP-4836"*%
%TO.CVal,"2510SR-1"*%
%TO.CLbN,"Display"*%
%TO.CMnt,TH*%
%TO.CRot,90*%
X236559496Y-145576493D03*
D11*
X260939495Y-147096492D02*
X235039497Y-147096492D01*
X235039497Y-136436494D01*
X260939495Y-136436494D01*
X260939495Y-147096492D01*
D12*
%TO.P,"BAR1","1","A"*%
X236559496Y-145576493D03*
D13*
%TO.P,"BAR1","2","A"*%
X239099496Y-145576493D03*
%TO.P,"BAR1","3","A"*%
X241639496Y-145576493D03*
%TO.P,"BAR1","4","A"*%
X244179496Y-145576493D03*
%TO.P,"BAR1","5","A"*%
X246719496Y-145576493D03*
%TO.P,"BAR1","6","A"*%
X249259496Y-145576493D03*
%TO.P,"BAR1","7","A"*%
X251799496Y-145576493D03*
%TO.P,"BAR1","8","A"*%
X254339496Y-145576493D03*
%TO.P,"BAR1","9","A"*%
X256879496Y-145576493D03*
%TO.P,"BAR1","10","A"*%
X259419496Y-145576493D03*
%TO.P,"BAR1","11","K"*%
X259419496Y-137956493D03*
%TO.P,"BAR1","12","K"*%
X256879496Y-137956493D03*
%TO.P,"BAR1","13","K"*%
X254339496Y-137956493D03*
%TO.P,"BAR1","14","K"*%
X251799496Y-137956493D03*
%TO.P,"BAR1","15","K"*%
X249259496Y-137956493D03*
%TO.P,"BAR1","16","K"*%
X246719496Y-137956493D03*
%TO.P,"BAR1","17","K"*%
X244179496Y-137956493D03*
%TO.P,"BAR1","18","K"*%
X241639496Y-137956493D03*
%TO.P,"BAR1","19","K"*%
X239099496Y-137956493D03*
%TO.P,"BAR1","20","K"*%
X236559496Y-137956493D03*
%TD*%
D10*
%TO.C,"SW2"*%
%TO.CFtp,"SW_E-Switch_EG1224_SPDT_Angled"*%
%TO.CVal,"SW_SPDT"*%
%TO.CLbN,"Button_Switch_THT"*%
%TO.CMnt,TH*%
%TO.CRot,180*%
X247932500Y-91280000D03*
D11*
X248682499Y-85780000D02*
X248682500Y-85780001D01*
X251182499Y-85780001D01*
X251182499Y-94279999D01*
X236682501Y-94279999D01*
X236682501Y-85780001D01*
X239182500Y-85780001D01*
X239182501Y-85780000D01*
X239182501Y-77530001D01*
X248682499Y-77530001D01*
X248682499Y-85780000D01*
D12*
%TO.P,"SW2","1","A"*%
X247932500Y-91280000D03*
D13*
%TO.P,"SW2",*%
X249932500Y-87030000D03*
X237932500Y-87030000D03*
X249932500Y-93030000D03*
X237932500Y-93030000D03*
%TO.P,"SW2","2","B"*%
X243932500Y-91280000D03*
%TO.P,"SW2","3","C"*%
X239932500Y-91280000D03*
%TD*%
D10*
%TO.C,"C1"*%
%TO.CFtp,"CP_Radial_D4.0mm_P2.00mm"*%
%TO.CVal,"22 µF"*%
%TO.CLbN,"Capacitor_THT"*%
%TO.CMnt,TH*%
%TO.CRot,180*%
X231340000Y-136930000D03*
D11*
X228090001Y-136930000D02*
X228166668Y-136347657D01*
X228391444Y-135805000D01*
X228749011Y-135339010D01*
X229215001Y-134981443D01*
X229757657Y-134756667D01*
X229757657Y-134756668D01*
X230340000Y-134680001D01*
X230922343Y-134756668D01*
X231465000Y-134981444D01*
X231930990Y-135339011D01*
X232288557Y-135805001D01*
X232513333Y-136347657D01*
X232513332Y-136347657D01*
X232589999Y-136930000D01*
X232513332Y-137512343D01*
X232288556Y-138055000D01*
X231930989Y-138520990D01*
X231464999Y-138878557D01*
X230922343Y-139103333D01*
X230922343Y-139103332D01*
X230340000Y-139179999D01*
X229757657Y-139103332D01*
X229215000Y-138878556D01*
X228749010Y-138520989D01*
X228391443Y-138054999D01*
X228166667Y-137512343D01*
X228166668Y-137512343D01*
X228090001Y-136930000D01*
D12*
%TO.P,"C1","1"*%
X231340000Y-136930000D03*
D13*
%TO.P,"C1","2"*%
X229340000Y-136930000D03*
%TD*%
D10*
%TO.C,"J1"*%
%TO.CFtp,"Jack_3.5mm_Lumberg_1503_07_Horizontal"*%
%TO.CVal,"AudioPlug"*%
%TO.CLbN,"Connector_Audio"*%
%TO.CMnt,TH*%
%TO.CRot,0*%
X252882500Y-91457500D03*
D11*
X259882499Y-100607499D02*
X251382501Y-100607499D01*
X251382501Y-84957501D01*
X259882499Y-84957501D01*
X259882499Y-100607499D01*
D13*
%TO.P,"J1",*%
X253132500Y-94957500D03*
X258132500Y-94957500D03*
%TO.P,"J1","R"*%
X257932500Y-98957500D03*
%TO.P,"J1","S"*%
X253332500Y-98957500D03*
%TO.P,"J1","T"*%
X258382500Y-91457500D03*
X252882500Y-91457500D03*
%TD*%
D10*
%TO.C,"RV1"*%
%TO.CFtp,"Potentiometer_Bourns_3266Y_Vertical"*%
%TO.CVal,"4\u002C7kΩ"*%
%TO.CLbN,"Potentiometer_THT"*%
%TO.CMnt,TH*%
%TO.CRot,180*%
X241345000Y-111225000D03*
D11*
X247494999Y-113674999D02*
X240245001Y-113674999D01*
X240245001Y-108625001D01*
X247494999Y-108625001D01*
X247494999Y-113674999D01*
D12*
%TO.P,"RV1","1","1"*%
X241345000Y-111225000D03*
D13*
%TO.P,"RV1","2","2"*%
X243885000Y-111225000D03*
%TO.P,"RV1","3","3"*%
X246425000Y-111225000D03*
%TD*%
D10*
%TO.C,"SW1"*%
%TO.CFtp,"SW_E-Switch_EG1224_SPDT_Angled"*%
%TO.CVal,"SW_SPDT"*%
%TO.CLbN,"Button_Switch_THT"*%
%TO.CMnt,TH*%
%TO.CRot,0*%
X222080500Y-143653500D03*
D11*
X233330499Y-149153499D02*
X230830500Y-149153499D01*
X230830499Y-149153500D01*
X230830499Y-157403499D01*
X221330501Y-157403499D01*
X221330501Y-149153500D01*
X221330500Y-149153499D01*
X218830501Y-149153499D01*
X218830501Y-140653501D01*
X233330499Y-140653501D01*
X233330499Y-149153499D01*
D12*
%TO.P,"SW1","1","A"*%
X222080500Y-143653500D03*
D13*
%TO.P,"SW1",*%
X232080500Y-147903500D03*
X220080500Y-147903500D03*
X220080500Y-141903500D03*
X232080500Y-141903500D03*
%TO.P,"SW1","2","B"*%
X226080500Y-143653500D03*
%TO.P,"SW1","3","C"*%
X230080500Y-143653500D03*
%TD*%
D10*
%TO.C,"J3"*%
%TO.CFtp,"PinHeader_1x03_P1.27mm_Vertical"*%
%TO.CVal,"Conn_01x03_Female"*%
%TO.CLbN,"Connector_PinHeader_1.27mm"*%
%TO.CMnt,TH*%
%TO.CRot,-90*%
X249140000Y-99800000D03*
D11*
X250289999Y-101349999D02*
X245440001Y-101349999D01*
X245440001Y-98250001D01*
X250289999Y-98250001D01*
X250289999Y-101349999D01*
D12*
%TO.P,"J3","1","Pin_1"*%
X249140000Y-99800000D03*
D13*
%TO.P,"J3","2","Pin_2"*%
X247870000Y-99800000D03*
%TO.P,"J3","3","Pin_3"*%
X246600000Y-99800000D03*
%TD*%
D10*
%TO.C,"SW3"*%
%TO.CFtp,"SW_DIP_SPSTx03_Slide_9.78x9.8mm_W7.62mm_P2.54mm"*%
%TO.CVal,"SW_DIP_x03"*%
%TO.CLbN,"Button_Switch_THT"*%
%TO.CMnt,TH*%
%TO.CRot,-90*%
X236135000Y-104652500D03*
D11*
X238834999Y-113602499D02*
X228385001Y-113602499D01*
X228385001Y-103302501D01*
X238834999Y-103302501D01*
X238834999Y-113602499D01*
D12*
%TO.P,"SW3","1"*%
X236135000Y-104652500D03*
D13*
%TO.P,"SW3","2"*%
X233595000Y-104652500D03*
%TO.P,"SW3","3"*%
X231055000Y-104652500D03*
%TO.P,"SW3","4"*%
X231055000Y-112272500D03*
%TO.P,"SW3","5"*%
X233595000Y-112272500D03*
%TO.P,"SW3","6"*%
X236135000Y-112272500D03*
%TD*%
D10*
%TO.C,"D0"*%
%TO.CFtp,"D_DO-35_SOD27_P7.62mm_Horizontal"*%
%TO.CVal,"1N5711"*%
%TO.CLbN,"Diode_THT"*%
%TO.CMnt,TH*%
%TO.CRot,180*%
X248120000Y-104400000D03*
D11*
X249169999Y-105649999D02*
X239450001Y-105649999D01*
X239450001Y-103150001D01*
X249169999Y-103150001D01*
X249169999Y-105649999D01*
D12*
%TO.P,"D0","1","K"*%
X248120000Y-104400000D03*
D13*
%TO.P,"D0","2","A"*%
X240500000Y-104400000D03*
%TD*%
D10*
%TO.C,"J4"*%
%TO.CFtp,"PinHeader_1x03_P1.27mm_Vertical"*%
%TO.CVal,"Conn_01x03_Female"*%
%TO.CLbN,"Connector_PinHeader_1.27mm"*%
%TO.CMnt,TH*%
%TO.CRot,-90*%
X256615000Y-105980000D03*
D11*
X257764999Y-107529999D02*
X252915001Y-107529999D01*
X252915001Y-104430001D01*
X257764999Y-104430001D01*
X257764999Y-107529999D01*
D12*
%TO.P,"J4","1","Pin_1"*%
X256615000Y-105980000D03*
D13*
%TO.P,"J4","2","Pin_2"*%
X255345000Y-105980000D03*
%TO.P,"J4","3","Pin_3"*%
X254075000Y-105980000D03*
%TD*%
D10*
%TO.C,"R1"*%
%TO.CFtp,"R_Axial_DIN0207_L6.3mm_D2.5mm_P10.16mm_Horizontal"*%
%TO.CVal,"1.2kΩ"*%
%TO.CLbN,"Resistor_THT"*%
%TO.CMnt,TH*%
%TO.CRot,180*%
X259312000Y-119522000D03*
D11*
X260361999Y-121021999D02*
X248102001Y-121021999D01*
X248102001Y-118022001D01*
X260361999Y-118022001D01*
X260361999Y-121021999D01*
D12*
%TO.P,"R1","1"*%
X259312000Y-119522000D03*
D13*
%TO.P,"R1","2"*%
X249152000Y-119522000D03*
%TD*%
D10*
%TO.C,"U1"*%
%TO.CFtp,"DIP-18_W7.62mm_Socket"*%
%TO.CVal,"LM3914N"*%
%TO.CLbN,"Package_DIP"*%
%TO.CMnt,TH*%
%TO.CRot,-90*%
X257016000Y-124856000D03*
D11*
X258615999Y-134005999D02*
X235116001Y-134005999D01*
X235116001Y-123306001D01*
X258615999Y-123306001D01*
X258615999Y-134005999D01*
D12*
%TO.P,"U1","1","LED1"*%
X257016000Y-124856000D03*
D13*
%TO.P,"U1","2","V-"*%
X254476000Y-124856000D03*
%TO.P,"U1","3","V+"*%
X251936000Y-124856000D03*
%TO.P,"U1","4","RLO"*%
X249396000Y-124856000D03*
%TO.P,"U1","5","SIG"*%
X246856000Y-124856000D03*
%TO.P,"U1","6","RHI"*%
X244316000Y-124856000D03*
%TO.P,"U1","7","RFOUT"*%
X241776000Y-124856000D03*
%TO.P,"U1","8","REFADJ"*%
X239236000Y-124856000D03*
%TO.P,"U1","9","MODE"*%
X236696000Y-124856000D03*
%TO.P,"U1","10","LED2"*%
X236696000Y-132476000D03*
%TO.P,"U1","11","LED3"*%
X239236000Y-132476000D03*
%TO.P,"U1","12","LED4"*%
X241776000Y-132476000D03*
%TO.P,"U1","13","LED5"*%
X244316000Y-132476000D03*
%TO.P,"U1","14","LED6"*%
X246856000Y-132476000D03*
%TO.P,"U1","15","LED7"*%
X249396000Y-132476000D03*
%TO.P,"U1","16","LED8"*%
X251936000Y-132476000D03*
%TO.P,"U1","17","LED9"*%
X254476000Y-132476000D03*
%TO.P,"U1","18","LED10"*%
X257016000Y-132476000D03*
%TD*%
D10*
%TO.C,"J2"*%
%TO.CFtp,"BNC_TEConnectivity_1478035_Horizontal"*%
%TO.CVal,"Conn_Coaxial"*%
%TO.CLbN,"Connector_Coaxial"*%
%TO.CMnt,TH*%
%TO.CRot,0*%
X228190000Y-92740000D03*
D11*
X235719999Y-100269999D02*
X220660001Y-100269999D01*
X220660001Y-75340001D01*
X235719999Y-75340001D01*
X235719999Y-100269999D01*
D12*
%TO.P,"J2","1","In"*%
X228190000Y-92740000D03*
D13*
%TO.P,"J2","2","Ext"*%
X233215000Y-97765000D03*
X233215000Y-87715000D03*
X223165000Y-97765000D03*
X223165000Y-87715000D03*
%TD*%
D10*
%TO.C,"J0"*%
%TO.CFtp,"PinHeader_1x02_P2.54mm_Vertical"*%
%TO.CVal,"Conn_01x02_Female"*%
%TO.CLbN,"Connector_PinHeader_2.54mm"*%
%TO.CMnt,TH*%
%TO.CRot,90*%
X222395000Y-138320000D03*
D11*
X226744999Y-140119999D02*
X220595001Y-140119999D01*
X220595001Y-136520001D01*
X226744999Y-136520001D01*
X226744999Y-140119999D01*
D12*
%TO.P,"J0","1","Pin_1"*%
X222395000Y-138320000D03*
D13*
%TO.P,"J0","2","Pin_2"*%
X224935000Y-138320000D03*
%TD*%
D10*
%TO.C,"RV2"*%
%TO.CFtp,"Potentiometer_Bourns_3266Y_Vertical"*%
%TO.CVal,"4\u002C7kΩ"*%
%TO.CLbN,"Potentiometer_THT"*%
%TO.CMnt,TH*%
%TO.CRot,180*%
X252225000Y-111285000D03*
D11*
X258374999Y-113734999D02*
X251125001Y-113734999D01*
X251125001Y-108685001D01*
X258374999Y-108685001D01*
X258374999Y-113734999D01*
D12*
%TO.P,"RV2","1","1"*%
X252225000Y-111285000D03*
D13*
%TO.P,"RV2","2","2"*%
X254765000Y-111285000D03*
%TO.P,"RV2","3","3"*%
X257305000Y-111285000D03*
%TD*%
D14*
X234258000Y-116706000D02*
G75*
G03*
X233058000Y-116706000I-600000J0D01*
G01*
X262110000Y-84390000D02*
X209130000Y-84390000D01*
X209130000Y-84390000D02*
X209130000Y-150370000D01*
X209130000Y-150370000D02*
X262110000Y-150370000D01*
X262110000Y-150370000D02*
X262110000Y-84390000D01*
X233058000Y-118506000D02*
G75*
G03*
X234258000Y-118506000I600000J0D01*
G01*
X233058000Y-116706000D02*
X233058000Y-118506000D01*
X234258000Y-116706000D02*
X234258000Y-118506000D01*
M02*
