%FSLAX45Y45*%
G04 Gerber Fmt 4.5, Leading zero omitted, Abs format (unit mm)*
G04 Created by KiCad (PCBNEW (6.0.4)) date 2022-12-16 21:59:52*
%MOMM*%
%LPD*%
G01*
G04 APERTURE LIST*
%TA.AperFunction,Profile*%
%ADD10C,0.100000*%
%TD*%
%ADD11C,0.200000*%
%ADD12C,0.110000*%
G04 APERTURE END LIST*
D10*
X3006000Y3461000D02*
G75*
G03*
X2886000Y3461000I-60000J0D01*
G01*
X5997000Y6602000D02*
X0Y6602000D01*
X0Y6602000D02*
X0Y0D01*
X0Y0D02*
X5997000Y0D01*
X5997000Y0D02*
X5997000Y6602000D01*
X2886000Y3281000D02*
G75*
G03*
X3006000Y3281000I60000J0D01*
G01*
X261000Y3463000D02*
X261000Y3283000D01*
X2886000Y3461000D02*
X2886000Y3281000D01*
X261000Y3463000D02*
G75*
G03*
X141000Y3463000I-60000J-9760D01*
G01*
X3006000Y3461000D02*
X3006000Y3281000D01*
X141000Y3283000D02*
G75*
G03*
X261000Y3283000I60000J0D01*
G01*
X141000Y3463000D02*
X141000Y3283000D01*
D11*
D12*
X5044250Y5600250D02*
X5154250Y5490250D01*
X5154250Y5600250D02*
X5044250Y5490250D01*
X5544250Y5600250D02*
X5654250Y5490250D01*
X5654250Y5600250D02*
X5544250Y5490250D01*
D11*
X252619Y-315476D02*
X252619Y-115476D01*
X300238Y-115476D01*
X328810Y-125000D01*
X347857Y-144048D01*
X357381Y-163095D01*
X366905Y-201190D01*
X366905Y-229762D01*
X357381Y-267857D01*
X347857Y-286905D01*
X328810Y-305952D01*
X300238Y-315476D01*
X252619Y-315476D01*
X452619Y-315476D02*
X452619Y-182143D01*
X452619Y-220238D02*
X462143Y-201190D01*
X471667Y-191667D01*
X490714Y-182143D01*
X509762Y-182143D01*
X576429Y-315476D02*
X576429Y-182143D01*
X576429Y-115476D02*
X566905Y-125000D01*
X576429Y-134524D01*
X585952Y-125000D01*
X576429Y-115476D01*
X576429Y-134524D01*
X700238Y-315476D02*
X681190Y-305952D01*
X671667Y-286905D01*
X671667Y-115476D01*
X805000Y-315476D02*
X785952Y-305952D01*
X776428Y-286905D01*
X776428Y-115476D01*
X1033571Y-315476D02*
X1033571Y-115476D01*
X1100238Y-258333D01*
X1166905Y-115476D01*
X1166905Y-315476D01*
X1347857Y-315476D02*
X1347857Y-210714D01*
X1338333Y-191667D01*
X1319286Y-182143D01*
X1281190Y-182143D01*
X1262143Y-191667D01*
X1347857Y-305952D02*
X1328810Y-315476D01*
X1281190Y-315476D01*
X1262143Y-305952D01*
X1252619Y-286905D01*
X1252619Y-267857D01*
X1262143Y-248809D01*
X1281190Y-239286D01*
X1328810Y-239286D01*
X1347857Y-229762D01*
X1443095Y-182143D02*
X1443095Y-382143D01*
X1443095Y-191667D02*
X1462143Y-182143D01*
X1500238Y-182143D01*
X1519286Y-191667D01*
X1528809Y-201190D01*
X1538333Y-220238D01*
X1538333Y-277381D01*
X1528809Y-296429D01*
X1519286Y-305952D01*
X1500238Y-315476D01*
X1462143Y-315476D01*
X1443095Y-305952D01*
X1624048Y-296429D02*
X1633571Y-305952D01*
X1624048Y-315476D01*
X1614524Y-305952D01*
X1624048Y-296429D01*
X1624048Y-315476D01*
X1624048Y-191667D02*
X1633571Y-201190D01*
X1624048Y-210714D01*
X1614524Y-201190D01*
X1624048Y-191667D01*
X1624048Y-210714D01*
D12*
X-115000Y-590000D02*
X-5000Y-700000D01*
X-5000Y-590000D02*
X-115000Y-700000D01*
D11*
X357381Y-735476D02*
X243095Y-735476D01*
X300238Y-735476D02*
X300238Y-535476D01*
X281190Y-564048D01*
X262143Y-583095D01*
X243095Y-592619D01*
X443095Y-716428D02*
X452619Y-725952D01*
X443095Y-735476D01*
X433571Y-725952D01*
X443095Y-716428D01*
X443095Y-735476D01*
X643095Y-735476D02*
X528810Y-735476D01*
X585952Y-735476D02*
X585952Y-535476D01*
X566905Y-564048D01*
X547857Y-583095D01*
X528810Y-592619D01*
X766905Y-535476D02*
X785952Y-535476D01*
X805000Y-545000D01*
X814524Y-554524D01*
X824048Y-573571D01*
X833571Y-611667D01*
X833571Y-659286D01*
X824048Y-697381D01*
X814524Y-716428D01*
X805000Y-725952D01*
X785952Y-735476D01*
X766905Y-735476D01*
X747857Y-725952D01*
X738333Y-716428D01*
X728809Y-697381D01*
X719286Y-659286D01*
X719286Y-611667D01*
X728809Y-573571D01*
X738333Y-554524D01*
X747857Y-545000D01*
X766905Y-535476D01*
X957381Y-535476D02*
X976428Y-535476D01*
X995476Y-545000D01*
X1005000Y-554524D01*
X1014524Y-573571D01*
X1024048Y-611667D01*
X1024048Y-659286D01*
X1014524Y-697381D01*
X1005000Y-716428D01*
X995476Y-725952D01*
X976428Y-735476D01*
X957381Y-735476D01*
X938333Y-725952D01*
X928809Y-716428D01*
X919286Y-697381D01*
X909762Y-659286D01*
X909762Y-611667D01*
X919286Y-573571D01*
X928809Y-554524D01*
X938333Y-545000D01*
X957381Y-535476D01*
X1109762Y-735476D02*
X1109762Y-602143D01*
X1109762Y-621190D02*
X1119286Y-611667D01*
X1138333Y-602143D01*
X1166905Y-602143D01*
X1185952Y-611667D01*
X1195476Y-630714D01*
X1195476Y-735476D01*
X1195476Y-630714D02*
X1205000Y-611667D01*
X1224048Y-602143D01*
X1252619Y-602143D01*
X1271667Y-611667D01*
X1281190Y-630714D01*
X1281190Y-735476D01*
X1376429Y-735476D02*
X1376429Y-602143D01*
X1376429Y-621190D02*
X1385952Y-611667D01*
X1405000Y-602143D01*
X1433571Y-602143D01*
X1452619Y-611667D01*
X1462143Y-630714D01*
X1462143Y-735476D01*
X1462143Y-630714D02*
X1471667Y-611667D01*
X1490714Y-602143D01*
X1519286Y-602143D01*
X1538333Y-611667D01*
X1547857Y-630714D01*
X1547857Y-735476D01*
X1938333Y-525952D02*
X1766905Y-783095D01*
X2195476Y-535476D02*
X2214524Y-535476D01*
X2233571Y-545000D01*
X2243095Y-554524D01*
X2252619Y-573571D01*
X2262143Y-611667D01*
X2262143Y-659286D01*
X2252619Y-697381D01*
X2243095Y-716428D01*
X2233571Y-725952D01*
X2214524Y-735476D01*
X2195476Y-735476D01*
X2176429Y-725952D01*
X2166905Y-716428D01*
X2157381Y-697381D01*
X2147857Y-659286D01*
X2147857Y-611667D01*
X2157381Y-573571D01*
X2166905Y-554524D01*
X2176429Y-545000D01*
X2195476Y-535476D01*
X2347857Y-716428D02*
X2357381Y-725952D01*
X2347857Y-735476D01*
X2338333Y-725952D01*
X2347857Y-716428D01*
X2347857Y-735476D01*
X2481190Y-535476D02*
X2500238Y-535476D01*
X2519286Y-545000D01*
X2528810Y-554524D01*
X2538333Y-573571D01*
X2547857Y-611667D01*
X2547857Y-659286D01*
X2538333Y-697381D01*
X2528810Y-716428D01*
X2519286Y-725952D01*
X2500238Y-735476D01*
X2481190Y-735476D01*
X2462143Y-725952D01*
X2452619Y-716428D01*
X2443095Y-697381D01*
X2433571Y-659286D01*
X2433571Y-611667D01*
X2443095Y-573571D01*
X2452619Y-554524D01*
X2462143Y-545000D01*
X2481190Y-535476D01*
X2719286Y-602143D02*
X2719286Y-735476D01*
X2671667Y-525952D02*
X2624048Y-668810D01*
X2747857Y-668810D01*
X2805000Y-535476D02*
X2928809Y-535476D01*
X2862143Y-611667D01*
X2890714Y-611667D01*
X2909762Y-621190D01*
X2919286Y-630714D01*
X2928809Y-649762D01*
X2928809Y-697381D01*
X2919286Y-716428D01*
X2909762Y-725952D01*
X2890714Y-735476D01*
X2833571Y-735476D01*
X2814524Y-725952D01*
X2805000Y-716428D01*
X2995476Y-535476D02*
X3119286Y-535476D01*
X3052619Y-611667D01*
X3081190Y-611667D01*
X3100238Y-621190D01*
X3109762Y-630714D01*
X3119286Y-649762D01*
X3119286Y-697381D01*
X3109762Y-716428D01*
X3100238Y-725952D01*
X3081190Y-735476D01*
X3024048Y-735476D01*
X3005000Y-725952D01*
X2995476Y-716428D01*
X3195476Y-535476D02*
X3195476Y-573571D01*
X3271667Y-535476D02*
X3271667Y-573571D01*
X3566905Y-811667D02*
X3557381Y-802143D01*
X3538333Y-773571D01*
X3528809Y-754524D01*
X3519286Y-725952D01*
X3509762Y-678333D01*
X3509762Y-640238D01*
X3519286Y-592619D01*
X3528809Y-564048D01*
X3538333Y-545000D01*
X3557381Y-516428D01*
X3566905Y-506905D01*
X3633571Y-554524D02*
X3643095Y-545000D01*
X3662143Y-535476D01*
X3709762Y-535476D01*
X3728809Y-545000D01*
X3738333Y-554524D01*
X3747857Y-573571D01*
X3747857Y-592619D01*
X3738333Y-621190D01*
X3624048Y-735476D01*
X3747857Y-735476D01*
X3985952Y-735476D02*
X3985952Y-535476D01*
X4071667Y-735476D02*
X4071667Y-630714D01*
X4062143Y-611667D01*
X4043095Y-602143D01*
X4014524Y-602143D01*
X3995476Y-611667D01*
X3985952Y-621190D01*
X4195476Y-735476D02*
X4176428Y-725952D01*
X4166905Y-716428D01*
X4157381Y-697381D01*
X4157381Y-640238D01*
X4166905Y-621190D01*
X4176428Y-611667D01*
X4195476Y-602143D01*
X4224048Y-602143D01*
X4243095Y-611667D01*
X4252619Y-621190D01*
X4262143Y-640238D01*
X4262143Y-697381D01*
X4252619Y-716428D01*
X4243095Y-725952D01*
X4224048Y-735476D01*
X4195476Y-735476D01*
X4376429Y-735476D02*
X4357381Y-725952D01*
X4347857Y-706905D01*
X4347857Y-535476D01*
X4528810Y-725952D02*
X4509762Y-735476D01*
X4471667Y-735476D01*
X4452619Y-725952D01*
X4443095Y-706905D01*
X4443095Y-630714D01*
X4452619Y-611667D01*
X4471667Y-602143D01*
X4509762Y-602143D01*
X4528810Y-611667D01*
X4538333Y-630714D01*
X4538333Y-649762D01*
X4443095Y-668810D01*
X4614524Y-725952D02*
X4633571Y-735476D01*
X4671667Y-735476D01*
X4690714Y-725952D01*
X4700238Y-706905D01*
X4700238Y-697381D01*
X4690714Y-678333D01*
X4671667Y-668810D01*
X4643095Y-668810D01*
X4624048Y-659286D01*
X4614524Y-640238D01*
X4614524Y-630714D01*
X4624048Y-611667D01*
X4643095Y-602143D01*
X4671667Y-602143D01*
X4690714Y-611667D01*
X4766905Y-811667D02*
X4776429Y-802143D01*
X4795476Y-773571D01*
X4805000Y-754524D01*
X4814524Y-725952D01*
X4824048Y-678333D01*
X4824048Y-640238D01*
X4814524Y-592619D01*
X4805000Y-564048D01*
X4795476Y-545000D01*
X4776429Y-516428D01*
X4766905Y-506905D01*
X5128810Y-811667D02*
X5119286Y-802143D01*
X5100238Y-773571D01*
X5090714Y-754524D01*
X5081190Y-725952D01*
X5071667Y-678333D01*
X5071667Y-640238D01*
X5081190Y-592619D01*
X5090714Y-564048D01*
X5100238Y-545000D01*
X5119286Y-516428D01*
X5128810Y-506905D01*
X5205000Y-602143D02*
X5205000Y-735476D01*
X5205000Y-621190D02*
X5214524Y-611667D01*
X5233571Y-602143D01*
X5262143Y-602143D01*
X5281190Y-611667D01*
X5290714Y-630714D01*
X5290714Y-735476D01*
X5414524Y-735476D02*
X5395476Y-725952D01*
X5385952Y-716428D01*
X5376429Y-697381D01*
X5376429Y-640238D01*
X5385952Y-621190D01*
X5395476Y-611667D01*
X5414524Y-602143D01*
X5443095Y-602143D01*
X5462143Y-611667D01*
X5471667Y-621190D01*
X5481190Y-640238D01*
X5481190Y-697381D01*
X5471667Y-716428D01*
X5462143Y-725952D01*
X5443095Y-735476D01*
X5414524Y-735476D01*
X5538333Y-602143D02*
X5614524Y-602143D01*
X5566905Y-535476D02*
X5566905Y-706905D01*
X5576429Y-725952D01*
X5595476Y-735476D01*
X5614524Y-735476D01*
X5833571Y-602143D02*
X5833571Y-802143D01*
X5833571Y-611667D02*
X5852619Y-602143D01*
X5890714Y-602143D01*
X5909762Y-611667D01*
X5919286Y-621190D01*
X5928809Y-640238D01*
X5928809Y-697381D01*
X5919286Y-716428D01*
X5909762Y-725952D01*
X5890714Y-735476D01*
X5852619Y-735476D01*
X5833571Y-725952D01*
X6043095Y-735476D02*
X6024048Y-725952D01*
X6014524Y-706905D01*
X6014524Y-535476D01*
X6205000Y-735476D02*
X6205000Y-630714D01*
X6195476Y-611667D01*
X6176428Y-602143D01*
X6138333Y-602143D01*
X6119286Y-611667D01*
X6205000Y-725952D02*
X6185952Y-735476D01*
X6138333Y-735476D01*
X6119286Y-725952D01*
X6109762Y-706905D01*
X6109762Y-687857D01*
X6119286Y-668810D01*
X6138333Y-659286D01*
X6185952Y-659286D01*
X6205000Y-649762D01*
X6271667Y-602143D02*
X6347857Y-602143D01*
X6300238Y-535476D02*
X6300238Y-706905D01*
X6309762Y-725952D01*
X6328809Y-735476D01*
X6347857Y-735476D01*
X6490714Y-725952D02*
X6471667Y-735476D01*
X6433571Y-735476D01*
X6414524Y-725952D01*
X6405000Y-706905D01*
X6405000Y-630714D01*
X6414524Y-611667D01*
X6433571Y-602143D01*
X6471667Y-602143D01*
X6490714Y-611667D01*
X6500238Y-630714D01*
X6500238Y-649762D01*
X6405000Y-668810D01*
X6671667Y-735476D02*
X6671667Y-535476D01*
X6671667Y-725952D02*
X6652619Y-735476D01*
X6614524Y-735476D01*
X6595476Y-725952D01*
X6585952Y-716428D01*
X6576428Y-697381D01*
X6576428Y-640238D01*
X6585952Y-621190D01*
X6595476Y-611667D01*
X6614524Y-602143D01*
X6652619Y-602143D01*
X6671667Y-611667D01*
X6747857Y-811667D02*
X6757381Y-802143D01*
X6776428Y-773571D01*
X6785952Y-754524D01*
X6795476Y-725952D01*
X6805000Y-678333D01*
X6805000Y-640238D01*
X6795476Y-592619D01*
X6785952Y-564048D01*
X6776428Y-545000D01*
X6757381Y-516428D01*
X6747857Y-506905D01*
M02*
