%TF.GenerationSoftware,KiCad,Pcbnew,(6.0.4)*%
%TF.CreationDate,2023-10-13T17:31:40+02:00*%
%TF.ProjectId,swmeter,73776d65-7465-4722-9e6b-696361645f70,0.6*%
%TF.SameCoordinates,PXc773920PY8f69de0*%
%TF.FileFunction,Other,Comment*%
%FSLAX46Y46*%
G04 Gerber Fmt 4.6, Leading zero omitted, Abs format (unit mm)*
G04 Created by KiCad (PCBNEW (6.0.4)) date 2023-10-13 17:31:40*
%MOMM*%
%LPD*%
G01*
G04 APERTURE LIST*
%ADD10C,0.100000*%
%ADD11C,0.150000*%
%ADD12C,0.300000*%
%ADD13C,0.400000*%
%TA.AperFunction,Profile*%
%ADD14C,0.100000*%
%TD*%
G04 APERTURE END LIST*
D10*
D11*
X-32137800Y-15627200D02*
X-32137800Y-47627200D01*
X75862200Y-47627200D01*
X75862200Y-15627200D01*
X-32137800Y-15627200D01*
D10*
D11*
X-199140000Y140380000D02*
X-199140000Y-49627200D01*
X77862200Y-49627200D01*
X77862200Y140380000D01*
X-199140000Y140380000D01*
D10*
D11*
X-197140000Y138380000D02*
X-197140000Y-47627200D01*
X75862200Y-47627200D01*
X75862200Y138380000D01*
X-197140000Y138380000D01*
D10*
D11*
X-149140000Y138380000D02*
X-149140000Y140380000D01*
D10*
D11*
X-99140000Y138380000D02*
X-99140000Y140380000D01*
D10*
D11*
X-49140000Y138380000D02*
X-49140000Y140380000D01*
D10*
D11*
X860000Y138380000D02*
X860000Y140380000D01*
D10*
D11*
X50860000Y138380000D02*
X50860000Y140380000D01*
D10*
D11*
X-173074524Y138791905D02*
X-173817381Y138791905D01*
X-173445953Y138791905D02*
X-173445953Y140091905D01*
X-173569762Y139906191D01*
X-173693572Y139782381D01*
X-173817381Y139720477D01*
D10*
D11*
X-123817381Y139968096D02*
X-123755477Y140030000D01*
X-123631667Y140091905D01*
X-123322143Y140091905D01*
X-123198334Y140030000D01*
X-123136429Y139968096D01*
X-123074524Y139844286D01*
X-123074524Y139720477D01*
X-123136429Y139534762D01*
X-123879286Y138791905D01*
X-123074524Y138791905D01*
D10*
D11*
X-73879286Y140091905D02*
X-73074524Y140091905D01*
X-73507858Y139596667D01*
X-73322143Y139596667D01*
X-73198334Y139534762D01*
X-73136429Y139472858D01*
X-73074524Y139349048D01*
X-73074524Y139039524D01*
X-73136429Y138915715D01*
X-73198334Y138853810D01*
X-73322143Y138791905D01*
X-73693572Y138791905D01*
X-73817381Y138853810D01*
X-73879286Y138915715D01*
D10*
D11*
X-23198334Y139658572D02*
X-23198334Y138791905D01*
X-23507858Y140153810D02*
X-23817381Y139225239D01*
X-23012620Y139225239D01*
D10*
D11*
X26863571Y140091905D02*
X26244523Y140091905D01*
X26182619Y139472858D01*
X26244523Y139534762D01*
X26368333Y139596667D01*
X26677857Y139596667D01*
X26801666Y139534762D01*
X26863571Y139472858D01*
X26925476Y139349048D01*
X26925476Y139039524D01*
X26863571Y138915715D01*
X26801666Y138853810D01*
X26677857Y138791905D01*
X26368333Y138791905D01*
X26244523Y138853810D01*
X26182619Y138915715D01*
D10*
D11*
X76801666Y140091905D02*
X76554047Y140091905D01*
X76430238Y140030000D01*
X76368333Y139968096D01*
X76244523Y139782381D01*
X76182619Y139534762D01*
X76182619Y139039524D01*
X76244523Y138915715D01*
X76306428Y138853810D01*
X76430238Y138791905D01*
X76677857Y138791905D01*
X76801666Y138853810D01*
X76863571Y138915715D01*
X76925476Y139039524D01*
X76925476Y139349048D01*
X76863571Y139472858D01*
X76801666Y139534762D01*
X76677857Y139596667D01*
X76430238Y139596667D01*
X76306428Y139534762D01*
X76244523Y139472858D01*
X76182619Y139349048D01*
D10*
D11*
X-149140000Y-47627200D02*
X-149140000Y-49627200D01*
D10*
D11*
X-99140000Y-47627200D02*
X-99140000Y-49627200D01*
D10*
D11*
X-49140000Y-47627200D02*
X-49140000Y-49627200D01*
D10*
D11*
X860000Y-47627200D02*
X860000Y-49627200D01*
D10*
D11*
X50860000Y-47627200D02*
X50860000Y-49627200D01*
D10*
D11*
X-173074524Y-49215295D02*
X-173817381Y-49215295D01*
X-173445953Y-49215295D02*
X-173445953Y-47915295D01*
X-173569762Y-48101009D01*
X-173693572Y-48224819D01*
X-173817381Y-48286723D01*
D10*
D11*
X-123817381Y-48039104D02*
X-123755477Y-47977200D01*
X-123631667Y-47915295D01*
X-123322143Y-47915295D01*
X-123198334Y-47977200D01*
X-123136429Y-48039104D01*
X-123074524Y-48162914D01*
X-123074524Y-48286723D01*
X-123136429Y-48472438D01*
X-123879286Y-49215295D01*
X-123074524Y-49215295D01*
D10*
D11*
X-73879286Y-47915295D02*
X-73074524Y-47915295D01*
X-73507858Y-48410533D01*
X-73322143Y-48410533D01*
X-73198334Y-48472438D01*
X-73136429Y-48534342D01*
X-73074524Y-48658152D01*
X-73074524Y-48967676D01*
X-73136429Y-49091485D01*
X-73198334Y-49153390D01*
X-73322143Y-49215295D01*
X-73693572Y-49215295D01*
X-73817381Y-49153390D01*
X-73879286Y-49091485D01*
D10*
D11*
X-23198334Y-48348628D02*
X-23198334Y-49215295D01*
X-23507858Y-47853390D02*
X-23817381Y-48781961D01*
X-23012620Y-48781961D01*
D10*
D11*
X26863571Y-47915295D02*
X26244523Y-47915295D01*
X26182619Y-48534342D01*
X26244523Y-48472438D01*
X26368333Y-48410533D01*
X26677857Y-48410533D01*
X26801666Y-48472438D01*
X26863571Y-48534342D01*
X26925476Y-48658152D01*
X26925476Y-48967676D01*
X26863571Y-49091485D01*
X26801666Y-49153390D01*
X26677857Y-49215295D01*
X26368333Y-49215295D01*
X26244523Y-49153390D01*
X26182619Y-49091485D01*
D10*
D11*
X76801666Y-47915295D02*
X76554047Y-47915295D01*
X76430238Y-47977200D01*
X76368333Y-48039104D01*
X76244523Y-48224819D01*
X76182619Y-48472438D01*
X76182619Y-48967676D01*
X76244523Y-49091485D01*
X76306428Y-49153390D01*
X76430238Y-49215295D01*
X76677857Y-49215295D01*
X76801666Y-49153390D01*
X76863571Y-49091485D01*
X76925476Y-48967676D01*
X76925476Y-48658152D01*
X76863571Y-48534342D01*
X76801666Y-48472438D01*
X76677857Y-48410533D01*
X76430238Y-48410533D01*
X76306428Y-48472438D01*
X76244523Y-48534342D01*
X76182619Y-48658152D01*
D10*
D11*
X-199140000Y90380000D02*
X-197140000Y90380000D01*
D10*
D11*
X-199140000Y40380000D02*
X-197140000Y40380000D01*
D10*
D11*
X-199140000Y-9620000D02*
X-197140000Y-9620000D01*
D10*
D11*
X-198449524Y115163334D02*
X-197830477Y115163334D01*
X-198573334Y114791905D02*
X-198140000Y116091905D01*
X-197706667Y114791905D01*
D10*
D11*
X-198047143Y65472858D02*
X-197861429Y65410953D01*
X-197799524Y65349048D01*
X-197737620Y65225239D01*
X-197737620Y65039524D01*
X-197799524Y64915715D01*
X-197861429Y64853810D01*
X-197985239Y64791905D01*
X-198480477Y64791905D01*
X-198480477Y66091905D01*
X-198047143Y66091905D01*
X-197923334Y66030000D01*
X-197861429Y65968096D01*
X-197799524Y65844286D01*
X-197799524Y65720477D01*
X-197861429Y65596667D01*
X-197923334Y65534762D01*
X-198047143Y65472858D01*
X-198480477Y65472858D01*
D10*
D11*
X-197737620Y14915715D02*
X-197799524Y14853810D01*
X-197985239Y14791905D01*
X-198109048Y14791905D01*
X-198294762Y14853810D01*
X-198418572Y14977620D01*
X-198480477Y15101429D01*
X-198542381Y15349048D01*
X-198542381Y15534762D01*
X-198480477Y15782381D01*
X-198418572Y15906191D01*
X-198294762Y16030000D01*
X-198109048Y16091905D01*
X-197985239Y16091905D01*
X-197799524Y16030000D01*
X-197737620Y15968096D01*
D10*
D11*
X-198480477Y-35208095D02*
X-198480477Y-33908095D01*
X-198170953Y-33908095D01*
X-197985239Y-33970000D01*
X-197861429Y-34093809D01*
X-197799524Y-34217619D01*
X-197737620Y-34465238D01*
X-197737620Y-34650952D01*
X-197799524Y-34898571D01*
X-197861429Y-35022380D01*
X-197985239Y-35146190D01*
X-198170953Y-35208095D01*
X-198480477Y-35208095D01*
D10*
D11*
X77862200Y90380000D02*
X75862200Y90380000D01*
D10*
D11*
X77862200Y40380000D02*
X75862200Y40380000D01*
D10*
D11*
X77862200Y-9620000D02*
X75862200Y-9620000D01*
D10*
D11*
X76552676Y115163334D02*
X77171723Y115163334D01*
X76428866Y114791905D02*
X76862200Y116091905D01*
X77295533Y114791905D01*
D10*
D11*
X76955057Y65472858D02*
X77140771Y65410953D01*
X77202676Y65349048D01*
X77264580Y65225239D01*
X77264580Y65039524D01*
X77202676Y64915715D01*
X77140771Y64853810D01*
X77016961Y64791905D01*
X76521723Y64791905D01*
X76521723Y66091905D01*
X76955057Y66091905D01*
X77078866Y66030000D01*
X77140771Y65968096D01*
X77202676Y65844286D01*
X77202676Y65720477D01*
X77140771Y65596667D01*
X77078866Y65534762D01*
X76955057Y65472858D01*
X76521723Y65472858D01*
D10*
D11*
X77264580Y14915715D02*
X77202676Y14853810D01*
X77016961Y14791905D01*
X76893152Y14791905D01*
X76707438Y14853810D01*
X76583628Y14977620D01*
X76521723Y15101429D01*
X76459819Y15349048D01*
X76459819Y15534762D01*
X76521723Y15782381D01*
X76583628Y15906191D01*
X76707438Y16030000D01*
X76893152Y16091905D01*
X77016961Y16091905D01*
X77202676Y16030000D01*
X77264580Y15968096D01*
D10*
D11*
X76521723Y-35208095D02*
X76521723Y-33908095D01*
X76831247Y-33908095D01*
X77016961Y-33970000D01*
X77140771Y-34093809D01*
X77202676Y-34217619D01*
X77264580Y-34465238D01*
X77264580Y-34650952D01*
X77202676Y-34898571D01*
X77140771Y-35022380D01*
X77016961Y-35146190D01*
X76831247Y-35208095D01*
X76521723Y-35208095D01*
D10*
D11*
X-8705658Y-43405771D02*
X-8705658Y-41905771D01*
X-8348515Y-41905771D01*
X-8134229Y-41977200D01*
X-7991372Y-42120057D01*
X-7919943Y-42262914D01*
X-7848515Y-42548628D01*
X-7848515Y-42762914D01*
X-7919943Y-43048628D01*
X-7991372Y-43191485D01*
X-8134229Y-43334342D01*
X-8348515Y-43405771D01*
X-8705658Y-43405771D01*
X-6562800Y-43405771D02*
X-6562800Y-42620057D01*
X-6634229Y-42477200D01*
X-6777086Y-42405771D01*
X-7062800Y-42405771D01*
X-7205658Y-42477200D01*
X-6562800Y-43334342D02*
X-6705658Y-43405771D01*
X-7062800Y-43405771D01*
X-7205658Y-43334342D01*
X-7277086Y-43191485D01*
X-7277086Y-43048628D01*
X-7205658Y-42905771D01*
X-7062800Y-42834342D01*
X-6705658Y-42834342D01*
X-6562800Y-42762914D01*
X-6062800Y-42405771D02*
X-5491372Y-42405771D01*
X-5848515Y-41905771D02*
X-5848515Y-43191485D01*
X-5777086Y-43334342D01*
X-5634229Y-43405771D01*
X-5491372Y-43405771D01*
X-4419943Y-43334342D02*
X-4562800Y-43405771D01*
X-4848515Y-43405771D01*
X-4991372Y-43334342D01*
X-5062800Y-43191485D01*
X-5062800Y-42620057D01*
X-4991372Y-42477200D01*
X-4848515Y-42405771D01*
X-4562800Y-42405771D01*
X-4419943Y-42477200D01*
X-4348515Y-42620057D01*
X-4348515Y-42762914D01*
X-5062800Y-42905771D01*
X-3705658Y-43262914D02*
X-3634229Y-43334342D01*
X-3705658Y-43405771D01*
X-3777086Y-43334342D01*
X-3705658Y-43262914D01*
X-3705658Y-43405771D01*
X-3705658Y-42477200D02*
X-3634229Y-42548628D01*
X-3705658Y-42620057D01*
X-3777086Y-42548628D01*
X-3705658Y-42477200D01*
X-3705658Y-42620057D01*
X-1919943Y-42048628D02*
X-1848515Y-41977200D01*
X-1705658Y-41905771D01*
X-1348515Y-41905771D01*
X-1205658Y-41977200D01*
X-1134229Y-42048628D01*
X-1062800Y-42191485D01*
X-1062800Y-42334342D01*
X-1134229Y-42548628D01*
X-1991372Y-43405771D01*
X-1062800Y-43405771D01*
X-134229Y-41905771D02*
X8628Y-41905771D01*
X151485Y-41977200D01*
X222914Y-42048628D01*
X294342Y-42191485D01*
X365771Y-42477200D01*
X365771Y-42834342D01*
X294342Y-43120057D01*
X222914Y-43262914D01*
X151485Y-43334342D01*
X8628Y-43405771D01*
X-134229Y-43405771D01*
X-277086Y-43334342D01*
X-348515Y-43262914D01*
X-419943Y-43120057D01*
X-491372Y-42834342D01*
X-491372Y-42477200D01*
X-419943Y-42191485D01*
X-348515Y-42048628D01*
X-277086Y-41977200D01*
X-134229Y-41905771D01*
X937200Y-42048628D02*
X1008628Y-41977200D01*
X1151485Y-41905771D01*
X1508628Y-41905771D01*
X1651485Y-41977200D01*
X1722914Y-42048628D01*
X1794342Y-42191485D01*
X1794342Y-42334342D01*
X1722914Y-42548628D01*
X865771Y-43405771D01*
X1794342Y-43405771D01*
X2294342Y-41905771D02*
X3222914Y-41905771D01*
X2722914Y-42477200D01*
X2937200Y-42477200D01*
X3080057Y-42548628D01*
X3151485Y-42620057D01*
X3222914Y-42762914D01*
X3222914Y-43120057D01*
X3151485Y-43262914D01*
X3080057Y-43334342D01*
X2937200Y-43405771D01*
X2508628Y-43405771D01*
X2365771Y-43334342D01*
X2294342Y-43262914D01*
X3865771Y-42834342D02*
X5008628Y-42834342D01*
X6008628Y-41905771D02*
X6151485Y-41905771D01*
X6294342Y-41977200D01*
X6365771Y-42048628D01*
X6437200Y-42191485D01*
X6508628Y-42477200D01*
X6508628Y-42834342D01*
X6437200Y-43120057D01*
X6365771Y-43262914D01*
X6294342Y-43334342D01*
X6151485Y-43405771D01*
X6008628Y-43405771D01*
X5865771Y-43334342D01*
X5794342Y-43262914D01*
X5722914Y-43120057D01*
X5651485Y-42834342D01*
X5651485Y-42477200D01*
X5722914Y-42191485D01*
X5794342Y-42048628D01*
X5865771Y-41977200D01*
X6008628Y-41905771D01*
X7794342Y-42405771D02*
X7794342Y-43405771D01*
X7437200Y-41834342D02*
X7080057Y-42905771D01*
X8008628Y-42905771D01*
X8580057Y-42834342D02*
X9722914Y-42834342D01*
X11222914Y-43405771D02*
X10365771Y-43405771D01*
X10794342Y-43405771D02*
X10794342Y-41905771D01*
X10651485Y-42120057D01*
X10508628Y-42262914D01*
X10365771Y-42334342D01*
X12580057Y-41905771D02*
X11865771Y-41905771D01*
X11794342Y-42620057D01*
X11865771Y-42548628D01*
X12008628Y-42477200D01*
X12365771Y-42477200D01*
X12508628Y-42548628D01*
X12580057Y-42620057D01*
X12651485Y-42762914D01*
X12651485Y-43120057D01*
X12580057Y-43262914D01*
X12508628Y-43334342D01*
X12365771Y-43405771D01*
X12008628Y-43405771D01*
X11865771Y-43334342D01*
X11794342Y-43262914D01*
D10*
D11*
X-32137800Y-44127200D02*
X75862200Y-44127200D01*
D10*
D11*
X-30705658Y-46205771D02*
X-30705658Y-44705771D01*
X-29848515Y-46205771D02*
X-30491372Y-45348628D01*
X-29848515Y-44705771D02*
X-30705658Y-45562914D01*
X-29205658Y-46205771D02*
X-29205658Y-45205771D01*
X-29205658Y-44705771D02*
X-29277086Y-44777200D01*
X-29205658Y-44848628D01*
X-29134229Y-44777200D01*
X-29205658Y-44705771D01*
X-29205658Y-44848628D01*
X-27634229Y-46062914D02*
X-27705658Y-46134342D01*
X-27919943Y-46205771D01*
X-28062800Y-46205771D01*
X-28277086Y-46134342D01*
X-28419943Y-45991485D01*
X-28491372Y-45848628D01*
X-28562800Y-45562914D01*
X-28562800Y-45348628D01*
X-28491372Y-45062914D01*
X-28419943Y-44920057D01*
X-28277086Y-44777200D01*
X-28062800Y-44705771D01*
X-27919943Y-44705771D01*
X-27705658Y-44777200D01*
X-27634229Y-44848628D01*
X-26348515Y-46205771D02*
X-26348515Y-45420057D01*
X-26419943Y-45277200D01*
X-26562800Y-45205771D01*
X-26848515Y-45205771D01*
X-26991372Y-45277200D01*
X-26348515Y-46134342D02*
X-26491372Y-46205771D01*
X-26848515Y-46205771D01*
X-26991372Y-46134342D01*
X-27062800Y-45991485D01*
X-27062800Y-45848628D01*
X-26991372Y-45705771D01*
X-26848515Y-45634342D01*
X-26491372Y-45634342D01*
X-26348515Y-45562914D01*
X-24991372Y-46205771D02*
X-24991372Y-44705771D01*
X-24991372Y-46134342D02*
X-25134229Y-46205771D01*
X-25419943Y-46205771D01*
X-25562800Y-46134342D01*
X-25634229Y-46062914D01*
X-25705658Y-45920057D01*
X-25705658Y-45491485D01*
X-25634229Y-45348628D01*
X-25562800Y-45277200D01*
X-25419943Y-45205771D01*
X-25134229Y-45205771D01*
X-24991372Y-45277200D01*
X-23134229Y-45420057D02*
X-22634229Y-45420057D01*
X-22419943Y-46205771D02*
X-23134229Y-46205771D01*
X-23134229Y-44705771D01*
X-22419943Y-44705771D01*
X-21777086Y-46062914D02*
X-21705658Y-46134342D01*
X-21777086Y-46205771D01*
X-21848515Y-46134342D01*
X-21777086Y-46062914D01*
X-21777086Y-46205771D01*
X-21062800Y-46205771D02*
X-21062800Y-44705771D01*
X-20705658Y-44705771D01*
X-20491372Y-44777200D01*
X-20348515Y-44920057D01*
X-20277086Y-45062914D01*
X-20205658Y-45348628D01*
X-20205658Y-45562914D01*
X-20277086Y-45848628D01*
X-20348515Y-45991485D01*
X-20491372Y-46134342D01*
X-20705658Y-46205771D01*
X-21062800Y-46205771D01*
X-19562800Y-46062914D02*
X-19491372Y-46134342D01*
X-19562800Y-46205771D01*
X-19634229Y-46134342D01*
X-19562800Y-46062914D01*
X-19562800Y-46205771D01*
X-18919943Y-45777200D02*
X-18205658Y-45777200D01*
X-19062800Y-46205771D02*
X-18562800Y-44705771D01*
X-18062800Y-46205771D01*
X-17562800Y-46062914D02*
X-17491372Y-46134342D01*
X-17562800Y-46205771D01*
X-17634229Y-46134342D01*
X-17562800Y-46062914D01*
X-17562800Y-46205771D01*
X-14562800Y-46205771D02*
X-14562800Y-44705771D01*
X-14419943Y-45634342D02*
X-13991372Y-46205771D01*
X-13991372Y-45205771D02*
X-14562800Y-45777200D01*
X-13348515Y-46205771D02*
X-13348515Y-45205771D01*
X-13348515Y-44705771D02*
X-13419943Y-44777200D01*
X-13348515Y-44848628D01*
X-13277086Y-44777200D01*
X-13348515Y-44705771D01*
X-13348515Y-44848628D01*
X-11991372Y-46134342D02*
X-12134229Y-46205771D01*
X-12419943Y-46205771D01*
X-12562800Y-46134342D01*
X-12634229Y-46062914D01*
X-12705658Y-45920057D01*
X-12705658Y-45491485D01*
X-12634229Y-45348628D01*
X-12562800Y-45277200D01*
X-12419943Y-45205771D01*
X-12134229Y-45205771D01*
X-11991372Y-45277200D01*
X-10705658Y-46205771D02*
X-10705658Y-45420057D01*
X-10777086Y-45277200D01*
X-10919943Y-45205771D01*
X-11205658Y-45205771D01*
X-11348515Y-45277200D01*
X-10705658Y-46134342D02*
X-10848515Y-46205771D01*
X-11205658Y-46205771D01*
X-11348515Y-46134342D01*
X-11419943Y-45991485D01*
X-11419943Y-45848628D01*
X-11348515Y-45705771D01*
X-11205658Y-45634342D01*
X-10848515Y-45634342D01*
X-10705658Y-45562914D01*
X-9348515Y-46205771D02*
X-9348515Y-44705771D01*
X-9348515Y-46134342D02*
X-9491372Y-46205771D01*
X-9777086Y-46205771D01*
X-9919943Y-46134342D01*
X-9991372Y-46062914D01*
X-10062800Y-45920057D01*
X-10062800Y-45491485D01*
X-9991372Y-45348628D01*
X-9919943Y-45277200D01*
X-9777086Y-45205771D01*
X-9491372Y-45205771D01*
X-9348515Y-45277200D01*
X-7062800Y-46777200D02*
X-7134229Y-46705771D01*
X-7277086Y-46491485D01*
X-7348515Y-46348628D01*
X-7419943Y-46134342D01*
X-7491372Y-45777200D01*
X-7491372Y-45491485D01*
X-7419943Y-45134342D01*
X-7348515Y-44920057D01*
X-7277086Y-44777200D01*
X-7134229Y-44562914D01*
X-7062800Y-44491485D01*
X-5848515Y-44705771D02*
X-6134229Y-44705771D01*
X-6277086Y-44777200D01*
X-6348515Y-44848628D01*
X-6491372Y-45062914D01*
X-6562800Y-45348628D01*
X-6562800Y-45920057D01*
X-6491372Y-46062914D01*
X-6419943Y-46134342D01*
X-6277086Y-46205771D01*
X-5991372Y-46205771D01*
X-5848515Y-46134342D01*
X-5777086Y-46062914D01*
X-5705658Y-45920057D01*
X-5705658Y-45562914D01*
X-5777086Y-45420057D01*
X-5848515Y-45348628D01*
X-5991372Y-45277200D01*
X-6277086Y-45277200D01*
X-6419943Y-45348628D01*
X-6491372Y-45420057D01*
X-6562800Y-45562914D01*
X-5062800Y-46062914D02*
X-4991372Y-46134342D01*
X-5062800Y-46205771D01*
X-5134229Y-46134342D01*
X-5062800Y-46062914D01*
X-5062800Y-46205771D01*
X-4062800Y-44705771D02*
X-3919943Y-44705771D01*
X-3777086Y-44777200D01*
X-3705658Y-44848628D01*
X-3634229Y-44991485D01*
X-3562800Y-45277200D01*
X-3562800Y-45634342D01*
X-3634229Y-45920057D01*
X-3705658Y-46062914D01*
X-3777086Y-46134342D01*
X-3919943Y-46205771D01*
X-4062800Y-46205771D01*
X-4205658Y-46134342D01*
X-4277086Y-46062914D01*
X-4348515Y-45920057D01*
X-4419943Y-45634342D01*
X-4419943Y-45277200D01*
X-4348515Y-44991485D01*
X-4277086Y-44848628D01*
X-4205658Y-44777200D01*
X-4062800Y-44705771D01*
X-2919943Y-46062914D02*
X-2848515Y-46134342D01*
X-2919943Y-46205771D01*
X-2991372Y-46134342D01*
X-2919943Y-46062914D01*
X-2919943Y-46205771D01*
X-1562800Y-45205771D02*
X-1562800Y-46205771D01*
X-1919943Y-44634342D02*
X-2277086Y-45705771D01*
X-1348515Y-45705771D01*
X-919943Y-46777200D02*
X-848515Y-46705771D01*
X-705658Y-46491485D01*
X-634229Y-46348628D01*
X-562800Y-46134342D01*
X-491372Y-45777200D01*
X-491372Y-45491485D01*
X-562800Y-45134342D01*
X-634229Y-44920057D01*
X-705658Y-44777200D01*
X-848515Y-44562914D01*
X-919943Y-44491485D01*
D10*
D11*
X-32137800Y-41127200D02*
X75862200Y-41127200D01*
D10*
D12*
X55271485Y-43405771D02*
X54771485Y-42691485D01*
X54414342Y-43405771D02*
X54414342Y-41905771D01*
X54985771Y-41905771D01*
X55128628Y-41977200D01*
X55200057Y-42048628D01*
X55271485Y-42191485D01*
X55271485Y-42405771D01*
X55200057Y-42548628D01*
X55128628Y-42620057D01*
X54985771Y-42691485D01*
X54414342Y-42691485D01*
X56485771Y-43334342D02*
X56342914Y-43405771D01*
X56057200Y-43405771D01*
X55914342Y-43334342D01*
X55842914Y-43191485D01*
X55842914Y-42620057D01*
X55914342Y-42477200D01*
X56057200Y-42405771D01*
X56342914Y-42405771D01*
X56485771Y-42477200D01*
X56557200Y-42620057D01*
X56557200Y-42762914D01*
X55842914Y-42905771D01*
X57057200Y-42405771D02*
X57414342Y-43405771D01*
X57771485Y-42405771D01*
X58342914Y-43262914D02*
X58414342Y-43334342D01*
X58342914Y-43405771D01*
X58271485Y-43334342D01*
X58342914Y-43262914D01*
X58342914Y-43405771D01*
X58342914Y-42477200D02*
X58414342Y-42548628D01*
X58342914Y-42620057D01*
X58271485Y-42548628D01*
X58342914Y-42477200D01*
X58342914Y-42620057D01*
X60485771Y-41905771D02*
X60628628Y-41905771D01*
X60771485Y-41977200D01*
X60842914Y-42048628D01*
X60914342Y-42191485D01*
X60985771Y-42477200D01*
X60985771Y-42834342D01*
X60914342Y-43120057D01*
X60842914Y-43262914D01*
X60771485Y-43334342D01*
X60628628Y-43405771D01*
X60485771Y-43405771D01*
X60342914Y-43334342D01*
X60271485Y-43262914D01*
X60200057Y-43120057D01*
X60128628Y-42834342D01*
X60128628Y-42477200D01*
X60200057Y-42191485D01*
X60271485Y-42048628D01*
X60342914Y-41977200D01*
X60485771Y-41905771D01*
X61628628Y-43262914D02*
X61700057Y-43334342D01*
X61628628Y-43405771D01*
X61557200Y-43334342D01*
X61628628Y-43262914D01*
X61628628Y-43405771D01*
X62985771Y-41905771D02*
X62700057Y-41905771D01*
X62557200Y-41977200D01*
X62485771Y-42048628D01*
X62342914Y-42262914D01*
X62271485Y-42548628D01*
X62271485Y-43120057D01*
X62342914Y-43262914D01*
X62414342Y-43334342D01*
X62557200Y-43405771D01*
X62842914Y-43405771D01*
X62985771Y-43334342D01*
X63057200Y-43262914D01*
X63128628Y-43120057D01*
X63128628Y-42762914D01*
X63057200Y-42620057D01*
X62985771Y-42548628D01*
X62842914Y-42477200D01*
X62557200Y-42477200D01*
X62414342Y-42548628D01*
X62342914Y-42620057D01*
X62271485Y-42762914D01*
D10*
D11*
X-30777086Y-43334342D02*
X-30562800Y-43405771D01*
X-30205658Y-43405771D01*
X-30062800Y-43334342D01*
X-29991372Y-43262914D01*
X-29919943Y-43120057D01*
X-29919943Y-42977200D01*
X-29991372Y-42834342D01*
X-30062800Y-42762914D01*
X-30205658Y-42691485D01*
X-30491372Y-42620057D01*
X-30634229Y-42548628D01*
X-30705658Y-42477200D01*
X-30777086Y-42334342D01*
X-30777086Y-42191485D01*
X-30705658Y-42048628D01*
X-30634229Y-41977200D01*
X-30491372Y-41905771D01*
X-30134229Y-41905771D01*
X-29919943Y-41977200D01*
X-29277086Y-43405771D02*
X-29277086Y-42405771D01*
X-29277086Y-41905771D02*
X-29348515Y-41977200D01*
X-29277086Y-42048628D01*
X-29205658Y-41977200D01*
X-29277086Y-41905771D01*
X-29277086Y-42048628D01*
X-28705658Y-42405771D02*
X-27919943Y-42405771D01*
X-28705658Y-43405771D01*
X-27919943Y-43405771D01*
X-26777086Y-43334342D02*
X-26919943Y-43405771D01*
X-27205658Y-43405771D01*
X-27348515Y-43334342D01*
X-27419943Y-43191485D01*
X-27419943Y-42620057D01*
X-27348515Y-42477200D01*
X-27205658Y-42405771D01*
X-26919943Y-42405771D01*
X-26777086Y-42477200D01*
X-26705658Y-42620057D01*
X-26705658Y-42762914D01*
X-27419943Y-42905771D01*
X-26062800Y-43262914D02*
X-25991372Y-43334342D01*
X-26062800Y-43405771D01*
X-26134229Y-43334342D01*
X-26062800Y-43262914D01*
X-26062800Y-43405771D01*
X-26062800Y-42477200D02*
X-25991372Y-42548628D01*
X-26062800Y-42620057D01*
X-26134229Y-42548628D01*
X-26062800Y-42477200D01*
X-26062800Y-42620057D01*
X-24277086Y-42977200D02*
X-23562800Y-42977200D01*
X-24419943Y-43405771D02*
X-23919943Y-41905771D01*
X-23419943Y-43405771D01*
X-22277086Y-42405771D02*
X-22277086Y-43405771D01*
X-22634229Y-41834342D02*
X-22991372Y-42905771D01*
X-22062800Y-42905771D01*
D10*
D11*
X54294342Y-46205771D02*
X54294342Y-44705771D01*
X55651485Y-46205771D02*
X55651485Y-44705771D01*
X55651485Y-46134342D02*
X55508628Y-46205771D01*
X55222914Y-46205771D01*
X55080057Y-46134342D01*
X55008628Y-46062914D01*
X54937200Y-45920057D01*
X54937200Y-45491485D01*
X55008628Y-45348628D01*
X55080057Y-45277200D01*
X55222914Y-45205771D01*
X55508628Y-45205771D01*
X55651485Y-45277200D01*
X56365771Y-46062914D02*
X56437200Y-46134342D01*
X56365771Y-46205771D01*
X56294342Y-46134342D01*
X56365771Y-46062914D01*
X56365771Y-46205771D01*
X56365771Y-45277200D02*
X56437200Y-45348628D01*
X56365771Y-45420057D01*
X56294342Y-45348628D01*
X56365771Y-45277200D01*
X56365771Y-45420057D01*
X59008628Y-46205771D02*
X58151485Y-46205771D01*
X58580057Y-46205771D02*
X58580057Y-44705771D01*
X58437200Y-44920057D01*
X58294342Y-45062914D01*
X58151485Y-45134342D01*
X60722914Y-44634342D02*
X59437200Y-46562914D01*
X62008628Y-46205771D02*
X61151485Y-46205771D01*
X61580057Y-46205771D02*
X61580057Y-44705771D01*
X61437200Y-44920057D01*
X61294342Y-45062914D01*
X61151485Y-45134342D01*
D10*
D11*
X-32137800Y-37127200D02*
X75862200Y-37127200D01*
D10*
D13*
X-30425420Y-37831961D02*
X-29282562Y-37831961D01*
X-30103991Y-39831961D02*
X-29853991Y-37831961D01*
X-28865896Y-39831961D02*
X-28699229Y-38498628D01*
X-28615896Y-37831961D02*
X-28723039Y-37927200D01*
X-28639705Y-38022438D01*
X-28532562Y-37927200D01*
X-28615896Y-37831961D01*
X-28639705Y-38022438D01*
X-28032562Y-38498628D02*
X-27270658Y-38498628D01*
X-27663515Y-37831961D02*
X-27877800Y-39546247D01*
X-27806372Y-39736723D01*
X-27627800Y-39831961D01*
X-27437324Y-39831961D01*
X-26484943Y-39831961D02*
X-26663515Y-39736723D01*
X-26734943Y-39546247D01*
X-26520658Y-37831961D01*
X-24949229Y-39736723D02*
X-25151610Y-39831961D01*
X-25532562Y-39831961D01*
X-25711134Y-39736723D01*
X-25782562Y-39546247D01*
X-25687324Y-38784342D01*
X-25568277Y-38593866D01*
X-25365896Y-38498628D01*
X-24984943Y-38498628D01*
X-24806372Y-38593866D01*
X-24734943Y-38784342D01*
X-24758753Y-38974819D01*
X-25734943Y-39165295D01*
X-23984943Y-39641485D02*
X-23901610Y-39736723D01*
X-24008753Y-39831961D01*
X-24092086Y-39736723D01*
X-23984943Y-39641485D01*
X-24008753Y-39831961D01*
X-23853991Y-38593866D02*
X-23770658Y-38689104D01*
X-23877800Y-38784342D01*
X-23961134Y-38689104D01*
X-23853991Y-38593866D01*
X-23877800Y-38784342D01*
X-21615896Y-39736723D02*
X-21342086Y-39831961D01*
X-20865896Y-39831961D01*
X-20663515Y-39736723D01*
X-20556372Y-39641485D01*
X-20437324Y-39451009D01*
X-20413515Y-39260533D01*
X-20484943Y-39070057D01*
X-20568277Y-38974819D01*
X-20746848Y-38879580D01*
X-21115896Y-38784342D01*
X-21294467Y-38689104D01*
X-21377800Y-38593866D01*
X-21449229Y-38403390D01*
X-21425420Y-38212914D01*
X-21306372Y-38022438D01*
X-21199229Y-37927200D01*
X-20996848Y-37831961D01*
X-20520658Y-37831961D01*
X-20246848Y-37927200D01*
X-19568277Y-37831961D02*
X-19342086Y-39831961D01*
X-18782562Y-38403390D01*
X-18580181Y-39831961D01*
X-17853991Y-37831961D01*
X-17246848Y-39070057D02*
X-15723039Y-39070057D01*
X-14865896Y-39831961D02*
X-14615896Y-37831961D01*
X-14127800Y-39260533D01*
X-13282562Y-37831961D01*
X-13532562Y-39831961D01*
X-11806372Y-39736723D02*
X-12008753Y-39831961D01*
X-12389705Y-39831961D01*
X-12568277Y-39736723D01*
X-12639705Y-39546247D01*
X-12544467Y-38784342D01*
X-12425420Y-38593866D01*
X-12223039Y-38498628D01*
X-11842086Y-38498628D01*
X-11663515Y-38593866D01*
X-11592086Y-38784342D01*
X-11615896Y-38974819D01*
X-12592086Y-39165295D01*
X-10984943Y-38498628D02*
X-10223039Y-38498628D01*
X-10615896Y-37831961D02*
X-10830181Y-39546247D01*
X-10758753Y-39736723D01*
X-10580181Y-39831961D01*
X-10389705Y-39831961D01*
X-8949229Y-39736723D02*
X-9151610Y-39831961D01*
X-9532562Y-39831961D01*
X-9711134Y-39736723D01*
X-9782562Y-39546247D01*
X-9687324Y-38784342D01*
X-9568277Y-38593866D01*
X-9365896Y-38498628D01*
X-8984943Y-38498628D01*
X-8806372Y-38593866D01*
X-8734943Y-38784342D01*
X-8758753Y-38974819D01*
X-9734943Y-39165295D01*
X-8008753Y-39831961D02*
X-7842086Y-38498628D01*
X-7889705Y-38879580D02*
X-7770658Y-38689104D01*
X-7663515Y-38593866D01*
X-7461134Y-38498628D01*
X-7270658Y-38498628D01*
D10*
D11*
X-30205658Y-35220057D02*
X-30705658Y-35220057D01*
X-30705658Y-36005771D02*
X-30705658Y-34505771D01*
X-29991372Y-34505771D01*
X-29419943Y-36005771D02*
X-29419943Y-35005771D01*
X-29419943Y-34505771D02*
X-29491372Y-34577200D01*
X-29419943Y-34648628D01*
X-29348515Y-34577200D01*
X-29419943Y-34505771D01*
X-29419943Y-34648628D01*
X-28491372Y-36005771D02*
X-28634229Y-35934342D01*
X-28705658Y-35791485D01*
X-28705658Y-34505771D01*
X-27348515Y-35934342D02*
X-27491372Y-36005771D01*
X-27777086Y-36005771D01*
X-27919943Y-35934342D01*
X-27991372Y-35791485D01*
X-27991372Y-35220057D01*
X-27919943Y-35077200D01*
X-27777086Y-35005771D01*
X-27491372Y-35005771D01*
X-27348515Y-35077200D01*
X-27277086Y-35220057D01*
X-27277086Y-35362914D01*
X-27991372Y-35505771D01*
X-26634229Y-35862914D02*
X-26562800Y-35934342D01*
X-26634229Y-36005771D01*
X-26705658Y-35934342D01*
X-26634229Y-35862914D01*
X-26634229Y-36005771D01*
X-26634229Y-35077200D02*
X-26562800Y-35148628D01*
X-26634229Y-35220057D01*
X-26705658Y-35148628D01*
X-26634229Y-35077200D01*
X-26634229Y-35220057D01*
X-24848515Y-35934342D02*
X-24705658Y-36005771D01*
X-24419943Y-36005771D01*
X-24277086Y-35934342D01*
X-24205658Y-35791485D01*
X-24205658Y-35720057D01*
X-24277086Y-35577200D01*
X-24419943Y-35505771D01*
X-24634229Y-35505771D01*
X-24777086Y-35434342D01*
X-24848515Y-35291485D01*
X-24848515Y-35220057D01*
X-24777086Y-35077200D01*
X-24634229Y-35005771D01*
X-24419943Y-35005771D01*
X-24277086Y-35077200D01*
X-23705658Y-35005771D02*
X-23419943Y-36005771D01*
X-23134229Y-35291485D01*
X-22848515Y-36005771D01*
X-22562800Y-35005771D01*
X-21991372Y-36005771D02*
X-21991372Y-35005771D01*
X-21991372Y-35148628D02*
X-21919943Y-35077200D01*
X-21777086Y-35005771D01*
X-21562800Y-35005771D01*
X-21419943Y-35077200D01*
X-21348515Y-35220057D01*
X-21348515Y-36005771D01*
X-21348515Y-35220057D02*
X-21277086Y-35077200D01*
X-21134229Y-35005771D01*
X-20919943Y-35005771D01*
X-20777086Y-35077200D01*
X-20705658Y-35220057D01*
X-20705658Y-36005771D01*
X-19419943Y-35934342D02*
X-19562800Y-36005771D01*
X-19848515Y-36005771D01*
X-19991372Y-35934342D01*
X-20062800Y-35791485D01*
X-20062800Y-35220057D01*
X-19991372Y-35077200D01*
X-19848515Y-35005771D01*
X-19562800Y-35005771D01*
X-19419943Y-35077200D01*
X-19348515Y-35220057D01*
X-19348515Y-35362914D01*
X-20062800Y-35505771D01*
X-18919943Y-35005771D02*
X-18348515Y-35005771D01*
X-18705658Y-34505771D02*
X-18705658Y-35791485D01*
X-18634229Y-35934342D01*
X-18491372Y-36005771D01*
X-18348515Y-36005771D01*
X-17277086Y-35934342D02*
X-17419943Y-36005771D01*
X-17705658Y-36005771D01*
X-17848515Y-35934342D01*
X-17919943Y-35791485D01*
X-17919943Y-35220057D01*
X-17848515Y-35077200D01*
X-17705658Y-35005771D01*
X-17419943Y-35005771D01*
X-17277086Y-35077200D01*
X-17205658Y-35220057D01*
X-17205658Y-35362914D01*
X-17919943Y-35505771D01*
X-16562800Y-36005771D02*
X-16562800Y-35005771D01*
X-16562800Y-35291485D02*
X-16491372Y-35148628D01*
X-16419943Y-35077200D01*
X-16277086Y-35005771D01*
X-16134229Y-35005771D01*
X-15634229Y-35862914D02*
X-15562800Y-35934342D01*
X-15634229Y-36005771D01*
X-15705658Y-35934342D01*
X-15634229Y-35862914D01*
X-15634229Y-36005771D01*
X-14919943Y-36005771D02*
X-14919943Y-34505771D01*
X-14777086Y-35434342D02*
X-14348515Y-36005771D01*
X-14348515Y-35005771D02*
X-14919943Y-35577200D01*
X-13705658Y-36005771D02*
X-13705658Y-35005771D01*
X-13705658Y-34505771D02*
X-13777086Y-34577200D01*
X-13705658Y-34648628D01*
X-13634229Y-34577200D01*
X-13705658Y-34505771D01*
X-13705658Y-34648628D01*
X-12348515Y-35934342D02*
X-12491372Y-36005771D01*
X-12777086Y-36005771D01*
X-12919943Y-35934342D01*
X-12991372Y-35862914D01*
X-13062800Y-35720057D01*
X-13062800Y-35291485D01*
X-12991372Y-35148628D01*
X-12919943Y-35077200D01*
X-12777086Y-35005771D01*
X-12491372Y-35005771D01*
X-12348515Y-35077200D01*
X-11062800Y-36005771D02*
X-11062800Y-35220057D01*
X-11134229Y-35077200D01*
X-11277086Y-35005771D01*
X-11562800Y-35005771D01*
X-11705658Y-35077200D01*
X-11062800Y-35934342D02*
X-11205658Y-36005771D01*
X-11562800Y-36005771D01*
X-11705658Y-35934342D01*
X-11777086Y-35791485D01*
X-11777086Y-35648628D01*
X-11705658Y-35505771D01*
X-11562800Y-35434342D01*
X-11205658Y-35434342D01*
X-11062800Y-35362914D01*
X-9705658Y-36005771D02*
X-9705658Y-34505771D01*
X-9705658Y-35934342D02*
X-9848515Y-36005771D01*
X-10134229Y-36005771D01*
X-10277086Y-35934342D01*
X-10348515Y-35862914D01*
X-10419943Y-35720057D01*
X-10419943Y-35291485D01*
X-10348515Y-35148628D01*
X-10277086Y-35077200D01*
X-10134229Y-35005771D01*
X-9848515Y-35005771D01*
X-9705658Y-35077200D01*
X-9348515Y-36148628D02*
X-8205658Y-36148628D01*
X-7848515Y-35005771D02*
X-7848515Y-36505771D01*
X-7848515Y-35077200D02*
X-7705658Y-35005771D01*
X-7419943Y-35005771D01*
X-7277086Y-35077200D01*
X-7205658Y-35148628D01*
X-7134229Y-35291485D01*
X-7134229Y-35720057D01*
X-7205658Y-35862914D01*
X-7277086Y-35934342D01*
X-7419943Y-36005771D01*
X-7705658Y-36005771D01*
X-7848515Y-35934342D01*
X-5848515Y-35934342D02*
X-5991372Y-36005771D01*
X-6277086Y-36005771D01*
X-6419943Y-35934342D01*
X-6491372Y-35862914D01*
X-6562800Y-35720057D01*
X-6562800Y-35291485D01*
X-6491372Y-35148628D01*
X-6419943Y-35077200D01*
X-6277086Y-35005771D01*
X-5991372Y-35005771D01*
X-5848515Y-35077200D01*
X-5205658Y-36005771D02*
X-5205658Y-34505771D01*
X-5205658Y-35077200D02*
X-5062800Y-35005771D01*
X-4777086Y-35005771D01*
X-4634229Y-35077200D01*
X-4562800Y-35148628D01*
X-4491372Y-35291485D01*
X-4491372Y-35720057D01*
X-4562800Y-35862914D01*
X-4634229Y-35934342D01*
X-4777086Y-36005771D01*
X-5062800Y-36005771D01*
X-5205658Y-35934342D01*
D10*
D11*
X-32137800Y-31127200D02*
X75862200Y-31127200D01*
D10*
D11*
X-30777086Y-33234342D02*
X-30562800Y-33305771D01*
X-30205658Y-33305771D01*
X-30062800Y-33234342D01*
X-29991372Y-33162914D01*
X-29919943Y-33020057D01*
X-29919943Y-32877200D01*
X-29991372Y-32734342D01*
X-30062800Y-32662914D01*
X-30205658Y-32591485D01*
X-30491372Y-32520057D01*
X-30634229Y-32448628D01*
X-30705658Y-32377200D01*
X-30777086Y-32234342D01*
X-30777086Y-32091485D01*
X-30705658Y-31948628D01*
X-30634229Y-31877200D01*
X-30491372Y-31805771D01*
X-30134229Y-31805771D01*
X-29919943Y-31877200D01*
X-29277086Y-33305771D02*
X-29277086Y-31805771D01*
X-28634229Y-33305771D02*
X-28634229Y-32520057D01*
X-28705658Y-32377200D01*
X-28848515Y-32305771D01*
X-29062800Y-32305771D01*
X-29205658Y-32377200D01*
X-29277086Y-32448628D01*
X-27348515Y-33234342D02*
X-27491372Y-33305771D01*
X-27777086Y-33305771D01*
X-27919943Y-33234342D01*
X-27991372Y-33091485D01*
X-27991372Y-32520057D01*
X-27919943Y-32377200D01*
X-27777086Y-32305771D01*
X-27491372Y-32305771D01*
X-27348515Y-32377200D01*
X-27277086Y-32520057D01*
X-27277086Y-32662914D01*
X-27991372Y-32805771D01*
X-26062800Y-33234342D02*
X-26205658Y-33305771D01*
X-26491372Y-33305771D01*
X-26634229Y-33234342D01*
X-26705658Y-33091485D01*
X-26705658Y-32520057D01*
X-26634229Y-32377200D01*
X-26491372Y-32305771D01*
X-26205658Y-32305771D01*
X-26062800Y-32377200D01*
X-25991372Y-32520057D01*
X-25991372Y-32662914D01*
X-26705658Y-32805771D01*
X-25562800Y-32305771D02*
X-24991372Y-32305771D01*
X-25348515Y-31805771D02*
X-25348515Y-33091485D01*
X-25277086Y-33234342D01*
X-25134229Y-33305771D01*
X-24991372Y-33305771D01*
X-24491372Y-33162914D02*
X-24419943Y-33234342D01*
X-24491372Y-33305771D01*
X-24562800Y-33234342D01*
X-24491372Y-33162914D01*
X-24491372Y-33305771D01*
X-24491372Y-32377200D02*
X-24419943Y-32448628D01*
X-24491372Y-32520057D01*
X-24562800Y-32448628D01*
X-24491372Y-32377200D01*
X-24491372Y-32520057D01*
D10*
D12*
X-29371372Y-29162914D02*
X-29514229Y-29091485D01*
X-29799943Y-29091485D01*
X-29942800Y-29162914D01*
X-30085658Y-29305771D01*
X-30157086Y-29448628D01*
X-30157086Y-29734342D01*
X-30085658Y-29877200D01*
X-29942800Y-30020057D01*
X-29799943Y-30091485D01*
X-29514229Y-30091485D01*
X-29371372Y-30020057D01*
X-29657086Y-28591485D02*
X-30014229Y-28662914D01*
X-30371372Y-28877200D01*
X-30585658Y-29234342D01*
X-30657086Y-29591485D01*
X-30585658Y-29948628D01*
X-30371372Y-30305771D01*
X-30014229Y-30520057D01*
X-29657086Y-30591485D01*
X-29299943Y-30520057D01*
X-28942800Y-30305771D01*
X-28728515Y-29948628D01*
X-28657086Y-29591485D01*
X-28728515Y-29234342D01*
X-28942800Y-28877200D01*
X-29299943Y-28662914D01*
X-29657086Y-28591485D01*
X-27014229Y-28805771D02*
X-26657086Y-30305771D01*
X-26371372Y-29234342D01*
X-26085658Y-30305771D01*
X-25728515Y-28805771D01*
X-24942800Y-30305771D02*
X-25085658Y-30234342D01*
X-25157086Y-30162914D01*
X-25228515Y-30020057D01*
X-25228515Y-29591485D01*
X-25157086Y-29448628D01*
X-25085658Y-29377200D01*
X-24942800Y-29305771D01*
X-24728515Y-29305771D01*
X-24585658Y-29377200D01*
X-24514229Y-29448628D01*
X-24442800Y-29591485D01*
X-24442800Y-30020057D01*
X-24514229Y-30162914D01*
X-24585658Y-30234342D01*
X-24728515Y-30305771D01*
X-24942800Y-30305771D01*
X-23157086Y-30305771D02*
X-23157086Y-28805771D01*
X-23157086Y-30234342D02*
X-23299943Y-30305771D01*
X-23585658Y-30305771D01*
X-23728515Y-30234342D01*
X-23799943Y-30162914D01*
X-23871372Y-30020057D01*
X-23871372Y-29591485D01*
X-23799943Y-29448628D01*
X-23728515Y-29377200D01*
X-23585658Y-29305771D01*
X-23299943Y-29305771D01*
X-23157086Y-29377200D01*
X-22228515Y-30305771D02*
X-22371372Y-30234342D01*
X-22442800Y-30162914D01*
X-22514229Y-30020057D01*
X-22514229Y-29591485D01*
X-22442800Y-29448628D01*
X-22371372Y-29377200D01*
X-22228515Y-29305771D01*
X-22014229Y-29305771D01*
X-21871372Y-29377200D01*
X-21799943Y-29448628D01*
X-21728515Y-29591485D01*
X-21728515Y-30020057D01*
X-21799943Y-30162914D01*
X-21871372Y-30234342D01*
X-22014229Y-30305771D01*
X-22228515Y-30305771D01*
X-21228515Y-28805771D02*
X-20871372Y-30305771D01*
X-20585658Y-29234342D01*
X-20299943Y-30305771D01*
X-19942800Y-28805771D01*
X-19371372Y-30305771D02*
X-19371372Y-29305771D01*
X-19371372Y-28805771D02*
X-19442800Y-28877200D01*
X-19371372Y-28948628D01*
X-19299943Y-28877200D01*
X-19371372Y-28805771D01*
X-19371372Y-28948628D01*
X-18085658Y-30234342D02*
X-18228515Y-30305771D01*
X-18514229Y-30305771D01*
X-18657086Y-30234342D01*
X-18728515Y-30091485D01*
X-18728515Y-29520057D01*
X-18657086Y-29377200D01*
X-18514229Y-29305771D01*
X-18228515Y-29305771D01*
X-18085658Y-29377200D01*
X-18014229Y-29520057D01*
X-18014229Y-29662914D01*
X-18728515Y-29805771D01*
X-17442800Y-30234342D02*
X-17299943Y-30305771D01*
X-17014229Y-30305771D01*
X-16871372Y-30234342D01*
X-16799943Y-30091485D01*
X-16799943Y-30020057D01*
X-16871372Y-29877200D01*
X-17014229Y-29805771D01*
X-17228515Y-29805771D01*
X-17371372Y-29734342D01*
X-17442800Y-29591485D01*
X-17442800Y-29520057D01*
X-17371372Y-29377200D01*
X-17228515Y-29305771D01*
X-17014229Y-29305771D01*
X-16871372Y-29377200D01*
X-15585658Y-30234342D02*
X-15728515Y-30305771D01*
X-16014229Y-30305771D01*
X-16157086Y-30234342D01*
X-16228515Y-30091485D01*
X-16228515Y-29520057D01*
X-16157086Y-29377200D01*
X-16014229Y-29305771D01*
X-15728515Y-29305771D01*
X-15585658Y-29377200D01*
X-15514229Y-29520057D01*
X-15514229Y-29662914D01*
X-16228515Y-29805771D01*
X-14657086Y-30305771D02*
X-14799943Y-30234342D01*
X-14871372Y-30091485D01*
X-14871372Y-28805771D01*
D10*
D11*
D10*
D11*
D10*
D11*
D10*
D11*
D10*
D11*
X-12137800Y-41127200D02*
X-12137800Y-44127200D01*
D10*
D11*
X51862200Y-41127200D02*
X51862200Y-47627200D01*
D14*
X25118000Y33674000D02*
G75*
G03*
X23918000Y33674000I-600000J0D01*
G01*
X52970000Y65990000D02*
X-10000Y65990000D01*
X-10000Y65990000D02*
X-10000Y10000D01*
X-10000Y10000D02*
X52970000Y10000D01*
X52970000Y10000D02*
X52970000Y65990000D01*
X23918000Y31874000D02*
G75*
G03*
X25118000Y31874000I600000J0D01*
G01*
X23918000Y33674000D02*
X23918000Y31874000D01*
X25118000Y33674000D02*
X25118000Y31874000D01*
X54636666Y10000D02*
G75*
G03*
X54636666Y10000I-1666666J0D01*
G01*
X50470000Y10000D02*
X55470000Y10000D01*
X52970000Y2510000D02*
X52970000Y-2490000D01*
X1666666Y0D02*
G75*
G03*
X1666666Y0I-1666666J0D01*
G01*
X-2500000Y0D02*
X2500000Y0D01*
X0Y2500000D02*
X0Y-2500000D01*
X1646666Y65980000D02*
G75*
G03*
X1646666Y65980000I-1666666J0D01*
G01*
X-2520000Y65980000D02*
X2480000Y65980000D01*
X-20000Y68480000D02*
X-20000Y63480000D01*
X54636666Y65990000D02*
G75*
G03*
X54636666Y65990000I-1666666J0D01*
G01*
X50470000Y65990000D02*
X55470000Y65990000D01*
X52970000Y68490000D02*
X52970000Y63490000D01*
D11*
%TO.C,REF1*%
X13748000Y25016000D02*
G75*
G03*
X13748000Y25016000I-3200000J0D01*
G01*
%TD*%
M02*
