%TF.GenerationSoftware,KiCad,Pcbnew,(6.0.4)*%
%TF.CreationDate,2023-10-13T17:31:34+02:00*%
%TF.ProjectId,swmeter,73776d65-7465-4722-9e6b-696361645f70,0.6*%
%TF.SameCoordinates,PXc773920PY8f69de0*%
%TF.FileFunction,Plated,1,2,PTH,Mixed*%
%TF.FilePolarity,Positive*%
%FSLAX46Y46*%
G04 Gerber Fmt 4.6, Leading zero omitted, Abs format (unit mm)*
G04 Created by KiCad (PCBNEW (6.0.4)) date 2023-10-13 17:31:34*
%MOMM*%
%LPD*%
G01*
G04 APERTURE LIST*
%TA.AperFunction,ViaDrill*%
%ADD10C,0.400000*%
%TD*%
%TA.AperFunction,ComponentDrill*%
%ADD11C,0.500000*%
%TD*%
%TA.AperFunction,ComponentDrill*%
%ADD12C,0.600000*%
%TD*%
%TA.AperFunction,ComponentDrill*%
%ADD13C,0.650000*%
%TD*%
%TA.AperFunction,ComponentDrill*%
%ADD14C,0.800000*%
%TD*%
G04 aperture for slot hole*
%TA.AperFunction,ComponentDrill*%
%ADD15O,0.800000X1.300000*%
%TD*%
%TA.AperFunction,ComponentDrill*%
%ADD16C,0.900000*%
%TD*%
%TA.AperFunction,ComponentDrill*%
%ADD17C,0.914400*%
%TD*%
%TA.AperFunction,ComponentDrill*%
%ADD18C,1.000000*%
%TD*%
G04 aperture for slot hole*
%TA.AperFunction,ComponentDrill*%
%ADD19O,1.000000X1.300000*%
%TD*%
%TA.AperFunction,ComponentDrill*%
%ADD20C,1.100000*%
%TD*%
%TA.AperFunction,ComponentDrill*%
%ADD21C,1.200000*%
%TD*%
%TA.AperFunction,ComponentDrill*%
%ADD22C,1.500000*%
%TD*%
%TA.AperFunction,ComponentDrill*%
%ADD23C,3.200000*%
%TD*%
G04 APERTURE END LIST*
D10*
X1780000Y35650000D03*
X2080000Y63940000D03*
X4590000Y1080000D03*
X12360000Y57710000D03*
X14150000Y49180000D03*
X15552500Y57712500D03*
X16490000Y29810000D03*
X18700000Y10410000D03*
X18980000Y53550000D03*
X19020000Y64010000D03*
X20480000Y30230000D03*
X20708000Y18666000D03*
X22120000Y59190000D03*
X22160000Y56000000D03*
X22840000Y10690000D03*
X23860000Y59230000D03*
X23940000Y55970000D03*
X24830000Y5050000D03*
X24870000Y18940000D03*
X25370000Y25020000D03*
X25760000Y56380000D03*
X26630000Y57200000D03*
X27110000Y61660000D03*
X27650000Y53010000D03*
X28836000Y14856000D03*
X29690000Y27810000D03*
X30060000Y50170000D03*
X30230000Y39570000D03*
X30330000Y61690000D03*
X30370000Y8720000D03*
X30770000Y35430000D03*
X31376000Y14856000D03*
X31410000Y60910000D03*
X32700000Y52940000D03*
X32740000Y59100000D03*
X33230000Y42290000D03*
X33916000Y14856000D03*
X34800000Y61130000D03*
X35250000Y45920000D03*
X35430000Y55660000D03*
X35500000Y37490000D03*
X35520000Y33400000D03*
X35530000Y28800000D03*
X36710000Y14856000D03*
X36750000Y57710000D03*
X37250000Y42570000D03*
X38310000Y61010000D03*
X38780000Y36480000D03*
X38996000Y27556000D03*
X39250000Y14856000D03*
X39290000Y32870000D03*
X39470000Y61650000D03*
X41790000Y14856000D03*
X42070000Y33010000D03*
X42680000Y61670000D03*
X43490000Y46590000D03*
X43950000Y37470000D03*
X44026000Y61268000D03*
X44330000Y14856000D03*
X44980000Y53800000D03*
X45200000Y41040000D03*
X45340000Y57320000D03*
X45590000Y60460000D03*
X46362000Y8506000D03*
X46450000Y51490000D03*
X46870000Y14856000D03*
X47490000Y60440000D03*
X47632000Y19936000D03*
X49020000Y53770000D03*
X49410000Y14856000D03*
X50320000Y56980000D03*
X50330000Y53060000D03*
X50426000Y21968000D03*
X50450000Y1150000D03*
X51142500Y63122500D03*
X51240000Y35530000D03*
X51340000Y44400000D03*
D11*
%TO.C,REF1*%
X8148000Y25016000D03*
X8850944Y26713056D03*
X8850944Y23318944D03*
X10548000Y27416000D03*
X10548000Y22616000D03*
X12245056Y26713056D03*
X12245056Y23318944D03*
X12948000Y25016000D03*
D12*
%TO.C,C1*%
X20200000Y13450000D03*
X22200000Y13450000D03*
D13*
%TO.C,J3*%
X37460000Y50580000D03*
X38730000Y50580000D03*
X40000000Y50580000D03*
%TO.C,J4*%
X44935000Y44400000D03*
X46205000Y44400000D03*
X47475000Y44400000D03*
D14*
%TO.C,SW3*%
X21915000Y45727500D03*
X21915000Y38107500D03*
X24455000Y45727500D03*
X24455000Y38107500D03*
X26995000Y45727500D03*
X26995000Y38107500D03*
%TO.C,U1*%
X27556000Y25524000D03*
X27556000Y17904000D03*
X30096000Y25524000D03*
X30096000Y17904000D03*
%TO.C,D0*%
X31360000Y45980000D03*
%TO.C,RV1*%
X32205000Y39155000D03*
%TO.C,U1*%
X32636000Y25524000D03*
X32636000Y17904000D03*
%TO.C,RV1*%
X34745000Y39155000D03*
%TO.C,U1*%
X35176000Y25524000D03*
X35176000Y17904000D03*
%TO.C,RV1*%
X37285000Y39155000D03*
%TO.C,U1*%
X37716000Y25524000D03*
X37716000Y17904000D03*
%TO.C,D0*%
X38980000Y45980000D03*
%TO.C,R1*%
X40012000Y30858000D03*
%TO.C,U1*%
X40256000Y25524000D03*
X40256000Y17904000D03*
X42796000Y25524000D03*
X42796000Y17904000D03*
%TO.C,RV2*%
X43085000Y39095000D03*
D15*
%TO.C,J1*%
X44192500Y51422500D03*
D14*
%TO.C,U1*%
X45336000Y25524000D03*
X45336000Y17904000D03*
%TO.C,RV2*%
X45625000Y39095000D03*
%TO.C,U1*%
X47876000Y25524000D03*
X47876000Y17904000D03*
%TO.C,RV2*%
X48165000Y39095000D03*
D15*
%TO.C,J1*%
X48792500Y51422500D03*
D14*
%TO.C,R1*%
X50172000Y30858000D03*
D16*
%TO.C,SW1*%
X12940500Y6726500D03*
X16940500Y6726500D03*
X20940500Y6726500D03*
%TO.C,SW2*%
X30792500Y59100000D03*
X34792500Y59100000D03*
X38792500Y59100000D03*
D17*
%TO.C,BAR1*%
X27419496Y12423507D03*
X27419496Y4803507D03*
X29959496Y12423507D03*
X29959496Y4803507D03*
X32499496Y12423507D03*
X32499496Y4803507D03*
X35039496Y12423507D03*
X35039496Y4803507D03*
X37579496Y12423507D03*
X37579496Y4803507D03*
X40119496Y12423507D03*
X40119496Y4803507D03*
X42659496Y12423507D03*
X42659496Y4803507D03*
X45199496Y12423507D03*
X45199496Y4803507D03*
X47739496Y12423507D03*
X47739496Y4803507D03*
X50279496Y12423507D03*
X50279496Y4803507D03*
D18*
%TO.C,J0*%
X13255000Y12060000D03*
X15795000Y12060000D03*
D19*
%TO.C,J1*%
X43742500Y58922500D03*
X49242500Y58922500D03*
D20*
%TO.C,J2*%
X19050000Y57640000D03*
D21*
%TO.C,SW1*%
X10940500Y8476500D03*
X10940500Y2476500D03*
X22940500Y8476500D03*
X22940500Y2476500D03*
%TO.C,SW2*%
X28792500Y63350000D03*
X28792500Y57350000D03*
X40792500Y63350000D03*
X40792500Y57350000D03*
D22*
%TO.C,J2*%
X14025000Y62665000D03*
X14025000Y52615000D03*
X24075000Y62665000D03*
X24075000Y52615000D03*
D23*
%TO.C,REF1*%
X10548000Y25016000D03*
M02*
