%TF.GenerationSoftware,KiCad,Pcbnew,(6.0.4)*%
%TF.CreationDate,2023-03-04T18:32:15+01:00*%
%TF.ProjectId,swmeter,73776d65-7465-4722-9e6b-696361645f70,0.4*%
%TF.SameCoordinates,PXc0c6960PY8f71310*%
%TF.FileFunction,Other,User*%
%FSLAX46Y46*%
G04 Gerber Fmt 4.6, Leading zero omitted, Abs format (unit mm)*
G04 Created by KiCad (PCBNEW (6.0.4)) date 2023-03-04 18:32:15*
%MOMM*%
%LPD*%
G01*
G04 APERTURE LIST*
%ADD10C,0.100000*%
%ADD11C,0.150000*%
%ADD12C,0.300000*%
%ADD13C,0.400000*%
%TA.AperFunction,Profile*%
%ADD14C,0.100000*%
%TD*%
G04 APERTURE END LIST*
D10*
D11*
X-25137800Y-15597200D02*
X-25137800Y-47597200D01*
X82862200Y-47597200D01*
X82862200Y-15597200D01*
X-25137800Y-15597200D01*
D10*
D11*
X-192140000Y140410000D02*
X-192140000Y-49597200D01*
X84862200Y-49597200D01*
X84862200Y140410000D01*
X-192140000Y140410000D01*
D10*
D11*
X-190140000Y138410000D02*
X-190140000Y-47597200D01*
X82862200Y-47597200D01*
X82862200Y138410000D01*
X-190140000Y138410000D01*
D10*
D11*
X-142140000Y138410000D02*
X-142140000Y140410000D01*
D10*
D11*
X-92140000Y138410000D02*
X-92140000Y140410000D01*
D10*
D11*
X-42140000Y138410000D02*
X-42140000Y140410000D01*
D10*
D11*
X7860000Y138410000D02*
X7860000Y140410000D01*
D10*
D11*
X57860000Y138410000D02*
X57860000Y140410000D01*
D10*
D11*
X-166074524Y138821905D02*
X-166817381Y138821905D01*
X-166445953Y138821905D02*
X-166445953Y140121905D01*
X-166569762Y139936191D01*
X-166693572Y139812381D01*
X-166817381Y139750477D01*
D10*
D11*
X-116817381Y139998096D02*
X-116755477Y140060000D01*
X-116631667Y140121905D01*
X-116322143Y140121905D01*
X-116198334Y140060000D01*
X-116136429Y139998096D01*
X-116074524Y139874286D01*
X-116074524Y139750477D01*
X-116136429Y139564762D01*
X-116879286Y138821905D01*
X-116074524Y138821905D01*
D10*
D11*
X-66879286Y140121905D02*
X-66074524Y140121905D01*
X-66507858Y139626667D01*
X-66322143Y139626667D01*
X-66198334Y139564762D01*
X-66136429Y139502858D01*
X-66074524Y139379048D01*
X-66074524Y139069524D01*
X-66136429Y138945715D01*
X-66198334Y138883810D01*
X-66322143Y138821905D01*
X-66693572Y138821905D01*
X-66817381Y138883810D01*
X-66879286Y138945715D01*
D10*
D11*
X-16198334Y139688572D02*
X-16198334Y138821905D01*
X-16507858Y140183810D02*
X-16817381Y139255239D01*
X-16012620Y139255239D01*
D10*
D11*
X33863571Y140121905D02*
X33244523Y140121905D01*
X33182619Y139502858D01*
X33244523Y139564762D01*
X33368333Y139626667D01*
X33677857Y139626667D01*
X33801666Y139564762D01*
X33863571Y139502858D01*
X33925476Y139379048D01*
X33925476Y139069524D01*
X33863571Y138945715D01*
X33801666Y138883810D01*
X33677857Y138821905D01*
X33368333Y138821905D01*
X33244523Y138883810D01*
X33182619Y138945715D01*
D10*
D11*
X83801666Y140121905D02*
X83554047Y140121905D01*
X83430238Y140060000D01*
X83368333Y139998096D01*
X83244523Y139812381D01*
X83182619Y139564762D01*
X83182619Y139069524D01*
X83244523Y138945715D01*
X83306428Y138883810D01*
X83430238Y138821905D01*
X83677857Y138821905D01*
X83801666Y138883810D01*
X83863571Y138945715D01*
X83925476Y139069524D01*
X83925476Y139379048D01*
X83863571Y139502858D01*
X83801666Y139564762D01*
X83677857Y139626667D01*
X83430238Y139626667D01*
X83306428Y139564762D01*
X83244523Y139502858D01*
X83182619Y139379048D01*
D10*
D11*
X-142140000Y-47597200D02*
X-142140000Y-49597200D01*
D10*
D11*
X-92140000Y-47597200D02*
X-92140000Y-49597200D01*
D10*
D11*
X-42140000Y-47597200D02*
X-42140000Y-49597200D01*
D10*
D11*
X7860000Y-47597200D02*
X7860000Y-49597200D01*
D10*
D11*
X57860000Y-47597200D02*
X57860000Y-49597200D01*
D10*
D11*
X-166074524Y-49185295D02*
X-166817381Y-49185295D01*
X-166445953Y-49185295D02*
X-166445953Y-47885295D01*
X-166569762Y-48071009D01*
X-166693572Y-48194819D01*
X-166817381Y-48256723D01*
D10*
D11*
X-116817381Y-48009104D02*
X-116755477Y-47947200D01*
X-116631667Y-47885295D01*
X-116322143Y-47885295D01*
X-116198334Y-47947200D01*
X-116136429Y-48009104D01*
X-116074524Y-48132914D01*
X-116074524Y-48256723D01*
X-116136429Y-48442438D01*
X-116879286Y-49185295D01*
X-116074524Y-49185295D01*
D10*
D11*
X-66879286Y-47885295D02*
X-66074524Y-47885295D01*
X-66507858Y-48380533D01*
X-66322143Y-48380533D01*
X-66198334Y-48442438D01*
X-66136429Y-48504342D01*
X-66074524Y-48628152D01*
X-66074524Y-48937676D01*
X-66136429Y-49061485D01*
X-66198334Y-49123390D01*
X-66322143Y-49185295D01*
X-66693572Y-49185295D01*
X-66817381Y-49123390D01*
X-66879286Y-49061485D01*
D10*
D11*
X-16198334Y-48318628D02*
X-16198334Y-49185295D01*
X-16507858Y-47823390D02*
X-16817381Y-48751961D01*
X-16012620Y-48751961D01*
D10*
D11*
X33863571Y-47885295D02*
X33244523Y-47885295D01*
X33182619Y-48504342D01*
X33244523Y-48442438D01*
X33368333Y-48380533D01*
X33677857Y-48380533D01*
X33801666Y-48442438D01*
X33863571Y-48504342D01*
X33925476Y-48628152D01*
X33925476Y-48937676D01*
X33863571Y-49061485D01*
X33801666Y-49123390D01*
X33677857Y-49185295D01*
X33368333Y-49185295D01*
X33244523Y-49123390D01*
X33182619Y-49061485D01*
D10*
D11*
X83801666Y-47885295D02*
X83554047Y-47885295D01*
X83430238Y-47947200D01*
X83368333Y-48009104D01*
X83244523Y-48194819D01*
X83182619Y-48442438D01*
X83182619Y-48937676D01*
X83244523Y-49061485D01*
X83306428Y-49123390D01*
X83430238Y-49185295D01*
X83677857Y-49185295D01*
X83801666Y-49123390D01*
X83863571Y-49061485D01*
X83925476Y-48937676D01*
X83925476Y-48628152D01*
X83863571Y-48504342D01*
X83801666Y-48442438D01*
X83677857Y-48380533D01*
X83430238Y-48380533D01*
X83306428Y-48442438D01*
X83244523Y-48504342D01*
X83182619Y-48628152D01*
D10*
D11*
X-192140000Y90410000D02*
X-190140000Y90410000D01*
D10*
D11*
X-192140000Y40410000D02*
X-190140000Y40410000D01*
D10*
D11*
X-192140000Y-9590000D02*
X-190140000Y-9590000D01*
D10*
D11*
X-191449524Y115193334D02*
X-190830477Y115193334D01*
X-191573334Y114821905D02*
X-191140000Y116121905D01*
X-190706667Y114821905D01*
D10*
D11*
X-191047143Y65502858D02*
X-190861429Y65440953D01*
X-190799524Y65379048D01*
X-190737620Y65255239D01*
X-190737620Y65069524D01*
X-190799524Y64945715D01*
X-190861429Y64883810D01*
X-190985239Y64821905D01*
X-191480477Y64821905D01*
X-191480477Y66121905D01*
X-191047143Y66121905D01*
X-190923334Y66060000D01*
X-190861429Y65998096D01*
X-190799524Y65874286D01*
X-190799524Y65750477D01*
X-190861429Y65626667D01*
X-190923334Y65564762D01*
X-191047143Y65502858D01*
X-191480477Y65502858D01*
D10*
D11*
X-190737620Y14945715D02*
X-190799524Y14883810D01*
X-190985239Y14821905D01*
X-191109048Y14821905D01*
X-191294762Y14883810D01*
X-191418572Y15007620D01*
X-191480477Y15131429D01*
X-191542381Y15379048D01*
X-191542381Y15564762D01*
X-191480477Y15812381D01*
X-191418572Y15936191D01*
X-191294762Y16060000D01*
X-191109048Y16121905D01*
X-190985239Y16121905D01*
X-190799524Y16060000D01*
X-190737620Y15998096D01*
D10*
D11*
X-191480477Y-35178095D02*
X-191480477Y-33878095D01*
X-191170953Y-33878095D01*
X-190985239Y-33940000D01*
X-190861429Y-34063809D01*
X-190799524Y-34187619D01*
X-190737620Y-34435238D01*
X-190737620Y-34620952D01*
X-190799524Y-34868571D01*
X-190861429Y-34992380D01*
X-190985239Y-35116190D01*
X-191170953Y-35178095D01*
X-191480477Y-35178095D01*
D10*
D11*
X84862200Y90410000D02*
X82862200Y90410000D01*
D10*
D11*
X84862200Y40410000D02*
X82862200Y40410000D01*
D10*
D11*
X84862200Y-9590000D02*
X82862200Y-9590000D01*
D10*
D11*
X83552676Y115193334D02*
X84171723Y115193334D01*
X83428866Y114821905D02*
X83862200Y116121905D01*
X84295533Y114821905D01*
D10*
D11*
X83955057Y65502858D02*
X84140771Y65440953D01*
X84202676Y65379048D01*
X84264580Y65255239D01*
X84264580Y65069524D01*
X84202676Y64945715D01*
X84140771Y64883810D01*
X84016961Y64821905D01*
X83521723Y64821905D01*
X83521723Y66121905D01*
X83955057Y66121905D01*
X84078866Y66060000D01*
X84140771Y65998096D01*
X84202676Y65874286D01*
X84202676Y65750477D01*
X84140771Y65626667D01*
X84078866Y65564762D01*
X83955057Y65502858D01*
X83521723Y65502858D01*
D10*
D11*
X84264580Y14945715D02*
X84202676Y14883810D01*
X84016961Y14821905D01*
X83893152Y14821905D01*
X83707438Y14883810D01*
X83583628Y15007620D01*
X83521723Y15131429D01*
X83459819Y15379048D01*
X83459819Y15564762D01*
X83521723Y15812381D01*
X83583628Y15936191D01*
X83707438Y16060000D01*
X83893152Y16121905D01*
X84016961Y16121905D01*
X84202676Y16060000D01*
X84264580Y15998096D01*
D10*
D11*
X83521723Y-35178095D02*
X83521723Y-33878095D01*
X83831247Y-33878095D01*
X84016961Y-33940000D01*
X84140771Y-34063809D01*
X84202676Y-34187619D01*
X84264580Y-34435238D01*
X84264580Y-34620952D01*
X84202676Y-34868571D01*
X84140771Y-34992380D01*
X84016961Y-35116190D01*
X83831247Y-35178095D01*
X83521723Y-35178095D01*
D10*
D11*
X-1705658Y-43375771D02*
X-1705658Y-41875771D01*
X-1348515Y-41875771D01*
X-1134229Y-41947200D01*
X-991372Y-42090057D01*
X-919943Y-42232914D01*
X-848515Y-42518628D01*
X-848515Y-42732914D01*
X-919943Y-43018628D01*
X-991372Y-43161485D01*
X-1134229Y-43304342D01*
X-1348515Y-43375771D01*
X-1705658Y-43375771D01*
X437200Y-43375771D02*
X437200Y-42590057D01*
X365771Y-42447200D01*
X222914Y-42375771D01*
X-62800Y-42375771D01*
X-205658Y-42447200D01*
X437200Y-43304342D02*
X294342Y-43375771D01*
X-62800Y-43375771D01*
X-205658Y-43304342D01*
X-277086Y-43161485D01*
X-277086Y-43018628D01*
X-205658Y-42875771D01*
X-62800Y-42804342D01*
X294342Y-42804342D01*
X437200Y-42732914D01*
X937200Y-42375771D02*
X1508628Y-42375771D01*
X1151485Y-41875771D02*
X1151485Y-43161485D01*
X1222914Y-43304342D01*
X1365771Y-43375771D01*
X1508628Y-43375771D01*
X2580057Y-43304342D02*
X2437200Y-43375771D01*
X2151485Y-43375771D01*
X2008628Y-43304342D01*
X1937200Y-43161485D01*
X1937200Y-42590057D01*
X2008628Y-42447200D01*
X2151485Y-42375771D01*
X2437200Y-42375771D01*
X2580057Y-42447200D01*
X2651485Y-42590057D01*
X2651485Y-42732914D01*
X1937200Y-42875771D01*
X3294342Y-43232914D02*
X3365771Y-43304342D01*
X3294342Y-43375771D01*
X3222914Y-43304342D01*
X3294342Y-43232914D01*
X3294342Y-43375771D01*
X3294342Y-42447200D02*
X3365771Y-42518628D01*
X3294342Y-42590057D01*
X3222914Y-42518628D01*
X3294342Y-42447200D01*
X3294342Y-42590057D01*
X5080057Y-42018628D02*
X5151485Y-41947200D01*
X5294342Y-41875771D01*
X5651485Y-41875771D01*
X5794342Y-41947200D01*
X5865771Y-42018628D01*
X5937200Y-42161485D01*
X5937200Y-42304342D01*
X5865771Y-42518628D01*
X5008628Y-43375771D01*
X5937200Y-43375771D01*
X6865771Y-41875771D02*
X7008628Y-41875771D01*
X7151485Y-41947200D01*
X7222914Y-42018628D01*
X7294342Y-42161485D01*
X7365771Y-42447200D01*
X7365771Y-42804342D01*
X7294342Y-43090057D01*
X7222914Y-43232914D01*
X7151485Y-43304342D01*
X7008628Y-43375771D01*
X6865771Y-43375771D01*
X6722914Y-43304342D01*
X6651485Y-43232914D01*
X6580057Y-43090057D01*
X6508628Y-42804342D01*
X6508628Y-42447200D01*
X6580057Y-42161485D01*
X6651485Y-42018628D01*
X6722914Y-41947200D01*
X6865771Y-41875771D01*
X7937200Y-42018628D02*
X8008628Y-41947200D01*
X8151485Y-41875771D01*
X8508628Y-41875771D01*
X8651485Y-41947200D01*
X8722914Y-42018628D01*
X8794342Y-42161485D01*
X8794342Y-42304342D01*
X8722914Y-42518628D01*
X7865771Y-43375771D01*
X8794342Y-43375771D01*
X9294342Y-41875771D02*
X10222914Y-41875771D01*
X9722914Y-42447200D01*
X9937200Y-42447200D01*
X10080057Y-42518628D01*
X10151485Y-42590057D01*
X10222914Y-42732914D01*
X10222914Y-43090057D01*
X10151485Y-43232914D01*
X10080057Y-43304342D01*
X9937200Y-43375771D01*
X9508628Y-43375771D01*
X9365771Y-43304342D01*
X9294342Y-43232914D01*
X10865771Y-42804342D02*
X12008628Y-42804342D01*
X13008628Y-41875771D02*
X13151485Y-41875771D01*
X13294342Y-41947200D01*
X13365771Y-42018628D01*
X13437200Y-42161485D01*
X13508628Y-42447200D01*
X13508628Y-42804342D01*
X13437200Y-43090057D01*
X13365771Y-43232914D01*
X13294342Y-43304342D01*
X13151485Y-43375771D01*
X13008628Y-43375771D01*
X12865771Y-43304342D01*
X12794342Y-43232914D01*
X12722914Y-43090057D01*
X12651485Y-42804342D01*
X12651485Y-42447200D01*
X12722914Y-42161485D01*
X12794342Y-42018628D01*
X12865771Y-41947200D01*
X13008628Y-41875771D01*
X14008628Y-41875771D02*
X14937200Y-41875771D01*
X14437200Y-42447200D01*
X14651485Y-42447200D01*
X14794342Y-42518628D01*
X14865771Y-42590057D01*
X14937200Y-42732914D01*
X14937200Y-43090057D01*
X14865771Y-43232914D01*
X14794342Y-43304342D01*
X14651485Y-43375771D01*
X14222914Y-43375771D01*
X14080057Y-43304342D01*
X14008628Y-43232914D01*
X15580057Y-42804342D02*
X16722914Y-42804342D01*
X17722914Y-41875771D02*
X17865771Y-41875771D01*
X18008628Y-41947200D01*
X18080057Y-42018628D01*
X18151485Y-42161485D01*
X18222914Y-42447200D01*
X18222914Y-42804342D01*
X18151485Y-43090057D01*
X18080057Y-43232914D01*
X18008628Y-43304342D01*
X17865771Y-43375771D01*
X17722914Y-43375771D01*
X17580057Y-43304342D01*
X17508628Y-43232914D01*
X17437200Y-43090057D01*
X17365771Y-42804342D01*
X17365771Y-42447200D01*
X17437200Y-42161485D01*
X17508628Y-42018628D01*
X17580057Y-41947200D01*
X17722914Y-41875771D01*
X19580057Y-41875771D02*
X18865771Y-41875771D01*
X18794342Y-42590057D01*
X18865771Y-42518628D01*
X19008628Y-42447200D01*
X19365771Y-42447200D01*
X19508628Y-42518628D01*
X19580057Y-42590057D01*
X19651485Y-42732914D01*
X19651485Y-43090057D01*
X19580057Y-43232914D01*
X19508628Y-43304342D01*
X19365771Y-43375771D01*
X19008628Y-43375771D01*
X18865771Y-43304342D01*
X18794342Y-43232914D01*
D10*
D11*
X-25137800Y-44097200D02*
X82862200Y-44097200D01*
D10*
D11*
X-23705658Y-46175771D02*
X-23705658Y-44675771D01*
X-22848515Y-46175771D02*
X-23491372Y-45318628D01*
X-22848515Y-44675771D02*
X-23705658Y-45532914D01*
X-22205658Y-46175771D02*
X-22205658Y-45175771D01*
X-22205658Y-44675771D02*
X-22277086Y-44747200D01*
X-22205658Y-44818628D01*
X-22134229Y-44747200D01*
X-22205658Y-44675771D01*
X-22205658Y-44818628D01*
X-20634229Y-46032914D02*
X-20705658Y-46104342D01*
X-20919943Y-46175771D01*
X-21062800Y-46175771D01*
X-21277086Y-46104342D01*
X-21419943Y-45961485D01*
X-21491372Y-45818628D01*
X-21562800Y-45532914D01*
X-21562800Y-45318628D01*
X-21491372Y-45032914D01*
X-21419943Y-44890057D01*
X-21277086Y-44747200D01*
X-21062800Y-44675771D01*
X-20919943Y-44675771D01*
X-20705658Y-44747200D01*
X-20634229Y-44818628D01*
X-19348515Y-46175771D02*
X-19348515Y-45390057D01*
X-19419943Y-45247200D01*
X-19562800Y-45175771D01*
X-19848515Y-45175771D01*
X-19991372Y-45247200D01*
X-19348515Y-46104342D02*
X-19491372Y-46175771D01*
X-19848515Y-46175771D01*
X-19991372Y-46104342D01*
X-20062800Y-45961485D01*
X-20062800Y-45818628D01*
X-19991372Y-45675771D01*
X-19848515Y-45604342D01*
X-19491372Y-45604342D01*
X-19348515Y-45532914D01*
X-17991372Y-46175771D02*
X-17991372Y-44675771D01*
X-17991372Y-46104342D02*
X-18134229Y-46175771D01*
X-18419943Y-46175771D01*
X-18562800Y-46104342D01*
X-18634229Y-46032914D01*
X-18705658Y-45890057D01*
X-18705658Y-45461485D01*
X-18634229Y-45318628D01*
X-18562800Y-45247200D01*
X-18419943Y-45175771D01*
X-18134229Y-45175771D01*
X-17991372Y-45247200D01*
X-16134229Y-45390057D02*
X-15634229Y-45390057D01*
X-15419943Y-46175771D02*
X-16134229Y-46175771D01*
X-16134229Y-44675771D01*
X-15419943Y-44675771D01*
X-14777086Y-46032914D02*
X-14705658Y-46104342D01*
X-14777086Y-46175771D01*
X-14848515Y-46104342D01*
X-14777086Y-46032914D01*
X-14777086Y-46175771D01*
X-14062800Y-46175771D02*
X-14062800Y-44675771D01*
X-13705658Y-44675771D01*
X-13491372Y-44747200D01*
X-13348515Y-44890057D01*
X-13277086Y-45032914D01*
X-13205658Y-45318628D01*
X-13205658Y-45532914D01*
X-13277086Y-45818628D01*
X-13348515Y-45961485D01*
X-13491372Y-46104342D01*
X-13705658Y-46175771D01*
X-14062800Y-46175771D01*
X-12562800Y-46032914D02*
X-12491372Y-46104342D01*
X-12562800Y-46175771D01*
X-12634229Y-46104342D01*
X-12562800Y-46032914D01*
X-12562800Y-46175771D01*
X-11919943Y-45747200D02*
X-11205658Y-45747200D01*
X-12062800Y-46175771D02*
X-11562800Y-44675771D01*
X-11062800Y-46175771D01*
X-10562800Y-46032914D02*
X-10491372Y-46104342D01*
X-10562800Y-46175771D01*
X-10634229Y-46104342D01*
X-10562800Y-46032914D01*
X-10562800Y-46175771D01*
X-7562800Y-46175771D02*
X-7562800Y-44675771D01*
X-7419943Y-45604342D02*
X-6991372Y-46175771D01*
X-6991372Y-45175771D02*
X-7562800Y-45747200D01*
X-6348515Y-46175771D02*
X-6348515Y-45175771D01*
X-6348515Y-44675771D02*
X-6419943Y-44747200D01*
X-6348515Y-44818628D01*
X-6277086Y-44747200D01*
X-6348515Y-44675771D01*
X-6348515Y-44818628D01*
X-4991372Y-46104342D02*
X-5134229Y-46175771D01*
X-5419943Y-46175771D01*
X-5562800Y-46104342D01*
X-5634229Y-46032914D01*
X-5705658Y-45890057D01*
X-5705658Y-45461485D01*
X-5634229Y-45318628D01*
X-5562800Y-45247200D01*
X-5419943Y-45175771D01*
X-5134229Y-45175771D01*
X-4991372Y-45247200D01*
X-3705658Y-46175771D02*
X-3705658Y-45390057D01*
X-3777086Y-45247200D01*
X-3919943Y-45175771D01*
X-4205658Y-45175771D01*
X-4348515Y-45247200D01*
X-3705658Y-46104342D02*
X-3848515Y-46175771D01*
X-4205658Y-46175771D01*
X-4348515Y-46104342D01*
X-4419943Y-45961485D01*
X-4419943Y-45818628D01*
X-4348515Y-45675771D01*
X-4205658Y-45604342D01*
X-3848515Y-45604342D01*
X-3705658Y-45532914D01*
X-2348515Y-46175771D02*
X-2348515Y-44675771D01*
X-2348515Y-46104342D02*
X-2491372Y-46175771D01*
X-2777086Y-46175771D01*
X-2919943Y-46104342D01*
X-2991372Y-46032914D01*
X-3062800Y-45890057D01*
X-3062800Y-45461485D01*
X-2991372Y-45318628D01*
X-2919943Y-45247200D01*
X-2777086Y-45175771D01*
X-2491372Y-45175771D01*
X-2348515Y-45247200D01*
X-62800Y-46747200D02*
X-134229Y-46675771D01*
X-277086Y-46461485D01*
X-348515Y-46318628D01*
X-419943Y-46104342D01*
X-491372Y-45747200D01*
X-491372Y-45461485D01*
X-419943Y-45104342D01*
X-348515Y-44890057D01*
X-277086Y-44747200D01*
X-134229Y-44532914D01*
X-62800Y-44461485D01*
X1151485Y-44675771D02*
X865771Y-44675771D01*
X722914Y-44747200D01*
X651485Y-44818628D01*
X508628Y-45032914D01*
X437200Y-45318628D01*
X437200Y-45890057D01*
X508628Y-46032914D01*
X580057Y-46104342D01*
X722914Y-46175771D01*
X1008628Y-46175771D01*
X1151485Y-46104342D01*
X1222914Y-46032914D01*
X1294342Y-45890057D01*
X1294342Y-45532914D01*
X1222914Y-45390057D01*
X1151485Y-45318628D01*
X1008628Y-45247200D01*
X722914Y-45247200D01*
X580057Y-45318628D01*
X508628Y-45390057D01*
X437200Y-45532914D01*
X1937200Y-46032914D02*
X2008628Y-46104342D01*
X1937200Y-46175771D01*
X1865771Y-46104342D01*
X1937200Y-46032914D01*
X1937200Y-46175771D01*
X2937200Y-44675771D02*
X3080057Y-44675771D01*
X3222914Y-44747200D01*
X3294342Y-44818628D01*
X3365771Y-44961485D01*
X3437200Y-45247200D01*
X3437200Y-45604342D01*
X3365771Y-45890057D01*
X3294342Y-46032914D01*
X3222914Y-46104342D01*
X3080057Y-46175771D01*
X2937200Y-46175771D01*
X2794342Y-46104342D01*
X2722914Y-46032914D01*
X2651485Y-45890057D01*
X2580057Y-45604342D01*
X2580057Y-45247200D01*
X2651485Y-44961485D01*
X2722914Y-44818628D01*
X2794342Y-44747200D01*
X2937200Y-44675771D01*
X4080057Y-46032914D02*
X4151485Y-46104342D01*
X4080057Y-46175771D01*
X4008628Y-46104342D01*
X4080057Y-46032914D01*
X4080057Y-46175771D01*
X5437200Y-45175771D02*
X5437200Y-46175771D01*
X5080057Y-44604342D02*
X4722914Y-45675771D01*
X5651485Y-45675771D01*
X6080057Y-46747200D02*
X6151485Y-46675771D01*
X6294342Y-46461485D01*
X6365771Y-46318628D01*
X6437200Y-46104342D01*
X6508628Y-45747200D01*
X6508628Y-45461485D01*
X6437200Y-45104342D01*
X6365771Y-44890057D01*
X6294342Y-44747200D01*
X6151485Y-44532914D01*
X6080057Y-44461485D01*
D10*
D11*
X-25137800Y-41097200D02*
X82862200Y-41097200D01*
D10*
D12*
X62271485Y-43375771D02*
X61771485Y-42661485D01*
X61414342Y-43375771D02*
X61414342Y-41875771D01*
X61985771Y-41875771D01*
X62128628Y-41947200D01*
X62200057Y-42018628D01*
X62271485Y-42161485D01*
X62271485Y-42375771D01*
X62200057Y-42518628D01*
X62128628Y-42590057D01*
X61985771Y-42661485D01*
X61414342Y-42661485D01*
X63485771Y-43304342D02*
X63342914Y-43375771D01*
X63057200Y-43375771D01*
X62914342Y-43304342D01*
X62842914Y-43161485D01*
X62842914Y-42590057D01*
X62914342Y-42447200D01*
X63057200Y-42375771D01*
X63342914Y-42375771D01*
X63485771Y-42447200D01*
X63557200Y-42590057D01*
X63557200Y-42732914D01*
X62842914Y-42875771D01*
X64057200Y-42375771D02*
X64414342Y-43375771D01*
X64771485Y-42375771D01*
X65342914Y-43232914D02*
X65414342Y-43304342D01*
X65342914Y-43375771D01*
X65271485Y-43304342D01*
X65342914Y-43232914D01*
X65342914Y-43375771D01*
X65342914Y-42447200D02*
X65414342Y-42518628D01*
X65342914Y-42590057D01*
X65271485Y-42518628D01*
X65342914Y-42447200D01*
X65342914Y-42590057D01*
X67485771Y-41875771D02*
X67628628Y-41875771D01*
X67771485Y-41947200D01*
X67842914Y-42018628D01*
X67914342Y-42161485D01*
X67985771Y-42447200D01*
X67985771Y-42804342D01*
X67914342Y-43090057D01*
X67842914Y-43232914D01*
X67771485Y-43304342D01*
X67628628Y-43375771D01*
X67485771Y-43375771D01*
X67342914Y-43304342D01*
X67271485Y-43232914D01*
X67200057Y-43090057D01*
X67128628Y-42804342D01*
X67128628Y-42447200D01*
X67200057Y-42161485D01*
X67271485Y-42018628D01*
X67342914Y-41947200D01*
X67485771Y-41875771D01*
X68628628Y-43232914D02*
X68700057Y-43304342D01*
X68628628Y-43375771D01*
X68557200Y-43304342D01*
X68628628Y-43232914D01*
X68628628Y-43375771D01*
X69985771Y-42375771D02*
X69985771Y-43375771D01*
X69628628Y-41804342D02*
X69271485Y-42875771D01*
X70200057Y-42875771D01*
D10*
D11*
X-23777086Y-43304342D02*
X-23562800Y-43375771D01*
X-23205658Y-43375771D01*
X-23062800Y-43304342D01*
X-22991372Y-43232914D01*
X-22919943Y-43090057D01*
X-22919943Y-42947200D01*
X-22991372Y-42804342D01*
X-23062800Y-42732914D01*
X-23205658Y-42661485D01*
X-23491372Y-42590057D01*
X-23634229Y-42518628D01*
X-23705658Y-42447200D01*
X-23777086Y-42304342D01*
X-23777086Y-42161485D01*
X-23705658Y-42018628D01*
X-23634229Y-41947200D01*
X-23491372Y-41875771D01*
X-23134229Y-41875771D01*
X-22919943Y-41947200D01*
X-22277086Y-43375771D02*
X-22277086Y-42375771D01*
X-22277086Y-41875771D02*
X-22348515Y-41947200D01*
X-22277086Y-42018628D01*
X-22205658Y-41947200D01*
X-22277086Y-41875771D01*
X-22277086Y-42018628D01*
X-21705658Y-42375771D02*
X-20919943Y-42375771D01*
X-21705658Y-43375771D01*
X-20919943Y-43375771D01*
X-19777086Y-43304342D02*
X-19919943Y-43375771D01*
X-20205658Y-43375771D01*
X-20348515Y-43304342D01*
X-20419943Y-43161485D01*
X-20419943Y-42590057D01*
X-20348515Y-42447200D01*
X-20205658Y-42375771D01*
X-19919943Y-42375771D01*
X-19777086Y-42447200D01*
X-19705658Y-42590057D01*
X-19705658Y-42732914D01*
X-20419943Y-42875771D01*
X-19062800Y-43232914D02*
X-18991372Y-43304342D01*
X-19062800Y-43375771D01*
X-19134229Y-43304342D01*
X-19062800Y-43232914D01*
X-19062800Y-43375771D01*
X-19062800Y-42447200D02*
X-18991372Y-42518628D01*
X-19062800Y-42590057D01*
X-19134229Y-42518628D01*
X-19062800Y-42447200D01*
X-19062800Y-42590057D01*
X-17277086Y-42947200D02*
X-16562800Y-42947200D01*
X-17419943Y-43375771D02*
X-16919943Y-41875771D01*
X-16419943Y-43375771D01*
X-15277086Y-42375771D02*
X-15277086Y-43375771D01*
X-15634229Y-41804342D02*
X-15991372Y-42875771D01*
X-15062800Y-42875771D01*
D10*
D11*
X61294342Y-46175771D02*
X61294342Y-44675771D01*
X62651485Y-46175771D02*
X62651485Y-44675771D01*
X62651485Y-46104342D02*
X62508628Y-46175771D01*
X62222914Y-46175771D01*
X62080057Y-46104342D01*
X62008628Y-46032914D01*
X61937200Y-45890057D01*
X61937200Y-45461485D01*
X62008628Y-45318628D01*
X62080057Y-45247200D01*
X62222914Y-45175771D01*
X62508628Y-45175771D01*
X62651485Y-45247200D01*
X63365771Y-46032914D02*
X63437200Y-46104342D01*
X63365771Y-46175771D01*
X63294342Y-46104342D01*
X63365771Y-46032914D01*
X63365771Y-46175771D01*
X63365771Y-45247200D02*
X63437200Y-45318628D01*
X63365771Y-45390057D01*
X63294342Y-45318628D01*
X63365771Y-45247200D01*
X63365771Y-45390057D01*
X66008628Y-46175771D02*
X65151485Y-46175771D01*
X65580057Y-46175771D02*
X65580057Y-44675771D01*
X65437200Y-44890057D01*
X65294342Y-45032914D01*
X65151485Y-45104342D01*
X67722914Y-44604342D02*
X66437200Y-46532914D01*
X69008628Y-46175771D02*
X68151485Y-46175771D01*
X68580057Y-46175771D02*
X68580057Y-44675771D01*
X68437200Y-44890057D01*
X68294342Y-45032914D01*
X68151485Y-45104342D01*
D10*
D11*
X-25137800Y-37097200D02*
X82862200Y-37097200D01*
D10*
D13*
X-23425420Y-37801961D02*
X-22282562Y-37801961D01*
X-23103991Y-39801961D02*
X-22853991Y-37801961D01*
X-21865896Y-39801961D02*
X-21699229Y-38468628D01*
X-21615896Y-37801961D02*
X-21723039Y-37897200D01*
X-21639705Y-37992438D01*
X-21532562Y-37897200D01*
X-21615896Y-37801961D01*
X-21639705Y-37992438D01*
X-21032562Y-38468628D02*
X-20270658Y-38468628D01*
X-20663515Y-37801961D02*
X-20877800Y-39516247D01*
X-20806372Y-39706723D01*
X-20627800Y-39801961D01*
X-20437324Y-39801961D01*
X-19484943Y-39801961D02*
X-19663515Y-39706723D01*
X-19734943Y-39516247D01*
X-19520658Y-37801961D01*
X-17949229Y-39706723D02*
X-18151610Y-39801961D01*
X-18532562Y-39801961D01*
X-18711134Y-39706723D01*
X-18782562Y-39516247D01*
X-18687324Y-38754342D01*
X-18568277Y-38563866D01*
X-18365896Y-38468628D01*
X-17984943Y-38468628D01*
X-17806372Y-38563866D01*
X-17734943Y-38754342D01*
X-17758753Y-38944819D01*
X-18734943Y-39135295D01*
X-16984943Y-39611485D02*
X-16901610Y-39706723D01*
X-17008753Y-39801961D01*
X-17092086Y-39706723D01*
X-16984943Y-39611485D01*
X-17008753Y-39801961D01*
X-16853991Y-38563866D02*
X-16770658Y-38659104D01*
X-16877800Y-38754342D01*
X-16961134Y-38659104D01*
X-16853991Y-38563866D01*
X-16877800Y-38754342D01*
X-14615896Y-39706723D02*
X-14342086Y-39801961D01*
X-13865896Y-39801961D01*
X-13663515Y-39706723D01*
X-13556372Y-39611485D01*
X-13437324Y-39421009D01*
X-13413515Y-39230533D01*
X-13484943Y-39040057D01*
X-13568277Y-38944819D01*
X-13746848Y-38849580D01*
X-14115896Y-38754342D01*
X-14294467Y-38659104D01*
X-14377800Y-38563866D01*
X-14449229Y-38373390D01*
X-14425420Y-38182914D01*
X-14306372Y-37992438D01*
X-14199229Y-37897200D01*
X-13996848Y-37801961D01*
X-13520658Y-37801961D01*
X-13246848Y-37897200D01*
X-12568277Y-37801961D02*
X-12342086Y-39801961D01*
X-11782562Y-38373390D01*
X-11580181Y-39801961D01*
X-10853991Y-37801961D01*
X-10246848Y-39040057D02*
X-8723039Y-39040057D01*
X-7865896Y-39801961D02*
X-7615896Y-37801961D01*
X-7127800Y-39230533D01*
X-6282562Y-37801961D01*
X-6532562Y-39801961D01*
X-4806372Y-39706723D02*
X-5008753Y-39801961D01*
X-5389705Y-39801961D01*
X-5568277Y-39706723D01*
X-5639705Y-39516247D01*
X-5544467Y-38754342D01*
X-5425420Y-38563866D01*
X-5223039Y-38468628D01*
X-4842086Y-38468628D01*
X-4663515Y-38563866D01*
X-4592086Y-38754342D01*
X-4615896Y-38944819D01*
X-5592086Y-39135295D01*
X-3984943Y-38468628D02*
X-3223039Y-38468628D01*
X-3615896Y-37801961D02*
X-3830181Y-39516247D01*
X-3758753Y-39706723D01*
X-3580181Y-39801961D01*
X-3389705Y-39801961D01*
X-1949229Y-39706723D02*
X-2151610Y-39801961D01*
X-2532562Y-39801961D01*
X-2711134Y-39706723D01*
X-2782562Y-39516247D01*
X-2687324Y-38754342D01*
X-2568277Y-38563866D01*
X-2365896Y-38468628D01*
X-1984943Y-38468628D01*
X-1806372Y-38563866D01*
X-1734943Y-38754342D01*
X-1758753Y-38944819D01*
X-2734943Y-39135295D01*
X-1008753Y-39801961D02*
X-842086Y-38468628D01*
X-889705Y-38849580D02*
X-770658Y-38659104D01*
X-663515Y-38563866D01*
X-461134Y-38468628D01*
X-270658Y-38468628D01*
D10*
D11*
X-23205658Y-35190057D02*
X-23705658Y-35190057D01*
X-23705658Y-35975771D02*
X-23705658Y-34475771D01*
X-22991372Y-34475771D01*
X-22419943Y-35975771D02*
X-22419943Y-34975771D01*
X-22419943Y-34475771D02*
X-22491372Y-34547200D01*
X-22419943Y-34618628D01*
X-22348515Y-34547200D01*
X-22419943Y-34475771D01*
X-22419943Y-34618628D01*
X-21491372Y-35975771D02*
X-21634229Y-35904342D01*
X-21705658Y-35761485D01*
X-21705658Y-34475771D01*
X-20348515Y-35904342D02*
X-20491372Y-35975771D01*
X-20777086Y-35975771D01*
X-20919943Y-35904342D01*
X-20991372Y-35761485D01*
X-20991372Y-35190057D01*
X-20919943Y-35047200D01*
X-20777086Y-34975771D01*
X-20491372Y-34975771D01*
X-20348515Y-35047200D01*
X-20277086Y-35190057D01*
X-20277086Y-35332914D01*
X-20991372Y-35475771D01*
X-19634229Y-35832914D02*
X-19562800Y-35904342D01*
X-19634229Y-35975771D01*
X-19705658Y-35904342D01*
X-19634229Y-35832914D01*
X-19634229Y-35975771D01*
X-19634229Y-35047200D02*
X-19562800Y-35118628D01*
X-19634229Y-35190057D01*
X-19705658Y-35118628D01*
X-19634229Y-35047200D01*
X-19634229Y-35190057D01*
X-17848515Y-35904342D02*
X-17705658Y-35975771D01*
X-17419943Y-35975771D01*
X-17277086Y-35904342D01*
X-17205658Y-35761485D01*
X-17205658Y-35690057D01*
X-17277086Y-35547200D01*
X-17419943Y-35475771D01*
X-17634229Y-35475771D01*
X-17777086Y-35404342D01*
X-17848515Y-35261485D01*
X-17848515Y-35190057D01*
X-17777086Y-35047200D01*
X-17634229Y-34975771D01*
X-17419943Y-34975771D01*
X-17277086Y-35047200D01*
X-16705658Y-34975771D02*
X-16419943Y-35975771D01*
X-16134229Y-35261485D01*
X-15848515Y-35975771D01*
X-15562800Y-34975771D01*
X-14991372Y-35975771D02*
X-14991372Y-34975771D01*
X-14991372Y-35118628D02*
X-14919943Y-35047200D01*
X-14777086Y-34975771D01*
X-14562800Y-34975771D01*
X-14419943Y-35047200D01*
X-14348515Y-35190057D01*
X-14348515Y-35975771D01*
X-14348515Y-35190057D02*
X-14277086Y-35047200D01*
X-14134229Y-34975771D01*
X-13919943Y-34975771D01*
X-13777086Y-35047200D01*
X-13705658Y-35190057D01*
X-13705658Y-35975771D01*
X-12419943Y-35904342D02*
X-12562800Y-35975771D01*
X-12848515Y-35975771D01*
X-12991372Y-35904342D01*
X-13062800Y-35761485D01*
X-13062800Y-35190057D01*
X-12991372Y-35047200D01*
X-12848515Y-34975771D01*
X-12562800Y-34975771D01*
X-12419943Y-35047200D01*
X-12348515Y-35190057D01*
X-12348515Y-35332914D01*
X-13062800Y-35475771D01*
X-11919943Y-34975771D02*
X-11348515Y-34975771D01*
X-11705658Y-34475771D02*
X-11705658Y-35761485D01*
X-11634229Y-35904342D01*
X-11491372Y-35975771D01*
X-11348515Y-35975771D01*
X-10277086Y-35904342D02*
X-10419943Y-35975771D01*
X-10705658Y-35975771D01*
X-10848515Y-35904342D01*
X-10919943Y-35761485D01*
X-10919943Y-35190057D01*
X-10848515Y-35047200D01*
X-10705658Y-34975771D01*
X-10419943Y-34975771D01*
X-10277086Y-35047200D01*
X-10205658Y-35190057D01*
X-10205658Y-35332914D01*
X-10919943Y-35475771D01*
X-9562800Y-35975771D02*
X-9562800Y-34975771D01*
X-9562800Y-35261485D02*
X-9491372Y-35118628D01*
X-9419943Y-35047200D01*
X-9277086Y-34975771D01*
X-9134229Y-34975771D01*
X-8634229Y-35832914D02*
X-8562800Y-35904342D01*
X-8634229Y-35975771D01*
X-8705658Y-35904342D01*
X-8634229Y-35832914D01*
X-8634229Y-35975771D01*
X-7919943Y-35975771D02*
X-7919943Y-34475771D01*
X-7777086Y-35404342D02*
X-7348515Y-35975771D01*
X-7348515Y-34975771D02*
X-7919943Y-35547200D01*
X-6705658Y-35975771D02*
X-6705658Y-34975771D01*
X-6705658Y-34475771D02*
X-6777086Y-34547200D01*
X-6705658Y-34618628D01*
X-6634229Y-34547200D01*
X-6705658Y-34475771D01*
X-6705658Y-34618628D01*
X-5348515Y-35904342D02*
X-5491372Y-35975771D01*
X-5777086Y-35975771D01*
X-5919943Y-35904342D01*
X-5991372Y-35832914D01*
X-6062800Y-35690057D01*
X-6062800Y-35261485D01*
X-5991372Y-35118628D01*
X-5919943Y-35047200D01*
X-5777086Y-34975771D01*
X-5491372Y-34975771D01*
X-5348515Y-35047200D01*
X-4062800Y-35975771D02*
X-4062800Y-35190057D01*
X-4134229Y-35047200D01*
X-4277086Y-34975771D01*
X-4562800Y-34975771D01*
X-4705658Y-35047200D01*
X-4062800Y-35904342D02*
X-4205658Y-35975771D01*
X-4562800Y-35975771D01*
X-4705658Y-35904342D01*
X-4777086Y-35761485D01*
X-4777086Y-35618628D01*
X-4705658Y-35475771D01*
X-4562800Y-35404342D01*
X-4205658Y-35404342D01*
X-4062800Y-35332914D01*
X-2705658Y-35975771D02*
X-2705658Y-34475771D01*
X-2705658Y-35904342D02*
X-2848515Y-35975771D01*
X-3134229Y-35975771D01*
X-3277086Y-35904342D01*
X-3348515Y-35832914D01*
X-3419943Y-35690057D01*
X-3419943Y-35261485D01*
X-3348515Y-35118628D01*
X-3277086Y-35047200D01*
X-3134229Y-34975771D01*
X-2848515Y-34975771D01*
X-2705658Y-35047200D01*
X-2348515Y-36118628D02*
X-1205658Y-36118628D01*
X-848515Y-34975771D02*
X-848515Y-36475771D01*
X-848515Y-35047200D02*
X-705658Y-34975771D01*
X-419943Y-34975771D01*
X-277086Y-35047200D01*
X-205658Y-35118628D01*
X-134229Y-35261485D01*
X-134229Y-35690057D01*
X-205658Y-35832914D01*
X-277086Y-35904342D01*
X-419943Y-35975771D01*
X-705658Y-35975771D01*
X-848515Y-35904342D01*
X1151485Y-35904342D02*
X1008628Y-35975771D01*
X722914Y-35975771D01*
X580057Y-35904342D01*
X508628Y-35832914D01*
X437200Y-35690057D01*
X437200Y-35261485D01*
X508628Y-35118628D01*
X580057Y-35047200D01*
X722914Y-34975771D01*
X1008628Y-34975771D01*
X1151485Y-35047200D01*
X1794342Y-35975771D02*
X1794342Y-34475771D01*
X1794342Y-35047200D02*
X1937200Y-34975771D01*
X2222914Y-34975771D01*
X2365771Y-35047200D01*
X2437200Y-35118628D01*
X2508628Y-35261485D01*
X2508628Y-35690057D01*
X2437200Y-35832914D01*
X2365771Y-35904342D01*
X2222914Y-35975771D01*
X1937200Y-35975771D01*
X1794342Y-35904342D01*
D10*
D11*
X-25137800Y-31097200D02*
X82862200Y-31097200D01*
D10*
D11*
X-23777086Y-33204342D02*
X-23562800Y-33275771D01*
X-23205658Y-33275771D01*
X-23062800Y-33204342D01*
X-22991372Y-33132914D01*
X-22919943Y-32990057D01*
X-22919943Y-32847200D01*
X-22991372Y-32704342D01*
X-23062800Y-32632914D01*
X-23205658Y-32561485D01*
X-23491372Y-32490057D01*
X-23634229Y-32418628D01*
X-23705658Y-32347200D01*
X-23777086Y-32204342D01*
X-23777086Y-32061485D01*
X-23705658Y-31918628D01*
X-23634229Y-31847200D01*
X-23491372Y-31775771D01*
X-23134229Y-31775771D01*
X-22919943Y-31847200D01*
X-22277086Y-33275771D02*
X-22277086Y-31775771D01*
X-21634229Y-33275771D02*
X-21634229Y-32490057D01*
X-21705658Y-32347200D01*
X-21848515Y-32275771D01*
X-22062800Y-32275771D01*
X-22205658Y-32347200D01*
X-22277086Y-32418628D01*
X-20348515Y-33204342D02*
X-20491372Y-33275771D01*
X-20777086Y-33275771D01*
X-20919943Y-33204342D01*
X-20991372Y-33061485D01*
X-20991372Y-32490057D01*
X-20919943Y-32347200D01*
X-20777086Y-32275771D01*
X-20491372Y-32275771D01*
X-20348515Y-32347200D01*
X-20277086Y-32490057D01*
X-20277086Y-32632914D01*
X-20991372Y-32775771D01*
X-19062800Y-33204342D02*
X-19205658Y-33275771D01*
X-19491372Y-33275771D01*
X-19634229Y-33204342D01*
X-19705658Y-33061485D01*
X-19705658Y-32490057D01*
X-19634229Y-32347200D01*
X-19491372Y-32275771D01*
X-19205658Y-32275771D01*
X-19062800Y-32347200D01*
X-18991372Y-32490057D01*
X-18991372Y-32632914D01*
X-19705658Y-32775771D01*
X-18562800Y-32275771D02*
X-17991372Y-32275771D01*
X-18348515Y-31775771D02*
X-18348515Y-33061485D01*
X-18277086Y-33204342D01*
X-18134229Y-33275771D01*
X-17991372Y-33275771D01*
X-17491372Y-33132914D02*
X-17419943Y-33204342D01*
X-17491372Y-33275771D01*
X-17562800Y-33204342D01*
X-17491372Y-33132914D01*
X-17491372Y-33275771D01*
X-17491372Y-32347200D02*
X-17419943Y-32418628D01*
X-17491372Y-32490057D01*
X-17562800Y-32418628D01*
X-17491372Y-32347200D01*
X-17491372Y-32490057D01*
D10*
D12*
X-22371372Y-29132914D02*
X-22514229Y-29061485D01*
X-22799943Y-29061485D01*
X-22942800Y-29132914D01*
X-23085658Y-29275771D01*
X-23157086Y-29418628D01*
X-23157086Y-29704342D01*
X-23085658Y-29847200D01*
X-22942800Y-29990057D01*
X-22799943Y-30061485D01*
X-22514229Y-30061485D01*
X-22371372Y-29990057D01*
X-22657086Y-28561485D02*
X-23014229Y-28632914D01*
X-23371372Y-28847200D01*
X-23585658Y-29204342D01*
X-23657086Y-29561485D01*
X-23585658Y-29918628D01*
X-23371372Y-30275771D01*
X-23014229Y-30490057D01*
X-22657086Y-30561485D01*
X-22299943Y-30490057D01*
X-21942800Y-30275771D01*
X-21728515Y-29918628D01*
X-21657086Y-29561485D01*
X-21728515Y-29204342D01*
X-21942800Y-28847200D01*
X-22299943Y-28632914D01*
X-22657086Y-28561485D01*
X-20014229Y-28775771D02*
X-19657086Y-30275771D01*
X-19371372Y-29204342D01*
X-19085658Y-30275771D01*
X-18728515Y-28775771D01*
X-17942800Y-30275771D02*
X-18085658Y-30204342D01*
X-18157086Y-30132914D01*
X-18228515Y-29990057D01*
X-18228515Y-29561485D01*
X-18157086Y-29418628D01*
X-18085658Y-29347200D01*
X-17942800Y-29275771D01*
X-17728515Y-29275771D01*
X-17585658Y-29347200D01*
X-17514229Y-29418628D01*
X-17442800Y-29561485D01*
X-17442800Y-29990057D01*
X-17514229Y-30132914D01*
X-17585658Y-30204342D01*
X-17728515Y-30275771D01*
X-17942800Y-30275771D01*
X-16157086Y-30275771D02*
X-16157086Y-28775771D01*
X-16157086Y-30204342D02*
X-16299943Y-30275771D01*
X-16585658Y-30275771D01*
X-16728515Y-30204342D01*
X-16799943Y-30132914D01*
X-16871372Y-29990057D01*
X-16871372Y-29561485D01*
X-16799943Y-29418628D01*
X-16728515Y-29347200D01*
X-16585658Y-29275771D01*
X-16299943Y-29275771D01*
X-16157086Y-29347200D01*
X-15228515Y-30275771D02*
X-15371372Y-30204342D01*
X-15442800Y-30132914D01*
X-15514229Y-29990057D01*
X-15514229Y-29561485D01*
X-15442800Y-29418628D01*
X-15371372Y-29347200D01*
X-15228515Y-29275771D01*
X-15014229Y-29275771D01*
X-14871372Y-29347200D01*
X-14799943Y-29418628D01*
X-14728515Y-29561485D01*
X-14728515Y-29990057D01*
X-14799943Y-30132914D01*
X-14871372Y-30204342D01*
X-15014229Y-30275771D01*
X-15228515Y-30275771D01*
X-14228515Y-28775771D02*
X-13871372Y-30275771D01*
X-13585658Y-29204342D01*
X-13299943Y-30275771D01*
X-12942800Y-28775771D01*
X-12371372Y-30275771D02*
X-12371372Y-29275771D01*
X-12371372Y-28775771D02*
X-12442800Y-28847200D01*
X-12371372Y-28918628D01*
X-12299943Y-28847200D01*
X-12371372Y-28775771D01*
X-12371372Y-28918628D01*
X-11085658Y-30204342D02*
X-11228515Y-30275771D01*
X-11514229Y-30275771D01*
X-11657086Y-30204342D01*
X-11728515Y-30061485D01*
X-11728515Y-29490057D01*
X-11657086Y-29347200D01*
X-11514229Y-29275771D01*
X-11228515Y-29275771D01*
X-11085658Y-29347200D01*
X-11014229Y-29490057D01*
X-11014229Y-29632914D01*
X-11728515Y-29775771D01*
X-10442800Y-30204342D02*
X-10299943Y-30275771D01*
X-10014229Y-30275771D01*
X-9871372Y-30204342D01*
X-9799943Y-30061485D01*
X-9799943Y-29990057D01*
X-9871372Y-29847200D01*
X-10014229Y-29775771D01*
X-10228515Y-29775771D01*
X-10371372Y-29704342D01*
X-10442800Y-29561485D01*
X-10442800Y-29490057D01*
X-10371372Y-29347200D01*
X-10228515Y-29275771D01*
X-10014229Y-29275771D01*
X-9871372Y-29347200D01*
X-8585658Y-30204342D02*
X-8728515Y-30275771D01*
X-9014229Y-30275771D01*
X-9157086Y-30204342D01*
X-9228515Y-30061485D01*
X-9228515Y-29490057D01*
X-9157086Y-29347200D01*
X-9014229Y-29275771D01*
X-8728515Y-29275771D01*
X-8585658Y-29347200D01*
X-8514229Y-29490057D01*
X-8514229Y-29632914D01*
X-9228515Y-29775771D01*
X-7657086Y-30275771D02*
X-7799943Y-30204342D01*
X-7871372Y-30061485D01*
X-7871372Y-28775771D01*
D10*
D11*
X-23777086Y-27204342D02*
X-23562800Y-27275771D01*
X-23205658Y-27275771D01*
X-23062800Y-27204342D01*
X-22991372Y-27132914D01*
X-22919943Y-26990057D01*
X-22919943Y-26847200D01*
X-22991372Y-26704342D01*
X-23062800Y-26632914D01*
X-23205658Y-26561485D01*
X-23491372Y-26490057D01*
X-23634229Y-26418628D01*
X-23705658Y-26347200D01*
X-23777086Y-26204342D01*
X-23777086Y-26061485D01*
X-23705658Y-25918628D01*
X-23634229Y-25847200D01*
X-23491372Y-25775771D01*
X-23134229Y-25775771D01*
X-22919943Y-25847200D01*
X-22419943Y-25775771D02*
X-22062800Y-27275771D01*
X-21777086Y-26204342D01*
X-21491372Y-27275771D01*
X-21134229Y-25775771D01*
X-20562800Y-26704342D02*
X-19419943Y-26704342D01*
X-18705658Y-27275771D02*
X-18705658Y-25775771D01*
X-18205658Y-26847200D01*
X-17705658Y-25775771D01*
X-17705658Y-27275771D01*
X-16419943Y-27204342D02*
X-16562800Y-27275771D01*
X-16848515Y-27275771D01*
X-16991372Y-27204342D01*
X-17062800Y-27061485D01*
X-17062800Y-26490057D01*
X-16991372Y-26347200D01*
X-16848515Y-26275771D01*
X-16562800Y-26275771D01*
X-16419943Y-26347200D01*
X-16348515Y-26490057D01*
X-16348515Y-26632914D01*
X-17062800Y-26775771D01*
X-15919943Y-26275771D02*
X-15348515Y-26275771D01*
X-15705658Y-25775771D02*
X-15705658Y-27061485D01*
X-15634229Y-27204342D01*
X-15491372Y-27275771D01*
X-15348515Y-27275771D01*
X-14277086Y-27204342D02*
X-14419943Y-27275771D01*
X-14705658Y-27275771D01*
X-14848515Y-27204342D01*
X-14919943Y-27061485D01*
X-14919943Y-26490057D01*
X-14848515Y-26347200D01*
X-14705658Y-26275771D01*
X-14419943Y-26275771D01*
X-14277086Y-26347200D01*
X-14205658Y-26490057D01*
X-14205658Y-26632914D01*
X-14919943Y-26775771D01*
X-13562800Y-27275771D02*
X-13562800Y-26275771D01*
X-13562800Y-26561485D02*
X-13491372Y-26418628D01*
X-13419943Y-26347200D01*
X-13277086Y-26275771D01*
X-13134229Y-26275771D01*
D10*
D11*
D10*
D11*
D10*
D11*
D10*
D11*
X-5137800Y-41097200D02*
X-5137800Y-44097200D01*
D10*
D11*
X58862200Y-41097200D02*
X58862200Y-47597200D01*
D14*
X30060000Y34610000D02*
G75*
G03*
X28860000Y34610000I-600000J0D01*
G01*
X59970000Y66020000D02*
X0Y66020000D01*
X0Y66020000D02*
X0Y0D01*
X0Y0D02*
X59970000Y0D01*
X59970000Y0D02*
X59970000Y66020000D01*
X28860000Y32810000D02*
G75*
G03*
X30060000Y32810000I600000J0D01*
G01*
X2610000Y34630000D02*
X2610000Y32830000D01*
X28860000Y34610000D02*
X28860000Y32810000D01*
X2610000Y34630000D02*
G75*
G03*
X1410000Y34630000I-600000J-97600D01*
G01*
X30060000Y34610000D02*
X30060000Y32810000D01*
X1410000Y32830000D02*
G75*
G03*
X2610000Y32830000I600000J0D01*
G01*
X1410000Y34630000D02*
X1410000Y32830000D01*
X61586666Y30000D02*
G75*
G03*
X61586666Y30000I-1666666J0D01*
G01*
X57420000Y30000D02*
X62420000Y30000D01*
X59920000Y2530000D02*
X59920000Y-2470000D01*
X1666666Y0D02*
G75*
G03*
X1666666Y0I-1666666J0D01*
G01*
X-2500000Y0D02*
X2500000Y0D01*
X0Y2500000D02*
X0Y-2500000D01*
X1686666Y66040000D02*
G75*
G03*
X1686666Y66040000I-1666666J0D01*
G01*
X-2480000Y66040000D02*
X2520000Y66040000D01*
X20000Y68540000D02*
X20000Y63540000D01*
X61586666Y66070000D02*
G75*
G03*
X61586666Y66070000I-1666666J0D01*
G01*
X57420000Y66070000D02*
X62420000Y66070000D01*
X59920000Y68570000D02*
X59920000Y63570000D01*
M02*
